ply
format ascii 1.0
comment Generated by PyMesh
element vertex 104
property double x
property double y
property double z
element face 408
property list uchar int vertex_indices
end_header
-0.0100133 0.363242 0.247816
-0.0100133 -0.351968 0.24851
-0.0100133 0.352657 0.24851
-0.0100133 -0.362643 0.24781
0.0100133 0.352657 0.24851
0.0100133 0.363242 0.247816
-0.0100133 0.373646 0.245747
0.0100133 -0.351968 0.24851
0.0100133 0.373646 0.245747
-0.0100133 -0.373136 0.245723
0.0100133 -0.362643 0.24781
0.0100133 0.383691 0.242337
-0.0100133 0.383691 0.242337
0.0100133 -0.373136 0.245723
-0.0100133 -0.383266 0.242284
0.0100133 0.393205 0.237645
0.0100133 -0.383266 0.242284
-0.0100133 0.393205 0.237645
-0.0100133 -0.392861 0.237552
0.0100133 0.402026 0.231751
0.0100133 -0.392861 0.237552
-0.0100133 0.402026 0.231751
-0.0100133 -0.401756 0.231609
0.0100133 0.410001 0.224757
0.0100133 -0.401756 0.231609
-0.0100133 0.410001 0.224757
-0.0100133 -0.4098 0.224555
-0.0100133 0.416996 0.216781
0.0100133 -0.4098 0.224555
0.0100133 0.416996 0.216781
-0.0100133 -0.416853 0.216512
-0.0100133 0.422889 0.207961
0.0100133 -0.416853 0.216512
0.0100133 0.422889 0.207961
-0.0100133 -0.422797 0.207616
0.0100133 -0.422797 0.207616
-0.0100133 0.427581 0.198447
0.0100133 0.427581 0.198447
-0.0100133 -0.427528 0.198022
0.0100133 -0.427528 0.198022
-0.0100133 0.430991 0.188402
0.0100133 0.430991 0.188402
-0.0100133 -0.430967 0.187891
0.0100133 -0.430967 0.187891
-0.0100133 0.43306 0.177998
0.0100133 0.43306 0.177998
-0.0100133 -0.433055 0.177399
0.0100133 -0.433055 0.177399
-0.0100133 0.433754 0.167412
0.0100133 0.433754 0.167412
-0.0100133 -0.433754 0.166723
0.0100133 -0.433754 0.166723
-0.0100133 0.433754 -0.148073
0.0100133 0.433754 -0.148073
-0.0100133 -0.433754 -0.187828
0.0100133 -0.433754 -0.187828
-0.0100133 0.432895 -0.161182
0.0100133 0.432895 -0.161182
-0.0100133 0.430332 -0.174068
0.0100133 -0.433235 -0.195749
0.0100133 0.430332 -0.174068
-0.0100133 0.426109 -0.186508
-0.0100133 -0.433235 -0.195749
0.0100133 0.420298 -0.198291
0.0100133 0.426109 -0.186508
-0.0100133 0.420298 -0.198291
0.0100133 -0.431687 -0.203534
-0.0100133 -0.431687 -0.203534
0.0100133 0.412999 -0.209215
-0.0100133 0.412999 -0.209215
0.0100133 -0.429135 -0.21105
-0.0100133 -0.429135 -0.21105
0.0100133 0.404337 -0.219092
-0.0100133 0.404337 -0.219092
0.0100133 -0.425624 -0.218169
-0.0100133 -0.425624 -0.218169
0.0100133 -0.421214 -0.224768
0.0100133 0.394459 -0.227755
-0.0100133 -0.421214 -0.224768
-0.0100133 0.394459 -0.227755
0.0100133 -0.415981 -0.230737
0.0100133 0.383536 -0.235054
-0.0100133 -0.415981 -0.230737
-0.0100133 0.383536 -0.235054
0.0100133 -0.410013 -0.23597
0.0100133 0.371753 -0.240864
-0.0100133 -0.410013 -0.23597
-0.0100133 0.371753 -0.240864
-0.0100133 -0.403414 -0.24038
0.0100133 -0.403414 -0.24038
0.0100133 0.359312 -0.245087
0.0100133 -0.396294 -0.24389
-0.0100133 0.359312 -0.245087
-0.0100133 -0.396294 -0.24389
0.0100133 0.346426 -0.247651
0.0100133 -0.388778 -0.246442
-0.0100133 -0.388778 -0.246442
-0.0100133 0.346426 -0.247651
0.0100133 0.333317 -0.24851
0.0100133 -0.380993 -0.247991
-0.0100133 -0.380993 -0.247991
-0.0100133 0.333317 -0.24851
0.0100133 -0.373073 -0.24851
-0.0100133 -0.373073 -0.24851
3 0 1 2
3 1 0 3
3 3 0 6
3 3 6 9
3 9 6 12
3 9 12 14
3 14 12 17
3 14 17 18
3 18 17 21
3 18 21 22
3 22 21 25
3 22 25 26
3 26 25 27
3 26 27 30
3 30 27 31
3 30 31 34
3 34 31 36
3 34 36 38
3 38 36 40
3 38 40 42
3 42 40 44
3 42 44 46
3 46 44 48
3 46 48 50
3 50 48 52
3 50 52 54
3 54 52 56
3 54 56 58
3 54 58 61
3 54 61 65
3 54 65 62
3 62 65 67
3 67 65 69
3 67 69 71
3 71 69 73
3 71 73 75
3 75 73 78
3 78 73 79
3 78 79 82
3 82 79 83
3 82 83 86
3 86 83 87
3 86 87 88
3 88 87 93
3 93 87 92
3 93 92 96
3 96 92 97
3 96 97 100
3 100 97 101
3 100 101 103
3 2 1 0
3 3 0 1
3 2 4 1
3 0 5 2
3 6 0 3
3 1 7 3
3 7 1 4
3 4 2 5
3 5 0 8
3 6 8 0
3 9 6 3
3 10 3 7
3 7 4 10
3 5 10 4
3 8 10 5
3 8 6 11
3 12 6 9
3 3 10 9
3 13 10 8
3 12 11 6
3 11 13 8
3 14 12 9
3 13 9 10
3 11 12 15
3 16 13 11
3 17 12 14
3 9 13 14
3 17 15 12
3 15 16 11
3 16 14 13
3 18 17 14
3 15 17 19
3 20 16 15
3 14 16 18
3 21 17 18
3 21 19 17
3 19 20 15
3 20 18 16
3 22 21 18
3 19 21 23
3 24 20 19
3 18 20 22
3 25 21 22
3 25 23 21
3 23 24 19
3 24 22 20
3 26 25 22
3 25 27 23
3 28 24 23
3 22 24 26
3 27 25 26
3 29 23 27
3 28 26 24
3 29 28 23
3 30 27 26
3 27 31 29
3 28 32 26
3 32 28 29
3 31 27 30
3 30 26 32
3 33 29 31
3 33 32 29
3 34 31 30
3 32 35 30
3 31 36 33
3 35 32 33
3 36 31 34
3 34 30 35
3 37 33 36
3 37 35 33
3 38 36 34
3 35 39 34
3 36 40 37
3 39 35 37
3 40 36 38
3 38 34 39
3 41 37 40
3 41 39 37
3 42 40 38
3 39 43 38
3 40 44 41
3 43 39 41
3 44 40 42
3 42 38 43
3 45 41 44
3 45 43 41
3 46 44 42
3 43 47 42
3 44 48 45
3 47 43 45
3 48 44 46
3 46 42 47
3 49 45 48
3 49 47 45
3 50 48 46
3 47 51 46
3 48 52 49
3 51 47 49
3 52 48 50
3 50 46 51
3 53 49 52
3 53 51 49
3 54 52 50
3 51 55 50
3 52 56 53
3 55 51 53
3 56 52 54
3 54 50 55
3 57 53 56
3 57 55 53
3 58 56 54
3 55 59 54
3 56 58 57
3 60 55 57
3 61 58 54
3 62 54 59
3 59 55 63
3 60 57 58
3 64 55 60
3 58 61 60
3 65 61 54
3 62 65 54
3 59 66 62
3 63 55 64
3 66 59 63
3 64 60 61
3 61 65 64
3 67 65 62
3 67 62 66
3 63 64 65
3 68 66 63
3 69 65 67
3 66 70 67
3 65 69 63
3 70 66 68
3 68 63 69
3 71 69 67
3 71 67 70
3 72 70 68
3 69 73 68
3 73 69 71
3 70 74 71
3 74 70 72
3 72 68 73
3 75 73 71
3 75 71 74
3 76 74 72
3 72 73 77
3 78 73 75
3 74 76 75
3 77 76 72
3 79 77 73
3 79 73 78
3 78 75 76
3 80 76 77
3 77 79 81
3 82 79 78
3 76 80 78
3 81 80 77
3 83 81 79
3 83 79 82
3 82 78 80
3 84 80 81
3 81 83 85
3 86 83 82
3 82 80 86
3 84 86 80
3 85 84 81
3 87 85 83
3 87 83 86
3 86 84 88
3 89 84 85
3 85 87 90
3 88 87 86
3 89 88 84
3 91 89 85
3 92 90 87
3 90 91 85
3 93 87 88
3 88 89 93
3 91 93 89
3 90 92 94
3 92 87 93
3 95 91 90
3 93 91 96
3 97 94 92
3 94 95 90
3 96 92 93
3 95 96 91
3 94 97 98
3 97 92 96
3 99 95 94
3 96 95 100
3 101 98 97
3 98 99 94
3 100 97 96
3 99 100 95
3 98 101 102
3 101 97 100
3 102 99 98
3 100 99 103
3 103 102 101
3 103 101 100
3 102 103 99
3 1 4 2
3 2 5 0
3 3 7 1
3 4 1 7
3 5 2 4
3 8 0 5
3 0 8 6
3 7 3 10
3 11 6 8
3 9 10 3
3 6 11 12
3 10 9 13
3 15 12 11
3 14 13 9
3 12 15 17
3 13 14 16
3 19 17 15
3 18 16 14
3 17 19 21
3 16 18 20
3 23 21 19
3 22 20 18
3 21 23 25
3 20 22 24
3 23 27 25
3 26 24 22
3 27 23 29
3 24 26 28
3 29 31 27
3 26 32 28
3 32 26 30
3 31 29 33
3 30 35 32
3 33 36 31
3 35 30 34
3 36 33 37
3 34 39 35
3 37 40 36
3 39 34 38
3 40 37 41
3 38 43 39
3 41 44 40
3 43 38 42
3 44 41 45
3 42 47 43
3 45 48 44
3 47 42 46
3 48 45 49
3 46 51 47
3 49 52 48
3 51 46 50
3 52 49 53
3 50 55 51
3 53 56 52
3 55 50 54
3 56 53 57
3 54 59 55
3 57 58 56
3 59 54 62
3 58 57 60
3 60 61 58
3 62 66 59
3 61 60 64
3 64 65 61
3 66 62 67
3 65 64 63
3 67 70 66
3 63 69 65
3 69 63 68
3 70 67 71
3 68 73 69
3 71 74 70
3 73 68 72
3 74 71 75
3 77 73 72
3 75 76 74
3 73 77 79
3 76 75 78
3 81 79 77
3 78 80 76
3 79 81 83
3 80 78 82
3 85 83 81
3 86 80 82
3 80 86 84
3 83 85 87
3 88 84 86
3 90 87 85
3 84 88 89
3 87 90 92
3 93 89 88
3 89 93 91
3 94 92 90
3 96 91 93
3 92 94 97
3 91 96 95
3 98 97 94
3 100 95 96
3 97 98 101
3 95 100 99
3 102 101 98
3 103 99 100
3 101 102 103
3 99 103 102
3 10 4 7
3 4 10 5
3 5 10 8
3 8 10 13
3 8 13 11
3 11 13 16
3 11 16 15
3 15 16 20
3 15 20 19
3 19 20 24
3 19 24 23
3 23 24 28
3 23 28 29
3 29 28 32
3 29 32 33
3 33 32 35
3 33 35 37
3 37 35 39
3 37 39 41
3 41 39 43
3 41 43 45
3 45 43 47
3 45 47 49
3 49 47 51
3 49 51 53
3 53 51 55
3 53 55 57
3 57 55 60
3 63 55 59
3 60 55 64
3 64 55 63
3 63 59 66
3 63 66 68
3 68 66 70
3 68 70 72
3 72 70 74
3 72 74 76
3 72 76 77
3 77 76 80
3 77 80 81
3 81 80 84
3 81 84 85
3 85 84 89
3 85 89 91
3 85 91 90
3 90 91 95
3 90 95 94
3 94 95 99
3 94 99 98
3 98 99 102
