ply
format ascii 1.0
comment Generated by PyMesh
element vertex 158
property double x
property double y
property double z
element face 536
property list uchar int vertex_indices
end_header
-0.0414122 -0.429646 0.215055
-0.0414122 -0.429537 -0.215693
-0.0414122 -0.430002 -0.21024
-0.0414122 -0.428585 0.220431
0.0414122 -0.429537 -0.215693
-0.0414122 -0.430002 0.209588
-0.0152335 -0.430002 -0.21024
-0.0152335 -0.429646 0.215055
-0.0414122 -0.428375 -0.22104
0.0414122 -0.430002 -0.21024
0.0414122 -0.428375 -0.22104
0.0414122 -0.430002 0.209588
0.0414122 -0.429646 0.215055
-0.0414122 -0.426834 0.225622
0.0414122 -0.428585 0.220431
-0.0414122 -0.426533 -0.226191
0.0414122 -0.426533 -0.226191
0.0414122 -0.426834 0.225622
-0.0414122 -0.424426 0.230543
-0.0414122 -0.424043 -0.231066
0.0414122 -0.424043 -0.231066
0.0414122 -0.424426 0.230543
-0.0414122 -0.421402 0.235111
-0.0414122 -0.420945 -0.235577
0.0414122 -0.420945 -0.235577
0.0414122 -0.421402 0.235111
-0.0414122 -0.417808 0.23925
-0.0414122 -0.417291 -0.23965
0.0414122 -0.417291 -0.23965
0.0414122 -0.417808 0.23925
-0.0414122 -0.413709 0.242886
0.0414122 -0.413709 0.242886
-0.0414122 -0.413143 -0.24322
0.0414122 -0.409176 0.24596
-0.0414122 -0.409176 0.24596
0.0414122 -0.413143 -0.24322
-0.0414122 -0.40857 -0.246224
0.0414122 -0.404278 0.24842
0.0414122 -0.40857 -0.246224
-0.0414122 -0.404278 0.24842
-0.0414122 -0.403648 -0.248615
0.0414122 -0.399107 0.250225
0.0414122 -0.403648 -0.248615
-0.0414122 -0.403393 0.223667
-0.0414122 -0.399107 0.250225
-0.0414122 -0.403393 -0.228103
-0.0414122 -0.39846 -0.250352
0.0414122 -0.393743 0.251346
0.0414122 -0.39846 -0.250352
-0.0414122 0.408883 0.223667
-0.0414122 -0.393743 0.251346
-0.0414122 0.408883 -0.228103
-0.0414122 -0.39309 -0.251407
0.0414122 -0.388278 0.25176
0.0414122 -0.39309 -0.251407
-0.0414122 -0.388278 0.25176
-0.0414122 0.392702 0.25176
-0.0414122 -0.387628 -0.25176
0.0414122 0.392702 0.25176
0.0414122 -0.387628 -0.25176
-0.0414122 0.397256 0.250216
-0.0414122 0.392702 -0.25176
0.0414122 0.0271945 0.0932143
0.0414122 0.00829452 0.0787095
0.0414122 0.397256 0.250216
-0.0414122 0.401651 0.24827
-0.0414122 0.397721 -0.250909
0.0414122 0.049208 0.102332
0.0414122 -0.00621026 0.059809
0.0414122 0.395476 0.23568
0.0414122 0.401651 0.24827
-0.0414122 0.405853 0.245936
-0.0414122 0.402599 -0.249452
0.0414122 0.392702 -0.25176
0.0414122 0.0728284 0.105443
0.0414122 -0.0153286 0.0377961
0.0414122 0.389652 0.235516
0.0414122 0.401145 0.234334
0.0414122 0.405853 0.245936
-0.0414122 0.409826 0.243228
-0.0414122 0.407264 -0.247414
0.0414122 0.397721 -0.250909
0.0414122 0.0271945 -0.0648658
0.0414122 0.096451 0.102332
0.0414122 -0.0184388 0.0141757
0.0414122 0.384067 0.233848
0.0414122 0.406273 0.231566
0.0414122 0.409826 0.243228
-0.0414122 0.411646 -0.244824
0.0414122 0.402599 -0.249452
0.0414122 0.396738 0.191438
0.0414122 0.00829452 -0.050361
0.0414122 0.049208 -0.0739808
0.0414122 0.118464 0.0932143
0.0414122 -0.0153286 -0.00944748
0.0414122 0.379106 0.23079
0.0414122 0.413537 0.240176
0.0414122 0.407264 -0.247414
0.0414122 0.40232 0.193105
0.0414122 0.390911 0.191271
0.0414122 -0.00621026 -0.0314576
0.0414122 0.0728284 -0.0770909
0.0414122 0.137364 0.0787095
0.0414122 0.375104 0.226553
0.0414122 0.41051 0.227565
-0.0414122 0.413537 0.240176
0.0414122 0.411646 -0.244824
0.0414122 0.407282 0.19616
0.0414122 0.385243 0.192619
0.0414122 0.096451 -0.0739808
0.0414122 0.15187 0.059809
0.0414122 0.164098 0.0141757
0.0414122 0.41696 0.236801
0.0414122 0.413565 0.222603
-0.0414122 0.415681 -0.241719
0.0414122 0.380115 0.195388
0.0414122 0.118464 -0.0648658
0.0414122 0.160988 0.0377961
0.0414122 0.372336 0.221428
-0.0414122 0.41696 0.236801
0.0414122 0.411283 0.200398
0.0414122 0.415681 -0.241719
0.0414122 0.37588 0.199389
0.0414122 0.137364 -0.050361
0.0414122 0.370988 0.215756
-0.0414122 0.420062 0.233127
0.0414122 0.415233 0.217018
-0.0414122 0.419306 -0.238146
0.0414122 0.414051 0.205526
0.0414122 0.372821 0.20435
0.0414122 0.15187 -0.0314576
0.0414122 0.371155 0.209933
0.0414122 0.420062 0.233127
0.0414122 0.415399 0.211195
0.0414122 0.419306 -0.238146
0.0414122 0.160988 -0.00944748
-0.0414122 0.422819 0.229192
-0.0414122 0.422474 -0.234159
0.0414122 0.422474 -0.234159
0.0414122 0.422819 0.229192
-0.0414122 0.42521 0.225021
-0.0414122 0.42513 -0.229816
0.0414122 0.42513 -0.229816
0.0414122 0.42521 0.225021
-0.0414122 0.427214 0.220652
-0.0414122 0.427237 -0.225182
0.0414122 0.427237 -0.225182
0.0414122 0.427214 0.220652
-0.0414122 0.428815 0.216119
0.0414122 0.428766 -0.220327
0.0414122 0.428815 0.216119
-0.0414122 0.428766 -0.220327
-0.0414122 0.430002 0.211462
-0.0414122 0.429692 -0.215322
0.0414122 0.429692 -0.215322
0.0414122 0.430002 0.211462
-0.0414122 0.430002 -0.21024
0.0414122 0.430002 -0.21024
3 0 1 2
3 1 0 3
3 2 1 0
3 3 0 1
3 0 2 5
3 5 2 0
3 1 3 8
3 8 3 1
3 2 6 5
3 6 2 9
3 8 3 13
3 13 3 8
3 9 12 4
3 4 12 9
3 4 14 10
3 10 14 4
3 9 5 6
3 11 5 9
3 8 13 15
3 15 13 8
3 12 9 11
3 11 9 12
3 4 12 14
3 14 12 4
3 10 14 17
3 17 14 10
3 15 13 18
3 18 13 15
3 10 17 16
3 16 17 10
3 15 18 19
3 19 18 15
3 16 17 21
3 21 17 16
3 19 18 22
3 22 18 19
3 16 21 20
3 20 21 16
3 19 22 23
3 23 22 19
3 20 21 25
3 25 21 20
3 23 22 26
3 26 22 23
3 20 25 24
3 24 25 20
3 23 26 27
3 27 26 23
3 24 25 29
3 29 25 24
3 27 26 30
3 30 26 27
3 24 29 28
3 28 29 24
3 27 30 32
3 32 30 27
3 28 29 31
3 31 29 28
3 32 30 34
3 34 30 32
3 28 31 35
3 35 31 28
3 35 31 33
3 33 31 35
3 32 34 36
3 36 34 32
3 35 33 38
3 38 33 35
3 36 34 39
3 39 34 36
3 38 33 37
3 37 33 38
3 36 39 40
3 40 39 36
3 38 37 42
3 42 37 38
3 40 39 43
3 43 39 40
3 42 37 41
3 41 37 42
3 43 39 44
3 44 39 43
3 45 40 43
3 43 40 45
3 42 41 48
3 48 41 42
3 43 44 49
3 49 44 43
3 40 45 46
3 46 45 40
3 48 41 47
3 47 41 48
3 49 44 50
3 50 44 49
3 46 45 51
3 51 45 46
3 48 47 54
3 54 47 48
3 49 50 55
3 55 50 49
3 46 51 52
3 52 51 46
3 54 47 53
3 53 47 54
3 49 55 56
3 56 55 49
3 52 51 57
3 57 51 52
3 53 58 55
3 54 53 59
3 59 53 54
3 56 55 58
3 49 56 60
3 60 56 49
3 57 51 61
3 61 51 57
3 62 53 58
3 58 53 62
3 59 53 63
3 63 53 59
3 49 60 65
3 65 60 49
3 61 51 66
3 66 51 61
3 57 61 59
3 63 53 62
3 62 53 63
3 62 58 67
3 67 58 62
3 59 63 68
3 68 63 59
3 69 58 64
3 64 58 69
3 49 65 71
3 71 65 49
3 66 51 72
3 72 51 66
3 73 59 61
3 67 58 74
3 74 58 67
3 59 68 75
3 75 68 59
3 76 58 69
3 69 58 76
3 69 64 77
3 77 64 69
3 77 64 70
3 70 64 77
3 49 71 79
3 79 71 49
3 72 51 80
3 80 51 72
3 59 82 73
3 73 82 59
3 74 58 83
3 83 58 74
3 59 75 84
3 84 75 59
3 85 58 76
3 76 58 85
3 77 70 86
3 86 70 77
3 86 70 78
3 78 70 86
3 49 79 51
3 51 79 49
3 80 51 88
3 88 51 80
3 73 90 81
3 81 90 73
3 82 59 91
3 91 59 82
3 73 82 92
3 92 82 73
3 83 58 93
3 93 58 83
3 94 59 84
3 84 59 94
3 95 58 85
3 85 58 95
3 86 78 87
3 87 78 86
3 88 51 79
3 79 51 88
3 81 98 89
3 89 98 81
3 73 99 90
3 90 99 73
3 81 90 98
3 98 90 81
3 91 59 100
3 100 59 91
3 73 92 101
3 101 92 73
3 93 58 102
3 102 58 93
3 100 59 94
3 94 59 100
3 103 58 95
3 95 58 103
3 86 87 104
3 104 87 86
3 104 87 96
3 96 87 104
3 88 79 105
3 105 79 88
3 89 107 97
3 97 107 89
3 89 98 107
3 107 98 89
3 73 108 99
3 99 108 73
3 73 101 109
3 109 101 73
3 102 58 110
3 110 58 102
3 111 58 103
3 103 58 111
3 104 96 113
3 113 96 104
3 88 105 114
3 114 105 88
3 97 107 106
3 106 107 97
3 73 115 108
3 108 115 73
3 73 109 116
3 116 109 73
3 110 58 117
3 117 58 110
3 117 58 111
3 111 58 117
3 111 103 118
3 118 103 111
3 113 96 112
3 112 96 113
3 114 105 119
3 119 105 114
3 106 107 120
3 120 107 106
3 73 122 115
3 115 122 73
3 73 116 123
3 123 116 73
3 111 118 124
3 124 118 111
3 113 112 126
3 126 112 113
3 114 119 127
3 127 119 114
3 106 120 128
3 128 120 106
3 106 128 121
3 121 128 106
3 73 129 122
3 122 129 73
3 73 123 130
3 130 123 73
3 131 111 124
3 124 111 131
3 127 119 125
3 125 119 127
3 126 112 133
3 133 112 126
3 121 128 133
3 133 128 121
3 73 131 129
3 129 131 73
3 73 130 135
3 135 130 73
3 73 111 131
3 131 111 73
3 134 112 132
3 132 112 134
3 127 125 137
3 137 125 127
3 133 112 121
3 121 112 133
3 121 112 134
3 134 112 121
3 73 135 111
3 111 135 73
3 137 125 136
3 136 125 137
3 134 132 138
3 138 132 134
3 138 132 139
3 139 132 138
3 137 136 141
3 141 136 137
3 141 136 140
3 140 136 141
3 138 139 142
3 142 139 138
3 142 139 143
3 143 139 142
3 141 140 145
3 145 140 141
3 145 140 144
3 144 140 145
3 142 143 146
3 146 143 142
3 146 143 147
3 147 143 146
3 145 144 148
3 148 144 145
3 146 147 150
3 150 147 146
3 145 148 151
3 151 148 145
3 146 150 149
3 149 150 146
3 151 148 153
3 153 148 151
3 149 150 154
3 154 150 149
3 153 148 152
3 152 148 153
3 154 150 155
3 155 150 154
3 152 155 156
3 153 152 156
3 156 152 153
3 154 155 157
3 157 155 154
3 157 156 155
3 1 4 2
3 0 7 3
3 9 2 4
3 4 1 10
3 5 11 0
3 12 3 7
3 7 0 12
3 8 10 1
3 12 0 11
3 14 3 12
3 3 14 13
3 10 8 16
3 17 13 14
3 15 16 8
3 13 17 18
3 16 15 20
3 21 18 17
3 19 20 15
3 18 21 22
3 20 19 24
3 25 22 21
3 23 24 19
3 22 25 26
3 24 23 28
3 29 26 25
3 27 28 23
3 29 31 26
3 30 26 31
3 27 32 28
3 31 33 30
3 35 28 32
3 34 30 33
3 32 36 35
3 33 37 34
3 38 35 36
3 39 34 37
3 36 40 38
3 37 41 39
3 42 38 40
3 44 39 41
3 40 46 42
3 41 47 44
3 48 42 46
3 50 44 47
3 46 52 48
3 47 53 50
3 54 48 52
3 55 50 53
3 52 57 54
3 59 54 57
3 58 64 56
3 60 56 64
3 64 70 60
3 65 60 70
3 61 66 73
3 70 78 65
3 71 65 78
3 66 72 81
3 81 73 66
3 78 87 71
3 79 71 87
3 72 80 89
3 89 81 72
3 87 96 79
3 80 88 97
3 97 89 80
3 105 79 96
3 106 97 88
3 96 112 105
3 88 114 106
3 119 105 112
3 121 106 114
3 119 112 125
3 114 127 121
3 132 125 112
3 134 121 127
3 125 132 136
3 134 127 138
3 139 136 132
3 137 138 127
3 136 139 140
3 138 137 142
3 143 140 139
3 141 142 137
3 140 143 144
3 142 141 146
3 147 144 143
3 145 146 141
3 144 147 148
3 146 145 149
3 150 148 147
3 151 149 145
3 148 150 152
3 149 151 154
3 155 152 150
3 153 154 151
3 154 153 157
3 156 157 153
3 5 6 2
3 9 2 6
3 6 5 9
3 9 5 11
3 55 58 53
3 58 55 56
3 59 61 57
3 61 59 73
3 156 155 152
3 155 156 157
3 2 4 1
3 0 6 2
3 2 6 0
3 3 7 0
3 4 2 9
3 10 1 4
3 0 11 5
3 6 0 7
3 7 0 6
3 7 3 12
3 12 0 7
3 1 10 8
3 11 0 12
3 12 3 14
3 13 14 3
3 16 8 10
3 14 13 17
3 8 16 15
3 18 17 13
3 20 15 16
3 17 18 21
3 15 20 19
3 22 21 18
3 24 19 20
3 21 22 25
3 19 24 23
3 26 25 22
3 28 23 24
3 25 26 29
3 23 28 27
3 26 31 29
3 31 26 30
3 28 32 27
3 30 33 31
3 32 28 35
3 33 30 34
3 35 36 32
3 34 37 33
3 36 35 38
3 37 34 39
3 38 40 36
3 39 41 37
3 40 38 42
3 41 39 44
3 42 46 40
3 44 47 41
3 46 42 48
3 47 44 50
3 48 52 46
3 50 53 47
3 52 48 54
3 53 50 55
3 54 57 52
3 57 54 59
3 56 64 58
3 64 56 60
3 60 70 64
3 70 60 65
3 73 66 61
3 65 78 70
3 78 65 71
3 81 72 66
3 66 73 81
3 71 87 78
3 87 71 79
3 89 80 72
3 72 81 89
3 79 96 87
3 97 88 80
3 80 89 97
3 96 79 105
3 88 97 106
3 105 112 96
3 106 114 88
3 112 105 119
3 114 106 121
3 125 112 119
3 121 127 114
3 112 125 132
3 127 121 134
3 136 132 125
3 138 127 134
3 132 136 139
3 127 138 137
3 140 139 136
3 142 137 138
3 139 140 143
3 137 142 141
3 144 143 140
3 146 141 142
3 143 144 147
3 141 146 145
3 148 147 144
3 149 145 146
3 147 148 150
3 145 149 151
3 152 150 148
3 154 151 149
3 150 152 155
3 151 154 153
3 157 153 154
3 153 157 156
