ply
format ascii 1.0
comment Generated by PyMesh
element vertex 588
property double x
property double y
property double z
element face 2158
property list uchar int vertex_indices
end_header
0.0252542 -0.405498 -0.197329
0.0252542 0.396023 0.199954
0.0252542 -0.405498 0.199954
0.0252542 0.396023 -0.197329
0.0252542 -0.405498 -0.197329
0.0252542 0.396023 -0.197329
0.0261233 -0.405498 0.199954
0.0261233 0.396023 -0.197329
0.0261233 0.396023 0.199954
0.0261233 -0.405498 -0.197329
0.0261233 -0.435968 0.217332
0.0261233 -0.435968 -0.217332
0.0261233 0.407898 0.045831
0.0261233 0.43336 0.217332
0.0261233 0.43336 -0.217332
0.0261233 0.406003 -0.0623914
0.0261233 0.41833 0.045831
0.0252362 -0.435968 0.224078
0.0252362 -0.435968 -0.224087
0.0261233 0.413235 -0.108083
0.0261233 0.406238 -0.0641909
0.0261233 0.407898 -0.0428405
0.0235153 0.41833 0.045831
0.0252362 0.43336 0.224078
0.0261233 0.414357 -0.107936
0.0261233 0.412106 -0.107936
0.0252362 0.43336 -0.224087
0.0261233 0.406933 -0.0658692
0.0261233 0.408611 -0.0623914
0.0261233 0.406238 -0.0605919
0.0235153 0.407898 -0.0428405
0.0235153 0.407898 0.045831
0.0261233 0.41833 -0.0428405
0.0226283 -0.435968 0.230372
0.0226283 -0.435968 -0.230372
0.0261233 0.415409 -0.107501
0.0261233 0.411062 -0.107501
0.0261233 0.408037 -0.0673034
0.0261233 0.409193 -0.0645652
0.0261233 0.408759 -0.0612618
0.0261233 0.408759 -0.0635127
0.0261233 0.406933 -0.0589143
0.0235153 0.41833 -0.0428405
0.0261233 0.419912 -0.0623914
0.0226283 0.43336 -0.230372
0.0226283 0.43336 0.230372
0.0261233 0.416304 -0.106815
0.0261233 0.410158 -0.106815
0.0261233 0.40948 -0.0684075
0.0261233 0.410784 -0.0661559
0.0261233 0.409888 -0.0654605
0.0261233 0.417156 -0.0612618
0.0261233 0.417304 -0.0623914
0.0261233 0.409193 -0.0602183
0.0261233 0.409888 -0.0593141
0.0261233 0.419677 -0.0605919
0.0261233 0.419677 -0.0641909
0.0184819 -0.435968 0.235771
0.0184819 -0.435968 -0.235779
0.0261233 0.417 -0.10591
0.0261233 0.409471 -0.10591
0.0261233 0.411158 -0.069103
0.0261233 0.417878 -0.0673034
0.0261233 0.411836 -0.0665908
0.0261233 0.417156 -0.0635127
0.0261233 0.416721 -0.0645652
0.0261233 0.416721 -0.0602183
0.0261233 0.410784 -0.0586276
0.0261233 0.408037 -0.0574711
0.0261233 0.418982 -0.0589143
0.0261233 0.418982 -0.0658692
0.0191684 0.43336 0.217332
0.0184819 0.43336 0.235771
0.0261233 0.417426 -0.104867
0.0261233 0.409036 -0.104867
0.0184819 0.43336 -0.235779
0.0261233 0.409036 -0.0892624
0.0261233 0.416434 -0.0684075
0.0261233 0.412957 -0.0667383
0.0261233 0.416035 -0.0654605
0.0261233 0.41513 -0.0661559
0.0261233 0.416035 -0.0593141
0.0261233 0.411836 -0.0581927
0.0261233 0.41513 -0.0586276
0.0261233 0.40948 -0.056367
0.0261233 0.417878 -0.0574711
0.0185164 0.43336 0.212377
0.0185164 0.43336 0.222279
0.0130833 0.43336 0.239918
0.0130833 -0.435968 -0.239917
0.0261233 0.417582 -0.103737
0.0261233 0.408889 -0.103737
0.0130833 0.43336 -0.239917
0.0261233 0.409185 -0.0903838
0.0261233 0.409185 -0.0881321
0.0261233 0.414757 -0.069103
0.0261233 0.414087 -0.0665908
0.0261233 0.414087 -0.0581927
0.0261233 0.412957 -0.0580452
0.0261233 0.416434 -0.056367
0.0261233 0.411158 -0.0556716
0.0166038 0.43336 0.226895
0.0130833 -0.435968 0.239918
0.0135699 0.43336 0.23085
0.0261233 0.417426 -0.102615
0.0261233 0.409036 -0.102615
0.0135699 0.43336 0.203806
0.0166038 0.43336 0.20777
0.0261233 0.409619 -0.0914362
0.0261233 0.417729 -0.0892624
0.0261233 0.417582 -0.0881321
0.0261233 0.412957 -0.0693462
0.0261233 0.414757 -0.0556716
0.0261233 0.412957 -0.0554372
0.00678944 -0.435968 0.242517
0.00960626 0.43336 0.233893
0.00760685 -0.435968 0.0775617
0.00678944 0.43336 -0.242525
0.0261233 0.416461 -0.0923315
0.0261233 0.410314 -0.0923315
0.0127181 0.43336 -0.0243585
0.0261233 0.417582 -0.0903838
0.0261233 0.417147 -0.0870894
0.0261233 0.409619 -0.0870894
0.0135961 0.43336 0.225156
0.00678944 0.43336 0.242517
0.0111101 0.43336 0.22839
0.00760685 -0.435968 -0.0867413
0.00678944 -0.435968 -0.242525
0.00972756 0.43336 -0.205666
0.0261233 0.417147 -0.0914362
0.0261233 0.415556 -0.0930269
0.0261233 0.41121 -0.0930269
0.0261233 0.417 -0.101564
0.0127181 0.43336 0.02954
0.0135961 0.43336 0.209508
0.0156913 0.43336 0.217332
0.0261233 0.410314 -0.0861851
0.0151613 0.43336 0.221383
4.34206e-05 -0.435968 0.243412
0.0049899 0.43336 0.235806
0.00786737 0.43336 0.230885
0.00760685 -0.262102 -0.0867413
4.34206e-05 0.43336 -0.243412
0.0261233 0.414514 -0.0934611
0.0261233 0.412262 -0.0934611
0.0261233 0.409471 -0.101564
0.00960626 0.43336 0.200763
0.0127181 0.431622 0.02954
0.00972756 0.43336 -0.13438
0.0111101 0.43336 0.206265
0.0151613 0.43336 0.213281
0.0261233 0.416461 -0.0861851
0.0261233 0.41121 -0.0854987
0.0111101 0.302961 0.22839
0.0135961 0.302961 0.225156
4.34206e-05 0.43336 0.243412
-0.0067026 -0.435968 0.242517
4.34206e-05 0.43336 0.236458
4.34206e-05 -0.435968 -0.243412
0.00760685 -0.262102 0.0775617
-0.00717195 -0.435968 -0.0867413
-0.0067026 0.43336 -0.242525
0.0261233 0.416304 -0.100668
0.0261233 0.413383 -0.0936093
0.0049899 0.43336 0.198859
0.0127181 0.431622 -0.0243585
-0.0151 0.43336 0.02954
-0.0111363 0.43336 -0.13438
0.00972756 0.435968 -0.13438
0.0135961 0.302961 0.209508
0.0151613 0.302961 0.213281
0.0151613 0.302961 0.221383
0.0261233 0.415556 -0.0854987
0.0261233 0.412262 -0.0850638
-0.00717195 -0.435968 0.0775617
4.34206e-05 0.43336 0.23298
0.00409462 0.43336 0.232441
0.00786737 0.302961 0.230885
-0.0067026 -0.435968 -0.242525
-0.00717195 -0.262102 0.0775617
0.00269482 -0.262102 0.071407
-0.00717195 -0.262102 -0.0867413
-0.0111363 0.43336 -0.205666
0.0261233 0.410158 -0.100668
4.34206e-05 0.43336 0.198207
0.00786737 0.43336 0.203779
-0.0151 0.431622 -0.0243585
0.00772815 0.431622 -0.0196988
-0.0151 0.431622 0.02954
-0.0134831 0.43336 0.203806
-0.0151 0.43336 -0.0243585
0.00972756 0.435968 -0.205666
0.0111101 0.302961 0.206265
0.0261233 0.414514 -0.0850638
0.0261233 0.413383 -0.0849156
-0.00490306 0.43336 0.235806
-0.0067026 0.43336 0.242517
-0.0129965 -0.435968 -0.239917
-0.00400778 0.43336 0.232441
-0.00252114 -0.262102 0.071407
0.00269482 -0.262102 0.0288095
-0.00252114 -0.262102 -0.0804302
-0.0129965 0.43336 -0.239917
-0.0111363 0.435968 -0.205666
0.0261233 0.415409 -0.0999728
-0.00490306 0.43336 0.198859
0.00409462 0.43336 0.202215
0.00786737 0.302961 0.203779
-0.0100584 0.431622 -0.0196988
0.00425107 0.431622 -0.0196988
0.00772815 0.431622 0.0255061
-0.0100584 0.431622 0.0255061
-0.016517 0.43336 0.20777
-0.00951942 0.43336 0.200763
-0.0111363 0.435968 -0.13438
0.00150386 0.435968 -0.188236
-0.0129965 -0.435968 0.239918
4.34206e-05 0.302961 0.23298
0.00409462 0.302961 0.232441
-0.00252114 -0.415104 0.071407
0.00269482 -0.262102 0.016813
0.00269482 -0.415104 0.0288095
0.00269482 -0.262102 -0.0804302
0.0261233 0.411062 -0.0999728
0.0261233 0.414357 -0.0995379
-0.00400778 0.43336 0.202215
4.34206e-05 0.43336 0.201684
0.00409462 0.302961 0.202215
-0.00658061 0.431622 -0.0196988
0.000834637 0.431622 -0.0196988
0.00425107 0.430752 -0.0196988
0.00425107 0.431622 0.0255061
0.00772815 0.430752 0.0255061
-0.00658061 0.431622 0.0255061
-0.0150745 0.43336 0.213281
-0.0110233 0.43336 0.206265
-0.0183951 0.43336 -0.235779
-0.0037121 0.435968 -0.150855
-0.0037121 0.435968 -0.188236
0.00150386 0.435968 -0.150855
-0.00951942 0.43336 0.233893
-0.00778053 0.43336 0.230885
-0.0129965 0.43336 0.239918
-0.0183951 -0.435968 -0.235779
-0.00400778 0.302961 0.232441
-0.00252114 -0.262102 -0.0378333
0.00269482 -0.415104 0.071407
-0.00252114 -0.262102 0.0288095
0.00269482 -0.262102 -0.0257845
0.00269482 -0.262102 -0.0378333
0.00269482 -0.415104 -0.0804302
0.0261233 0.412106 -0.0995379
0.0261233 0.413235 -0.0993904
-0.00778053 0.43336 0.203779
4.34206e-05 0.302961 0.201684
-0.0100584 0.430752 -0.0196988
-0.00264313 0.431622 -0.0196988
0.00772815 0.430752 -0.0196988
0.000834637 0.431622 0.0255061
-0.00264313 0.431622 0.0255061
-0.00658061 0.430752 0.0255061
-0.0156045 0.43336 0.217332
-0.0135093 0.43336 0.209508
-0.0183951 -0.435968 0.235771
-0.00252114 -0.415104 -0.0378333
-0.00252114 -0.262102 -0.0257845
-0.00252114 -0.415104 0.0288095
-0.00252114 -0.262102 0.016813
0.00269482 -0.415104 -0.0257845
-0.00252114 -0.415104 -0.0804302
-0.00778053 0.302961 0.203779
-0.00400778 0.302961 0.202215
-0.0100584 0.430752 0.0255061
-0.00658061 0.430752 -0.0196988
-0.00264313 0.430752 -0.0196988
0.00425107 0.430752 0.0255061
-0.0184296 0.43336 0.212377
-0.016517 0.43336 0.226895
-0.0150745 0.302961 0.213281
-0.0135093 0.302961 0.209508
-0.0110233 0.302961 0.206265
-0.0134831 0.43336 0.23085
-0.0110233 0.43336 0.22839
-0.00778053 0.302961 0.230885
-0.0183951 0.43336 0.235771
-0.0225421 -0.435968 -0.230372
0.00269482 -0.415104 0.016813
-0.00252114 -0.415104 0.016813
0.00269482 -0.415104 -0.0378333
0.000834637 0.430752 -0.0196988
0.000834637 0.430752 0.0255061
-0.0190816 0.43336 0.217332
-0.0184296 0.43336 0.222279
-0.0150745 0.43336 0.221383
-0.0156045 0.302961 0.217332
-0.0225421 0.43336 0.230372
-0.0225421 -0.435968 0.230372
-0.0225421 0.43336 -0.230372
-0.00252114 -0.415104 -0.0257845
-0.00264313 0.430752 0.0255061
-0.0150745 0.302961 0.221383
-0.0135093 0.302961 0.225156
-0.0135093 0.43336 0.225156
-0.0110233 0.302961 0.22839
-0.0251501 -0.435968 -0.224087
-0.0251501 0.43336 0.224078
-0.0251501 -0.435968 0.224078
-0.0251501 0.43336 -0.224087
-0.0225593 0.43336 -0.0608531
-0.0225593 0.43336 0.0608531
-0.0260364 -0.435968 0.217332
-0.0260364 -0.435968 -0.217332
-0.0260364 0.43336 0.217332
-0.0260364 0.43336 0.0608531
-0.0260364 0.43336 -0.217332
-0.0225593 0.416295 0.00630251
-0.0225593 0.318609 0.0608531
-0.0260364 0.311959 0.0595229
-0.0260364 0.318609 -0.0608531
-0.0260364 0.43336 -0.0608531
-0.0225593 0.414296 0.0111277
-0.0225593 0.416973 0.00112996
-0.0260364 0.318609 0.0608531
-0.0225593 0.406976 0.0184471
-0.0260364 0.314106 0.0602617
-0.0260364 0.309916 0.0585235
-0.0260364 0.314106 -0.0602617
-0.0225593 0.411123 0.015274
-0.0225593 0.410532 0.00895391
-0.0225593 0.416295 -0.00404259
-0.0225593 0.412097 0.00518116
-0.0225593 0.314106 0.0602617
-0.0225593 0.311959 0.0595229
-0.0225593 0.309916 0.0585235
-0.0260364 0.30802 0.057254
-0.0260364 0.311959 -0.0595318
-0.0225593 0.318609 -0.0608531
-0.0225593 0.404803 0.0146833
-0.0225593 0.408045 0.0121967
-0.0225593 0.414296 -0.00886708
-0.0225593 0.412627 0.00112996
-0.0225593 0.386982 0.0184471
-0.0225593 0.30802 0.057254
-0.0260364 0.306317 0.0557591
-0.0260364 0.309916 -0.0585228
-0.0225593 0.314106 -0.0602617
-0.0225593 0.40103 0.0162479
-0.0225593 0.385921 0.0121967
-0.0225593 0.398778 0.00785048
-0.0225593 0.411123 -0.0130051
-0.0225593 0.410532 -0.00669399
-0.0225593 0.412097 -0.00292055
-0.0225593 0.403003 0.00460773
-0.0225593 0.391806 0.0204465
-0.0225593 0.396979 0.0167779
-0.0225593 0.40216 0.0204465
-0.0225593 0.306317 0.0557591
-0.0260364 0.304813 0.0540464
-0.0260364 0.30802 -0.0572623
-0.0225593 0.311959 -0.0595318
-0.0225593 0.392928 0.0162479
-0.0225593 0.389155 0.0146833
-0.0225593 0.383435 0.00895391
-0.0225593 0.396979 0.00808481
-0.0225593 0.400456 0.00715438
-0.0225593 0.406976 -0.0161865
-0.0225593 0.408045 -0.00993605
-0.0225593 0.403934 0.00112996
-0.0225593 0.4019 0.00605094
-0.0225593 0.403699 0.0029295
-0.0225593 0.350426 0.0112056
-0.0225593 0.382844 0.015274
-0.0260364 0.303552 0.05216
-0.0260364 0.306317 -0.0557674
-0.0225593 0.309916 -0.0585228
-0.0225593 0.37967 0.0111277
-0.0225593 0.395179 0.00785048
-0.0225593 0.40216 -0.0181777
-0.0225593 0.40103 -0.013979
-0.0225593 0.404803 -0.0124227
-0.0225593 0.4019 -0.00378137
-0.0225593 0.385921 -0.00993605
-0.0225593 0.403699 -0.000669575
-0.0225593 0.398109 0.00532934
-0.0225593 0.400057 0.00420799
-0.0225593 0.396979 0.0211247
-0.0225593 0.30137 0.0457352
-0.0225593 0.35313 0.0115619
-0.0225593 0.304813 0.0540464
-0.0260364 0.302544 0.0501172
-0.0260364 0.304813 -0.0540547
-0.0225593 0.30802 -0.0572623
-0.0225593 0.377671 0.00630251
-0.0225593 0.393502 0.00715438
-0.0225593 0.396979 -0.0188641
-0.0225593 0.386982 -0.0161865
-0.0225593 0.396979 -0.0145179
-0.0225593 0.389155 -0.0124227
-0.0225593 0.403003 -0.00234712
-0.0225593 0.400456 -0.00489445
-0.0225593 0.383435 -0.00669399
-0.0225593 0.401178 0.00226027
-0.0225593 0.401326 0.00112996
-0.0225593 0.396979 0.00547683
-0.0225593 0.399152 0.00489444
-0.0225593 0.400743 0.00330374
-0.0225593 0.347914 0.0101628
-0.0225593 0.355825 0.0112056
-0.0225593 0.303552 0.05216
-0.0260364 0.301813 0.0479606
-0.0260364 0.303552 -0.0521593
-0.0225593 0.304813 -0.0540547
-0.0225593 0.306317 -0.0557674
-0.0225593 0.38187 0.00518116
-0.0225593 0.358346 0.0101628
-0.0225593 0.392067 0.00605094
-0.0225593 0.301222 -0.0434663
-0.0225593 0.391806 -0.0181777
-0.0225593 0.392928 -0.013979
-0.0225593 0.399152 -0.00263383
-0.0225593 0.398778 -0.00558987
-0.0225593 0.392067 -0.00378137
-0.0225593 0.396979 -0.0058242
-0.0225593 0.37967 -0.00886708
-0.0225593 0.382844 -0.0130051
-0.0225593 0.400743 -0.00104313
-0.0225593 0.401178 8.61082e-06
-0.0225593 0.395857 0.00532934
-0.0225593 0.394806 0.00489444
-0.0225593 0.39391 0.00420799
-0.0225593 0.301813 0.0479606
-0.0225593 0.345749 0.00851075
-0.0225593 0.302544 0.0501172
-0.0260364 0.30137 0.0457352
-0.0260364 0.302544 -0.0501255
-0.0225593 0.303552 -0.0521593
-0.0225593 0.376985 0.00112996
-0.0225593 0.360502 0.00851075
-0.0225593 0.301813 -0.0479696
-0.0225593 0.400057 -0.00193842
-0.0225593 0.398109 -0.00306873
-0.0225593 0.393502 -0.00489445
-0.0225593 0.396979 -0.00321622
-0.0225593 0.395179 -0.00558987
-0.0225593 0.377671 -0.00404259
-0.0225593 0.393215 0.00330374
-0.0225593 0.39278 0.00226027
-0.0225593 0.392632 0.00112996
-0.0260364 0.301222 -0.0434663
-0.0260364 0.301813 -0.0479696
-0.0225593 0.302544 -0.0501255
-0.0225593 0.381331 0.00112996
-0.0225593 0.363206 0.00383375
-0.0225593 0.362162 0.00634593
-0.0225593 0.390963 0.00460773
-0.0225593 0.39391 -0.00193842
-0.0225593 0.394806 -0.00263383
-0.0225593 0.395857 -0.00306873
-0.0225593 0.38187 -0.00292055
-0.0225593 0.362162 -0.00408601
-0.0225593 0.355825 -0.00894496
-0.0225593 0.39278 8.61082e-06
-0.0225593 0.393215 -0.00104313
-0.0225593 0.390268 0.0029295
-0.0225593 0.344097 0.00634593
-0.0225593 0.35313 0.00808481
-0.0225593 0.363562 0.00112996
-0.0225593 0.35493 0.00785048
-0.0225593 0.35313 -0.00930197
-0.0225593 0.363206 -0.00156486
-0.0225593 0.360502 -0.00624187
-0.0225593 0.358346 -0.00790218
-0.0225593 0.390024 0.00112996
-0.0225593 0.351331 0.00785048
-0.0225593 0.343055 0.00383375
-0.0225593 0.390268 -0.000669575
-0.0225593 0.358051 0.00605094
-0.0225593 0.35985 0.0029295
-0.0225593 0.356607 0.00715438
-0.0225593 0.350426 -0.00894496
-0.0225593 0.390963 -0.00234712
-0.0225593 0.359155 -0.00234712
-0.0225593 0.356607 -0.00489445
-0.0225593 0.347914 -0.00790218
-0.0225593 0.349652 0.00715438
-0.0225593 0.34821 0.00605094
-0.0225593 0.342698 0.00112996
-0.0225593 0.359155 0.00460773
-0.0225593 0.360084 0.00112996
-0.0225593 0.35985 -0.000669575
-0.0225593 0.358051 -0.00378137
-0.0225593 0.345749 -0.00624187
-0.0225593 0.35493 -0.00558987
-0.0225593 0.347106 0.00460773
-0.0225593 0.34641 0.0029295
-0.0225593 0.343055 -0.00156486
-0.0225593 0.34641 -0.000669575
-0.0225593 0.347106 -0.00234712
-0.0225593 0.35313 -0.0058242
-0.0225593 0.34821 -0.00378137
-0.0225593 0.349652 -0.00489445
-0.0225593 0.346175 0.00112996
-0.0225593 0.344097 -0.00408601
-0.0225593 0.351331 -0.00558987
-0.0261233 -0.295598 0.0218725
-0.0261233 -0.299196 0.030957
-0.0261233 -0.326103 0.0218725
-0.0261233 -0.295598 0.0715021
-0.0261233 -0.322504 0.030957
-0.0261233 -0.299196 0.0715021
-0.0261233 -0.326103 0.0730935
-0.0261233 -0.308542 0.030957
-0.0261233 -0.322504 0.0730935
-0.0261233 -0.312123 0.030957
-0.0261233 -0.308542 0.0689293
-0.0261233 -0.312123 0.0689293
-0.0261233 -0.299188 -0.0411278
-0.0261233 -0.307629 -0.0402849
-0.0261233 -0.310602 -0.0408238
-0.0261233 -0.297945 -0.0379981
-0.0261233 -0.322165 -0.0421016
-0.0261233 -0.304743 -0.038668
-0.0261233 -0.30064 -0.0438226
-0.0261233 -0.323503 -0.0392414
-0.0261233 -0.302196 -0.0357292
-0.0261233 -0.320591 -0.0445359
-0.0261233 -0.314245 -0.0401891
-0.0261233 -0.296919 -0.0344341
-0.0261233 -0.302309 -0.0460915
-0.0261233 -0.317401 -0.0382675
-0.0261233 -0.300223 -0.0312004
-0.0261233 -0.3188 -0.0465609
-0.0261233 -0.324616 -0.0359725
-0.0261233 -0.296111 -0.0305566
-0.0261233 -0.304161 -0.0478828
-0.0261233 -0.31993 -0.0350076
-0.0261233 -0.299484 -0.0283835
-0.0261233 -0.30616 -0.0491606
-0.0261233 -0.325494 -0.0322431
-0.0261233 -0.295537 -0.0264882
-0.0261233 -0.314853 -0.0492819
-0.0261233 -0.32093 -0.0328517
-0.0261233 -0.298953 -0.0252366
-0.0261233 -0.308316 -0.0499339
-0.0261233 -0.321739 -0.0303306
-0.0261233 -0.295198 -0.0222289
-0.0261233 -0.31062 -0.0501861
-0.0261233 -0.326129 -0.0279838
-0.0261233 -0.298536 -0.0179778
-0.0261233 -0.322817 -0.0247238
-0.0261233 -0.295076 -0.0177862
-0.0261233 -0.326502 -0.0232199
-0.0261233 -0.29891 -0.0116749
-0.0261233 -0.323173 -0.0186732
-0.0261233 -0.295224 -0.0128397
-0.0261233 -0.326624 -0.0179254
-0.0261233 -0.295659 -0.00830192
-0.0261233 -0.323051 -0.0150045
-0.0261233 -0.300049 -0.00654581
-0.0261233 -0.326468 -0.0127701
-0.0261233 -0.296389 -0.00418112
-0.0261233 -0.322686 -0.0116315
-0.0261233 -0.300927 -0.00441614
-0.0261233 -0.325972 -0.00803244
-0.0261233 -0.302022 -0.00254699
-0.0261233 -0.322069 -0.00854522
-0.0261233 -0.297406 -0.000460744
-0.0261233 -0.321217 -0.00575459
-0.0261233 -0.3049 0.000382853
-0.0261233 -0.325155 -0.00370349
-0.0261233 -0.298693 0.00278201
-0.0261233 -0.320122 -0.00332098
-0.0261233 -0.303961 0.00932815
-0.0261233 -0.324016 0.000217442
-0.0261233 -0.300214 0.00549406
-0.0261233 -0.318783 -0.00131261
-0.0261233 -0.30197 0.00767611
-0.0261233 -0.317218 0.000260863
-0.0261233 -0.322564 0.00364283
-0.0261233 -0.31541 0.0014084
-0.0261233 -0.316427 0.0104929
-0.0261233 -0.320817 0.00649411
-0.0261233 -0.318765 0.00878023
-0.0261233 -0.295598 -0.0635824
-0.0261233 -0.326103 -0.0726586
-0.0261233 -0.295598 -0.0726586
-0.0261233 -0.326103 -0.0635824
3 0 1 2
3 1 0 3
3 2 1 0
3 3 0 1
3 1 6 2
3 2 6 1
3 6 0 2
3 2 0 6
3 0 7 3
3 3 7 0
3 7 1 3
3 3 1 7
3 6 1 8
3 8 1 6
3 0 6 9
3 9 6 0
3 7 0 9
3 9 0 7
3 1 7 8
3 8 7 1
3 6 10 8
3 9 11 6
3 7 11 9
3 8 12 7
3 10 13 8
3 10 6 11
3 11 7 14
3 15 7 12
3 12 8 16
3 8 13 16
3 11 18 10
3 7 19 14
3 20 7 15
3 21 15 12
3 12 22 16
3 16 22 12
3 14 16 13
3 10 18 17
3 19 24 14
3 19 7 25
3 27 7 20
3 20 15 28
3 29 15 21
3 30 12 21
3 21 12 30
3 22 12 31
3 31 12 22
3 22 32 16
3 16 32 22
3 32 16 14
3 14 13 26
3 13 23 26
3 18 34 17
3 24 35 14
3 19 25 24
3 25 7 36
3 37 7 27
3 27 20 38
3 28 15 39
3 40 20 28
3 15 29 39
3 41 29 21
3 12 30 31
3 31 30 12
3 32 30 21
3 21 30 32
3 31 22 30
3 32 22 42
3 42 22 32
3 43 32 14
3 26 23 44
3 17 34 33
3 35 46 14
3 24 25 35
3 36 7 47
3 25 36 35
3 48 7 37
3 37 27 49
3 38 20 40
3 50 27 38
3 28 39 51
3 40 28 52
3 39 29 53
3 29 41 54
3 32 41 21
3 30 32 42
3 42 32 30
3 42 30 22
3 55 32 43
3 56 43 14
3 23 45 44
3 34 58 33
3 46 59 14
3 35 36 46
3 47 7 60
3 36 47 46
3 61 7 48
3 48 37 62
3 49 27 50
3 63 37 49
3 38 40 64
3 50 38 65
3 51 39 66
3 52 28 51
3 64 40 52
3 53 29 54
3 39 53 66
3 54 41 67
3 68 41 32
3 69 32 55
3 43 51 55
3 56 64 43
3 70 56 14
3 45 71 44
3 33 58 57
3 59 73 14
3 46 47 59
3 60 7 74
3 47 60 59
3 76 7 61
3 61 48 77
3 37 78 62
3 77 48 62
3 49 50 79
3 78 37 63
3 63 49 80
3 65 38 64
3 79 50 65
3 51 66 55
3 52 51 43
3 64 52 43
3 53 54 81
3 66 53 81
3 67 41 82
3 54 67 83
3 41 68 82
3 84 68 32
3 85 32 69
3 55 81 69
3 65 64 56
3 70 65 56
3 62 70 14
3 71 86 44
3 71 45 87
3 45 72 87
3 58 89 57
3 73 90 14
3 59 60 73
3 74 7 91
3 60 74 73
3 44 86 75
3 93 7 76
3 94 76 61
3 95 61 77
3 78 96 62
3 77 62 14
3 80 49 79
3 78 63 96
3 96 63 80
3 79 65 70
3 66 81 55
3 81 54 83
3 67 82 97
3 83 67 97
3 82 68 98
3 68 84 99
3 100 84 32
3 99 32 85
3 69 97 85
3 81 83 69
3 62 80 70
3 71 87 86
3 87 72 101
3 72 88 103
3 57 89 102
3 90 104 14
3 73 74 90
3 91 7 105
3 74 91 90
3 75 106 92
3 86 107 75
3 108 7 93
3 93 76 109
3 76 94 110
3 111 94 61
3 111 61 95
3 95 77 110
3 96 80 62
3 109 77 14
3 80 79 70
3 98 97 82
3 83 97 69
3 98 68 85
3 99 84 112
3 85 68 99
3 84 100 112
3 113 100 32
3 112 32 99
3 98 85 97
3 87 101 86
3 101 72 103
3 103 88 115
3 102 89 116
3 104 118 14
3 90 91 104
3 105 7 119
3 91 105 104
3 92 106 120
3 107 106 75
3 86 101 107
3 119 7 108
3 108 93 121
3 109 76 110
3 121 93 109
3 110 94 122
3 123 94 111
3 111 95 110
3 110 77 109
3 121 109 14
3 113 112 100
3 113 32 112
3 101 103 124
3 102 116 114
3 88 125 115
3 103 115 126
3 116 89 127
3 92 129 117
3 118 130 14
3 131 118 104
3 132 105 119
3 104 105 133
3 120 106 134
3 120 129 92
3 107 135 106
3 107 101 136
3 119 108 130
3 130 108 121
3 94 123 122
3 122 111 110
3 137 123 111
3 130 121 14
3 124 103 126
3 138 101 124
3 114 116 139
3 115 125 140
3 126 115 141
3 89 128 127
3 127 142 116
3 117 129 143
3 118 119 130
3 131 132 118
3 144 131 104
3 145 105 132
3 132 119 118
3 105 146 133
3 133 144 104
3 106 147 134
3 120 148 134
3 134 148 120
3 129 120 149
3 135 150 106
3 151 135 107
3 136 101 138
3 136 151 107
3 122 123 152
3 152 111 122
3 123 137 152
3 153 137 111
3 139 116 157
3 140 125 158
3 115 140 141
3 128 159 127
3 160 116 142
3 127 161 142
3 143 129 162
3 145 132 131
3 144 145 131
3 146 105 145
3 133 146 163
3 164 144 133
3 147 165 134
3 106 150 147
3 148 120 166
3 166 120 148
3 148 167 134
3 134 167 148
3 149 120 168
3 129 169 149
3 149 169 129
3 173 111 152
3 152 137 173
3 137 153 173
3 174 153 111
3 125 156 158
3 116 175 157
3 140 158 176
3 141 140 177
3 159 179 127
3 160 180 116
3 160 181 142
3 142 181 160
3 182 142 161
3 127 179 161
3 129 183 162
3 164 145 144
3 164 146 145
3 146 184 163
3 163 164 133
3 165 185 134
3 147 186 165
3 150 186 147
3 120 187 166
3 166 187 120
3 148 188 166
3 167 148 189
3 189 148 167
3 134 190 167
3 120 191 168
3 169 168 149
3 149 168 169
3 169 129 192
3 192 129 169
3 194 111 173
3 173 153 194
3 153 174 194
3 195 174 111
3 155 154 170
3 172 155 171
3 158 156 196
3 175 198 157
3 175 116 180
3 176 158 199
3 177 140 176
3 154 178 193
3 180 200 160
3 160 200 180
3 160 200 181
3 181 200 160
3 201 142 181
3 181 142 201
3 202 182 142
3 142 182 202
3 182 161 180
3 198 161 179
3 162 183 203
3 204 129 183
3 183 129 204
3 184 146 164
3 163 184 205
3 205 164 163
3 185 206 134
3 165 207 185
3 186 207 165
3 187 120 191
3 191 120 187
3 166 209 187
3 188 210 166
3 188 148 211
3 148 189 212
3 187 167 189
3 189 167 187
3 213 167 190
3 214 190 134
3 168 191 203
3 168 169 215
3 215 169 168
3 129 204 192
3 192 204 129
3 169 216 192
3 170 154 193
3 171 155 170
3 195 111 194
3 195 194 174
3 156 197 196
3 158 196 199
3 157 198 217
3 161 198 175
3 175 180 161
3 193 178 208
3 200 180 202
3 202 180 200
3 220 181 200
3 200 181 220
3 221 142 201
3 201 142 221
3 181 222 201
3 201 222 181
3 182 202 180
3 180 202 182
3 202 142 223
3 223 142 202
3 168 203 183
3 168 204 183
3 183 204 168
3 224 184 164
3 184 224 205
3 225 164 205
3 206 214 134
3 185 226 206
3 207 227 185
3 167 187 191
3 191 187 167
3 212 187 209
3 229 209 166
3 210 230 166
3 231 188 210
3 210 188 231
3 211 148 232
3 188 233 211
3 211 233 188
3 187 212 189
3 234 148 212
3 167 213 191
3 190 235 213
3 214 236 190
3 203 191 237
3 169 215 238
3 204 168 215
3 215 168 204
3 192 239 204
3 216 239 192
3 216 169 240
3 196 197 241
3 199 196 242
3 198 244 217
3 178 219 208
3 200 202 246
3 246 202 200
3 181 220 247
3 247 220 181
3 248 220 200
3 200 220 248
3 249 142 221
3 221 142 249
3 248 221 201
3 201 221 248
3 222 181 247
3 247 181 222
3 222 248 201
3 201 248 222
3 223 142 250
3 250 142 223
3 251 202 223
3 223 202 251
3 252 224 164
3 205 224 225
3 253 164 225
3 206 254 214
3 226 254 206
3 227 226 185
3 208 219 228
3 212 256 209
3 209 256 212
3 256 229 209
3 209 229 256
3 257 229 166
3 230 257 166
3 232 230 210
3 188 231 258
3 258 231 188
3 232 231 210
3 210 231 232
3 232 148 259
3 233 232 211
3 211 232 233
3 233 188 258
3 258 188 233
3 260 148 234
3 261 212 234
3 234 212 261
3 191 213 237
3 235 262 213
3 263 235 190
3 236 263 190
3 254 236 214
3 204 238 215
3 240 169 238
3 238 204 239
3 216 240 239
3 197 243 241
3 196 241 242
3 217 244 264
3 218 245 255
3 219 218 228
3 202 265 246
3 246 265 202
3 200 246 266
3 266 246 200
3 247 222 220
3 220 248 267
3 267 248 220
3 200 268 248
3 248 268 200
3 250 142 249
3 249 142 250
3 221 269 249
3 249 269 221
3 221 248 268
3 268 248 221
3 248 222 267
3 267 222 248
3 250 251 223
3 223 251 250
3 202 251 270
3 270 251 202
3 224 252 225
3 253 252 164
3 253 225 252
3 228 218 255
3 256 212 273
3 273 212 256
3 229 256 274
3 274 256 229
3 260 229 257
3 275 230 257
3 257 230 275
3 230 232 259
3 258 233 231
3 231 232 276
3 276 232 231
3 259 148 260
3 232 233 276
3 276 233 232
3 229 260 234
3 212 261 273
3 273 261 212
3 229 261 234
3 234 261 229
3 213 277 237
3 262 278 213
3 238 239 240
3 241 243 282
3 242 241 283
3 244 286 264
3 255 245 272
3 265 202 270
3 270 202 265
3 265 250 246
3 246 250 265
3 250 266 246
3 246 266 250
3 200 266 268
3 268 266 200
3 267 220 222
3 266 250 249
3 249 250 266
3 269 221 287
3 287 221 269
3 269 266 249
3 249 266 269
3 288 221 268
3 268 221 288
3 251 250 289
3 289 250 251
3 270 265 251
3 273 256 261
3 274 261 256
3 261 229 274
3 274 229 261
3 260 275 257
3 257 275 260
3 230 275 290
3 290 275 230
3 230 291 259
3 259 291 230
3 276 231 233
3 291 260 259
3 259 260 291
3 277 292 237
3 213 293 277
3 278 293 213
3 262 294 278
3 282 243 278
3 241 282 283
3 245 284 272
3 243 285 278
3 264 286 297
3 250 265 289
3 289 265 250
3 266 288 268
3 268 288 266
3 221 288 287
3 287 288 221
3 287 269 288
3 266 269 299
3 299 269 266
3 289 251 265
3 272 284 271
3 271 284 281
3 275 260 300
3 300 260 275
3 290 291 275
3 291 230 290
3 290 230 291
3 260 291 300
3 300 291 260
3 298 237 292
3 292 277 293
3 278 285 293
3 282 278 294
3 295 279 301
3 280 301 279
3 281 302 280
3 283 282 303
3 285 296 292
3 286 305 297
3 288 266 299
3 299 266 288
3 299 288 269
3 284 304 281
3 300 275 291
3 292 296 298
3 293 285 292
3 303 282 294
3 302 301 280
3 304 302 281
3 297 305 307
3 296 309 298
3 296 306 310
3 307 305 311
3 298 309 308
3 309 296 310
3 310 306 314
3 312 311 305
3 308 309 315
3 309 310 316
3 313 314 306
3 317 314 310
3 310 314 317
3 312 318 311
3 313 311 314
3 315 319 312
3 320 315 309
3 316 310 321
3 322 309 316
3 314 317 323
3 323 317 314
3 317 324 310
3 318 325 311
3 326 318 312
3 323 314 311
3 319 327 312
3 320 319 315
3 319 309 320
3 320 309 319
3 321 310 328
3 316 321 329
3 330 309 322
3 322 316 331
3 332 323 317
3 317 323 332
3 328 310 324
3 332 324 317
3 325 323 311
3 325 333 318
3 318 333 325
3 318 334 326
3 326 334 318
3 335 326 312
3 327 336 312
3 327 337 319
3 319 337 327
3 309 319 337
3 337 319 309
3 321 328 338
3 329 321 339
3 331 316 329
3 340 309 330
3 330 322 341
3 341 322 331
3 323 332 325
3 325 332 323
3 328 324 342
3 333 324 332
3 333 325 332
3 332 325 333
3 334 318 333
3 333 318 334
3 343 326 334
3 334 326 343
3 326 343 335
3 335 343 326
3 344 335 312
3 336 345 312
3 336 346 327
3 327 346 336
3 337 327 346
3 346 327 337
3 337 309 346
3 338 328 347
3 339 321 338
3 329 339 348
3 331 329 349
3 350 309 340
3 340 330 351
3 352 330 341
3 341 331 353
3 342 324 354
3 355 328 342
3 356 324 333
3 334 356 333
3 343 356 334
3 357 335 343
3 343 335 357
3 335 357 344
3 344 357 335
3 358 344 312
3 345 359 312
3 345 360 336
3 336 360 345
3 346 336 360
3 360 336 346
3 346 309 360
3 347 328 355
3 338 347 361
3 339 338 362
3 348 339 362
3 363 329 348
3 349 329 364
3 365 331 349
3 366 309 350
3 350 340 367
3 351 330 352
3 367 340 351
3 352 341 368
3 353 331 369
3 370 341 353
3 324 356 354
3 342 354 371
3 342 372 355
3 357 356 343
3 357 358 344
3 344 358 357
3 373 358 312
3 359 374 312
3 359 375 345
3 345 375 359
3 360 345 375
3 375 345 360
3 360 309 375
3 355 361 347
3 362 338 361
3 348 362 376
3 364 329 363
3 363 348 376
3 364 377 349
3 369 331 365
3 365 349 377
3 378 309 366
3 366 350 379
3 380 350 367
3 351 352 381
3 367 351 382
3 368 341 370
3 383 352 368
3 353 369 384
3 370 353 385
3 386 354 356
3 354 387 371
3 388 342 371
3 361 355 372
3 372 342 388
3 389 356 357
3 358 357 389
3 389 357 358
3 389 373 358
3 358 373 389
3 390 373 312
3 374 391 312
3 374 392 359
3 359 392 374
3 375 359 392
3 392 359 375
3 375 309 392
3 362 361 372
3 376 362 372
3 364 363 377
3 393 363 376
3 369 365 394
3 394 365 377
3 395 309 378
3 378 366 396
3 379 350 380
3 397 366 379
3 380 367 398
3 381 352 399
3 400 351 381
3 382 351 401
3 398 367 382
3 368 370 402
3 399 352 383
3 383 368 403
3 384 369 404
3 405 353 384
3 385 353 405
3 406 370 385
3 386 387 354
3 386 356 387
3 371 387 407
3 388 371 408
3 372 388 376
3 409 356 389
3 373 389 409
3 409 389 373
3 409 390 373
3 373 390 409
3 410 390 312
3 391 411 312
3 412 374 391
3 391 374 412
3 392 374 413
3 413 374 392
3 392 309 413
3 414 377 363
3 414 363 393
3 393 376 415
3 416 369 394
3 394 377 414
3 417 309 395
3 395 378 418
3 366 397 396
3 418 378 396
3 379 380 398
3 397 379 419
3 381 399 420
3 421 351 400
3 400 381 422
3 401 351 423
3 382 401 424
3 398 382 425
3 402 370 406
3 403 368 402
3 399 383 426
3 427 383 403
3 404 369 416
3 404 428 384
3 405 384 429
3 385 405 429
3 406 385 430
3 387 356 431
3 407 387 432
3 407 415 371
3 415 408 371
3 408 376 388
3 433 356 409
3 390 409 433
3 433 409 390
3 433 410 390
3 390 410 433
3 434 410 312
3 411 435 312
3 436 391 411
3 411 391 436
3 374 412 413
3 413 412 374
3 391 436 412
3 412 436 391
3 413 309 412
3 437 414 393
3 415 376 408
3 438 393 415
3 416 394 414
3 439 309 417
3 395 418 417
3 397 419 396
3 418 396 417
3 419 379 398
3 420 399 440
3 441 381 420
3 423 351 421
3 421 400 442
3 381 443 422
3 442 400 422
3 423 444 401
3 424 401 445
3 425 382 424
3 419 398 425
3 402 406 446
3 403 402 447
3 426 383 427
3 440 399 426
3 427 403 448
3 404 416 428
3 429 384 428
3 430 385 429
3 446 406 430
3 431 356 433
3 434 431 387
3 387 431 434
3 417 432 387
3 432 438 407
3 438 415 407
3 410 433 431
3 431 433 410
3 431 434 410
3 410 434 431
3 449 434 312
3 435 450 312
3 451 411 435
3 435 411 451
3 411 451 436
3 436 451 411
3 412 309 436
3 452 414 437
3 437 393 453
3 454 393 438
3 455 416 414
3 451 309 439
3 450 417 439
3 439 417 450
3 396 419 425
3 396 425 417
3 420 440 456
3 443 381 441
3 441 420 457
3 423 421 444
3 444 421 442
3 443 458 422
3 442 422 401
3 444 442 401
3 401 459 445
3 424 445 460
3 425 424 461
3 447 402 446
3 448 403 447
3 426 427 462
3 440 426 463
3 462 427 448
3 455 428 416
3 429 428 455
3 430 429 455
3 446 430 464
3 387 449 434
3 434 449 387
3 465 432 417
3 449 387 417
3 417 387 449
3 466 438 432
3 450 449 312
3 439 435 450
3 450 435 439
3 435 439 451
3 451 439 435
3 436 309 451
3 452 455 414
3 459 452 437
3 453 393 454
3 467 437 453
3 454 438 468
3 417 450 449
3 449 450 417
3 425 469 417
3 456 440 463
3 457 420 456
3 443 441 458
3 458 441 457
3 458 457 422
3 401 422 459
3 445 459 437
3 460 445 470
3 471 424 460
3 461 424 472
3 469 425 461
3 447 446 464
3 448 447 473
3 463 426 462
3 462 448 473
3 464 430 455
3 465 474 432
3 475 465 417
3 466 468 438
3 474 466 432
3 464 455 452
3 459 476 452
3 453 454 477
3 445 437 467
3 467 453 478
3 479 454 468
3 469 480 417
3 456 463 481
3 457 456 481
3 422 457 481
3 422 481 459
3 470 445 467
3 460 470 482
3 472 424 471
3 471 460 483
3 461 472 484
3 469 461 480
3 473 447 464
3 463 462 476
3 476 462 473
3 485 474 465
3 475 486 465
3 487 475 417
3 466 474 468
3 473 464 452
3 476 473 452
3 481 476 459
3 477 454 479
3 488 453 477
3 478 453 488
3 489 467 478
3 479 468 474
3 480 484 417
3 481 463 476
3 470 467 489
3 482 470 490
3 491 460 482
3 472 471 492
3 483 460 491
3 493 471 483
3 484 472 492
3 480 461 484
3 485 479 474
3 486 485 465
3 494 486 475
3 487 495 475
3 496 487 417
3 477 479 485
3 488 477 486
3 478 488 494
3 489 478 495
3 484 492 417
3 490 470 489
3 482 490 497
3 491 482 498
3 471 499 492
3 483 491 500
3 499 471 493
3 493 483 501
3 486 477 485
3 494 488 486
3 495 494 475
3 502 495 487
3 496 497 487
3 503 496 417
3 495 478 494
3 502 489 495
3 492 503 417
3 490 489 502
3 497 490 502
3 498 482 497
3 500 491 498
3 499 504 492
3 501 483 500
3 499 493 504
3 504 493 501
3 497 502 487
3 498 497 496
3 503 498 496
3 492 501 503
3 500 498 503
3 504 501 492
3 501 500 503
3 10 17 13
3 11 14 18
3 23 13 17
3 26 18 14
3 17 33 23
3 18 26 34
3 45 23 33
3 44 34 26
3 33 57 45
3 34 44 58
3 72 45 57
3 75 58 44
3 72 57 88
3 75 92 58
3 102 88 57
3 89 58 92
3 102 114 88
3 92 117 89
3 125 88 114
3 128 89 117
3 114 139 125
3 117 143 128
3 126 154 124
3 124 155 138
3 156 125 139
3 126 141 154
3 159 128 143
3 135 170 150
3 151 171 135
3 138 172 136
3 155 124 154
3 172 138 155
3 139 157 156
3 178 154 141
3 143 162 159
3 193 150 170
3 170 135 171
3 197 156 157
3 141 177 178
3 179 159 162
3 186 150 208
3 193 208 150
3 157 217 197
3 176 199 218
3 177 176 219
3 219 178 177
3 162 203 179
3 198 179 203
3 207 186 228
3 208 228 186
3 243 197 217
3 245 218 199
3 218 219 176
3 203 237 198
3 227 207 255
3 228 255 207
3 199 242 245
3 217 264 243
3 244 198 237
3 254 226 271
3 226 227 272
3 255 272 227
3 235 279 262
3 263 280 235
3 236 281 263
3 236 254 281
3 284 245 242
3 285 243 264
3 244 237 286
3 272 271 226
3 271 281 254
3 295 262 279
3 279 235 280
3 280 263 281
3 242 283 284
3 285 264 296
3 298 286 237
3 262 295 294
3 304 284 283
3 297 296 264
3 286 298 305
3 301 294 295
3 303 302 283
3 304 283 302
3 296 297 306
3 308 305 298
3 294 301 303
3 302 303 301
3 307 306 297
3 305 308 312
3 306 307 313
3 311 313 307
3 315 312 308
3 2 4 1
3 5 1 4
3 2 1 4
3 5 4 1
3 8 10 6
3 6 11 9
3 9 11 7
3 7 12 8
3 8 13 10
3 11 6 10
3 14 7 11
3 12 7 15
3 16 8 12
3 16 13 8
3 10 18 11
3 14 19 7
3 15 7 20
3 12 15 21
3 13 16 14
3 17 18 10
3 14 24 19
3 25 7 19
3 20 7 27
3 21 15 29
3 14 16 32
3 26 13 14
3 26 23 13
3 17 34 18
3 14 35 24
3 36 7 25
3 27 7 37
3 21 29 41
3 14 32 43
3 44 23 26
3 33 34 17
3 14 46 35
3 47 7 36
3 37 7 48
3 21 41 32
3 43 32 55
3 14 43 56
3 44 45 23
3 33 58 34
3 14 59 46
3 60 7 47
3 48 7 61
3 32 41 68
3 55 32 69
3 14 56 70
3 44 71 45
3 57 58 33
3 14 73 59
3 74 7 60
3 61 7 76
3 32 68 84
3 69 32 85
3 14 70 62
3 44 86 71
3 87 45 71
3 87 72 45
3 57 89 58
3 14 90 73
3 91 7 74
3 75 86 44
3 76 7 93
3 61 76 94
3 14 62 77
3 32 84 100
3 85 32 99
3 101 72 87
3 103 88 72
3 102 89 57
3 14 104 90
3 105 7 91
3 92 106 75
3 75 107 86
3 93 7 108
3 61 94 111
3 110 77 95
3 14 77 109
3 32 100 113
3 99 32 112
3 103 72 101
3 115 88 103
3 116 89 102
3 14 118 104
3 119 7 105
3 120 106 92
3 75 106 107
3 108 7 119
3 111 94 123
3 110 95 111
3 109 77 110
3 14 109 121
3 112 32 113
3 114 116 102
3 115 125 88
3 127 89 116
3 117 129 92
3 14 130 118
3 104 118 131
3 119 105 132
3 134 106 120
3 92 129 120
3 110 111 122
3 111 123 137
3 14 121 130
3 139 116 114
3 140 125 115
3 127 128 89
3 143 129 117
3 104 131 144
3 132 105 145
3 104 144 133
3 134 147 106
3 149 120 129
3 122 111 152
3 111 137 153
3 157 116 139
3 158 125 140
3 127 159 128
3 162 129 143
3 145 105 146
3 133 144 164
3 134 165 147
3 168 120 149
3 152 111 173
3 111 153 174
3 158 156 125
3 157 175 116
3 127 179 159
3 161 179 127
3 162 183 129
3 145 146 164
3 133 164 163
3 134 185 165
3 167 190 134
3 168 191 120
3 173 111 194
3 111 174 195
3 196 156 158
3 157 198 175
3 179 161 198
3 203 183 162
3 164 146 184
3 163 164 205
3 134 206 185
3 190 167 213
3 134 190 214
3 203 191 168
3 194 111 195
3 196 197 156
3 217 198 157
3 175 198 161
3 183 203 168
3 164 184 224
3 205 164 225
3 134 214 206
3 191 213 167
3 237 191 203
3 241 197 196
3 217 244 198
3 164 224 252
3 225 164 253
3 237 213 191
3 241 243 197
3 264 244 217
3 164 252 253
3 237 277 213
3 282 243 241
3 264 286 244
3 237 292 277
3 278 243 282
3 278 285 243
3 297 286 264
3 292 237 298
3 293 285 278
3 292 296 285
3 297 305 286
3 298 296 292
3 292 285 293
3 307 305 297
3 298 309 296
3 310 306 296
3 311 305 307
3 308 309 298
3 310 296 309
3 314 306 310
3 305 311 312
3 315 309 308
3 306 314 313
3 311 318 312
3 314 311 313
3 312 319 315
3 309 315 320
3 311 325 318
3 312 318 326
3 311 314 323
3 312 327 319
3 315 319 320
3 311 323 325
3 312 326 335
3 312 336 327
3 312 335 344
3 312 345 336
3 348 339 329
3 349 329 331
3 353 331 341
3 312 344 358
3 312 359 345
3 361 347 338
3 362 338 339
3 362 339 348
3 348 329 363
3 364 329 349
3 349 331 365
3 368 341 352
3 369 331 353
3 353 341 370
3 312 358 373
3 312 374 359
3 347 361 355
3 361 338 362
3 363 329 364
3 365 331 369
3 381 352 351
3 382 351 367
3 370 341 368
3 368 352 383
3 312 373 390
3 312 391 374
3 377 363 364
3 398 367 380
3 399 352 381
3 381 351 400
3 401 351 382
3 382 367 398
3 383 352 399
3 312 390 410
3 312 411 391
3 363 377 414
3 414 377 394
3 398 380 379
3 419 379 397
3 400 351 421
3 423 351 401
3 312 410 434
3 312 435 411
3 414 394 416
3 398 379 419
3 421 351 423
3 401 444 423
3 312 434 449
3 312 450 435
3 414 416 455
3 401 422 442
3 401 442 444
3 312 449 450
3 414 455 452
3 459 422 401
3 452 455 464
3 452 476 459
3 459 481 422
3 452 464 473
3 452 473 476
3 459 476 481
3 124 154 126
3 138 155 124
3 154 141 126
3 150 170 135
3 135 171 151
3 136 172 138
3 154 124 155
3 155 138 172
3 141 154 178
3 170 150 193
3 171 135 170
3 178 177 141
3 208 150 186
3 150 208 193
3 218 199 176
3 219 176 177
3 177 178 219
3 228 186 207
3 186 228 208
3 199 218 245
3 176 219 218
3 255 207 227
3 207 255 228
3 245 242 199
3 271 226 254
3 272 227 226
3 227 272 255
3 262 279 235
3 235 280 263
3 263 281 236
3 281 254 236
3 242 245 284
3 226 271 272
3 254 281 271
3 279 262 295
3 280 235 279
3 281 263 280
3 284 283 242
3 294 295 262
3 283 284 304
3 295 294 301
3 283 302 303
3 302 283 304
3 303 301 294
3 301 303 302
3 231 233 258
3 261 256 273
3 256 261 274
3 233 231 276
3 275 291 290
3 291 275 300
3 468 474 466
3 474 468 479
3 474 479 485
3 485 479 477
3 486 477 488
3 494 488 478
3 495 478 489
3 497 490 482
3 498 482 491
3 500 491 483
3 501 483 493
3 485 477 486
3 486 488 494
3 494 478 495
3 495 489 502
3 502 489 490
3 502 490 497
3 497 482 498
3 498 491 500
3 500 483 501
3 504 493 499
3 501 493 504
3 13 17 10
3 18 14 11
3 17 13 23
3 14 18 26
3 23 33 17
3 34 26 18
3 33 23 45
3 26 34 44
3 45 57 33
3 58 44 34
3 57 45 72
3 44 58 75
3 88 57 72
3 58 92 75
3 57 88 102
3 92 58 89
3 88 114 102
3 89 117 92
3 114 88 125
3 117 89 128
3 125 139 114
3 128 143 117
3 139 125 156
3 143 128 159
3 156 157 139
3 159 162 143
3 157 156 197
3 162 159 179
3 197 217 157
3 179 203 162
3 203 179 198
3 217 197 243
3 198 237 203
3 243 264 217
3 237 198 244
3 264 243 285
3 286 237 244
3 296 264 285
3 237 286 298
3 264 296 297
3 305 298 286
3 306 297 296
3 298 305 308
3 297 306 307
3 312 308 305
3 313 307 306
3 307 313 311
3 308 312 315
3 28 15 20
3 24 25 19
3 38 20 27
3 39 15 28
3 28 20 40
3 39 29 15
3 35 25 24
3 35 36 25
3 49 27 37
3 40 20 38
3 38 27 50
3 53 29 39
3 54 41 29
3 46 36 35
3 46 47 36
3 62 37 48
3 50 27 49
3 49 37 63
3 54 29 53
3 67 41 54
3 55 51 43
3 43 64 56
3 59 47 46
3 59 60 47
3 77 48 61
3 62 78 37
3 62 48 77
3 63 37 78
3 55 66 51
3 43 51 52
3 43 52 64
3 82 41 67
3 82 68 41
3 69 81 55
3 56 64 65
3 56 65 70
3 73 60 59
3 73 74 60
3 77 61 95
3 62 96 78
3 70 65 79
3 55 81 66
3 98 68 82
3 99 84 68
3 85 97 69
3 69 83 81
3 70 80 62
3 86 87 71
3 90 74 73
3 90 91 74
3 109 76 93
3 110 94 76
3 95 61 111
3 62 80 96
3 70 79 80
3 69 97 83
3 85 68 98
3 112 84 99
3 99 68 85
3 112 100 84
3 97 85 98
3 86 101 87
3 104 91 90
3 104 105 91
3 107 101 86
3 121 93 108
3 110 76 109
3 109 93 121
3 122 94 110
3 100 112 113
3 124 103 101
3 126 115 103
3 133 105 104
3 106 135 107
3 136 101 107
3 130 108 119
3 121 108 130
3 122 123 94
3 126 103 124
3 124 101 138
3 141 115 126
3 130 119 118
3 118 132 131
3 118 119 132
3 133 146 105
3 106 150 135
3 107 135 151
3 138 101 136
3 107 151 136
3 152 123 122
3 152 137 123
3 141 140 115
3 131 132 145
3 131 145 144
3 163 146 133
3 147 150 106
3 173 137 152
3 173 153 137
3 176 158 140
3 177 140 141
3 144 145 164
3 163 184 146
3 165 186 147
3 147 186 150
3 166 188 148
3 194 153 173
3 194 174 153
3 170 154 155
3 171 155 172
3 199 158 176
3 176 140 177
3 193 178 154
3 205 184 163
3 185 207 165
3 165 207 186
3 187 209 166
3 166 210 188
3 211 148 188
3 212 189 148
3 192 216 169
3 193 154 170
3 170 155 171
3 174 194 195
3 199 196 158
3 208 178 193
3 205 224 184
3 206 226 185
3 185 227 207
3 209 187 212
3 166 209 229
3 166 230 210
3 232 148 211
3 189 212 187
3 212 148 234
3 213 235 190
3 190 236 214
3 238 215 169
3 204 239 192
3 192 239 216
3 240 169 216
3 242 196 199
3 208 219 178
3 225 224 205
3 214 254 206
3 206 254 226
3 185 226 227
3 228 219 208
3 166 229 257
3 166 257 230
3 210 230 232
3 259 148 232
3 234 148 260
3 213 262 235
3 190 235 263
3 190 263 236
3 214 236 254
3 215 238 204
3 238 169 240
3 239 204 238
3 242 241 196
3 255 245 218
3 228 218 219
3 225 252 224
3 252 225 253
3 255 218 228
3 257 229 260
3 259 232 230
3 260 148 259
3 234 260 229
3 213 278 262
3 283 241 242
3 272 245 255
3 277 293 213
3 213 293 278
3 278 294 262
3 283 282 241
3 272 284 245
3 271 284 272
3 281 284 271
3 293 277 292
3 294 278 282
3 301 279 295
3 279 301 280
3 280 302 281
3 303 282 283
3 281 304 284
3 294 282 303
3 280 301 302
3 281 302 304
3 329 321 316
3 331 316 322
3 338 328 321
3 339 321 329
3 329 316 331
3 341 322 330
3 331 322 341
3 342 324 328
3 347 328 338
3 338 321 339
3 351 330 340
3 341 330 352
3 354 324 342
3 342 328 355
3 355 328 347
3 367 340 350
3 352 330 351
3 351 340 367
3 354 356 324
3 355 372 342
3 376 362 348
3 376 348 363
3 349 377 364
3 377 349 365
3 379 350 366
3 367 350 380
3 384 369 353
3 385 353 370
3 356 354 386
3 372 355 361
3 372 361 362
3 372 362 376
3 376 363 393
3 394 365 369
3 377 365 394
3 396 366 378
3 380 350 379
3 379 366 397
3 402 370 368
3 403 368 383
3 404 369 384
3 384 353 405
3 405 353 385
3 385 370 406
3 408 371 388
3 393 363 414
3 394 369 416
3 418 378 395
3 396 397 366
3 396 378 418
3 420 399 381
3 422 381 400
3 424 401 382
3 425 382 398
3 406 370 402
3 402 368 403
3 426 383 399
3 403 383 427
3 416 369 404
3 371 415 407
3 371 408 415
3 393 414 437
3 396 419 397
3 440 399 420
3 420 381 441
3 442 400 421
3 422 443 381
3 422 400 442
3 445 401 424
3 424 382 425
3 425 398 419
3 427 383 426
3 426 399 440
3 428 416 404
3 407 438 432
3 407 415 438
3 437 414 452
3 425 419 396
3 441 381 443
3 444 421 423
3 442 421 444
3 422 458 443
3 445 459 401
3 416 428 455
3 455 428 429
3 455 429 430
3 464 430 446
3 432 438 466
3 437 452 459
3 468 438 454
3 422 457 458
3 437 459 445
3 464 446 447
3 473 447 448
3 473 448 462
3 455 430 464
3 432 474 465
3 438 468 466
3 432 466 474
3 477 454 453
3 478 453 467
3 468 454 479
3 481 463 456
3 481 456 457
3 481 457 422
3 482 470 460
3 483 460 471
3 484 472 461
3 480 461 469
3 464 447 473
3 476 462 463
3 473 462 476
3 465 474 485
3 465 486 475
3 479 454 477
3 477 453 488
3 488 453 478
3 478 467 489
3 476 463 481
3 489 467 470
3 490 470 482
3 482 460 491
3 492 471 472
3 491 460 483
3 483 471 493
3 492 472 484
3 484 461 480
3 465 485 486
3 475 486 494
3 475 495 487
3 489 470 490
3 492 499 471
3 493 471 499
3 475 494 495
3 487 495 502
3 487 497 496
3 492 504 499
3 487 502 497
3 496 497 498
3 496 498 503
3 503 501 492
3 503 498 500
3 492 501 504
3 503 500 501
3 30 22 31
3 51 39 28
3 52 28 40
3 22 30 42
3 64 40 38
3 65 38 50
3 66 39 51
3 51 28 52
3 52 40 64
3 66 53 39
3 79 50 49
3 80 49 63
3 64 38 65
3 65 50 79
3 81 54 53
3 81 53 66
3 83 67 54
3 79 49 80
3 96 63 78
3 80 63 96
3 83 54 81
3 97 82 67
3 97 67 83
3 82 97 98
3 116 142 127
3 142 116 160
3 142 161 127
3 116 180 160
3 161 142 182
3 180 116 175
3 180 161 182
3 161 180 175
3 384 428 404
3 429 384 405
3 429 405 385
3 430 385 406
3 446 406 402
3 447 402 403
3 448 403 427
3 428 384 429
3 429 385 430
3 430 406 446
3 456 440 420
3 457 420 441
3 446 402 447
3 447 403 448
3 462 427 426
3 463 426 440
3 448 427 462
3 463 440 456
3 456 420 457
3 458 441 443
3 457 441 458
3 462 426 463
3 239 240 216
3 240 239 238
3 220 222 247
3 222 220 267
3 251 265 270
3 288 269 287
3 265 251 289
3 269 288 299
3 316 310 309
3 321 310 316
3 316 309 322
3 310 324 317
3 328 310 321
3 322 309 330
3 324 310 328
3 317 324 332
3 330 309 340
3 332 324 333
3 346 309 337
3 340 309 350
3 333 324 356
3 333 356 334
3 334 356 343
3 360 309 346
3 350 309 366
3 371 354 342
3 343 356 357
3 375 309 360
3 366 309 378
3 371 387 354
3 371 342 388
3 388 342 372
3 357 356 389
3 392 309 375
3 378 309 395
3 354 387 386
3 387 356 386
3 407 387 371
3 376 388 372
3 389 356 409
3 413 309 392
3 415 376 393
3 395 309 417
3 431 356 387
3 432 387 407
3 388 376 408
3 409 356 433
3 412 309 413
3 408 376 415
3 415 393 438
3 417 309 439
3 417 418 395
3 417 396 418
3 433 356 431
3 387 432 417
3 436 309 412
3 453 393 437
3 438 393 454
3 439 309 451
3 417 425 396
3 460 445 424
3 461 424 425
3 417 432 465
3 451 309 436
3 454 393 453
3 453 437 467
3 417 469 425
3 470 445 460
3 460 424 471
3 472 424 461
3 461 425 469
3 417 465 475
3 467 437 445
3 417 480 469
3 467 445 470
3 471 424 472
3 417 475 487
3 417 484 480
3 417 487 496
3 417 492 484
3 417 496 503
3 417 503 492
3 505 506 507
3 506 505 508
3 507 506 505
3 508 505 506
3 509 507 506
3 506 507 509
3 506 508 510
3 510 508 506
3 507 509 511
3 511 509 507
3 509 506 512
3 512 506 509
3 511 509 513
3 513 509 511
3 509 512 514
3 514 512 509
3 515 514 512
3 512 514 515
3 514 515 516
3 516 515 514
3 517 518 519
3 518 517 520
3 519 518 517
3 520 517 518
3 521 517 519
3 519 517 521
3 518 520 522
3 522 520 518
3 521 523 517
3 517 523 521
3 521 519 524
3 524 519 521
3 522 520 525
3 525 520 522
3 526 523 521
3 521 523 526
3 524 519 527
3 527 519 524
3 525 520 528
3 528 520 525
3 526 529 523
3 523 529 526
3 524 527 530
3 530 527 524
3 525 528 531
3 531 528 525
3 532 529 526
3 526 529 532
3 524 530 533
3 533 530 524
3 531 528 534
3 534 528 531
3 532 535 529
3 529 535 532
3 533 530 536
3 536 530 533
3 531 534 537
3 537 534 531
3 532 538 535
3 535 538 532
3 533 536 539
3 539 536 533
3 537 534 540
3 540 534 537
3 541 538 532
3 532 538 541
3 539 536 542
3 542 536 539
3 537 540 543
3 543 540 537
3 541 544 538
3 538 544 541
3 539 542 545
3 545 542 539
3 543 540 546
3 546 540 543
3 544 541 547
3 547 541 544
3 539 545 548
3 548 545 539
3 543 546 549
3 549 546 543
3 548 545 550
3 550 545 548
3 549 546 551
3 551 546 549
3 548 550 552
3 552 550 548
3 549 551 553
3 553 551 549
3 552 550 554
3 554 550 552
3 553 551 555
3 555 551 553
3 552 554 556
3 556 554 552
3 553 555 557
3 557 555 553
3 556 554 558
3 558 554 556
3 553 557 559
3 559 557 553
3 556 558 560
3 560 558 556
3 559 557 561
3 561 557 559
3 560 558 562
3 562 558 560
3 559 561 563
3 563 561 559
3 560 562 564
3 564 562 560
3 563 561 565
3 565 561 563
3 564 562 566
3 566 562 564
3 565 561 567
3 567 561 565
3 564 566 568
3 568 566 564
3 565 567 569
3 569 567 565
3 564 568 570
3 570 568 564
3 569 567 571
3 571 567 569
3 570 568 572
3 572 568 570
3 569 571 573
3 573 571 569
3 570 572 574
3 574 572 570
3 573 571 575
3 575 571 573
3 574 572 576
3 576 572 574
3 573 575 577
3 577 575 573
3 574 576 578
3 578 576 574
3 574 578 579
3 579 578 574
3 579 578 580
3 580 578 579
3 579 580 581
3 581 580 579
3 579 581 582
3 582 581 579
3 582 581 583
3 583 581 582
3 584 585 586
3 585 584 587
3 586 585 584
3 587 584 585
