ply
format ascii 1.0
comment Generated by PyMesh
element vertex 494
property double x
property double y
property double z
element face 1972
property list uchar int vertex_indices
end_header
-0.170938 -0.391333 0.260075
-0.170938 0.245326 -0.260075
-0.170938 -0.391333 -0.260075
-0.170938 0.245326 0.260075
-0.0435183 -0.391333 -0.260075
0.0756098 0.245326 0.260075
-0.159318 0.245326 -0.113987
0.0756098 0.245326 -0.260075
-0.0435183 -0.391333 0.260075
-0.159318 0.245326 -0.244898
0.0675784 0.202404 -0.233003
-0.039245 -0.368493 -0.233003
-0.0368857 -0.355886 0.218247
-0.106954 0.245326 -0.113987
-0.159318 0.233544 -0.244898
-0.106954 0.245326 -0.244898
-0.039245 -0.368493 0.0405989
-0.0368857 -0.355886 0.0720643
-0.00999959 -0.212196 0.218247
-0.106954 0.233544 -0.113987
-0.159318 0.233544 -0.113987
0.0675784 0.202404 -0.0170278
0.0642798 0.184775 -0.233003
-0.0426759 -0.367851 -0.233003
-0.0540425 -0.352675 0.218247
0.0405888 0.0581639 0.217821
-0.148398 0.233544 -0.147657
-0.106954 0.233544 -0.244898
0.0675784 0.202404 0.0405989
0.0607475 0.165899 -0.233003
-0.0426759 -0.367851 0.0405989
0.037642 0.0424151 -0.233003
0.0405888 0.0581639 0.0712018
-0.0540425 -0.352675 0.0720643
0.0674749 0.201853 0.217821
-0.00999959 -0.212196 0.0720643
-0.0271564 -0.208986 0.218247
-0.14229 0.233544 -0.140302
-0.148398 0.233544 -0.157542
-0.141976 0.233544 -0.227219
0.0674749 0.201853 0.0712018
0.0490488 0.103378 -0.0170278
0.0574048 0.148035 -0.233003
-0.0418848 -0.363621 -0.22804
0.037642 0.0424151 0.0405989
0.0342105 0.0430571 -0.233003
0.0490488 0.103378 -0.233003
-0.0532579 -0.34848 0.0757239
0.023432 0.0613743 0.217821
-0.0278964 -0.21294 0.213616
-0.120158 0.233544 -0.227219
-0.120471 0.233544 -0.140302
-0.14229 0.233544 -0.147657
-0.148085 0.233544 -0.220022
-0.148398 0.199944 -0.157542
0.0642798 0.184775 0.0405989
0.0490488 0.103378 0.0405989
0.0532268 0.125707 -0.233003
-0.0263146 -0.280411 -0.22804
-0.0418848 -0.363621 -0.149057
0.0342105 0.0430571 0.0405989
0.0324583 0.0336916 -0.226605
0.023432 0.0613743 0.071638
-0.0271564 -0.208986 0.0720643
-0.0532579 -0.34848 0.213616
-0.0278964 -0.21294 0.0757239
0.0503181 0.205063 0.217821
-0.120158 0.233544 -0.202782
-0.120471 0.233544 -0.164738
-0.120471 0.199944 -0.140302
-0.14229 0.199944 -0.147657
-0.148085 0.233544 -0.210137
-0.148398 0.199944 -0.147657
-0.14229 0.233544 -0.157542
-0.141976 0.233544 -0.220022
-0.141976 0.199944 -0.227219
0.0607475 0.165899 0.0405989
-0.00891493 -0.187419 -0.227723
-0.0185941 -0.281855 -0.22804
-0.0341642 -0.365066 -0.22804
-0.0418047 -0.363194 -0.137539
-0.041832 -0.36334 0.035247
0.0503181 0.205063 0.071638
0.0310289 -0.364251 0.0757239
0.0361669 -0.224927 0.0757239
0.0495623 0.201023 0.213616
0.0361669 -0.224927 0.213616
-0.120158 0.199944 -0.202782
-0.14229 0.199944 -0.140302
-0.148085 0.199944 -0.220022
-0.14229 0.199944 -0.157542
-0.120158 0.199944 -0.227219
0.0574048 0.148035 0.0405989
-0.0241638 -0.268914 -0.227723
-0.0185941 -0.281855 -0.149057
-0.0341642 -0.365066 -0.149057
0.0136777 -0.0666767 -0.148059
-0.0418047 -0.363194 -0.0568116
-0.041832 -0.36334 -0.0450443
-0.0261017 -0.279271 0.035247
0.0532268 0.125707 0.0405989
0.0326096 0.0345007 -0.137731
0.0107112 -0.0825311 -0.226934
0.0495623 0.201023 0.0757239
0.0242008 0.0654837 0.0757239
0.0310289 -0.364251 0.213616
0.0439909 -0.353088 0.0757239
0.0242008 0.0654837 0.213616
0.0439909 -0.353088 0.213616
-0.141976 0.233544 -0.202782
-0.120471 0.199944 -0.164738
-0.14229 0.233544 -0.164738
-0.148085 0.199944 -0.210137
-0.14229 0.199944 -0.164738
-0.141976 0.199944 -0.220022
-0.0263146 -0.280411 -0.149057
-0.00119438 -0.188864 -0.227723
-0.02553 -0.318921 -0.197413
-0.0288204 -0.336507 -0.197413
0.0133477 -0.0684409 -0.137731
-0.0340842 -0.364639 -0.137539
-0.0341114 -0.364785 -0.0450443
-0.0242983 -0.269634 0.0339271
-0.0183812 -0.280715 0.035247
0.032828 0.0356665 -0.0449746
0.0324583 0.0336916 -0.148496
0.0136777 -0.0666767 -0.226169
-0.00646411 -0.17432 -0.226934
0.037704 -0.358929 0.0757239
0.0882642 0.0534964 0.0757239
0.136616 0.184734 0.213616
0.118202 0.18818 0.0837048
0.0882642 0.0534964 0.213616
-0.141976 0.199944 -0.202782
-0.141976 0.233544 -0.210137
-0.141976 0.199944 -0.210137
-0.0241638 -0.268914 -0.149613
-0.0164433 -0.270359 -0.227723
-0.00119438 -0.188864 -0.149613
-0.02553 -0.318921 -0.179522
-0.0288204 -0.336507 -0.179522
-0.00646411 -0.17432 -0.149261
-0.0260745 -0.279125 -0.137539
-0.0340842 -0.364639 -0.0568116
-0.0183539 -0.28057 -0.137539
-0.0242602 -0.269431 -0.0567675
-0.0341114 -0.364785 0.035247
-0.0183812 -0.280715 -0.0450443
-0.00872816 -0.186423 0.0339271
-0.0261017 -0.279271 -0.0450443
0.032828 0.0356665 0.0326987
0.0326096 0.0345007 -0.0565666
0.0401788 0.032247 -0.148496
0.0107112 -0.0825311 -0.149261
0.0401788 0.032247 -0.226605
-0.00891493 -0.187419 -0.149613
0.0184318 -0.0839756 -0.226934
0.136616 0.184734 0.0757239
0.037704 -0.358929 0.213616
0.142875 0.175379 0.0757239
0.142875 0.175379 0.213616
0.116829 0.188436 0.0898947
0.119645 0.18791 0.0821142
0.117212 0.188365 0.0856209
-0.00183363 -0.19228 -0.224057
0.0403302 0.0330562 -0.137731
0.01083 -0.0818967 -0.136764
-0.0333692 -0.360817 -0.132498
-0.0183539 -0.28057 -0.0568116
-0.019083 -0.284469 -0.132498
-0.0260745 -0.279125 -0.0568116
0.0133477 -0.0684409 -0.0565666
-0.00644178 -0.174201 0.0332154
-0.00100761 -0.187868 0.0339271
-0.0242983 -0.269634 -0.0454913
0.0134055 -0.0681327 0.0326987
0.0405485 0.0342219 0.0326987
0.0403302 0.0330562 -0.0565666
0.0184318 -0.0839756 -0.149261
0.0213983 -0.0681213 -0.226169
0.00125699 -0.175765 -0.226934
0.121444 0.187573 0.0809583
0.116744 0.188453 0.0877319
0.117461 0.188318 0.0919611
0.157607 0.39079 0.0821142
0.156164 0.39106 0.0837048
-0.0164433 -0.270359 -0.149613
-0.0136652 -0.255511 -0.224057
-0.00183363 -0.19228 -0.152929
0.0210683 -0.0698855 -0.137731
-0.00666612 -0.175401 -0.136764
-0.0333692 -0.360817 -0.0618069
-0.0242602 -0.269431 -0.136623
-0.00877064 -0.186649 -0.0567675
0.0110548 -0.0806961 0.0332154
-0.00644178 -0.174201 -0.0448945
-0.0165778 -0.271079 0.0339271
-0.00872816 -0.186423 -0.0454913
-0.0165778 -0.271079 -0.0454913
0.0405485 0.0342219 -0.0449746
0.0213983 -0.0681213 -0.148059
0.0386901 0.0242923 -0.217606
0.0176428 -0.0881928 -0.223633
0.123475 0.187193 0.0803152
0.154706 0.391333 0.0877319
0.118598 0.188106 0.0937912
0.154791 0.391317 0.0898947
0.159406 0.390454 0.0809583
0.155174 0.391245 0.0856209
-0.0159124 -0.267522 -0.223931
-0.000546415 -0.192521 -0.224057
-0.00961843 -0.233885 -0.152929
-0.000546415 -0.192521 -0.152929
0.00125699 -0.175765 -0.149261
0.0388393 0.0250889 -0.129876
0.01083 -0.0818967 -0.0569085
0.0184171 -0.0823383 -0.136646
-0.0177964 -0.284709 -0.132498
-0.0320826 -0.361058 -0.132498
-0.019083 -0.284469 -0.0618069
-0.0165396 -0.270876 -0.0567675
-0.00666612 -0.175401 -0.0569085
-0.00105008 -0.188094 -0.0567675
0.0187754 -0.0821407 0.0332154
0.00127931 -0.175646 -0.0448945
-0.00760812 -0.223142 0.0304216
-0.00100761 -0.187868 -0.0454913
0.0110548 -0.0806961 -0.0448945
0.021126 -0.0695773 0.0326987
0.0387696 0.0247159 -0.0172701
0.0134055 -0.0681327 -0.0449746
0.0210683 -0.0698855 -0.0565666
0.0227192 -0.0610634 -0.156516
0.0386901 0.0242923 -0.156516
0.0227192 -0.0610634 -0.217606
0.0149943 -0.102347 -0.223633
0.0176428 -0.0881928 -0.153378
0.132976 0.185415 0.0892391
0.161437 0.390074 0.0803152
0.125601 0.186795 0.0802286
0.120161 0.187813 0.0952592
0.155423 0.391199 0.0919611
0.156559 0.390986 0.0937912
0.158123 0.390694 0.0952592
-0.0159124 -0.267522 -0.15324
-0.0136652 -0.255511 -0.223931
-0.012378 -0.255752 -0.224057
0.00191203 -0.172262 -0.153378
0.0222259 -0.0636982 -0.129876
0.0388393 0.0250889 -0.0639844
0.0184171 -0.0823383 -0.0567909
-0.00877064 -0.186649 -0.136623
0.000921028 -0.175844 -0.136646
-0.0177964 -0.284709 -0.0618069
-0.0320826 -0.361058 -0.0618069
-0.0165396 -0.270876 -0.136623
0.00127931 -0.175646 0.0332154
0.0187754 -0.0821407 -0.0448945
-0.0157942 -0.266892 -0.04027
-0.00760812 -0.223142 0.0147126
-0.00166919 -0.191402 0.0304216
-0.00166919 -0.191402 -0.04027
0.021126 -0.0695773 -0.0449746
0.0357422 0.00853649 0.0234094
0.0387696 0.0247159 0.0234094
0.0222259 -0.0636982 -0.0639844
0.025127 -0.0481956 -0.156516
0.0354803 0.00713548 -0.156516
0.0399774 0.0240516 -0.156516
0.0399774 0.0240516 -0.217606
0.00191203 -0.172262 -0.222323
0.0189295 -0.0884341 -0.223633
0.0189295 -0.0884341 -0.153378
0.132891 0.185431 0.0870763
0.132507 0.185503 0.0913507
0.163563 0.389676 0.0802286
0.127676 0.186407 0.0807051
0.122044 0.187461 0.096266
0.160006 0.390341 0.096266
-0.0146252 -0.267762 -0.223931
-0.012378 -0.255752 -0.223931
-0.00223928 -0.201566 -0.210106
-0.00833176 -0.234126 -0.152929
0.0292381 -0.0262242 -0.129876
0.0355489 0.00750303 -0.0639844
0.040126 0.0248483 -0.0639844
-0.00105008 -0.188094 -0.136623
0.0187275 -0.0823966 -0.136646
0.0187275 -0.0823966 -0.0567909
-0.0195088 -0.293861 -0.121256
-0.0306647 -0.353481 -0.121256
-0.0157534 -0.266673 -0.130912
-0.0157534 -0.266673 -0.0619659
0.0075395 -0.142187 0.0290358
0.00204053 -0.171577 -0.0397402
0.0176907 -0.0879375 -0.0397402
-0.0157942 -0.266892 -0.0254333
-0.00632145 -0.223383 0.0147126
-0.000382519 -0.191642 0.0304216
0.0225575 -0.0619264 -0.036373
0.0225575 -0.0619264 0.0234094
0.024484 -0.051632 -0.036373
0.0400563 0.0244753 0.0234094
0.0318795 -0.0121085 -0.0639844
0.0240059 -0.061304 -0.217606
0.0284159 -0.0306195 -0.156516
0.0264137 -0.0484363 -0.156516
0.0317047 -0.0130428 -0.156516
0.0120899 -0.117869 -0.222323
0.016281 -0.102588 -0.223633
0.132259 0.185549 0.0850099
0.170938 0.388296 0.0892391
0.131518 0.185688 0.0932663
0.170469 0.388383 0.0913507
0.162081 0.389953 0.0967424
0.165638 0.389287 0.0807051
0.12956 0.186055 0.0817119
0.124119 0.187072 0.0967424
-0.0146252 -0.267762 -0.15324
-0.0136652 -0.255511 -0.15324
-0.00223928 -0.201566 -0.16516
-0.00833176 -0.234126 -0.21046
-0.00625175 -0.223011 -0.16516
0.00319924 -0.172503 -0.222323
0.040126 0.0248483 -0.129876
0.0255289 -0.0460464 -0.129876
0.000921028 -0.175844 -0.0567909
0.0012314 -0.175902 -0.136646
-0.0195088 -0.293861 -0.0736918
-0.0306647 -0.353481 -0.0736918
-0.00186902 -0.19247 -0.130912
-0.00186902 -0.19247 -0.0619659
0.00204053 -0.171577 -0.0235945
0.0177321 -0.0877142 0.0290358
-0.000382519 -0.191642 -0.04027
-0.0145076 -0.267133 -0.04027
-0.00471897 -0.207701 0.0147126
-0.00632145 -0.223383 0.0304216
-0.0034323 -0.207942 0.0147126
0.024484 -0.051632 0.0234094
0.024484 -0.051632 -0.0172701
0.0400563 0.0244753 -0.0172701
0.0235131 -0.0639389 -0.129876
0.0331661 -0.0123491 -0.0639844
0.0240059 -0.061304 -0.156516
0.025127 -0.0481956 -0.204515
0.0317047 -0.0130428 -0.204515
0.036767 0.00689481 -0.156516
0.036767 0.00689481 -0.204515
0.0149943 -0.102347 -0.167341
0.00944146 -0.132023 -0.222323
0.00319924 -0.172503 -0.153378
0.131122 0.185762 0.0831798
0.170853 0.388312 0.0870763
0.130075 0.185958 0.0948568
0.16948 0.388569 0.0932663
0.164207 0.389555 0.0966558
0.167521 0.388935 0.0817119
0.126245 0.186675 0.0966558
-0.012378 -0.255752 -0.21046
-0.012378 -0.255752 -0.15324
-0.0136652 -0.255511 -0.21046
-0.00352595 -0.201325 -0.16516
-0.00961843 -0.233885 -0.21046
-0.00625175 -0.223011 -0.210106
0.0107281 -0.132265 -0.222323
0.0305247 -0.0264649 -0.129876
0.0292381 -0.0262242 -0.0764476
0.0268156 -0.0462871 -0.129876
0.0318795 -0.0121085 -0.115423
0.0368356 0.00726235 -0.0639844
0.0368356 0.00726235 -0.115423
0.0182243 -0.0850859 -0.13037
0.0012314 -0.175902 -0.0567909
-0.0319513 -0.35324 -0.121256
-0.0207955 -0.29362 -0.0736918
-0.000581809 -0.19271 -0.130912
-0.0144667 -0.266914 -0.130912
-0.000581809 -0.19271 -0.0619659
0.0075395 -0.142187 -0.0235945
0.0177321 -0.0877142 0.0137629
0.0190193 -0.0879549 0.0290358
0.0176907 -0.0879375 -0.0235945
0.0189774 -0.0881787 -0.0397402
0.0033272 -0.171819 -0.0397402
-0.0145076 -0.267133 -0.0254333
-0.00471897 -0.207701 -0.0254333
0.0257707 -0.0518732 -0.036373
0.0238442 -0.0621671 -0.036373
0.024484 -0.051632 0.00367543
0.0257707 -0.0518732 0.0234094
0.0370289 0.00829582 0.0234094
0.0257707 -0.0518732 -0.0172701
0.0370289 0.00829582 0.00367543
0.0235131 -0.0639389 -0.0639844
0.0264137 -0.0484363 -0.204515
0.0329913 -0.013284 -0.156516
0.0284159 -0.0306195 -0.204515
0.0354803 0.00713548 -0.204515
0.0120899 -0.117869 -0.167341
0.0133766 -0.11811 -0.222323
0.016281 -0.102588 -0.167341
0.00608839 -0.157061 -0.167341
0.170221 0.38843 0.0850099
0.128277 0.186295 0.0960128
0.168037 0.388839 0.0948568
0.166239 0.389175 0.0960128
0.169084 0.388643 0.0831798
-0.00753896 -0.222771 -0.16516
-0.00352595 -0.201325 -0.210106
-0.00753896 -0.222771 -0.210106
0.00608839 -0.157061 -0.209544
0.0107281 -0.132265 -0.209544
0.0255289 -0.0460464 -0.0764476
0.0268156 -0.0462871 -0.0764476
0.0355489 0.00750303 -0.115423
0.00161092 -0.173873 -0.13037
0.0182243 -0.0850859 -0.0644788
0.00161092 -0.173873 -0.0644788
-0.0207955 -0.29362 -0.121256
-0.0319513 -0.35324 -0.0736918
-0.0144667 -0.266914 -0.0619659
0.00882617 -0.142428 -0.0235945
0.00882617 -0.142428 0.0290358
0.0189774 -0.0881787 -0.0235945
0.0033272 -0.171819 -0.0235945
-0.0034323 -0.207942 -0.0254333
0.0238442 -0.0621671 0.0234094
0.0357422 0.00853649 0.00367543
0.0331661 -0.0123491 -0.115423
0.0297025 -0.0308602 -0.156516
0.0297025 -0.0308602 -0.204515
0.0329913 -0.013284 -0.204515
0.0133766 -0.11811 -0.167341
0.0107281 -0.132265 -0.167341
0.0305247 -0.0264649 -0.0764476
0.0149333 -0.102672 -0.13037
0.00862252 -0.136399 -0.0644788
0.017914 -0.0850276 -0.0644788
0.00491389 -0.156221 -0.0644788
-0.00216088 -0.201147 -0.116042
-0.0127515 -0.257747 -0.115761
-0.0060933 -0.222165 -0.0776411
0.00986563 -0.129758 -0.0235945
0.0190193 -0.0879549 0.0137629
0.0111523 -0.129998 0.0137629
0.0257707 -0.0518732 0.00367543
0.00480172 -0.156821 -0.209544
0.00480172 -0.156821 -0.167341
0.0146235 -0.102614 -0.13037
0.0112639 -0.122283 -0.13037
0.0083127 -0.136341 -0.0644788
0.017914 -0.0850276 -0.13037
0.00130055 -0.173815 -0.13037
0.00130055 -0.173815 -0.0644788
-0.0060933 -0.222165 -0.116042
-0.00216088 -0.201147 -0.0776411
-0.0127515 -0.257747 -0.0777979
0.0111523 -0.129998 -0.0235945
0.00986563 -0.129758 0.0137629
0.00944146 -0.132023 -0.167341
0.00944146 -0.132023 -0.209544
0.0149333 -0.102672 -0.0783365
0.00491389 -0.156221 -0.117354
0.0083127 -0.136341 -0.117354
0.0195845 -0.0849323 -0.0640426
0.00998324 -0.136245 -0.0640426
0.00460352 -0.156164 -0.0644788
-0.00737997 -0.221924 -0.116042
-0.00344754 -0.200907 -0.0776411
-0.00889914 -0.237158 -0.115761
-0.0140382 -0.257506 -0.115761
-0.00889914 -0.237158 -0.0777979
-0.00737997 -0.221924 -0.0776411
0.0162941 -0.102518 -0.129934
0.0146235 -0.102614 -0.0783365
0.0112639 -0.122283 -0.0783365
0.0109541 -0.122225 -0.13037
0.00862252 -0.136399 -0.117354
0.00998324 -0.136245 -0.116917
0.0195845 -0.0849323 -0.129934
0.00297109 -0.173719 -0.129934
0.00297109 -0.173719 -0.0640426
-0.00344754 -0.200907 -0.116042
-0.0140382 -0.257506 -0.0777979
0.0109541 -0.122225 -0.0783365
0.00460352 -0.156164 -0.117354
0.00627407 -0.156068 -0.116917
0.0126246 -0.12213 -0.0779003
0.00627407 -0.156068 -0.0640426
-0.0101858 -0.236918 -0.115761
-0.0101858 -0.236918 -0.0777979
0.0162941 -0.102518 -0.0779003
0.0126246 -0.12213 -0.129934
3 0 1 2
3 1 0 3
3 2 1 0
3 3 0 1
3 2 4 1
3 2 0 4
3 3 5 0
3 1 6 3
3 7 1 4
3 8 4 0
3 8 0 5
3 5 3 6
3 6 1 9
3 7 9 1
3 4 10 7
3 8 11 4
3 5 12 8
3 13 5 6
3 9 14 6
3 15 9 7
3 5 7 10
3 10 4 11
3 16 11 8
3 12 17 8
3 12 5 18
3 15 5 13
3 13 6 19
3 20 6 14
3 9 15 14
3 5 15 7
3 21 5 10
3 22 10 11
3 11 16 23
3 17 16 8
3 12 24 17
3 18 5 25
3 12 18 24
3 13 19 15
3 20 19 6
3 14 26 20
3 27 14 15
3 28 5 21
3 10 22 21
3 29 22 11
3 30 23 16
3 11 23 31
3 32 16 17
3 33 17 24
3 25 5 34
3 18 25 35
3 36 24 18
3 27 15 19
3 19 20 37
3 37 20 26
3 26 14 38
3 27 39 14
3 40 5 28
3 21 41 28
3 29 21 22
3 42 29 11
3 30 43 23
3 16 44 30
3 45 31 23
3 31 46 11
3 40 16 32
3 35 32 17
3 17 33 35
3 33 24 47
3 34 5 40
3 25 34 48
3 32 35 25
3 18 35 36
3 36 49 24
3 19 50 27
3 51 19 37
3 37 26 52
3 38 14 53
3 38 54 26
3 53 14 39
3 50 39 27
3 55 40 28
3 56 28 41
3 21 57 41
3 42 21 29
3 46 42 11
3 58 23 43
3 59 43 30
3 60 30 44
3 16 40 44
3 45 60 31
3 23 61 45
3 46 31 41
3 32 62 40
3 63 35 33
3 64 47 24
3 47 65 33
3 34 40 66
3 66 48 34
3 25 48 32
3 63 36 35
3 49 64 24
3 49 36 65
3 50 19 67
3 68 19 51
3 51 37 69
3 52 26 70
3 52 70 37
3 71 38 53
3 72 26 54
3 38 73 54
3 74 53 39
3 39 50 75
3 76 40 55
3 55 28 56
3 56 41 44
3 46 41 57
3 57 21 42
3 42 46 57
3 58 77 23
3 58 43 78
3 43 59 79
3 80 59 30
3 60 81 30
3 44 31 60
3 44 40 56
3 60 45 61
3 77 61 23
3 44 41 31
3 82 40 62
3 62 32 48
3 33 65 63
3 47 64 83
3 84 65 47
3 82 66 40
3 66 85 48
3 36 63 65
3 49 86 64
3 65 84 49
3 67 19 68
3 67 87 50
3 51 69 68
3 88 69 37
3 72 70 26
3 88 37 70
3 38 71 73
3 53 89 71
3 72 54 70
3 90 54 73
3 53 74 89
3 39 75 74
3 91 75 50
3 92 40 76
3 76 55 56
3 77 58 93
3 79 78 43
3 78 94 58
3 95 79 59
3 96 59 80
3 97 80 30
3 81 98 30
3 81 60 99
3 56 40 100
3 101 60 61
3 102 61 77
3 62 103 82
3 62 48 104
3 105 83 64
3 83 106 47
3 47 106 84
3 66 82 103
3 85 107 48
3 85 66 103
3 64 86 108
3 86 49 84
3 67 68 109
3 91 50 87
3 67 109 87
3 110 68 69
3 88 70 69
3 111 73 71
3 112 71 89
3 90 70 54
3 90 73 113
3 114 89 74
3 114 74 75
3 91 87 75
3 100 40 92
3 92 76 56
3 115 93 58
3 77 93 116
3 79 117 78
3 115 58 94
3 94 78 117
3 95 118 79
3 95 59 94
3 59 96 115
3 119 96 80
3 80 97 120
3 98 97 30
3 98 81 121
3 99 60 122
3 99 123 81
3 100 92 56
3 124 60 101
3 125 101 61
3 61 102 126
3 102 77 127
3 104 103 62
3 107 104 48
3 83 105 106
3 105 64 108
3 83 106 128
3 128 106 83
3 84 106 129
3 85 130 107
3 85 103 131
3 86 132 108
3 84 129 86
3 111 109 68
3 133 87 109
3 110 113 68
3 110 69 113
3 90 69 70
3 111 113 73
3 134 111 71
3 112 135 71
3 112 89 135
3 113 69 90
3 114 135 89
3 75 87 114
3 136 93 115
3 137 116 93
3 116 138 77
3 117 79 118
3 115 94 59
3 139 94 117
3 140 118 95
3 94 140 95
3 115 96 141
3 101 96 119
3 142 119 80
3 143 120 97
3 120 144 80
3 145 97 98
3 146 121 81
3 121 147 98
3 122 60 148
3 99 122 149
3 146 81 123
3 99 149 123
3 150 60 124
3 151 124 101
3 96 101 125
3 125 61 152
3 153 126 102
3 61 126 154
3 155 127 77
3 102 127 156
3 103 104 157
3 104 107 129
3 108 106 105
3 105 158 108
3 108 158 105
3 106 159 129
3 160 107 130
3 130 85 161
3 131 103 162
3 163 85 131
3 108 132 160
3 132 86 129
3 109 111 134
3 111 68 113
3 133 135 87
3 133 109 135
3 134 71 135
3 114 87 135
3 93 136 137
3 141 136 115
3 137 164 116
3 155 77 138
3 138 116 164
3 117 118 139
3 140 94 139
3 140 139 118
3 141 96 153
3 101 119 165
3 142 166 119
3 142 80 144
3 143 167 120
3 143 97 168
3 120 169 144
3 97 145 170
3 171 145 98
3 146 123 121
3 149 98 147
3 147 121 123
3 148 60 172
3 148 173 122
3 174 149 122
3 147 123 149
3 175 60 150
3 150 124 176
3 171 124 151
3 151 101 177
3 125 152 96
3 154 152 61
3 96 126 153
3 153 102 178
3 179 154 126
3 141 127 155
3 180 156 127
3 156 178 102
3 159 157 104
3 157 181 103
3 132 129 107
3 129 159 104
3 106 108 159
3 132 107 160
3 160 130 159
3 182 161 85
3 183 130 161
3 162 103 181
3 182 85 163
3 160 159 108
3 134 135 109
3 186 137 136
3 136 141 155
3 164 137 187
3 155 138 136
3 188 138 164
3 153 178 141
3 189 165 119
3 165 177 101
3 171 119 166
3 166 142 190
3 144 168 142
3 169 120 167
3 191 167 143
3 170 168 97
3 168 191 143
3 168 144 169
3 145 192 170
3 145 171 193
3 174 171 98
3 149 174 98
3 172 60 194
3 172 195 148
3 196 122 173
3 148 197 173
3 174 122 198
3 194 60 175
3 150 176 175
3 199 176 124
3 197 124 171
3 151 177 171
3 200 96 152
3 152 154 201
3 126 96 179
3 179 201 154
3 127 141 180
3 180 202 156
3 178 156 202
3 157 159 130
3 203 181 157
3 205 130 183
3 186 209 137
3 186 136 138
3 187 137 209
3 210 187 164
3 164 187 210
3 211 138 188
3 212 164 188
3 188 164 212
3 213 141 178
3 189 214 165
3 119 171 189
3 177 165 214
3 215 171 166
3 190 142 192
3 166 190 216
3 170 142 168
3 217 167 169
3 169 167 217
3 218 191 167
3 167 191 218
3 191 168 219
3 219 168 169
3 170 192 142
3 145 220 192
3 193 171 221
3 193 222 145
3 197 171 174
3 194 223 172
3 148 195 197
3 195 172 224
3 196 198 122
3 173 225 196
3 226 173 197
3 198 226 174
3 194 175 227
3 228 175 176
3 176 199 229
3 124 230 199
3 124 197 230
3 231 171 177
3 200 179 96
3 152 232 200
3 233 152 201
3 201 179 234
3 213 180 141
3 202 180 235
3 236 178 202
3 130 237 157
3 239 203 157
3 240 130 205
3 184 242 185
3 207 243 184
3 185 241 208
3 244 209 186
3 138 211 186
3 245 187 209
3 187 210 246
3 246 210 187
3 164 212 210
3 210 212 164
3 211 212 188
3 188 212 211
3 178 247 213
3 214 189 248
3 231 189 171
3 249 177 214
3 221 171 215
3 250 166 215
3 215 166 250
3 251 190 192
3 252 216 190
3 166 250 216
3 216 250 166
3 167 217 218
3 218 217 167
3 169 253 217
3 217 253 169
3 191 218 254
3 254 218 191
3 191 253 219
3 219 253 191
3 253 169 219
3 219 169 253
3 255 192 220
3 220 145 222
3 193 221 251
3 193 251 222
3 197 174 226
3 256 172 223
3 194 227 223
3 230 197 195
3 256 224 172
3 224 257 195
3 196 258 198
3 225 259 196
3 225 173 260
3 173 226 261
3 198 261 226
3 230 227 175
3 228 262 175
3 176 263 228
3 262 229 199
3 264 176 229
3 262 199 230
3 177 265 231
3 200 234 179
3 232 234 200
3 232 152 266
3 267 152 233
3 268 201 233
3 233 201 268
3 269 234 201
3 201 234 269
3 213 270 180
3 235 180 270
3 271 235 202
3 202 235 271
3 247 178 236
3 272 202 236
3 236 202 272
3 237 273 157
3 237 130 274
3 276 239 157
3 204 208 206
3 277 130 240
3 241 206 208
3 238 278 207
3 242 241 185
3 243 242 184
3 278 243 207
3 279 244 209
3 209 244 279
3 211 244 186
3 246 245 187
3 187 245 246
3 280 209 245
3 245 209 280
3 210 281 246
3 246 281 210
3 281 210 212
3 212 210 281
3 212 211 282
3 282 211 212
3 247 270 213
3 231 248 189
3 283 214 248
3 284 177 249
3 285 214 249
3 249 214 285
3 215 250 221
3 190 251 221
3 251 192 286
3 216 252 287
3 190 221 252
3 250 216 288
3 217 289 218
3 218 289 217
3 289 217 253
3 253 217 289
3 218 290 254
3 254 290 218
3 253 191 254
3 254 191 253
3 255 286 192
3 220 291 255
3 222 292 220
3 286 222 251
3 223 293 256
3 257 223 227
3 227 230 195
3 256 294 224
3 227 195 257
3 224 295 257
3 261 198 258
3 296 258 196
3 259 296 196
3 297 225 259
3 259 225 297
3 260 173 261
3 225 298 260
3 260 298 225
3 230 175 262
3 228 299 262
3 263 300 228
3 263 176 264
3 301 229 262
3 302 229 264
3 264 229 302
3 265 248 231
3 265 177 303
3 304 232 234
3 234 232 304
3 266 152 305
3 232 306 266
3 266 306 232
3 307 152 267
3 267 268 233
3 233 268 267
3 201 268 269
3 269 268 201
3 234 269 304
3 304 269 234
3 308 235 270
3 235 271 309
3 309 271 235
3 202 272 271
3 271 272 202
3 247 272 236
3 236 272 247
3 273 310 157
3 274 130 312
3 275 314 238
3 316 276 157
3 317 130 277
3 314 278 238
3 244 279 318
3 318 279 244
3 209 280 279
3 279 280 209
3 244 211 319
3 245 246 280
3 280 246 245
3 246 281 280
3 280 281 246
3 281 212 320
3 320 212 281
3 211 321 282
3 282 321 211
3 282 322 212
3 212 322 282
3 323 247 270
3 270 247 323
3 324 283 214
3 214 283 324
3 325 283 248
3 303 177 284
3 284 285 249
3 249 285 284
3 214 285 324
3 324 285 214
3 326 221 250
3 327 287 252
3 287 288 216
3 326 252 221
3 250 288 326
3 290 218 289
3 289 218 290
3 289 253 328
3 328 253 289
3 254 290 329
3 329 290 254
3 254 329 253
3 253 329 254
3 255 330 286
3 330 255 291
3 292 291 220
3 292 222 331
3 222 286 330
3 293 332 256
3 293 223 333
3 223 257 295
3 295 224 294
3 332 294 256
3 334 258 261
3 261 258 334
3 335 296 258
3 258 296 335
3 336 296 259
3 225 297 337
3 337 297 225
3 259 338 297
3 297 338 259
3 298 261 260
3 260 261 298
3 298 225 337
3 337 225 298
3 301 262 299
3 300 299 228
3 300 263 339
3 263 302 264
3 264 302 263
3 229 301 340
3 229 302 341
3 341 302 229
3 342 265 248
3 248 265 342
3 265 343 303
3 303 343 265
3 232 304 344
3 344 304 232
3 305 152 307
3 266 305 345
3 306 232 344
3 344 232 306
3 306 345 266
3 266 345 306
3 307 267 346
3 268 267 347
3 347 267 268
3 348 269 268
3 268 269 348
3 269 348 304
3 304 348 269
3 235 308 349
3 350 308 270
3 272 309 271
3 271 309 272
3 309 349 235
3 235 349 309
3 272 247 351
3 351 247 272
3 310 352 157
3 312 130 354
3 356 314 275
3 315 356 275
3 352 316 157
3 358 130 317
3 279 359 318
3 318 359 279
3 360 244 318
3 318 244 360
3 280 281 279
3 279 281 280
3 319 211 361
3 244 360 319
3 319 360 244
3 320 212 322
3 322 212 320
3 362 281 320
3 320 281 362
3 321 211 363
3 363 211 321
3 321 364 282
3 282 364 321
3 282 364 322
3 322 364 282
3 247 323 351
3 351 323 247
3 270 365 323
3 323 365 270
3 283 324 366
3 366 324 283
3 283 325 367
3 368 248 325
3 325 248 368
3 303 284 369
3 285 284 370
3 370 284 285
3 371 324 285
3 285 324 371
3 327 372 287
3 252 326 327
3 288 287 372
3 373 326 288
3 289 374 290
3 290 374 289
3 328 253 329
3 329 253 328
3 375 289 328
3 328 289 375
3 374 329 290
3 290 329 374
3 376 291 330
3 330 291 376
3 377 292 291
3 291 292 377
3 331 222 330
3 292 378 331
3 331 378 292
3 379 332 293
3 333 223 380
3 293 381 333
3 333 381 293
3 382 223 295
3 383 294 295
3 295 294 383
3 384 332 294
3 294 332 384
3 258 334 335
3 335 334 258
3 261 298 334
3 334 298 261
3 296 335 385
3 385 335 296
3 386 296 336
3 338 259 336
3 336 259 338
3 297 298 337
3 337 298 297
3 338 298 297
3 297 298 338
3 387 299 301
3 301 299 387
3 388 300 299
3 299 300 388
3 339 263 389
3 300 390 339
3 339 390 300
3 302 263 391
3 391 263 302
3 392 301 340
3 340 301 392
3 341 340 229
3 229 340 341
3 393 341 302
3 302 341 393
3 265 342 394
3 394 342 265
3 248 368 342
3 342 368 248
3 343 265 394
3 394 265 343
3 343 369 303
3 303 369 343
3 304 395 344
3 344 395 304
3 305 396 307
3 307 396 305
3 397 345 305
3 344 395 306
3 306 395 344
3 345 306 395
3 395 306 345
3 398 346 267
3 396 346 307
3 307 346 396
3 267 348 347
3 347 348 267
3 348 268 347
3 347 268 348
3 395 304 348
3 348 304 395
3 399 349 308
3 400 350 308
3 308 350 400
3 365 270 350
3 350 270 365
3 309 272 401
3 401 272 309
3 349 309 401
3 401 309 349
3 351 402 272
3 272 402 351
3 311 313 353
3 354 130 404
3 313 355 403
3 406 356 315
3 357 406 315
3 404 130 358
3 359 279 321
3 321 279 359
3 318 359 360
3 360 359 318
3 279 281 321
3 321 281 279
3 363 361 211
3 319 359 361
3 361 359 319
3 359 319 360
3 360 319 359
3 408 320 322
3 322 320 408
3 281 362 409
3 409 362 281
3 320 408 362
3 362 408 320
3 361 321 363
3 363 321 361
3 364 321 281
3 281 321 364
3 410 322 364
3 364 322 410
3 323 411 351
3 351 411 323
3 365 412 323
3 323 412 365
3 324 371 366
3 366 371 324
3 366 367 283
3 283 367 366
3 413 367 325
3 325 414 368
3 368 414 325
3 415 369 284
3 284 371 370
3 370 371 284
3 371 285 370
3 370 285 371
3 372 327 416
3 373 327 326
3 417 288 372
3 288 418 373
3 374 289 419
3 419 289 374
3 420 328 329
3 329 328 420
3 289 375 419
3 419 375 289
3 328 420 375
3 375 420 328
3 329 374 420
3 420 374 329
3 291 376 377
3 377 376 291
3 330 378 376
3 376 378 330
3 292 377 421
3 421 377 292
3 378 330 331
3 331 330 378
3 378 292 421
3 421 292 378
3 332 422 379
3 379 422 332
3 422 293 379
3 379 293 422
3 380 223 382
3 381 380 333
3 333 380 381
3 381 293 423
3 423 293 381
3 424 295 382
3 382 295 424
3 294 383 384
3 384 383 294
3 295 424 383
3 383 424 295
3 332 384 425
3 425 384 332
3 334 426 335
3 335 426 334
3 426 334 298
3 298 334 426
3 385 335 426
3 426 335 385
3 426 296 385
3 385 296 426
3 296 426 386
3 386 426 296
3 426 336 386
3 386 336 426
3 336 426 338
3 338 426 336
3 426 298 338
3 338 298 426
3 299 387 388
3 388 387 299
3 301 392 387
3 387 392 301
3 300 388 427
3 427 388 300
3 428 389 263
3 390 389 339
3 339 389 390
3 390 300 427
3 427 300 390
3 263 393 391
3 391 393 263
3 393 302 391
3 391 302 393
3 340 341 392
3 392 341 340
3 341 393 392
3 392 393 341
3 342 414 394
3 394 414 342
3 414 342 368
3 368 342 414
3 394 414 343
3 343 414 394
3 369 343 429
3 429 343 369
3 396 305 430
3 430 305 396
3 345 431 397
3 397 431 345
3 431 305 397
3 397 305 431
3 431 345 395
3 395 345 431
3 346 348 398
3 398 348 346
3 348 267 398
3 398 267 348
3 346 396 432
3 432 396 346
3 395 348 432
3 432 348 395
3 401 399 349
3 349 399 401
3 433 308 399
3 399 308 433
3 350 400 365
3 365 400 350
3 308 433 400
3 400 433 308
3 401 272 433
3 433 272 401
3 351 411 402
3 402 411 351
3 434 272 402
3 402 272 434
3 353 313 403
3 355 405 407
3 403 355 407
3 405 406 357
3 407 405 357
3 321 361 359
3 359 361 321
3 322 410 408
3 408 410 322
3 409 410 362
3 410 281 409
3 409 281 410
3 408 362 410
3 281 410 364
3 364 410 281
3 411 323 412
3 412 323 411
3 365 433 412
3 412 433 365
3 429 366 371
3 371 366 429
3 367 366 435
3 435 366 367
3 435 413 367
3 367 413 435
3 414 325 413
3 413 325 414
3 369 371 415
3 415 371 369
3 371 284 415
3 415 284 371
3 373 416 327
3 436 372 416
3 437 288 417
3 417 372 438
3 418 416 373
3 418 288 439
3 419 374 375
3 420 375 374
3 376 440 377
3 377 440 376
3 440 376 378
3 378 376 440
3 377 441 421
3 421 441 377
3 421 442 378
3 378 442 421
3 422 332 425
3 425 332 422
3 293 422 423
3 423 422 293
3 443 380 382
3 380 381 444
3 444 381 380
3 423 445 381
3 381 445 423
3 443 424 382
3 382 424 443
3 424 384 383
3 383 384 424
3 384 424 425
3 425 424 384
3 392 388 387
3 387 388 392
3 388 392 427
3 427 392 388
3 389 393 428
3 428 393 389
3 393 263 428
3 428 263 393
3 389 390 446
3 446 390 389
3 427 446 390
3 390 446 427
3 446 392 393
3 393 392 446
3 435 343 414
3 414 343 435
3 435 429 343
3 343 429 435
3 371 369 429
3 429 369 371
3 305 431 430
3 430 431 305
3 431 396 430
3 430 396 431
3 395 432 431
3 431 432 395
3 348 346 432
3 432 346 348
3 396 431 432
3 432 431 396
3 399 401 433
3 433 401 399
3 433 365 400
3 400 365 433
3 433 272 434
3 434 272 433
3 447 402 411
3 411 402 447
3 448 434 402
3 402 434 448
3 412 447 411
3 411 447 412
3 412 433 434
3 434 433 412
3 366 429 435
3 435 429 366
3 413 435 414
3 414 435 413
3 436 449 372
3 450 436 416
3 439 288 437
3 437 417 451
3 452 438 372
3 438 451 417
3 416 418 453
3 418 439 454
3 455 377 440
3 440 377 455
3 440 378 456
3 456 378 440
3 441 377 455
3 455 377 441
3 421 441 457
3 457 441 421
3 421 457 442
3 442 457 421
3 456 378 442
3 442 378 456
3 425 458 422
3 422 458 425
3 422 445 423
3 423 445 422
3 380 443 459
3 381 445 444
3 444 445 381
3 444 459 380
3 380 459 444
3 424 443 458
3 458 443 424
3 425 424 458
3 458 424 425
3 427 392 446
3 446 392 427
3 393 389 446
3 446 389 393
3 402 447 448
3 448 447 402
3 434 448 460
3 460 448 434
3 447 412 461
3 461 412 447
3 460 412 434
3 434 412 460
3 452 372 449
3 436 462 449
3 436 450 462
3 416 453 450
3 439 437 463
3 451 464 437
3 465 452 438
3 438 452 465
3 466 438 451
3 451 438 466
3 454 453 418
3 467 454 439
3 440 468 455
3 455 468 440
3 469 440 456
3 456 440 469
3 441 455 470
3 470 455 441
3 471 457 441
3 441 457 471
3 472 442 457
3 457 442 472
3 473 456 442
3 442 456 473
3 445 422 458
3 458 422 445
3 445 443 459
3 459 443 445
3 459 444 445
3 445 444 459
3 443 445 458
3 458 445 443
3 448 460 447
3 412 460 461
3 461 460 412
3 461 447 460
3 452 474 449
3 449 474 452
3 475 449 462
3 476 462 450
3 477 450 453
3 478 463 437
3 439 463 467
3 478 437 464
3 479 451 464
3 464 451 479
3 452 465 480
3 480 465 452
3 438 466 465
3 465 466 438
3 451 479 466
3 466 479 451
3 481 454 453
3 453 454 481
3 482 467 454
3 454 467 482
3 468 440 483
3 483 440 468
3 468 442 455
3 455 442 468
3 440 469 483
3 483 469 440
3 456 473 469
3 469 473 456
3 442 470 455
3 455 470 442
3 470 471 441
3 441 471 470
3 457 471 484
3 484 471 457
3 470 442 472
3 472 442 470
3 484 472 457
3 457 472 484
3 442 468 473
3 473 468 442
3 474 452 480
3 480 452 474
3 474 475 449
3 449 475 474
3 475 462 485
3 476 485 462
3 476 450 485
3 477 485 450
3 477 481 453
3 453 481 477
3 463 478 486
3 486 467 463
3 464 486 478
3 464 487 479
3 479 487 464
3 465 474 480
3 480 474 465
3 466 488 465
3 465 488 466
3 479 488 466
3 466 488 479
3 454 481 482
3 482 481 454
3 467 482 489
3 489 482 467
3 483 468 469
3 473 469 468
3 471 470 490
3 490 470 471
3 484 491 471
3 491 470 472
3 472 470 491
3 472 484 491
3 491 484 472
3 475 474 492
3 492 474 475
3 475 488 485
3 485 488 475
3 488 477 485
3 485 477 488
3 481 477 493
3 493 477 481
3 489 486 467
3 467 486 489
3 487 464 486
3 486 464 487
3 487 481 479
3 479 481 487
3 474 465 492
3 492 465 474
3 492 465 488
3 488 465 492
3 479 493 488
3 488 493 479
3 481 487 482
3 482 487 481
3 482 487 489
3 489 487 482
3 470 491 490
3 490 491 470
3 490 471 491
3 488 475 492
3 492 475 488
3 477 488 493
3 493 488 477
3 493 479 481
3 481 479 493
3 486 489 487
3 487 489 486
3 162 184 131
3 131 185 163
3 182 204 161
3 161 206 183
3 181 207 162
3 185 131 184
3 184 162 207
3 163 208 182
3 208 163 185
3 203 238 181
3 206 161 204
3 204 182 208
3 183 241 205
3 241 183 206
3 207 181 238
3 238 203 275
3 239 275 203
3 240 205 243
3 242 205 241
3 237 311 273
3 274 313 237
3 275 239 315
3 276 315 239
3 277 240 278
3 242 243 205
3 243 278 240
3 273 353 310
3 353 273 311
3 311 237 313
3 312 355 274
3 313 274 355
3 315 276 357
3 316 357 276
3 317 277 314
3 278 314 277
3 310 403 352
3 403 310 353
3 354 405 312
3 355 312 405
3 314 356 317
3 357 316 407
3 352 407 316
3 358 317 356
3 407 352 403
3 354 404 405
3 356 406 358
3 404 358 406
3 406 405 404
3 1 4 2
3 4 0 2
3 0 5 3
3 3 6 1
3 4 1 7
3 0 4 8
3 5 0 8
3 6 3 5
3 9 1 6
3 1 9 7
3 7 10 4
3 4 11 8
3 8 12 5
3 6 5 13
3 6 14 9
3 7 9 15
3 10 7 5
3 11 4 10
3 8 11 16
3 8 17 12
3 18 5 12
3 13 5 15
3 19 6 13
3 14 6 20
3 14 15 9
3 7 15 5
3 10 5 21
3 11 10 22
3 23 16 11
3 8 16 17
3 17 24 12
3 25 5 18
3 24 18 12
3 15 19 13
3 6 19 20
3 15 14 27
3 21 5 28
3 11 22 29
3 16 23 30
3 31 23 11
3 17 16 32
3 24 17 33
3 34 5 25
3 35 25 18
3 18 24 36
3 19 15 27
3 28 5 40
3 11 29 42
3 23 43 30
3 30 44 16
3 23 31 45
3 11 46 31
3 32 16 40
3 17 32 35
3 35 33 17
3 47 24 33
3 40 5 34
3 48 34 25
3 25 35 32
3 36 35 18
3 24 49 36
3 26 54 38
3 28 40 55
3 11 42 46
3 43 23 58
3 30 43 59
3 44 30 60
3 44 40 16
3 31 60 45
3 45 61 23
3 41 31 46
3 40 62 32
3 33 35 63
3 24 47 64
3 33 65 47
3 66 40 34
3 34 48 66
3 32 48 25
3 35 36 63
3 24 64 49
3 65 36 49
3 69 37 51
3 70 26 52
3 37 70 52
3 54 26 72
3 54 73 38
3 75 50 39
3 55 40 76
3 44 41 56
3 57 46 42
3 23 77 58
3 78 43 58
3 79 59 43
3 30 59 80
3 30 81 60
3 60 31 44
3 56 40 44
3 61 45 60
3 23 61 77
3 31 41 44
3 62 40 82
3 48 32 62
3 63 65 33
3 83 64 47
3 47 65 84
3 40 66 82
3 48 85 66
3 65 63 36
3 64 86 49
3 49 84 65
3 50 87 67
3 68 69 51
3 37 69 88
3 26 70 72
3 70 37 88
3 71 89 53
3 70 54 72
3 73 54 90
3 89 74 53
3 74 75 39
3 50 75 91
3 76 40 92
3 93 58 77
3 43 78 79
3 58 94 78
3 59 79 95
3 80 59 96
3 30 80 97
3 30 98 81
3 99 60 81
3 100 40 56
3 61 60 101
3 77 61 102
3 82 103 62
3 104 48 62
3 64 83 105
3 47 106 83
3 84 106 47
3 103 82 66
3 48 107 85
3 103 66 85
3 108 86 64
3 84 49 86
3 87 50 91
3 87 109 67
3 69 68 110
3 69 70 88
3 89 71 112
3 54 70 90
3 113 73 90
3 74 89 114
3 75 74 114
3 75 87 91
3 92 40 100
3 58 93 115
3 116 93 77
3 94 58 115
3 94 59 95
3 115 96 59
3 80 96 119
3 120 97 80
3 30 97 98
3 121 81 98
3 122 60 99
3 81 123 99
3 101 60 124
3 61 101 125
3 126 102 61
3 127 77 102
3 62 103 104
3 48 104 107
3 106 105 83
3 108 64 105
3 129 106 84
3 107 130 85
3 131 103 85
3 108 132 86
3 86 129 84
3 109 87 133
3 68 113 110
3 113 69 110
3 70 69 90
3 73 113 111
3 71 135 112
3 135 89 112
3 90 69 113
3 89 135 114
3 114 87 75
3 115 93 136
3 93 116 137
3 77 138 116
3 59 94 115
3 141 96 115
3 119 96 101
3 80 119 142
3 97 120 143
3 80 144 120
3 98 97 145
3 81 121 146
3 98 147 121
3 148 60 122
3 149 122 99
3 123 81 146
3 123 149 99
3 124 60 150
3 101 124 151
3 125 101 96
3 152 61 125
3 102 126 153
3 154 126 61
3 77 127 155
3 156 127 102
3 157 104 103
3 129 107 104
3 105 106 108
3 129 159 106
3 130 107 160
3 161 85 130
3 162 103 131
3 131 85 163
3 160 132 108
3 129 86 132
3 113 68 111
3 87 135 133
3 135 109 133
3 135 71 134
3 135 87 114
3 137 136 93
3 115 136 141
3 116 164 137
3 138 77 155
3 164 116 138
3 153 96 141
3 165 119 101
3 119 166 142
3 144 80 142
3 120 167 143
3 168 97 143
3 144 169 120
3 170 145 97
3 98 145 171
3 147 98 149
3 172 60 148
3 122 173 148
3 122 149 174
3 149 123 147
3 150 60 175
3 176 124 150
3 151 124 171
3 177 101 151
3 96 152 125
3 61 152 154
3 153 126 96
3 178 102 153
3 126 154 179
3 155 127 141
3 127 156 180
3 102 178 156
3 104 157 159
3 103 181 157
3 107 129 132
3 104 159 129
3 159 108 106
3 160 107 132
3 159 130 160
3 85 161 182
3 161 130 183
3 181 103 162
3 163 85 182
3 108 159 160
3 109 135 134
3 136 137 186
3 155 141 136
3 187 137 164
3 136 138 155
3 164 138 188
3 141 178 153
3 119 165 189
3 101 177 165
3 166 119 171
3 190 142 166
3 142 168 144
3 167 120 169
3 143 167 191
3 97 168 170
3 143 191 168
3 169 144 168
3 170 192 145
3 193 171 145
3 98 171 174
3 98 174 149
3 194 60 172
3 148 195 172
3 173 122 196
3 173 197 148
3 198 122 174
3 175 60 194
3 175 176 150
3 124 176 199
3 171 124 197
3 171 177 151
3 152 96 200
3 201 154 152
3 179 96 126
3 154 201 179
3 180 141 127
3 156 202 180
3 202 156 178
3 130 159 157
3 157 181 203
3 183 130 205
3 137 209 186
3 138 136 186
3 209 137 187
3 188 138 211
3 178 141 213
3 165 214 189
3 189 171 119
3 214 165 177
3 166 171 215
3 192 142 190
3 216 190 166
3 168 142 170
3 219 168 191
3 169 168 219
3 142 192 170
3 192 220 145
3 221 171 193
3 145 222 193
3 174 171 197
3 172 223 194
3 197 195 148
3 224 172 195
3 122 198 196
3 196 225 173
3 197 173 226
3 174 226 198
3 227 175 194
3 176 175 228
3 229 199 176
3 199 230 124
3 230 197 124
3 177 171 231
3 96 179 200
3 200 232 152
3 201 152 233
3 234 179 201
3 141 180 213
3 235 180 202
3 202 178 236
3 157 237 130
3 157 203 239
3 205 130 240
3 185 242 184
3 184 243 207
3 208 241 185
3 186 209 244
3 186 211 138
3 209 187 245
3 213 247 178
3 248 189 214
3 171 189 231
3 214 177 249
3 215 171 221
3 192 190 251
3 190 216 252
3 220 192 255
3 222 145 220
3 251 221 193
3 222 251 193
3 226 174 197
3 223 172 256
3 223 227 194
3 195 197 230
3 172 224 256
3 195 257 224
3 198 258 196
3 196 259 225
3 260 173 225
3 261 226 173
3 226 261 198
3 175 227 230
3 175 262 228
3 228 263 176
3 199 229 262
3 229 176 264
3 230 199 262
3 231 265 177
3 179 234 200
3 200 234 232
3 266 152 232
3 233 152 267
3 180 270 213
3 270 180 235
3 236 178 247
3 157 273 237
3 274 130 237
3 157 239 276
3 206 208 204
3 240 130 277
3 208 206 241
3 207 278 238
3 185 241 242
3 184 242 243
3 207 243 278
3 186 244 211
3 213 270 247
3 189 248 231
3 248 214 283
3 249 177 284
3 221 250 215
3 221 251 190
3 286 192 251
3 287 252 216
3 252 221 190
3 288 216 250
3 192 286 255
3 255 291 220
3 220 292 222
3 251 222 286
3 256 293 223
3 227 223 257
3 195 230 227
3 224 294 256
3 257 195 227
3 257 295 224
3 258 198 261
3 196 258 296
3 196 296 259
3 261 173 260
3 262 175 230
3 262 299 228
3 228 300 263
3 264 176 263
3 262 229 301
3 231 248 265
3 303 177 265
3 305 152 266
3 267 152 307
3 270 235 308
3 157 310 273
3 312 130 274
3 238 314 275
3 157 276 316
3 277 130 317
3 238 278 314
3 319 211 244
3 248 283 325
3 284 177 303
3 250 221 326
3 252 287 327
3 216 288 287
3 221 252 326
3 326 288 250
3 286 330 255
3 291 255 330
3 220 291 292
3 331 222 292
3 330 286 222
3 256 332 293
3 333 223 293
3 295 257 223
3 294 224 295
3 256 294 332
3 259 296 336
3 299 262 301
3 228 299 300
3 339 263 300
3 340 301 229
3 307 152 305
3 345 305 266
3 346 267 307
3 349 308 235
3 270 308 350
3 157 352 310
3 354 130 312
3 275 314 356
3 275 356 315
3 157 316 352
3 317 130 358
3 361 211 319
3 367 325 283
3 369 284 303
3 287 372 327
3 327 326 252
3 372 287 288
3 288 326 373
3 330 222 331
3 293 332 379
3 380 223 333
3 295 223 382
3 336 296 386
3 389 263 339
3 305 345 397
3 267 346 398
3 308 349 399
3 353 313 311
3 404 130 354
3 403 355 313
3 315 356 406
3 315 406 357
3 358 130 404
3 211 361 363
3 325 367 413
3 284 369 415
3 416 327 372
3 326 327 373
3 372 288 417
3 373 418 288
3 382 223 380
3 263 389 428
3 403 313 353
3 407 405 355
3 407 355 403
3 357 406 405
3 357 405 407
3 362 410 409
3 410 362 408
3 327 416 373
3 416 372 436
3 417 288 437
3 438 372 417
3 373 416 418
3 439 288 418
3 375 374 419
3 374 375 420
3 382 380 443
3 372 449 436
3 416 436 450
3 437 288 439
3 451 417 437
3 372 438 452
3 417 451 438
3 453 418 416
3 454 439 418
3 459 443 380
3 449 372 452
3 449 462 436
3 462 450 436
3 450 453 416
3 463 437 439
3 437 464 451
3 418 453 454
3 439 454 467
3 447 460 448
3 460 447 461
3 462 449 475
3 450 462 476
3 453 450 477
3 437 463 478
3 467 463 439
3 464 437 478
3 485 462 475
3 462 485 476
3 485 450 476
3 450 485 477
3 486 478 463
3 463 467 486
3 478 486 464
3 469 468 483
3 468 469 473
3 471 491 484
3 491 471 490
3 131 184 162
3 163 185 131
3 161 204 182
3 183 206 161
3 162 207 181
3 184 131 185
3 207 162 184
3 182 208 163
3 185 163 208
3 181 238 203
3 204 161 206
3 208 182 204
3 205 241 183
3 206 183 241
3 238 181 207
3 275 203 238
3 203 275 239
3 243 205 240
3 241 205 242
3 273 311 237
3 237 313 274
3 315 239 275
3 239 315 276
3 278 240 277
3 205 243 242
3 240 278 243
3 310 353 273
3 311 273 353
3 313 237 311
3 274 355 312
3 355 274 313
3 357 276 315
3 276 357 316
3 314 277 317
3 277 314 278
3 352 403 310
3 353 310 403
3 312 405 354
3 405 312 355
3 317 356 314
3 407 316 357
3 316 407 352
3 356 317 358
3 403 352 407
3 405 404 354
3 358 406 356
3 406 358 404
3 404 405 406
3 20 26 14
3 21 22 10
3 37 20 19
3 26 20 37
3 38 14 26
3 14 39 27
3 28 41 21
3 22 21 29
3 27 50 19
3 37 19 51
3 52 26 37
3 53 14 38
3 39 14 53
3 27 39 50
3 41 28 56
3 41 57 21
3 29 21 42
3 67 19 50
3 51 19 68
3 53 38 71
3 39 53 74
3 56 28 55
3 57 41 46
3 42 21 57
3 68 19 67
3 73 71 38
3 56 55 76
3 109 68 67
3 71 73 111
3 56 76 92
3 78 117 79
3 117 78 94
3 79 118 95
3 56 92 100
3 68 109 111
3 71 111 134
3 118 79 117
3 117 94 139
3 95 118 140
3 95 140 94
3 134 111 109
3 139 118 117
3 139 94 140
3 118 139 140
3 121 123 146
3 123 121 147
