ply
format ascii 1.0
comment Generated by PyMesh
element vertex 130
property double x
property double y
property double z
element face 416
property list uchar int vertex_indices
end_header
-0.00688784 -0.474084 -0.146067
0.00688784 -0.474084 -0.146067
0 -0.474084 -0.146667
-0.0135694 -0.474084 -0.144294
0 -0.0249574 -0.146667
-0.00688784 -0.0249474 -0.146067
-0.0135694 -0.024918 -0.144294
0.0135694 -0.474084 -0.144294
0.00688784 -0.0249474 -0.146067
-0.0198467 -0.0248687 -0.141395
-0.0198467 -0.474084 -0.141395
0.00688784 0.220161 -0.154506
0 0.220186 -0.155101
-0.00688784 0.220161 -0.154506
-0.0135694 0.220093 -0.152728
0.0198467 -0.474084 -0.141395
0.0135694 -0.024918 -0.144294
0.0135694 0.220093 -0.152728
-0.0255333 -0.0247999 -0.137461
-0.0198467 0.219979 -0.149824
-0.0255333 -0.474084 -0.137461
0 0.474084 -0.126225
0.00688784 0.474015 -0.125635
-0.00688784 0.474015 -0.125635
-0.0135694 0.473813 -0.123872
-0.0198467 0.473488 -0.120992
0.0255333 -0.474084 -0.137461
0.0198467 -0.0248687 -0.141395
0.0198467 0.219979 -0.149824
0.0135694 0.473813 -0.123872
-0.0304519 -0.0247162 -0.132601
-0.0255333 0.219822 -0.14588
-0.0255333 0.47304 -0.117082
-0.0304519 -0.474084 -0.132601
0.0304519 -0.474084 -0.132601
0.0255333 -0.0247999 -0.137461
0.0255333 0.219822 -0.14588
0.0198467 0.473488 -0.120992
-0.0344648 -0.474084 -0.126973
-0.0304519 0.219629 -0.141015
-0.0304519 0.472494 -0.112257
-0.0344648 -0.0246181 -0.126973
0.0344648 -0.474084 -0.126973
0.0304519 -0.0247162 -0.132601
0.0304519 0.219629 -0.141015
0.0255333 0.47304 -0.117082
-0.0344648 -0.0244206 0.122045
-0.0344648 0.471859 -0.106659
-0.0344648 0.219408 -0.135373
-0.0344648 -0.474084 0.122045
0.0344648 -0.0246181 -0.126973
0.0344648 -0.474084 0.122045
0.0344648 -0.0244206 0.122045
0.0304519 0.472494 -0.112257
-0.0304519 -0.474084 0.127678
-0.0344648 0.219605 0.135344
0.0344648 0.219408 -0.135373
0.0344648 0.471859 -0.106659
-0.0304519 -0.0245737 0.127678
-0.0304519 0.219773 0.140991
-0.0344648 0.471859 0.106654
0.0304519 -0.474084 0.127678
0.0304519 -0.0245737 0.127678
0.0344648 0.219605 0.135344
-0.0255333 -0.0247062 0.132532
-0.0344648 0.474084 -0.106536
-0.0255333 -0.474084 0.132532
0.0304519 0.219773 0.140991
-0.0255333 0.219915 0.145865
-0.0304519 0.472494 0.112252
-0.0344648 0.474084 0.106654
0.0255333 -0.474084 0.132532
0.0255333 -0.0247062 0.132532
0.0344648 0.471859 0.106654
-0.0198467 -0.0248149 0.136466
-0.0198467 0.220033 0.149814
0.0344648 0.474084 0.106654
-0.0198467 -0.474084 0.136466
0.0255333 0.219915 0.145865
0.0304519 0.472494 0.112252
0.0344648 0.474084 -0.106536
-0.0255333 0.47304 0.117077
0.0304519 0.474084 0.112286
0.0198467 -0.474084 0.136466
0.0198467 -0.0248149 0.136466
0.0255333 0.47304 0.117077
-0.0135694 -0.0248937 0.139366
-0.0135694 0.220117 0.152718
-0.0198467 0.473488 0.120987
-0.0303731 0.474084 -0.11204
-0.0304519 0.474084 0.112286
-0.0135694 -0.474084 0.139366
0.0198467 0.220033 0.149814
0.0198467 0.473488 0.120987
0.0303731 0.474084 -0.11204
0.0255333 0.474084 0.117141
0.0135694 -0.474084 0.139366
0.0135694 -0.0248937 0.139366
-0.00688784 -0.0249424 0.141143
-0.00688784 0.220171 0.154501
-0.0135694 0.473813 0.123867
-0.0254152 0.474084 -0.116777
-0.0255333 0.474084 0.117141
-0.00688784 -0.474084 0.141143
0.0135694 0.220117 0.152718
0.0135694 0.473813 0.123867
0.0254152 0.474084 -0.116777
0.0198467 0.474084 0.12108
0.00688784 -0.474084 0.141143
0.00688784 -0.0249424 0.141143
0 -0.0249574 0.141739
0 0.220186 0.155101
-0.00688784 0.474015 0.12563
-0.0197286 0.474084 -0.120612
-0.0198467 0.474084 0.12108
0 -0.474084 0.141739
0.00688784 0.220171 0.154501
0.00688784 0.474015 0.12563
0.0197286 0.474084 -0.120612
0.0135694 0.474084 0.12398
0 0.474084 0.126225
-0.0134757 0.474084 -0.123428
-0.0135694 0.474084 0.12398
0.0134757 0.474084 -0.123428
0.00688784 0.474084 0.125753
-0.0068341 0.474084 -0.125156
-0.00688784 0.474084 0.125753
0.0068341 0.474084 -0.125156
0 0.474084 0.126348
0 0.474084 -0.125733
3 0 1 2
3 1 0 3
3 1 3 7
3 7 3 10
3 7 10 15
3 15 10 20
3 15 20 26
3 26 20 33
3 26 33 34
3 34 33 38
3 34 38 42
3 42 38 49
3 42 49 51
3 42 52 50
3 51 49 54
3 52 42 51
3 50 52 56
3 51 54 61
3 56 52 63
3 61 54 66
3 56 63 57
3 61 66 71
3 57 63 73
3 65 76 70
3 71 66 77
3 57 73 80
3 65 80 76
3 70 76 82
3 71 77 83
3 80 73 76
3 89 80 65
3 70 82 90
3 83 77 91
3 89 94 80
3 90 82 95
3 83 91 96
3 101 94 89
3 90 95 102
3 96 91 103
3 101 106 94
3 102 95 107
3 96 103 108
3 113 106 101
3 102 107 114
3 108 103 115
3 113 118 106
3 114 107 119
3 121 118 113
3 114 119 122
3 121 123 118
3 122 119 124
3 125 123 121
3 122 124 126
3 125 127 123
3 126 124 128
3 127 125 129
3 1 4 2
3 2 5 0
3 0 6 3
3 4 1 8
3 5 2 4
3 6 0 5
3 9 3 6
3 7 8 1
3 11 4 8
3 12 5 4
3 13 6 5
3 3 9 10
3 14 9 6
3 8 7 16
3 4 11 12
3 8 17 11
3 5 12 13
3 6 13 14
3 18 10 9
3 9 14 19
3 15 16 7
3 17 8 16
3 11 21 12
3 17 22 11
3 12 23 13
3 13 24 14
3 10 18 20
3 19 18 9
3 14 25 19
3 16 15 27
3 16 28 17
3 21 11 22
3 23 12 21
3 22 17 29
3 24 13 23
3 25 14 24
3 30 20 18
3 18 19 31
3 32 19 25
3 26 27 15
3 28 16 27
3 28 29 17
3 20 30 33
3 31 30 18
3 19 32 31
3 27 26 35
3 27 36 28
3 29 28 37
3 30 38 33
3 30 31 39
3 40 31 32
3 34 35 26
3 36 27 35
3 36 37 28
3 38 30 41
3 31 40 39
3 39 41 30
3 35 34 43
3 35 44 36
3 37 36 45
3 41 46 38
3 47 39 40
3 41 39 48
3 50 34 42
3 34 50 43
3 44 35 43
3 44 45 36
3 49 38 46
3 48 46 41
3 39 47 48
3 50 44 43
3 45 44 53
3 46 54 49
3 55 46 48
3 47 55 48
3 44 50 56
3 44 57 53
3 54 46 58
3 59 46 55
3 60 55 47
3 51 62 52
3 57 44 56
3 46 59 58
3 64 54 58
3 60 59 55
3 65 60 47
3 62 51 61
3 67 52 62
3 52 67 63
3 68 58 59
3 54 64 66
3 58 68 64
3 59 60 69
3 70 60 65
3 71 62 61
3 72 67 62
3 67 73 63
3 69 68 59
3 74 66 64
3 75 64 68
3 62 71 72
3 67 72 78
3 73 67 79
3 68 69 81
3 66 74 77
3 64 75 74
3 81 75 68
3 83 72 71
3 84 78 72
3 85 67 78
3 67 85 79
3 86 77 74
3 87 74 75
3 75 81 88
3 72 83 84
3 78 84 92
3 78 93 85
3 77 86 91
3 74 87 86
3 88 87 75
3 96 84 83
3 97 92 84
3 93 78 92
3 98 91 86
3 99 86 87
3 87 88 100
3 84 96 97
3 92 97 104
3 92 105 93
3 91 98 103
3 86 99 98
3 100 99 87
3 108 97 96
3 109 104 97
3 105 92 104
3 110 103 98
3 111 98 99
3 99 100 112
3 97 108 109
3 104 109 116
3 104 117 105
3 103 110 115
3 98 111 110
3 112 111 99
3 115 109 108
3 110 116 109
3 117 104 116
3 109 115 110
3 116 110 111
3 111 112 120
3 116 120 117
3 120 116 111
3 2 1 0
3 3 0 1
3 7 3 1
3 10 3 7
3 15 10 7
3 20 10 15
3 26 20 15
3 33 20 26
3 34 33 26
3 38 33 34
3 42 38 34
3 49 38 42
3 51 49 42
3 50 52 42
3 54 49 51
3 51 42 52
3 56 52 50
3 61 54 51
3 63 52 56
3 66 54 61
3 57 63 56
3 71 66 61
3 73 63 57
3 70 76 65
3 77 66 71
3 80 73 57
3 76 80 65
3 82 76 70
3 83 77 71
3 76 73 80
3 65 80 89
3 90 82 70
3 91 77 83
3 80 94 89
3 95 82 90
3 96 91 83
3 89 94 101
3 102 95 90
3 103 91 96
3 94 106 101
3 107 95 102
3 108 103 96
3 101 106 113
3 114 107 102
3 115 103 108
3 106 118 113
3 119 107 114
3 113 118 121
3 122 119 114
3 118 123 121
3 124 119 122
3 121 123 125
3 126 124 122
3 123 127 125
3 128 124 126
3 129 125 127
3 2 4 1
3 0 5 2
3 3 6 0
3 8 1 4
3 4 2 5
3 5 0 6
3 6 3 9
3 1 8 7
3 8 4 11
3 4 5 12
3 5 6 13
3 10 9 3
3 6 9 14
3 16 7 8
3 12 11 4
3 11 17 8
3 13 12 5
3 14 13 6
3 9 10 18
3 19 14 9
3 7 16 15
3 16 8 17
3 12 21 11
3 11 22 17
3 13 23 12
3 14 24 13
3 20 18 10
3 9 18 19
3 19 25 14
3 27 15 16
3 17 28 16
3 22 11 21
3 21 12 23
3 29 17 22
3 23 13 24
3 24 14 25
3 18 20 30
3 31 19 18
3 25 19 32
3 15 27 26
3 27 16 28
3 17 29 28
3 33 30 20
3 18 30 31
3 31 32 19
3 35 26 27
3 28 36 27
3 37 28 29
3 33 38 30
3 39 31 30
3 32 31 40
3 26 35 34
3 35 27 36
3 28 37 36
3 41 30 38
3 39 40 31
3 30 41 39
3 43 34 35
3 36 44 35
3 45 36 37
3 40 39 47
3 48 39 41
3 42 34 50
3 43 50 34
3 43 35 44
3 36 45 44
3 48 47 39
3 43 44 50
3 53 44 45
3 49 54 46
3 56 50 44
3 53 57 44
3 58 46 54
3 55 46 59
3 52 62 51
3 56 44 57
3 58 59 46
3 58 54 64
3 55 59 60
3 61 51 62
3 62 52 67
3 63 67 52
3 59 58 68
3 66 64 54
3 64 68 58
3 69 60 59
3 61 62 71
3 62 67 72
3 63 73 67
3 59 68 69
3 64 66 74
3 68 64 75
3 72 71 62
3 78 72 67
3 79 67 73
3 81 69 68
3 77 74 66
3 74 75 64
3 68 75 81
3 71 72 83
3 72 78 84
3 78 67 85
3 79 85 67
3 74 77 86
3 75 74 87
3 88 81 75
3 84 83 72
3 92 84 78
3 85 93 78
3 91 86 77
3 86 87 74
3 75 87 88
3 83 84 96
3 84 92 97
3 92 78 93
3 86 91 98
3 87 86 99
3 100 88 87
3 97 96 84
3 104 97 92
3 93 105 92
3 103 98 91
3 98 99 86
3 87 99 100
3 96 97 108
3 97 104 109
3 104 92 105
3 98 103 110
3 99 98 111
3 112 100 99
3 109 108 97
3 116 109 104
3 105 117 104
3 115 110 103
3 110 111 98
3 99 111 112
3 108 109 115
3 109 116 110
3 116 104 117
3 110 115 109
3 111 110 116
3 120 112 111
3 117 120 116
3 111 116 120
3 38 46 41
3 46 38 49
3 41 46 48
3 48 46 55
3 48 55 47
3 47 55 60
3 47 60 65
3 65 60 70
