ply
format ascii 1.0
comment Generated by PyMesh
element vertex 324
property double x
property double y
property double z
element face 1288
property list uchar int vertex_indices
end_header
-0.0427151 -0.432747 -0.198722
-0.0427151 -0.38801 -0.20333
-0.0427151 -0.428058 -0.205739
-0.0427151 -0.394561 -0.202468
-0.0427151 0.437842 -0.20221
0.0427151 -0.428058 -0.205739
-0.0427151 -0.400666 -0.199939
-0.0427151 -0.381458 -0.202468
-0.0427151 0.435145 -0.207677
0.0427151 -0.432747 -0.198722
0.0427151 -0.422494 -0.212083
-0.0427151 -0.405908 -0.195916
-0.0427151 -0.422494 -0.212083
0.0427151 0.437842 -0.20221
-0.0427151 -0.375353 -0.199939
0.0427151 -0.405369 -0.203597
-0.0427151 -0.436478 -0.191154
0.0427151 -0.388991 -0.211674
-0.0427151 0.431759 -0.212745
0.0427151 0.435145 -0.207677
0.0427151 0.439801 -0.196437
-0.0427151 0.439801 -0.196437
0.0427151 -0.400279 -0.206999
0.0427151 -0.409972 -0.199561
0.0427151 -0.436478 -0.191154
-0.0427151 -0.41615 -0.217647
0.0427151 -0.382987 -0.212868
0.0427151 -0.394788 -0.209707
-0.0427151 -0.409931 -0.190674
-0.0427151 -0.38801 -0.197002
-0.0427151 0.427739 -0.217328
0.0427151 0.412376 -0.207298
0.0427151 0.417709 -0.201965
-0.0427151 -0.370111 -0.195916
0.0395511 -0.405369 -0.203597
0.0395511 -0.409972 -0.199561
0.0427151 -0.414009 -0.194958
-0.0427151 -0.439191 -0.183163
0.0427151 -0.41615 -0.217647
0.0427151 -0.3763 -0.213307
0.0395511 -0.388991 -0.211674
0.0395511 -0.394788 -0.209707
-0.0427151 -0.397502 -0.194459
-0.0427151 -0.392923 -0.196355
0.0427151 0.431759 -0.212745
0.0427151 0.409233 -0.209398
0.0427151 0.415217 -0.204806
0.0427151 0.44099 -0.190458
0.0427151 0.419809 -0.198822
-0.0427151 0.44099 -0.190458
0.0395511 -0.400279 -0.206999
0.0427151 -0.41741 -0.189868
0.0427151 -0.439191 -0.183163
-0.0427151 -0.409134 -0.222335
-0.0427151 0.423157 -0.221348
0.0395511 -0.382987 -0.212868
-0.0427151 -0.41246 -0.184569
-0.0427151 -0.401433 -0.191442
-0.0427151 -0.383096 -0.196355
0.0427151 0.427739 -0.217328
0.0427151 0.402265 -0.212285
0.0427151 0.405844 -0.211069
0.0395511 0.409233 -0.209398
0.0395511 0.412376 -0.207298
0.0427151 0.421481 -0.195433
0.0395511 0.417709 -0.201965
0.0395511 0.419809 -0.198822
-0.0427151 -0.366088 -0.190674
0.0395511 0.415217 -0.204806
0.0395511 -0.414009 -0.194958
-0.0427151 -0.440837 -0.174887
0.0427151 -0.409134 -0.222335
0.0427151 0.423157 -0.221348
0.0395511 -0.3763 -0.213307
0.0395511 0.402265 -0.212285
0.0395511 0.405844 -0.211069
-0.0427151 -0.413323 -0.178018
-0.0427151 -0.404451 -0.18751
-0.0427151 -0.378518 -0.194459
0.0427151 0.394209 -0.213307
0.0427151 0.398558 -0.213022
0.0427151 0.441389 -0.184376
0.0427151 0.422696 -0.191854
0.0395511 0.421481 -0.195433
-0.0427151 -0.363559 -0.184569
0.0395511 -0.41741 -0.189868
0.0427151 -0.420118 -0.184377
0.0427151 -0.440837 -0.174887
-0.0427151 -0.401565 -0.226067
-0.0427151 0.418088 -0.224735
0.0427151 0.418088 -0.224735
0.0395511 0.394209 -0.213307
0.0395511 0.398558 -0.213022
-0.0427151 -0.406347 -0.182932
-0.0427151 -0.374585 -0.191442
-0.0427151 0.441389 -0.184376
0.0427151 0.423433 -0.188147
0.0395511 0.422696 -0.191854
-0.0427151 -0.371569 -0.18751
0.0427151 -0.422085 -0.17858
-0.0427151 -0.441389 -0.166467
-0.0427151 -0.41246 -0.171466
0.0427151 -0.401565 -0.226067
-0.0427151 -0.406994 -0.178018
0.0427151 0.441389 0.185949
0.0427151 0.423718 -0.183797
0.0395511 0.423433 -0.188147
-0.0427151 -0.369672 -0.182932
-0.0427151 -0.362697 -0.178018
0.0395511 -0.420118 -0.184377
0.0427151 -0.42328 -0.172575
0.0427151 -0.441389 -0.166467
-0.0427151 -0.393575 -0.22878
-0.0427151 0.412621 -0.227431
0.0427151 0.412621 -0.227431
-0.0427151 0.441389 0.185949
0.0395511 0.423718 -0.183797
0.0395511 -0.422085 -0.17858
-0.0427151 -0.441389 0.15969
-0.0427151 -0.409931 -0.165362
-0.0427151 -0.406347 -0.173104
0.0427151 -0.393575 -0.22878
-0.0427151 -0.369025 -0.178018
0.0427151 0.441004 0.191827
0.0427151 0.423718 0.185371
0.0395511 0.423718 0.185371
-0.0427151 -0.363559 -0.171466
0.0395511 -0.42328 -0.172575
0.0427151 -0.423718 -0.165888
0.0427151 -0.441389 0.15969
-0.0427151 -0.404451 -0.168526
-0.0427151 -0.385298 -0.230426
-0.0427151 0.406849 -0.22939
0.0427151 0.406849 -0.22939
-0.0427151 0.441004 0.191827
0.0427151 0.423446 0.189515
0.0395511 0.416053 -0.00617317
-0.0427151 -0.369672 -0.173104
-0.0427151 -0.366088 -0.165362
0.0395511 -0.343578 -0.178613
0.0395511 -0.353948 -0.0448716
-0.0427151 -0.44078 0.168995
-0.0427151 -0.405908 -0.160119
-0.0427151 -0.401433 -0.164594
0.0427151 -0.385298 -0.230426
-0.0427151 -0.435963 0.18697
0.0427151 0.439855 0.197604
0.0427151 0.422749 0.19302
0.0395511 0.423446 0.189515
0.0395511 0.415082 -0.0135437
0.0395511 0.415082 0.0011974
-0.0427151 -0.371569 -0.168526
-0.0427151 -0.370111 -0.160119
0.0395511 0.355684 -0.178613
0.0395511 -0.423718 -0.165888
0.0427151 -0.423718 0.159111
0.0427151 -0.44078 0.168995
-0.0427151 -0.400666 -0.156096
-0.0427151 -0.376878 -0.230978
-0.0427151 0.40087 -0.230579
0.0427151 0.40087 -0.230579
-0.0427151 -0.43896 0.17814
-0.0427151 -0.431838 0.195334
-0.0427151 0.439855 0.197604
0.0395511 0.422749 0.19302
0.0395511 -0.416502 0.186479
0.0395511 0.397068 0.00274312
0.0395511 0.412237 0.00806529
-0.0427151 -0.374585 -0.164594
-0.0427151 -0.375353 -0.156096
0.0395511 0.355684 0.182092
0.0395511 -0.343578 0.182092
0.0395511 -0.410219 -0.0448716
0.0427151 -0.423222 0.166684
-0.0427151 -0.38801 -0.152705
-0.0427151 -0.394561 -0.153568
-0.0427151 -0.392923 -0.15968
-0.0427151 -0.397502 -0.161576
0.0427151 -0.376878 -0.230978
-0.0427151 0.394787 -0.230978
0.0427151 -0.43896 0.17814
0.0427151 -0.435963 0.18697
0.0427151 0.437961 0.203181
0.0427151 0.4216 0.196404
0.0395511 0.4216 0.196404
0.0395511 -0.412609 0.192306
0.0395511 0.412237 -0.0204116
0.0395511 0.397068 -0.0162411
0.0395511 0.407712 0.0139627
-0.0427151 -0.378518 -0.161576
-0.0427151 -0.383096 -0.15968
-0.0427151 -0.381458 -0.153568
0.0395511 0.359099 -0.00617317
0.0395511 -0.353948 0.0035412
0.0395511 -0.414066 0.00575364
0.0427151 -0.410219 -0.0448716
0.0395511 -0.423718 0.159111
0.0427151 -0.421855 0.173557
-0.0427151 -0.38801 -0.159033
0.0427151 0.394787 -0.230978
0.0427151 -0.431838 0.195334
-0.0427151 -0.426658 0.203087
-0.0427151 0.437961 0.203181
0.0427151 0.42002 0.199609
0.0395511 -0.407987 0.197576
0.0395511 -0.419602 0.180194
0.0427151 -0.412609 0.192306
0.0395511 0.407712 -0.0263096
0.0395511 0.378084 -0.0162411
0.0395511 0.401815 0.0184885
0.0395511 0.36744 0.0139627
0.0395511 0.378084 0.00274312
0.0395511 0.36007 -0.0135437
0.0395511 0.36007 0.0011974
0.0395511 -0.353948 0.00575364
0.0427151 -0.353948 0.0035412
0.0395511 -0.410219 -0.0407559
0.0427151 -0.353948 -0.0448716
0.0395511 -0.423222 0.166684
0.0427151 -0.419602 0.180194
0.0427151 0.435357 0.208463
0.0427151 0.418035 0.20258
0.0395511 0.42002 0.199609
0.0427151 -0.407987 0.197576
0.0395511 -0.421855 0.173557
0.0427151 -0.416502 0.186479
0.0395511 0.387576 0.0223038
0.0395511 0.36744 -0.0263096
0.0395511 0.401815 -0.0308348
0.0395511 0.394946 0.0213333
0.0395511 0.373338 0.0184885
0.0395511 0.362915 0.00806529
0.0395511 0.362915 -0.0204116
0.0395511 -0.353948 0.0618446
0.0395511 -0.359593 0.0035412
0.0395511 -0.414066 0.0618446
0.0427151 -0.359593 -0.0407559
0.0427151 -0.410219 -0.0407559
0.0427151 -0.426658 0.203087
-0.0427151 -0.42051 0.210098
-0.0427151 0.435357 0.208463
0.0427151 0.415679 0.205267
0.0395511 0.418035 0.20258
0.0395511 -0.402718 0.202197
0.0395511 0.380206 0.0213333
0.0395511 0.373338 -0.0308348
0.0395511 0.394946 -0.0336797
0.0395511 -0.384906 0.0618446
0.0427151 -0.353948 0.0618446
0.0427151 -0.359593 0.0035412
0.0427151 -0.414066 0.00575364
0.0395511 -0.359593 -0.0407559
0.0427151 0.432085 0.213361
0.0427151 0.412992 0.207623
0.0395511 0.415679 0.205267
0.0427151 -0.402718 0.202197
0.0395511 0.380206 -0.0336797
0.0395511 0.387576 -0.0346501
0.0395511 -0.410219 0.0618446
0.0427151 -0.353948 0.00575364
0.0427151 -0.414066 0.0618446
0.0427151 -0.42051 0.210098
-0.0427151 0.432085 0.213361
0.0427151 0.410021 0.209608
0.0395511 -0.396891 0.20609
0.0395511 -0.384906 0.0301798
0.0427151 -0.384906 0.0618446
0.0427151 -0.359593 0.0112194
0.0427151 -0.410219 0.0112194
0.0427151 -0.410219 0.0618446
0.0427151 -0.396891 0.20609
0.0427151 -0.413499 0.216246
-0.0427151 -0.413499 0.216246
0.0427151 0.428201 0.217789
0.0427151 0.406815 0.211189
0.0395511 0.412992 0.207623
0.0395511 -0.410219 0.0112194
0.0427151 -0.384906 0.0301798
0.0427151 -0.381742 0.0586567
0.0427151 -0.359593 0.0586567
0.0427151 -0.390605 0.20919
0.0427151 -0.383969 0.211443
-0.0427151 0.428201 0.217789
0.0427151 0.403431 0.212338
0.0395511 0.410021 0.209608
0.0395511 -0.390605 0.20919
0.0395511 -0.381742 0.0301798
0.0395511 -0.359593 0.0586567
0.0427151 -0.405745 0.221427
0.0427151 -0.377095 0.21281
-0.0427151 -0.405745 0.221427
-0.0427151 0.423772 0.221673
0.0427151 -0.369523 0.213306
0.0427151 0.399927 0.213035
0.0395511 0.406815 0.211189
0.0395511 -0.359593 0.0112194
0.0427151 -0.381742 0.0301798
0.0395511 -0.383969 0.211443
0.0395511 -0.377095 0.21281
0.0427151 0.423772 0.221673
0.0427151 0.395783 0.213306
0.0395511 0.403431 0.212338
0.0395511 -0.381742 0.0586567
0.0427151 -0.397382 0.225551
0.0395511 -0.369523 0.213306
-0.0427151 -0.397382 0.225551
-0.0427151 0.418875 0.224945
0.0395511 0.395783 0.213306
0.0395511 0.399927 0.213035
0.0427151 0.418875 0.224945
0.0427151 -0.388552 0.228549
-0.0427151 0.413592 0.22755
0.0427151 0.413592 0.22755
-0.0427151 -0.388552 0.228549
0.0427151 -0.379406 0.230368
0.0427151 0.408015 0.229443
-0.0427151 0.408015 0.229443
-0.0427151 -0.379406 0.230368
0.0427151 -0.370102 0.230978
0.0427151 0.402239 0.230592
-0.0427151 0.402239 0.230592
-0.0427151 -0.370102 0.230978
0.0427151 0.396361 0.230978
-0.0427151 0.396361 0.230978
3 0 1 2
3 1 0 3
3 4 2 1
3 3 0 6
3 3 7 1
3 8 2 4
3 4 1 7
3 6 0 11
3 7 3 6
3 8 12 2
3 4 7 14
3 11 0 16
3 14 6 11
3 7 6 14
3 18 12 8
3 4 14 21
3 11 16 28
3 14 11 29
3 30 12 18
3 21 14 33
3 30 25 12
3 28 16 37
3 42 11 28
3 29 11 43
3 29 33 14
3 21 33 49
3 54 25 30
3 28 37 56
3 43 11 42
3 42 28 57
3 33 29 58
3 49 33 67
3 54 53 25
3 56 37 76
3 77 28 56
3 57 28 77
3 33 58 78
3 33 78 67
3 49 67 84
3 76 37 70
3 89 53 54
3 79 73 39
3 93 56 76
3 77 56 93
3 67 78 94
3 67 98 84
3 49 84 95
3 76 70 101
3 89 88 53
3 73 79 91
3 93 76 103
3 95 104 81
3 67 94 98
3 84 98 107
3 95 84 108
3 101 70 100
3 103 76 101
3 113 88 89
3 104 95 115
3 84 107 108
3 95 108 115
3 111 118 100
3 101 100 119
3 103 101 120
3 113 112 88
3 105 125 116
3 108 107 122
3 115 108 126
3 118 111 129
3 119 100 118
3 130 101 119
3 120 101 130
3 132 112 113
3 125 105 124
3 108 122 137
3 108 137 126
3 115 126 138
3 119 118 142
3 130 119 143
3 132 131 112
3 115 145 134
3 126 137 151
3 126 151 138
3 115 138 152
3 115 118 141
3 142 118 157
3 143 119 142
3 159 131 132
3 115 161 145
3 134 145 162
3 138 151 168
3 138 168 152
3 115 152 169
3 154 155 128
3 115 174 118
3 115 141 161
3 157 118 175
3 176 142 157
3 143 142 177
3 131 179 158
3 179 131 159
3 134 162 163
3 152 168 189
3 152 190 169
3 115 169 191
3 155 154 196
3 115 191 174
3 175 118 174
3 169 157 175
3 177 142 176
3 176 157 198
3 179 178 158
3 163 162 201
3 166 208 187
3 152 189 190
3 169 190 198
3 169 175 191
3 191 175 174
3 169 198 157
3 178 179 199
3 163 201 202
3 208 166 211
3 202 201 239
3 202 239 240
3 240 239 262
3 262 239 272
3 262 272 282
3 282 272 290
3 282 290 291
3 291 290 305
3 292 307 300
3 307 292 304
3 291 305 306
3 306 305 311
3 311 305 313
3 311 313 316
3 316 313 317
3 316 317 320
3 320 317 321
3 322 321 318
3 320 321 323
3 321 322 323
3 5 0 2
3 0 5 9
3 2 10 5
3 13 8 4
3 9 16 0
3 10 2 12
3 8 13 19
3 4 20 13
3 16 9 24
3 25 10 12
3 19 18 8
3 20 4 21
3 22 34 15
3 15 35 23
3 24 37 16
3 10 25 38
3 26 40 17
3 17 41 27
3 44 30 18
3 18 19 44
3 21 47 20
3 27 50 22
3 34 22 50
3 35 15 34
3 35 36 23
3 37 24 52
3 53 38 25
3 39 55 26
3 40 26 55
3 41 17 40
3 50 27 41
3 30 44 59
3 31 62 45
3 46 63 31
3 47 21 49
3 65 46 32
3 66 32 48
3 36 35 69
3 69 51 36
3 52 70 37
3 38 53 71
3 30 72 54
3 55 39 73
3 72 30 59
3 45 75 61
3 62 31 63
3 75 45 62
3 63 46 68
3 49 81 47
3 46 65 68
3 32 66 65
3 83 48 64
3 48 83 66
3 51 69 85
3 70 52 87
3 88 71 53
3 90 54 72
3 60 92 80
3 61 74 60
3 74 61 75
3 81 49 95
3 97 64 82
3 64 97 83
3 85 86 51
3 87 100 70
3 71 88 102
3 54 90 89
3 92 60 74
3 80 91 79
3 91 80 92
3 106 82 96
3 82 106 97
3 86 85 109
3 109 99 86
3 100 87 111
3 112 102 88
3 114 89 90
3 116 96 105
3 96 116 106
3 99 109 117
3 117 110 99
3 102 112 121
3 89 114 113
3 115 123 104
3 110 117 127
3 131 121 112
3 133 113 114
3 123 115 134
3 127 128 110
3 129 141 118
3 121 131 144
3 113 133 132
3 134 146 123
3 148 124 135
3 124 148 125
3 128 127 154
3 141 129 156
3 158 144 131
3 160 132 133
3 146 134 163
3 164 135 147
3 135 164 148
3 156 161 141
3 144 158 178
3 132 160 159
3 180 145 161
3 181 162 145
3 163 182 146
3 147 184 164
3 196 173 155
3 161 156 180
3 159 199 179
3 199 159 160
3 145 180 181
3 162 181 200
3 182 163 202
3 184 147 183
3 206 165 185
3 173 196 218
3 218 197 173
3 200 201 162
3 202 220 182
3 222 183 203
3 183 222 184
3 223 185 204
3 225 205 165
3 165 206 225
3 185 223 206
3 197 218 224
3 201 200 238
3 220 202 240
3 242 203 221
3 203 242 222
3 243 223 204
3 219 224 205
3 205 225 219
3 224 219 197
3 238 239 201
3 240 252 220
3 254 221 241
3 221 254 242
3 223 243 255
3 239 238 261
3 252 240 262
3 253 254 241
3 264 255 243
3 271 239 261
3 262 273 252
3 263 275 253
3 254 253 275
3 255 264 270
3 239 271 272
3 273 262 282
3 274 284 263
3 275 263 284
3 285 270 264
3 270 285 280
3 288 272 271
3 291 273 282
3 283 294 274
3 284 274 294
3 297 280 285
3 280 297 281
3 272 288 290
3 281 298 289
3 273 291 299
3 293 301 283
3 294 283 301
3 298 281 297
3 303 290 288
3 304 289 298
3 289 304 292
3 306 299 291
3 300 308 293
3 301 293 308
3 290 303 305
3 299 306 309
3 308 300 307
3 310 305 303
3 311 309 306
3 305 310 313
3 309 311 312
3 314 313 310
3 316 312 311
3 313 314 317
3 312 316 315
3 318 317 314
3 320 315 316
3 317 318 321
3 315 320 319
3 323 319 320
3 319 323 322
3 2 1 0
3 3 0 1
3 1 2 4
3 6 0 3
3 1 7 3
3 4 2 8
3 7 1 4
3 11 0 6
3 6 3 7
3 2 12 8
3 14 7 4
3 9 15 5
3 5 17 10
3 16 0 11
3 11 6 14
3 14 6 7
3 8 12 18
3 21 14 4
3 15 22 5
3 23 15 9
3 17 26 10
3 27 17 5
3 28 16 11
3 29 11 14
3 18 12 30
3 13 19 31
3 20 13 32
3 33 14 21
3 22 27 5
3 36 23 9
3 24 36 9
3 12 25 30
3 26 39 10
3 37 16 28
3 28 11 42
3 43 11 29
3 14 33 29
3 31 19 45
3 46 13 31
3 32 13 46
3 48 20 32
3 49 33 21
3 51 36 24
3 10 39 38
3 30 25 54
3 56 37 28
3 42 11 43
3 57 28 42
3 29 58 43
3 58 29 33
3 19 44 60
3 45 19 61
3 47 20 64
3 64 20 48
3 67 33 49
3 34 68 50
3 35 65 34
3 52 51 24
3 25 53 54
3 39 59 38
3 40 74 55
3 41 75 40
3 50 62 41
3 76 37 56
3 56 28 77
3 42 43 58
3 77 28 57
3 57 42 78
3 78 58 33
3 44 59 79
3 60 44 80
3 61 19 60
3 82 47 64
3 67 78 33
3 84 67 49
3 68 63 50
3 65 68 34
3 66 65 35
3 69 66 35
3 86 51 52
3 70 37 76
3 38 72 71
3 54 53 89
3 59 72 38
3 39 79 59
3 39 73 79
3 73 55 91
3 74 92 55
3 75 74 40
3 62 75 41
3 63 62 50
3 76 56 93
3 93 56 77
3 78 42 58
3 77 57 94
3 94 57 78
3 80 44 79
3 81 47 96
3 96 47 82
3 83 66 69
3 94 78 67
3 84 98 67
3 95 84 49
3 85 97 69
3 99 86 52
3 87 99 52
3 101 70 76
3 53 88 89
3 72 90 71
3 91 79 73
3 92 91 55
3 103 76 93
3 93 77 98
3 98 77 94
3 81 104 95
3 105 81 96
3 97 83 69
3 98 94 67
3 107 98 84
3 108 84 95
3 106 97 85
3 110 99 87
3 100 70 101
3 101 76 103
3 71 90 102
3 89 88 113
3 103 93 107
3 107 93 98
3 115 95 104
3 104 81 105
3 108 107 84
3 115 108 95
3 109 106 85
3 111 110 87
3 100 118 111
3 119 100 101
3 120 101 103
3 88 112 113
3 90 114 102
3 122 103 107
3 124 104 105
3 116 125 105
3 116 106 109
3 122 107 108
3 126 108 115
3 117 116 109
3 128 110 111
3 129 111 118
3 118 100 119
3 119 101 130
3 130 101 120
3 120 103 122
3 102 114 121
3 113 112 132
3 123 104 135
3 135 104 124
3 124 105 125
3 125 116 136
3 137 122 108
3 126 137 108
3 138 126 115
3 139 116 117
3 127 140 117
3 129 128 111
3 142 118 119
3 143 119 130
3 130 120 137
3 137 120 122
3 112 131 132
3 114 133 121
3 134 145 115
3 147 123 135
3 136 116 149
3 150 125 136
3 151 137 126
3 138 151 126
3 152 138 115
3 153 116 139
3 140 139 117
3 154 140 127
3 155 128 129
3 141 118 115
3 157 118 142
3 142 119 143
3 143 130 151
3 151 130 137
3 121 133 144
3 132 131 159
3 145 161 115
3 162 145 134
3 146 123 147
3 148 125 165
3 153 149 116
3 136 149 166
3 167 125 150
3 150 136 166
3 168 151 138
3 152 168 138
3 169 152 115
3 153 139 170
3 171 139 140
3 140 154 172
3 128 155 154
3 173 155 129
3 156 173 129
3 118 174 115
3 161 141 115
3 175 118 157
3 157 142 176
3 177 142 143
3 168 143 151
3 158 179 131
3 133 160 144
3 159 131 179
3 163 162 134
3 183 146 147
3 164 148 185
3 125 171 165
3 185 148 165
3 186 149 153
3 166 149 187
3 188 125 167
3 167 150 166
3 189 168 152
3 169 190 152
3 191 169 115
3 171 170 139
3 170 192 153
3 193 171 140
3 172 154 194
3 172 195 140
3 196 154 155
3 197 173 156
3 174 191 115
3 174 118 175
3 175 157 169
3 176 142 177
3 198 157 176
3 177 143 168
3 158 178 179
3 144 160 178
3 201 162 163
3 182 146 203
3 203 146 183
3 184 164 204
3 204 164 185
3 165 171 205
3 171 125 170
3 186 187 149
3 207 186 153
3 187 208 166
3 209 125 188
3 188 167 210
3 211 167 166
3 189 177 168
3 190 189 152
3 198 190 169
3 191 175 169
3 212 153 192
3 213 192 170
3 214 171 193
3 193 140 215
3 196 194 154
3 216 172 194
3 217 140 195
3 172 216 195
3 180 197 156
3 174 175 191
3 157 198 169
3 176 177 189
3 198 176 190
3 199 179 178
3 199 178 160
3 181 219 180
3 200 206 181
3 202 201 163
3 221 182 203
3 222 184 204
3 205 171 224
3 170 125 226
3 187 186 208
3 186 207 227
3 228 207 153
3 211 166 208
3 229 125 209
3 209 188 230
3 210 167 231
3 230 188 210
3 231 167 211
3 190 176 189
3 232 153 212
3 192 211 212
3 213 211 192
3 231 213 170
3 233 171 214
3 234 214 193
3 217 215 140
3 193 215 234
3 235 194 196
3 234 216 194
3 195 236 217
3 237 195 216
3 218 171 196
3 219 197 180
3 225 219 181
3 206 225 181
3 223 206 200
3 239 201 202
3 220 182 241
3 241 182 221
3 243 222 204
3 224 171 218
3 226 125 229
3 226 244 170
3 208 186 232
3 227 207 245
3 232 186 227
3 207 228 245
3 246 228 153
3 211 208 212
3 229 209 230
3 210 231 170
3 230 210 170
3 231 211 213
3 227 153 232
3 212 208 232
3 247 171 233
3 233 214 248
3 214 234 194
3 215 217 236
3 249 234 215
3 194 235 250
3 196 171 235
3 251 216 234
3 236 195 237
3 237 216 236
3 238 223 200
3 240 239 202
3 253 220 241
3 242 222 243
3 226 229 244
3 244 230 170
3 245 153 227
3 245 228 256
3 228 246 256
3 257 246 153
3 244 229 230
3 258 171 247
3 233 248 247
3 259 248 214
3 194 250 214
3 249 215 236
3 249 236 234
3 260 250 235
3 235 171 258
3 251 236 216
3 251 234 236
3 255 223 238
3 262 239 240
3 252 220 263
3 263 220 253
3 254 242 264
3 264 242 243
3 256 153 245
3 257 256 246
3 257 153 256
3 247 265 258
3 266 247 248
3 248 259 267
3 259 214 250
3 260 268 250
3 260 235 269
3 258 269 235
3 270 255 238
3 261 270 238
3 272 239 262
3 274 252 263
3 275 254 264
3 258 265 276
3 265 247 277
3 266 277 247
3 248 278 266
3 250 267 259
3 279 248 267
3 267 250 268
3 269 268 260
3 258 276 269
3 280 270 261
3 271 281 261
3 282 272 262
3 273 252 271
3 283 252 274
3 285 275 264
3 286 276 265
3 265 277 286
3 266 278 277
3 278 248 279
3 279 267 287
3 268 276 267
3 268 269 276
3 281 280 261
3 289 281 271
3 290 272 282
3 252 292 271
3 288 273 271
3 293 252 283
3 284 275 285
3 276 286 295
3 296 286 277
3 296 277 278
3 279 287 278
3 295 287 267
3 295 267 276
3 292 289 271
3 291 290 282
3 292 252 300
3 299 273 288
3 300 252 293
3 294 284 297
3 297 284 285
3 287 295 286
3 296 278 286
3 302 278 287
3 305 290 291
3 300 307 292
3 303 299 288
3 301 294 297
3 302 287 286
3 302 286 278
3 298 301 297
3 304 308 298
3 304 292 307
3 306 305 291
3 309 299 303
3 308 301 298
3 307 308 304
3 311 305 306
3 312 309 303
3 310 312 303
3 313 305 311
3 315 312 310
3 316 313 311
3 314 315 310
3 317 313 316
3 319 315 314
3 320 317 316
3 318 319 314
3 321 317 320
3 318 321 322
3 322 319 318
3 323 321 320
3 323 322 321
3 2 0 5
3 9 5 0
3 5 10 2
3 4 8 13
3 0 16 9
3 12 2 10
3 19 13 8
3 13 20 4
3 24 9 16
3 12 10 25
3 8 18 19
3 21 4 20
3 15 34 22
3 23 35 15
3 16 37 24
3 38 25 10
3 17 40 26
3 27 41 17
3 18 30 44
3 44 19 18
3 20 47 21
3 22 50 27
3 50 22 34
3 34 15 35
3 23 36 35
3 52 24 37
3 25 38 53
3 26 55 39
3 55 26 40
3 40 17 41
3 41 27 50
3 59 44 30
3 45 62 31
3 31 63 46
3 49 21 47
3 32 46 65
3 48 32 66
3 69 35 36
3 36 51 69
3 37 70 52
3 71 53 38
3 54 72 30
3 73 39 55
3 59 30 72
3 61 75 45
3 63 31 62
3 62 45 75
3 68 46 63
3 47 81 49
3 68 65 46
3 65 66 32
3 64 48 83
3 66 83 48
3 85 69 51
3 87 52 70
3 53 71 88
3 72 54 90
3 80 92 60
3 60 74 61
3 75 61 74
3 95 49 81
3 82 64 97
3 83 97 64
3 51 86 85
3 70 100 87
3 102 88 71
3 89 90 54
3 74 60 92
3 79 91 80
3 92 80 91
3 96 82 106
3 97 106 82
3 109 85 86
3 86 99 109
3 111 87 100
3 88 102 112
3 90 89 114
3 105 96 116
3 106 116 96
3 117 109 99
3 99 110 117
3 121 112 102
3 113 114 89
3 104 123 115
3 127 117 110
3 112 121 131
3 114 113 133
3 134 115 123
3 110 128 127
3 118 141 129
3 144 131 121
3 132 133 113
3 123 146 134
3 135 124 148
3 125 148 124
3 154 127 128
3 156 129 141
3 131 144 158
3 133 132 160
3 163 134 146
3 147 135 164
3 148 164 135
3 141 161 156
3 178 158 144
3 159 160 132
3 161 145 180
3 145 162 181
3 146 182 163
3 164 184 147
3 155 173 196
3 180 156 161
3 179 199 159
3 160 159 199
3 181 180 145
3 200 181 162
3 202 163 182
3 183 147 184
3 185 165 206
3 218 196 173
3 173 197 218
3 162 201 200
3 182 220 202
3 203 183 222
3 184 222 183
3 204 185 223
3 165 205 225
3 225 206 165
3 206 223 185
3 224 218 197
3 238 200 201
3 240 202 220
3 221 203 242
3 222 242 203
3 204 223 243
3 205 224 219
3 219 225 205
3 197 219 224
3 201 239 238
3 220 252 240
3 241 221 254
3 242 254 221
3 255 243 223
3 261 238 239
3 262 240 252
3 241 254 253
3 243 255 264
3 261 239 271
3 252 273 262
3 253 275 263
3 275 253 254
3 270 264 255
3 272 271 239
3 282 262 273
3 263 284 274
3 284 263 275
3 264 270 285
3 280 285 270
3 271 272 288
3 282 273 291
3 274 294 283
3 294 274 284
3 285 280 297
3 281 297 280
3 290 288 272
3 289 298 281
3 299 291 273
3 283 301 293
3 301 283 294
3 297 281 298
3 288 290 303
3 298 289 304
3 292 304 289
3 291 299 306
3 293 308 300
3 308 293 301
3 305 303 290
3 309 306 299
3 307 300 308
3 303 305 310
3 306 309 311
3 313 310 305
3 312 311 309
3 310 313 314
3 311 312 316
3 317 314 313
3 315 316 312
3 314 317 318
3 316 315 320
3 321 318 317
3 319 320 315
3 320 319 323
3 322 323 319
3 5 15 9
3 10 17 5
3 5 22 15
3 9 15 23
3 10 26 17
3 5 17 27
3 31 19 13
3 32 13 20
3 5 27 22
3 9 23 36
3 9 36 24
3 10 39 26
3 45 19 31
3 31 13 46
3 46 13 32
3 32 20 48
3 24 36 51
3 38 39 10
3 60 44 19
3 61 19 45
3 64 20 47
3 48 20 64
3 24 51 52
3 38 59 39
3 79 59 44
3 80 44 60
3 60 19 61
3 64 47 82
3 52 51 86
3 71 72 38
3 38 72 59
3 59 79 39
3 79 44 80
3 96 47 81
3 82 47 96
3 52 86 99
3 52 99 87
3 71 90 72
3 96 81 105
3 87 99 110
3 102 90 71
3 105 81 104
3 87 110 111
3 102 114 90
3 105 104 124
3 111 110 128
3 121 114 102
3 135 104 123
3 124 104 135
3 111 128 129
3 121 133 114
3 135 123 147
3 129 128 155
3 144 133 121
3 147 123 146
3 129 155 173
3 129 173 156
3 144 160 133
3 147 146 183
3 156 173 197
3 178 160 144
3 203 146 182
3 183 146 203
3 156 197 180
3 160 178 199
3 180 219 181
3 181 206 200
3 203 182 221
3 180 197 219
3 181 219 225
3 181 225 206
3 200 206 223
3 241 182 220
3 221 182 241
3 200 223 238
3 241 220 253
3 238 223 255
3 263 220 252
3 253 220 263
3 238 255 270
3 238 270 261
3 263 252 274
3 261 270 280
3 261 281 271
3 271 252 273
3 274 252 283
3 261 280 281
3 271 281 289
3 271 292 252
3 271 273 288
3 283 252 293
3 271 289 292
3 300 252 292
3 288 273 299
3 293 252 300
3 288 299 303
3 303 299 309
3 303 309 312
3 303 312 310
3 310 312 315
3 310 315 314
3 314 315 319
3 314 319 318
3 318 319 322
3 43 58 29
3 58 43 42
3 78 42 57
3 58 42 78
3 94 57 77
3 78 57 94
3 98 77 93
3 94 77 98
3 107 93 103
3 98 93 107
3 107 103 122
3 122 103 120
3 137 120 130
3 122 120 137
3 151 130 143
3 137 130 151
3 170 139 153
3 151 143 168
3 139 170 171
3 168 143 177
3 168 177 189
3 189 177 176
3 190 176 198
3 189 176 190
3 50 68 34
3 34 65 35
3 55 74 40
3 40 75 41
3 41 62 50
3 50 63 68
3 34 68 65
3 35 65 66
3 35 66 69
3 91 55 73
3 55 92 74
3 40 74 75
3 41 75 62
3 50 62 63
3 69 66 83
3 69 97 85
3 55 91 92
3 69 83 97
3 85 97 106
3 85 106 109
3 109 106 116
3 109 116 117
3 136 116 125
3 117 116 139
3 117 140 127
3 149 116 136
3 136 125 150
3 139 116 153
3 117 139 140
3 127 140 154
3 165 125 148
3 116 149 153
3 150 125 167
3 140 139 171
3 172 154 140
3 185 148 164
3 165 171 125
3 165 148 185
3 153 149 186
3 167 125 188
3 153 192 170
3 140 171 193
3 194 154 172
3 204 164 184
3 185 164 204
3 205 171 165
3 170 125 171
3 153 186 207
3 188 125 209
3 192 153 212
3 170 192 213
3 193 171 214
3 154 194 196
3 194 172 216
3 204 184 222
3 224 171 205
3 226 125 170
3 153 207 228
3 209 125 229
3 212 153 232
3 170 213 231
3 214 171 233
3 193 214 234
3 196 194 235
3 194 216 234
3 196 171 218
3 204 222 243
3 218 171 224
3 229 125 226
3 170 244 226
3 153 228 246
3 170 231 210
3 170 210 230
3 232 153 227
3 233 171 247
3 194 234 214
3 235 171 196
3 234 216 251
3 243 222 242
3 170 230 244
3 227 153 245
3 153 246 257
3 247 171 258
3 258 171 235
3 264 242 254
3 243 242 264
3 245 153 256
3 256 153 257
3 258 265 247
3 264 254 275
3 276 265 258
3 264 275 285
3 265 276 286
3 285 275 284
3 295 286 276
3 297 284 294
3 285 284 297
3 286 295 287
3 297 294 301
3 286 287 302
3 297 301 298
3 298 308 304
3 298 301 308
3 304 308 307
3 166 149 136
3 166 136 150
3 187 149 166
3 166 150 167
3 149 187 186
3 210 167 188
3 166 167 211
3 208 186 187
3 227 207 186
3 230 188 209
3 231 167 210
3 210 188 230
3 211 167 231
3 212 211 192
3 192 211 213
3 232 186 208
3 245 207 227
3 227 186 232
3 245 228 207
3 212 208 211
3 230 209 229
3 213 211 231
3 232 208 212
3 244 229 226
3 256 228 245
3 256 246 228
3 230 229 244
3 246 256 257
3 140 195 172
3 215 140 193
3 195 140 217
3 195 216 172
3 140 215 217
3 234 215 193
3 217 236 195
3 216 195 237
3 248 214 233
3 236 217 215
3 215 234 249
3 250 235 194
3 237 195 236
3 236 216 237
3 247 248 233
3 214 248 259
3 214 250 194
3 236 215 249
3 234 236 249
3 235 250 260
3 216 236 251
3 236 234 251
3 248 247 266
3 267 259 248
3 250 214 259
3 250 268 260
3 269 235 260
3 235 269 258
3 277 247 265
3 247 277 266
3 266 278 248
3 259 267 250
3 267 248 279
3 268 250 267
3 260 268 269
3 269 276 258
3 286 277 265
3 277 278 266
3 279 248 278
3 287 267 279
3 267 276 268
3 276 269 268
3 277 286 296
3 278 277 296
3 278 287 279
3 267 287 295
3 276 267 295
3 286 278 296
3 287 278 302
3 278 286 302
