ply
format ascii 1.0
comment Generated by PyMesh
element vertex 38
property double x
property double y
property double z
element face 140
property list uchar int vertex_indices
end_header
0.0306732 -0.421409 -0.267346
-0.0306732 -0.421409 0.267346
-0.0306732 -0.421409 -0.267346
0.0306732 -0.421409 0.267346
-0.0306732 0.421409 -0.267346
0.0306732 -0.407016 0.00829008
0.0306732 0.421409 0.267346
-0.0306732 0.421409 0.267346
0.0306732 0.421409 -0.267346
0.0306732 -0.406018 0.0158676
0.0306732 -0.406018 0.00071183
0.0306732 -0.334937 0.240586
0.0306732 0.262495 -0.233456
0.0306732 -0.39844 -0.0124136
0.0306732 -0.403093 -0.00634918
0.0306732 0.262495 0.240586
0.0306732 -0.334937 -0.233456
0.0306732 -0.403093 0.0229293
0.0306732 -0.377737 -0.0209892
0.0306732 -0.39844 0.0289931
0.0306732 -0.392377 -0.0170666
0.0306732 -0.348458 0.00829008
0.0306732 0.376126 0.240586
0.0306732 -0.385315 -0.0199912
0.0306732 -0.370159 -0.0199912
0.0306732 -0.392377 0.033646
0.0306732 -0.357034 0.0289931
0.0306732 -0.357034 -0.0124136
0.0306732 -0.349455 0.0158676
0.0306732 -0.349455 0.00071183
0.0306732 0.376126 -0.233456
0.0306732 -0.363097 -0.0170666
0.0306732 -0.363097 0.033646
0.0306732 -0.385315 0.0365713
0.0306732 -0.352381 0.0229293
0.0306732 -0.352381 -0.00634918
0.0306732 -0.370159 0.0365713
0.0306732 -0.377737 0.0375686
3 0 1 2
3 1 0 3
3 1 4 2
3 4 0 2
3 6 1 3
3 4 1 7
3 0 4 8
3 1 6 7
3 16 15 11
3 15 16 12
3 13 26 19
3 26 13 27
3 2 1 0
3 3 0 1
3 2 4 1
3 2 0 4
3 0 3 5
3 3 1 6
3 7 1 4
3 8 4 0
3 5 3 9
3 10 0 5
3 7 6 1
3 6 11 3
3 7 4 6
3 8 6 4
3 0 12 8
3 9 3 11
3 13 9 5
3 5 9 13
3 14 0 10
3 13 5 10
3 10 5 13
3 11 6 15
3 8 15 6
3 12 15 8
3 12 0 16
3 17 9 11
3 13 17 9
3 9 17 13
3 13 0 14
3 13 10 14
3 14 10 13
3 11 15 16
3 12 16 15
3 16 0 18
3 19 17 11
3 17 13 19
3 19 13 17
3 20 0 13
3 16 21 11
3 18 0 23
3 18 24 16
3 25 19 11
3 19 26 13
3 23 0 20
3 20 27 13
3 13 27 20
3 28 11 21
3 29 21 16
3 24 23 18
3 18 23 24
3 24 31 16
3 32 25 19
3 19 25 32
3 33 25 11
3 27 13 26
3 32 19 26
3 26 19 32
3 31 20 23
3 23 20 31
3 27 20 31
3 31 20 27
3 34 11 28
3 28 27 21
3 21 27 28
3 21 27 29
3 29 27 21
3 35 29 16
3 31 23 24
3 24 23 31
3 31 27 16
3 36 25 32
3 32 25 36
3 36 33 25
3 25 33 36
3 37 33 11
3 27 34 26
3 26 34 27
3 32 11 26
3 26 11 34
3 34 27 28
3 28 27 34
3 29 27 35
3 35 27 29
3 27 35 16
3 36 11 32
3 33 36 37
3 37 36 33
3 37 11 36
3 5 3 0
3 9 3 5
3 5 0 10
3 3 11 6
3 8 12 0
3 11 3 9
3 10 0 14
3 15 6 11
3 6 15 8
3 8 15 12
3 16 0 12
3 11 9 17
3 14 0 13
3 18 0 16
3 11 17 19
3 13 0 20
3 11 21 16
3 23 0 18
3 16 24 18
3 11 19 25
3 20 0 23
3 21 11 28
3 16 21 29
3 16 31 24
3 11 25 33
3 28 11 34
3 16 29 35
3 16 27 31
3 11 33 37
3 26 11 32
3 34 11 26
3 16 35 27
3 32 11 36
3 36 11 37
3 6 4 7
3 4 6 8
3 11 16 22
3 11 22 16
3 30 22 16
3 30 16 22
