ply
format ascii 1.0
comment Generated by PyMesh
element vertex 26
property double x
property double y
property double z
element face 100
property list uchar int vertex_indices
end_header
-0.0158985 0.182589 0.293208
-0.00443379 -0.143639 0.293208
-0.00443379 0.190887 0.293208
-0.0158985 -0.132058 0.293208
-0.00443379 0.250136 0.432642
-0.00443379 -0.143639 -0.291488
-0.00443379 0.190887 -0.291488
-0.0158985 -0.132058 -0.291488
-0.00443379 -0.250136 0.432505
-0.00443379 -0.250136 -0.432642
-0.0158985 0.182589 -0.291488
-0.00443379 -0.250136 0.432642
-0.00443379 0.250136 -0.432642
0.0158985 -0.250136 0.432642
0.0158985 -0.250136 0.432505
0.0158985 0.250136 -0.432642
0.0158985 0.250136 0.432642
0.0158985 -0.250136 -0.432642
0.0158985 -0.235996 -0.418502
0.0158985 -0.235996 0.418503
0.0158985 0.235996 0.418503
0.0158985 0.235996 -0.418502
0.0145194 -0.235996 0.418503
0.0145194 0.235996 -0.418502
0.0145194 -0.235996 -0.418502
0.0145194 0.235996 0.418503
3 0 1 2
3 1 0 3
3 2 4 1
3 2 5 1
3 1 5 2
3 2 0 6
3 3 7 0
3 1 5 3
3 1 4 8
3 6 4 2
3 5 2 6
3 6 2 5
3 1 9 5
3 10 6 0
3 10 0 7
3 7 3 5
3 11 8 4
3 9 1 8
3 4 6 12
3 6 5 12
3 12 5 9
3 8 13 11
3 13 4 11
3 9 14 8
3 4 15 12
3 13 8 14
3 4 13 16
3 14 9 17
3 15 4 16
3 2 1 0
3 3 0 1
3 5 6 7
3 10 7 6
3 11 13 8
3 11 4 13
3 8 14 9
3 12 15 4
3 12 9 15
3 14 8 13
3 16 13 4
3 17 9 14
3 16 4 15
3 17 15 9
3 13 18 14
3 16 19 13
3 14 18 17
3 15 20 16
3 15 17 18
3 18 13 19
3 20 19 16
3 20 15 21
3 21 15 18
3 19 22 18
3 19 20 22
3 21 23 20
3 21 18 23
3 24 18 22
3 25 22 20
3 25 20 23
3 24 23 18
3 24 22 23
3 25 23 22
3 1 4 2
3 6 0 2
3 0 7 3
3 3 5 1
3 8 4 1
3 2 4 6
3 5 9 1
3 0 6 10
3 7 0 10
3 5 3 7
3 4 8 11
3 8 1 9
3 12 6 4
3 12 5 6
3 9 5 12
3 7 6 5
3 6 7 10
3 15 9 12
3 9 15 17
3 14 18 13
3 13 19 16
3 17 18 14
3 16 20 15
3 18 17 15
3 19 13 18
3 16 19 20
3 21 15 20
3 18 15 21
3 18 22 19
3 22 20 19
3 20 23 21
3 23 18 21
3 22 18 24
3 20 22 25
3 23 20 25
3 18 23 24
3 23 22 24
3 22 23 25
