ply
format ascii 1.0
comment Generated by PyMesh
element vertex 54
property double x
property double y
property double z
element face 216
property list uchar int vertex_indices
end_header
0.00395589 -0.308731 0.0498763
-0.118125 -0.308731 -0.0544013
0.00395589 -0.308731 -0.0544013
-0.118125 -0.308731 0.0498763
-0.00395536 -0.308731 -0.168571
-0.016391 -0.288384 -0.0544013
0.00395589 -0.288384 -0.0544013
0.118125 -0.308731 0.164046
-0.016391 -0.288384 0.0498763
-0.118125 -0.288384 0.0498763
0.118125 -0.308731 -0.168571
-0.00395536 -0.288384 -0.168571
-0.118125 -0.288384 -0.0544013
0.00395589 -0.288384 0.0498763
0.118125 -0.288384 -0.168571
-0.00395536 -0.308731 0.164046
0.118125 -0.288384 0.164046
-0.0977779 -0.18665 -0.0544013
-0.0977779 -0.18665 0.0498763
-0.00395536 -0.288384 0.164046
-0.118125 -0.18665 -0.0544013
-0.118125 -0.18665 0.0498763
-0.0977779 0.0575106 -0.0544013
-0.0977779 0.0575106 0.0498763
-0.118125 0.0778574 -0.0544013
-0.118125 0.0778574 0.0498763
-0.0469113 0.0778574 -0.0544013
-0.0469113 0.0575106 -0.0544013
-0.0469113 0.0778574 0.0498763
-0.0469113 0.0575106 0.0498763
0.0522799 -0.179591 0.375143
0.0522799 -0.169418 0.364969
0.0522799 0.308731 0.375143
0.0522799 -0.179591 -0.375143
0.0522799 0.298557 0.364969
0.0014132 -0.179591 0.375143
0.0522799 -0.169418 -0.36497
0.0522799 0.308731 -0.375143
0.0471934 0.298557 0.364969
0.0014132 0.308731 0.375143
0.0014132 -0.179591 -0.375143
0.0522799 0.298557 -0.36497
0.0471934 -0.169418 0.364969
0.0014132 0.308731 -0.375143
0.0014132 0.298557 0.364969
-0.0494535 0.18665 0.253062
0.0014132 -0.169418 0.364969
-0.0494535 -0.0575111 0.253062
0.0471934 0.298557 -0.36497
0.0471934 -0.169418 -0.36497
0.0014132 -0.169418 -0.36497
-0.0494535 -0.0575111 -0.253062
0.0014132 0.298557 -0.36497
-0.0494535 0.18665 -0.253062
3 0 1 2
3 1 0 3
3 4 2 1
3 7 3 0
3 9 1 3
3 2 4 10
3 1 11 4
3 2 14 6
3 3 7 15
3 0 16 7
3 1 9 12
3 15 9 3
3 4 14 10
3 14 2 10
3 11 1 12
3 14 4 11
3 9 5 12
3 6 12 5
3 16 0 13
3 14 12 6
3 7 19 15
3 19 7 16
3 5 9 8
3 19 8 9
3 8 19 13
3 9 15 19
3 12 14 11
3 5 8 20
3 13 19 16
3 21 20 8
3 20 21 24
3 25 24 21
3 25 28 24
3 26 24 28
3 2 1 0
3 3 0 1
3 1 2 4
3 1 5 2
3 2 5 1
3 6 0 2
3 2 0 6
3 0 3 7
3 3 8 0
3 0 8 3
3 3 1 9
3 10 4 2
3 4 11 1
3 5 1 12
3 12 1 5
3 2 5 6
3 6 5 2
3 0 6 13
3 13 6 0
3 6 14 2
3 15 7 3
3 7 16 0
3 8 3 9
3 9 3 8
3 0 8 13
3 13 8 0
3 12 9 1
3 3 9 15
3 10 14 4
3 10 2 14
3 12 1 11
3 11 4 14
3 12 5 9
3 5 12 6
3 8 6 5
3 5 6 8
3 5 17 6
3 6 17 5
3 6 8 13
3 13 8 6
3 18 6 13
3 13 6 18
3 13 0 16
3 6 12 14
3 15 19 7
3 16 7 19
3 8 9 5
3 9 8 19
3 13 19 8
3 8 18 13
3 13 18 8
3 19 15 9
3 11 14 12
3 20 8 5
3 20 17 5
3 5 17 20
3 6 18 17
3 17 18 6
3 16 19 13
3 21 18 8
3 8 18 21
3 8 20 21
3 17 20 22
3 22 20 17
3 23 17 18
3 18 17 23
3 18 21 23
3 23 21 18
3 24 21 20
3 24 22 20
3 20 22 24
3 17 23 22
3 22 23 17
3 25 23 21
3 21 23 25
3 21 24 25
3 22 24 26
3 26 24 22
3 23 27 22
3 22 27 23
3 23 25 28
3 28 25 23
3 24 28 25
3 28 24 26
3 22 26 27
3 27 26 22
3 27 23 29
3 29 23 27
3 23 28 29
3 29 28 23
3 27 28 26
3 26 28 27
3 28 27 29
3 29 27 28
3 30 31 32
3 31 30 33
3 34 32 31
3 32 35 30
3 35 33 30
3 31 33 36
3 32 34 37
3 35 32 39
3 33 35 40
3 36 33 41
3 37 34 41
3 43 32 37
3 32 43 39
3 45 35 39
3 47 40 35
3 40 37 33
3 37 41 33
3 37 40 43
3 43 45 39
3 35 45 47
3 40 47 51
3 51 43 40
3 45 43 53
3 53 47 45
3 47 53 51
3 43 51 53
3 32 31 30
3 33 30 31
3 31 32 34
3 30 35 32
3 30 33 35
3 36 33 31
3 37 34 32
3 31 38 34
3 34 38 31
3 39 32 35
3 40 35 33
3 41 33 36
3 36 42 31
3 31 42 36
3 41 34 37
3 37 32 43
3 38 31 42
3 42 31 38
3 38 41 34
3 34 41 38
3 39 43 32
3 35 44 39
3 39 35 45
3 40 46 35
3 35 40 47
3 33 37 40
3 33 41 37
3 48 36 41
3 41 36 48
3 42 36 49
3 49 36 42
3 43 40 37
3 41 38 48
3 48 38 41
3 43 39 44
3 39 45 43
3 44 35 46
3 47 45 35
3 50 46 40
3 51 47 40
3 36 48 49
3 49 48 36
3 43 50 40
3 40 43 51
3 52 43 44
3 53 43 45
3 45 47 53
3 51 53 47
3 50 43 52
3 53 51 43
3 39 44 35
3 35 46 40
3 48 42 38
3 44 39 43
3 46 35 44
3 40 46 50
3 42 48 49
3 40 50 43
3 44 43 52
3 52 43 50
3 38 42 48
3 49 48 42
