ply
format ascii 1.0
comment Generated by PyMesh
element vertex 513
property double x
property double y
property double z
element face 2008
property list uchar int vertex_indices
end_header
-0.0619272 0.120929 -0.410053
-0.0565232 0.110056 -0.410058
-0.0592249 0.115489 -0.410229
-0.0538327 0.104634 -0.40954
-0.0473393 0.116219 -0.410058
-0.0500359 0.121659 -0.410229
-0.0646177 0.126351 -0.409535
-0.0446493 0.110804 -0.40954
-0.0527377 0.127098 -0.410058
-0.05116 0.0992473 -0.408681
-0.0419705 0.105411 -0.408681
-0.0554282 0.13252 -0.40954
-0.0672903 0.131737 -0.408675
-0.0485053 0.0939082 -0.40748
-0.0508424 0.0985997 -0.41249
-0.0581064 0.137907 -0.408675
-0.0481871 0.0932606 -0.411288
-0.0699395 0.137077 -0.407468
-0.0416529 0.104769 -0.412495
-0.0393214 0.100077 -0.40748
-0.0458914 0.0886334 -0.405938
-0.0390037 0.0994296 -0.411295
-0.0607556 0.143246 -0.407474
-0.0367019 0.094803 -0.405943
-0.072559 0.142351 -0.405926
-0.0433127 0.0834408 -0.404065
-0.0341232 0.0896104 -0.404071
-0.0633695 0.148515 -0.405931
-0.0751377 0.147544 -0.404053
-0.0659481 0.153707 -0.40406
-0.0502535 0.0939904 0.358
-0.0647469 0.0985057 0.358
-0.059443 0.0878208 0.358
-0.0555574 0.104669 0.358
-0.0555574 0.104675 0.338262
-0.0502473 0.0939904 0.375266
-0.0647413 0.0985057 0.375272
-0.0502535 0.093996 0.338262
-0.0555518 0.104675 0.375272
-0.0498475 0.0931839 0.375266
-0.059037 0.0870144 0.375272
-0.0647469 0.0985113 0.338267
-0.0498592 0.0931895 0.338262
-0.0590426 0.0870205 0.338262
0.133553 -0.20958 0.388524
0.133671 -0.209815 0.385498
0.133553 -0.20958 0.381289
0.120255 -0.182788 0.381294
0.133512 -0.209486 0.389701
0.120072 -0.182777 -0.373201
-0.0776805 0.215855 0.381365
0.133371 -0.209562 -0.373206
-0.0935458 0.247821 0.412301
0.0614507 -0.222266 0.381312
-0.0778629 0.215867 -0.37313
-0.0802531 0.221036 0.381365
0.120637 -0.218192 0.07806
0.13307 -0.208603 0.393799
0.133371 -0.209562 -0.380441
0.0612678 -0.222254 -0.373183
-0.0804354 0.221053 -0.373124
0.0747076 -0.248957 0.389719
-0.0935575 0.247821 0.379128
0.13237 -0.207178 0.39769
0.133489 -0.209797 -0.377416
0.0143315 -0.127587 -0.102079
-0.133424 0.185343 0.381383
0.104077 -0.229306 0.0780661
0.133324 -0.209474 -0.381619
-0.107692 0.238325 0.412301
0.0742719 -0.248074 0.393816
0.131416 -0.205259 0.401281
-0.126754 0.156433 -0.373112
0.014379 -0.127587 0.110244
0.0745253 -0.248945 -0.381601
-0.126571 0.156421 0.381377
-0.093746 0.247839 -0.404053
-0.133606 0.185355 -0.373112
0.104042 -0.229306 -0.069966
0.0934692 -0.207943 0.0780717
0.120602 -0.218192 -0.0699716
-0.107698 0.238325 0.379128
-0.113302 0.233969 0.412307
-0.126565 0.156421 0.412307
0.0735656 -0.246655 0.397707
0.130233 -0.20288 0.404483
0.132882 -0.208585 -0.385716
-0.0796821 0.0617594 -0.102044
-0.0796351 0.0617538 0.110279
0.0290313 -0.117715 -0.102085
-0.0965718 0.245796 0.375078
0.123681 -0.190065 -0.404024
0.0934339 -0.207937 -0.0699599
0.11003 -0.196829 0.0780661
0.109994 -0.196823 -0.069966
-0.118371 0.2288 0.412307
0.0726121 -0.244736 0.401298
0.128855 -0.200102 0.407232
0.132176 -0.207166 -0.389601
-0.0902787 0.0831231 -0.0489614
0.074084 -0.248062 -0.385699
0.0290782 -0.11772 0.110238
-0.12955 0.163456 0.412307
-0.0902552 0.0831231 0.0572029
-0.0965836 0.245796 0.338603
0.120066 -0.182777 -0.40413
0.125441 -0.193614 -0.403
0.103371 -0.201297 0.0647734
0.100092 -0.203469 -0.0566672
-0.104684 0.24035 0.375078
-0.107892 0.238343 -0.404048
-0.122821 0.222902 0.412307
-0.118571 0.228812 -0.404042
0.0714349 -0.242358 0.404506
0.0700569 -0.239579 0.40725
0.127313 -0.196993 0.409452
0.131222 -0.205247 -0.393192
-0.0796703 0.0617594 -0.0489614
-0.0649823 0.0716262 -0.102049
0.0733772 -0.246644 -0.389584
-0.0649298 0.0716262 0.110274
-0.0912087 0.157698 0.412289
-0.0796469 0.0617538 0.0571968
-0.0965774 0.245796 0.357247
0.123175 -0.18904 -0.40413
-0.126765 0.156433 -0.404042
0.0648828 -0.229542 -0.404007
0.127119 -0.196982 -0.401364
0.100121 -0.203475 0.0647734
0.103342 -0.201291 -0.0566672
-0.0960299 0.244707 0.375078
-0.10469 0.240357 0.357247
-0.10469 0.240357 0.338609
-0.113496 0.233987 -0.404048
-0.126565 0.216379 0.412307
-0.123016 0.222914 -0.404042
0.0685151 -0.236471 0.409469
0.125641 -0.193626 0.411094
0.130039 -0.202869 -0.396401
-0.0723235 0.0666931 -0.0489675
0.0724236 -0.244719 -0.393174
-0.0722939 0.0666869 0.0571912
-0.129745 0.163468 -0.404042
-0.0903374 0.155155 0.412289
-0.0913972 0.160383 0.412289
-0.0829319 0.0880562 -0.0489614
-0.0960361 0.244707 0.356723
0.121874 -0.186426 -0.404401
0.0666427 -0.233086 -0.402983
0.128661 -0.20009 -0.399144
0.108675 -0.211975 0.0647734
0.108646 -0.211975 -0.0566733
0.105431 -0.21416 0.0647734
-0.104142 0.239262 0.375078
-0.12955 0.209344 0.412313
-0.126765 0.216397 -0.404042
0.0668429 -0.233104 0.411112
0.123881 -0.190082 0.412113
0.0712403 -0.24234 -0.396383
-0.131917 0.170897 -0.404042
-0.088842 0.152924 0.412289
-0.0912204 0.157716 0.356216
-0.0914027 0.160395 0.356216
-0.0908787 0.16302 0.412289
-0.0829022 0.0880562 0.0571968
-0.0960417 0.244707 0.338603
-0.0960361 0.244707 0.357241
0.0683149 -0.236454 -0.401346
0.105396 -0.214154 -0.0566733
-0.104148 0.239262 0.357247
-0.104148 0.239262 0.356723
-0.131716 0.201921 0.412313
-0.129745 0.209362 -0.404042
0.0650768 -0.229554 0.41213
0.120261 -0.182794 0.412218
0.0698629 -0.239567 -0.399127
-0.131716 0.170885 0.412313
-0.0868113 0.151152 0.412283
-0.0903491 0.155167 0.356216
-0.0908849 0.163038 0.356216
-0.0896959 0.165434 0.412289
-0.104154 0.239262 0.338609
-0.0964242 0.244448 0.356723
-0.133229 0.178591 -0.404042
-0.133035 0.194227 0.412313
-0.131917 0.201933 -0.404042
0.123375 -0.189058 0.412218
-0.0710166 0.161772 0.412283
-0.0843976 0.149975 0.412283
-0.0868231 0.15117 0.356211
-0.0888481 0.152936 0.356216
-0.0713583 0.156468 0.356211
-0.0708399 0.159106 0.356211
-0.0710227 0.16179 0.356211
-0.0897015 0.165451 0.356216
-0.0964304 0.244448 0.339127
-0.133671 0.186415 -0.404042
-0.10376 0.239527 0.356723
-0.103765 0.239527 0.339127
-0.133476 0.186403 0.412313
-0.133229 0.194238 -0.404042
0.122074 -0.186438 0.412495
-0.0708281 0.159088 0.412283
-0.0718879 0.164315 0.412289
-0.0879237 0.167465 0.412289
-0.133035 0.178573 0.412313
-0.0817602 0.149457 0.412283
-0.0844032 0.149986 0.356211
-0.0725411 0.154049 0.356211
-0.0718935 0.164333 0.356216
-0.0879354 0.167476 0.356216
-0.0986673 0.248957 0.339127
-0.133412 0.185343 0.412313
-0.0713465 0.15645 0.412283
-0.0733833 0.166552 0.412289
-0.0856929 0.168966 0.412289
-0.0817658 0.149469 0.356211
-0.0743072 0.152023 0.356211
-0.0765386 0.150522 0.356211
-0.0725293 0.154037 0.412283
-0.073395 0.166564 0.356216
-0.106002 0.244036 0.339127
-0.0986617 0.248957 0.356723
-0.105997 0.244036 0.356723
-0.0790759 0.149639 0.412283
-0.0754139 0.168319 0.412289
-0.0857046 0.168978 0.356216
-0.0831494 0.169837 0.412289
-0.080465 0.17002 0.412289
-0.0790815 0.149651 0.356211
-0.0743016 0.152011 0.412283
-0.0754201 0.16833 0.356216
-0.0765324 0.15051 0.412283
-0.0778276 0.169502 0.412289
-0.0831611 0.169849 0.356216
-0.0778338 0.169514 0.356216
-0.0804768 0.170031 0.356216
-0.0630222 0.114448 0.362939
-0.077133 0.13584 0.362945
-0.0654415 0.112287 0.362939
-0.0611621 0.117261 0.362939
-0.0771392 0.135852 0.325934
-0.077133 0.112287 0.362933
-0.0654415 0.112298 0.325928
-0.0611621 0.117279 0.325934
-0.0599905 0.120546 0.362939
-0.0743189 0.1372 0.362945
-0.0795585 0.13368 0.362945
-0.0743133 0.110933 0.362933
-0.0795585 0.114448 0.362939
-0.0630222 0.114459 0.325928
-0.0682617 0.110933 0.362939
-0.0599905 0.120558 0.325934
-0.0595962 0.124067 0.362945
-0.0771213 0.135917 0.177902
-0.0743133 0.137212 0.32594
-0.0682617 0.1372 0.362945
-0.0795406 0.133757 0.177902
-0.0814129 0.130866 0.362945
-0.0771213 0.112363 0.177896
-0.0814129 0.117267 0.362939
-0.0795406 0.114524 0.177896
-0.0682438 0.111004 0.177896
-0.0595962 0.124078 0.325934
-0.0599905 0.127581 0.362945
-0.0654241 0.112363 0.177896
-0.0682617 0.137212 0.32594
-0.0712873 0.137665 0.362945
-0.0654415 0.13584 0.362945
-0.0825846 0.127587 0.362939
-0.0712873 0.110468 0.362933
-0.0743016 0.111004 0.177896
-0.0825846 0.120546 0.362939
-0.0814012 0.117338 0.177896
-0.0712699 0.110538 0.177896
-0.0599905 0.127599 0.32594
-0.0611621 0.13086 0.362933
-0.0814012 0.130936 0.177902
-0.0654415 0.135852 0.32594
-0.0712873 0.137677 0.32594
-0.0630222 0.13368 0.362945
-0.0829788 0.124067 0.362939
-0.0825667 0.120617 0.177896
-0.0825667 0.127657 0.177902
-0.0630222 0.133692 0.32594
-0.0829671 0.124137 0.177902
-0.0611621 0.130878 0.325928
0.0270476 -0.153153 0.00536875
0.040923 -0.181093 0.003285
0.0426947 -0.184666 -0.00313793
0.028831 -0.156739 0.00987235
0.0426947 -0.184666 0.0115383
0.0263704 -0.153489 0.00536875
0.0270532 -0.153153 0.0176604
0.0402402 -0.181434 0.003285
0.040923 -0.181093 0.00973086
0.042018 -0.185002 0.0115383
0.0420119 -0.185002 -0.00313793
0.028831 -0.156739 0.0170721
0.0281544 -0.15708 0.00987235
0.0408464 -0.18094 0.0138519
0.0419588 -0.184878 0.0151997
0.0263704 -0.153489 0.0176604
0.0288959 -0.156862 0.0206921
0.0281544 -0.15708 0.0170721
0.0402458 -0.181434 0.00973086
0.042636 -0.184543 0.0151997
0.0401692 -0.181275 0.0138519
0.0271125 -0.153277 0.0215578
0.0282187 -0.157204 0.0206921
0.0406166 -0.180475 0.0174898
0.0417709 -0.184508 0.0182375
0.0399337 -0.18081 0.0174898
0.0264352 -0.153613 0.0215578
0.0290782 -0.157233 0.0232176
0.0284015 -0.157575 0.0232176
0.0424537 -0.184172 0.0182375
0.0273004 -0.153648 0.0244127
0.0403811 -0.179992 0.01945
0.0413643 -0.183689 0.0215874
0.0396983 -0.180333 0.01945
0.0266176 -0.153984 0.0244127
0.0295849 -0.158246 0.0256492
0.0289021 -0.158587 0.0256492
0.0420471 -0.183348 0.0215874
0.0277595 -0.154572 0.0275037
0.0400517 -0.179333 0.0211042
0.0407877 -0.182518 0.0244541
0.0393745 -0.179668 0.0211042
0.0270767 -0.154908 0.0275037
0.0304322 -0.159953 0.0276094
0.0394925 -0.178208 0.0229883
0.0414644 -0.182182 0.0244541
0.0388152 -0.17855 0.0229883
0.0284782 -0.156021 0.0301114
0.0297493 -0.160294 0.0276094
0.039993 -0.180916 0.0270205
0.0381033 -0.177113 0.0246895
0.0278009 -0.156356 0.0301114
0.0316748 -0.162449 0.0289046
0.0387862 -0.176772 0.0246895
0.0406697 -0.180581 0.0270205
0.0287544 -0.158281 0.0321834
0.0333525 -0.165834 0.0293341
0.0309914 -0.16279 0.0289046
0.0396217 -0.178462 0.0294817
0.0369843 -0.174859 0.026591
0.0294317 -0.157939 0.0321834
0.0376677 -0.176236 0.0316594
0.0326697 -0.166169 0.0293341
0.0376615 -0.174523 0.026591
0.0389388 -0.178797 0.0294817
0.036396 -0.171968 0.0280685
0.0357187 -0.17231 0.0280685
0.0299205 -0.160624 0.0336671
0.0383505 -0.175901 0.0316594
0.0362075 -0.173299 0.0333785
0.0349654 -0.16909 0.0290164
0.0305971 -0.160288 0.0336671
0.0368903 -0.172957 0.0333785
0.0342882 -0.169425 0.0290164
0.0312682 -0.163338 0.0345675
0.0345767 -0.170002 0.0344914
0.035254 -0.169661 0.0344914
0.0319455 -0.163002 0.0345675
0.0327692 -0.166364 0.0348622
0.0334465 -0.166028 0.0348622
0.0374317 -0.174088 -0.034303
0.0390155 -0.177272 -0.0393541
0.0376263 -0.174476 -0.0396365
0.0401753 -0.179604 -0.0385242
0.0369435 -0.174811 -0.0396365
0.0410998 -0.18147 -0.0371523
0.0383326 -0.177608 -0.0393541
0.036755 -0.174423 -0.034303
0.0417943 -0.182871 -0.035233
0.0394925 -0.179939 -0.0385242
0.0372963 -0.175524 -0.0343561
0.0379792 -0.175183 -0.0343561
0.0411115 -0.183206 -0.035233
0.0404164 -0.181805 -0.0371523
0.0388449 -0.176931 -0.0340854
0.0416232 -0.184225 -0.0328842
0.0381676 -0.177272 -0.0340854
0.0423005 -0.183889 -0.0328842
0.0396396 -0.178526 -0.0332729
0.0389567 -0.178862 -0.0332729
0.0419823 -0.184955 -0.0302177
0.0403045 -0.179869 -0.0318367
0.0426657 -0.184619 -0.0302177
0.0396278 -0.18021 -0.0318367
0.0422004 -0.185391 -0.027233
0.0401222 -0.181205 -0.0296875
0.040805 -0.180869 -0.0296875
0.0428832 -0.185055 -0.027233
0.042277 -0.185538 -0.0239363
0.0404343 -0.181829 -0.0269506
0.0411115 -0.181487 -0.0269506
0.0429537 -0.185202 -0.0239363
0.0421299 -0.185243 -0.0196038
0.0405344 -0.182035 -0.023736
0.0412172 -0.181699 -0.023736
0.0428066 -0.184907 -0.0196038
0.0416881 -0.184354 -0.0157886
0.0403286 -0.181623 -0.0194271
0.0410114 -0.181281 -0.0194271
0.0423709 -0.184019 -0.0157886
0.0409818 -0.182929 -0.012616
0.0400752 -0.181105 -0.0177079
0.0407519 -0.180763 -0.0177079
0.0416646 -0.182594 -0.012616
0.0388331 -0.178609 -0.0143463
0.0397162 -0.18038 -0.0162718
0.0403929 -0.180039 -0.0162718
0.039516 -0.178267 -0.0143463
0.0407111 -0.180675 -0.0102141
0.0383505 -0.177632 -0.0138637
0.0390334 -0.177296 -0.0138637
0.0400338 -0.181016 -0.0102141
0.0357953 -0.170767 -0.0108438
0.0378382 -0.176595 -0.0137049
0.0385149 -0.17626 -0.0137049
0.0395926 -0.178415 -0.00870074
0.0351125 -0.171109 -0.0108438
0.0351656 -0.169507 -0.0128101
0.0365369 -0.172268 -0.00939589
0.0344884 -0.169849 -0.0128101
0.0389098 -0.178756 -0.00870074
0.0358602 -0.17261 -0.00939589
0.0371319 -0.175177 -0.0140404
0.0378148 -0.174841 -0.0140404
0.0383679 -0.175959 -0.00820078
0.0373964 -0.174005 -0.00849494
0.0333112 -0.167482 -0.0188734
0.0367198 -0.17434 -0.00849494
0.0364899 -0.173887 -0.0150649
0.0371727 -0.173552 -0.0150649
0.0376912 -0.176295 -0.00820078
0.0339878 -0.167147 -0.0188734
0.0357897 -0.172469 -0.0176548
0.0364664 -0.172133 -0.0176548
0.0320808 -0.16501 -0.0257376
0.0348653 -0.17062 -0.0226528
0.0355481 -0.170284 -0.0226528
0.0327637 -0.164674 -0.0257376
0.031639 -0.164121 -0.0274567
0.0343178 -0.167812 -0.0292111
0.0323219 -0.163785 -0.0274567
0.0311916 -0.163214 -0.0285456
0.0336406 -0.168147 -0.0292111
0.0318689 -0.162879 -0.0285456
0.0335936 -0.166352 -0.0316069
0.0313862 -0.161902 -0.0291283
0.0307034 -0.162243 -0.0291283
0.0329169 -0.166688 -0.0316069
0.0279128 -0.154908 -0.03073
0.0308387 -0.160801 -0.0293229
0.0301615 -0.161142 -0.0293229
0.0272299 -0.155243 -0.03073
0.0321278 -0.16511 -0.0332729
0.0287662 -0.156633 -0.0328551
0.0280895 -0.156969 -0.0328551
0.0328106 -0.164768 -0.0332729
0.0272886 -0.153642 -0.0278101
0.0266058 -0.153984 -0.0278101
0.0299674 -0.159041 -0.028852
0.0312565 -0.16335 -0.0342504
0.0291196 -0.159046 -0.0341442
0.0297969 -0.158705 -0.0341442
0.0292846 -0.159376 -0.028852
0.0319337 -0.163008 -0.0342504
0.0292846 -0.157663 -0.0274332
0.0286018 -0.158004 -0.0274332
0.0269005 -0.152871 -0.0242718
0.0302677 -0.161354 -0.0345798
0.0309444 -0.161019 -0.0345798
0.0262233 -0.153207 -0.0242718
0.028949 -0.156986 -0.0260731
0.0282662 -0.157328 -0.0260731
0.0267764 -0.152612 -0.0203157
0.0287075 -0.156503 -0.0244659
0.0280246 -0.156844 -0.0244659
0.0260935 -0.152953 -0.0203157
0.0285134 -0.156115 -0.0205103
0.0278361 -0.156456 -0.0205103
0.0269358 -0.152936 -0.0157299
0.0285839 -0.156256 -0.0181022
0.027901 -0.156592 -0.0181022
0.0262585 -0.153271 -0.0157299
0.0274184 -0.153901 -0.0119209
0.0287902 -0.156668 -0.0159363
0.0281068 -0.157004 -0.0159363
0.0267356 -0.154243 -0.0119209
0.0291079 -0.157304 -0.0141109
0.028425 -0.15764 -0.0141109
0.0281661 -0.155408 -0.00897197
0.0295083 -0.158116 -0.0127279
0.028831 -0.158452 -0.0127279
0.0274833 -0.155744 -0.00897197
0.0300088 -0.159123 -0.0117151
0.0293316 -0.159458 -0.0117151
0.0284485 -0.157681 -0.00695869
0.0306089 -0.16033 -0.0110026
0.0299322 -0.160665 -0.0110026
0.0291258 -0.157345 -0.00695869
0.0308035 -0.162431 -0.00544538
0.0316452 -0.162414 -0.0106967
0.0309623 -0.162755 -0.0106967
0.0294904 -0.159782 -0.00579881
0.0314863 -0.162096 -0.00544538
0.0301732 -0.159441 -0.00580441
0.0304853 -0.161784 -0.00541629
0.0311681 -0.161448 -0.00541629
3 0 1 2
3 1 0 3
3 3 0 6
3 3 6 9
3 5 4 8
3 7 8 4
3 9 6 12
3 10 11 7
3 11 8 7
3 13 9 12
3 9 14 10
3 15 11 10
3 16 9 13
3 13 12 17
3 18 10 14
3 9 16 14
3 15 10 19
3 13 19 16
3 13 17 20
3 18 21 10
3 18 14 21
3 16 21 14
3 19 10 21
3 22 15 19
3 21 16 19
3 20 17 24
3 23 22 19
3 20 24 25
3 27 22 23
3 25 24 28
3 26 27 23
3 26 28 25
3 25 28 26
3 29 27 26
3 28 26 29
3 29 26 28
3 1 4 2
3 2 5 0
3 3 7 1
3 5 2 4
3 4 1 7
3 8 0 5
3 0 8 6
3 7 3 10
3 11 6 8
3 9 10 3
3 6 11 12
3 15 12 11
3 12 15 17
3 22 17 15
3 19 13 23
3 20 23 13
3 17 22 24
3 23 20 26
3 27 24 22
3 25 26 20
3 24 27 28
3 29 28 27
3 2 1 0
3 3 0 1
3 6 0 3
3 9 6 3
3 8 4 5
3 4 8 7
3 12 6 9
3 7 11 10
3 7 8 11
3 12 9 13
3 10 11 15
3 13 9 16
3 17 12 13
3 14 16 9
3 19 10 15
3 20 17 13
3 10 21 18
3 21 10 19
3 19 15 22
3 24 17 20
3 19 22 23
3 25 24 20
3 23 22 27
3 28 24 25
3 23 27 26
3 26 27 29
3 2 4 1
3 0 5 2
3 1 7 3
3 4 2 5
3 7 1 4
3 5 0 8
3 6 8 0
3 10 3 7
3 8 6 11
3 3 10 9
3 12 11 6
3 11 12 15
3 17 15 12
3 15 17 22
3 23 13 19
3 13 23 20
3 24 22 17
3 26 20 23
3 22 24 27
3 20 26 25
3 28 27 24
3 27 28 29
3 10 14 9
3 14 10 18
3 16 19 13
3 21 14 18
3 14 21 16
3 19 16 21
3 30 31 32
3 31 30 33
3 32 31 30
3 33 30 31
3 30 34 33
3 33 34 30
3 33 35 30
3 30 35 33
3 36 33 31
3 31 33 36
3 34 31 33
3 33 31 34
3 34 30 37
3 37 30 34
3 35 33 38
3 38 33 35
3 39 30 35
3 35 30 39
3 33 36 38
3 38 36 33
3 31 40 36
3 36 40 31
3 31 34 41
3 41 34 31
3 39 37 30
3 30 37 39
3 37 41 34
3 34 41 37
3 36 35 38
3 38 35 36
3 36 39 35
3 35 39 36
3 41 40 31
3 31 40 41
3 39 36 40
3 40 36 39
3 37 39 42
3 42 39 37
3 42 41 37
3 37 41 42
3 40 41 43
3 43 41 40
3 40 42 39
3 39 42 40
3 41 42 43
3 43 42 41
3 42 40 43
3 43 40 42
3 211 182 195
3 221 195 198
3 182 211 222
3 195 221 211
3 182 223 197
3 197 221 198
3 211 223 222
3 223 182 222
3 223 211 221
3 221 197 223
3 44 45 46
3 46 45 44
3 44 46 48
3 51 48 46
3 47 53 49
3 56 48 51
3 59 49 53
3 61 48 56
3 58 56 51
3 62 55 52
3 48 61 57
3 51 64 58
3 58 64 51
3 62 60 55
3 67 61 56
3 68 56 58
3 52 69 62
3 70 57 61
3 57 70 63
3 60 62 76
3 78 61 67
3 67 56 79
3 56 68 80
3 81 62 69
3 84 63 70
3 63 84 71
3 65 89 73
3 61 78 74
3 76 62 90
3 78 67 92
3 93 79 56
3 79 92 67
3 74 80 68
3 80 94 56
3 81 90 62
3 96 71 84
3 71 96 85
3 68 86 74
3 65 87 89
3 73 101 88
3 101 73 89
3 78 80 74
3 90 104 76
3 78 92 80
3 79 93 107
3 93 56 94
3 79 108 92
3 94 80 92
3 109 90 81
3 113 85 96
3 97 85 114
3 86 98 100
3 100 74 86
3 118 89 87
3 120 88 101
3 110 76 104
3 123 104 90
3 91 126 106
3 94 107 93
3 128 79 107
3 108 129 92
3 108 79 128
3 92 129 94
3 90 109 130
3 131 109 81
3 81 110 132
3 113 114 85
3 114 136 97
3 115 97 136
3 98 116 119
3 119 100 98
3 117 139 87
3 117 99 139
3 87 139 118
3 88 120 141
3 99 103 145
3 122 141 103
3 122 88 141
3 132 110 104
3 123 146 104
3 90 130 123
3 105 124 147
3 147 124 105
3 148 106 126
3 106 148 127
3 107 94 129
3 107 150 128
3 129 108 151
3 128 152 108
3 153 130 109
3 109 131 153
3 132 131 81
3 136 156 115
3 137 115 156
3 116 138 140
3 140 119 116
3 145 139 99
3 141 118 139
3 118 141 120
3 164 145 103
3 164 103 141
3 104 165 132
3 165 104 146
3 166 146 123
3 166 123 130
3 167 127 148
3 127 167 149
3 107 129 150
3 152 128 150
3 168 151 108
3 151 150 129
3 168 108 152
3 130 153 166
3 169 153 131
3 131 132 170
3 156 173 137
3 157 137 173
3 149 175 138
3 158 140 138
3 181 132 165
3 165 182 146
3 146 182 165
3 146 166 153
3 175 149 167
3 150 151 152
3 168 152 151
3 169 170 153
3 169 131 170
3 181 170 132
3 158 138 175
3 195 165 181
3 181 165 195
3 182 165 195
3 195 165 182
3 182 146 153
3 170 197 153
3 198 181 170
3 170 181 198
3 201 186 174
3 174 186 201
3 195 181 198
3 198 181 195
3 195 182 211
3 197 182 153
3 170 197 198
3 198 197 170
3 198 195 221
3 222 211 182
3 211 221 195
3 197 223 182
3 198 221 197
3 222 223 211
3 222 182 223
3 221 211 223
3 223 197 221
3 47 46 44
3 48 46 44
3 49 46 47
3 47 44 50
3 46 48 51
3 52 44 48
3 46 49 51
3 49 53 47
3 47 54 49
3 50 44 55
3 54 47 50
3 51 48 56
3 55 44 52
3 52 48 57
3 49 58 51
3 53 49 59
3 60 49 54
3 60 50 55
3 50 60 54
3 56 48 61
3 51 56 58
3 57 61 48
3 52 57 63
3 60 58 49
3 65 59 53
3 53 59 65
3 59 61 53
3 53 61 59
3 66 60 55
3 56 61 67
3 58 56 68
3 62 69 52
3 61 57 70
3 63 70 57
3 52 63 71
3 60 68 58
3 59 65 72
3 72 65 59
3 65 53 73
3 73 53 65
3 61 59 74
3 74 59 61
3 53 61 75
3 75 61 53
3 60 66 77
3 67 61 78
3 80 68 56
3 69 62 81
3 82 52 69
3 69 52 82
3 83 61 70
3 70 61 83
3 70 63 84
3 71 84 63
3 52 71 85
3 60 86 68
3 87 72 65
3 65 72 87
3 72 74 59
3 59 74 72
3 73 53 88
3 88 53 73
3 73 89 65
3 74 78 61
3 75 61 83
3 83 61 75
3 75 88 53
3 53 88 75
3 90 62 76
3 76 91 60
3 68 80 74
3 62 90 81
3 95 52 82
3 82 52 95
3 83 70 84
3 84 70 83
3 84 71 96
3 85 96 71
3 52 85 97
3 60 98 86
3 74 86 68
3 99 72 87
3 87 72 99
3 89 87 65
3 72 100 74
3 74 100 72
3 88 101 73
3 89 73 101
3 74 80 78
3 75 103 88
3 88 103 75
3 76 104 90
3 105 91 76
3 60 91 106
3 81 90 109
3 111 52 95
3 95 52 111
3 83 84 96
3 96 84 83
3 96 85 113
3 114 85 97
3 52 97 115
3 60 116 98
3 100 98 86
3 86 74 100
3 72 99 75
3 75 99 72
3 99 87 117
3 117 87 99
3 87 89 118
3 72 119 100
3 100 119 72
3 101 88 120
3 89 118 101
3 83 121 102
3 102 121 83
3 75 99 103
3 103 99 75
3 88 103 122
3 122 103 88
3 104 76 110
3 90 104 123
3 91 105 124
3 105 125 76
3 76 125 105
3 106 126 91
3 60 106 127
3 81 109 131
3 132 110 81
3 134 52 111
3 111 52 134
3 83 96 113
3 113 96 83
3 85 114 113
3 97 136 114
3 136 97 115
3 52 115 137
3 60 138 116
3 119 116 98
3 98 100 119
3 72 140 119
3 119 140 72
3 120 101 118
3 83 143 121
3 121 143 83
3 102 121 144
3 144 121 102
3 76 133 110
3 110 133 76
3 104 110 132
3 124 125 105
3 105 125 124
3 91 125 124
3 124 125 91
3 76 125 142
3 142 125 76
3 126 106 148
3 125 91 126
3 126 91 125
3 127 148 106
3 60 127 149
3 81 131 132
3 154 52 134
3 134 52 154
3 76 112 133
3 133 112 76
3 76 135 112
3 112 135 76
3 83 113 114
3 114 113 83
3 83 114 136
3 136 114 83
3 115 156 136
3 156 115 137
3 52 137 157
3 60 149 138
3 140 138 116
3 116 119 140
3 72 158 140
3 140 158 72
3 83 160 143
3 143 160 83
3 102 144 163
3 163 144 102
3 76 142 159
3 159 142 76
3 72 126 148
3 148 126 72
3 126 72 125
3 125 72 126
3 148 127 167
3 149 167 127
3 171 52 154
3 154 52 171
3 76 155 135
3 135 155 76
3 83 136 156
3 156 136 83
3 137 173 156
3 173 137 157
3 52 157 174
3 138 175 149
3 138 140 158
3 139 145 141
3 72 175 158
3 158 175 72
3 83 177 160
3 160 177 83
3 102 163 180
3 180 163 102
3 164 141 145
3 76 159 183
3 183 159 76
3 72 148 167
3 167 148 72
3 167 149 175
3 184 52 171
3 171 52 184
3 76 172 155
3 155 172 76
3 83 156 173
3 173 156 83
3 157 83 173
3 173 83 157
3 174 157 186
3 187 174 52
3 52 174 187
3 175 138 158
3 72 167 175
3 175 167 72
3 102 180 176
3 176 180 102
3 83 188 177
3 177 188 83
3 161 191 178
3 162 192 161
3 179 193 162
3 76 183 196
3 196 183 76
3 199 52 184
3 184 52 199
3 76 185 172
3 172 185 76
3 83 157 186
3 186 157 83
3 83 186 174
3 174 186 83
3 202 174 187
3 187 174 202
3 187 52 203
3 203 52 187
3 176 180 204
3 204 180 176
3 83 206 188
3 188 206 83
3 178 208 190
3 191 208 178
3 192 191 161
3 193 192 162
3 209 193 179
3 194 209 179
3 76 196 200
3 200 196 76
3 212 52 199
3 199 52 212
3 76 200 185
3 185 200 76
3 83 174 206
3 206 174 83
3 213 174 202
3 202 174 213
3 203 52 214
3 214 52 203
3 176 204 215
3 215 204 176
3 176 52 205
3 205 52 176
3 190 217 189
3 189 218 207
3 208 217 190
3 220 209 194
3 210 220 194
3 205 52 212
3 212 52 205
3 174 224 206
3 206 224 174
3 219 174 213
3 213 174 219
3 214 52 225
3 225 52 214
3 176 215 227
3 227 215 176
3 228 52 176
3 176 52 228
3 216 207 229
3 217 218 189
3 218 229 207
3 231 220 210
3 224 174 232
3 232 174 224
3 230 174 219
3 219 174 230
3 225 52 233
3 233 52 225
3 226 231 210
3 176 227 228
3 228 227 176
3 233 52 228
3 228 52 233
3 232 174 230
3 230 174 232
3 235 231 226
3 234 235 226
3 236 235 234
3 81 82 69
3 69 82 81
3 102 75 83
3 83 75 102
3 82 81 110
3 110 81 82
3 82 112 95
3 95 112 82
3 102 72 75
3 75 72 102
3 82 110 133
3 133 110 82
3 95 135 111
3 111 135 95
3 112 82 133
3 133 82 112
3 135 95 112
3 112 95 135
3 142 72 102
3 102 72 142
3 111 155 134
3 134 155 111
3 155 111 135
3 135 111 155
3 72 142 125
3 125 142 72
3 102 159 142
3 142 159 102
3 121 161 143
3 144 162 121
3 134 172 154
3 154 172 134
3 172 134 155
3 155 134 172
3 159 102 176
3 176 102 159
3 143 178 160
3 178 143 161
3 161 121 162
3 162 144 179
3 163 179 144
3 154 185 171
3 171 185 154
3 185 154 172
3 172 154 185
3 176 183 159
3 159 183 176
3 177 160 189
3 190 160 178
3 179 163 194
3 180 194 163
3 171 200 184
3 184 200 171
3 200 171 185
3 185 171 200
3 183 176 205
3 205 176 183
3 188 177 207
3 190 189 160
3 189 207 177
3 194 180 210
3 205 196 183
3 183 196 205
3 184 196 199
3 199 196 184
3 196 184 200
3 200 184 196
3 187 202 193
3 203 187 209
3 204 210 180
3 206 188 216
3 207 216 188
3 208 191 219
3 191 192 213
3 192 193 202
3 193 209 187
3 196 205 199
3 199 205 196
3 199 205 212
3 212 205 199
3 202 213 192
3 214 203 220
3 209 220 203
3 210 204 226
3 215 226 204
3 216 229 206
3 217 208 230
3 213 219 191
3 219 230 208
3 224 206 229
3 214 220 225
3 226 215 234
3 227 234 215
3 218 217 232
3 229 218 224
3 230 232 217
3 231 225 220
3 232 224 218
3 225 231 233
3 234 227 236
3 228 236 227
3 233 235 228
3 235 233 231
3 236 228 235
3 44 46 47
3 47 46 49
3 50 44 47
3 48 44 52
3 51 49 46
3 55 44 50
3 52 44 55
3 57 48 52
3 51 58 49
3 54 49 60
3 55 50 60
3 54 60 50
3 52 55 62
3 63 57 52
3 49 58 60
3 55 60 62
3 71 63 52
3 58 68 60
3 76 62 60
3 85 71 52
3 68 86 60
3 60 91 76
3 97 85 52
3 86 98 60
3 76 91 105
3 106 91 60
3 115 97 52
3 98 116 60
3 124 105 91
3 127 106 60
3 137 115 52
3 116 138 60
3 149 127 60
3 157 137 52
3 138 149 60
3 174 157 52
3 186 157 174
3 49 54 47
3 50 47 54
3 55 60 66
3 77 66 60
3 79 56 67
3 92 67 78
3 56 79 93
3 67 92 79
3 56 94 80
3 80 92 78
3 107 93 79
3 94 56 93
3 92 108 79
3 92 80 94
3 101 118 89
3 93 107 94
3 107 79 128
3 92 129 108
3 128 79 108
3 94 129 92
3 130 109 90
3 87 139 117
3 118 139 87
3 141 120 88
3 118 101 120
3 141 88 122
3 104 146 123
3 123 130 90
3 129 94 107
3 109 130 153
3 153 131 109
3 139 118 141
3 120 141 118
3 132 165 104
3 146 104 165
3 123 146 166
3 130 123 166
3 131 153 169
3 170 132 131
3 141 145 139
3 145 141 164
3 165 132 181
3 170 131 169
3 132 170 181
3 139 99 117
3 145 103 99
3 103 141 122
3 99 139 145
3 103 145 164
3 141 103 164
3 128 150 107
3 151 108 129
3 108 152 128
3 150 129 107
3 150 128 152
3 108 151 168
3 129 150 151
3 152 108 168
3 152 151 150
3 151 152 168
3 178 191 161
3 161 192 162
3 162 193 179
3 190 208 178
3 178 208 191
3 161 191 192
3 162 192 193
3 179 193 209
3 179 209 194
3 189 217 190
3 207 218 189
3 190 217 208
3 194 209 220
3 194 220 210
3 229 207 216
3 189 218 217
3 207 229 218
3 210 220 231
3 210 231 226
3 226 231 235
3 226 235 234
3 234 235 236
3 143 161 121
3 121 162 144
3 160 178 143
3 161 143 178
3 162 121 161
3 179 144 162
3 144 179 163
3 189 160 177
3 178 160 190
3 194 163 179
3 163 194 180
3 207 177 188
3 160 189 190
3 177 207 189
3 210 180 194
3 193 202 187
3 209 187 203
3 180 210 204
3 216 188 206
3 188 216 207
3 219 191 208
3 213 192 191
3 202 193 192
3 187 209 193
3 192 213 202
3 220 203 214
3 203 220 209
3 226 204 210
3 204 226 215
3 206 229 216
3 230 208 217
3 191 219 213
3 208 230 219
3 229 206 224
3 225 220 214
3 234 215 226
3 215 234 227
3 232 217 218
3 224 218 229
3 217 232 230
3 220 225 231
3 218 224 232
3 233 231 225
3 236 227 234
3 227 236 228
3 228 235 233
3 231 233 235
3 235 228 236
3 166 153 130
3 153 166 146
3 153 170 169
3 153 146 182
3 153 197 170
3 153 182 197
3 237 238 239
3 238 237 240
3 242 239 238
3 238 240 245
3 248 239 242
3 242 238 249
3 238 245 253
3 238 256 246
3 258 238 247
3 248 251 239
3 249 238 260
3 238 253 264
3 238 268 256
3 246 256 267
3 269 238 258
3 251 248 270
3 260 238 272
3 238 264 276
3 238 280 268
3 281 238 269
3 272 238 281
3 238 276 280
3 239 238 237
3 240 237 238
3 241 239 238
3 238 239 241
3 238 239 242
3 245 240 238
3 239 241 243
3 243 241 239
3 242 239 248
3 249 238 242
3 253 245 238
3 250 241 243
3 243 241 250
3 254 243 241
3 246 256 238
3 247 238 258
3 239 251 248
3 260 238 249
3 241 250 244
3 244 250 241
3 241 244 252
3 252 244 241
3 264 253 238
3 243 254 265
3 241 266 255
3 255 266 241
3 256 268 238
3 267 256 246
3 258 238 269
3 270 248 251
3 272 238 260
3 241 252 263
3 263 252 241
3 276 264 238
3 259 265 254
3 254 265 259
3 277 254 257
3 257 254 277
3 241 278 266
3 266 278 241
3 255 266 279
3 279 266 255
3 268 280 238
3 269 238 281
3 271 265 259
3 259 265 271
3 259 254 261
3 261 254 259
3 281 238 272
3 261 254 273
3 273 254 261
3 271 262 265
3 265 262 271
3 262 271 274
3 274 271 262
3 241 263 275
3 275 263 241
3 280 276 238
3 283 254 277
3 277 254 283
3 241 284 278
3 278 284 241
3 273 254 282
3 282 254 273
3 241 275 286
3 286 275 241
3 285 254 283
3 283 254 285
3 241 286 284
3 284 286 241
3 282 254 285
3 285 254 282
3 237 243 239
3 239 243 237
3 244 237 240
3 240 237 244
3 241 246 238
3 238 246 241
3 247 241 238
3 238 241 247
3 243 237 250
3 250 237 243
3 243 251 239
3 239 251 243
3 237 244 250
3 250 244 237
3 240 252 244
3 244 252 240
3 252 240 245
3 245 240 252
3 246 241 255
3 255 241 246
3 241 247 257
3 257 247 241
3 248 259 242
3 242 259 248
3 242 261 249
3 249 261 242
3 251 243 262
3 262 243 251
3 245 263 252
3 252 263 245
3 263 245 253
3 253 245 263
3 257 254 241
3 241 254 257
3 255 267 246
3 246 267 255
3 258 257 247
3 247 257 258
3 259 248 271
3 271 248 259
3 261 242 259
3 259 242 261
3 249 273 260
3 260 273 249
3 273 249 261
3 261 249 273
3 262 243 265
3 265 243 262
3 274 251 262
3 262 251 274
3 253 275 263
3 263 275 253
3 275 253 264
3 264 253 275
3 267 255 279
3 279 255 267
3 266 268 256
3 256 268 266
3 279 256 267
3 267 256 279
3 257 258 277
3 277 258 257
3 269 277 258
3 258 277 269
3 270 271 248
3 248 271 270
3 251 274 270
3 270 274 251
3 260 282 272
3 272 282 260
3 282 260 273
3 273 260 282
3 276 275 264
3 264 275 276
3 268 266 278
3 278 266 268
3 256 279 266
3 266 279 256
3 278 280 268
3 268 280 278
3 281 283 269
3 269 283 281
3 277 269 283
3 283 269 277
3 271 270 274
3 274 270 271
3 272 285 281
3 281 285 272
3 285 272 282
3 282 272 285
3 275 276 286
3 286 276 275
3 284 276 280
3 280 276 284
3 280 278 284
3 284 278 280
3 283 281 285
3 285 281 283
3 276 284 286
3 286 284 276
3 241 243 254
3 265 254 243
3 287 288 289
3 288 287 290
3 289 288 287
3 290 287 288
3 288 291 289
3 289 291 288
3 289 292 287
3 287 292 289
3 290 287 293
3 293 287 290
3 290 294 288
3 288 294 290
3 291 288 295
3 295 288 291
3 296 289 291
3 291 289 296
3 292 289 297
3 297 289 292
3 292 293 287
3 287 293 292
3 290 293 298
3 298 293 290
3 294 290 299
3 299 290 294
3 294 295 288
3 288 295 294
3 291 295 300
3 300 295 291
3 289 296 297
3 297 296 289
3 291 301 296
3 296 301 291
3 294 292 297
3 297 292 294
3 293 292 302
3 302 292 293
3 298 293 303
3 303 293 298
3 304 290 298
3 298 290 304
3 290 304 299
3 299 304 290
3 292 294 299
3 299 294 292
3 295 294 305
3 305 294 295
3 305 300 295
3 295 300 305
3 291 300 306
3 306 300 291
3 296 294 297
3 297 294 296
3 301 291 306
3 306 291 301
3 307 296 301
3 301 296 307
3 292 299 302
3 302 299 292
3 302 308 293
3 293 308 302
3 303 293 308
3 308 293 303
3 309 298 303
3 303 298 309
3 298 309 304
3 304 309 298
3 302 299 304
3 304 299 302
3 294 296 305
3 305 296 294
3 300 305 307
3 307 305 300
3 306 300 310
3 310 300 306
3 306 311 301
3 301 311 306
3 305 296 307
3 307 296 305
3 307 301 312
3 312 301 307
3 308 302 313
3 313 302 308
3 303 308 314
3 314 308 303
3 303 315 309
3 309 315 303
3 302 304 309
3 309 304 302
3 307 310 300
3 300 310 307
3 306 310 316
3 316 310 306
3 311 306 316
3 316 306 311
3 312 301 311
3 311 301 312
3 310 307 312
3 312 307 310
3 302 309 313
3 313 309 302
3 313 317 308
3 308 317 313
3 314 308 317
3 317 308 314
3 315 303 314
3 314 303 315
3 313 309 315
3 315 309 313
3 316 310 318
3 318 310 316
3 316 319 311
3 311 319 316
3 312 311 320
3 320 311 312
3 312 318 310
3 310 318 312
3 317 313 321
3 321 313 317
3 314 317 322
3 322 317 314
3 314 323 315
3 315 323 314
3 313 315 321
3 321 315 313
3 316 318 324
3 324 318 316
3 319 316 324
3 324 316 319
3 320 311 319
3 319 311 320
3 318 312 320
3 320 312 318
3 321 325 317
3 317 325 321
3 322 317 325
3 325 317 322
3 323 314 322
3 322 314 323
3 321 315 323
3 323 315 321
3 324 318 326
3 326 318 324
3 324 327 319
3 319 327 324
3 320 319 328
3 328 319 320
3 320 326 318
3 318 326 320
3 325 321 329
3 329 321 325
3 322 325 330
3 330 325 322
3 330 323 322
3 322 323 330
3 321 323 329
3 329 323 321
3 324 326 331
3 331 326 324
3 327 324 332
3 332 324 327
3 333 319 327
3 327 319 333
3 328 319 333
3 333 319 328
3 326 320 328
3 328 320 326
3 329 334 325
3 325 334 329
3 330 325 334
3 334 325 330
3 323 330 335
3 335 330 323
3 329 323 335
3 335 323 329
3 328 331 326
3 326 331 328
3 324 331 332
3 332 331 324
3 332 336 327
3 327 336 332
3 333 327 337
3 337 327 333
3 331 328 333
3 333 328 331
3 334 329 338
3 338 329 334
3 330 334 339
3 339 334 330
3 339 335 330
3 330 335 339
3 329 335 338
3 338 335 329
3 332 331 340
3 340 331 332
3 336 332 341
3 341 332 336
3 337 327 336
3 336 327 337
3 337 331 333
3 333 331 337
3 342 334 338
3 338 334 342
3 339 334 343
3 343 334 339
3 335 339 344
3 344 339 335
3 338 335 344
3 344 335 338
3 331 337 340
3 340 337 331
3 332 340 341
3 341 340 332
3 345 336 341
3 341 336 345
3 337 336 346
3 346 336 337
3 334 342 347
3 347 342 334
3 338 348 342
3 342 348 338
3 343 334 345
3 345 334 343
3 343 344 339
3 339 344 343
3 338 344 349
3 349 344 338
3 346 340 337
3 337 340 346
3 341 340 350
3 350 340 341
3 336 345 351
3 351 345 336
3 341 352 345
3 345 352 341
3 346 336 353
3 353 336 346
3 354 347 342
3 342 347 354
3 355 334 347
3 347 334 355
3 338 351 348
3 348 351 338
3 342 348 356
3 356 348 342
3 345 334 355
3 355 334 345
3 345 357 343
3 343 357 345
3 344 343 349
3 349 343 344
3 338 349 351
3 351 349 338
3 340 346 350
3 350 346 340
3 341 350 352
3 352 350 341
3 355 351 345
3 345 351 355
3 353 336 351
3 351 336 353
3 345 352 357
3 357 352 345
3 353 350 346
3 346 350 353
3 347 354 358
3 358 354 347
3 342 356 354
3 354 356 342
3 355 347 359
3 359 347 355
3 351 355 348
3 348 355 351
3 348 359 356
3 356 359 348
3 357 349 343
3 343 349 357
3 360 351 349
3 349 351 360
3 350 353 352
3 352 353 350
3 353 351 360
3 360 351 353
3 352 360 357
3 357 360 352
3 361 358 354
3 354 358 361
3 359 347 358
3 358 347 359
3 354 356 362
3 362 356 354
3 359 348 355
3 355 348 359
3 363 356 359
3 359 356 363
3 349 357 360
3 360 357 349
3 360 352 353
3 353 352 360
3 358 361 364
3 364 361 358
3 354 362 361
3 361 362 354
3 359 358 363
3 363 358 359
3 356 363 362
3 362 363 356
3 365 364 361
3 361 364 365
3 363 358 364
3 364 358 363
3 361 362 365
3 365 362 361
3 366 362 363
3 363 362 366
3 364 365 366
3 366 365 364
3 363 364 366
3 366 364 363
3 362 366 365
3 365 366 362
3 367 368 369
3 368 367 370
3 369 368 367
3 370 367 368
3 368 371 369
3 369 371 368
3 371 367 369
3 369 367 371
3 370 367 372
3 372 367 370
3 370 373 368
3 368 373 370
3 371 368 373
3 373 368 371
3 367 371 374
3 374 371 367
3 372 367 375
3 375 367 372
3 372 376 370
3 370 376 372
3 373 370 376
3 376 370 373
3 373 374 371
3 371 374 373
3 377 367 374
3 374 367 377
3 375 367 378
3 378 367 375
3 379 372 375
3 375 372 379
3 376 372 380
3 380 372 376
3 374 373 376
3 376 373 374
3 367 377 378
3 378 377 367
3 374 379 377
3 377 379 374
3 381 375 378
3 378 375 381
3 372 379 380
3 380 379 372
3 375 382 379
3 379 382 375
3 374 376 380
3 380 376 374
3 383 378 377
3 377 378 383
3 374 380 379
3 379 380 374
3 379 383 377
3 377 383 379
3 375 381 384
3 384 381 375
3 378 383 381
3 381 383 378
3 382 375 384
3 384 375 382
3 383 379 382
3 382 379 383
3 384 381 385
3 385 381 384
3 386 381 383
3 383 381 386
3 384 387 382
3 382 387 384
3 383 382 386
3 386 382 383
3 381 386 385
3 385 386 381
3 384 385 388
3 388 385 384
3 387 384 389
3 389 384 387
3 390 382 387
3 387 382 390
3 386 382 390
3 390 382 386
3 390 385 386
3 386 385 390
3 385 390 388
3 388 390 385
3 384 388 389
3 389 388 384
3 389 391 387
3 387 391 389
3 390 387 392
3 392 387 390
3 390 393 388
3 388 393 390
3 389 388 393
3 393 388 389
3 391 389 394
3 394 389 391
3 392 387 391
3 391 387 392
3 393 390 392
3 392 390 393
3 389 393 394
3 394 393 389
3 394 395 391
3 391 395 394
3 392 391 396
3 396 391 392
3 392 397 393
3 393 397 392
3 394 393 397
3 397 393 394
3 395 394 398
3 398 394 395
3 396 391 395
3 395 391 396
3 397 392 396
3 396 392 397
3 394 397 398
3 398 397 394
3 398 399 395
3 395 399 398
3 396 395 400
3 400 395 396
3 396 401 397
3 397 401 396
3 398 397 401
3 401 397 398
3 399 398 402
3 402 398 399
3 400 395 399
3 399 395 400
3 401 396 400
3 400 396 401
3 398 401 402
3 402 401 398
3 402 403 399
3 399 403 402
3 400 399 404
3 404 399 400
3 400 405 401
3 401 405 400
3 402 401 405
3 405 401 402
3 403 402 406
3 406 402 403
3 404 399 403
3 403 399 404
3 405 400 404
3 404 400 405
3 402 405 406
3 406 405 402
3 406 407 403
3 403 407 406
3 404 403 408
3 408 403 404
3 404 409 405
3 405 409 404
3 406 405 409
3 409 405 406
3 407 406 410
3 410 406 407
3 411 403 407
3 407 403 411
3 408 403 412
3 412 403 408
3 409 404 408
3 408 404 409
3 406 409 413
3 413 409 406
3 406 414 410
3 410 414 406
3 415 407 410
3 410 407 415
3 412 403 411
3 411 403 412
3 411 407 416
3 416 407 411
3 413 408 412
3 412 408 413
3 408 413 409
3 409 413 408
3 406 413 414
3 414 413 406
3 410 414 417
3 417 414 410
3 407 415 418
3 418 415 407
3 410 419 415
3 415 419 410
3 411 413 412
3 412 413 411
3 416 407 420
3 420 407 416
3 416 414 411
3 411 414 416
3 413 411 414
3 414 411 413
3 414 416 417
3 417 416 414
3 410 417 421
3 421 417 410
3 422 418 415
3 415 418 422
3 423 407 418
3 418 407 423
3 410 424 419
3 419 424 410
3 415 419 425
3 425 419 415
3 420 407 426
3 426 407 420
3 420 417 416
3 416 417 420
3 417 420 421
3 421 420 417
3 410 421 424
3 424 421 410
3 418 422 427
3 427 422 418
3 415 425 422
3 422 425 415
3 426 407 423
3 423 407 426
3 423 418 428
3 428 418 423
3 426 419 424
3 424 419 426
3 419 428 425
3 425 428 419
3 426 429 420
3 420 429 426
3 429 421 420
3 420 421 429
3 430 424 421
3 421 424 430
3 431 427 422
3 422 427 431
3 428 418 427
3 427 418 428
3 422 425 432
3 432 425 422
3 419 426 423
3 423 426 419
3 428 419 423
3 423 419 428
3 424 433 426
3 426 433 424
3 434 425 428
3 428 425 434
3 426 435 429
3 429 435 426
3 421 429 430
3 430 429 421
3 436 424 430
3 430 424 436
3 427 431 437
3 437 431 427
3 422 432 431
3 431 432 422
3 428 427 434
3 434 427 428
3 425 434 432
3 432 434 425
3 433 424 438
3 438 424 433
3 433 439 426
3 426 439 433
3 426 439 435
3 435 439 426
3 435 430 429
3 429 430 435
3 440 424 436
3 436 424 440
3 430 435 436
3 436 435 430
3 432 437 431
3 431 437 432
3 434 427 437
3 437 427 434
3 437 432 434
3 434 432 437
3 440 438 424
3 424 438 440
3 438 441 433
3 433 441 438
3 433 442 439
3 439 442 433
3 440 435 439
3 439 435 440
3 435 440 436
3 436 440 435
3 443 438 440
3 440 438 443
3 441 438 444
3 444 438 441
3 441 442 433
3 433 442 441
3 443 439 442
3 442 439 443
3 439 443 440
3 440 443 439
3 443 444 438
3 438 444 443
3 444 445 441
3 441 445 444
3 445 442 441
3 441 442 445
3 442 446 443
3 443 446 442
3 443 447 444
3 444 447 443
3 445 444 447
3 447 444 445
3 448 442 445
3 445 442 448
3 446 442 449
3 449 442 446
3 446 450 443
3 443 450 446
3 443 450 447
3 447 450 443
3 450 445 447
3 447 445 450
3 448 449 442
3 442 449 448
3 445 450 448
3 448 450 445
3 449 451 446
3 446 451 449
3 446 452 450
3 450 452 446
3 453 449 448
3 448 449 453
3 452 448 450
3 450 448 452
3 451 449 454
3 454 449 451
3 451 455 446
3 446 455 451
3 446 456 452
3 452 456 446
3 457 449 453
3 453 449 457
3 448 452 453
3 453 452 448
3 458 454 449
3 449 454 458
3 459 451 454
3 454 451 459
3 451 460 455
3 455 460 451
3 446 455 456
3 456 455 446
3 456 453 452
3 452 453 456
3 458 449 457
3 457 449 458
3 453 456 457
3 457 456 453
3 461 454 458
3 458 454 461
3 451 459 462
3 462 459 451
3 461 459 454
3 454 459 461
3 462 460 451
3 451 460 462
3 460 458 455
3 455 458 460
3 463 456 455
3 455 456 463
3 457 464 458
3 458 464 457
3 465 457 456
3 456 457 465
3 458 460 461
3 461 460 458
3 466 462 459
3 459 462 466
3 467 459 461
3 461 459 467
3 462 468 460
3 460 468 462
3 458 463 455
3 455 463 458
3 456 463 465
3 465 463 456
3 464 457 469
3 469 457 464
3 463 458 464
3 464 458 463
3 457 465 469
3 469 465 457
3 468 461 460
3 460 461 468
3 462 466 470
3 470 466 462
3 467 466 459
3 459 466 467
3 461 468 467
3 467 468 461
3 470 468 462
3 462 468 470
3 465 463 471
3 471 463 465
3 464 469 472
3 472 469 464
3 464 473 463
3 463 473 464
3 471 469 465
3 465 469 471
3 474 470 466
3 466 470 474
3 466 467 474
3 474 467 466
3 475 467 468
3 468 467 475
3 468 470 475
3 475 470 468
3 471 463 473
3 473 463 471
3 469 471 472
3 472 471 469
3 464 472 476
3 476 472 464
3 473 464 476
3 476 464 473
3 470 474 475
3 475 474 470
3 467 475 474
3 474 475 467
3 471 473 477
3 477 473 471
3 471 478 472
3 472 478 471
3 476 472 478
3 478 472 476
3 476 479 473
3 473 479 476
3 477 473 480
3 480 473 477
3 478 471 477
3 477 471 478
3 476 478 481
3 481 478 476
3 479 476 482
3 482 476 479
3 483 473 479
3 479 473 483
3 480 473 483
3 483 473 480
3 481 477 480
3 480 477 481
3 477 481 478
3 478 481 477
3 476 481 484
3 484 481 476
3 476 484 482
3 482 484 476
3 482 485 479
3 479 485 482
3 483 479 486
3 486 479 483
3 484 480 483
3 483 480 484
3 480 484 481
3 481 484 480
3 482 484 487
3 487 484 482
3 485 482 488
3 488 482 485
3 486 479 485
3 485 479 486
3 487 483 486
3 486 483 487
3 483 487 484
3 484 487 483
3 482 487 488
3 488 487 482
3 488 489 485
3 485 489 488
3 486 485 490
3 490 485 486
3 486 491 487
3 487 491 486
3 488 487 491
3 491 487 488
3 489 488 492
3 492 488 489
3 493 485 489
3 489 485 493
3 490 485 493
3 493 485 490
3 491 486 490
3 490 486 491
3 488 491 494
3 494 491 488
3 488 494 492
3 492 494 488
3 492 495 489
3 489 495 492
3 493 489 496
3 496 489 493
3 494 490 493
3 493 490 494
3 490 494 491
3 491 494 490
3 492 494 497
3 497 494 492
3 495 492 498
3 498 492 495
3 499 489 495
3 495 489 499
3 496 489 499
3 499 489 496
3 497 493 496
3 496 493 497
3 493 497 494
3 494 497 493
3 492 497 500
3 500 497 492
3 492 500 498
3 498 500 492
3 501 495 498
3 498 495 501
3 499 495 502
3 502 495 499
3 499 497 496
3 496 497 499
3 497 499 500
3 500 499 497
3 498 500 503
3 503 500 498
3 495 501 504
3 504 501 495
3 498 505 501
3 501 505 498
3 502 495 506
3 506 495 502
3 502 500 499
3 499 500 502
3 500 502 503
3 503 502 500
3 498 503 507
3 507 503 498
3 508 504 501
3 501 504 508
3 509 495 504
3 504 495 509
3 498 507 505
3 505 507 498
3 501 505 508
3 508 505 501
3 506 495 509
3 509 495 506
3 506 503 502
3 502 503 506
3 503 506 507
3 507 506 503
3 504 508 510
3 510 508 504
3 509 504 510
3 510 504 509
3 506 505 507
3 507 505 506
3 508 505 511
3 511 505 508
3 505 506 509
3 509 506 505
3 511 510 508
3 508 510 511
3 509 510 512
3 512 510 509
3 505 512 511
3 511 512 505
3 512 505 509
3 509 505 512
3 510 511 512
3 512 511 510
