ply
format ascii 1.0
comment Generated by PyMesh
element vertex 81
property double x
property double y
property double z
element face 290
property list uchar int vertex_indices
end_header
0.197525 -0.290202 -0.0509935
0.176012 -0.276323 -0.100599
0.194152 -0.276323 -0.0502036
0.179109 -0.290202 -0.102159
0.194152 -0.276323 0.0558395
0.200216 -0.276323 0.00281764
0.197525 -0.290202 0.0566287
0.146068 -0.276323 -0.145508
0.176012 -0.276323 0.106233
0.203682 -0.290202 0.00281764
0.179109 -0.290202 0.107795
0.148683 -0.290202 -0.147793
0.10513 -0.276323 -0.18166
0.146068 -0.276323 0.151144
0.148683 -0.290202 0.153429
0.107046 -0.290202 -0.184561
0.10513 -0.276323 0.187296
0.107046 -0.290202 0.190195
0.0551867 -0.276323 -0.205467
0.0562065 -0.290202 -0.208794
0.0551867 -0.276323 0.211103
0.0562065 -0.290202 0.21443
1.1423e-09 -0.276323 -0.213828
1.1423e-09 -0.276323 0.219464
1.1423e-09 -0.290202 0.222946
1.1423e-09 -0.290202 -0.21731
-0.055186 -0.276323 -0.205467
-0.0562065 -0.290202 0.21443
-0.0562065 -0.290202 -0.208794
-0.055186 -0.276323 0.211103
-0.105129 -0.276323 -0.18166
-0.105129 -0.276323 0.187296
-0.107046 -0.290202 0.190195
-0.107046 -0.290202 -0.184561
-0.146068 -0.276323 -0.145508
-0.146068 -0.276323 0.151144
-0.148683 -0.290202 0.153429
-0.148683 -0.290202 -0.147793
-0.179109 -0.290202 -0.102159
-0.176011 -0.276323 0.106233
-0.179109 -0.290202 0.107795
-0.176011 -0.276323 -0.100599
-0.197525 -0.290202 -0.0509935
-0.19415 -0.276323 -0.0502036
-0.197525 -0.290202 0.0566287
-0.19415 -0.276323 0.0558395
-0.203682 -0.290202 0.00281764
-0.200216 -0.276323 0.00281764
0.0851319 -0.194827 -0.00294584
0.0851319 0.290202 0.346399
0.0851319 -0.194827 0.346399
0.0851319 0.290202 -0.352291
0.007775 -0.194827 0.346399
0.0851319 -0.194827 -0.352557
0.0851319 0.290202 0.346399
0.0851319 -0.194827 -0.352291
0.007775 0.290202 -0.352291
0.007775 0.290202 0.346399
0.0851319 0.290202 -0.352557
0.007775 -0.194827 -0.352291
0.007775 -0.194827 0.352557
0.007775 0.290202 -0.352291
0.007775 0.290202 0.352557
0.0310178 -0.074959 -0.0758473
-0.0269304 -0.276323 -0.0668206
0.026931 -0.276323 -0.0668206
-0.0269304 -0.262444 -0.0668206
0.0285893 -0.209806 -0.0437968
0.0310178 -0.074959 -0.0717243
-0.0269304 -0.262444 0.0724565
0.026931 -0.276323 0.0724565
0.0307627 -0.0757795 -0.0510266
-0.0269304 -0.276323 0.0724565
0.0307627 -0.0757795 0.054643
0.0285893 -0.209806 0.093648
0.0310178 -0.074959 0.075342
0.0305462 -0.0764774 0.00180882
0.0283519 -0.209806 -0.0244525
0.0310178 -0.074959 0.0806602
0.0283519 -0.209806 0.0743025
0.0281496 -0.209806 0.0249253
3 2 4 1
3 0 3 6
3 4 8 1
3 5 4 2
3 6 3 10
3 9 0 6
3 1 8 7
3 3 11 10
3 8 13 7
3 10 11 14
3 7 16 12
3 13 16 7
3 14 11 17
3 11 15 17
3 12 16 18
3 15 19 17
3 16 20 18
3 17 19 21
3 20 23 18
3 21 19 24
3 18 23 22
3 19 25 24
3 22 23 26
3 25 28 24
3 23 29 26
3 24 28 27
3 29 31 26
3 27 28 32
3 26 31 30
3 28 33 32
3 31 35 30
3 32 33 36
3 30 35 34
3 33 37 36
3 35 39 34
3 36 37 40
3 37 38 40
3 34 39 41
3 38 42 40
3 41 39 43
3 40 42 44
3 39 45 43
3 46 44 42
3 47 43 45
3 2 1 0
3 3 0 1
3 2 0 5
3 1 7 3
3 9 5 0
3 11 3 7
3 4 6 8
3 5 9 4
3 10 8 6
3 6 4 9
3 7 12 11
3 8 10 13
3 15 11 12
3 14 13 10
3 12 18 15
3 16 13 17
3 14 17 13
3 19 15 18
3 17 21 16
3 18 22 19
3 20 16 21
3 25 19 22
3 23 20 24
3 21 24 20
3 22 26 25
3 24 27 23
3 28 25 26
3 29 23 27
3 26 30 28
3 27 32 29
3 33 28 30
3 31 29 32
3 30 34 33
3 32 36 31
3 37 33 34
3 35 31 36
3 37 34 38
3 36 40 35
3 41 38 34
3 39 35 40
3 38 41 42
3 40 44 39
3 43 42 41
3 45 39 44
3 42 43 46
3 44 46 45
3 47 46 43
3 47 45 46
3 1 4 2
3 6 3 0
3 1 8 4
3 2 4 5
3 10 3 6
3 6 0 9
3 7 8 1
3 10 11 3
3 7 13 8
3 14 11 10
3 12 16 7
3 7 16 13
3 17 11 14
3 17 15 11
3 18 16 12
3 17 19 15
3 18 20 16
3 21 19 17
3 18 23 20
3 24 19 21
3 22 23 18
3 24 25 19
3 26 23 22
3 24 28 25
3 26 29 23
3 27 28 24
3 26 31 29
3 32 28 27
3 30 31 26
3 32 33 28
3 30 35 31
3 36 33 32
3 34 35 30
3 36 37 33
3 34 39 35
3 40 37 36
3 40 38 37
3 41 39 34
3 40 42 38
3 43 39 41
3 44 42 40
3 43 45 39
3 42 44 46
3 45 43 47
3 0 1 2
3 1 0 3
3 5 0 2
3 3 7 1
3 0 5 9
3 7 3 11
3 8 6 4
3 4 9 5
3 6 8 10
3 9 4 6
3 11 12 7
3 13 10 8
3 12 11 15
3 10 13 14
3 15 18 12
3 17 13 16
3 13 17 14
3 18 15 19
3 16 21 17
3 19 22 18
3 21 16 20
3 22 19 25
3 24 20 23
3 20 24 21
3 25 26 22
3 23 27 24
3 26 25 28
3 27 23 29
3 28 30 26
3 29 32 27
3 30 28 33
3 32 29 31
3 33 34 30
3 31 36 32
3 34 33 37
3 36 31 35
3 38 34 37
3 35 40 36
3 34 38 41
3 40 35 39
3 42 41 38
3 39 44 40
3 41 42 43
3 44 39 45
3 46 43 42
3 45 46 44
3 43 46 47
3 46 45 47
3 48 49 50
3 49 48 51
3 50 49 48
3 51 48 49
3 50 52 49
3 48 55 50
3 51 48 55
3 55 48 51
3 51 49 56
3 57 49 52
3 50 55 52
3 51 56 55
3 57 56 49
3 57 52 56
3 59 52 55
3 59 55 56
3 59 56 52
3 49 52 50
3 50 55 48
3 56 49 51
3 52 49 57
3 52 55 50
3 55 56 51
3 49 56 57
3 56 52 57
3 55 52 59
3 56 55 59
3 52 56 59
3 50 53 54
3 50 54 53
3 58 54 53
3 58 53 54
3 59 60 61
3 59 61 60
3 62 61 60
3 62 60 61
3 63 64 65
3 63 66 64
3 63 65 67
3 70 67 65
3 63 67 68
3 67 70 74
3 67 75 68
3 68 76 71
3 69 70 72
3 70 75 74
3 75 67 74
3 73 68 75
3 68 73 76
3 78 70 69
3 70 78 75
3 68 66 63
3 69 64 66
3 71 66 68
3 64 69 72
3 73 69 66
3 76 66 71
3 75 69 73
3 73 66 76
3 69 75 78
3 65 64 63
3 64 66 63
3 67 65 63
3 65 67 70
3 68 67 63
3 74 70 67
3 72 70 69
3 74 75 70
3 69 70 78
3 75 78 70
3 63 66 68
3 66 64 69
3 68 66 71
3 72 69 64
3 66 69 73
3 71 66 76
3 73 69 75
3 76 66 73
3 78 75 69
3 68 75 67
3 67 71 68
3 71 76 68
3 74 77 67
3 67 77 74
3 74 67 75
3 75 68 73
3 71 67 77
3 76 73 68
3 79 75 73
3 75 79 74
3 79 77 74
3 74 77 79
3 77 79 80
3 80 79 77
3 77 76 71
3 80 73 76
3 76 77 80
3 73 80 79
3 68 71 67
3 77 67 71
3 73 75 79
3 74 79 75
3 71 76 77
3 76 73 80
3 80 77 76
3 79 80 73
