ply
format ascii 1.0
comment Generated by PyMesh
element vertex 376
property double x
property double y
property double z
element face 1508
property list uchar int vertex_indices
end_header
-0.104375 -0.27739 -0.288532
-0.0623297 -0.227359 -0.211436
-0.0760313 -0.27739 -0.297621
-0.0765099 -0.227359 -0.202707
-0.047551 -0.227359 -0.217996
-0.0765099 -0.27739 -0.202707
-0.131655 -0.27739 -0.276622
-0.0623297 -0.27739 -0.211436
-0.046913 -0.27739 -0.303796
-0.089947 -0.27739 -0.191897
-0.089947 -0.227359 -0.191897
-0.127421 -0.27739 0.272442
-0.047551 -0.27739 -0.217996
-0.0323251 -0.227359 -0.222318
-0.102502 -0.27739 -0.179117
-0.15759 -0.27739 -0.262013
-0.153274 -0.27739 0.257268
-0.017319 -0.27739 -0.306994
-0.0323251 -0.27739 -0.222318
-0.102502 -0.227359 -0.179117
-0.100098 -0.27739 0.284771
-0.066792 -0.227359 0.216957
-0.0168091 -0.227359 -0.224358
-0.0962328 -0.227359 -0.0692127
-0.181914 -0.27739 -0.244856
-0.0962328 -0.27739 -0.0692127
-0.052258 -0.227359 0.226753
-0.0805922 -0.227359 0.205009
0.0124467 -0.27739 -0.307182
-0.0168091 -0.27739 -0.224358
-0.0875566 -0.27739 0.0829062
-0.037155 -0.227359 0.234283
-0.052258 -0.27739 0.226753
-0.066792 -0.27739 0.216957
-0.0875566 -0.227359 0.0829062
-0.00116152 -0.227359 -0.224095
-0.00116152 -0.27739 -0.224095
0.0141822 -0.192198 -0.0755102
-0.0805922 -0.27739 0.205009
-0.0716155 -0.27739 0.294116
-0.037155 -0.27739 0.234283
0.0420784 -0.27739 -0.304357
0.0144565 -0.27739 -0.221532
0.0141822 -0.14831 -0.0755102
0.0228583 -0.192198 0.0766082
-0.0216553 -0.227359 0.239462
-0.0216553 -0.27739 0.239462
-0.0422988 -0.27739 0.30037
0.0144565 -0.227359 -0.221532
0.0298855 -0.27739 -0.216696
-0.0027369 -0.14831 -0.372141
0.0228583 -0.14831 0.0766082
-0.0027369 -0.192198 -0.372141
0.0712727 -0.27739 -0.29855
0.044967 -0.27739 -0.209635
0.0398273 0.27739 0.374115
0.0318773 -0.192198 -0.374115
-0.00593637 -0.227359 0.242231
-0.00593637 -0.27739 0.242231
-0.0124821 -0.27739 0.303461
0.0398273 -0.192198 0.374115
0.0298855 -0.227359 -0.216696
0.0595456 -0.27739 -0.200423
-0.0027369 0.27739 -0.372141
0.0398273 -0.14831 0.374115
0.0997293 -0.27739 -0.289819
0.0734722 -0.27739 -0.189154
0.044967 -0.227359 -0.209635
0.0318773 -0.103497 -0.374115
0.0318773 0.27739 -0.374115
0.0744415 -0.103497 0.372141
0.0744415 -0.192198 0.372141
0.00982319 -0.227359 0.242559
0.00982319 -0.27739 0.242559
0.0953819 -0.27739 0.194971
0.0595456 -0.227359 -0.200423
0.0533891 -0.183796 0.00304577
0.0744415 0.27739 0.372141
0.0537812 -0.184539 0.00991396
0.0174942 -0.27739 0.303355
0.127157 -0.27739 -0.278255
0.104975 -0.27739 0.284044
0.0734722 -0.227359 -0.189154
0.0535863 -0.18436 0.0064964
0.0531072 -0.18221 -0.00190716
0.0336302 0.242044 -0.343373
0.0721173 -0.0721842 0.331384
0.0539836 -0.184345 0.0134644
0.0557655 -0.147453 0.0447045
0.025443 -0.227359 0.240442
0.025443 -0.27739 0.240442
0.0765597 -0.27739 0.293591
0.0953819 -0.227359 0.194971
0.153274 -0.27739 -0.263975
0.0560184 -0.183796 0.00289554
0.0528409 -0.17991 -0.00657238
0.0557359 -0.18221 -0.00205681
0.0721173 0.242044 0.331384
0.0336302 -0.0721842 -0.343373
0.0538688 -0.103497 0.0114545
0.0537812 -0.179711 0.00991396
0.0564099 -0.184539 0.00976432
0.0542794 -0.18328 0.0186505
0.0557324 -0.142181 0.0441262
0.0557614 -0.149178 0.0446384
0.0472877 -0.27739 0.300052
0.0407449 -0.27739 0.235903
0.13221 -0.27739 0.271521
0.0555549 -0.227359 0.228994
0.08303 -0.27739 0.208411
0.056215 -0.18436 0.00634617
0.0525967 -0.176946 -0.0108484
0.0554697 -0.17991 -0.00672261
0.0668592 0.242044 0.331684
0.0283727 -0.0721842 -0.343074
0.0538989 -0.11459 0.0119777
0.0535753 -0.179542 0.00630498
0.0564099 -0.179711 0.00976432
0.0566123 -0.184345 0.0133141
0.0545631 -0.181461 0.0236231
0.0556791 -0.138377 0.0431918
0.0583942 -0.147453 0.0445543
0.0557423 -0.153817 0.0443008
0.0583907 -0.149178 0.0444881
0.0407449 -0.227359 0.235903
0.0697037 -0.227359 0.219796
0.0697037 -0.27739 0.219796
0.08303 -0.227359 0.208411
0.181914 -0.27739 0.23815
0.157954 -0.27739 0.256165
0.0560799 -0.179439 0.00397208
0.056204 -0.179542 0.00615534
0.0523804 -0.173384 -0.0146418
0.055226 -0.176946 -0.0109986
0.0556384 -0.176968 -0.00376559
0.0283727 0.242044 -0.343074
0.0524883 -0.123829 -0.0127561
0.0668592 -0.0721842 0.331684
0.0538885 -0.117946 0.0117939
0.0540555 -0.114741 0.0147225
0.0355112 -0.17982 0.0132834
0.0565421 -0.17982 0.0120839
0.0569081 -0.18328 0.0185002
0.0548281 -0.178928 0.028275
0.0556013 -0.134707 0.041824
0.0583611 -0.142181 0.043976
0.0556982 -0.157962 0.0435212
0.0555248 -0.149019 0.0404876
0.0581541 -0.149019 0.0403374
0.0555549 -0.27739 0.228994
0.0521965 -0.1693 -0.0178692
0.0550097 -0.173384 -0.0147915
0.0552487 -0.172576 -0.0106007
0.0523409 -0.126491 -0.0153344
0.0526507 -0.121456 -0.00991048
0.0537684 -0.117847 0.00969065
0.0565172 -0.117946 0.0116442
0.0542754 -0.115406 0.0185768
0.0565276 -0.11459 0.0118275
0.0350484 -0.179439 0.0051716
0.0569952 -0.178085 0.0200182
0.0571918 -0.181461 0.0234735
0.0550694 -0.175737 0.0325029
0.0554998 -0.13122 0.0400422
0.0583084 -0.138377 0.0430415
0.055599 -0.162972 0.0417863
0.0583716 -0.153817 0.0441511
0.0555143 -0.153061 0.040298
0.0581616 -0.146155 0.0404714
0.0520486 -0.164785 -0.0204608
0.0346069 -0.176968 -0.00256608
0.052211 -0.129412 -0.0176157
0.055117 -0.123829 -0.0129058
0.0528259 -0.119399 -0.00682934
0.0537684 -0.11459 0.00969065
0.0356759 -0.118102 0.0161725
0.0544894 -0.116513 0.0223285
0.0566843 -0.114741 0.0145728
0.0351162 -0.16488 0.00636241
0.0359636 -0.178085 0.0212177
0.0574574 -0.178928 0.0281248
0.0552811 -0.171958 0.0362163
0.0553757 -0.127963 0.0378699
0.05823 -0.134707 0.0416744
0.0554592 -0.167671 0.0393334
0.0583269 -0.157962 0.0433716
0.058143 -0.153061 0.0401483
0.0371301 -0.146155 0.0416709
0.0519401 -0.159936 -0.0223598
0.0548252 -0.1693 -0.0180194
0.0549366 -0.166561 -0.0160681
0.0342172 -0.172576 -0.00940121
0.0520991 -0.132559 -0.019575
0.0549702 -0.126491 -0.015484
0.0530132 -0.117681 -0.0035475
0.0552794 -0.121456 -0.0100601
0.0536217 -0.114735 0.00712051
0.0563971 -0.11459 0.009541
0.0352131 -0.117721 0.00806017
0.0567069 -0.118102 0.014973
0.0546947 -0.118047 0.025927
0.0569041 -0.115406 0.0184271
0.0348871 -0.163213 0.00234682
0.0353622 -0.165448 0.0106721
0.0356081 -0.16488 0.0149812
0.0363749 -0.174352 0.0284333
0.0574064 -0.174352 0.0272338
0.0576987 -0.175737 0.0323532
0.0579104 -0.171958 0.0360666
0.0552313 -0.124979 0.0353358
0.0581285 -0.13122 0.0398925
0.0582277 -0.162972 0.0416361
0.0581396 -0.15428 0.0400909
0.0370315 -0.138208 0.0399389
0.0346905 -0.160563 -0.00110149
0.051874 -0.15486 -0.0235245
0.0546773 -0.164785 -0.020611
0.0344126 -0.148771 -0.00597785
0.0520068 -0.135896 -0.0211899
0.0548397 -0.129412 -0.0177659
0.0550381 -0.128665 -0.0142944
0.0532098 -0.116321 -0.000102667
0.0554552 -0.119399 -0.00697899
0.0553803 -0.123189 -0.00828871
0.0534134 -0.115336 0.00346687
0.056251 -0.114735 0.00697087
0.0563971 -0.117847 0.009541
0.0562446 -0.117721 0.00686066
0.0353622 -0.132094 0.0106721
0.0361174 -0.120573 0.0239096
0.0548885 -0.119988 0.0293243
0.0571181 -0.116513 0.0221782
0.0664341 -0.163213 0.000547553
0.0666632 -0.16488 0.00456314
0.0358366 -0.163213 0.0189967
0.0360333 -0.160563 0.022445
0.0577492 -0.168876 0.0332389
0.0580879 -0.167671 0.0391831
0.0550677 -0.122309 0.0324744
0.0580044 -0.127963 0.0377197
0.0371086 -0.15428 0.041291
0.0580624 -0.138208 0.0387394
0.0345397 -0.157109 -0.00374703
0.0518508 -0.149667 -0.0239294
0.0545694 -0.159936 -0.0225094
0.0547243 -0.159334 -0.0197943
0.0339051 -0.166561 -0.014868
0.0343488 -0.123189 -0.00708919
0.0344445 -0.153087 -0.00541057
0.0519355 -0.139387 -0.0224422
0.0547278 -0.132559 -0.0197253
0.0556425 -0.117681 -0.00369773
0.0560422 -0.115336 0.00331664
0.0557916 -0.119457 -0.00107365
0.0351162 -0.132662 0.00636241
0.0356081 -0.132662 0.0149812
0.0571483 -0.120573 0.0227101
0.0358366 -0.134328 0.0189967
0.0573235 -0.118047 0.0257768
0.0662374 -0.160563 -0.00290076
0.0669091 -0.165448 0.0088728
0.0671551 -0.16488 0.0131819
0.0367177 -0.168876 0.0344384
0.0361846 -0.157109 0.0250912
0.0579992 -0.16203 0.037624
0.057697 -0.122309 0.0323248
0.05786 -0.124979 0.0351861
0.0368186 -0.130981 0.0362122
0.0369677 -0.16203 0.0388235
0.0518717 -0.144472 -0.0235657
0.0545027 -0.15486 -0.0236741
0.0546251 -0.151387 -0.0215269
0.0340066 -0.128665 -0.0130943
0.0344445 -0.144454 -0.00541057
0.0659596 -0.148771 -0.00777712
0.0519053 -0.141768 -0.0229682
0.0546361 -0.135896 -0.0213401
0.0547875 -0.135511 -0.0186795
0.0558386 -0.116321 -0.000252896
0.0347607 -0.119457 0.000125867
0.0348871 -0.134328 0.00234682
0.0666632 -0.132662 0.00456314
0.0669091 -0.132094 0.0088728
0.0365071 -0.124966 0.0307448
0.0360333 -0.136978 0.022445
0.0575172 -0.119988 0.029174
0.066466 -0.150127 0.00110265
0.0664341 -0.134328 0.000547553
0.0667542 -0.156188 0.00616056
0.0673842 -0.163213 0.0171975
0.0677316 -0.157109 0.0232919
0.0362792 -0.153087 0.0267541
0.0578501 -0.130981 0.0350127
0.0659921 -0.153087 -0.00720984
0.0660866 -0.157109 -0.00554688
0.0544795 -0.149667 -0.024079
0.0546437 -0.144551 -0.0212067
0.0336928 -0.159334 -0.0185948
0.033756 -0.135511 -0.0174799
0.0659921 -0.144454 -0.00720984
0.0545648 -0.139387 -0.0225918
0.0546739 -0.141768 -0.0206707
0.0671551 -0.132662 0.0131819
0.0575381 -0.124966 0.0295453
0.0361846 -0.140432 0.0250912
0.0673842 -0.134328 0.0171975
0.0664607 -0.148066 0.00101738
0.0665008 -0.152095 0.00171806
0.0662374 -0.136978 -0.00290076
0.0666504 -0.155233 0.00433576
0.0668691 -0.156639 0.00816922
0.0669863 -0.156553 0.0102266
0.0671974 -0.154832 0.0139301
0.0675808 -0.160563 0.0206458
0.0363117 -0.148771 0.027322
0.0678262 -0.153087 0.0249549
0.0520144 -0.144551 -0.021057
0.0545004 -0.144472 -0.0237159
0.0335936 -0.151387 -0.0203273
0.0345397 -0.140432 -0.00374703
0.0660866 -0.140432 -0.00554688
0.0545346 -0.141768 -0.0231185
0.0520451 -0.141768 -0.0205211
0.0346905 -0.136978 -0.00110149
0.06672 -0.141605 0.00555384
0.0664869 -0.146054 0.00146691
0.0669375 -0.139541 0.00937337
0.0362792 -0.144454 0.0267541
0.0675808 -0.136978 0.0206458
0.066564 -0.153836 0.00282071
0.0666736 -0.15389 0.00474121
0.0667571 -0.154787 0.00620464
0.0670982 -0.155937 0.0121912
0.0672769 -0.153315 0.015324
0.0677316 -0.140432 0.0232919
0.0678262 -0.144454 0.0249549
0.0678586 -0.148771 0.0255227
0.0520179 -0.143261 -0.0209967
0.0336157 -0.143261 -0.0199468
0.0666208 -0.142709 0.00381547
0.0668378 -0.139541 0.00762108
0.0665414 -0.144227 0.00242107
0.0671678 -0.142309 0.0134093
0.0669491 -0.140903 0.0095758
0.0665362 -0.149465 0.00233696
0.0666058 -0.152645 0.0035591
0.0668505 -0.155274 0.0078502
0.0669486 -0.155317 0.00956536
0.0670437 -0.154915 0.011233
0.0671295 -0.154093 0.0127405
0.0672009 -0.152909 0.0139841
0.0673314 -0.151487 0.0162781
0.0666887 -0.143449 0.00500455
0.066832 -0.140989 0.00751842
0.067064 -0.141353 0.011585
0.0672542 -0.143705 0.0149243
0.0668378 -0.148758 0.00762108
0.0669375 -0.148758 0.00937337
0.0673569 -0.149475 0.0167276
0.0665594 -0.151135 0.00273893
0.0666174 -0.144632 0.00376153
0.0667745 -0.142627 0.00651206
0.0672519 -0.151443 0.0148791
0.0672792 -0.149795 0.0153646
0.0665663 -0.146099 0.00286595
0.066832 -0.142384 0.00751842
0.0671446 -0.143651 0.0130044
0.0673175 -0.145447 0.016027
0.0672125 -0.144897 0.0141865
0.0669491 -0.14226 0.0095758
0.0673523 -0.147415 0.0166424
0.0665391 -0.147747 0.00238046
0.0670611 -0.142754 0.0115404
0.0672821 -0.148077 0.0154081
0.0672589 -0.146406 0.0150061
0.0669671 -0.142268 0.00989482
3 16 23 19
3 16 19 24
3 34 16 27
3 23 37 25
3 16 34 23
3 37 23 43
3 34 43 23
3 44 34 30
3 43 34 51
3 34 44 51
3 74 82 66
3 82 74 92
3 92 93 82
3 93 92 128
3 0 1 2
3 0 3 1
3 2 1 4
3 6 3 0
3 5 1 3
3 7 4 1
3 2 4 8
3 6 10 3
3 1 5 7
3 3 9 5
3 4 7 12
3 4 13 8
3 15 10 6
3 9 3 10
3 12 13 4
3 8 13 17
3 9 19 14
3 15 19 10
3 19 9 10
3 16 11 21
3 13 12 18
3 13 22 17
3 24 19 15
3 11 20 26
3 11 26 21
3 16 21 27
3 18 22 13
3 17 22 28
3 20 31 26
3 32 21 26
3 33 27 21
3 22 18 29
3 22 35 28
3 20 39 31
3 40 26 31
3 21 32 33
3 26 40 32
3 27 33 38
3 36 22 29
3 22 36 35
3 35 41 28
3 39 45 31
3 31 46 40
3 42 35 36
3 35 48 41
3 39 47 45
3 46 31 45
3 35 42 48
3 48 53 41
3 49 48 42
3 47 57 45
3 45 58 46
3 48 61 53
3 54 61 49
3 48 49 61
3 47 59 57
3 58 45 57
3 61 65 53
3 62 67 54
3 61 54 67
3 59 72 57
3 57 73 58
3 61 67 65
3 66 75 62
3 67 62 75
3 59 79 72
3 73 57 72
3 67 80 65
3 75 66 82
3 67 75 80
3 72 79 89
3 89 73 72
3 75 82 93
3 75 93 80
3 79 105 89
3 73 89 90
3 108 91 81
3 109 92 74
3 89 105 124
3 124 90 89
3 90 124 106
3 125 81 107
3 124 91 108
3 108 81 125
3 92 109 127
3 124 105 91
3 108 106 124
3 125 107 127
3 125 149 108
3 126 127 109
3 127 129 92
3 92 129 128
3 127 107 129
3 106 108 149
3 127 126 125
3 149 125 126
3 2 5 0
3 0 5 2
3 2 7 5
3 5 7 2
3 0 5 9
3 9 5 0
3 0 11 6
3 6 11 0
3 8 12 2
3 2 12 8
3 2 12 7
3 7 12 2
3 0 9 14
3 14 9 0
3 14 11 0
3 0 11 14
3 6 11 16
3 16 11 6
3 8 18 12
3 12 18 8
3 6 16 15
3 15 16 6
3 14 20 11
3 11 20 14
3 17 18 8
3 8 18 17
3 23 14 19
3 19 14 23
3 15 16 24
3 24 16 15
3 25 20 14
3 14 20 25
3 17 29 18
3 18 29 17
3 14 23 25
3 25 23 14
3 19 23 16
3 24 19 16
3 30 20 25
3 25 20 30
3 27 16 34
3 28 36 17
3 17 36 28
3 17 36 29
3 29 36 17
3 25 37 23
3 23 34 16
3 38 20 30
3 30 20 38
3 37 30 25
3 25 30 37
3 27 30 34
3 34 30 27
3 28 42 36
3 36 42 28
3 43 23 37
3 23 43 34
3 38 39 20
3 20 39 38
3 30 27 38
3 38 27 30
3 30 37 44
3 44 37 30
3 32 39 33
3 33 39 32
3 40 47 32
3 32 47 40
3 33 39 38
3 38 39 33
3 30 34 44
3 41 49 28
3 28 49 41
3 28 49 42
3 42 49 28
3 44 43 37
3 37 43 44
3 43 37 50
3 51 34 43
3 52 44 37
3 37 44 52
3 46 47 40
3 40 47 46
3 32 47 39
3 39 47 32
3 51 44 34
3 41 54 49
3 49 54 41
3 43 44 51
3 51 44 43
3 52 50 37
3 43 50 55
3 51 43 55
3 56 44 52
3 52 44 56
3 46 59 47
3 47 59 46
3 44 51 60
3 53 62 41
3 41 62 53
3 41 62 54
3 54 62 41
3 52 56 50
3 63 55 50
3 64 51 55
3 56 60 44
3 44 60 56
3 58 59 46
3 46 59 58
3 64 60 51
3 53 66 62
3 62 66 53
3 68 50 56
3 63 69 55
3 63 50 68
3 55 70 64
3 60 56 71
3 71 56 60
3 73 59 58
3 58 59 73
3 64 70 60
3 74 53 65
3 65 53 74
3 53 74 66
3 66 74 53
3 68 56 76
3 77 55 69
3 69 63 68
3 77 70 55
3 71 78 56
3 71 60 70
3 73 79 59
3 59 79 73
3 65 81 74
3 74 81 65
3 66 82 74
3 76 56 83
3 84 68 76
3 77 69 85
3 68 85 69
3 77 86 70
3 83 56 78
3 87 78 71
3 71 70 88
3 90 79 73
3 73 79 90
3 80 81 65
3 65 81 80
3 74 81 91
3 91 81 74
3 92 74 82
3 95 68 84
3 97 77 85
3 85 68 98
3 70 86 99
3 86 77 97
3 100 83 78
3 102 87 71
3 88 70 103
3 88 104 71
3 106 79 90
3 90 79 106
3 80 107 81
3 81 107 80
3 74 91 109
3 109 91 74
3 82 93 92
3 93 107 80
3 80 107 93
3 111 68 95
3 97 85 113
3 99 98 68
3 98 114 85
3 86 98 99
3 70 99 115
3 97 113 86
3 116 83 100
3 117 78 100
3 100 78 117
3 78 117 101
3 101 117 78
3 119 102 71
3 103 70 120
3 104 122 71
3 106 105 79
3 79 105 106
3 109 91 126
3 126 91 109
3 128 92 93
3 93 129 107
3 107 129 93
3 110 130 94
3 131 83 110
3 110 83 131
3 94 130 96
3 132 68 111
3 96 134 112
3 135 113 85
3 99 68 136
3 135 85 114
3 114 98 137
3 86 137 98
3 115 99 138
3 139 70 115
3 137 86 113
3 83 131 116
3 116 131 83
3 118 141 101
3 117 101 141
3 143 119 71
3 120 70 144
3 122 146 71
3 104 147 122
3 104 148 123
3 123 148 104
3 149 105 106
3 106 105 149
3 126 91 105
3 105 91 126
3 129 93 128
3 128 93 129
3 131 130 110
3 130 134 96
3 150 68 132
3 112 152 133
3 134 152 112
3 135 114 113
3 136 68 153
3 154 99 136
3 137 113 114
3 138 99 155
3 115 156 138
3 138 156 115
3 157 70 139
3 160 141 118
3 142 160 118
3 162 143 71
3 144 70 163
3 121 145 123
3 146 165 71
3 167 122 147
3 148 104 147
3 147 104 148
3 148 123 168
3 126 105 149
3 149 105 126
3 169 68 150
3 133 152 151
3 153 68 171
3 173 99 154
3 155 99 174
3 156 115 158
3 158 115 156
3 176 70 157
3 140 178 159
3 161 160 142
3 181 162 71
3 163 70 182
3 145 164 123
3 165 184 71
3 186 122 166
3 166 122 186
3 122 186 167
3 167 186 122
3 183 168 123
3 188 68 169
3 152 190 151
3 171 68 192
3 194 99 173
3 174 99 196
3 155 197 174
3 174 197 155
3 156 199 158
3 200 70 176
3 177 158 199
3 178 202 159
3 203 178 140
3 179 204 140
3 206 160 161
3 180 206 161
3 184 181 71
3 182 70 209
3 164 183 123
3 185 166 211
3 166 186 211
3 183 210 168
3 159 214 170
3 215 68 188
3 151 190 189
3 170 217 191
3 192 68 218
3 172 193 220
3 221 99 194
3 195 172 223
3 196 99 224
3 197 155 226
3 226 155 197
3 175 198 228
3 230 70 200
3 201 177 199
3 202 214 159
3 204 203 140
3 234 204 179
3 205 235 179
3 236 206 180
3 207 236 180
3 209 70 238
3 186 212 211
3 168 210 241
3 187 213 240
3 214 242 170
3 243 68 215
3 189 245 216
3 190 245 189
3 217 247 191
3 248 217 170
3 218 68 249
3 193 219 220
3 223 172 220
3 224 99 221
3 222 195 223
3 197 225 226
3 228 198 254
3 255 175 228
3 229 175 257
3 238 70 230
3 231 201 256
3 256 201 199
3 235 234 179
3 263 235 205
3 208 236 207
3 237 264 208
3 210 239 241
3 211 212 237
3 240 213 268
3 242 248 170
3 243 269 68
3 244 216 271
3 245 271 216
3 191 272 246
3 247 272 191
3 217 273 247
3 249 68 275
3 219 250 277
3 220 219 277
3 251 222 253
3 253 222 223
3 225 252 227
3 226 225 227
3 227 278 253
3 254 198 280
3 257 175 255
3 284 229 257
3 258 231 256
3 233 286 232
3 232 287 259
3 260 288 233
3 262 283 205
3 291 263 205
3 264 236 208
3 212 264 237
3 239 266 241
3 213 267 268
3 275 68 269
3 244 296 270
3 271 296 244
3 272 298 246
3 279 247 273
3 300 275 249
3 249 275 300
3 250 276 301
3 277 250 301
3 278 251 253
3 252 278 227
3 198 279 280
3 283 229 304
3 304 229 284
3 285 258 303
3 303 258 256
3 306 232 286
3 307 286 233
3 287 308 259
3 306 287 232
3 288 309 233
3 310 288 260
3 261 311 260
3 289 312 261
3 205 283 314
3 267 283 262
3 314 291 205
3 266 265 292
3 265 285 303
3 241 266 292
3 268 267 262
3 259 308 294
3 269 316 275
3 295 270 317
3 296 317 270
3 246 298 297
3 319 279 273
3 274 293 299
3 275 300 321
3 321 300 275
3 276 300 301
3 280 279 323
3 282 281 324
3 281 287 325
3 302 282 326
3 327 283 304
3 325 286 306
3 306 286 325
3 286 325 307
3 307 325 286
3 329 307 233
3 325 287 306
3 309 329 233
3 309 330 288
3 288 330 309
3 288 331 310
3 310 331 288
3 311 310 260
3 332 311 261
3 312 332 261
3 333 312 289
3 313 328 289
3 314 283 327
3 290 334 313
3 315 335 290
3 292 265 303
3 294 320 293
3 308 320 294
3 337 275 316
3 316 317 269
3 269 317 316
3 317 316 296
3 296 316 317
3 318 297 338
3 298 338 297
3 323 279 319
3 320 299 293
3 321 301 300
3 321 322 275
3 275 322 321
3 322 321 301
3 301 321 322
3 324 281 339
3 340 282 324
3 341 281 325
3 305 302 342
3 326 282 340
3 343 302 326
3 328 305 289
3 307 325 341
3 341 325 307
3 344 329 307
3 307 329 344
3 329 345 309
3 309 345 329
3 309 345 330
3 330 345 309
3 288 330 331
3 331 330 288
3 310 331 346
3 346 331 310
3 310 347 311
3 311 347 310
3 311 348 332
3 332 348 311
3 332 349 312
3 312 349 332
3 312 350 333
3 333 350 312
3 351 333 289
3 334 328 313
3 335 334 290
3 336 335 315
3 322 275 337
3 339 281 341
3 352 339 324
3 324 339 352
3 353 340 324
3 342 302 354
3 355 305 342
3 326 356 340
3 340 356 326
3 354 302 343
3 357 343 326
3 305 358 289
3 307 341 344
3 344 341 307
3 329 344 359
3 359 344 329
3 329 359 345
3 345 359 329
3 330 360 345
3 331 352 330
3 346 361 331
3 310 346 347
3 347 346 310
3 311 347 348
3 348 347 311
3 332 348 349
3 349 348 332
3 312 349 350
3 350 349 312
3 333 350 362
3 362 350 333
3 333 363 351
3 351 363 333
3 358 351 289
3 364 341 339
3 339 341 364
3 360 339 352
3 352 339 360
3 352 324 361
3 361 324 352
3 365 340 353
3 361 324 353
3 353 324 361
3 366 354 342
3 342 354 366
3 367 305 355
3 368 342 355
3 355 342 368
3 356 326 357
3 357 326 356
3 340 365 356
3 354 369 343
3 343 369 354
3 347 343 357
3 358 305 370
3 344 341 371
3 371 341 344
3 344 359 371
3 345 364 359
3 360 364 345
3 352 360 330
3 361 352 331
3 356 361 346
3 347 357 346
3 348 369 347
3 349 372 348
3 350 366 349
3 362 368 350
3 333 362 363
3 363 362 333
3 351 363 373
3 373 363 351
3 351 370 358
3 358 370 351
3 371 341 364
3 364 341 371
3 364 339 360
3 360 339 364
3 361 353 365
3 365 353 361
3 372 354 366
3 366 354 372
3 366 342 368
3 368 342 366
3 370 305 367
3 374 355 367
3 367 355 374
3 368 355 374
3 374 355 368
3 357 356 346
3 365 361 356
3 369 354 375
3 375 354 369
3 343 347 369
3 364 371 359
3 375 369 348
3 372 375 348
3 366 372 349
3 368 366 350
3 374 368 362
3 363 374 362
3 373 374 363
3 351 373 367
3 367 373 351
3 351 367 370
3 370 367 351
3 375 354 372
3 372 354 375
3 374 367 373
3 373 367 374
3 2 1 0
3 1 3 0
3 4 1 2
3 0 3 6
3 3 1 5
3 1 4 7
3 8 4 2
3 3 10 6
3 7 5 1
3 5 9 3
3 12 7 4
3 8 13 4
3 6 10 15
3 10 3 9
3 4 13 12
3 17 13 8
3 14 19 9
3 10 19 15
3 10 9 19
3 21 11 16
3 18 12 13
3 17 22 13
3 15 19 24
3 26 20 11
3 21 26 11
3 27 21 16
3 13 22 18
3 28 22 17
3 26 31 20
3 26 21 32
3 21 27 33
3 29 18 22
3 28 35 22
3 31 39 20
3 31 26 40
3 33 32 21
3 32 40 26
3 38 33 27
3 29 22 36
3 35 36 22
3 28 41 35
3 31 45 39
3 40 46 31
3 36 35 42
3 41 48 35
3 45 47 39
3 45 31 46
3 48 42 35
3 41 53 48
3 42 48 49
3 45 57 47
3 46 58 45
3 53 61 48
3 49 61 54
3 61 49 48
3 57 59 47
3 57 45 58
3 53 65 61
3 54 67 62
3 67 54 61
3 57 72 59
3 58 73 57
3 65 67 61
3 62 75 66
3 75 62 67
3 72 79 59
3 72 57 73
3 65 80 67
3 82 66 75
3 80 75 67
3 89 79 72
3 72 73 89
3 93 82 75
3 80 93 75
3 94 83 76
3 76 83 94
3 96 76 84
3 84 76 96
3 101 87 78
3 78 87 101
3 89 105 79
3 90 89 73
3 81 91 108
3 74 92 109
3 83 94 110
3 110 94 83
3 76 96 94
3 94 96 76
3 112 84 95
3 95 84 112
3 84 112 96
3 96 112 84
3 87 101 118
3 118 101 87
3 118 102 87
3 87 102 118
3 121 103 88
3 88 103 121
3 123 88 104
3 104 88 123
3 124 105 89
3 89 90 124
3 106 124 90
3 107 81 125
3 108 91 124
3 125 81 108
3 127 109 92
3 133 95 111
3 111 95 133
3 95 133 112
3 112 133 95
3 116 100 140
3 100 117 140
3 102 118 142
3 142 118 102
3 142 119 102
3 102 119 142
3 145 120 103
3 103 120 145
3 103 121 145
3 145 121 103
3 88 123 121
3 121 123 88
3 91 105 124
3 124 106 108
3 127 107 125
3 108 149 125
3 109 127 126
3 92 129 127
3 128 129 92
3 129 107 127
3 151 111 132
3 132 111 151
3 111 151 133
3 133 151 111
3 139 158 115
3 115 158 139
3 131 116 130
3 140 159 116
3 141 140 117
3 119 142 161
3 161 142 119
3 161 143 119
3 119 143 161
3 164 144 120
3 120 144 164
3 120 145 164
3 164 145 120
3 146 166 122
3 122 166 146
3 149 108 106
3 125 126 127
3 126 125 149
3 130 159 134
3 150 151 132
3 132 151 150
3 134 170 152
3 172 153 136
3 136 153 172
3 154 172 136
3 136 172 154
3 155 175 138
3 138 175 156
3 157 177 139
3 139 177 157
3 158 139 177
3 177 139 158
3 159 130 116
3 140 141 179
3 160 179 141
3 143 161 180
3 180 161 143
3 180 162 143
3 143 162 180
3 183 163 144
3 144 163 183
3 144 164 183
3 183 164 144
3 165 185 146
3 146 185 165
3 166 146 185
3 185 146 166
3 147 187 167
3 148 187 147
3 168 187 148
3 170 134 159
3 169 189 150
3 150 189 169
3 151 150 189
3 189 150 151
3 191 152 170
3 193 171 153
3 153 171 193
3 153 172 193
3 193 172 153
3 173 195 154
3 154 195 173
3 172 154 195
3 195 154 172
3 175 155 198
3 199 156 175
3 176 201 157
3 157 201 176
3 177 157 201
3 201 157 177
3 179 160 205
3 162 180 207
3 207 180 162
3 162 208 181
3 181 208 162
3 210 182 163
3 163 182 210
3 163 183 210
3 210 183 163
3 184 211 165
3 165 211 184
3 185 165 211
3 211 165 185
3 167 212 186
3 167 187 212
3 187 168 213
3 188 216 169
3 169 216 188
3 189 169 216
3 216 169 189
3 152 191 190
3 219 192 171
3 171 192 219
3 171 193 219
3 219 193 171
3 194 222 173
3 173 222 194
3 195 173 222
3 222 173 195
3 174 225 196
3 196 225 174
3 225 174 197
3 197 174 225
3 198 155 227
3 175 229 199
3 200 231 176
3 176 231 200
3 201 176 231
3 231 176 201
3 232 178 202
3 202 178 232
3 233 203 178
3 178 203 233
3 206 205 160
3 208 162 207
3 207 162 208
3 237 181 208
3 208 181 237
3 181 237 184
3 184 237 181
3 239 209 182
3 182 209 239
3 182 210 239
3 239 210 182
3 211 184 237
3 237 184 211
3 240 212 187
3 241 213 168
3 215 244 188
3 188 244 215
3 216 188 244
3 244 188 216
3 246 190 191
3 250 218 192
3 192 218 250
3 192 219 250
3 250 219 192
3 221 251 194
3 194 251 221
3 222 194 251
3 251 194 222
3 196 252 224
3 224 252 196
3 252 196 225
3 225 196 252
3 226 227 155
3 227 253 198
3 256 199 229
3 230 258 200
3 200 258 230
3 231 200 258
3 258 200 231
3 259 202 214
3 214 202 259
3 178 232 233
3 233 232 178
3 202 259 232
3 232 259 202
3 203 233 260
3 260 233 203
3 260 204 203
3 203 204 260
3 261 234 204
3 204 234 261
3 205 206 262
3 236 262 206
3 209 265 238
3 238 265 209
3 209 239 266
3 266 239 209
3 212 240 264
3 213 241 267
3 242 259 214
3 214 259 242
3 243 270 215
3 215 270 243
3 244 215 270
3 270 215 244
3 190 246 245
3 274 248 217
3 217 248 274
3 276 249 218
3 218 249 276
3 218 250 276
3 276 250 218
3 223 220 247
3 224 278 221
3 221 278 224
3 251 221 278
3 278 221 251
3 278 224 252
3 252 224 278
3 279 198 253
3 228 281 254
3 254 281 228
3 255 282 228
3 228 282 255
3 229 283 256
3 238 285 230
3 230 285 238
3 258 230 285
3 285 230 258
3 204 260 261
3 261 260 204
3 234 261 289
3 289 261 234
3 289 235 234
3 234 235 289
3 235 290 263
3 263 290 235
3 236 264 262
3 265 209 266
3 266 209 265
3 285 238 265
3 265 238 285
3 268 264 240
3 292 267 241
3 293 242 248
3 248 242 293
3 259 242 294
3 294 242 259
3 269 295 243
3 243 295 269
3 270 243 295
3 295 243 270
3 245 297 271
3 297 245 246
3 272 247 220
3 299 217 273
3 273 217 299
3 248 274 293
3 293 274 248
3 217 299 274
3 274 299 217
3 249 276 300
3 300 276 249
3 277 298 220
3 247 279 223
3 253 223 279
3 254 287 280
3 280 287 254
3 281 228 282
3 282 228 281
3 287 254 281
3 281 254 287
3 257 302 255
3 255 302 257
3 282 255 302
3 302 255 282
3 303 256 283
3 284 305 257
3 257 305 284
3 235 289 313
3 313 289 235
3 290 235 313
3 313 235 290
3 315 263 290
3 290 263 315
3 263 315 291
3 291 315 263
3 268 262 264
3 267 292 283
3 242 293 294
3 294 293 242
3 295 269 317
3 317 269 295
3 271 318 296
3 318 271 297
3 272 220 298
3 273 320 299
3 299 320 273
3 301 322 277
3 277 322 298
3 308 280 287
3 287 280 308
3 302 257 305
3 305 257 302
3 303 283 292
3 304 328 284
3 284 328 304
3 305 284 328
3 328 284 305
3 336 291 315
3 315 291 336
3 291 336 314
3 314 336 291
3 316 296 318
3 320 273 319
3 319 273 320
3 298 322 338
3 280 308 323
3 323 308 280
3 327 334 304
3 304 334 327
3 328 304 334
3 334 304 328
3 314 335 327
3 327 335 314
3 335 314 336
3 336 314 335
3 319 308 320
3 320 308 319
3 337 316 338
3 338 316 318
3 308 319 323
3 323 319 308
3 337 338 322
3 334 327 335
3 335 327 334
3 50 37 43
3 37 50 52
3 55 50 43
3 55 43 51
3 60 51 44
3 50 56 52
3 50 55 63
3 55 51 64
3 51 60 64
3 56 50 68
3 55 69 63
3 68 50 63
3 64 70 55
3 60 70 64
3 69 55 77
3 68 63 69
3 55 70 77
3 70 60 71
3 113 85 97
3 85 114 98
3 86 113 97
3 85 113 135
3 114 85 135
3 137 98 114
3 98 137 86
3 113 86 137
3 76 56 68
3 56 78 71
3 83 56 76
3 76 68 84
3 78 56 83
3 71 78 87
3 88 70 71
3 84 68 95
3 78 83 100
3 71 87 102
3 103 70 88
3 71 104 88
3 95 68 111
3 115 99 70
3 100 83 116
3 71 102 119
3 120 70 103
3 71 122 104
3 111 68 132
3 136 68 99
3 138 99 115
3 115 70 139
3 71 119 143
3 144 70 120
3 71 146 122
3 122 147 104
3 132 68 150
3 153 68 136
3 136 99 154
3 155 99 138
3 139 70 157
3 71 143 162
3 163 70 144
3 71 165 146
3 147 122 167
3 150 68 169
3 171 68 153
3 154 99 173
3 174 99 155
3 157 70 176
3 71 162 181
3 182 70 163
3 71 184 165
3 169 68 188
3 192 68 171
3 173 99 194
3 196 99 174
3 176 70 200
3 71 181 184
3 209 70 182
3 188 68 215
3 218 68 192
3 194 99 221
3 224 99 196
3 200 70 230
3 238 70 209
3 215 68 243
3 249 68 218
3 221 99 224
3 230 70 238
3 68 269 243
3 275 68 249
3 269 68 275
3 275 316 269
3 316 275 337
3 337 275 322
3 85 69 77
3 69 85 68
3 70 86 77
3 85 77 97
3 98 68 85
3 99 86 70
3 97 77 86
3 68 98 99
3 99 98 86
3 94 130 110
3 96 130 94
3 112 134 96
3 101 141 118
3 141 101 117
3 110 130 131
3 96 134 130
3 133 152 112
3 112 152 134
3 118 141 160
3 118 160 142
3 123 145 121
3 168 123 148
3 151 152 133
3 159 178 140
3 142 160 161
3 123 164 145
3 123 168 183
3 151 190 152
3 158 199 156
3 199 158 177
3 159 202 178
3 140 178 203
3 140 204 179
3 161 160 206
3 161 206 180
3 123 183 164
3 211 166 185
3 211 186 166
3 168 210 183
3 170 214 159
3 189 190 151
3 191 217 170
3 220 193 172
3 223 172 195
3 228 198 175
3 199 177 201
3 159 214 202
3 140 203 204
3 179 204 234
3 179 235 205
3 180 206 236
3 180 236 207
3 211 212 186
3 241 210 168
3 240 213 187
3 170 242 214
3 216 245 189
3 189 245 190
3 191 247 217
3 170 217 248
3 220 219 193
3 220 172 223
3 223 195 222
3 226 225 197
3 254 198 228
3 228 175 255
3 257 175 229
3 256 201 231
3 199 201 256
3 179 234 235
3 205 235 263
3 207 236 208
3 208 264 237
3 241 239 210
3 237 212 211
3 268 213 240
3 170 248 242
3 271 216 244
3 216 271 245
3 246 272 191
3 191 272 247
3 247 273 217
3 277 250 219
3 277 219 220
3 253 222 251
3 223 222 253
3 227 252 225
3 227 225 226
3 253 278 227
3 280 198 254
3 255 175 257
3 257 229 284
3 256 231 258
3 232 286 233
3 259 287 232
3 233 288 260
3 205 283 262
3 205 263 291
3 208 236 264
3 237 264 212
3 241 266 239
3 268 267 213
3 270 296 244
3 244 296 271
3 246 298 272
3 273 247 279
3 301 276 250
3 301 250 277
3 253 251 278
3 227 278 252
3 280 279 198
3 304 229 283
3 284 229 304
3 303 258 285
3 256 258 303
3 286 232 306
3 233 286 307
3 259 308 287
3 232 287 306
3 233 309 288
3 260 288 310
3 260 311 261
3 261 312 289
3 314 283 205
3 262 283 267
3 205 291 314
3 292 265 266
3 303 285 265
3 292 266 241
3 262 267 268
3 294 308 259
3 317 270 295
3 270 317 296
3 297 298 246
3 273 279 319
3 299 293 274
3 301 300 276
3 323 279 280
3 324 281 282
3 325 287 281
3 326 282 302
3 304 283 327
3 233 307 329
3 306 287 325
3 233 329 309
3 260 310 311
3 261 311 332
3 261 332 312
3 289 312 333
3 289 328 313
3 327 283 314
3 313 334 290
3 290 335 315
3 303 265 292
3 293 320 294
3 294 320 308
3 338 297 318
3 297 338 298
3 319 279 323
3 293 299 320
3 300 301 321
3 339 281 324
3 324 282 340
3 325 281 341
3 342 302 305
3 340 282 326
3 326 302 343
3 289 305 328
3 289 333 351
3 313 328 334
3 290 334 335
3 315 335 336
3 341 281 339
3 324 340 353
3 354 302 342
3 342 305 355
3 343 302 354
3 326 343 357
3 289 358 305
3 345 360 330
3 330 352 331
3 331 361 346
3 289 351 358
3 353 340 365
3 355 305 367
3 356 365 340
3 357 343 347
3 370 305 358
3 371 359 344
3 359 364 345
3 345 364 360
3 330 360 352
3 331 352 361
3 346 361 356
3 346 357 347
3 347 369 348
3 348 372 349
3 349 366 350
3 350 368 362
3 367 305 370
3 346 356 357
3 356 361 365
3 369 347 343
3 359 371 364
3 348 369 375
3 348 375 372
3 349 372 366
3 350 366 368
3 362 368 374
3 362 374 363
3 363 374 373
3 140 100 116
3 140 117 100
3 130 116 131
3 116 159 140
3 117 140 141
3 134 159 130
3 152 170 134
3 138 175 155
3 156 175 138
3 116 130 159
3 179 141 140
3 141 179 160
3 167 187 147
3 147 187 148
3 148 187 168
3 159 134 170
3 170 152 191
3 198 155 175
3 175 156 199
3 205 160 179
3 186 212 167
3 212 187 167
3 213 168 187
3 190 191 152
3 227 155 198
3 199 229 175
3 160 205 206
3 187 212 240
3 168 213 241
3 191 190 246
3 155 227 226
3 198 253 227
3 229 199 256
3 262 206 205
3 206 262 236
3 264 240 212
3 267 241 213
3 245 246 190
3 247 220 223
3 253 198 279
3 256 283 229
3 262 264 236
3 240 264 268
3 241 267 292
3 271 297 245
3 246 245 297
3 220 247 272
3 220 298 277
3 223 279 247
3 279 223 253
3 283 256 303
3 264 262 268
3 283 292 267
3 296 318 271
3 297 271 318
3 298 220 272
3 277 322 301
3 298 322 277
3 292 283 303
3 318 296 316
3 338 322 298
3 338 316 337
3 318 316 338
3 322 338 337
3 113 114 135
3 114 113 137
