ply
format ascii 1.0
comment Generated by PyMesh
element vertex 486
property double x
property double y
property double z
element face 1924
property list uchar int vertex_indices
end_header
0.277795 -0.285518 -0.158584
-0.0238317 -0.285518 0.176193
-0.0238317 -0.285518 -0.158584
0.277795 -0.285518 0.176193
-0.0238317 -0.265441 -0.158584
0.277795 -0.265441 0.176193
-0.0238317 -0.265441 0.176193
0.277795 -0.265441 -0.158584
-0.0273142 0.237273 0.226764
-0.0273142 0.135696 0.169192
-0.0273142 -0.136725 0.226764
-0.0273142 0.237273 -0.228478
-0.0273142 -0.136725 0.169192
0.0768072 0.237273 0.226764
-0.0273142 0.135696 0.157656
-0.0273142 -0.136725 -0.228478
-0.284584 -0.136725 0.169192
0.0768072 -0.136725 0.226764
0.0768072 0.237273 -0.228478
-0.0273142 0.135696 0.147712
-0.284584 0.0525851 0.169192
-0.0273142 -0.136725 -0.171655
0.0768072 -0.136725 -0.228478
-0.0273142 0.135696 0.111789
-0.0254673 0.129979 0.157656
-0.284584 0.0525851 0.157656
-0.284584 -0.136725 -0.171655
-0.0273142 0.135696 0.101718
-0.284584 0.0525851 0.147712
-0.0254673 0.129979 0.147712
-0.0273142 0.135696 -0.171655
-0.284584 -0.121358 0.156538
-0.284584 0.0525851 -0.171655
-0.0273142 0.135696 0.0620626
-0.0254673 0.129979 0.101718
-0.284584 0.0525851 0.111789
-0.282737 0.0468682 0.147712
-0.282737 0.0468682 0.157656
-0.0273142 0.135696 -0.156053
-0.284584 -0.0690637 0.156538
-0.284584 -0.121358 -0.157228
-0.0273142 0.135696 0.0525113
-0.284584 0.0525851 0.101718
-0.0254673 0.129979 0.111789
-0.284584 -0.0690637 -0.157228
-0.0273142 0.135696 -0.145952
-0.281783 -0.121358 0.156538
-0.0273142 0.135696 0.0131845
-0.0254673 0.129979 0.0620626
-0.284584 0.0525851 0.0620626
-0.282737 0.0468682 0.111789
-0.282737 0.0468682 0.101718
-0.0273142 0.135696 -0.111974
-0.0254673 0.129979 -0.145952
-0.284584 0.0525851 -0.156053
-0.281783 -0.0690637 0.156538
-0.281783 -0.121358 -0.157228
-0.281783 -0.0690637 -0.157228
-0.0273142 0.135696 0.00176956
-0.284584 0.0525851 0.0131845
-0.0254673 0.129979 0.0525113
-0.0273142 0.135696 -0.101195
-0.284584 0.0525851 -0.148233
-0.0254673 0.129979 -0.156053
-0.281783 -0.104664 -0.10131
-0.0273142 0.135696 -0.0470309
-0.0254673 0.129979 0.0131845
-0.284584 0.0525851 0.0525113
-0.282737 0.0468682 0.0620626
-0.0273142 0.135696 -0.0590144
-0.0254673 0.129979 -0.101195
-0.284584 0.0525851 -0.111974
-0.282737 0.0468682 -0.156053
-0.282737 0.0468682 -0.148233
-0.281783 -0.081785 -0.10131
-0.281783 -0.104664 -0.148468
-0.284584 0.0525851 -0.0470309
-0.0254673 0.129979 0.00176956
-0.282737 0.0468682 0.0131845
-0.282737 0.0468682 0.0525113
-0.284584 0.0525851 -0.101195
-0.0254673 0.129979 -0.111974
-0.281783 -0.081785 -0.148468
-0.256102 -0.104664 -0.10131
-0.0254673 0.129979 -0.0470309
-0.284584 0.0525851 0.00176956
-0.282737 0.0468682 0.00176956
-0.284584 0.0525851 -0.0590144
-0.282737 0.0468682 -0.111974
-0.282737 0.0468682 -0.101195
-0.256102 -0.081785 -0.148468
-0.256102 -0.081785 -0.10131
-0.256102 -0.104664 -0.148468
-0.0254673 0.129979 -0.0590144
-0.282737 0.0468682 -0.0470309
-0.256102 -0.0850649 -0.102571
-0.256102 -0.0999461 -0.103021
-0.282737 0.0468682 -0.0590144
-0.256102 -0.0869322 -0.102571
-0.256102 -0.0999461 -0.10839
-0.256102 -0.0869322 -0.14576
-0.256102 -0.0850649 -0.113309
-0.281783 -0.0869322 -0.102571
-0.256102 -0.0915136 -0.103021
-0.281783 -0.0999461 -0.103021
-0.256102 -0.0999461 -0.11376
-0.256102 -0.093381 -0.145691
-0.256102 -0.0850649 -0.14576
-0.256102 -0.0850649 -0.118795
-0.281783 -0.0869322 -0.113309
-0.281783 -0.0869322 -0.10794
-0.256102 -0.0869322 -0.10794
-0.256102 -0.093381 -0.103021
-0.281783 -0.0999461 -0.10839
-0.256102 -0.0980782 -0.103021
-0.256102 -0.0999461 -0.118595
-0.256102 -0.093381 -0.14551
-0.256102 -0.0915136 -0.145691
-0.256102 -0.0850649 -0.135021
-0.281783 -0.0869322 -0.14576
-0.256102 -0.0850649 -0.129535
-0.256102 -0.0869322 -0.113309
-0.256102 -0.0915136 -0.11376
-0.281783 -0.093381 -0.103021
-0.281783 -0.0999461 -0.11376
-0.256102 -0.0980782 -0.118595
-0.256102 -0.0999461 -0.123965
-0.256102 -0.0999461 -0.144908
-0.281783 -0.093381 -0.14551
-0.256102 -0.0869322 -0.140391
-0.281783 -0.093381 -0.145691
-0.281783 -0.0869322 -0.140391
-0.281783 -0.0869322 -0.129535
-0.281783 -0.093381 -0.11376
-0.281783 -0.093381 -0.10839
-0.256102 -0.093381 -0.10839
-0.256102 -0.0980782 -0.11376
-0.281783 -0.0999461 -0.118595
-0.256102 -0.0999461 -0.129334
-0.256102 -0.0999461 -0.139539
-0.256102 -0.0980782 -0.144908
-0.281783 -0.093381 -0.140321
-0.256102 -0.0869322 -0.135021
-0.256102 -0.0915136 -0.134952
-0.256102 -0.0869322 -0.129535
-0.281783 -0.0869322 -0.124165
-0.256102 -0.093381 -0.11376
-0.256102 -0.0869322 -0.118795
-0.281783 -0.0999461 -0.123965
-0.256102 -0.0999461 -0.134169
-0.281783 -0.0999461 -0.139539
-0.256102 -0.093381 -0.140321
-0.281783 -0.0999461 -0.144908
-0.281783 -0.0869322 -0.135021
-0.256102 -0.0915136 -0.129725
-0.281783 -0.0869322 -0.118795
-0.256102 -0.093381 -0.118986
-0.281783 -0.0999461 -0.129334
-0.256102 -0.093381 -0.129725
-0.281783 -0.0999461 -0.134169
-0.256102 -0.093381 -0.134952
-0.256102 -0.0980782 -0.134169
-0.281783 -0.093381 -0.134952
-0.256102 -0.0869322 -0.124165
-0.256102 -0.0980782 -0.129334
-0.256102 -0.0915136 -0.118986
-0.281783 -0.093381 -0.129725
-0.256102 -0.093381 -0.124356
-0.281783 -0.093381 -0.118986
-0.281783 -0.093381 -0.124356
0.278514 -0.192602 -0.29579
0.0768072 -0.192602 -0.262933
0.0768072 -0.192602 -0.29579
0.249289 -0.192602 -0.262933
0.0768072 0.285518 -0.29579
0.249289 -0.192602 0.26001
0.249289 -0.212212 -0.262933
0.0768072 -0.134704 -0.262933
0.278514 0.285518 -0.29579
0.278514 -0.192602 0.29579
-0.0282482 -0.212212 -0.262933
0.0768072 -0.192602 0.26001
0.0768072 0.253446 -0.26269
-0.0282482 -0.134704 -0.262933
0.278514 0.285518 0.29579
0.278514 -0.15833 -0.252288
0.0768072 -0.192602 0.29579
0.278514 -0.191659 -0.207427
0.249289 -0.212212 0.26001
0.0347988 -0.212212 -0.0677725
-0.0282482 -0.212212 0.26001
0.0768072 0.256588 -0.262276
0.0768072 0.250304 -0.262276
0.0768072 -0.134704 0.26001
0.0768072 0.285518 0.29579
0.278514 0.230031 0.223472
0.278514 -0.156511 -0.252101
0.278514 -0.160136 -0.251998
0.278514 -0.1914 -0.199441
0.278514 -0.189843 -0.215208
0.237424 -0.212212 0.00862357
0.0169637 -0.212212 -0.0429147
0.0584596 -0.212212 -0.0871677
0.0768072 0.253446 0.271046
-0.0282482 -0.134704 0.26001
0.0768072 0.259516 -0.261063
0.192135 0.256588 -0.262276
0.0768072 0.247376 -0.261063
0.192135 0.253446 -0.26269
0.0768072 0.241307 0.258907
0.0768072 0.24172 0.262049
0.0768072 0.265586 0.258907
0.278514 -0.129026 0.223472
0.278514 0.230031 -0.223831
0.278514 -0.154803 -0.25145
0.276179 -0.158392 -0.249949
0.278514 -0.161804 -0.251251
0.276179 -0.15959 -0.249723
0.274149 -0.183272 -0.198298
0.278514 -0.186075 -0.222254
0.274149 -0.184072 -0.204463
0.040126 -0.212212 0.097881
0.234408 -0.212212 0.0390689
0.232458 -0.212212 -0.0215647
0.00617066 -0.212212 -0.0142876
0.0169637 -0.264974 -0.0429147
0.0863338 -0.212212 -0.099778
0.0584596 -0.264974 -0.0871677
0.0768072 0.250304 0.270633
0.0768072 0.262031 -0.259134
0.192135 0.259516 -0.261063
0.0768072 0.244862 -0.259134
0.192135 0.250304 -0.262276
0.0768072 0.24172 0.255765
0.0768072 0.242933 0.264977
0.0768072 0.265173 0.262049
0.0768072 0.265173 0.255765
0.257503 -0.110622 0.202341
0.257503 0.21295 0.202341
0.278514 -0.143365 -0.229295
0.278514 -0.153322 -0.250378
0.276179 -0.157177 -0.249858
0.278514 -0.163223 -0.250097
0.276179 -0.160689 -0.249194
0.278514 -0.189082 -0.191794
0.274149 -0.180904 -0.192551
0.278514 -0.180611 -0.228085
0.274149 -0.18325 -0.210625
0.0207307 -0.212212 0.0742201
0.0649838 -0.212212 0.115716
0.223614 -0.212212 0.0676959
0.237424 -0.264974 0.00862357
0.219847 -0.212212 -0.0494389
0.232458 -0.264974 -0.0215647
0.00315431 -0.212212 0.0161577
0.00617066 -0.264974 -0.0142876
0.0347988 -0.264974 -0.0677725
0.116522 -0.212212 -0.104744
0.0863338 -0.264974 -0.099778
0.171124 0.250304 0.270633
0.0768072 0.247376 0.26942
0.0768072 0.256588 0.270633
0.0768072 0.26396 -0.25662
0.192135 0.262031 -0.259134
0.192135 0.247376 -0.261063
0.0768072 0.242933 -0.25662
0.171124 0.24172 0.262049
0.171124 0.241307 0.258907
0.0768072 0.242933 0.252837
0.0768072 0.244862 0.267491
0.171124 0.242933 0.264977
0.0768072 0.26396 0.264977
0.171124 0.265586 0.258907
0.0768072 0.26396 0.252837
0.171124 0.265173 0.255765
0.257503 -0.110622 -0.207609
0.257503 0.21295 -0.207609
0.278514 -0.129026 -0.223831
0.278514 -0.150411 -0.233063
0.278514 -0.152168 -0.24896
0.276179 -0.156026 -0.249455
0.278514 -0.164294 -0.248615
0.276179 -0.161612 -0.248399
0.278514 -0.184865 -0.185007
0.284584 -0.185012 -0.204463
0.284584 -0.184212 -0.198298
0.278514 -0.173825 -0.232303
0.274149 -0.18086 -0.216364
0.284584 -0.184189 -0.210625
0.00812048 -0.212212 0.046346
0.040126 -0.264974 0.097881
0.0936108 -0.212212 0.126509
0.205779 -0.212212 0.0925537
0.234408 -0.264974 0.0390689
0.200452 -0.212212 -0.0730997
0.219847 -0.264974 -0.0494389
0.00315431 -0.264974 0.0161577
0.0207307 -0.264974 0.0742201
0.00812048 -0.264974 0.046346
0.146967 -0.212212 -0.101728
0.116522 -0.264974 -0.104744
0.0649838 -0.264974 0.115716
0.171124 0.253446 0.271046
0.171124 0.247376 0.26942
0.0768072 0.259516 0.26942
0.0768072 0.265173 -0.253692
0.192135 0.244862 -0.259134
0.0768072 0.24172 -0.253692
0.192135 0.242933 -0.25662
0.171124 0.24172 0.255765
0.0768072 0.244862 0.250323
0.171124 0.244862 0.267491
0.0768072 0.262031 0.267491
0.171124 0.265173 0.262049
0.0768072 0.262031 0.250323
0.171124 0.26396 0.252837
0.278514 -0.137534 -0.223831
0.274149 -0.154054 -0.227409
0.278514 -0.158192 -0.234879
0.278514 -0.151421 -0.247291
0.276179 -0.15502 -0.248768
0.278514 -0.164946 -0.246907
0.276179 -0.162299 -0.247393
0.274149 -0.177128 -0.187612
0.278514 -0.179034 -0.179544
0.284584 -0.181843 -0.192551
0.278514 -0.166178 -0.23462
0.274149 -0.177067 -0.221288
0.284584 -0.1818 -0.216364
0.124056 -0.212212 0.129525
0.182119 -0.212212 0.111949
0.223614 -0.264974 0.0676959
0.175594 -0.212212 -0.0909348
0.200452 -0.264974 -0.0730997
0.146967 -0.264974 -0.101728
0.0936108 -0.264974 0.126509
0.171124 0.256588 0.270633
0.171124 0.259516 0.26942
0.0768072 0.265586 -0.25055
0.192135 0.26396 -0.25662
0.0768072 0.241307 -0.25055
0.192135 0.24172 -0.253692
0.171124 0.242933 0.252837
0.0768072 0.247376 0.248393
0.171124 0.26396 0.264977
0.0768072 0.259516 0.248393
0.171124 0.262031 0.250323
0.278514 -0.13074 -0.201412
0.278514 -0.133316 -0.217045
0.274149 -0.148315 -0.22502
0.274149 -0.160216 -0.228232
0.278514 -0.157933 -0.238286
0.278514 -0.151131 -0.245486
0.276179 -0.154225 -0.247844
0.278514 -0.165133 -0.245089
0.276179 -0.162702 -0.246242
0.274149 -0.172204 -0.183819
0.278514 -0.171988 -0.175776
0.284584 -0.161662 -0.19835
0.284584 -0.164913 -0.204986
0.284584 -0.158581 -0.197728
0.278514 -0.164095 -0.241615
0.274149 -0.172128 -0.225063
0.284584 -0.178007 -0.221288
0.284584 -0.140556 -0.216288
0.154244 -0.212212 0.124559
0.182119 -0.264974 0.111949
0.205779 -0.264974 0.0925537
0.175594 -0.264974 -0.0909348
0.124056 -0.264974 0.129525
0.171124 0.262031 0.267491
0.0768072 0.265173 -0.247408
0.192135 0.265173 -0.253692
0.0768072 0.24172 -0.247408
0.192135 0.241307 -0.25055
0.171124 0.244862 0.250323
0.171124 0.247376 0.248393
0.0768072 0.250304 0.24718
0.0768072 0.256588 0.24718
0.278514 -0.132556 -0.193631
0.278514 -0.130999 -0.209398
0.274149 -0.143391 -0.221227
0.284584 -0.149255 -0.22502
0.284584 -0.154994 -0.227409
0.274149 -0.166381 -0.227432
0.278514 -0.159751 -0.238473
0.278514 -0.156128 -0.238576
0.278514 -0.151318 -0.243668
0.276179 -0.153696 -0.246746
0.278514 -0.164843 -0.243283
0.276179 -0.162794 -0.245027
0.284584 -0.178068 -0.187612
0.284584 -0.173143 -0.183819
0.274149 -0.166465 -0.18143
0.278514 -0.164207 -0.17396
0.284584 -0.160163 -0.197836
0.284584 -0.162977 -0.199233
0.284584 -0.16502 -0.203406
0.284584 -0.164399 -0.206486
0.284584 -0.13821 -0.198214
0.278514 -0.162941 -0.240196
0.284584 -0.173068 -0.225063
0.284584 -0.144331 -0.221227
0.284584 -0.138187 -0.210541
0.154244 -0.264974 0.124559
0.0768072 0.26396 -0.24448
0.192135 0.265586 -0.25055
0.0768072 0.242933 -0.24448
0.192135 0.24172 -0.247408
0.171124 0.250304 0.24718
0.0768072 0.253446 0.246767
0.171124 0.259516 0.248393
0.278514 -0.136324 -0.186585
0.274149 -0.136447 -0.204376
0.274149 -0.137247 -0.210541
0.274149 -0.139616 -0.216288
0.284584 -0.161156 -0.228232
0.278514 -0.16146 -0.239125
0.276179 -0.157871 -0.240625
0.276179 -0.156673 -0.240852
0.278514 -0.154459 -0.239324
0.278514 -0.151969 -0.241959
0.276179 -0.15347 -0.245548
0.276179 -0.162567 -0.243829
0.284584 -0.140599 -0.192475
0.284584 -0.167405 -0.18143
0.274149 -0.160303 -0.180607
0.278514 -0.156221 -0.174219
0.284584 -0.157027 -0.198033
0.284584 -0.164019 -0.200428
0.284584 -0.155604 -0.198731
0.284584 -0.164715 -0.20185
0.284584 -0.152904 -0.204167
0.284584 -0.163515 -0.207801
0.284584 -0.153209 -0.205722
0.276179 -0.162039 -0.24273
0.276179 -0.161244 -0.241807
0.284584 -0.167321 -0.227432
0.284584 -0.159343 -0.209844
0.192135 0.265173 -0.247408
0.0768072 0.244862 -0.241966
0.192135 0.242933 -0.24448
0.171124 0.256588 0.24718
0.171124 0.253446 0.246767
0.0768072 0.253446 -0.23841
0.278514 -0.141788 -0.180754
0.274149 -0.13727 -0.198214
0.276179 -0.159086 -0.240717
0.276179 -0.155575 -0.24138
0.278514 -0.153041 -0.240478
0.276179 -0.153561 -0.244333
0.284584 -0.144392 -0.187551
0.284584 -0.149331 -0.183775
0.284584 -0.161243 -0.180607
0.274149 -0.154139 -0.181407
0.278514 -0.148574 -0.176537
0.284584 -0.15441 -0.199772
0.284584 -0.153012 -0.202586
0.284584 -0.162321 -0.208842
0.284584 -0.153906 -0.207145
0.276179 -0.160236 -0.24112
0.284584 -0.160898 -0.209539
0.284584 -0.157762 -0.209736
0.0768072 0.262031 -0.241966
0.192135 0.26396 -0.24448
0.0768072 0.247376 -0.240037
0.192135 0.244862 -0.241966
0.0768072 0.256588 -0.238824
0.0768072 0.250304 -0.238824
0.274149 -0.139659 -0.192475
0.284584 -0.137387 -0.204376
0.276179 -0.154651 -0.242175
0.276179 -0.153964 -0.243182
0.284584 -0.155078 -0.181407
0.274149 -0.148391 -0.183775
0.284584 -0.153526 -0.201087
0.284584 -0.154948 -0.208339
0.284584 -0.156263 -0.209223
0.0768072 0.259516 -0.240037
0.192135 0.253446 -0.23841
0.192135 0.250304 -0.238824
0.274149 -0.143452 -0.187551
0.192135 0.262031 -0.241966
0.192135 0.259516 -0.240037
0.192135 0.247376 -0.240037
0.192135 0.256588 -0.238824
3 0 1 2
3 1 0 3
3 2 1 0
3 3 0 1
3 1 4 2
3 2 4 1
3 4 0 2
3 2 0 4
3 0 5 3
3 3 5 0
3 5 1 3
3 3 1 5
3 4 1 6
3 6 1 4
3 0 4 7
3 7 4 0
3 5 0 7
3 7 0 5
3 1 5 6
3 6 5 1
3 5 4 6
3 6 4 5
3 4 5 7
3 7 5 4
3 8 9 10
3 9 8 11
3 10 9 8
3 11 8 9
3 12 10 9
3 9 10 12
3 10 13 8
3 8 13 10
3 13 11 8
3 8 11 13
3 9 11 14
3 14 11 9
3 12 15 10
3 10 15 12
3 9 16 12
3 12 16 9
3 13 10 17
3 17 10 13
3 11 13 18
3 18 13 11
3 14 11 19
3 19 11 14
3 14 20 9
3 9 20 14
3 15 12 21
3 21 12 15
3 10 15 22
3 22 15 10
3 16 9 20
3 20 9 16
3 16 21 12
3 12 21 16
3 10 22 17
3 17 22 10
3 22 11 18
3 18 11 22
3 19 11 23
3 23 11 19
3 19 24 14
3 14 24 19
3 20 14 25
3 25 14 20
3 21 11 15
3 15 11 21
3 11 22 15
3 15 22 11
3 25 16 20
3 20 16 25
3 21 16 26
3 26 16 21
3 23 11 27
3 27 11 23
3 23 28 19
3 19 28 23
3 24 19 29
3 29 19 24
3 24 25 14
3 14 25 24
3 30 11 21
3 21 11 30
3 16 25 31
3 31 25 16
3 16 31 26
3 26 31 16
3 32 21 26
3 26 21 32
3 27 11 33
3 33 11 27
3 34 23 27
3 27 23 34
3 28 23 35
3 35 23 28
3 28 29 19
3 19 29 28
3 36 24 29
3 29 24 36
3 25 24 37
3 37 24 25
3 38 11 30
3 30 11 38
3 21 32 30
3 30 32 21
3 31 25 39
3 39 25 31
3 26 31 40
3 40 31 26
3 26 40 32
3 32 40 26
3 33 11 41
3 41 11 33
3 33 42 27
3 27 42 33
3 23 34 43
3 43 34 23
3 42 34 27
3 27 34 42
3 43 35 23
3 23 35 43
3 44 28 35
3 35 28 44
3 29 28 36
3 36 28 29
3 24 36 37
3 37 36 24
3 36 25 37
3 37 25 36
3 45 11 38
3 38 11 45
3 32 38 30
3 30 38 32
3 28 39 25
3 25 39 28
3 39 46 31
3 31 46 39
3 46 40 31
3 31 40 46
3 44 32 40
3 40 32 44
3 41 11 47
3 47 11 41
3 41 48 33
3 33 48 41
3 42 33 49
3 49 33 42
3 34 50 43
3 43 50 34
3 34 42 51
3 51 42 34
3 35 43 50
3 50 43 35
3 39 28 44
3 44 28 39
3 44 35 42
3 42 35 44
3 25 36 28
3 28 36 25
3 52 11 45
3 45 11 52
3 38 53 45
3 45 53 38
3 38 32 54
3 54 32 38
3 46 39 55
3 55 39 46
3 40 46 56
3 56 46 40
3 44 54 32
3 32 54 44
3 40 57 44
3 44 57 40
3 47 11 58
3 58 11 47
3 59 41 47
3 47 41 59
3 48 41 60
3 60 41 48
3 48 49 33
3 33 49 48
3 44 42 49
3 49 42 44
3 50 34 51
3 51 34 50
3 35 51 42
3 42 51 35
3 51 35 50
3 50 35 51
3 57 39 44
3 44 39 57
3 61 11 52
3 52 11 61
3 62 52 45
3 45 52 62
3 53 38 63
3 63 38 53
3 53 62 45
3 45 62 53
3 54 63 38
3 38 63 54
3 39 57 55
3 55 57 39
3 57 46 55
3 55 46 57
3 46 64 56
3 56 64 46
3 57 40 56
3 56 40 57
3 44 62 54
3 54 62 44
3 58 11 65
3 65 11 58
3 58 66 47
3 47 66 58
3 41 59 67
3 67 59 41
3 66 59 47
3 47 59 66
3 67 60 41
3 41 60 67
3 60 68 48
3 48 68 60
3 49 48 68
3 68 48 49
3 44 49 67
3 67 49 44
3 69 11 61
3 61 11 69
3 52 70 61
3 61 70 52
3 52 62 71
3 71 62 52
3 72 53 63
3 63 53 72
3 62 53 73
3 73 53 62
3 63 54 72
3 72 54 63
3 46 57 74
3 74 57 46
3 64 46 74
3 74 46 64
3 56 64 75
3 75 64 56
3 56 75 57
3 57 75 56
3 44 71 62
3 62 71 44
3 62 72 54
3 54 72 62
3 65 11 69
3 69 11 65
3 76 58 65
3 65 58 76
3 66 58 77
3 77 58 66
3 44 67 59
3 59 67 44
3 59 66 78
3 78 66 59
3 60 67 79
3 79 67 60
3 68 60 79
3 79 60 68
3 79 49 68
3 68 49 79
3 49 79 67
3 67 79 49
3 80 69 61
3 61 69 80
3 70 52 81
3 81 52 70
3 70 80 61
3 61 80 70
3 71 81 52
3 52 81 71
3 53 72 73
3 73 72 53
3 72 62 73
3 73 62 72
3 74 57 82
3 82 57 74
3 74 83 64
3 64 83 74
3 83 75 64
3 64 75 83
3 82 57 75
3 75 57 82
3 44 80 71
3 71 80 44
3 69 84 65
3 65 84 69
3 58 76 85
3 85 76 58
3 84 76 65
3 65 76 84
3 85 77 58
3 58 77 85
3 86 66 77
3 77 66 86
3 44 59 85
3 85 59 44
3 66 86 78
3 78 86 66
3 86 59 78
3 78 59 86
3 69 80 87
3 87 80 69
3 88 70 81
3 81 70 88
3 80 70 89
3 89 70 80
3 81 71 88
3 88 71 81
3 90 74 82
3 82 74 90
3 83 74 91
3 91 74 83
3 75 83 92
3 92 83 75
3 75 90 82
3 82 90 75
3 44 87 80
3 80 87 44
3 80 88 71
3 71 88 80
3 84 69 93
3 93 69 84
3 44 85 76
3 76 85 44
3 76 84 94
3 94 84 76
3 77 85 86
3 86 85 77
3 59 86 85
3 85 86 59
3 87 93 69
3 69 93 87
3 70 88 89
3 89 88 70
3 88 80 89
3 89 80 88
3 74 90 91
3 91 90 74
3 91 95 83
3 83 95 91
3 83 96 92
3 92 96 83
3 90 75 92
3 92 75 90
3 44 76 87
3 87 76 44
3 97 84 93
3 93 84 97
3 84 97 94
3 94 97 84
3 97 76 94
3 94 76 97
3 93 87 97
3 97 87 93
3 95 91 90
3 90 91 95
3 98 83 95
3 95 83 98
3 96 83 98
3 98 83 96
3 92 96 99
3 99 96 92
3 92 100 90
3 90 100 92
3 76 97 87
3 87 97 76
3 95 90 101
3 101 90 95
3 95 102 98
3 98 102 95
3 96 98 103
3 103 98 96
3 104 99 96
3 96 99 104
3 92 99 105
3 105 99 92
3 92 106 100
3 100 106 92
3 107 90 100
3 100 90 107
3 101 90 108
3 108 90 101
3 109 95 101
3 101 95 109
3 95 110 102
3 102 110 95
3 102 111 98
3 98 111 102
3 111 103 98
3 98 103 111
3 96 103 112
3 112 103 96
3 99 104 113
3 113 104 99
3 114 104 96
3 96 104 114
3 113 105 99
3 99 105 113
3 92 105 115
3 115 105 92
3 92 116 106
3 106 116 92
3 117 100 106
3 106 100 117
3 118 90 107
3 107 90 118
3 107 100 119
3 119 100 107
3 108 90 120
3 120 90 108
3 101 108 121
3 121 108 101
3 110 95 109
3 109 95 110
3 101 121 109
3 109 121 101
3 111 102 110
3 110 102 111
3 103 111 122
3 122 111 103
3 103 123 112
3 112 123 103
3 96 112 114
3 114 112 96
3 114 113 104
3 104 113 114
3 105 113 124
3 124 113 105
3 115 105 125
3 125 105 115
3 92 115 126
3 126 115 92
3 92 127 116
3 116 127 92
3 128 106 116
3 116 106 128
3 117 129 100
3 100 129 117
3 117 106 130
3 130 106 117
3 120 90 118
3 118 90 120
3 119 118 107
3 107 118 119
3 100 131 119
3 119 131 100
3 132 108 120
3 120 108 132
3 121 108 122
3 122 108 121
3 121 110 109
3 109 110 121
3 110 121 111
3 111 121 110
3 122 111 121
3 121 111 122
3 133 103 122
3 122 103 133
3 103 134 123
3 123 134 103
3 123 135 112
3 112 135 123
3 135 114 112
3 112 114 135
3 113 114 124
3 124 114 113
3 136 105 124
3 124 105 136
3 105 108 125
3 125 108 105
3 125 137 115
3 115 137 125
3 137 126 115
3 115 126 137
3 92 126 138
3 138 126 92
3 92 139 127
3 127 139 92
3 140 116 127
3 127 116 140
3 106 128 130
3 130 128 106
3 116 141 128
3 128 141 116
3 117 142 129
3 129 142 117
3 131 100 129
3 129 100 131
3 130 143 117
3 117 143 130
3 120 118 144
3 144 118 120
3 131 118 119
3 119 118 131
3 145 108 132
3 132 108 145
3 120 144 132
3 132 144 120
3 122 108 146
3 146 108 122
3 134 103 133
3 133 103 134
3 122 146 133
3 133 146 122
3 135 123 134
3 134 123 135
3 114 135 136
3 136 135 114
3 124 114 136
3 136 114 124
3 136 108 105
3 105 108 136
3 147 125 108
3 108 125 147
3 125 148 137
3 137 148 125
3 126 137 148
3 148 137 126
3 148 138 126
3 126 138 148
3 92 138 149
3 149 138 92
3 92 149 139
3 139 149 92
3 150 127 139
3 139 127 150
3 140 151 116
3 116 151 140
3 140 127 152
3 152 127 140
3 128 143 130
3 130 143 128
3 141 116 151
3 151 116 141
3 141 143 128
3 128 143 141
3 143 142 117
3 117 142 143
3 153 129 142
3 142 129 153
3 129 153 131
3 131 153 129
3 144 118 154
3 154 118 144
3 118 131 153
3 153 131 118
3 108 145 155
3 155 145 108
3 144 145 132
3 132 145 144
3 146 108 136
3 136 108 146
3 146 134 133
3 133 134 146
3 134 146 135
3 135 146 134
3 136 135 146
3 146 135 136
3 156 125 147
3 147 125 156
3 108 155 147
3 147 155 108
3 148 125 157
3 157 125 148
3 138 148 157
3 157 148 138
3 149 138 158
3 158 138 149
3 159 139 149
3 149 139 159
3 127 150 152
3 152 150 127
3 139 159 150
3 150 159 139
3 140 160 151
3 151 160 140
3 152 161 140
3 140 161 152
3 151 162 141
3 141 162 151
3 143 141 162
3 162 141 143
3 142 143 118
3 118 143 142
3 118 153 142
3 142 153 118
3 154 118 158
3 158 118 154
3 154 163 144
3 144 163 154
3 163 155 145
3 145 155 163
3 145 144 163
3 163 144 145
3 125 156 164
3 164 156 125
3 156 147 165
3 165 147 156
3 155 163 147
3 147 163 155
3 157 125 164
3 164 125 157
3 164 138 157
3 157 138 164
3 164 158 138
3 138 158 164
3 149 158 161
3 161 158 149
3 161 159 149
3 149 159 161
3 150 161 152
3 152 161 150
3 161 150 159
3 159 150 161
3 161 160 140
3 140 160 161
3 162 151 160
3 160 151 162
3 143 162 160
3 160 162 143
3 161 118 143
3 143 118 161
3 158 118 161
3 161 118 158
3 154 158 166
3 166 158 154
3 165 163 154
3 154 163 165
3 164 156 167
3 167 156 164
3 163 165 147
3 147 165 163
3 165 168 156
3 156 168 165
3 164 167 158
3 158 167 164
3 160 161 143
3 143 161 160
3 158 169 166
3 166 169 158
3 166 165 154
3 154 165 166
3 168 167 156
3 156 167 168
3 165 169 168
3 168 169 165
3 169 158 167
3 167 158 169
3 169 165 166
3 166 165 169
3 167 168 169
3 169 168 167
3 170 171 172
3 171 170 173
3 172 171 170
3 173 170 171
3 171 174 172
3 172 174 171
3 174 170 172
3 172 170 174
3 173 170 175
3 175 170 173
3 173 176 171
3 171 176 173
3 171 175 173
3 173 175 171
3 177 174 171
3 171 174 177
3 170 174 178
3 178 174 170
3 179 175 170
3 170 175 179
3 175 176 173
3 173 176 175
3 180 171 176
3 176 171 180
3 175 171 181
3 181 171 175
3 182 174 177
3 177 174 182
3 171 183 177
3 177 183 171
3 181 177 171
3 171 177 181
3 174 184 178
3 178 184 174
3 178 185 170
3 170 185 178
3 186 175 179
3 179 175 186
3 187 179 170
3 170 179 187
3 176 175 188
3 188 175 176
3 171 180 183
3 183 180 171
3 189 180 176
3 176 180 189
3 175 186 181
3 181 186 175
3 190 175 181
3 181 175 190
3 191 174 182
3 182 174 191
3 177 192 182
3 182 192 177
3 183 193 177
3 177 193 183
3 177 181 193
3 193 181 177
3 184 174 194
3 194 174 184
3 184 195 178
3 178 195 184
3 178 196 185
3 185 196 178
3 197 170 185
3 185 170 197
3 184 186 179
3 179 186 184
3 198 179 187
3 187 179 198
3 187 170 199
3 199 170 187
3 175 190 188
3 188 190 175
3 188 200 176
3 176 200 188
3 190 183 180
3 180 183 190
3 201 180 189
3 189 180 201
3 189 176 202
3 202 176 189
3 203 181 186
3 186 181 203
3 190 181 204
3 204 181 190
3 205 174 191
3 191 174 205
3 177 207 192
3 192 207 177
3 193 183 204
3 204 183 193
3 193 209 177
3 177 209 193
3 181 210 193
3 193 210 181
3 204 181 193
3 193 181 204
3 211 194 174
3 174 194 211
3 186 184 194
3 194 184 186
3 195 184 212
3 212 184 195
3 178 195 213
3 213 195 178
3 178 214 196
3 196 214 178
3 216 170 197
3 197 170 216
3 179 212 184
3 184 212 179
3 212 179 198
3 198 179 212
3 199 170 219
3 219 170 199
3 190 221 188
3 188 221 190
3 188 222 200
3 200 222 188
3 223 176 200
3 200 176 223
3 183 190 204
3 204 190 183
3 180 224 190
3 190 224 180
3 224 180 201
3 201 180 224
3 202 176 226
3 226 176 202
3 181 203 228
3 228 203 181
3 194 203 186
3 186 203 194
3 229 174 205
3 205 174 229
3 177 231 207
3 207 231 177
3 209 193 210
3 210 193 209
3 177 209 233
3 233 209 177
3 181 234 210
3 210 234 181
3 235 194 211
3 211 194 235
3 211 174 236
3 236 174 211
3 237 195 212
3 212 195 237
3 238 213 195
3 195 213 238
3 178 213 239
3 239 213 178
3 178 240 214
3 214 240 178
3 242 170 216
3 216 170 242
3 212 198 244
3 244 198 212
3 219 170 246
3 246 170 219
3 221 190 248
3 248 190 221
3 188 221 249
3 249 221 188
3 188 250 222
3 222 250 188
3 252 176 223
3 223 176 252
3 190 224 254
3 254 224 190
3 226 176 257
3 257 176 226
3 181 228 260
3 260 228 181
3 203 194 261
3 261 194 203
3 262 174 229
3 229 174 262
3 232 206 208
3 208 206 232
3 264 230 206
3 206 230 264
3 177 265 231
3 231 265 177
3 177 233 268
3 268 233 177
3 181 269 234
3 234 269 181
3 271 194 235
3 235 194 271
3 236 174 273
3 273 174 236
3 195 237 238
3 238 237 195
3 212 275 237
3 237 275 212
3 213 238 276
3 276 238 213
3 277 239 213
3 213 239 277
3 178 239 278
3 278 239 178
3 178 279 240
3 240 279 178
3 215 217 241
3 281 170 242
3 242 170 281
3 217 243 280
3 212 244 283
3 283 244 212
3 246 170 286
3 286 170 246
3 248 190 289
3 289 190 248
3 188 249 291
3 291 249 188
3 188 292 250
3 250 292 188
3 294 176 252
3 252 176 294
3 289 190 254
3 254 190 289
3 297 225 256
3 256 225 297
3 298 255 225
3 225 255 298
3 257 176 299
3 299 176 257
3 290 256 227
3 227 256 290
3 301 227 258
3 258 227 301
3 181 260 269
3 269 260 181
3 261 194 304
3 304 194 261
3 305 174 262
3 262 174 305
3 306 263 230
3 230 263 306
3 264 206 232
3 232 206 264
3 306 230 264
3 264 230 306
3 177 307 265
3 265 307 177
3 177 268 310
3 310 268 177
3 312 194 271
3 271 194 312
3 273 174 314
3 314 174 273
3 237 238 275
3 275 212 277
3 277 212 275
3 276 275 238
3 275 213 276
3 276 213 275
3 277 316 239
3 239 316 277
3 213 275 277
3 277 275 213
3 178 278 318
3 318 278 178
3 178 319 279
3 279 319 178
3 241 217 280
3 321 170 281
3 281 170 321
3 243 282 320
3 280 243 320
3 212 283 324
3 324 283 212
3 286 170 326
3 326 170 286
3 188 291 329
3 329 291 188
3 188 330 292
3 292 330 188
3 293 253 251
3 251 253 293
3 332 176 294
3 294 176 332
3 331 295 253
3 253 295 331
3 255 298 296
3 296 298 255
3 298 225 297
3 297 225 298
3 297 256 290
3 290 256 297
3 299 176 332
3 332 176 299
3 335 258 300
3 300 258 335
3 290 227 301
3 301 227 290
3 301 258 335
3 335 258 301
3 336 259 302
3 302 259 336
3 259 337 303
3 303 337 259
3 304 194 312
3 312 194 304
3 338 174 305
3 305 174 338
3 308 263 306
3 306 263 308
3 177 340 307
3 307 340 177
3 266 272 267
3 267 272 266
3 270 313 266
3 266 313 270
3 267 274 309
3 309 274 267
3 177 310 343
3 343 310 177
3 311 344 270
3 270 344 311
3 266 313 272
3 272 313 266
3 274 267 272
3 272 267 274
3 314 174 345
3 345 174 314
3 309 274 315
3 315 274 309
3 212 347 277
3 277 347 212
3 277 348 316
3 316 348 277
3 178 318 351
3 351 318 178
3 178 352 319
3 319 352 178
3 354 170 321
3 321 170 354
3 282 322 353
3 320 282 353
3 212 324 357
3 357 324 212
3 358 285 284
3 284 285 358
3 359 284 288
3 288 284 359
3 285 360 325
3 325 360 285
3 326 170 361
3 361 170 326
3 364 288 328
3 328 288 364
3 188 329 365
3 365 329 188
3 188 365 330
3 330 365 188
3 331 253 293
3 293 253 331
3 367 333 295
3 295 333 367
3 367 295 331
3 331 295 367
3 369 300 334
3 334 300 369
3 335 300 369
3 369 300 335
3 259 336 337
3 337 336 259
3 303 337 370
3 370 337 303
3 303 370 311
3 311 370 303
3 371 174 338
3 338 174 371
3 308 339 263
3 263 339 308
3 177 373 340
3 340 373 177
3 341 339 308
3 308 339 341
3 270 344 313
3 313 344 270
3 309 315 342
3 342 315 309
3 177 343 377
3 377 343 177
3 311 370 344
3 344 370 311
3 345 174 378
3 378 174 345
3 342 315 346
3 346 315 342
3 347 212 379
3 379 212 347
3 277 347 380
3 380 347 277
3 277 380 348
3 348 380 277
3 318 385 351
3 351 385 318
3 178 351 386
3 386 351 178
3 178 387 352
3 352 387 178
3 389 170 354
3 354 170 389
3 322 355 388
3 353 322 388
3 212 357 394
3 394 357 212
3 395 285 358
3 358 285 395
3 358 284 396
3 396 284 358
3 397 284 359
3 359 284 397
3 359 288 398
3 398 288 359
3 360 285 395
3 395 285 360
3 399 325 360
3 360 325 399
3 361 170 389
3 389 170 361
3 326 361 400
3 400 361 326
3 402 328 363
3 363 328 402
3 403 288 364
3 364 288 403
3 364 328 402
3 402 328 364
3 366 333 367
3 367 333 366
3 404 334 368
3 368 334 404
3 369 334 404
3 404 334 369
3 405 174 371
3 371 174 405
3 341 372 339
3 339 372 341
3 177 407 373
3 373 407 177
3 374 372 341
3 341 372 374
3 342 346 375
3 375 346 342
3 177 377 410
3 410 377 177
3 378 174 410
3 410 174 378
3 379 212 412
3 412 212 379
3 318 417 385
3 385 417 318
3 178 386 420
3 420 386 178
3 178 421 387
3 387 421 178
3 355 390 422
3 388 355 422
3 424 391 325
3 325 391 424
3 427 212 394
3 394 212 427
3 428 395 358
3 358 395 428
3 396 284 429
3 429 284 396
3 430 358 396
3 396 358 430
3 431 284 397
3 397 284 431
3 432 397 359
3 359 397 432
3 398 288 433
3 433 288 398
3 434 359 398
3 398 359 434
3 395 428 360
3 360 428 395
3 424 325 399
3 399 325 424
3 399 360 428
3 428 360 399
3 326 400 318
3 318 400 326
3 382 363 401
3 401 363 382
3 402 363 382
3 382 363 402
3 438 288 403
3 403 288 438
3 404 368 366
3 366 368 404
3 366 368 333
3 333 368 366
3 410 174 405
3 405 174 410
3 372 374 406
3 406 374 372
3 177 440 407
3 407 440 177
3 408 406 374
3 374 406 408
3 375 346 411
3 411 346 375
3 375 411 376
3 376 411 375
3 376 442 409
3 409 442 376
3 177 410 444
3 444 410 177
3 412 212 445
3 445 212 412
3 382 401 383
3 383 401 382
3 383 437 416
3 416 437 383
3 318 400 417
3 417 400 318
3 178 420 449
3 449 420 178
3 178 449 421
3 421 449 178
3 390 423 450
3 422 390 450
3 451 391 424
3 424 391 451
3 451 392 391
3 391 392 451
3 452 425 392
3 392 425 452
3 455 212 427
3 427 212 455
3 428 358 430
3 430 358 428
3 429 284 431
3 431 284 429
3 456 396 429
3 429 396 456
3 430 396 456
3 456 396 430
3 457 431 397
3 397 431 457
3 457 397 432
3 432 397 457
3 432 359 434
3 434 359 432
3 433 288 458
3 458 288 433
3 459 398 433
3 433 398 459
3 434 398 459
3 459 398 434
3 399 428 430
3 430 428 399
3 383 401 437
3 437 401 383
3 461 288 438
3 438 288 461
3 403 462 438
3 438 462 403
3 410 405 463
3 463 405 410
3 408 439 406
3 406 439 408
3 177 465 440
3 440 465 177
3 441 439 408
3 408 439 441
3 376 411 442
3 442 411 376
3 409 442 443
3 443 442 409
3 410 467 444
3 444 467 410
3 177 444 468
3 468 444 177
3 445 212 455
3 455 212 445
3 418 419 447
3 448 460 419
3 423 435 472
3 450 423 472
3 452 392 451
3 451 392 452
3 473 425 452
3 452 425 473
3 425 473 453
3 453 473 425
3 475 429 431
3 431 429 475
3 456 429 475
3 475 429 456
3 470 430 456
3 456 430 470
3 475 431 457
3 457 431 475
3 470 457 432
3 432 457 470
3 470 432 434
3 434 432 470
3 458 288 461
3 461 288 458
3 476 433 458
3 458 433 476
3 459 433 476
3 476 433 459
3 403 434 459
3 459 434 403
3 399 430 470
3 470 430 399
3 435 436 471
3 436 460 448
3 462 461 438
3 438 461 462
3 403 477 462
3 462 477 403
3 410 463 478
3 478 463 410
3 441 464 439
3 439 464 441
3 177 468 465
3 465 468 177
3 466 464 441
3 441 464 466
3 410 478 467
3 467 478 410
3 460 447 419
3 471 436 448
3 472 435 471
3 470 456 475
3 475 456 470
3 470 475 457
3 457 475 470
3 470 434 403
3 403 434 470
3 477 458 461
3 461 458 477
3 476 458 477
3 477 458 476
3 403 459 476
3 476 459 403
3 477 461 462
3 462 461 477
3 403 476 477
3 477 476 403
3 466 482 464
3 464 482 466
3 484 482 466
3 466 482 484
3 485 480 479
3 479 480 485
3 480 483 484
3 484 483 480
3 484 483 482
3 482 483 484
3 480 485 483
3 483 485 480
3 182 206 191
3 191 206 182
3 192 208 182
3 182 208 192
3 185 196 215
3 215 196 185
3 185 217 197
3 197 217 185
3 187 218 198
3 198 218 187
3 199 220 187
3 187 220 199
3 189 225 201
3 201 225 189
3 227 189 202
3 202 189 227
3 191 230 205
3 205 230 191
3 206 182 208
3 208 182 206
3 230 191 206
3 206 191 230
3 207 232 192
3 192 232 207
3 208 192 232
3 232 192 208
3 196 214 241
3 241 214 196
3 196 241 215
3 215 241 196
3 185 215 217
3 217 215 185
3 197 243 216
3 216 243 197
3 197 217 243
3 243 217 197
3 187 220 218
3 218 220 187
3 198 218 245
3 245 218 198
3 219 247 199
3 199 247 219
3 199 247 220
3 220 247 199
3 222 251 200
3 200 251 222
3 200 253 223
3 223 253 200
3 201 255 224
3 224 255 201
3 225 189 256
3 256 189 225
3 255 201 225
3 225 201 255
3 258 202 226
3 226 202 258
3 189 227 256
3 256 227 189
3 202 258 227
3 227 258 202
3 203 259 228
3 228 259 203
3 205 263 229
3 229 263 205
3 263 205 230
3 230 205 263
3 231 264 207
3 207 264 231
3 232 207 264
3 264 207 232
3 266 209 210
3 210 209 266
3 267 233 209
3 209 233 267
3 270 210 234
3 234 210 270
3 272 235 211
3 211 235 272
3 274 211 236
3 236 211 274
3 214 240 280
3 280 240 214
3 214 280 241
3 241 280 214
3 216 282 242
3 242 282 216
3 216 243 282
3 282 243 216
3 198 245 244
3 244 245 198
3 284 218 220
3 220 218 284
3 285 245 218
3 218 245 285
3 246 287 219
3 219 287 246
3 219 287 247
3 247 287 219
3 288 220 247
3 247 220 288
3 248 290 221
3 221 290 248
3 290 249 221
3 221 249 290
3 250 293 222
3 222 293 250
3 251 222 293
3 293 222 251
3 253 200 251
3 251 200 253
3 223 295 252
3 252 295 223
3 295 223 253
3 253 223 295
3 224 296 254
3 254 296 224
3 296 224 255
3 255 224 296
3 300 226 257
3 257 226 300
3 226 300 258
3 258 300 226
3 259 203 302
3 302 203 259
3 303 228 259
3 259 228 303
3 228 303 260
3 260 303 228
3 261 302 203
3 203 302 261
3 263 262 229
3 229 262 263
3 308 231 265
3 265 231 308
3 264 231 306
3 306 231 264
3 209 266 267
3 267 266 209
3 210 270 266
3 266 270 210
3 233 267 309
3 309 267 233
3 309 268 233
3 233 268 309
3 311 234 269
3 269 234 311
3 234 311 270
3 270 311 234
3 313 271 235
3 235 271 313
3 235 272 313
3 313 272 235
3 211 274 272
3 272 274 211
3 315 236 273
3 273 236 315
3 236 315 274
3 274 315 236
3 278 239 317
3 317 239 278
3 240 279 320
3 320 279 240
3 240 320 280
3 280 320 240
3 242 322 281
3 281 322 242
3 242 282 322
3 322 282 242
3 245 323 244
3 244 323 245
3 244 323 283
3 283 323 244
3 218 284 285
3 285 284 218
3 220 288 284
3 284 288 220
3 245 285 325
3 325 285 245
3 286 327 246
3 246 327 286
3 246 327 287
3 287 327 246
3 328 247 287
3 287 247 328
3 247 328 288
3 288 328 247
3 289 297 248
3 248 297 289
3 290 248 297
3 297 248 290
3 249 290 301
3 301 290 249
3 301 291 249
3 249 291 301
3 292 331 250
3 250 331 292
3 293 250 331
3 331 250 293
3 252 333 294
3 294 333 252
3 333 252 295
3 295 252 333
3 298 254 296
3 296 254 298
3 254 298 289
3 289 298 254
3 334 257 299
3 299 257 334
3 257 334 300
3 300 334 257
3 311 260 303
3 303 260 311
3 260 311 269
3 269 311 260
3 304 336 261
3 261 336 304
3 302 261 336
3 336 261 302
3 339 305 262
3 262 305 339
3 262 263 339
3 339 263 262
3 341 265 307
3 307 265 341
3 231 308 306
3 306 308 231
3 265 341 308
3 308 341 265
3 268 309 342
3 342 309 268
3 342 310 268
3 268 310 342
3 344 312 271
3 271 312 344
3 271 313 344
3 344 313 271
3 346 273 314
3 314 273 346
3 273 346 315
3 315 346 273
3 239 316 349
3 349 316 239
3 239 349 317
3 317 349 239
3 278 317 350
3 350 317 278
3 318 278 350
3 350 278 318
3 279 319 353
3 353 319 279
3 279 353 320
3 320 353 279
3 281 355 321
3 321 355 281
3 281 322 355
3 355 322 281
3 325 323 245
3 245 323 325
3 323 356 283
3 283 356 323
3 283 356 324
3 324 356 283
3 326 362 286
3 286 362 326
3 286 362 327
3 327 362 286
3 363 287 327
3 327 287 363
3 287 363 328
3 328 363 287
3 297 289 298
3 298 289 297
3 291 301 335
3 335 301 291
3 335 329 291
3 291 329 335
3 366 292 330
3 330 292 366
3 331 292 367
3 367 292 331
3 333 332 294
3 294 332 333
3 368 299 332
3 332 299 368
3 299 368 334
3 334 368 299
3 312 337 304
3 304 337 312
3 336 304 337
3 337 304 336
3 372 338 305
3 305 338 372
3 305 339 372
3 372 339 305
3 374 307 340
3 340 307 374
3 307 374 341
3 341 374 307
3 310 342 375
3 375 342 310
3 310 376 343
3 343 376 310
3 312 344 370
3 370 344 312
3 345 346 314
3 314 346 345
3 316 348 381
3 381 348 316
3 349 316 381
3 381 316 349
3 382 317 349
3 349 317 382
3 383 350 317
3 317 350 383
3 318 350 384
3 384 350 318
3 319 352 388
3 388 352 319
3 353 319 388
3 388 319 353
3 321 390 354
3 354 390 321
3 321 355 390
3 390 355 321
3 323 325 391
3 391 325 323
3 323 392 356
3 356 392 323
3 356 393 324
3 324 393 356
3 393 357 324
3 324 357 393
3 326 384 362
3 362 384 326
3 401 327 362
3 362 327 401
3 327 401 363
3 363 401 327
3 329 335 369
3 369 335 329
3 369 365 329
3 329 365 369
3 404 330 365
3 365 330 404
3 292 366 367
3 367 366 292
3 330 404 366
3 366 404 330
3 332 333 368
3 368 333 332
3 337 312 370
3 370 312 337
3 406 371 338
3 338 371 406
3 338 372 406
3 406 372 338
3 408 340 373
3 373 340 408
3 340 408 374
3 374 408 340
3 376 310 375
3 375 310 376
3 409 343 376
3 376 343 409
3 343 409 377
3 377 409 343
3 378 411 345
3 345 411 378
3 346 345 411
3 411 345 346
3 413 347 379
3 379 347 413
3 414 380 347
3 347 380 414
3 348 380 415
3 415 380 348
3 381 348 415
3 415 348 381
3 402 349 381
3 381 349 402
3 317 382 383
3 383 382 317
3 349 402 382
3 382 402 349
3 350 383 416
3 416 383 350
3 416 384 350
3 350 384 416
3 318 384 326
3 326 384 318
3 418 351 385
3 385 351 418
3 419 386 351
3 351 386 419
3 422 352 387
3 387 352 422
3 352 422 388
3 388 422 352
3 354 423 389
3 389 423 354
3 354 390 423
3 423 390 354
3 392 323 391
3 391 323 392
3 425 356 392
3 392 356 425
3 356 425 393
3 393 425 356
3 393 426 357
3 357 426 393
3 426 394 357
3 357 394 426
3 389 435 361
3 361 435 389
3 436 400 361
3 361 400 436
3 437 362 384
3 384 362 437
3 362 437 401
3 401 437 362
3 415 403 364
3 364 403 415
3 381 364 402
3 402 364 381
3 365 369 404
3 404 369 365
3 439 405 371
3 371 405 439
3 371 406 439
3 439 406 371
3 441 373 407
3 407 373 441
3 373 441 408
3 408 441 373
3 443 377 409
3 409 377 443
3 377 443 410
3 410 443 377
3 410 442 378
3 378 442 410
3 411 378 442
3 442 378 411
3 446 379 412
3 412 379 446
3 414 347 413
3 413 347 414
3 413 379 446
3 446 379 413
3 415 380 414
3 414 380 415
3 364 381 415
3 415 381 364
3 384 416 437
3 437 416 384
3 447 385 417
3 417 385 447
3 419 351 418
3 418 351 419
3 418 385 447
3 447 385 418
3 448 386 419
3 419 386 448
3 448 420 386
3 386 420 448
3 450 387 421
3 421 387 450
3 387 450 422
3 422 450 387
3 423 435 389
3 389 435 423
3 453 393 425
3 425 393 453
3 393 453 426
3 426 453 393
3 454 394 426
3 426 394 454
3 454 427 394
3 394 427 454
3 446 424 399
3 399 424 446
3 435 436 361
3 361 436 435
3 436 460 400
3 400 460 436
3 403 415 414
3 414 415 403
3 405 439 464
3 464 439 405
3 466 407 440
3 440 407 466
3 407 466 441
3 441 466 407
3 442 410 443
3 443 410 442
3 469 412 445
3 445 412 469
3 446 412 469
3 469 412 446
3 470 414 413
3 413 414 470
3 399 413 446
3 446 413 399
3 460 417 400
3 400 417 460
3 460 447 417
3 417 447 460
3 471 420 448
3 448 420 471
3 471 449 420
3 420 449 471
3 472 421 449
3 449 421 472
3 450 421 472
3 472 421 450
3 469 451 424
3 424 451 469
3 473 426 453
3 453 426 473
3 426 473 454
3 454 473 426
3 474 455 427
3 427 455 474
3 474 427 454
3 454 427 474
3 424 446 469
3 469 446 424
3 414 470 403
3 403 470 414
3 464 463 405
3 405 463 464
3 465 466 440
3 440 466 465
3 467 479 444
3 444 479 467
3 444 480 468
3 468 480 444
3 481 445 455
3 455 445 481
3 469 445 481
3 481 445 469
3 413 399 470
3 470 399 413
3 472 449 471
3 471 449 472
3 451 469 481
3 481 469 451
3 451 474 452
3 452 474 451
3 452 454 473
3 473 454 452
3 481 455 474
3 474 455 481
3 454 452 474
3 474 452 454
3 463 464 482
3 482 464 463
3 463 483 478
3 478 483 463
3 468 484 465
3 465 484 468
3 466 465 484
3 484 465 466
3 478 485 467
3 467 485 478
3 479 467 485
3 485 467 479
3 480 444 479
3 479 444 480
3 484 468 480
3 480 468 484
3 474 451 481
3 481 451 474
3 483 463 482
3 482 463 483
3 485 478 483
3 483 478 485
3 241 217 215
3 280 243 217
3 280 217 241
3 320 282 243
3 320 243 280
3 353 322 282
3 353 282 320
3 388 355 322
3 388 322 353
3 422 390 355
3 422 355 388
3 450 423 390
3 450 390 422
3 447 419 418
3 419 460 448
3 472 435 423
3 472 423 450
3 471 436 435
3 448 460 436
3 419 447 460
3 448 436 471
3 471 435 472
3 275 238 237
3 238 275 276
