ply
format ascii 1.0
comment Generated by PyMesh
element vertex 62
property double x
property double y
property double z
element face 256
property list uchar int vertex_indices
end_header
0.00677021 -0.214518 -0.253418
0.00677021 -0.246805 -0.225128
0.00677021 -0.246805 -0.253418
0.00677021 -0.214518 -0.225128
0.00676959 -0.268229 0.421836
0.00470898 -0.246805 -0.225128
0.00766279 -0.246805 -0.253418
0.00677021 -0.190887 -0.362973
0.00470898 -0.246805 -0.253418
0.00766279 -0.214518 -0.253418
0.00470898 -0.214518 -0.225128
0.00677021 -0.190887 0.377717
0.00766279 -0.214518 -0.225128
0.00676959 -0.268229 -0.421836
0.00766279 -0.246805 -0.225128
0.00470898 -0.214518 -0.253418
0.00677021 0.268229 0.421836
-0.0103842 -0.268229 -0.421836
0.00766279 -0.226474 -0.2529
0.00677021 0.268229 -0.421836
0.00677021 0.244739 -0.362973
-0.0073967 -0.190887 0.377717
0.0103842 -0.190887 -0.362973
0.00766279 -0.215201 -0.225833
0.00766279 -0.226474 -0.225833
0.00677021 0.244739 0.377717
-0.0103842 -0.268229 0.421836
0.00766279 -0.227035 -0.250687
0.00766279 -0.215201 -0.2529
-0.0073967 -0.190887 -0.362973
0.0103842 0.244739 -0.362973
0.0103842 -0.190887 0.377717
0.00766279 -0.227035 -0.228046
0.0103842 0.244739 0.377717
-0.0103842 0.268229 0.421836
-0.0103842 0.268229 -0.421836
0.00766279 -0.227495 -0.248451
-0.0073967 0.244739 0.377717
-0.0073967 0.244739 -0.362973
0.0103842 0.083439 -0.349437
0.00766279 -0.227495 -0.230283
0.00766279 -0.227854 -0.246196
0.0103842 0.0758724 -0.291489
0.0103842 0.083439 0.359248
0.0103842 0.235542 -0.349437
0.00766279 -0.227854 -0.232537
0.0103842 0.235542 0.359248
0.00766279 -0.228111 -0.243927
0.0103842 0.0758724 0.301299
0.0103842 0.06966 -0.232938
0.00766279 -0.228111 -0.234806
0.00766279 -0.228266 -0.241649
0.0103842 0.06966 0.242748
0.0103842 0.0648148 -0.173902
0.00766279 -0.228266 -0.237084
0.00766279 -0.228317 -0.239367
0.0103842 0.0648148 0.183712
0.0103842 0.0613476 -0.114502
0.0103842 0.0613476 0.124313
0.0103842 0.0592639 -0.0548591
0.0103842 0.0592639 0.0646699
0.0103842 0.0585687 0.00490542
3 0 1 2
3 1 0 3
3 1 4 2
3 2 7 0
3 0 7 3
3 11 1 3
3 11 4 1
3 13 2 4
3 2 13 7
3 11 3 7
3 4 11 16
3 4 17 13
3 7 13 19
3 20 11 7
3 16 11 25
3 16 26 4
3 17 4 26
3 17 19 13
3 7 19 20
3 11 20 25
3 16 25 19
3 26 16 34
3 34 17 26
3 19 17 35
3 20 19 25
3 19 34 16
3 17 34 35
3 34 19 35
3 2 1 0
3 3 0 1
3 2 4 1
3 0 7 2
3 3 7 0
3 3 1 11
3 1 4 11
3 4 2 13
3 7 13 2
3 7 3 11
3 16 11 4
3 13 17 4
3 19 13 7
3 7 11 20
3 25 11 16
3 4 26 16
3 26 4 17
3 13 19 17
3 20 19 7
3 25 20 11
3 19 25 16
3 34 16 26
3 26 17 34
3 35 17 19
3 25 19 20
3 16 34 19
3 35 34 17
3 35 19 34
3 8 15 5
3 10 5 15
3 29 38 21
3 37 21 38
3 5 2 1
3 1 2 5
3 6 1 2
3 2 1 6
3 8 0 2
3 2 0 8
3 9 2 0
3 0 2 9
3 0 10 3
3 3 10 0
3 3 9 0
3 0 9 3
3 1 12 3
3 3 12 1
3 3 5 1
3 1 5 3
3 2 5 8
3 8 5 2
3 1 6 14
3 14 6 1
3 2 9 6
3 6 9 2
3 0 8 15
3 15 8 0
3 10 0 15
3 15 0 10
3 5 3 10
3 10 3 5
3 9 3 12
3 12 3 9
3 12 1 14
3 14 1 12
3 6 18 14
3 14 18 6
3 18 6 9
3 9 6 18
3 12 23 9
3 9 23 12
3 14 24 12
3 12 24 14
3 14 18 27
3 27 18 14
3 18 9 28
3 28 9 18
3 12 24 23
3 23 24 12
3 28 9 23
3 23 9 28
3 24 14 32
3 32 14 24
3 14 27 36
3 36 27 14
3 32 14 40
3 40 14 32
3 14 36 41
3 41 36 14
3 40 14 45
3 45 14 40
3 14 41 47
3 47 41 14
3 45 14 50
3 50 14 45
3 14 47 51
3 51 47 14
3 50 14 54
3 54 14 50
3 14 51 55
3 55 51 14
3 54 14 55
3 55 14 54
3 5 15 8
3 15 5 10
3 21 38 29
3 38 21 37
3 21 7 11
3 11 7 21
3 22 11 7
3 7 11 22
3 29 20 7
3 7 20 29
3 30 7 20
3 20 7 30
3 7 21 29
3 29 21 7
3 25 21 11
3 11 21 25
3 11 22 31
3 31 22 11
3 7 30 22
3 22 30 7
3 11 33 25
3 25 33 11
3 20 37 25
3 25 37 20
3 25 30 20
3 20 30 25
3 20 29 38
3 38 29 20
3 21 25 37
3 37 25 21
3 22 39 31
3 31 39 22
3 33 11 31
3 31 11 33
3 39 22 30
3 30 22 39
3 30 25 33
3 33 25 30
3 37 20 38
3 38 20 37
3 31 39 42
3 42 39 31
3 31 43 33
3 33 43 31
3 39 30 44
3 44 30 39
3 33 46 30
3 30 46 33
3 31 42 49
3 49 42 31
3 43 31 48
3 48 31 43
3 33 43 46
3 46 43 33
3 44 30 46
3 46 30 44
3 31 49 53
3 53 49 31
3 48 31 52
3 52 31 48
3 31 53 57
3 57 53 31
3 52 31 56
3 56 31 52
3 31 57 59
3 59 57 31
3 56 31 58
3 58 31 56
3 31 59 61
3 61 59 31
3 58 31 60
3 60 31 58
3 60 31 61
3 61 31 60
3 32 27 18
3 18 27 32
3 24 18 28
3 28 18 24
3 24 28 23
3 23 28 24
3 32 18 24
3 24 18 32
3 40 27 32
3 32 27 40
3 40 36 27
3 27 36 40
3 45 36 40
3 40 36 45
3 45 41 36
3 36 41 45
3 50 41 45
3 45 41 50
3 50 47 41
3 41 47 50
3 54 47 50
3 50 47 54
3 54 51 47
3 47 51 54
3 51 54 55
3 55 54 51
3 48 42 39
3 39 42 48
3 43 39 44
3 44 39 43
3 52 42 48
3 48 42 52
3 48 39 43
3 43 39 48
3 52 49 42
3 42 49 52
3 43 44 46
3 46 44 43
3 56 49 52
3 52 49 56
3 56 53 49
3 49 53 56
3 58 53 56
3 56 53 58
3 58 57 53
3 53 57 58
3 60 57 58
3 58 57 60
3 60 59 57
3 57 59 60
3 59 60 61
3 61 60 59
