ply
format ascii 1.0
comment Generated by PyMesh
element vertex 130
property double x
property double y
property double z
element face 516
property list uchar int vertex_indices
end_header
0.177858 -0.273334 -0.200951
0.0898729 -0.273334 -0.133368
-0.177858 -0.273334 -0.200951
0.177858 -0.273334 0.202834
-0.0927916 -0.273334 -0.133368
0.177858 -0.26372 -0.200951
0.0898729 -0.273334 0.135821
-0.177858 -0.273334 0.202834
-0.177858 -0.26372 -0.200951
0.177858 -0.26372 0.202834
-0.0927916 -0.273334 0.135821
-0.177858 -0.26372 0.202834
-0.121633 -0.26372 -0.133368
0.0898729 -0.26372 -0.133368
-0.0927916 -0.26372 -0.133368
0.0898729 -0.26372 0.135821
-0.0927916 -0.26372 0.135821
-0.121633 -0.26372 -0.0536369
0.0898729 -0.254106 0.135821
-0.0927916 -0.26372 -0.0536369
-0.121633 -0.26372 0.0466253
-0.121633 -0.254106 -0.133368
0.0898729 -0.254106 -0.133368
-0.0927916 -0.26372 0.0466253
-0.121633 -0.26372 0.135821
-0.0937771 -0.266025 -0.0536369
-0.121633 -0.254106 0.135821
-0.0937771 -0.266025 0.0466253
0.0410462 0.0979918 -0.0536369
-0.111455 -0.258461 0.0466253
0.0410462 0.0979918 0.0466253
-0.111455 -0.258461 -0.0536369
0.0587238 0.0904277 -0.0536369
0.0587238 0.0904277 0.0466253
0.166185 0.270491 -0.379019
0.166712 0.269699 0.379019
0.166712 0.269699 -0.379019
0.166185 0.270491 0.379019
0.167133 0.268847 0.379019
0.167686 -0.245817 -0.379019
0.165557 0.271206 -0.379019
0.167686 -0.245817 0.379019
0.167133 0.268847 -0.379019
0.165557 0.271206 0.379019
0.167438 0.267946 0.379019
0.164841 0.271832 -0.379019
0.167438 0.267946 -0.379019
0.164841 0.271832 0.379019
0.167624 0.267013 0.379019
0.164052 0.272361 -0.379019
0.167624 0.267013 -0.379019
0.164052 0.272361 0.379019
0.167686 0.266066 0.379019
0.163199 0.272782 -0.379019
0.167686 0.266066 -0.379019
0.163199 0.272782 0.379019
0.167686 -0.215221 0.347404
0.162298 0.273086 -0.379019
0.167686 -0.215221 -0.344798
0.162298 0.273086 0.379019
0.167686 -0.237699 0.123717
0.167686 0.246248 0.347404
0.161365 0.273272 -0.379019
0.167686 -0.239422 -0.0463741
0.167686 0.246248 -0.344798
0.161365 0.273272 0.379019
0.167686 -0.239422 -0.0175323
0.167686 -0.228085 0.123717
0.158073 -0.215221 0.347404
0.160416 0.273334 -0.379019
0.167686 -0.229808 -0.0463741
0.158073 0.246248 -0.344798
0.160416 0.273334 0.379019
0.167686 -0.238764 0.0196503
0.177301 -0.237699 0.123717
0.158073 0.246248 0.347404
0.100389 -0.245817 -0.379019
0.167686 -0.229808 -0.0175323
0.177301 -0.229808 -0.0463741
0.158073 -0.215221 -0.344798
0.100389 0.273334 0.379019
0.177301 -0.239422 -0.0175323
0.167686 -0.238764 -0.00919156
0.167686 -0.238011 0.0898077
0.177301 -0.228085 0.123717
0.167686 -0.237699 0.0948749
0.167686 -0.228085 0.0948749
0.100389 0.273334 -0.379019
0.100389 -0.245817 0.379019
0.167686 -0.22915 -0.00919156
0.177301 -0.239422 -0.0463741
0.177301 -0.238764 0.0196503
0.167686 -0.238322 0.0552199
0.177301 -0.228085 0.0948749
0.177301 -0.237699 0.0948749
0.167686 -0.228397 0.0898077
0.100389 -0.136161 -0.268743
0.100389 -0.136161 0.269636
0.167686 -0.22915 0.0196503
0.177301 -0.229808 -0.0175323
0.177301 -0.238764 -0.00919156
0.167686 -0.238322 0.0263786
0.167686 -0.238011 0.0609658
0.167686 -0.228397 0.0609658
0.100389 0.16187 -0.268743
0.167686 -0.228707 0.0263786
0.177301 -0.22915 -0.00919156
0.100389 0.16187 0.269636
0.177301 -0.22915 0.0196503
0.177301 -0.238322 0.0552199
0.167686 -0.228707 0.0552199
0.177301 -0.238011 0.0898077
0.177301 -0.228397 0.0609658
0.0619332 -0.136161 -0.268743
0.0619332 0.16187 0.269636
0.177301 -0.238322 0.0263786
0.177301 -0.238011 0.0609658
0.177301 -0.228397 0.0898077
0.0619332 -0.136161 0.269636
0.0619332 0.16187 -0.268743
0.177301 -0.228707 0.0263786
0.177301 -0.228707 0.0552199
0.0619332 -0.085383 0.0853685
0.0619332 -0.085383 -0.097296
0.0619332 0.0972815 -0.097296
0.0619332 0.0972815 0.0853685
0.0427056 -0.085383 -0.097296
0.0427056 0.0972815 0.0853685
0.0427056 -0.085383 0.0853685
0.0427056 0.0972815 -0.097296
3 2 5 0
3 5 3 0
3 5 2 8
3 3 5 9
3 11 2 7
3 2 11 8
3 11 3 9
3 3 11 7
3 15 13 18
3 22 18 13
3 28 25 19
3 19 25 28
3 27 30 23
3 23 30 27
3 25 28 31
3 31 28 25
3 28 19 32
3 32 19 28
3 30 27 29
3 29 27 30
3 23 30 33
3 33 30 23
3 2 1 0
3 3 0 1
3 1 2 4
3 0 5 2
3 0 3 5
3 6 3 1
3 7 4 2
3 8 2 5
3 9 5 3
3 10 3 6
3 10 4 7
3 7 2 11
3 8 11 2
3 5 12 8
3 9 13 5
3 9 3 11
3 3 10 7
3 14 10 4
3 4 10 14
3 7 11 3
3 11 8 12
3 12 5 13
3 15 13 9
3 11 15 9
3 10 14 16
3 16 14 10
3 17 11 12
3 14 12 13
3 18 13 15
3 13 19 15
3 15 11 16
3 16 14 19
3 19 14 16
3 20 11 17
3 21 17 12
3 12 17 21
3 17 14 12
3 12 14 17
3 14 21 12
3 12 21 14
3 22 14 13
3 13 14 22
3 19 13 14
3 13 18 22
3 16 18 15
3 15 18 16
3 15 19 23
3 16 11 24
3 15 23 16
3 14 17 19
3 19 17 14
3 16 19 23
3 23 19 16
3 24 11 20
3 17 21 20
3 20 21 17
3 20 19 17
3 17 19 20
3 21 14 22
3 22 14 21
3 18 21 22
3 24 18 16
3 16 18 24
3 25 23 19
3 19 23 25
3 19 20 23
3 23 20 19
3 23 24 16
3 16 24 23
3 20 21 24
3 24 21 20
3 24 23 20
3 20 23 24
3 21 18 26
3 18 24 26
3 26 24 18
3 23 25 27
3 27 25 23
3 24 21 26
3 26 21 24
3 25 29 27
3 27 29 25
3 29 25 31
3 31 25 29
3 33 28 32
3 32 28 33
3 28 33 30
3 30 33 28
3 0 1 2
3 1 0 3
3 4 2 1
3 1 3 6
3 2 4 7
3 6 3 10
3 7 4 10
3 8 12 5
3 5 13 9
3 7 10 3
3 12 8 11
3 13 5 12
3 9 13 15
3 9 15 11
3 12 11 17
3 13 12 14
3 15 19 13
3 16 11 15
3 17 11 20
3 14 13 19
3 23 19 15
3 24 11 16
3 16 23 15
3 20 11 24
3 22 21 18
3 26 18 21
3 28 29 31
3 31 29 28
3 29 28 30
3 30 28 29
3 41 56 52
3 58 39 54
3 56 41 60
3 52 56 61
3 52 61 54
3 63 39 58
3 58 54 64
3 60 41 66
3 56 60 67
3 68 61 56
3 64 54 61
3 39 63 41
3 63 58 70
3 71 58 64
3 66 41 63
3 60 66 73
3 74 67 60
3 56 67 58
3 61 68 75
3 58 68 56
3 61 71 64
3 70 58 77
3 78 63 70
3 58 71 79
3 63 81 66
3 73 66 82
3 60 73 83
3 67 74 84
3 85 74 60
3 86 58 67
3 71 61 75
3 68 58 79
3 69 80 72
3 77 58 89
3 77 78 70
3 63 78 90
3 81 63 90
3 81 77 66
3 77 82 66
3 82 91 73
3 83 73 92
3 60 83 85
3 74 93 84
3 93 67 84
3 74 85 94
3 95 58 86
3 67 93 86
3 80 69 87
3 89 58 98
3 82 77 89
3 78 77 99
3 78 81 90
3 77 81 99
3 91 82 100
3 91 98 73
3 92 73 101
3 83 92 102
3 95 85 83
3 93 74 94
3 85 93 94
3 103 58 95
3 85 95 86
3 93 85 86
3 98 58 105
3 98 106 89
3 106 82 89
3 81 78 99
3 82 106 100
3 106 91 100
3 98 91 108
3 98 101 73
3 101 109 92
3 110 102 92
3 102 111 83
3 111 95 83
3 110 58 103
3 95 112 103
3 113 104 96
3 105 58 110
3 101 98 105
3 106 98 108
3 114 97 107
3 91 106 108
3 109 101 115
3 109 110 92
3 102 110 103
3 111 102 116
3 95 111 117
3 112 95 117
3 112 102 103
3 104 113 119
3 104 114 107
3 110 120 105
3 120 101 105
3 97 114 118
3 101 120 115
3 120 109 115
3 110 109 121
3 102 112 116
3 112 111 116
3 111 112 117
3 114 104 119
3 120 110 121
3 109 120 121
3 126 124 123
3 127 122 125
3 124 126 129
3 124 127 125
3 122 127 128
3 127 124 129
3 34 35 36
3 35 34 37
3 38 36 35
3 40 37 34
3 36 38 42
3 37 40 43
3 44 42 38
3 40 47 43
3 42 44 46
3 47 40 45
3 48 46 44
3 51 45 49
3 45 51 47
3 46 48 50
3 52 50 48
3 55 49 53
3 49 55 51
3 50 52 54
3 59 53 57
3 53 59 55
3 65 57 62
3 57 65 59
3 72 62 69
3 62 72 65
3 36 34 39
3 35 41 37
3 38 41 35
3 34 40 39
3 42 36 39
3 37 41 43
3 44 41 38
3 40 45 39
3 46 42 39
3 43 41 47
3 48 41 44
3 45 49 39
3 50 46 39
3 47 41 51
3 52 41 48
3 49 53 39
3 54 50 39
3 51 41 55
3 52 56 41
3 53 57 39
3 54 39 58
3 55 41 59
3 60 41 56
3 61 56 52
3 57 62 39
3 54 61 52
3 58 39 63
3 64 54 58
3 59 41 65
3 66 41 60
3 67 60 56
3 56 61 68
3 62 69 39
3 61 54 64
3 41 63 39
3 70 58 63
3 64 58 71
3 65 41 72
3 63 41 66
3 73 66 60
3 60 67 74
3 58 67 56
3 75 68 61
3 56 68 58
3 39 69 76
3 64 71 61
3 39 76 41
3 77 58 70
3 70 63 78
3 79 71 58
3 72 41 80
3 66 81 63
3 82 66 73
3 83 73 60
3 84 74 67
3 60 74 85
3 67 58 86
3 75 71 68
3 75 61 71
3 79 58 68
3 87 76 69
3 72 80 69
3 88 41 76
3 89 58 77
3 70 78 77
3 90 78 63
3 79 68 71
3 88 80 41
3 90 63 81
3 66 77 81
3 66 82 77
3 73 91 82
3 92 73 83
3 85 83 60
3 84 93 74
3 84 67 93
3 94 85 74
3 86 58 95
3 86 93 67
3 87 96 76
3 87 69 80
3 76 97 88
3 98 58 89
3 89 77 82
3 99 77 78
3 90 81 78
3 80 88 97
3 99 81 77
3 100 82 91
3 73 98 91
3 101 73 92
3 102 92 83
3 83 85 95
3 94 74 93
3 94 93 85
3 95 58 103
3 86 95 85
3 86 85 93
3 97 76 96
3 104 96 87
3 80 104 87
3 105 58 98
3 89 106 98
3 89 82 106
3 99 78 81
3 107 80 97
3 100 106 82
3 100 91 106
3 108 91 98
3 73 101 98
3 92 109 101
3 92 102 110
3 83 111 102
3 83 95 111
3 103 58 110
3 103 112 95
3 97 113 96
3 96 113 97
3 96 104 113
3 104 80 107
3 110 58 105
3 105 98 101
3 108 98 106
3 107 97 114
3 108 106 91
3 115 101 109
3 92 110 109
3 103 110 102
3 116 102 111
3 117 111 95
3 117 95 112
3 103 102 112
3 113 97 118
3 118 97 113
3 119 113 104
3 107 114 104
3 105 120 110
3 105 101 120
3 118 114 97
3 115 120 101
3 115 109 120
3 121 109 110
3 116 112 102
3 116 111 112
3 117 112 111
3 113 122 118
3 119 123 113
3 119 104 114
3 121 110 120
3 114 118 122
3 121 120 109
3 122 113 123
3 124 123 119
3 114 124 119
3 125 114 122
3 122 126 123
3 123 126 122
3 123 124 126
3 124 114 125
3 125 122 127
3 126 122 128
3 128 122 126
3 129 126 124
3 125 127 124
3 128 127 122
3 128 126 127
3 129 127 126
3 129 124 127
3 36 35 34
3 37 34 35
3 35 36 38
3 34 37 40
3 42 38 36
3 43 40 37
3 38 42 44
3 43 47 40
3 46 44 42
3 45 40 47
3 44 46 48
3 49 45 51
3 47 51 45
3 50 48 46
3 48 50 52
3 53 49 55
3 51 55 49
3 54 52 50
3 57 53 59
3 55 59 53
3 62 57 65
3 59 65 57
3 69 62 72
3 65 72 62
3 39 34 36
3 37 41 35
3 35 41 38
3 39 40 34
3 39 36 42
3 43 41 37
3 38 41 44
3 39 45 40
3 39 42 46
3 47 41 43
3 44 41 48
3 39 49 45
3 39 46 50
3 51 41 47
3 48 41 52
3 39 53 49
3 39 50 54
3 55 41 51
3 39 57 53
3 59 41 55
3 39 62 57
3 65 41 59
3 39 69 62
3 72 41 65
3 76 69 39
3 41 76 39
3 80 41 72
3 69 76 87
3 76 41 88
3 41 80 88
3 76 96 87
3 88 97 76
3 97 88 80
3 96 76 97
3 87 96 104
3 87 104 80
3 97 80 107
3 107 80 104
3 118 122 113
3 113 123 119
3 122 118 114
3 123 113 122
3 119 123 124
3 119 124 114
3 122 114 125
3 125 114 124
3 127 126 128
3 126 127 129
3 68 71 75
3 71 68 79
