ply
format ascii 1.0
comment Generated by PyMesh
element vertex 410
property double x
property double y
property double z
element face 1786
property list uchar int vertex_indices
end_header
-0.014548 -0.306941 0.311887
-0.014548 0.316833 0.0372403
-0.014548 -0.306941 0.0372403
-0.014548 0.316833 0.311887
-0.0209478 0.316833 0.0372403
-0.00814612 0.316833 0.311887
-0.0209478 0.316833 0.311887
-0.00814612 0.316833 0.0372403
-0.0209478 -0.306941 0.311887
-0.0209478 0.34709 0.0244386
-0.0209478 -0.306941 0.0372403
-0.00814612 0.316833 0.0244386
-0.00814612 0.34709 0.0244386
-0.0145469 -0.306941 0.311887
-0.0209478 0.34709 0.342144
-0.0209478 0.316833 0.0244386
-0.00814612 -0.306941 0.0372403
-0.00814612 -0.306941 0.0244386
-0.00814612 0.34709 0.342144
-0.00814612 -0.306941 0.311887
-0.0209478 -0.306941 0.342144
-0.0209478 -0.338362 0.0244386
-0.00814612 -0.338362 0.0244386
-0.0209478 -0.313438 0.0244386
-0.00814612 -0.306941 0.342144
-0.0209478 -0.338362 0.342144
-0.00814612 -0.338362 0.342144
-0.0113468 -0.306941 -2.68995e-07
-0.0145469 -0.304614 -0.30956
-0.0145469 -0.304614 -0.0023275
-0.0113468 -0.306941 -0.311887
-0.0145469 0.314505 -0.0023275
-0.0177471 -0.306941 -0.311887
-0.0113468 0.316833 -2.68995e-07
-0.0145469 -0.306941 -2.68995e-07
-0.0145469 -0.304614 -2.68995e-07
-0.00814612 -0.306941 -2.68995e-07
-0.0145469 -0.306941 -0.30956
-0.0113468 0.316833 -0.311887
-0.0145469 0.314505 -0.30956
-0.0177471 0.316833 -2.68995e-07
-0.0177471 -0.306941 -2.68995e-07
-0.0177471 0.316833 -0.311887
-0.00814612 0.316833 -2.68995e-07
-0.0113468 -0.306858 8.26374e-05
-0.00814612 -0.306941 -0.311887
-0.0145469 -0.304614 -0.311887
-0.00814612 -0.306941 -0.340981
-0.00814612 0.316833 -0.311887
-0.0145469 0.316833 -0.0023275
-0.0209478 -0.306941 -0.311887
-0.0209478 0.316833 -0.311887
-0.0145469 0.316833 -2.68995e-07
-0.00814612 0.316833 0.0232747
-0.0145469 -0.306858 8.26374e-05
-0.00814612 -0.338362 -0.342145
-0.00814612 0.34709 0.0232747
-0.0209478 -0.306941 -0.340981
-0.0113468 0.316833 -0.0023275
-0.0145469 0.314505 -0.311887
-0.0209478 0.316833 -2.68995e-07
-0.0177471 0.316833 -0.0023275
-0.0209478 -0.306941 -2.68995e-07
-0.0177471 -0.306858 8.26374e-05
-0.00814612 -0.338362 0.0232747
-0.00814612 0.34709 -0.340981
-0.0209478 0.34709 -0.340981
-0.00814612 -0.306941 -0.342145
-0.0209478 -0.338362 -0.342145
-0.0209478 0.316833 0.0232747
-0.0209478 -0.306941 -0.342145
-0.0209478 -0.338362 0.0232747
-0.0209478 0.34709 0.0232747
-0.00698223 0.31916 -0.343309
-0.00698223 -0.309268 -0.314215
-0.00698223 0.31916 -0.314215
-0.00698223 -0.309268 -0.343309
-0.00581888 0.31916 -0.314215
-0.00581888 0.31916 -0.349127
-0.00698223 0.348254 -0.343309
-0.0221111 -0.309268 -0.343309
-0.00698223 -0.338362 -0.343309
-0.00581888 -0.309268 -0.314215
-0.00698223 0.31916 -0.000898321
-0.0221111 0.31916 -0.343309
-0.0221111 -0.338362 -0.343309
-0.00698223 -0.338362 -0.000898321
-0.0209478 -0.338362 -0.343309
-0.00581888 -0.309268 -0.349127
-0.00581888 0.354073 -0.349127
-0.00581888 0.31916 -0.000898321
-0.023275 0.31916 -0.343309
-0.00698223 0.31916 0.0456517
-0.0221111 0.348254 -0.343309
-0.0221111 0.31916 -0.314215
-0.0221111 -0.309268 -0.314215
-0.00698223 -0.309268 -0.000898321
-0.00581888 -0.338362 -0.349127
-0.0523689 0.31916 -0.349127
-0.00581888 0.354073 -0.000898321
-0.0523689 0.354073 -0.349127
-0.004655 -0.309268 -0.000898321
-0.051205 0.31916 -0.343309
-0.023275 0.31916 -0.314215
-0.00698223 0.31916 0.314214
-0.00698223 -0.309268 0.0456517
-0.0221111 0.348254 0.343308
-0.0221111 -0.309268 0.314214
-0.00581888 -0.338362 -0.000898321
-0.00698223 -0.338362 0.0456517
-0.00581888 -0.309268 -0.000898321
-0.0523689 -0.309268 -0.349127
-0.00581888 0.354073 0.0456517
-0.00581888 0.354073 0.349127
-0.004655 0.354073 -0.000898321
-0.023275 -0.330216 -0.343309
-0.023275 0.348254 -0.343309
-0.023275 -0.309268 -0.314215
-0.00698223 0.31916 0.343308
-0.00581888 0.31916 0.314214
-0.00581888 0.31916 0.0456517
-0.00698223 0.348254 0.343308
-0.0221111 0.31916 0.314214
-0.023275 0.31916 0.314214
-0.0221111 -0.309268 0.343308
-0.00581888 -0.338362 0.0456517
-0.00581888 -0.344181 -0.349127
-0.0523689 -0.309268 -0.314215
-0.0523689 0.31916 -0.314215
-0.004655 0.354073 0.0456517
-0.0523689 0.354073 0.349127
-0.004655 -0.338362 -0.000898321
-0.051205 -0.330216 -0.343309
-0.023275 -0.330216 -0.314215
-0.051205 0.348254 -0.343309
-0.00698223 -0.309268 0.343308
-0.00581888 -0.309268 0.314214
-0.0221111 0.31916 0.343308
-0.0221111 -0.338362 0.343308
-0.023275 -0.309268 0.314214
0.0407317 -0.343017 0.349127
-0.00698223 -0.309268 0.314214
-0.00581888 -0.309268 0.0456517
-0.0523689 -0.344181 -0.349127
0.0407317 -0.344181 -0.349127
-0.0523689 0.31916 0.314214
-0.051205 0.31916 -0.314215
-0.0523689 0.31916 0.349127
-0.004655 0.340577 0.0240674
-0.004655 0.336102 0.0181009
-0.0430589 -0.330216 -0.343309
-0.023275 -0.338362 -0.343309
-0.023275 -0.330216 0.314214
-0.051205 0.348254 0.343308
-0.023275 0.31916 0.343308
-0.00581888 0.31916 0.349127
-0.0209478 -0.338362 0.343308
-0.00581888 -0.338362 0.349127
-0.004655 -0.338362 0.0456517
-0.00698223 -0.338362 0.343308
-0.004655 -0.309268 0.0456517
0.0407317 -0.343017 -0.349127
-0.0523689 -0.344181 0.349127
-0.0523689 -0.309268 0.314214
-0.004655 0.340004 0.0250345
-0.004655 0.340879 0.0229854
-0.004655 0.337226 0.0181127
-0.004655 -0.324427 0.0181581
-0.0500417 -0.330216 -0.0944926
-0.0430589 -0.338362 -0.343309
-0.0244389 -0.330216 -0.0944926
-0.051205 -0.309268 -0.314215
-0.023275 -0.330216 0.343308
-0.023275 0.348254 0.343308
-0.051205 0.31916 0.314214
-0.00581888 -0.309268 0.349127
-0.00581888 -0.344181 0.349127
-0.004655 -0.327908 0.0240359
0.0523689 -0.344181 0.349127
0.0523689 -0.344181 -0.349127
-0.051205 -0.309268 0.314214
-0.0523689 -0.309268 0.349127
-0.051205 0.31916 0.343308
-0.004655 0.3392 0.0258213
-0.00407306 0.340004 0.0250345
-0.00407306 0.340577 0.0240674
-0.004655 0.340892 0.0218611
-0.004655 0.338308 0.0184165
-0.00407306 0.336102 0.0181009
-0.004655 -0.325516 0.0184363
-0.004655 -0.323304 0.0181694
-0.051205 -0.330216 -0.314215
-0.0430589 -0.330216 -0.0944926
-0.023275 -0.338362 0.343308
-0.0430589 -0.338362 0.343308
-0.00814612 -0.338362 0.343308
-0.004655 -0.32452 0.0266953
0.0407317 -0.344181 0.349127
-0.004655 -0.327357 0.0250158
-0.004655 -0.328186 0.0229479
0.0523689 -0.354073 -0.349127
-0.004655 0.33822 0.0263717
-0.004655 0.33945 0.0255768
-0.00407306 0.340879 0.0229854
-0.004655 0.340613 0.0207715
-0.004655 0.338894 0.0187631
-0.00407306 0.337226 0.0181127
-0.00407306 0.335013 0.0183801
-0.004655 -0.326079 0.018754
-0.00407306 -0.325516 0.0184363
-0.004655 0.335013 0.0183801
-0.00407306 -0.324427 0.0181581
-0.051205 -0.330216 -0.0944926
-0.0430589 -0.330216 0.24067
-0.0500417 -0.309268 -0.0944926
-0.0244389 -0.330216 0.24067
-0.0430589 -0.330216 0.343308
-0.051205 -0.330216 0.343308
-0.004655 -0.325603 0.0263925
-0.004655 -0.323397 0.0267081
-0.00407306 -0.327908 0.0240359
-0.004655 -0.328175 0.0218236
-0.00407306 -0.328186 0.0229479
-0.004655 -0.326571 0.0258202
0.0407317 -0.354073 0.349127
0.0407317 -0.354073 -0.349127
-0.051205 -0.330216 0.314214
-0.004655 0.337132 0.0266509
-0.004655 0.338897 0.0259924
-0.00523694 0.33945 0.0255768
-0.00407306 0.33706 0.0223895
-0.00407306 0.33945 0.0255768
-0.00407306 0.340892 0.0218611
-0.004655 0.340061 0.0197916
-0.004655 0.339193 0.0189401
-0.00407306 0.338308 0.0184165
-0.004655 -0.326192 0.0188166
-0.004655 -0.322221 0.0184721
-0.00407306 -0.323304 0.0181694
-0.0500417 -0.330216 0.24067
-0.0500417 -0.309268 -0.0816914
-0.0244389 -0.309268 -0.0944926
-0.0244389 -0.309268 0.24067
-0.004655 -0.326184 0.0260481
-0.00407306 -0.32452 0.0266953
-0.00407306 -0.323397 0.0267081
-0.00407306 -0.327357 0.0250158
-0.004655 -0.327872 0.0207416
-0.00407306 -0.328175 0.0218236
-0.004655 -0.326747 0.0256341
0.0523689 -0.354073 0.349127
-0.00407306 0.33822 0.0263717
-0.00407306 0.338897 0.0259924
-0.00523694 0.3392 0.0258213
-0.00407306 0.340613 0.0207715
-0.004655 0.339471 0.0191888
-0.004655 0.339276 0.0189888
-0.00523694 0.338894 0.0187631
-0.00407306 0.338894 0.0187631
-0.00407306 0.334337 0.0187593
-0.004655 -0.326496 0.0189877
-0.00407306 -0.326192 0.0188166
-0.004655 0.334337 0.0187593
-0.0500417 -0.309268 0.24067
-0.0500417 -0.309268 0.239506
-0.0500417 0.34709 -0.0816914
-0.0436408 -0.309268 -0.0816914
-0.0500417 0.34709 -0.0944926
-0.0436408 -0.309268 -0.0828548
-0.0244389 -0.309268 -0.0828548
-0.0244389 -0.309268 0.229032
-0.0436408 -0.309268 0.24067
-0.004655 -0.32613 0.0260807
-0.00407306 -0.325603 0.0263925
-0.00407306 -0.322308 0.0264278
-0.004655 -0.322308 0.0264278
-0.00407306 -0.324359 0.02245
-0.004655 -0.3273 0.0197745
-0.00407306 -0.327872 0.0207416
-0.00523694 -0.326747 0.0256341
-0.004655 -0.326489 0.0258678
-0.00407306 0.337132 0.0266509
-0.00407306 0.336614 0.0229806
-0.00523694 0.338897 0.0259924
-0.00523694 0.336614 0.0229806
-0.00523694 0.33706 0.0223895
-0.00407306 0.339471 0.0191888
-0.00407306 0.340061 0.0197916
-0.00523694 0.339193 0.0189401
-0.00407306 0.336617 0.021798
-0.004655 -0.326775 0.0192611
-0.00523694 -0.326496 0.0189877
-0.00407306 -0.323912 0.0218552
-0.00407306 -0.322221 0.0184721
-0.004655 -0.321635 0.0188203
-0.0436408 -0.309268 0.239506
-0.0436408 0.314505 -0.0816914
-0.0244389 0.34709 -0.0944926
-0.0404407 -0.309268 -0.0828548
-0.0244389 0.314505 -0.0828548
-0.0308397 -0.309268 -0.0828548
-0.0244389 0.34709 0.24067
-0.0308397 -0.309268 0.229032
-0.0436408 0.34709 0.24067
-0.0436408 -0.309268 0.229032
-0.004655 0.336008 0.026638
-0.00407306 -0.326747 0.0256341
-0.00407306 -0.3273 0.0197745
-0.00407306 -0.326775 0.0192611
-0.00523694 -0.326571 0.0258202
-0.00523694 -0.324359 0.02245
-0.00523694 -0.326489 0.0258678
-0.00523694 -0.326184 0.0260481
-0.00407306 0.336008 0.026638
-0.00407306 0.334926 0.0263358
-0.00407306 0.334345 0.0259924
-0.00523694 0.339471 0.0191888
-0.00523694 0.339276 0.0189888
-0.00523694 0.336617 0.021798
-0.00523694 -0.326775 0.0192611
-0.00523694 -0.326192 0.0188166
-0.00523694 -0.323912 0.0218552
-0.00407306 -0.321635 0.0188203
-0.004655 -0.321604 0.0188374
-0.0500417 0.34709 0.24067
-0.0500417 0.34709 0.239506
-0.0436408 0.34709 -0.0816914
-0.0404407 -0.309268 0.229032
-0.0436408 0.314505 -0.0828548
-0.0340399 -0.309268 -0.0828548
-0.0244389 0.314505 0.229032
-0.0340399 -0.309268 0.229032
-0.0308397 0.314505 0.229032
-0.00407306 -0.326184 0.0260481
-0.00407306 -0.321633 0.0260481
-0.004655 0.334926 0.0263358
-0.00523694 -0.323914 0.0230362
-0.00407306 -0.323914 0.0230362
-0.00523694 0.334345 0.0259924
-0.004655 0.334345 0.0259924
-0.00523694 0.33617 0.0223938
-0.00523694 -0.321635 0.0188203
-0.004655 0.334033 0.0189305
-0.0436408 0.34709 0.239506
-0.0436408 0.314505 0.229032
-0.03724 -0.306941 0.226704
-0.0404407 0.314505 -0.0828548
-0.0340399 0.314505 -0.0828548
-0.0308397 0.314505 -0.0828548
-0.0404407 0.314505 0.229032
-0.004655 -0.321633 0.0260481
-0.00523694 -0.32347 0.0224462
-0.00523694 0.33404 0.0258122
-0.00523694 0.333782 0.0255768
-0.00523694 0.333754 0.0192044
-0.00523694 0.334337 0.0187593
-0.00523694 -0.321057 0.0192461
-0.004655 -0.321335 0.0189968
-0.00523694 0.334033 0.0189305
-0.00523694 -0.321335 0.0189968
-0.03724 -0.306941 -0.0805276
-0.0340399 0.314505 0.229032
-0.00523694 -0.32108 0.025633
-0.004655 0.33404 0.0258122
-0.00523694 0.333959 0.025763
-0.004655 0.333782 0.0255768
-0.00407306 0.33617 0.0223938
-0.00523694 -0.321253 0.019045
-0.004655 -0.321253 0.019045
-0.03724 0.312178 0.226704
-0.03724 0.312178 -0.0805276
-0.0340399 0.314505 0.226704
-0.0404407 0.314505 0.226704
-0.004655 -0.32155 0.0260005
-0.00523694 -0.321328 0.0258769
-0.00407306 -0.32347 0.0224462
-0.00523694 -0.321633 0.0260481
-0.004655 -0.321328 0.0258769
-0.004655 0.333959 0.025763
-0.004655 0.333754 0.0192044
-0.004655 -0.321057 0.0192461
-0.004655 -0.32108 0.025633
-0.00407306 0.333782 0.0255768
-0.00407306 0.333754 0.0192044
-0.00407306 -0.32108 0.025633
-0.00407306 -0.321057 0.0192461
-0.00407306 0.333172 0.0249601
-0.004655 -0.320525 0.0250917
-0.00407306 0.332354 0.0217669
-0.00407306 0.33323 0.0197173
-0.004655 0.33323 0.0197173
-0.00407306 -0.320525 0.0250917
-0.00407306 -0.320467 0.0198489
-0.00407306 -0.319638 0.0219167
-0.004655 0.333172 0.0249601
-0.00407306 0.332622 0.0239802
-0.00407306 0.332342 0.0228907
-0.00407306 0.332657 0.0206843
-0.004655 -0.320467 0.0198489
-0.00407306 -0.319952 0.0241236
-0.00407306 -0.319916 0.0208288
-0.00407306 -0.319649 0.0230421
-0.004655 -0.319952 0.0241236
-0.004655 0.332342 0.0228907
-0.004655 0.332354 0.0217669
-0.004655 0.332657 0.0206843
-0.004655 -0.319638 0.0219167
-0.004655 -0.319916 0.0208288
-0.004655 0.332622 0.0239802
-0.004655 -0.319649 0.0230421
3 0 1 2
3 1 0 3
3 2 1 0
3 3 0 1
3 4 5 6
3 5 4 7
3 5 8 6
3 6 9 4
3 10 7 4
3 12 5 7
3 5 13 8
3 8 14 6
3 6 14 9
3 4 9 15
3 7 10 16
3 15 10 4
3 7 17 11
3 12 7 11
3 18 5 12
3 13 5 19
3 13 10 8
3 14 8 20
3 18 9 14
3 9 11 15
3 10 13 16
3 17 7 16
3 21 10 15
3 17 15 11
3 11 9 12
3 18 19 5
3 9 18 12
3 16 13 19
3 21 8 10
3 21 20 8
3 20 18 14
3 16 22 17
3 21 15 23
3 17 23 15
3 19 18 24
3 19 22 16
3 20 21 25
3 20 24 18
3 21 17 22
3 17 21 23
3 24 22 19
3 26 21 25
3 25 21 26
3 25 24 20
3 21 26 22
3 22 26 21
3 22 24 26
3 24 25 26
3 6 5 4
3 7 4 5
3 6 8 5
3 4 9 6
3 4 7 10
3 4 11 7
3 7 11 4
3 7 5 12
3 8 13 5
3 6 14 8
3 9 14 6
3 15 9 4
3 16 10 7
3 4 10 15
3 11 4 15
3 15 4 11
3 11 17 7
3 11 7 12
3 12 5 18
3 19 5 13
3 8 10 13
3 20 8 14
3 14 9 18
3 15 11 9
3 16 13 10
3 16 7 17
3 15 10 21
3 11 15 17
3 12 9 11
3 5 19 18
3 12 18 9
3 19 13 16
3 10 8 21
3 8 20 21
3 14 18 20
3 17 22 16
3 23 15 21
3 15 23 17
3 24 18 19
3 16 22 19
3 25 21 20
3 18 24 20
3 22 17 21
3 23 21 17
3 19 22 24
3 20 24 25
3 26 24 22
3 26 25 24
3 36 30 27
3 43 27 33
3 30 36 45
3 27 43 36
3 32 47 30
3 30 48 38
3 46 38 30
3 33 39 31
3 42 31 39
3 42 40 31
3 50 41 32
3 51 32 42
3 42 46 32
3 33 38 43
3 33 53 43
3 36 55 45
3 48 30 45
3 30 47 45
3 43 56 36
3 32 57 47
3 38 39 58
3 38 59 39
3 43 38 48
3 38 46 59
3 59 42 39
3 39 33 58
3 41 60 40
3 40 42 61
3 49 40 61
3 33 49 58
3 41 50 62
3 57 32 50
3 32 51 50
3 42 61 51
3 46 42 59
3 52 53 33
3 38 33 58
3 36 64 55
3 45 55 48
3 56 43 65
3 53 36 56
3 66 47 57
3 67 57 47
3 65 43 48
3 60 41 62
3 51 40 60
3 60 53 40
3 40 53 52
3 40 51 61
3 68 62 50
3 68 50 51
3 64 36 53
3 68 64 55
3 55 64 68
3 48 55 47
3 66 56 65
3 56 69 53
3 47 66 65
3 51 66 57
3 57 67 70
3 47 55 67
3 65 48 47
3 62 71 60
3 60 66 51
3 53 60 69
3 71 62 68
3 68 51 57
3 53 71 64
3 64 68 71
3 71 68 64
3 70 55 68
3 56 66 72
3 69 56 72
3 71 53 69
3 55 70 67
3 68 57 70
3 69 60 71
3 69 66 60
3 66 69 72
3 29 28 27
3 30 27 28
3 28 29 32
3 27 33 29
3 34 29 27
3 27 29 34
3 35 29 27
3 27 30 36
3 30 27 37
3 30 37 28
3 28 32 30
3 30 32 28
3 30 28 38
3 31 40 29
3 31 29 33
3 41 32 29
3 37 32 28
3 32 42 28
3 27 33 35
3 33 27 43
3 29 34 41
3 41 34 29
3 44 34 27
3 27 34 37
3 35 41 29
3 45 36 30
3 36 43 27
3 32 30 46
3 39 38 28
3 38 48 30
3 30 38 46
3 39 28 42
3 41 29 40
3 40 33 31
3 31 33 40
3 40 31 49
3 49 31 33
3 41 32 34
3 32 41 50
3 37 34 32
3 42 32 51
3 32 46 42
3 52 35 33
3 43 38 33
3 43 53 33
3 54 41 34
3 34 44 54
3 41 35 40
3 45 55 36
3 45 30 48
3 36 56 43
3 48 38 43
3 59 46 38
3 39 42 59
3 40 60 41
3 33 40 52
3 52 40 33
3 61 40 49
3 58 49 33
3 62 50 41
3 50 51 32
3 51 61 42
3 59 42 46
3 52 40 35
3 33 53 52
3 58 33 38
3 41 54 63
3 55 64 36
3 48 55 45
3 65 43 56
3 56 36 53
3 57 47 66
3 47 57 67
3 48 43 65
3 62 41 60
3 60 40 51
3 40 53 60
3 52 53 40
3 61 51 40
3 50 62 68
3 51 50 68
3 53 36 64
3 47 55 48
3 65 56 66
3 53 69 56
3 65 66 47
3 57 66 51
3 70 67 57
3 67 55 47
3 47 48 65
3 60 71 62
3 51 66 60
3 69 60 53
3 68 62 71
3 57 51 68
3 64 71 53
3 68 55 70
3 72 66 56
3 72 56 69
3 69 53 71
3 67 70 55
3 70 57 68
3 71 60 69
3 60 66 69
3 72 69 66
3 27 28 29
3 28 27 30
3 32 29 28
3 29 33 27
3 27 29 35
3 37 27 30
3 28 37 30
3 38 28 30
3 29 40 31
3 33 29 31
3 29 32 41
3 28 32 37
3 28 42 32
3 35 33 27
3 27 34 44
3 37 34 27
3 29 41 35
3 46 30 32
3 30 47 32
3 28 38 39
3 42 28 39
3 31 39 33
3 39 31 42
3 40 29 41
3 31 40 42
3 49 31 40
3 33 31 49
3 34 32 41
3 32 34 37
3 33 35 52
3 34 41 54
3 54 44 34
3 40 35 41
3 45 47 30
3 47 57 32
3 58 39 38
3 39 59 38
3 58 33 39
3 61 42 40
3 50 32 57
3 35 40 52
3 63 54 41
3 28 31 29
3 29 31 28
3 31 28 39
3 39 28 31
3 73 74 75
3 74 73 76
3 75 74 73
3 76 73 74
3 74 77 75
3 75 77 74
3 75 79 73
3 73 79 75
3 73 80 76
3 76 80 73
3 81 74 76
3 76 74 81
3 77 74 82
3 82 74 77
3 77 83 75
3 75 83 77
3 83 79 75
3 75 79 83
3 79 84 73
3 73 84 79
3 80 73 84
3 84 73 80
3 85 76 80
3 80 76 85
3 86 74 81
3 81 74 86
3 76 87 81
3 81 87 76
3 88 77 82
3 82 77 88
3 77 88 78
3 78 88 77
3 89 77 78
3 78 77 89
3 83 77 90
3 90 77 83
3 92 79 83
3 83 79 92
3 84 79 93
3 93 79 84
3 94 80 84
3 84 80 94
3 87 76 85
3 85 76 87
3 95 85 80
3 80 85 95
3 74 86 96
3 96 86 74
3 82 97 88
3 88 97 82
3 88 98 78
3 78 98 88
3 99 77 89
3 89 77 99
3 78 100 89
3 89 100 78
3 77 99 90
3 90 99 77
3 101 83 90
3 90 83 101
3 104 79 92
3 92 79 104
3 92 83 105
3 105 83 92
3 79 106 93
3 93 106 79
3 93 94 84
3 84 94 93
3 80 94 95
3 95 94 80
3 107 85 95
3 95 85 107
3 96 108 86
3 86 108 96
3 109 96 86
3 86 96 109
3 110 97 82
3 82 97 110
3 97 111 88
3 88 111 97
3 88 111 98
3 98 111 88
3 100 78 98
3 98 78 100
3 89 112 99
3 99 112 89
3 100 113 89
3 89 113 100
3 114 90 99
3 99 90 114
3 110 83 101
3 101 83 110
3 101 90 114
3 114 90 101
3 102 115 91
3 91 115 102
3 116 102 91
3 91 102 116
3 91 117 103
3 103 117 91
3 103 116 91
3 91 116 103
3 118 79 104
3 104 79 118
3 92 119 104
3 104 119 92
3 96 105 83
3 83 105 96
3 92 105 120
3 120 105 92
3 106 79 121
3 121 79 106
3 106 122 93
3 93 122 106
3 93 122 94
3 94 122 93
3 94 117 95
3 95 117 94
3 117 94 103
3 103 94 117
3 94 123 103
3 103 123 94
3 124 85 107
3 107 85 124
3 117 107 95
3 95 107 117
3 108 96 110
3 110 96 108
3 125 86 108
3 108 86 125
3 96 109 105
3 105 109 96
3 86 125 109
3 109 125 86
3 97 110 108
3 108 110 97
3 126 111 97
3 97 111 126
3 127 98 111
3 111 98 127
3 128 100 98
3 98 100 128
3 89 113 112
3 112 113 89
3 129 99 112
3 112 99 129
3 113 100 130
3 130 100 113
3 99 129 114
3 114 129 99
3 110 96 83
3 83 96 110
3 131 110 101
3 101 110 131
3 114 131 101
3 101 131 114
3 132 115 102
3 102 115 132
3 133 91 115
3 115 91 133
3 102 116 134
3 134 116 102
3 117 91 133
3 133 91 117
3 123 116 103
3 103 116 123
3 79 118 121
3 121 118 79
3 104 135 118
3 118 135 104
3 119 92 120
3 120 92 119
3 136 104 119
3 119 104 136
3 105 129 120
3 120 129 105
3 118 106 121
3 121 106 118
3 122 106 137
3 137 106 122
3 123 94 122
3 122 94 123
3 85 124 138
3 138 124 85
3 107 137 124
3 124 137 107
3 107 117 139
3 139 117 107
3 110 131 108
3 108 131 110
3 125 140 108
3 125 126 108
3 108 126 125
3 131 125 108
3 108 125 131
3 109 141 105
3 105 141 109
3 109 142 105
3 105 142 109
3 142 109 125
3 125 109 142
3 108 140 97
3 108 126 97
3 97 126 108
3 111 126 143
3 143 126 111
3 97 144 126
3 126 144 97
3 98 127 128
3 128 127 98
3 143 127 111
3 111 127 143
3 145 100 128
3 128 100 145
3 113 119 112
3 112 119 113
3 120 129 112
3 112 129 120
3 100 147 130
3 130 147 100
3 147 113 130
3 130 113 147
3 129 148 114
3 114 148 129
3 114 149 131
3 131 149 114
3 115 132 150
3 150 132 115
3 146 132 102
3 102 132 146
3 151 133 115
3 115 133 151
3 115 152 133
3 116 153 134
3 134 153 116
3 134 146 102
3 102 146 134
3 152 117 133
3 154 116 123
3 123 116 154
3 135 104 141
3 141 104 135
3 135 137 118
3 118 137 135
3 112 119 120
3 120 119 112
3 104 136 141
3 141 136 104
3 155 136 119
3 119 136 155
3 142 129 105
3 105 129 142
3 106 118 137
3 137 118 106
3 137 107 122
3 122 107 137
3 107 123 122
3 122 123 107
3 124 156 138
3 138 156 124
3 137 135 124
3 124 135 137
3 117 152 139
3 123 107 139
3 139 107 123
3 140 125 157
3 157 126 125
3 125 126 157
3 125 131 158
3 158 131 125
3 159 141 109
3 109 141 159
3 136 125 142
3 142 125 136
3 125 160 142
3 142 160 125
3 97 140 161
3 126 162 143
3 143 162 126
3 144 97 161
3 161 97 144
3 127 146 128
3 128 146 127
3 143 163 127
3 127 163 143
3 147 100 145
3 145 100 147
3 146 145 128
3 128 145 146
3 119 113 155
3 155 113 119
3 113 147 155
3 155 147 113
3 148 129 164
3 164 129 148
3 114 148 165
3 165 148 114
3 114 166 149
3 149 166 114
3 167 131 149
3 149 131 167
3 132 168 150
3 169 115 150
3 150 115 169
3 150 170 115
3 171 132 146
3 146 132 171
3 151 152 133
3 133 152 151
3 115 169 151
3 151 169 115
3 115 172 152
3 153 116 173
3 173 116 153
3 153 174 134
3 134 174 153
3 134 174 146
3 146 174 134
3 116 154 173
3 173 154 116
3 123 172 154
3 154 172 123
3 141 159 135
3 135 159 141
3 136 155 175
3 175 155 136
3 129 142 160
3 160 142 129
3 135 156 124
3 124 156 135
3 152 123 139
3 139 123 152
3 125 175 157
3 157 175 125
3 176 140 157
3 157 140 176
3 126 157 176
3 176 157 126
3 177 158 131
3 131 158 177
3 160 125 158
3 158 125 160
3 175 125 136
3 136 125 175
3 161 140 178
3 162 126 176
3 176 126 162
3 162 163 143
3 143 163 162
3 179 144 161
3 161 144 179
3 146 127 171
3 171 127 146
3 180 127 163
3 163 127 180
3 145 181 147
3 147 181 145
3 145 146 174
3 174 146 145
3 181 155 147
3 147 155 181
3 164 129 183
3 183 129 164
3 164 148 184
3 148 165 185
3 114 165 186
3 186 165 114
3 114 187 166
3 166 187 114
3 189 131 167
3 167 131 189
3 149 190 167
3 167 190 149
3 191 168 132
3 150 168 192
3 150 192 170
3 115 170 172
3 132 171 191
3 191 171 132
3 193 152 151
3 151 152 193
3 194 151 169
3 169 151 194
3 152 193 172
3 172 193 152
3 172 123 152
3 152 123 172
3 154 153 173
3 173 153 154
3 174 153 182
3 182 153 174
3 172 182 154
3 154 182 172
3 195 135 159
3 159 135 195
3 181 175 155
3 155 175 181
3 160 196 129
3 129 196 160
3 135 195 156
3 156 195 135
3 181 157 175
3 175 157 181
3 140 176 197
3 197 176 140
3 157 162 176
3 176 162 157
3 198 158 177
3 177 158 198
3 177 131 199
3 199 131 177
3 158 198 160
3 160 198 158
3 197 178 140
3 140 178 197
3 161 178 179
3 163 162 181
3 181 162 163
3 200 144 179
3 179 144 200
3 127 180 171
3 171 180 127
3 145 180 163
3 163 180 145
3 180 145 174
3 174 145 180
3 181 145 163
3 163 145 181
3 183 129 201
3 201 129 183
3 164 183 202
3 202 183 164
3 185 184 148
3 164 184 202
3 203 185 165
3 165 186 203
3 114 186 204
3 204 186 114
3 114 205 187
3 187 205 114
3 208 131 189
3 189 131 208
3 210 190 149
3 149 190 210
3 168 191 212
3 168 213 192
3 192 213 168
3 214 192 168
3 192 214 170
3 215 172 170
3 171 212 191
3 151 194 193
3 193 194 151
3 193 216 172
3 172 216 193
3 153 154 182
3 182 154 153
3 217 174 182
3 182 174 217
3 216 182 172
3 172 182 216
3 160 218 196
3 196 218 160
3 129 196 219
3 219 196 129
3 162 157 181
3 181 157 162
3 177 198 220
3 199 131 221
3 221 131 199
3 199 177 222
3 160 198 223
3 223 198 160
3 224 178 197
3 197 178 224
3 178 200 179
3 179 200 178
3 144 200 225
3 225 200 144
3 180 212 171
3 174 226 180
3 180 226 174
3 201 129 227
3 227 129 201
3 183 201 228
3 228 201 183
3 185 230 184
3 231 202 184
3 203 230 185
3 232 203 186
3 186 204 232
3 114 204 233
3 233 204 114
3 114 234 205
3 205 234 114
3 188 207 206
3 236 131 208
3 208 131 236
3 210 237 190
3 190 237 210
3 168 212 239
3 213 168 239
3 239 168 213
3 168 240 214
3 170 214 241
3 213 172 215
3 170 242 215
3 216 193 194
3 194 193 216
3 213 216 172
3 174 217 226
3 226 217 174
3 182 216 217
3 217 216 182
3 160 243 218
3 218 243 160
3 227 129 219
3 219 129 227
3 246 220 198
3 220 222 177
3 221 131 247
3 247 131 221
3 221 199 248
3 222 248 199
3 223 198 249
3 249 198 223
3 160 223 243
3 243 223 160
3 178 224 250
3 250 224 178
3 200 178 250
3 250 178 200
3 212 180 226
3 202 230 229
3 231 184 230
3 231 230 202
3 232 230 203
3 254 232 204
3 204 233 254
3 114 233 255
3 255 233 114
3 114 256 234
3 234 256 114
3 205 257 234
3 206 207 235
3 260 131 236
3 236 131 260
3 236 261 208
3 211 209 238
3 262 237 210
3 210 237 262
3 226 239 212
3 263 168 239
3 215 239 213
3 239 216 213
3 168 264 240
3 265 214 240
3 267 241 214
3 269 170 241
3 242 170 270
3 242 271 215
3 216 226 217
3 218 243 272
3 272 243 218
3 275 227 219
3 219 227 275
3 220 246 276
3 198 249 246
3 222 220 276
3 247 131 277
3 277 131 247
3 247 221 278
3 248 278 221
3 248 222 276
3 279 223 249
3 249 223 279
3 243 223 280
3 280 223 243
3 252 228 282
3 229 284 253
3 285 229 230
3 286 230 232
3 254 286 232
3 287 254 233
3 233 255 287
3 114 255 256
3 256 255 114
3 234 288 256
3 288 234 257
3 205 289 257
3 258 289 205
3 235 259 258
3 207 259 235
3 290 131 260
3 260 131 290
3 261 236 292
3 209 261 293
3 238 209 293
3 262 294 237
3 237 294 262
3 226 216 239
3 168 263 264
3 239 215 263
3 295 240 264
3 214 265 267
3 240 296 265
3 296 240 266
3 240 295 266
3 241 267 297
3 270 170 269
3 241 299 269
3 270 301 242
3 242 302 270
3 242 303 271
3 271 304 242
3 263 215 271
3 273 244 274
3 245 274 244
3 227 275 305
3 305 275 227
3 306 276 246
3 306 246 249
3 277 131 290
3 290 131 277
3 277 247 307
3 278 307 247
3 278 248 308
3 308 248 276
3 223 279 309
3 309 279 223
3 279 310 249
3 223 311 280
3 280 311 223
3 280 312 243
3 243 312 280
3 281 251 313
3 252 314 251
3 282 228 284
3 282 315 252
3 283 284 228
3 283 253 284
3 285 284 229
3 230 255 285
3 286 255 230
3 287 286 254
3 286 287 255
3 255 256 316
3 317 256 288
3 288 257 316
3 318 257 289
3 289 258 259
3 259 262 289
3 292 236 321
3 292 322 261
3 293 261 322
3 262 323 294
3 294 323 262
3 324 264 263
3 295 263 264
3 325 295 264
3 326 267 265
3 265 296 326
3 266 327 268
3 268 296 266
3 266 295 304
3 267 326 297
3 297 299 241
3 268 327 298
3 298 328 268
3 300 270 269
3 299 300 269
3 301 270 330
3 303 242 301
3 242 331 302
3 332 270 302
3 270 300 302
3 303 263 271
3 271 295 304
3 242 304 327
3 263 295 271
3 334 273 274
3 305 275 335
3 335 275 305
3 306 249 276
3 277 307 290
3 307 278 308
3 308 276 290
3 279 309 336
3 311 223 309
3 309 223 311
3 276 249 310
3 310 279 336
3 312 280 311
3 311 280 312
3 243 337 312
3 314 313 251
3 315 314 252
3 284 338 282
3 315 282 339
3 340 284 285
3 316 285 255
3 317 316 256
3 317 288 316
3 257 318 316
3 289 262 318
3 290 276 319
3 320 321 236
3 291 319 320
3 321 341 292
3 322 292 294
3 342 323 262
3 262 323 342
3 323 341 294
3 294 341 323
3 264 324 325
3 263 303 324
3 295 325 343
3 344 326 296
3 327 266 304
3 296 268 328
3 343 304 295
3 297 326 343
3 297 330 299
3 331 298 327
3 328 298 346
3 347 298 329
3 298 331 329
3 300 299 348
3 329 302 300
3 348 329 300
3 270 332 330
3 301 330 297
3 343 303 301
3 242 327 331
3 302 329 331
3 331 332 302
3 304 349 327
3 333 337 243
3 333 273 334
3 335 275 350
3 350 275 335
3 308 290 307
3 309 311 336
3 310 319 276
3 310 336 351
3 312 336 311
3 336 312 337
3 339 282 338
3 338 284 352
3 340 353 284
3 354 340 285
3 285 316 318
3 355 318 262
3 320 319 321
3 294 292 341
3 341 321 356
3 342 357 323
3 323 357 342
3 341 323 359
3 359 323 341
3 324 343 325
3 343 324 303
3 326 344 343
3 328 344 296
3 304 343 344
3 343 301 297
3 330 348 299
3 349 331 327
3 298 347 346
3 344 328 346
3 329 348 347
3 348 330 332
3 332 331 361
3 349 304 344
3 337 333 334
3 334 350 337
3 335 350 339
3 339 350 335
3 319 310 351
3 351 336 362
3 337 350 336
3 339 338 363
3 364 352 284
3 352 363 338
3 353 364 284
3 353 340 365
3 340 354 366
3 318 354 285
3 355 354 318
3 321 319 351
3 351 356 321
3 367 341 356
3 342 368 357
3 357 368 342
3 359 323 357
3 357 323 359
3 359 341 367
3 331 349 361
3 347 371 346
3 344 346 372
3 332 347 348
3 361 347 332
3 349 344 372
3 339 350 373
3 373 350 339
3 362 336 374
3 351 362 375
3 376 336 350
3 339 377 363
3 363 377 339
3 364 378 352
3 363 352 378
3 364 353 378
3 366 365 340
3 365 378 353
3 379 366 354
3 358 354 355
3 356 351 380
3 368 356 367
3 367 356 368
3 379 368 342
3 342 368 379
3 368 359 357
3 357 359 368
3 359 368 367
3 367 368 359
3 346 349 369
3 349 346 361
3 346 369 370
3 347 370 371
3 347 361 371
3 361 346 371
3 349 346 372
3 346 349 372
3 339 373 377
3 377 373 339
3 376 374 336
3 381 375 362
3 375 380 351
3 363 377 381
3 381 377 363
3 363 381 378
3 378 381 363
3 382 365 366
3 378 381 365
3 365 381 378
3 383 366 379
3 356 368 380
3 380 368 356
3 379 380 368
3 368 380 379
3 361 370 369
3 370 361 371
3 384 375 381
3 385 380 375
3 382 386 365
3 382 366 386
3 365 381 387
3 387 381 365
3 383 388 366
3 383 379 389
3 390 380 379
3 379 380 390
3 384 391 375
3 384 381 391
3 385 392 380
3 385 375 393
3 394 365 386
3 395 386 366
3 387 391 381
3 365 387 394
3 394 387 365
3 388 396 366
3 397 388 383
3 390 389 379
3 389 397 383
3 390 398 380
3 380 398 390
3 399 375 391
3 398 380 392
3 392 385 400
3 393 375 401
3 400 385 393
3 386 395 394
3 396 395 366
3 387 402 391
3 394 387 402
3 402 387 394
3 396 388 403
3 388 397 404
3 390 405 389
3 397 389 405
3 405 398 390
3 390 398 405
3 401 375 399
3 399 391 402
3 392 400 398
3 393 401 406
3 400 393 407
3 408 394 395
3 395 396 408
3 394 402 408
3 408 402 394
3 404 403 388
3 403 408 396
3 405 404 397
3 405 407 398
3 398 407 405
3 401 399 409
3 402 409 399
3 407 398 400
3 409 406 401
3 406 407 393
3 408 402 409
3 409 402 408
3 403 406 404
3 404 406 403
3 408 409 403
3 403 409 408
3 404 407 405
3 405 407 404
3 403 409 406
3 406 409 403
3 404 406 407
3 407 406 404
3 149 188 166
3 166 206 187
3 206 166 188
3 188 149 207
3 189 209 167
3 167 211 190
3 202 229 183
3 187 235 205
3 235 187 206
3 210 207 149
3 189 208 209
3 211 167 209
3 238 190 211
3 196 244 218
3 219 245 196
3 201 251 227
3 228 252 201
3 183 253 228
3 253 183 229
3 258 205 235
3 207 210 259
3 209 208 261
3 190 238 237
3 273 218 244
3 244 196 245
3 245 219 274
3 281 227 251
3 251 201 252
3 283 228 253
3 262 259 210
3 236 291 260
3 260 291 236
3 293 237 238
3 272 273 243
3 218 273 272
3 275 274 219
3 227 281 305
3 260 319 290
3 290 319 260
3 291 236 320
3 320 236 291
3 319 260 291
3 291 260 319
3 237 293 294
3 333 243 273
3 274 275 334
3 313 305 281
3 322 294 293
3 350 334 275
3 305 313 335
3 314 335 313
3 315 339 314
3 342 358 262
3 335 314 339
3 355 262 358
3 358 342 354
3 379 354 342
3 350 374 373
3 373 374 350
3 362 377 374
3 374 377 362
3 374 350 376
3 376 350 374
3 373 374 377
3 377 374 373
3 377 362 381
3 381 362 377
3 73 78 75
3 75 78 73
3 75 78 77
3 77 78 75
3 84 78 73
3 73 78 84
3 91 78 84
3 84 78 91
3 102 78 91
3 91 78 102
3 91 84 103
3 103 84 91
3 94 103 84
3 84 103 94
3 102 98 78
3 78 98 102
3 98 102 128
3 128 102 98
3 119 118 104
3 104 118 119
3 108 140 125
3 97 140 108
3 146 128 102
3 102 128 146
3 133 152 115
3 133 117 152
3 155 118 119
3 119 118 155
3 137 154 122
3 122 154 137
3 122 154 123
3 123 154 122
3 139 152 117
3 157 125 140
3 161 140 97
3 150 168 132
3 115 170 150
3 152 172 115
3 155 137 118
3 118 137 155
3 155 154 137
3 137 154 155
3 178 140 161
3 174 147 145
3 145 147 174
3 147 182 155
3 155 182 147
3 132 168 191
3 192 168 150
3 170 192 150
3 172 170 115
3 155 182 154
3 154 182 155
3 179 178 161
3 147 174 182
3 182 174 147
3 212 191 168
3 168 192 214
3 170 214 192
3 170 172 215
3 191 212 171
3 171 212 180
3 239 212 168
3 214 240 168
3 241 214 170
3 215 172 213
3 215 242 170
3 172 216 213
3 226 180 212
3 212 239 226
3 239 168 263
3 213 239 215
3 213 216 239
3 240 264 168
3 240 214 265
3 266 214 240
3 240 214 266
3 214 241 267
3 214 268 241
3 241 268 214
3 241 170 269
3 270 170 242
3 215 271 242
3 217 226 216
3 239 216 226
3 264 263 168
3 263 215 239
3 264 240 295
3 267 265 214
3 265 296 240
3 214 266 268
3 268 266 214
3 266 240 296
3 266 295 240
3 297 267 241
3 241 268 298
3 298 268 241
3 269 170 270
3 269 299 241
3 241 300 269
3 269 300 241
3 242 301 270
3 270 302 242
3 271 303 242
3 242 304 271
3 271 215 263
3 263 264 324
3 264 263 295
3 264 295 325
3 265 267 326
3 326 296 265
3 268 327 266
3 266 296 268
3 304 295 266
3 297 326 267
3 241 299 297
3 298 327 268
3 268 328 298
3 241 298 329
3 329 298 241
3 269 270 300
3 269 300 299
3 241 329 300
3 300 329 241
3 330 270 301
3 301 242 303
3 302 331 242
3 302 270 332
3 302 300 270
3 271 263 303
3 304 295 271
3 327 304 242
3 271 295 263
3 325 324 264
3 324 303 263
3 343 325 295
3 296 326 344
3 304 266 327
3 328 268 296
3 295 304 343
3 343 326 297
3 299 330 297
3 327 298 345
3 327 298 331
3 346 298 328
3 329 298 347
3 329 331 298
3 348 299 300
3 300 302 329
3 300 329 348
3 330 332 270
3 297 330 301
3 301 303 343
3 331 327 242
3 331 329 302
3 302 332 331
3 327 349 304
3 325 343 324
3 303 324 343
3 343 344 326
3 296 344 328
3 344 343 304
3 297 301 343
3 299 348 330
3 360 345 298
3 327 345 349
3 327 331 349
3 298 346 360
3 346 347 298
3 346 328 344
3 329 360 347
3 347 348 329
3 329 331 360
3 332 330 348
3 361 331 332
3 344 304 349
3 345 360 331
3 369 349 345
3 361 349 331
3 370 360 346
3 346 370 347
3 347 370 346
3 346 371 347
3 372 346 344
3 370 347 360
3 348 347 332
3 331 361 345
3 332 347 361
3 372 344 349
3 369 345 361
3 361 369 349
3 349 369 361
3 361 346 349
3 371 361 347
3 371 346 361
3 372 349 346
3 184 148 164
3 185 165 148
3 148 184 185
3 202 184 164
3 165 185 203
3 203 186 165
3 184 230 185
3 184 202 231
3 185 230 203
3 186 203 232
3 232 204 186
3 206 207 188
3 229 230 202
3 230 184 231
3 202 230 231
3 203 230 232
3 204 232 254
3 254 233 204
3 235 207 206
3 282 228 252
3 253 284 229
3 230 229 285
3 232 230 286
3 232 286 254
3 233 254 287
3 287 255 233
3 257 289 205
3 205 289 258
3 258 259 235
3 235 259 207
3 313 251 281
3 251 314 252
3 284 228 282
3 252 315 282
3 228 284 283
3 284 253 283
3 229 284 285
3 285 255 230
3 230 255 286
3 254 286 287
3 255 287 286
3 316 257 288
3 289 257 318
3 259 258 289
3 289 262 259
3 251 313 314
3 252 314 315
3 282 338 284
3 339 282 315
3 285 284 340
3 255 285 316
3 316 288 317
3 316 318 257
3 318 262 289
3 338 282 339
3 352 284 338
3 284 353 340
3 285 340 354
3 318 316 285
3 262 318 355
3 284 352 364
3 284 364 353
3 365 340 353
3 366 354 340
3 285 354 318
3 318 354 355
3 340 365 366
3 354 366 379
3 355 354 358
3 366 365 382
3 379 366 383
3 365 386 382
3 386 366 382
3 366 388 383
3 389 379 383
3 386 365 394
3 366 386 395
3 366 396 388
3 383 388 397
3 379 389 390
3 383 397 389
3 394 395 386
3 366 395 396
3 403 388 396
3 404 397 388
3 389 405 390
3 405 389 397
3 395 394 408
3 408 396 395
3 388 403 404
3 396 408 403
3 397 404 405
3 166 188 149
3 187 206 166
3 188 166 206
3 207 149 188
3 205 235 187
3 206 187 235
3 149 207 210
3 227 251 201
3 201 252 228
3 235 205 258
3 259 210 207
3 251 227 281
3 252 201 251
3 210 259 262
3 305 281 227
3 281 305 313
3 335 313 305
3 313 335 314
3 314 339 315
3 339 314 335
3 220 198 177
3 222 177 199
3 198 220 246
3 177 222 220
3 248 199 221
3 199 248 222
3 208 261 236
3 238 209 211
3 276 246 220
3 246 249 198
3 276 220 222
3 278 221 247
3 221 278 248
3 276 222 248
3 292 236 261
3 293 261 209
3 293 209 238
3 274 244 273
3 244 274 245
3 246 276 306
3 249 246 306
3 307 247 277
3 247 307 278
3 308 248 278
3 276 248 308
3 249 310 279
3 321 236 292
3 261 322 292
3 322 261 293
3 274 273 334
3 276 249 306
3 290 307 277
3 308 278 307
3 290 276 308
3 336 309 279
3 310 249 276
3 336 279 310
3 312 337 243
3 319 276 290
3 236 321 320
3 320 319 291
3 292 341 321
3 294 292 322
3 243 337 333
3 334 273 333
3 307 290 308
3 336 311 309
3 276 319 310
3 351 336 310
3 311 336 312
3 337 312 336
3 321 319 320
3 341 292 294
3 356 321 341
3 334 333 337
3 337 350 334
3 351 310 319
3 362 336 351
3 336 350 337
3 351 319 321
3 321 356 351
3 356 341 367
3 367 341 359
3 374 336 362
3 375 362 351
3 350 336 376
3 380 351 356
3 336 374 376
3 362 375 381
3 351 380 375
3 381 375 384
3 375 380 385
3 375 391 384
3 391 381 384
3 380 392 385
3 393 375 385
3 381 391 387
3 391 375 399
3 392 380 398
3 400 385 392
3 401 375 393
3 393 385 400
3 391 402 387
3 399 375 401
3 402 391 399
3 398 400 392
3 406 401 393
3 407 393 400
3 409 399 401
3 399 409 402
3 400 398 407
3 401 406 409
3 393 407 406
3 167 209 189
3 190 211 167
3 209 208 189
3 209 167 211
3 211 190 238
3 218 244 196
3 196 245 219
3 261 208 209
3 237 238 190
3 244 218 273
3 245 196 244
3 274 219 245
3 238 237 293
3 243 273 272
3 272 273 218
3 219 274 275
3 294 293 237
3 273 243 333
3 334 275 274
3 293 294 322
3 275 334 350
3 234 257 205
3 256 288 234
3 257 234 288
3 316 256 255
3 288 256 317
3 256 316 317
3 363 338 339
3 338 363 352
3 352 378 364
3 378 352 363
3 378 353 364
3 353 378 365
3 183 229 202
3 228 253 183
3 229 183 253
3 253 228 283
3 262 358 342
3 358 262 355
3 354 342 358
3 342 354 379
3 345 298 327
3 298 345 360
3 349 345 327
3 360 346 298
3 347 360 329
3 360 331 329
3 331 360 345
3 345 349 369
3 346 360 370
3 360 347 370
3 345 361 331
3 361 345 369
3 369 349 346
3 370 369 346
3 371 370 347
3 372 346 349
3 369 370 361
3 371 361 370
3 360 369 345
3 345 369 360
3 369 360 370
3 370 360 369
