ply
format ascii 1.0
comment Generated by PyMesh
element vertex 223
property double x
property double y
property double z
element face 866
property list uchar int vertex_indices
end_header
-0.00395099 0.0185075 0.0723379
-0.00333034 0.00522386 0.0103777
-0.00333034 0.00522386 0.0723379
-0.00333034 0.00522386 -0.051583
-0.00504922 0.00514342 0.0723379
-0.00395099 0.0185075 -0.051583
-0.00504922 0.00514342 0.0103777
-0.00333034 -0.196173 -0.345042
-0.00668104 0.0183802 0.0723379
-0.00668104 0.0183802 -0.051583
-0.00504922 0.00514342 -0.051583
-0.00673603 0.00480381 0.0723379
-0.00333034 0.29242 -0.345404
-0.00333034 -0.196173 0.345404
-0.00673603 0.00480381 0.0103777
-0.00333034 0.0185365 -0.051583
0.0456441 -0.196173 -0.345042
-0.00333034 -0.201647 0.345046
-0.00333034 0.29242 0.345042
-0.0103535 0.017641 0.0723379
-0.0103535 0.017641 -0.051583
-0.00673603 0.00480381 -0.051583
-0.00835155 0.00421269 0.0723379
0.0456441 0.29242 -0.345404
-0.00333034 -0.201647 -0.344684
0.0456441 -0.201647 0.345046
0.0456441 -0.196173 0.345404
-0.00333034 0.0185365 0.0723379
-0.00835155 0.00421269 0.0103777
-0.00333034 0.297894 0.344683
0.0456441 0.297894 -0.345046
0.0456441 -0.153081 -0.296577
0.0456441 -0.201647 -0.344684
-0.00333034 -0.207919 0.343798
0.0456441 -0.207919 0.343798
0.0456441 0.29242 0.345042
-0.00985914 0.0033838 0.0723379
-0.0138717 0.0163538 -0.051583
-0.00835155 0.00421269 -0.051583
-0.00333034 0.297894 -0.345046
0.0456441 0.297894 0.344683
0.0456441 0.291513 -0.296577
0.0456441 -0.153081 0.296215
-0.00333034 -0.207919 -0.343436
-0.0112242 0.00233597 0.0723379
-0.0138717 0.0163538 0.0723379
-0.0112242 0.00233597 -0.051583
-0.00985914 0.0033838 -0.051583
-0.00985914 0.0033838 0.0103777
-0.00333034 0.304166 -0.343798
0.0456441 0.304166 -0.343798
0.0456441 0.291513 0.296215
0.0456441 0.291513 -0.296577
0.0456441 0.291513 0.296215
0.0456441 -0.153081 -0.296577
0.0456441 -0.153081 0.296215
0.0456441 -0.207919 -0.343436
-0.00333034 -0.213974 0.341743
0.0456441 -0.213974 0.341743
-0.0171542 0.0145489 -0.051583
-0.0124146 0.00109365 -0.051583
-0.00333034 0.304166 0.343436
0.0456441 0.304166 0.343436
0.0456441 -0.213974 -0.34138
-0.00333034 -0.213974 -0.34138
-0.0112242 0.00233597 0.0103777
-0.0124146 0.00109365 0.0723379
-0.0171542 0.0145489 0.0723379
-0.0141665 -0.00185635 -0.051583
-0.0134028 -0.000314647 -0.051583
-0.00333034 0.310221 0.34138
0.0456441 0.310221 -0.341743
-0.00333034 -0.219709 -0.338552
0.0456441 -0.219709 0.338914
-0.0124146 0.00109365 0.0103777
-0.0134028 -0.000314647 0.0723379
-0.0141665 -0.00185635 0.0723379
-0.0201256 0.0122674 -0.051583
-0.0146884 -0.0034958 -0.051583
-0.00333034 0.310221 -0.341743
0.0456441 0.310221 0.34138
0.0456441 -0.219709 -0.338552
-0.00333034 -0.219709 0.338914
-0.0134028 -0.000314647 0.0103777
-0.0146884 -0.0034958 0.0723379
-0.0201256 0.0122674 0.0723379
-0.107425 -0.295033 -0.0930964
-0.00333034 0.315957 0.338552
0.0456441 0.315957 -0.338914
0.0456441 0.315957 0.338552
-0.00333034 -0.225026 0.335362
0.0456441 -0.225026 0.335362
-0.0141665 -0.00185635 0.0103777
-0.107425 -0.295033 0.113851
-0.0227172 0.00956281 0.0723379
-0.0227172 0.00956281 -0.051583
-0.00333034 0.315957 -0.338914
0.0456441 -0.225026 -0.334999
-0.00333034 -0.225026 -0.334999
-0.0248693 0.00649673 -0.051583
-0.00333034 0.321273 0.334999
0.0456441 0.321273 -0.335362
0.0456441 0.321273 0.334999
-0.00333034 -0.229834 0.331145
0.0456441 -0.229834 0.331145
-0.108299 -0.298774 -0.0930964
-0.0248693 0.00649673 0.0723379
-0.0265322 0.00313992 -0.051583
-0.00333034 0.321273 -0.335362
-0.00333034 -0.229834 -0.330783
0.0456441 -0.229834 -0.330783
-0.108299 -0.298774 0.113851
-0.120255 -0.291499 -0.0930964
-0.0265322 0.00313992 0.0723379
-0.0273606 0.000535119 -0.051583
-0.00333034 0.326081 0.330783
0.0456441 0.326081 -0.331145
0.0456441 0.326081 0.330783
-0.00333034 -0.234051 0.326337
0.0456441 -0.234051 0.326337
-0.10858 -0.302606 -0.0930964
-0.120255 -0.291499 0.113851
-0.0273606 0.000535119 0.0723379
-0.00333034 0.326081 -0.331145
0.0456441 -0.234051 -0.325975
-0.00333034 -0.234051 -0.325975
-0.10858 -0.302606 0.113851
-0.110749 -0.329349 -0.0930964
-0.00333034 0.330297 0.325975
-0.00333034 0.330297 -0.326337
0.0456441 0.330297 0.325975
-0.00333034 -0.237603 -0.320658
-0.00333034 -0.237603 0.32102
0.0456441 -0.237603 -0.320658
-0.10826 -0.306434 -0.0930964
-0.110749 -0.329349 0.113851
-0.114612 -0.324853 -0.0930964
-0.121486 -0.296762 0.113851
0.0456441 0.330297 -0.326337
0.0456441 -0.237603 0.32102
-0.10826 -0.306434 0.113851
-0.114612 -0.324853 0.113851
-0.117726 -0.319808 -0.0930964
-0.107347 -0.310166 -0.0930964
-0.121486 -0.296762 -0.0930964
-0.121425 -0.308582 0.113851
0.0456441 0.33385 0.320658
-0.00333034 0.33385 0.320658
-0.00333034 0.33385 -0.32102
-0.00333034 -0.240432 -0.314923
0.0456441 -0.240432 -0.314923
-0.00333034 -0.240432 0.315285
-0.107347 -0.310166 0.113851
-0.117726 -0.319808 0.113851
-0.120016 -0.31434 -0.0930964
-0.106233 -0.333189 -0.0930964
-0.121919 -0.302675 0.113851
-0.121425 -0.308582 -0.0930964
-0.120016 -0.31434 0.113851
0.0456441 0.33385 -0.32102
0.0456441 -0.240432 0.315285
-0.106233 -0.333189 0.113851
-0.105863 -0.313709 -0.0930964
-0.121919 -0.302675 -0.0930964
0.0456441 0.336678 0.314923
-0.00333034 0.336678 -0.315285
0.0456441 0.336678 -0.315285
-0.00333034 -0.242487 0.30923
0.0456441 -0.242487 -0.308868
0.0456441 -0.242487 0.30923
-0.105863 -0.313709 0.113851
-0.101172 -0.336277 -0.0930964
-0.103845 -0.316979 -0.0930964
-0.00333034 0.336678 0.314923
-0.00333034 -0.242487 -0.308868
-0.103845 -0.316979 0.113851
-0.101172 -0.336277 0.113851
-0.101341 -0.319892 -0.0930964
0.0456441 0.338734 0.308868
-0.00333034 0.338734 0.308868
-0.00333034 0.338734 -0.30923
-0.00333034 -0.243735 0.302958
0.0456441 -0.243735 -0.302596
0.0456441 -0.243735 0.302958
-0.101341 -0.319892 0.113851
-0.0956928 -0.338538 -0.0930964
-0.0984142 -0.322381 -0.0930964
0.0456441 0.338734 -0.30923
-0.00333034 -0.243735 -0.302596
-0.0984142 -0.322381 0.113851
-0.0956928 -0.338538 0.113851
0.0456441 0.339982 0.302595
0.0456441 0.339982 -0.302958
-0.00333034 0.339982 -0.302958
-0.00333034 -0.244094 -0.297121
0.0456441 -0.244094 0.297484
0.0456441 -0.244094 -0.297121
-0.0899272 -0.339918 -0.0930964
-0.0951347 -0.324382 -0.0930964
-0.0951347 -0.324382 0.113851
-0.00333034 0.339982 0.302595
-0.00333034 -0.244094 0.297484
-0.0899272 -0.339918 0.113851
-0.0915834 -0.325848 -0.0930964
0.0456441 0.34034 0.297121
0.0456441 0.34034 -0.297484
-0.00333034 0.34034 -0.297484
-0.00333034 0.34034 0.297121
-0.0915834 -0.325848 0.113851
-0.0845384 -0.34034 -0.0930964
-0.0878473 -0.326742 -0.0930964
-0.0878473 -0.326742 0.113851
-0.0845384 -0.34034 0.113851
0.121919 -0.34034 -0.0930964
-0.0840175 -0.327042 -0.0930964
-0.0840175 -0.327042 0.113851
0.0080761 -0.34034 0.113851
0.0080761 -0.34034 -0.0930964
0.0080761 -0.327042 0.113851
0.121919 -0.34034 0.113851
0.0080761 -0.327042 -0.0930964
0.121919 -0.327042 0.113851
0.121919 -0.327042 -0.0930964
3 0 1 2
3 1 0 3
3 2 1 0
3 3 0 1
3 3 2 1
3 1 2 3
3 4 0 2
3 2 0 4
3 3 0 5
3 5 0 3
3 3 7 2
3 2 7 3
3 0 4 8
3 8 4 0
3 5 10 3
3 3 10 5
3 7 3 12
3 12 3 7
3 7 13 2
3 2 13 7
3 8 4 11
3 11 4 8
3 10 5 9
3 9 5 10
3 12 3 15
3 15 3 12
3 12 16 7
3 7 16 12
3 7 17 13
3 13 17 7
3 2 13 18
3 18 13 2
3 8 11 19
3 19 11 8
3 10 9 21
3 21 9 10
3 12 15 18
3 18 15 12
3 16 12 23
3 23 12 16
3 24 17 7
3 7 17 24
3 26 18 13
3 13 18 26
3 2 18 27
3 27 18 2
3 19 11 22
3 22 11 19
3 21 9 20
3 20 9 21
3 27 18 15
3 15 18 27
3 12 18 29
3 29 18 12
3 23 31 16
3 16 31 23
3 24 33 17
3 17 33 24
3 18 26 35
3 35 26 18
3 19 22 36
3 36 22 19
3 21 20 38
3 38 20 21
3 12 29 39
3 39 29 12
3 40 23 30
3 30 23 40
3 31 23 41
3 41 23 31
3 42 16 31
3 31 16 42
3 25 32 16
3 16 32 25
3 43 33 24
3 24 33 43
3 25 16 26
3 26 16 25
3 34 32 25
3 25 32 34
3 26 42 35
3 35 42 26
3 19 36 44
3 44 36 19
3 46 20 37
3 37 20 46
3 38 20 47
3 47 20 38
3 39 29 49
3 49 29 39
3 35 23 40
3 40 23 35
3 40 30 50
3 50 30 40
3 41 23 51
3 51 23 41
3 26 16 42
3 42 16 26
3 43 57 33
3 33 57 43
3 34 56 32
3 32 56 34
3 35 42 51
3 51 42 35
3 19 44 45
3 45 44 19
3 47 20 46
3 46 20 47
3 46 37 60
3 60 37 46
3 49 29 61
3 61 29 49
3 51 23 35
3 35 23 51
3 40 50 62
3 62 50 40
3 64 57 43
3 43 57 64
3 58 56 34
3 34 56 58
3 45 44 66
3 66 44 45
3 68 37 59
3 59 37 68
3 60 37 69
3 69 37 60
3 49 61 70
3 70 61 49
3 62 50 71
3 71 50 62
3 58 63 56
3 56 63 58
3 72 57 64
3 64 57 72
3 45 66 75
3 75 66 45
3 45 76 67
3 67 76 45
3 69 37 68
3 68 37 69
3 68 59 78
3 78 59 68
3 49 70 79
3 79 70 49
3 62 71 80
3 80 71 62
3 58 81 63
3 63 81 58
3 72 82 57
3 57 82 72
3 73 81 58
3 58 81 73
3 45 75 76
3 76 75 45
3 67 76 84
3 84 76 67
3 86 59 77
3 77 59 86
3 86 78 59
3 59 78 86
3 79 70 87
3 87 70 79
3 80 71 89
3 89 71 80
3 72 90 82
3 82 90 72
3 91 81 73
3 73 81 91
3 93 67 84
3 84 67 93
3 93 85 67
3 67 85 93
3 86 77 95
3 95 77 86
3 79 87 96
3 96 87 79
3 89 71 88
3 88 71 89
3 98 90 72
3 72 90 98
3 91 97 81
3 81 97 91
3 93 94 85
3 85 94 93
3 86 95 99
3 99 95 86
3 96 87 100
3 100 87 96
3 89 88 102
3 102 88 89
3 98 103 90
3 90 103 98
3 104 97 91
3 91 97 104
3 93 106 94
3 94 106 93
3 86 99 107
3 107 99 86
3 96 100 108
3 108 100 96
3 102 88 101
3 101 88 102
3 109 103 98
3 98 103 109
3 104 110 97
3 97 110 104
3 112 105 86
3 86 105 112
3 93 113 106
3 106 113 93
3 107 114 86
3 86 114 107
3 108 100 115
3 115 100 108
3 102 101 117
3 117 101 102
3 109 118 103
3 103 118 109
3 119 110 104
3 104 110 119
3 111 121 93
3 93 121 111
3 105 112 120
3 120 112 105
3 112 86 114
3 114 86 112
3 113 93 122
3 122 93 113
3 108 115 123
3 123 115 108
3 117 101 116
3 116 101 117
3 125 118 109
3 109 118 125
3 119 124 110
3 110 124 119
3 121 111 126
3 126 111 121
3 121 122 93
3 93 122 121
3 120 112 127
3 127 112 120
3 123 115 128
3 128 115 123
3 117 116 130
3 130 116 117
3 131 118 125
3 125 118 131
3 119 133 124
3 124 133 119
3 121 126 135
3 135 126 121
3 127 112 136
3 136 112 127
3 127 134 120
3 120 134 127
3 123 128 129
3 129 128 123
3 130 116 138
3 138 116 130
3 131 132 118
3 118 132 131
3 139 133 119
3 119 133 139
3 140 135 126
3 126 135 140
3 121 135 141
3 141 135 121
3 136 112 142
3 142 112 136
3 127 143 134
3 134 143 127
3 121 145 137
3 137 145 121
3 129 128 147
3 147 128 129
3 130 138 146
3 146 138 130
3 149 132 131
3 131 132 149
3 139 150 133
3 133 150 139
3 152 135 140
3 140 135 152
3 121 141 153
3 153 141 121
3 142 112 154
3 154 112 142
3 155 143 127
3 127 143 155
3 157 112 144
3 144 112 157
3 121 158 145
3 145 158 121
3 137 145 156
3 156 145 137
3 129 147 148
3 148 147 129
3 146 138 159
3 159 138 146
3 149 151 132
3 132 151 149
3 160 150 139
3 139 150 160
3 152 161 135
3 135 161 152
3 121 153 158
3 158 153 121
3 154 112 157
3 157 112 154
3 155 162 143
3 143 162 155
3 157 144 163
3 163 144 157
3 148 147 165
3 165 147 148
3 146 159 166
3 166 159 146
3 149 167 151
3 151 167 149
3 169 150 160
3 160 150 169
3 170 161 152
3 152 161 170
3 155 172 162
3 162 172 155
3 146 166 164
3 164 166 146
3 165 147 173
3 173 147 165
3 174 167 149
3 149 167 174
3 169 168 150
3 150 168 169
3 175 161 170
3 170 161 175
3 171 177 155
3 155 177 171
3 155 177 172
3 172 177 155
3 164 166 178
3 178 166 164
3 165 173 179
3 179 173 165
3 174 181 167
3 167 181 174
3 183 168 169
3 169 168 183
3 184 161 175
3 175 161 184
3 184 176 161
3 161 176 184
3 171 186 177
3 177 186 171
3 178 166 187
3 187 166 178
3 165 179 180
3 180 179 165
3 188 181 174
3 174 181 188
3 183 182 168
3 168 182 183
3 189 176 184
3 184 176 189
3 185 186 171
3 171 186 185
3 178 187 192
3 192 187 178
3 180 179 193
3 193 179 180
3 194 181 188
3 188 181 194
3 183 196 182
3 182 196 183
3 189 190 176
3 176 190 189
3 185 198 186
3 186 198 185
3 178 192 191
3 191 192 178
3 193 179 200
3 200 179 193
3 181 194 201
3 201 194 181
3 196 183 195
3 195 183 196
3 199 190 189
3 189 190 199
3 197 203 185
3 185 203 197
3 185 203 198
3 198 203 185
3 191 192 205
3 205 192 191
3 193 200 207
3 207 200 193
3 196 201 194
3 194 201 196
3 201 196 195
3 195 196 201
3 208 190 199
3 199 190 208
3 208 202 190
3 190 202 208
3 197 210 203
3 203 210 197
3 191 205 204
3 204 205 191
3 193 207 206
3 206 207 193
3 211 202 208
3 208 202 211
3 209 210 197
3 197 210 209
3 205 207 204
3 204 207 205
3 207 205 206
3 206 205 207
3 211 212 202
3 202 212 211
3 209 214 210
3 210 214 209
3 215 212 211
3 211 212 215
3 217 214 209
3 209 214 217
3 218 212 215
3 215 212 218
3 213 216 219
3 219 216 213
3 218 216 212
3 212 216 218
3 213 220 217
3 217 220 213
3 217 220 214
3 214 220 217
3 216 221 219
3 219 221 216
3 221 213 219
3 219 213 221
3 221 216 218
3 218 216 221
3 220 213 222
3 222 213 220
3 213 221 222
3 222 221 213
3 1 4 2
3 2 4 1
3 3 6 1
3 1 6 3
3 4 1 6
3 6 1 4
3 0 9 5
3 5 9 0
3 6 3 10
3 10 3 6
3 6 11 4
3 4 11 6
3 9 0 8
3 8 0 9
3 10 14 6
3 6 14 10
3 11 6 14
3 14 6 11
3 8 20 9
3 9 20 8
3 14 10 21
3 21 10 14
3 14 22 11
3 11 22 14
3 16 24 7
3 7 24 16
3 25 13 17
3 17 13 25
3 20 8 19
3 19 8 20
3 21 28 14
3 14 28 21
3 22 14 28
3 28 14 22
3 12 30 23
3 23 30 12
3 24 16 32
3 32 16 24
3 13 25 26
3 26 25 13
3 17 34 25
3 25 34 17
3 19 37 20
3 20 37 19
3 28 21 38
3 38 21 28
3 28 36 22
3 22 36 28
3 35 29 18
3 18 29 35
3 30 12 39
3 39 12 30
3 32 43 24
3 24 43 32
3 34 17 33
3 33 17 34
3 37 19 45
3 45 19 37
3 38 48 28
3 28 48 38
3 36 28 48
3 48 28 36
3 29 35 40
3 40 35 29
3 39 50 30
3 30 50 39
3 43 32 56
3 56 32 43
3 33 58 34
3 34 58 33
3 48 44 36
3 36 44 48
3 45 59 37
3 37 59 45
3 48 38 47
3 47 38 48
3 40 61 29
3 29 61 40
3 50 39 49
3 49 39 50
3 63 43 56
3 56 43 63
3 58 33 57
3 57 33 58
3 44 48 65
3 65 48 44
3 59 45 67
3 67 45 59
3 65 47 46
3 46 47 65
3 60 65 46
3 46 65 60
3 47 65 48
3 48 65 47
3 61 40 62
3 62 40 61
3 49 71 50
3 50 71 49
3 43 63 64
3 64 63 43
3 57 73 58
3 58 73 57
3 74 44 65
3 65 44 74
3 44 74 66
3 66 74 44
3 67 77 59
3 59 77 67
3 69 74 60
3 60 74 69
3 65 60 74
3 74 60 65
3 62 70 61
3 61 70 62
3 71 49 79
3 79 49 71
3 63 72 64
3 64 72 63
3 73 57 82
3 82 57 73
3 83 66 74
3 74 66 83
3 66 83 75
3 75 83 66
3 77 67 85
3 85 67 77
3 68 83 69
3 69 83 68
3 78 76 68
3 68 76 78
3 74 69 83
3 83 69 74
3 70 62 80
3 80 62 70
3 79 88 71
3 71 88 79
3 72 63 81
3 81 63 72
3 82 91 73
3 73 91 82
3 92 75 83
3 83 75 92
3 75 92 76
3 76 92 75
3 78 84 76
3 76 84 78
3 94 77 85
3 85 77 94
3 83 68 92
3 92 68 83
3 86 84 78
3 78 84 86
3 68 76 92
3 92 76 68
3 80 87 70
3 70 87 80
3 88 79 96
3 96 79 88
3 87 80 89
3 89 80 87
3 97 72 81
3 81 72 97
3 91 82 90
3 90 82 91
3 84 86 93
3 93 86 84
3 77 94 95
3 95 94 77
3 96 101 88
3 88 101 96
3 89 100 87
3 87 100 89
3 72 97 98
3 98 97 72
3 90 104 91
3 91 104 90
3 105 93 86
3 86 93 105
3 106 95 94
3 94 95 106
3 95 106 99
3 99 106 95
3 101 96 108
3 108 96 101
3 100 89 102
3 102 89 100
3 97 109 98
3 98 109 97
3 104 90 103
3 103 90 104
3 93 105 111
3 111 105 93
3 113 99 106
3 106 99 113
3 99 113 107
3 107 113 99
3 108 116 101
3 101 116 108
3 102 115 100
3 100 115 102
3 109 97 110
3 110 97 109
3 118 104 103
3 103 104 118
3 120 111 105
3 105 111 120
3 122 107 113
3 113 107 122
3 122 114 107
3 107 114 122
3 116 108 123
3 123 108 116
3 115 102 117
3 117 102 115
3 124 109 110
3 110 109 124
3 104 118 119
3 119 118 104
3 111 120 126
3 126 120 111
3 114 121 112
3 112 121 114
3 121 114 122
3 122 114 121
3 129 116 123
3 123 116 129
3 130 115 117
3 117 115 130
3 109 124 125
3 125 124 109
3 132 119 118
3 118 119 132
3 134 126 120
3 120 126 134
3 137 112 121
3 121 112 137
3 115 130 128
3 128 130 115
3 116 129 138
3 138 129 116
3 133 125 124
3 124 125 133
3 125 133 131
3 131 133 125
3 119 132 139
3 139 132 119
3 126 134 140
3 140 134 126
3 136 135 127
3 127 135 136
3 112 137 144
3 144 137 112
3 146 128 130
3 130 128 146
3 148 138 129
3 129 138 148
3 150 131 133
3 133 131 150
3 151 139 132
3 132 139 151
3 143 140 134
3 134 140 143
3 135 136 141
3 141 136 135
3 142 141 136
3 136 141 142
3 135 155 127
3 127 155 135
3 156 144 137
3 137 144 156
3 128 146 147
3 147 146 128
3 138 148 159
3 159 148 138
3 131 150 149
3 149 150 131
3 139 151 160
3 160 151 139
3 140 143 152
3 152 143 140
3 141 142 153
3 153 142 141
3 154 153 142
3 142 153 154
3 155 135 161
3 161 135 155
3 144 156 163
3 163 156 144
3 158 157 145
3 145 157 158
3 145 163 156
3 156 163 145
3 164 147 146
3 146 147 164
3 165 159 148
3 148 159 165
3 168 149 150
3 150 149 168
3 167 160 151
3 151 160 167
3 162 152 143
3 143 152 162
3 153 154 158
3 158 154 153
3 157 158 154
3 154 158 157
3 161 171 155
3 155 171 161
3 163 145 157
3 157 145 163
3 147 164 173
3 173 164 147
3 159 165 166
3 166 165 159
3 149 168 174
3 174 168 149
3 160 167 169
3 169 167 160
3 152 162 170
3 170 162 152
3 171 161 176
3 176 161 171
3 172 170 162
3 162 170 172
3 178 173 164
3 164 173 178
3 180 166 165
3 165 166 180
3 182 174 168
3 168 174 182
3 167 183 169
3 169 183 167
3 170 172 175
3 175 172 170
3 176 185 171
3 171 185 176
3 177 175 172
3 172 175 177
3 173 178 179
3 179 178 173
3 166 180 187
3 187 180 166
3 183 167 181
3 181 167 183
3 174 182 188
3 188 182 174
3 175 177 184
3 184 177 175
3 185 176 190
3 190 176 185
3 189 177 186
3 186 177 189
3 191 179 178
3 178 179 191
3 193 187 180
3 180 187 193
3 181 195 183
3 183 195 181
3 196 188 182
3 182 188 196
3 177 189 184
3 184 189 177
3 190 197 185
3 185 197 190
3 186 199 189
3 189 199 186
3 179 191 200
3 200 191 179
3 187 193 192
3 192 193 187
3 188 196 194
3 194 196 188
3 195 181 201
3 201 181 195
3 197 190 202
3 202 190 197
3 199 186 198
3 198 186 199
3 204 200 191
3 191 200 204
3 206 192 193
3 193 192 206
3 202 209 197
3 197 209 202
3 208 198 203
3 203 198 208
3 198 208 199
3 199 208 198
3 200 204 207
3 207 204 200
3 192 206 205
3 205 206 192
3 209 202 212
3 212 202 209
3 211 203 210
3 210 203 211
3 203 211 208
3 208 211 203
3 212 213 209
3 209 213 212
3 210 215 211
3 211 215 210
3 216 213 212
3 212 213 216
3 209 213 217
3 217 213 209
3 215 210 214
3 214 210 215
3 214 218 215
3 215 218 214
3 222 214 220
3 220 214 222
3 218 214 221
3 221 214 218
3 221 214 222
3 222 214 221
3 52 53 54
3 52 54 53
3 55 54 53
3 55 53 54
