ply
format ascii 1.0
comment Generated by PyMesh
element vertex 516
property double x
property double y
property double z
element face 2202
property list uchar int vertex_indices
end_header
0.172592 0.0785294 0.0141009
0.169869 0.0782778 0.0173251
0.172234 0.0786296 0.0175572
0.170226 0.0781776 0.0138688
0.169566 0.0803954 0.0172339
0.172283 0.0806465 0.0140072
0.169918 0.0802946 0.0137751
0.171932 0.0807472 0.017466
0.0696674 0.00935873 -0.00323327
0.0701139 0.00452713 -0.00304782
0.069922 0.00693341 -0.0034543
0.0702287 0.00230278 -0.00202787
-0.157309 -0.0149507 -0.0261343
-0.157567 -0.0125253 -0.0259077
0.0693641 0.0116392 -0.00238623
-0.157119 -0.0173569 -0.0257223
-0.15787 -0.0102444 -0.0250607
0.0702553 0.00041174 -0.000466619
-0.157011 -0.0195813 -0.0247048
-0.158201 -0.00827162 -0.0236543
0.0690303 0.0136125 -0.000973838
-0.156982 -0.0214723 -0.0231491
0.0701936 -0.00101469 0.00152116
-0.158537 -0.00673242 -0.0217738
-0.157046 -0.0228988 -0.0211558
0.068696 0.0151517 0.000900666
0.0700493 -0.00188829 0.00380765
-0.157188 -0.0237719 -0.0188753
-0.158854 -0.00573352 -0.0195655
0.0683833 0.0161506 0.00311749
0.0698328 -0.00213287 0.00623398
-0.157407 -0.0240169 -0.0164425
-0.159131 -0.00534359 -0.0171567
0.0681031 0.01654 0.00551776
0.0695526 -0.00174995 0.00863424
-0.157681 -0.0236275 -0.0140402
-0.159353 -0.00559519 -0.0147324
0.0678866 0.0162889 0.00794409
0.0692343 -0.000751053 0.0108486
-0.158 -0.0226346 -0.0118259
-0.159497 -0.00646227 -0.0124464
0.0677422 0.0154218 0.0102306
0.0688995 0.000788646 0.0127231
-0.158334 -0.0210954 -0.00995141
-0.159559 -0.0078882 -0.0104586
0.0676806 0.0139954 0.0122184
0.0685687 0.0027679 0.0141299
-0.158665 -0.0191162 -0.00854453
0.0677097 0.0121043 0.0137741
-0.15953 -0.00977974 -0.00890289
0.0682655 0.00504236 0.0149765
-0.158968 -0.0168357 -0.00769799
0.0678184 0.00987999 0.0147915
-0.159415 -0.0120036 -0.00788294
0.0680084 0.00747371 0.0152035
-0.159226 -0.0144104 -0.00747095
0.0482509 0.00557013 0.0132358
-0.136747 -0.0122487 -0.00522605
0.176648 0.070028 0.00589967
0.178041 0.0547478 0.0067412
0.178013 0.0557532 0.0060365
0.176339 0.0717621 0.00733563
0.464553 0.0823431 0.0353359
-0.365381 0.00342097 -0.0481958
0.176772 0.0693559 0.00533883
-0.267941 0.0272151 -0.0384724
0.463286 0.0969451 0.033927
-0.26825 0.0289433 -0.0370365
0.177988 0.0527309 0.00916753
0.177973 0.057324 0.00491782
-0.365376 0.00327662 -0.048092
-0.365356 0.00242207 -0.0474851
-0.137332 0.0168041 -0.0254356
-0.365499 0.00456472 -0.0481086
0.175825 0.0786362 0.00581698
-0.36674 0.0177028 -0.0483306
-0.268582 0.0338877 -0.0385341
0.462854 0.0993514 0.0359243
-0.268683 0.0307461 -0.0344818
0.175913 0.0735595 0.00989277
-0.3654 0.000399209 -0.0450623
0.464485 0.0849193 0.0335125
0.178824 0.0472518 0.00611369
0.464508 0.0803197 0.0377587
-0.364536 -0.00607284 -0.0474926
-0.364572 -0.00507995 -0.0481126
-0.393413 -0.00885602 -0.0508913
0.177178 0.0665035 0.00403069
0.46369 0.0940988 0.0326254
0.111608 0.0724533 -0.000591419
-0.367049 0.0194304 -0.0468942
-0.263637 0.0343593 -0.0380434
0.462346 0.106231 0.0344082
0.483047 0.0988487 0.0359033
-0.268372 0.0294395 -0.0363318
0.17783 0.0513987 0.0120269
-0.365558 -0.000926976 -0.0422029
0.465388 0.0733018 0.0356682
0.484316 0.0842466 0.0373061
0.177796 0.0602831 0.00381767
-0.364565 -0.00524335 -0.0480143
-0.367479 0.00456472 -0.0282549
-0.137297 0.0158112 -0.0248156
0.118484 0.0404474 0.000706198
-0.395399 -0.00885602 -0.0310396
0.483453 0.0960024 0.0345956
0.177527 0.0634121 0.00351595
0.0720902 0.0686457 -0.00453489
0.109678 0.0724533 0.0187465
-0.367481 0.0212338 -0.0443395
-0.268764 0.0358228 -0.0385551
-0.26874 0.0358228 -0.0388102
-0.263827 0.0363005 -0.0380604
0.462427 0.101155 0.0384814
0.482614 0.101255 0.0379001
-0.269079 0.0318207 -0.0315378
-0.268359 0.028805 -0.0358371
-0.268956 0.0357226 -0.0365468
0.175516 0.0746335 0.0128363
0.464311 0.0878723 0.0324064
0.484248 0.0868228 0.0354827
0.178324 0.061898 -0.00305634
0.464351 0.078994 0.0406176
0.484263 0.0822238 0.0397325
-0.137239 0.0158112 -0.0254311
-0.364488 -0.00607284 -0.0480033
0.178854 0.0462594 0.00673167
-0.393467 -0.00885602 -0.050383
-0.366466 -0.00607284 -0.0281551
0.464039 0.0910009 0.0321101
0.483802 0.0929049 0.0340804
-0.142255 0.0481945 -0.00639236
0.174986 0.0786362 0.0143445
-0.263797 0.0363005 -0.0383135
0.460395 0.106778 0.0534033
0.483473 0.0934077 0.0368616
-0.367878 0.0223083 -0.0413959
-0.270504 0.0359236 -0.0212195
-0.268672 0.0303316 -0.0341781
-0.268415 0.0272216 -0.0337656
0.177574 0.0508524 0.0151238
-0.365816 -0.0014798 -0.0390999
0.464843 0.0894932 0.0255404
0.463442 0.0738482 0.0546658
0.48388 0.0883244 0.0376835
-0.136545 0.00586534 -0.0247424
0.0484529 0.0236776 -0.00628059
0.178915 0.0462594 0.00612421
0.116551 0.0404474 0.0200497
-0.484316 -0.0174201 -0.0399124
-0.367414 0.00407454 -0.0284794
-0.138475 0.00586534 -0.00540498
0.484071 0.0897759 0.0343826
0.174641 0.0786362 0.0178058
0.173931 0.0776493 0.0257749
-0.269019 0.038393 -0.0384975
-0.264076 0.0388701 -0.0380008
0.17388 0.0791825 0.0248151
0.46203 0.102223 0.041425
0.482187 0.103052 0.0404572
0.483715 0.0908189 0.0369347
0.483172 0.0959272 0.0374575
-0.269417 0.0320908 -0.0284067
-0.368214 0.0225785 -0.0382704
-0.268716 0.0291317 -0.0325637
0.175174 0.0749037 0.0159593
-0.366152 -0.00120314 -0.0359749
0.464092 0.0784412 0.0437205
0.484106 0.0808916 0.0425913
0.176922 0.0462594 0.0260751
0.483958 0.0861126 0.0390413
-0.244655 -0.0069334 -0.0355329
-0.176356 -0.00780049 -0.00918055
0.120251 0.0218683 0.000887634
0.178873 0.0457126 0.00707951
0.119632 0.0256694 0.00343325
-0.261794 -0.00830921 -0.037239
-0.482384 -0.0174201 -0.0592559
-0.197626 -0.00985492 -0.0113057
-0.366981 0.00166826 -0.0304762
0.17598 0.0564063 0.0257529
0.175909 0.0568904 0.0259749
-0.265751 0.0363005 -0.0187205
0.173901 0.0786362 0.0251569
-0.142226 0.0472016 -0.00577487
-0.264011 0.0362002 -0.0360561
0.460945 0.0905864 0.0635336
0.461693 0.102499 0.044556
0.482833 0.0981952 0.0386844
0.236479 0.06962 0.0122113
0.236177 0.0721391 0.0128073
-0.268834 0.02839 -0.0307018
-0.269673 0.031544 -0.0253098
-0.270696 0.0358228 -0.0192117
0.177239 0.0511226 0.0182493
-0.366554 -0.000135074 -0.0330334
0.483945 0.0843098 0.0409268
0.463751 0.0787179 0.0468435
0.174425 0.0629976 0.0349429
0.236718 0.0670313 0.01229
0.236886 0.0645428 0.0130328
-0.174424 -0.00780049 -0.028524
0.120938 0.014693 0.000954294
0.119986 0.0237092 0.00175722
0.11928 0.0271209 0.00556537
-0.262597 -0.0107912 -0.0373197
-0.475794 -0.106778 -0.0390618
-0.201858 -0.0177719 -0.0117257
0.176413 0.054 0.0237561
-0.136747 -0.0122487 -0.00522605
0.0465228 0.0236776 0.0130569
-0.368623 0.01654 -0.0283681
0.1746 0.0789815 0.0177892
0.174768 0.0688657 0.0258561
0.17384 0.0786362 0.0257644
-0.368472 0.0220317 -0.0351675
-0.269169 0.0377144 -0.0363288
-0.269347 0.0407867 -0.0375246
-0.264402 0.0412644 -0.037034
0.174957 0.0788813 0.0143324
0.461294 0.0960214 0.0547621
0.461437 0.101953 0.0476535
0.481791 0.104126 0.0434008
0.482472 0.100061 0.0404597
0.235837 0.0744075 0.0140397
-0.269005 0.0281579 -0.028712
-0.269233 0.0284406 -0.0267327
-0.269767 0.03047 -0.0233426
-0.26856 0.0262353 -0.0313638
-0.269875 0.028189 -0.0200276
-0.265567 0.0364012 -0.0207253
0.174919 0.0743574 0.0190568
0.483849 0.0803448 0.0456888
0.483837 0.0830658 0.0432078
0.463355 0.0797859 0.0497876
0.236963 0.062325 0.0143911
0.236948 0.0605282 0.0162821
-0.132757 -0.0338501 -0.0243635
-0.243481 -0.00925198 -0.0354136
-0.242044 -0.0069334 -0.0617358
-0.134688 -0.0338501 -0.00502607
0.123216 -0.00920135 0.00118385
0.120322 0.0213781 0.000651567
0.367932 0.0384807 0.0256045
0.367248 0.0456559 0.0255323
0.366987 0.0474908 0.0264099
0.118957 0.0279755 0.00800223
0.366627 0.0494576 0.0280835
-0.262434 -0.0107912 -0.038912
-0.331731 -0.0176772 -0.0442212
-0.473867 -0.106778 -0.0584078
-0.451431 -0.104434 -0.0366355
-0.206089 -0.0256945 -0.0121522
-0.200454 -0.0261721 -0.0115863
-0.199926 -0.0177719 -0.0310691
0.176842 0.0521966 0.0211929
0.462495 0.0839955 0.0543415
0.174714 0.0710083 0.0243445
0.462928 0.0815893 0.0523448
-0.269824 0.0260528 -0.01851
-0.368674 0.0186766 -0.0298853
-0.265744 0.0359551 -0.018507
-0.270661 0.0348304 -0.0185917
0.174782 0.0684322 0.0261679
-0.368629 0.0206995 -0.0323086
-0.26423 0.0381855 -0.0358406
-0.264756 0.0433188 -0.0354732
0.461229 0.0985971 0.0529332
0.461471 0.0930683 0.0558622
0.461279 0.10062 0.0505124
0.48145 0.104397 0.0465238
0.482122 0.101406 0.0426675
0.235476 0.07628 0.015815
-0.268783 0.025896 -0.0287902
-0.269489 0.029232 -0.0249003
-0.269831 0.0302123 -0.0224504
-0.269852 0.0293327 -0.0213984
-0.270663 0.0379028 -0.0215237
0.23684 0.0592777 0.0185631
0.483512 0.0806214 0.0488198
0.175577 0.0592526 0.027055
-0.171589 -0.0375886 -0.0282408
-0.195696 -0.00985492 -0.0306431
-0.259183 -0.00830921 -0.0634419
0.0503104 -0.0160378 0.0134358
-0.173516 -0.0375886 -0.00889487
0.0877298 -0.0126196 -0.00236167
0.122613 -0.00923293 0.00723839
0.120842 0.0162448 0.000397457
0.118676 0.0281639 0.0105859
0.119842 0.00594052 0.020379
0.366274 0.0509086 0.0302156
-0.25998 -0.0107912 -0.0635206
-0.331731 -0.0276552 -0.0442212
-0.449507 -0.104434 -0.0559755
-0.45268 -0.0913968 -0.0367578
-0.22742 -0.032763 -0.0142753
-0.204159 -0.0256945 -0.0314896
-0.195262 -0.034673 -0.0110681
0.174761 0.0730252 0.0219157
-0.266124 0.0412644 -0.0198407
-0.270681 0.0354835 -0.0190011
-0.265781 0.0363005 -0.0184679
-0.269419 0.0395738 -0.0356095
-0.269698 0.0428412 -0.0359699
0.481057 0.097925 0.0567323
0.46174 0.0899393 0.0561644
0.481234 0.0949719 0.0578324
0.481193 0.103856 0.0496212
0.481808 0.102129 0.045149
0.235128 0.0776182 0.0180173
-0.26907 0.0262353 -0.026223
-0.269405 0.0272216 -0.0238388
-0.269762 0.028805 -0.0217964
-0.270616 0.0348555 -0.0190763
-0.265727 0.0383805 -0.0210295
0.483647 0.0824433 0.0457339
0.236647 0.0586557 0.0210811
0.483118 0.0816895 0.0517578
0.462092 0.0868419 0.0556437
0.175228 0.062344 0.0275697
-0.242939 -0.0118026 -0.0353589
-0.240864 -0.00925198 -0.061614
0.0522405 -0.0160378 -0.00590168
0.0482509 0.00557013 0.0132358
0.109982 -0.010521 0.00597786
0.120616 0.0188275 0.000188455
0.365676 0.0519516 0.0352387
0.121286 -0.00920135 0.0205213
0.121886 -0.00917028 0.0144592
0.365951 0.0517631 0.0326529
-0.26011 -0.0133924 -0.0635336
-0.331571 -0.0176772 -0.045807
-0.339862 -0.0437709 -0.0450322
-0.45075 -0.0913968 -0.0560958
-0.451488 -0.104434 -0.0361213
-0.456167 -0.0547854 -0.0371071
-0.341793 -0.0437709 -0.0256942
-0.205144 -0.0356218 -0.012053
-0.19853 -0.0261721 -0.0309263
-0.243866 -0.0168793 -0.0354512
-0.257096 -0.0216042 -0.0367753
0.482688 0.0834928 0.0543205
-0.265992 0.0388701 -0.0188272
-0.27072 0.0358228 -0.018956
0.174958 0.0654791 0.027268
-0.264477 0.0400455 -0.0351129
-0.270055 0.0444245 -0.033928
0.481036 0.102524 0.0524801
0.480989 0.100501 0.0549089
0.481503 0.0918429 0.0581347
0.481544 0.102179 0.0477397
0.234814 0.0783405 0.0204987
-0.270757 0.0397437 -0.0223311
0.483383 0.0824939 0.0483246
0.483063 0.0832162 0.0508036
0.482256 0.0858991 0.0563178
-0.243069 -0.0144039 -0.0353725
0.0700899 -0.0142219 0.00564707
0.0488664 -0.000895399 0.0132934
-0.19333 -0.034673 -0.0304111
0.0772155 -0.013625 0.00241631
0.0975724 -0.0116648 0.00474139
0.109241 -0.0103135 0.0131997
-0.262567 -0.0133924 -0.038919
-0.240322 -0.0118026 -0.0615599
-0.369172 -0.0465987 -0.0479577
-0.225488 -0.032763 -0.0336188
-0.331571 -0.0276552 -0.045807
-0.454237 -0.0547854 -0.0564451
-0.452728 -0.0913968 -0.0362476
-0.371105 -0.0465987 -0.0286142
-0.223724 -0.0424267 -0.0139074
-0.203211 -0.0356218 -0.0313964
-0.245277 -0.0190661 -0.035593
-0.247203 -0.0208062 -0.0357855
-0.266156 0.0433188 -0.0214385
-0.271061 0.0407867 -0.0203348
-0.270929 0.038393 -0.0193219
-0.269693 0.0411762 -0.0344242
-0.265112 0.0448956 -0.0334313
0.481305 0.0962916 0.055788
0.481852 0.0887454 0.0576194
0.481352 0.101557 0.0502577
0.23455 0.0783911 0.0230895
-0.265821 0.0402214 -0.021837
0.236383 0.0587058 0.0236719
0.482716 0.0845549 0.0530058
-0.240458 -0.0144039 -0.0615754
0.0766802 -0.0136751 0.00265739
0.069718 -0.0141212 0.00925373
0.0691236 -0.0142219 0.0153183
0.0781708 -0.0235523 0.00242483
0.109884 -0.00958478 0.00606658
0.103437 -0.0110112 0.00897306
0.0976626 -0.0126446 0.00481958
0.103071 -0.0109611 0.0125822
0.110052 -0.0114508 0.00613624
0.102471 -0.0110112 0.0186448
-0.262025 -0.015937 -0.0388649
-0.259111 -0.0201908 -0.0385762
-0.341849 -0.0437709 -0.0251805
-0.226473 -0.0426903 -0.0141821
-0.20389 -0.0487664 -0.0119282
-0.242665 -0.0190661 -0.061796
-0.241256 -0.0168793 -0.0616541
-0.244586 -0.0208062 -0.0619864
-0.259272 -0.0201908 -0.0369899
0.482361 0.0864269 0.0547831
-0.271098 0.0428412 -0.0219352
-0.264748 0.0416538 -0.033933
-0.27039 0.0454108 -0.0315433
0.481229 0.0985094 0.0544298
0.481474 0.0938036 0.0565308
0.481243 0.100306 0.0525387
0.234355 0.0777751 0.025613
-0.270788 0.0413145 -0.0235882
0.23607 0.0594285 0.0261533
0.235719 0.0607667 0.0283611
0.481713 0.0912149 0.0566095
0.105035 -0.0107035 -0.00726495
0.0886825 -0.0225469 -0.00234814
0.0985282 -0.0215916 0.00474991
0.0703605 -0.0133859 0.0021206
0.109165 -0.00938379 0.0130393
0.109761 -0.00869915 0.00639637
0.110097 -0.0123118 0.0065362
-0.259569 -0.015937 -0.0634795
-0.260848 -0.0182556 -0.0387511
-0.371159 -0.0465987 -0.028106
-0.224549 -0.0426903 -0.0335225
-0.221791 -0.0424267 -0.0332509
-0.222637 -0.0538366 -0.0138042
-0.201957 -0.0487664 -0.0312716
-0.254479 -0.0216042 -0.0629763
0.482014 0.0886953 0.0560136
-0.265845 0.0417922 -0.0230915
-0.266106 0.0448956 -0.0235125
-0.269965 0.0424141 -0.0328639
-0.265028 0.0428913 -0.0323698
-0.265445 0.0458885 -0.0310526
0.234234 0.0747278 0.0297795
0.234311 0.0725099 0.0311373
0.234247 0.0765186 0.027894
0.235364 0.0626392 0.0301389
0.0716822 -0.0138636 -0.0105934
0.0702432 -0.0125063 0.00245289
0.0704643 -0.0143287 0.00203439
0.0696473 -0.0131849 0.00909535
0.109124 -0.00852323 0.0126479
0.109636 -0.00793882 0.00694368
0.110107 -0.0130466 0.00713815
-0.258392 -0.0182556 -0.0633657
-0.202386 -0.0645368 -0.0117813
-0.256655 -0.0201908 -0.0631908
0.23502 0.0649077 0.0313633
-0.271045 0.0444245 -0.0240007
-0.270677 0.0457502 -0.0289766
0.234477 0.0700155 0.0318861
-0.265802 0.042992 -0.0247059
0.234718 0.0674267 0.0319593
0.103158 -0.0118467 0.0125366
0.0704322 -0.0140269 0.00206196
0.0705345 -0.0152584 0.00219277
0.0695997 -0.0123244 0.00870141
0.109109 -0.00778796 0.0120429
0.0701129 -0.01174 0.0029972
0.109508 -0.00734189 0.00766542
0.110082 -0.0135999 0.00790349
0.0705796 -0.0161195 0.00259223
-0.220708 -0.0538366 -0.0331416
-0.221287 -0.0679861 -0.0136663
-0.200456 -0.0645368 -0.0311188
-0.265961 0.0458885 -0.0259143
-0.270227 0.0432055 -0.0310341
-0.265284 0.0436832 -0.0305374
-0.265732 0.0462278 -0.0284854
-0.270739 0.0425144 -0.0252
0.0698217 -0.0150574 0.00916753
0.0699365 -0.015937 0.00884074
0.109136 -0.00723513 0.0112721
0.0695907 -0.0115956 0.00809946
0.0699836 -0.011143 0.00371894
0.109383 -0.00695245 0.00852498
0.110027 -0.0139327 0.00879162
0.0705645 -0.0174011 0.00395951
0.0705886 -0.0168482 0.00319418
-0.20088 -0.0803072 -0.0116264
-0.2709 0.0454108 -0.0264029
-0.265687 0.0437333 -0.0265758
0.109454 -0.0121294 0.0127847
0.104023 -0.0208879 0.0125481
0.0700668 -0.0167034 0.00829643
0.109188 -0.00690183 0.0103895
0.0698648 -0.0107596 0.00458101
0.109277 -0.0068076 0.00945371
0.109944 -0.0140269 0.00972988
0.0705089 -0.0177404 0.00484815
-0.219357 -0.0679861 -0.0330038
-0.219936 -0.0821421 -0.0135285
-0.198947 -0.0803072 -0.0309699
-0.270447 0.0434882 -0.0290578
-0.26551 0.0439659 -0.0285631
-0.270626 0.0432562 -0.0270645
0.10934 -0.0112498 0.013111
0.0706703 -0.0240485 0.00921965
0.109585 -0.0128962 0.0122404
0.0696178 -0.0110423 0.00732811
0.0701981 -0.0173003 0.00756868
0.0697531 -0.0106087 0.00550723
0.109838 -0.0138826 0.0106586
0.0704267 -0.0178346 0.0057864
0.109716 -0.0134932 0.0115127
0.0696704 -0.0107095 0.00644549
0.0703149 -0.0176837 0.00671263
-0.21801 -0.0821421 -0.0328745
3 0 1 2
3 1 0 3
3 2 1 0
3 3 0 1
3 1 4 2
3 0 2 5
3 3 0 6
3 3 6 1
3 7 2 4
3 4 1 6
3 7 5 2
3 5 6 0
3 5 4 7
3 7 4 5
3 4 5 6
3 6 5 4
3 2 4 1
3 5 2 0
3 6 0 3
3 1 6 3
3 4 2 7
3 6 1 4
3 2 5 7
3 0 6 5
3 8 9 10
3 9 8 11
3 10 9 8
3 11 8 9
3 11 8 14
3 14 8 11
3 11 14 17
3 17 14 11
3 15 13 12
3 12 13 15
3 13 18 16
3 16 18 13
3 17 14 20
3 20 14 17
3 13 15 18
3 18 15 13
3 16 18 21
3 21 18 16
3 16 21 19
3 19 21 16
3 17 20 22
3 22 20 17
3 19 21 24
3 24 21 19
3 22 20 25
3 25 20 22
3 19 24 23
3 23 24 19
3 22 25 26
3 26 25 22
3 23 24 27
3 27 24 23
3 26 25 29
3 29 25 26
3 23 27 28
3 28 27 23
3 26 29 30
3 30 29 26
3 28 27 31
3 31 27 28
3 30 29 33
3 33 29 30
3 28 31 32
3 32 31 28
3 30 33 34
3 34 33 30
3 32 31 35
3 35 31 32
3 34 33 37
3 37 33 34
3 32 35 36
3 36 35 32
3 34 37 38
3 38 37 34
3 36 35 39
3 39 35 36
3 38 37 41
3 41 37 38
3 36 39 40
3 40 39 36
3 38 41 42
3 42 41 38
3 40 39 43
3 43 39 40
3 42 41 45
3 45 41 42
3 40 43 44
3 44 43 40
3 42 45 46
3 46 45 42
3 44 43 47
3 47 43 44
3 46 45 48
3 48 45 46
3 44 47 49
3 49 47 44
3 46 48 50
3 50 48 46
3 49 47 51
3 51 47 49
3 50 48 52
3 52 48 50
3 49 51 53
3 53 51 49
3 50 52 54
3 54 52 50
3 53 51 55
3 55 51 53
3 10 12 9
3 8 13 10
3 9 15 11
3 15 9 12
3 12 10 13
3 13 8 16
3 14 16 8
3 18 11 15
3 16 14 19
3 11 18 17
3 20 19 14
3 21 17 18
3 19 20 23
3 22 17 24
3 21 24 17
3 25 23 20
3 24 27 22
3 23 25 28
3 26 22 27
3 29 28 25
3 27 31 26
3 28 29 32
3 30 26 31
3 33 32 29
3 31 35 30
3 32 33 36
3 34 30 35
3 37 36 33
3 35 39 34
3 36 37 40
3 38 34 39
3 41 40 37
3 39 43 38
3 40 41 44
3 42 38 43
3 45 44 41
3 43 47 42
3 45 48 44
3 46 42 47
3 49 44 48
3 47 51 46
3 48 52 49
3 50 46 51
3 53 49 52
3 51 55 50
3 52 56 53
3 54 56 52
3 54 50 56
3 57 50 55
3 56 57 53
3 55 53 57
3 56 50 57
3 9 12 10
3 10 13 8
3 11 15 9
3 12 9 15
3 13 10 12
3 16 8 13
3 8 16 14
3 15 11 18
3 19 14 16
3 17 18 11
3 14 19 20
3 18 17 21
3 23 20 19
3 24 17 22
3 17 24 21
3 20 23 25
3 22 27 24
3 28 25 23
3 27 22 26
3 25 28 29
3 26 31 27
3 32 29 28
3 31 26 30
3 29 32 33
3 30 35 31
3 36 33 32
3 35 30 34
3 33 36 37
3 34 39 35
3 40 37 36
3 39 34 38
3 37 40 41
3 38 43 39
3 44 41 40
3 43 38 42
3 41 44 45
3 42 47 43
3 44 48 45
3 47 42 46
3 48 44 49
3 46 51 47
3 49 52 48
3 51 46 50
3 52 49 53
3 50 55 51
3 53 56 52
3 52 56 54
3 56 50 54
3 55 50 57
3 53 57 56
3 57 53 55
3 57 50 56
3 58 59 60
3 59 58 61
3 60 59 58
3 61 58 59
3 60 64 58
3 58 64 60
3 58 65 60
3 59 61 68
3 68 61 59
3 60 63 72
3 63 60 73
3 69 64 60
3 60 64 69
3 58 64 74
3 65 75 60
3 65 58 76
3 68 61 79
3 79 61 68
3 60 82 69
3 70 84 71
3 71 84 70
3 73 70 71
3 71 70 73
3 63 84 70
3 70 84 63
3 70 73 63
3 63 73 70
3 85 72 63
3 82 60 72
3 75 73 60
3 73 86 63
3 84 63 73
3 73 63 84
3 69 87 64
3 64 87 69
3 64 87 74
3 74 89 58
3 65 76 67
3 91 76 58
3 77 92 66
3 68 79 95
3 95 79 68
3 62 81 97
3 69 82 99
3 83 62 97
3 63 100 84
3 84 100 63
3 100 63 84
3 84 63 100
3 71 84 80
3 80 84 71
3 73 71 101
3 101 71 73
3 101 71 80
3 80 71 101
3 102 85 72
3 72 85 102
3 100 63 85
3 85 63 100
3 63 86 85
3 63 100 85
3 85 100 63
3 103 72 82
3 82 72 103
3 73 75 101
3 86 73 104
3 84 73 101
3 101 73 84
3 99 87 69
3 69 87 99
3 66 92 88
3 87 106 74
3 89 107 58
3 89 74 108
3 90 101 75
3 110 67 76
3 91 111 76
3 110 91 76
3 76 91 110
3 112 91 58
3 113 92 77
3 116 78 94
3 94 78 116
3 78 94 117
3 94 67 117
3 95 79 118
3 118 79 95
3 80 84 96
3 96 84 80
3 101 80 96
3 96 80 101
3 81 119 97
3 82 121 99
3 122 83 97
3 100 102 84
3 84 102 100
3 101 104 73
3 102 100 85
3 85 100 102
3 72 103 102
3 102 103 72
3 102 72 124
3 124 72 102
3 100 85 125
3 125 85 86
3 103 82 126
3 126 82 103
3 127 86 104
3 84 101 128
3 128 101 84
3 87 99 106
3 106 99 87
3 88 92 129
3 121 74 106
3 107 112 58
3 107 89 131
3 74 132 108
3 108 131 89
3 109 101 90
3 117 67 110
3 111 91 133
3 91 110 112
3 112 110 91
3 134 92 113
3 114 93 135
3 93 105 120
3 115 78 137
3 138 115 78
3 78 115 138
3 78 116 139
3 139 116 78
3 137 78 117
3 95 118 140
3 140 118 95
3 96 84 128
3 128 84 96
3 101 96 141
3 141 96 101
3 97 119 142
3 98 93 120
3 106 99 121
3 121 82 97
3 143 122 97
3 123 144 98
3 102 84 145
3 128 104 101
3 103 102 146
3 125 127 86
3 86 127 125
3 82 126 97
3 126 82 147
3 147 82 126
3 103 148 126
3 84 104 127
3 127 104 84
3 104 149 127
3 150 128 101
3 101 128 150
3 101 151 128
3 104 84 128
3 128 84 104
3 142 129 92
3 130 152 105
3 121 142 74
3 112 107 131
3 132 153 108
3 108 154 131
3 136 101 109
3 110 112 117
3 117 112 110
3 110 112 117
3 134 157 92
3 158 134 113
3 160 135 93
3 161 114 135
3 120 105 152
3 162 115 137
3 115 138 164
3 164 138 115
3 78 139 138
3 138 139 78
3 117 112 137
3 140 118 165
3 165 118 140
3 96 128 141
3 141 128 96
3 101 141 166
3 166 141 101
3 129 142 119
3 142 121 97
3 160 93 98
3 167 122 143
3 143 97 169
3 144 160 98
3 170 144 123
3 84 171 145
3 146 102 145
3 128 172 104
3 103 146 173
3 127 125 84
3 84 125 127
3 174 97 126
3 169 126 148
3 148 103 175
3 84 127 176
3 177 127 149
3 104 178 149
3 179 128 150
3 150 128 179
3 101 179 150
3 150 179 101
3 128 151 172
3 181 151 101
3 92 74 142
3 182 112 131
3 183 108 153
3 184 131 154
3 183 154 108
3 163 101 136
3 112 117 185
3 185 117 112
3 74 92 157
3 134 186 157
3 187 134 158
3 159 114 188
3 188 114 161
3 115 191 162
3 162 191 115
3 192 162 137
3 138 139 164
3 164 139 138
3 115 164 191
3 191 164 115
3 137 112 193
3 140 165 194
3 194 165 140
3 141 128 166
3 166 128 141
3 101 166 195
3 195 166 101
3 168 196 123
3 197 167 143
3 174 169 97
3 169 198 143
3 196 170 123
3 171 201 145
3 171 84 176
3 145 151 146
3 172 178 104
3 173 146 202
3 173 203 103
3 169 126 174
3 174 126 169
3 169 148 181
3 175 103 203
3 204 148 175
3 176 127 205
3 127 177 205
3 149 206 177
3 178 207 149
3 195 128 179
3 179 128 195
3 101 195 179
3 179 195 101
3 151 209 172
3 210 151 181
3 101 211 181
3 193 112 182
3 131 184 182
3 183 212 153
3 153 212 183
3 154 213 184
3 183 186 154
3 214 183 154
3 154 183 214
3 215 101 163
3 219 74 157
3 157 186 183
3 186 134 220
3 221 134 187
3 223 159 188
3 162 191 225
3 225 191 162
3 162 226 192
3 192 226 162
3 227 192 137
3 164 139 228
3 228 139 164
3 164 228 191
3 191 228 164
3 193 229 137
3 193 230 137
3 137 230 193
3 194 165 231
3 231 165 194
3 166 128 195
3 195 128 166
3 233 196 168
3 234 197 143
3 186 143 198
3 169 181 198
3 145 201 237
3 171 238 201
3 171 176 239
3 210 146 151
3 151 145 240
3 172 201 178
3 202 146 241
3 202 242 173
3 173 242 202
3 202 243 173
3 148 210 181
3 246 148 204
3 205 248 176
3 205 177 249
3 250 177 206
3 206 149 251
3 207 252 149
3 207 178 253
3 254 178 207
3 207 178 254
3 180 213 181
3 181 213 180
3 208 257 180
3 180 257 208
3 209 240 172
3 209 151 240
3 259 181 211
3 211 101 260
3 230 193 182
3 182 193 230
3 193 261 182
3 182 261 193
3 182 184 261
3 212 183 157
3 157 183 212
3 184 213 262
3 213 154 263
3 198 154 186
3 264 101 215
3 212 219 157
3 220 134 267
3 268 186 220
3 269 134 221
3 222 159 271
3 271 159 223
3 199 200 189
3 190 189 200
3 224 190 235
3 191 273 225
3 225 273 191
3 162 225 226
3 226 225 162
3 192 226 274
3 274 226 192
3 192 274 227
3 227 274 192
3 275 227 137
3 191 228 273
3 273 228 191
3 229 276 137
3 259 229 193
3 194 231 255
3 255 231 194
3 232 233 168
3 258 234 143
3 186 256 143
3 280 198 181
3 235 190 200
3 281 237 201
3 237 240 145
3 201 238 282
3 283 239 176
3 210 284 146
3 282 178 201
3 172 285 201
3 241 146 286
3 241 287 202
3 288 242 202
3 202 242 288
3 244 173 243
3 202 289 243
3 148 290 210
3 289 148 246
3 248 292 176
3 248 249 205
3 205 249 248
3 249 177 293
3 250 294 177
3 250 206 294
3 295 251 149
3 251 294 206
3 252 296 149
3 252 207 297
3 298 253 178
3 254 253 207
3 207 253 254
3 178 254 282
3 282 254 178
3 254 297 207
3 255 299 208
3 208 299 255
3 180 257 213
3 213 257 180
3 213 280 181
3 181 280 213
3 213 181 259
3 208 299 257
3 257 299 208
3 285 172 240
3 260 101 264
3 261 193 301
3 301 193 261
3 261 184 301
3 259 262 213
3 262 301 184
3 198 263 154
3 280 213 263
3 263 213 280
3 267 134 269
3 306 186 268
3 270 222 309
3 309 222 271
3 272 224 236
3 236 224 235
3 225 273 311
3 311 273 225
3 225 311 226
3 226 311 225
3 226 311 274
3 274 311 226
3 274 312 227
3 227 312 274
3 227 313 275
3 275 313 227
3 276 275 137
3 314 259 193
3 255 231 299
3 299 231 255
3 316 233 232
3 279 316 232
3 256 258 143
3 319 256 186
3 320 198 280
3 278 272 236
3 281 285 237
3 281 201 285
3 240 237 285
3 238 321 282
3 239 283 322
3 283 176 292
3 323 146 284
3 324 284 210
3 178 282 298
3 323 286 146
3 289 202 287
3 242 288 326
3 326 288 242
3 244 327 243
3 243 327 244
3 327 243 289
3 327 244 245
3 245 244 327
3 210 290 324
3 290 148 328
3 327 245 247
3 247 245 327
3 329 148 289
3 327 247 291
3 291 247 327
3 249 248 332
3 332 248 249
3 293 177 333
3 249 293 332
3 334 177 294
3 295 334 251
3 295 335 251
3 251 335 295
3 336 295 149
3 294 251 334
3 335 294 251
3 296 337 149
3 252 338 296
3 252 297 338
3 339 298 253
3 253 298 339
3 253 254 339
3 339 254 253
3 254 339 282
3 282 340 254
3 297 254 341
3 314 193 301
3 344 261 301
3 301 261 344
3 261 344 302
3 302 344 261
3 262 259 314
3 262 301 314
3 314 301 262
3 345 263 198
3 280 263 345
3 345 263 280
3 306 319 186
3 308 270 351
3 351 270 309
3 310 272 278
3 274 311 312
3 312 311 274
3 227 312 313
3 313 312 227
3 275 313 276
3 276 313 275
3 317 310 278
3 354 316 279
3 318 355 279
3 320 345 198
3 280 345 320
3 320 345 280
3 321 357 282
3 283 292 322
3 284 358 323
3 359 284 324
3 360 298 282
3 286 323 361
3 329 289 287
3 363 287 325
3 359 324 290
3 328 148 329
3 290 328 359
3 327 291 330
3 330 291 327
3 292 331 365
3 248 332 364
3 333 177 366
3 367 293 333
3 368 332 293
3 369 177 334
3 294 333 334
3 334 295 369
3 334 370 295
3 335 295 370
3 370 295 335
3 336 369 295
3 371 336 149
3 335 333 294
3 337 371 149
3 296 367 337
3 338 372 296
3 373 338 297
3 298 339 360
3 360 339 298
3 360 282 339
3 340 374 254
3 357 340 282
3 375 341 254
3 341 293 297
3 305 349 381
3 307 305 382
3 350 307 382
3 348 308 383
3 383 308 351
3 352 310 317
3 355 354 279
3 387 355 318
3 342 387 318
3 322 292 365
3 358 389 323
3 358 284 390
3 284 359 391
3 389 361 323
3 361 286 362
3 362 286 361
3 361 392 286
3 362 286 395
3 329 287 363
3 287 363 329
3 393 363 325
3 325 363 393
3 363 397 325
3 325 397 363
3 328 329 398
3 328 398 359
3 365 331 388
3 364 332 399
3 366 177 369
3 333 371 366
3 366 371 333
3 366 334 333
3 293 367 297
3 333 337 367
3 368 400 332
3 400 293 368
3 368 293 400
3 366 370 334
3 369 336 366
3 371 366 336
3 335 337 333
3 371 333 337
3 337 333 371
3 296 402 367
3 402 296 372
3 338 403 372
3 338 373 403
3 297 367 373
3 374 375 254
3 375 406 341
3 407 293 341
3 356 408 342
3 349 348 412
3 381 349 412
3 413 305 381
3 305 413 382
3 414 348 383
3 384 352 386
3 386 352 317
3 408 387 342
3 382 419 356
3 391 390 284
3 398 391 359
3 362 395 361
3 421 286 392
3 392 361 422
3 395 286 422
3 363 398 329
3 396 398 363
3 363 393 425
3 425 393 363
3 397 363 426
3 426 363 397
3 331 427 388
3 399 332 428
3 371 370 366
3 428 332 400
3 293 400 407
3 407 400 293
3 337 335 401
3 430 367 402
3 402 431 372
3 372 431 402
3 432 372 403
3 433 403 373
3 373 367 431
3 434 341 406
3 341 434 407
3 435 408 356
3 412 348 414
3 413 419 382
3 415 384 417
3 417 384 386
3 419 435 356
3 388 427 405
3 390 391 396
3 398 396 391
3 395 422 361
3 421 422 286
3 422 421 392
3 363 449 424
3 424 449 363
3 363 425 450
3 450 425 363
3 426 363 451
3 451 363 426
3 370 371 429
3 400 407 434
3 430 431 367
3 431 402 430
3 430 402 431
3 372 432 431
3 403 453 432
3 432 433 403
3 403 433 432
3 403 433 453
3 373 431 433
3 405 452 404
3 434 406 454
3 404 454 406
3 443 415 418
3 418 415 417
3 444 443 418
3 427 452 405
3 446 463 423
3 363 465 449
3 449 465 363
3 363 450 467
3 467 450 363
3 451 363 468
3 468 363 451
3 454 400 434
3 470 431 432
3 471 432 453
3 433 432 470
3 470 432 433
3 472 453 433
3 470 433 431
3 452 454 404
3 442 441 455
3 458 442 460
3 441 443 444
3 455 441 444
3 390 478 448
3 423 463 462
3 469 463 446
3 447 462 463
3 448 479 464
3 363 480 465
3 465 480 363
3 466 469 446
3 363 467 483
3 483 467 363
3 468 363 484
3 484 363 468
3 432 471 470
3 453 487 471
3 471 472 453
3 453 472 471
3 433 470 472
3 453 472 487
3 460 442 455
3 478 479 448
3 479 492 464
3 363 493 480
3 480 493 363
3 464 492 481
3 486 469 466
3 482 486 466
3 363 483 495
3 495 483 363
3 484 363 496
3 496 363 484
3 498 470 471
3 499 471 487
3 472 471 498
3 498 471 472
3 498 472 470
3 500 487 472
3 363 495 493
3 493 495 363
3 492 508 481
3 485 486 482
3 494 485 482
3 496 363 510
3 510 363 496
3 497 485 494
3 471 499 498
3 487 500 499
3 472 498 500
3 490 363 504
3 504 363 490
3 481 508 507
3 509 497 494
3 510 363 512
3 512 363 510
3 511 497 509
3 515 498 499
3 515 499 500
3 515 500 498
3 506 363 490
3 490 363 506
3 512 363 506
3 506 363 512
3 507 514 513
3 508 514 507
3 513 511 509
3 514 511 513
3 62 60 59
3 59 60 62
3 63 59 60
3 60 59 63
3 58 66 61
3 61 66 58
3 67 58 61
3 61 58 67
3 60 62 69
3 69 62 60
3 68 62 59
3 59 62 68
3 59 70 71
3 70 59 63
3 71 70 59
3 63 59 70
3 66 58 64
3 64 58 66
3 58 67 65
3 65 67 58
3 61 66 77
3 77 66 61
3 61 78 67
3 67 78 61
3 59 80 68
3 68 80 59
3 69 62 81
3 81 62 69
3 62 68 83
3 83 68 62
3 80 59 71
3 71 59 80
3 64 88 66
3 66 88 64
3 75 65 90
3 67 90 65
3 77 79 61
3 61 79 77
3 78 61 79
3 79 61 78
3 67 78 94
3 94 78 67
3 96 68 80
3 80 68 96
3 81 99 69
3 69 99 81
3 95 83 68
3 68 83 95
3 88 64 87
3 87 64 88
3 90 67 109
3 79 77 113
3 113 77 79
3 79 115 78
3 78 115 79
3 78 109 94
3 67 94 109
3 68 96 95
3 95 96 68
3 99 81 119
3 119 81 99
3 83 95 122
3 122 95 83
3 87 129 88
3 88 129 87
3 129 87 106
3 106 87 129
3 113 118 79
3 79 118 113
3 115 79 118
3 118 79 115
3 115 136 78
3 109 78 136
3 141 95 96
3 96 95 141
3 119 106 99
3 99 106 119
3 140 122 95
3 95 122 140
3 106 119 129
3 129 119 106
3 118 113 158
3 158 113 118
3 118 162 115
3 115 162 118
3 136 115 163
3 95 141 140
3 140 141 95
3 122 140 167
3 167 140 122
3 101 180 150
3 150 180 101
3 135 160 189
3 161 135 190
3 158 165 118
3 118 165 158
3 162 118 165
3 165 118 162
3 162 163 115
3 166 140 141
3 141 140 166
3 194 167 140
3 140 167 194
3 160 144 199
3 144 170 200
3 150 208 179
3 179 208 150
3 180 101 181
3 181 101 180
3 208 150 180
3 180 150 208
3 165 158 187
3 187 158 165
3 199 189 160
3 189 190 135
3 190 224 161
3 165 192 162
3 162 192 165
3 163 162 215
3 192 215 162
3 140 166 194
3 194 166 140
3 195 194 166
3 166 194 195
3 167 194 197
3 197 194 167
3 200 199 144
3 235 200 170
3 196 236 170
3 173 244 203
3 203 245 175
3 175 247 204
3 179 255 195
3 195 255 179
3 255 179 208
3 208 179 255
3 181 256 180
3 180 256 181
3 180 258 208
3 208 258 180
3 231 187 221
3 221 187 231
3 187 231 165
3 165 231 187
3 223 188 272
3 188 161 224
3 224 272 188
3 192 165 231
3 231 165 192
3 215 192 264
3 231 227 192
3 192 227 231
3 192 227 264
3 194 195 255
3 255 195 194
3 255 197 194
3 194 197 255
3 233 278 196
3 197 255 234
3 234 255 197
3 235 170 236
3 236 196 278
3 171 239 238
3 245 203 244
3 247 175 245
3 204 291 246
3 291 204 247
3 208 234 255
3 255 234 208
3 256 181 280
3 280 181 256
3 258 180 256
3 256 180 258
3 234 208 258
3 258 208 234
3 211 260 259
3 213 220 263
3 263 220 213
3 220 257 267
3 267 257 220
3 268 263 220
3 220 263 268
3 299 221 269
3 269 221 299
3 221 299 231
3 231 299 221
3 271 223 310
3 272 310 223
3 231 275 227
3 227 275 231
3 275 264 227
3 275 229 276
3 276 229 275
3 229 260 276
3 229 213 259
3 259 213 229
3 229 259 260
3 278 233 317
3 322 238 239
3 286 325 241
3 287 241 325
3 246 330 289
3 330 246 291
3 292 248 331
3 220 213 257
3 257 213 220
3 213 229 257
3 257 229 213
3 256 280 319
3 319 280 256
3 269 257 299
3 299 257 269
3 229 299 257
3 257 299 229
3 264 275 260
3 257 269 267
3 267 269 257
3 306 345 268
3 268 345 306
3 263 268 345
3 345 268 263
3 275 231 299
3 299 231 275
3 309 271 352
3 310 352 271
3 275 276 260
3 299 229 275
3 275 229 299
3 316 317 233
3 320 319 280
3 280 319 320
3 238 322 321
3 362 325 286
3 325 363 287
3 327 289 330
3 364 331 248
3 319 320 306
3 306 320 319
3 345 306 320
3 320 306 345
3 351 309 384
3 352 384 309
3 317 316 386
3 354 386 316
3 357 321 388
3 365 321 322
3 362 394 325
3 396 363 325
3 364 399 331
3 374 340 404
3 340 357 405
3 383 351 415
3 384 415 351
3 386 354 417
3 355 417 354
3 387 418 355
3 365 388 321
3 388 405 357
3 389 361 362
3 362 361 389
3 389 361 362
3 362 361 389
3 394 396 325
3 427 331 399
3 374 404 375
3 405 404 340
3 406 375 404
3 412 441 381
3 381 442 413
3 414 383 443
3 415 443 383
3 417 355 418
3 418 387 444
3 408 444 387
3 399 428 427
3 428 400 452
3 435 455 408
3 412 414 441
3 442 381 441
3 458 413 442
3 413 458 419
3 443 441 414
3 444 408 455
3 419 460 435
3 452 427 428
3 454 452 400
3 455 435 460
3 460 419 458
3 60 65 58
3 72 63 60
3 73 60 63
3 60 75 65
3 76 58 65
3 63 72 85
3 72 60 82
3 60 73 75
3 63 86 73
3 58 89 74
3 67 76 65
3 58 76 91
3 85 86 63
3 101 75 73
3 104 73 86
3 58 107 89
3 108 74 89
3 75 101 90
3 76 67 110
3 76 111 91
3 58 91 112
3 117 94 78
3 117 67 94
3 73 104 101
3 125 85 100
3 86 85 125
3 104 86 127
3 58 112 107
3 131 89 107
3 108 132 74
3 89 131 108
3 90 101 109
3 110 67 117
3 133 91 111
3 112 133 91
3 91 133 112
3 137 78 115
3 117 78 137
3 145 84 102
3 101 104 128
3 146 102 103
3 126 148 103
3 127 149 104
3 128 151 101
3 131 107 112
3 108 153 132
3 131 154 108
3 109 101 136
3 117 112 110
3 133 155 111
3 111 155 133
3 133 112 156
3 156 112 133
3 137 115 162
3 137 112 117
3 145 171 84
3 145 102 146
3 104 172 128
3 173 146 103
3 148 126 169
3 175 103 148
3 176 127 84
3 149 127 177
3 149 178 104
3 172 151 128
3 101 151 181
3 131 112 182
3 153 108 183
3 154 131 184
3 108 154 183
3 136 101 163
3 155 133 156
3 156 133 155
3 156 112 185
3 185 112 156
3 137 162 192
3 193 112 137
3 145 201 171
3 176 84 171
3 146 151 145
3 104 178 172
3 202 146 173
3 103 203 173
3 181 148 169
3 203 103 175
3 175 148 204
3 205 127 176
3 205 177 127
3 177 206 149
3 149 207 178
3 172 209 151
3 181 151 210
3 181 211 101
3 182 112 193
3 182 184 131
3 184 213 154
3 163 101 215
3 156 217 155
3 155 217 156
3 156 185 218
3 218 185 156
3 137 192 227
3 137 229 193
3 198 181 169
3 237 201 145
3 201 238 171
3 151 146 210
3 240 145 151
3 241 146 202
3 173 243 202
3 181 210 148
3 204 148 246
3 249 177 205
3 206 177 250
3 251 149 206
3 149 252 207
3 172 240 209
3 240 151 209
3 211 181 259
3 260 101 211
3 261 184 182
3 262 213 184
3 263 154 213
3 215 101 264
3 217 156 218
3 218 156 217
3 218 185 266
3 266 185 218
3 137 227 275
3 137 276 229
3 193 229 259
3 181 198 280
3 201 237 281
3 145 240 237
3 282 238 201
3 146 284 210
3 201 285 172
3 286 146 241
3 202 287 241
3 243 173 244
3 243 289 202
3 210 290 148
3 246 148 289
3 293 177 249
3 177 294 250
3 294 206 250
3 149 251 295
3 206 294 251
3 149 296 252
3 297 207 252
3 207 297 254
3 259 181 213
3 240 172 285
3 264 101 260
3 300 230 182
3 182 230 300
3 302 182 261
3 261 182 302
3 301 184 261
3 213 262 259
3 184 301 262
3 154 263 198
3 266 185 265
3 265 185 266
3 218 304 217
3 217 304 218
3 304 218 266
3 266 218 304
3 137 275 276
3 193 259 314
3 280 198 320
3 237 285 281
3 285 201 281
3 285 237 240
3 282 321 238
3 284 146 323
3 210 284 324
3 146 286 323
3 287 202 289
3 289 243 327
3 324 290 210
3 328 148 290
3 289 148 329
3 333 177 293
3 294 177 334
3 149 295 336
3 251 294 335
3 149 337 296
3 296 338 252
3 338 297 252
3 254 340 282
3 341 254 297
3 300 315 230
3 230 315 300
3 300 182 343
3 343 182 300
3 301 193 314
3 343 182 302
3 302 182 343
3 314 259 262
3 198 263 345
3 266 265 346
3 346 265 266
3 266 347 304
3 304 347 266
3 198 345 320
3 282 357 321
3 323 358 284
3 324 284 359
3 361 323 286
3 287 289 329
3 290 324 359
3 329 148 328
3 359 328 290
3 366 177 333
3 333 293 367
3 334 177 369
3 334 333 294
3 369 295 334
3 295 370 334
3 295 369 336
3 149 336 371
3 294 333 335
3 149 371 337
3 337 367 296
3 296 372 338
3 297 338 373
3 254 374 340
3 282 340 357
3 254 341 375
3 297 293 341
3 376 315 300
3 300 315 376
3 343 377 300
3 300 377 343
3 302 378 343
3 343 378 302
3 378 302 344
3 344 302 378
3 266 346 380
3 380 346 266
3 347 266 380
3 380 266 347
3 323 389 358
3 390 284 358
3 391 359 284
3 323 361 389
3 398 329 328
3 359 398 328
3 369 177 366
3 333 334 366
3 297 367 293
3 367 337 333
3 334 370 366
3 335 401 370
3 366 336 369
3 336 366 371
3 333 337 335
3 367 402 296
3 372 296 402
3 372 403 338
3 403 373 338
3 373 367 297
3 254 375 374
3 341 293 407
3 376 385 315
3 315 385 376
3 300 409 376
3 376 409 300
3 377 343 378
3 378 343 377
3 409 300 377
3 377 300 409
3 380 346 410
3 410 346 380
3 380 411 347
3 347 411 380
3 284 390 391
3 358 420 390
3 359 391 398
3 329 398 363
3 363 398 396
3 366 370 371
3 429 370 401
3 401 335 337
3 402 367 430
3 403 372 432
3 373 403 433
3 431 367 373
3 376 436 385
3 385 436 376
3 409 437 376
3 376 437 409
3 380 410 439
3 439 410 380
3 411 380 440
3 440 380 411
3 396 391 390
3 420 394 390
3 445 420 358
3 391 396 398
3 396 390 394
3 429 371 370
3 367 431 430
3 431 432 372
3 433 431 373
3 437 436 376
3 376 436 437
3 437 409 456
3 456 409 437
3 380 439 440
3 440 439 380
3 440 457 411
3 411 457 440
3 396 461 390
3 462 445 358
3 432 431 470
3 431 433 470
3 437 459 436
3 436 459 437
3 456 473 437
3 437 473 456
3 440 439 475
3 475 439 440
3 457 440 476
3 476 440 457
3 390 461 478
3 471 487 453
3 487 472 453
3 473 459 437
3 437 459 473
3 473 456 488
3 488 456 473
3 440 475 476
3 476 475 440
3 476 488 457
3 457 488 476
3 461 491 478
3 487 471 499
3 472 487 500
3 473 489 459
3 459 489 473
3 488 476 473
3 473 476 488
3 476 475 502
3 502 475 476
3 505 478 491
3 498 499 471
3 499 500 487
3 500 498 472
3 476 489 473
3 473 489 476
3 476 502 489
3 489 502 476
3 499 498 515
3 500 499 515
3 498 500 515
3 90 65 75
3 65 90 67
3 109 67 90
3 94 109 78
3 109 94 67
3 78 136 115
3 136 78 109
3 163 115 136
3 115 163 162
3 216 185 117
3 117 185 216
3 215 162 163
3 162 215 192
3 203 244 173
3 175 245 203
3 204 247 175
3 185 216 265
3 265 216 185
3 264 192 215
3 264 227 192
3 230 277 137
3 137 277 230
3 244 203 245
3 245 175 247
3 246 291 204
3 247 204 291
3 259 260 211
3 303 265 216
3 216 265 303
3 227 264 275
3 276 260 229
3 260 259 229
3 277 230 315
3 315 230 277
3 241 325 286
3 325 241 287
3 289 330 246
3 291 246 330
3 260 275 264
3 265 303 346
3 346 303 265
3 260 276 275
3 315 353 277
3 277 353 315
3 286 325 362
3 330 289 327
3 379 346 303
3 303 346 379
3 353 315 385
3 385 315 353
3 362 393 325
3 325 393 362
3 346 379 410
3 410 379 346
3 385 416 353
3 353 416 385
3 362 423 393
3 393 423 362
3 395 389 362
3 362 389 395
3 424 396 363
3 363 396 424
3 438 410 379
3 379 410 438
3 416 385 436
3 436 385 416
3 389 423 362
3 362 423 389
3 446 393 423
3 423 393 446
3 395 447 389
3 389 447 395
3 448 396 424
3 424 396 448
3 393 446 425
3 425 446 393
3 426 395 397
3 397 395 426
3 410 438 439
3 439 438 410
3 459 416 436
3 436 416 459
3 390 461 396
3 396 461 390
3 396 448 390
3 390 448 396
3 389 462 423
3 423 462 389
3 447 395 463
3 463 395 447
3 462 389 447
3 447 389 462
3 424 464 448
3 448 464 424
3 464 424 449
3 449 424 464
3 466 425 446
3 446 425 466
3 425 466 450
3 450 466 425
3 451 469 426
3 426 469 451
3 426 463 395
3 395 463 426
3 474 439 438
3 438 439 474
3 416 459 477
3 477 459 416
3 461 390 478
3 478 390 461
3 481 449 465
3 465 449 481
3 449 481 464
3 464 481 449
3 482 450 466
3 466 450 482
3 450 482 467
3 467 482 450
3 485 451 468
3 468 451 485
3 469 451 486
3 486 451 469
3 463 426 469
3 469 426 463
3 439 474 475
3 475 474 439
3 489 477 459
3 459 477 489
3 478 490 461
3 461 490 478
3 480 481 465
3 465 481 480
3 494 467 482
3 482 467 494
3 467 494 483
3 483 494 467
3 497 468 484
3 484 468 497
3 451 485 486
3 486 485 451
3 468 497 485
3 485 497 468
3 501 475 474
3 474 475 501
3 477 489 503
3 503 489 477
3 490 478 479
3 479 478 490
3 461 490 504
3 504 490 461
3 506 479 492
3 492 479 506
3 493 507 480
3 480 507 493
3 481 480 507
3 507 480 481
3 509 483 494
3 494 483 509
3 483 509 495
3 495 509 483
3 511 484 496
3 496 484 511
3 484 511 497
3 497 511 484
3 475 501 502
3 502 501 475
3 502 503 489
3 489 503 502
3 479 506 490
3 490 506 479
3 492 512 506
3 506 512 492
3 495 513 493
3 493 513 495
3 507 493 513
3 513 493 507
3 512 492 508
3 508 492 512
3 513 495 509
3 509 495 513
3 514 496 510
3 510 496 514
3 496 514 511
3 511 514 496
3 503 502 501
3 501 502 503
3 508 510 512
3 512 510 508
3 510 508 514
3 514 508 510
3 74 64 58
3 69 82 60
3 74 87 64
3 99 82 69
3 74 106 87
3 99 121 82
3 106 74 121
3 121 99 106
3 178 201 172
3 201 178 282
3 66 92 77
3 97 81 62
3 97 62 83
3 88 92 66
3 77 92 113
3 97 119 81
3 97 83 122
3 129 92 88
3 113 92 134
3 142 119 97
3 97 82 121
3 97 122 143
3 97 126 82
3 92 129 142
3 74 142 121
3 92 157 134
3 113 134 158
3 119 142 129
3 97 121 142
3 143 122 167
3 169 97 143
3 126 97 174
3 142 74 92
3 157 92 74
3 157 186 134
3 158 134 187
3 143 167 197
3 97 169 174
3 143 198 169
3 154 186 183
3 157 74 219
3 183 186 157
3 220 134 186
3 187 134 221
3 143 197 234
3 198 143 186
3 186 154 198
3 157 219 212
3 267 134 220
3 220 186 268
3 221 134 269
3 143 234 258
3 143 256 186
3 269 134 267
3 268 186 306
3 143 258 256
3 186 256 319
3 186 319 306
3 93 77 66
3 98 81 62
3 83 98 62
3 105 66 88
3 77 93 114
3 66 105 93
3 81 98 120
3 98 83 123
3 88 130 105
3 114 113 77
3 120 119 81
3 122 123 83
3 130 88 129
3 113 114 159
3 119 120 152
3 123 122 168
3 129 152 130
3 152 129 119
3 159 158 113
3 167 168 122
3 222 187 158
3 158 159 222
3 168 167 232
3 197 232 167
3 270 221 187
3 187 222 270
3 232 197 279
3 234 279 197
3 267 305 220
3 220 307 268
3 308 269 221
3 221 270 308
3 279 234 318
3 258 318 234
3 256 342 258
3 348 267 269
3 305 267 349
3 307 220 305
3 268 350 306
3 350 268 307
3 269 308 348
3 318 258 342
3 319 356 256
3 342 256 356
3 267 348 349
3 306 382 319
3 382 306 350
3 356 319 382
3 66 77 93
3 62 81 98
3 62 98 83
3 88 66 105
3 114 93 77
3 93 105 66
3 120 98 81
3 123 83 98
3 105 130 88
3 77 113 114
3 81 119 120
3 83 123 122
3 129 88 130
3 159 114 113
3 152 120 119
3 168 122 123
3 130 152 129
3 119 129 152
3 113 158 159
3 122 168 167
3 158 187 222
3 222 159 158
3 232 167 168
3 167 232 197
3 187 221 270
3 270 222 187
3 279 197 232
3 197 279 234
3 220 305 267
3 268 307 220
3 221 269 308
3 308 270 221
3 318 234 279
3 234 318 258
3 258 342 256
3 269 267 348
3 349 267 305
3 305 220 307
3 306 350 268
3 307 268 350
3 348 308 269
3 342 258 318
3 256 356 319
3 356 256 342
3 349 348 267
3 319 382 306
3 350 306 382
3 382 319 356
3 135 93 114
3 120 105 93
3 120 93 98
3 98 144 123
3 105 152 130
3 93 135 160
3 135 114 161
3 152 105 120
3 98 93 160
3 98 160 144
3 123 144 170
3 188 114 159
3 161 114 188
3 123 196 168
3 123 170 196
3 188 159 223
3 168 196 233
3 271 159 222
3 223 159 271
3 168 233 232
3 309 222 270
3 271 222 309
3 232 233 316
3 232 316 279
3 351 270 308
3 309 270 351
3 279 316 354
3 279 355 318
3 381 349 305
3 382 305 307
3 382 307 350
3 383 308 348
3 351 308 383
3 279 354 355
3 318 355 387
3 318 387 342
3 342 408 356
3 412 348 349
3 412 349 381
3 381 305 413
3 382 413 305
3 383 348 414
3 342 387 408
3 356 419 382
3 356 408 435
3 414 348 412
3 382 419 413
3 356 435 419
3 189 160 135
3 190 135 161
3 199 144 160
3 200 170 144
3 160 189 199
3 135 190 189
3 224 161 188
3 161 224 190
3 144 199 200
3 170 200 235
3 170 236 196
3 272 188 223
3 188 272 224
3 196 278 233
3 236 170 235
3 278 196 236
3 310 223 271
3 223 310 272
3 317 233 278
3 352 271 309
3 271 352 310
3 233 317 316
3 384 309 351
3 309 384 352
3 386 316 317
3 316 386 354
3 415 351 383
3 351 415 384
3 417 354 386
3 354 417 355
3 355 418 387
3 381 441 412
3 413 442 381
3 443 383 414
3 383 443 415
3 418 355 417
3 444 387 418
3 387 444 408
3 408 455 435
3 441 414 412
3 441 381 442
3 442 413 458
3 419 458 413
3 414 441 443
3 455 408 444
3 435 460 419
3 460 435 455
3 458 419 460
3 239 176 171
3 176 248 205
3 176 239 283
3 176 292 248
3 322 283 239
3 292 176 283
3 322 292 283
3 365 331 292
3 365 292 322
3 388 331 365
3 341 406 375
3 388 427 331
3 406 341 434
3 407 434 341
3 405 427 388
3 434 407 400
3 404 452 405
3 454 406 434
3 406 454 404
3 405 452 427
3 434 400 454
3 404 454 452
3 238 239 171
3 239 238 322
3 331 248 292
3 321 322 238
3 248 331 364
3 388 321 357
3 322 321 365
3 331 399 364
3 404 340 374
3 405 357 340
3 321 388 365
3 357 405 388
3 399 331 427
3 375 404 374
3 340 404 405
3 404 375 406
3 427 428 399
3 452 400 428
3 428 427 452
3 400 452 454
3 253 178 207
3 178 253 298
3 298 282 178
3 282 339 254
3 282 298 360
3 339 282 360
3 189 200 199
3 200 189 190
3 235 190 224
3 200 190 235
3 236 224 272
3 235 224 236
3 236 272 278
3 278 272 310
3 278 310 317
3 317 310 352
3 386 352 384
3 317 352 386
3 417 384 415
3 386 384 417
3 418 415 443
3 417 415 418
3 418 443 444
3 455 441 442
3 460 442 458
3 444 443 441
3 444 441 455
3 455 442 460
3 332 293 249
3 325 287 363
3 364 332 248
3 293 332 368
3 286 392 361
3 395 286 362
3 363 287 329
3 329 363 287
3 399 332 364
3 332 400 368
3 390 420 358
3 361 395 362
3 392 286 421
3 422 361 392
3 422 286 395
3 428 332 399
3 400 332 428
3 390 394 420
3 358 420 445
3 361 422 395
3 286 422 421
3 392 421 422
3 394 390 396
3 390 461 396
3 358 445 462
3 423 463 446
3 478 461 390
3 448 478 390
3 462 463 423
3 446 463 469
3 463 462 447
3 464 479 448
3 446 469 466
3 478 491 461
3 448 479 478
3 464 492 479
3 481 492 464
3 466 469 486
3 466 486 482
3 491 478 505
3 481 508 492
3 482 486 485
3 482 485 494
3 494 485 497
3 507 508 481
3 494 497 509
3 509 497 511
3 513 514 507
3 507 514 508
3 509 511 513
3 513 511 514
3 287 363 325
3 325 394 362
3 325 363 396
3 325 396 394
3 251 334 295
3 334 251 294
3 370 401 335
3 401 370 429
3 432 453 403
3 453 433 403
3 453 432 471
3 433 453 472
3 470 471 432
3 472 470 433
3 471 470 498
3 470 472 498
