ply
format ascii 1.0
comment Generated by PyMesh
element vertex 581
property double x
property double y
property double z
element face 2270
property list uchar int vertex_indices
end_header
-0.127255 -0.450288 -0.156622
0.0685223 -0.411133 -0.156622
0.0685223 -0.450288 -0.156622
-0.127255 -0.411133 -0.156622
0.107678 -0.411133 -0.117467
0.107678 -0.450288 -0.117467
-0.127255 -0.411133 0.156622
-0.127255 -0.411133 -0.150096
0.0658187 -0.411133 -0.150096
0.107678 -0.450288 -0.114864
-0.127255 -0.450288 0.156622
-0.127255 -0.411133 0.150096
0.107678 -0.450288 -0.11094
0.101152 -0.411133 -0.114763
-0.1036 -0.450288 0.11094
0.0685223 -0.450288 0.156622
0.0658187 -0.411133 0.150096
0.0658187 -0.398081 -0.150096
-0.127255 -0.398081 0.150096
0.107678 -0.440509 -0.0940337
0.101152 -0.411133 0.114764
0.0856526 -0.450288 -0.11094
-0.1036 -0.450288 -0.11094
0.0685223 -0.411133 0.156622
-0.127255 -0.398081 -0.150096
0.107678 -0.432384 -0.0762732
0.0856526 -0.440509 -0.0940337
0.107678 -0.411133 0.117467
0.101152 -0.398081 -0.114763
0.0562857 -0.450288 -0.11094
0.107678 -0.450288 0.117467
-0.1036 -0.440509 0.0940343
0.0658187 -0.398081 0.150096
-0.127255 -0.398081 -0.14357
-0.127255 -0.398081 0.14357
0.107678 -0.425986 -0.0578195
0.0856526 -0.432384 -0.0762732
0.0562857 -0.440509 -0.0940337
0.107678 -0.417659 -2.80406e-07
0.101152 -0.398081 0.114764
0.0631157 -0.398081 -0.14357
0.0856526 -0.450288 0.11094
0.107678 -0.450288 0.11094
-0.1036 -0.440509 -0.0940337
0.0562857 -0.440509 0.0940343
0.0631157 -0.398081 0.14357
0.107678 -0.421374 -0.0388406
0.0856526 -0.425986 -0.0578195
0.0562857 -0.432384 -0.0762732
0.107678 -0.418589 0.0195095
0.107678 -0.418589 -0.0195089
0.0946255 -0.398081 0.112061
0.0946255 -0.398081 -0.112061
0.0562857 -0.450288 0.11094
0.0856526 -0.440509 0.0940343
0.107678 -0.440509 0.0940343
-0.1036 -0.432384 -0.0762732
0.0562857 -0.432384 0.0762738
0.0631157 0.385029 -0.14357
-0.127255 0.385029 0.14357
0.0856526 -0.421374 -0.0388406
0.0562857 -0.425986 -0.0578195
0.107678 -0.421374 0.0388411
0.0856526 -0.418589 0.0195095
0.0856526 -0.417659 -2.80406e-07
0.0946255 0.385029 -0.112061
-0.1036 -0.432384 0.0762738
0.107678 -0.432384 0.0762738
-0.127255 0.385029 -0.14357
0.0631157 0.385029 0.14357
0.0946255 0.385029 0.112061
0.0856526 -0.418589 -0.0195089
0.0562857 -0.421374 -0.0388406
-0.1036 -0.425986 -0.0578195
0.0562857 -0.425986 0.0578201
0.107678 -0.425986 0.0578201
0.0856526 -0.421374 0.0388411
0.0562857 -0.418589 0.0195095
0.0562857 -0.417659 -2.80406e-07
0.0946255 -0.371978 -0.0859567
0.0856526 -0.432384 0.0762738
-0.127255 0.424185 -0.14357
-0.127255 0.385029 -0.156622
0.107678 0.385029 -0.117467
0.0631157 0.424185 -0.14357
-0.127255 0.424185 0.14357
0.0685223 0.385029 0.156622
0.0631157 0.424185 0.14357
0.0946255 -0.371978 0.0859567
0.0562857 -0.418589 -0.0195089
-0.1036 -0.421374 -0.0388406
0.0562857 -0.421374 0.0388411
0.0856526 -0.425986 0.0578201
0.0946255 -0.189252 -0.0859567
-0.1036 -0.425986 0.0578201
0.0685223 0.385029 -0.156622
0.0946255 0.424185 -0.112061
-0.127255 0.409502 0.156622
0.107678 0.385029 0.117467
-0.127255 0.385029 0.156622
0.0946255 -0.189252 0.0859567
-0.1036 -0.418589 -0.0195089
-0.1036 -0.418589 0.0195095
-0.1036 -0.421374 0.0388411
-0.1036 -0.417659 -2.80406e-07
0.0946255 -0.371978 -2.80406e-07
0.0946255 -0.00652609 -0.0859567
0.0946255 -0.368715 -0.0826937
-0.127255 0.450288 -0.14357
-0.127255 0.409502 -0.156622
0.0946255 0.424185 0.112061
0.0685223 0.409502 -0.156622
0.0946255 0.358926 0.0859567
0.107678 0.409502 -0.117467
0.0631157 0.450288 -0.14357
-0.127255 0.450288 0.156622
0.0631157 0.450288 0.14357
0.107678 0.409502 0.117467
0.0946255 -0.368715 0.0826937
0.0946255 -0.00652609 0.0859567
0.0946255 -0.368715 0.00326277
0.0946255 0.1762 -0.0859567
0.0946255 -0.185989 -0.0826937
0.0946255 -0.192515 -0.0826937
-0.127255 0.450288 -0.156622
0.0946255 0.1762 0.0859567
0.0946255 0.358926 -2.80406e-07
0.0946255 0.450288 0.112061
0.0946255 0.450288 -0.112061
0.0685223 0.409502 0.156622
-0.127255 0.424185 0.161266
-0.127255 0.450288 0.14357
0.0946255 -0.192515 0.0826937
0.0946255 -0.185989 0.0826937
0.0946255 -0.368715 -0.00326277
0.0946255 -0.189252 -2.80406e-07
0.0946255 0.358926 -0.0859567
0.0946255 -0.00326305 -0.0826937
0.0946255 -0.00978857 -0.0826937
0.0946255 -0.192515 -0.00326277
0.0685223 0.450288 -0.156622
-0.127255 0.409502 -0.161266
0.107678 0.450288 -0.117467
0.112322 0.409502 -0.11939
0.0946255 0.179463 0.0826937
0.0946255 0.355663 0.0826937
0.0685223 0.450288 0.156622
0.0704462 0.409502 0.161266
-0.127255 0.409502 0.161266
-0.127255 0.426894 0.160869
0.107678 0.450288 0.117467
0.112322 0.409502 0.11939
0.0946255 -0.192515 0.00326277
0.0946255 -0.185989 0.00326277
0.0946255 -0.00978857 0.0826937
0.0946255 -0.00326305 0.0826937
0.0946255 0.179463 -0.0826937
0.0946255 -0.00652609 -2.80406e-07
0.0946255 0.172937 -0.0826937
0.0946255 -0.185989 -0.00326277
0.0946255 -0.00978857 -0.00326277
0.0766313 0.450288 -0.1762
-0.127255 0.424185 -0.161266
0.0704462 0.409502 -0.161266
0.0946255 0.179463 0.00326277
0.0946255 0.355663 -0.00326277
0.0946255 0.355663 0.00326277
-0.127255 0.450288 0.1762
0.070281 0.426894 0.160869
-0.127255 0.429633 0.160801
0.0946255 -0.00978857 0.00326277
0.0946255 -0.00326305 0.00326277
0.0946255 0.172937 0.0826937
0.0946255 0.1762 -2.80406e-07
0.0946255 0.355663 -0.0826937
0.0946255 -0.00326305 -0.00326277
0.0946255 0.172937 -0.00326277
0.127255 0.450288 -0.125576
-0.127255 0.450288 -0.1762
-0.127255 0.426894 -0.160869
0.0704462 0.424185 -0.161266
0.112322 0.424185 -0.11939
0.0946255 0.179463 -0.00326277
0.127255 0.450288 0.125576
-0.127255 0.449258 0.173662
0.0766313 0.450288 0.1762
0.0704462 0.424185 0.161266
0.0702529 0.429633 0.160801
-0.127255 0.432359 0.161064
0.0946255 0.172937 0.00326277
0.0755803 0.449258 -0.173662
-0.127255 0.449258 -0.173662
-0.127255 0.429633 -0.160801
0.070281 0.426894 -0.160869
-0.127255 0.447929 0.171268
0.112322 0.424185 0.11939
0.111924 0.426894 0.119225
0.111856 0.429633 0.119198
-0.127255 0.435033 0.161654
0.124718 0.449258 -0.124525
-0.127255 0.447929 -0.171267
-0.127255 0.432359 -0.161064
0.0702529 0.429633 -0.160801
0.111924 0.426894 -0.119225
0.0755803 0.449258 0.173662
0.124718 0.449258 0.124525
-0.127255 0.44632 0.169051
0.0703619 0.432359 0.161064
-0.127255 0.437617 0.162563
0.0745889 0.447929 -0.171267
-0.127255 0.44632 -0.169051
-0.127255 0.435033 -0.161654
0.111856 0.429633 -0.119197
-0.127255 0.444456 0.167045
0.0745889 0.447929 0.171268
0.112119 0.432359 0.119307
0.0706063 0.435033 0.161654
-0.127255 0.440072 0.163777
0.122323 0.447929 0.123533
0.122323 0.447929 -0.123533
-0.127255 0.444456 -0.167045
0.0736705 0.44632 -0.169051
-0.127255 0.437617 -0.162563
0.0703619 0.432359 -0.161064
-0.127255 0.442363 0.165278
0.0736705 0.44632 0.169051
0.112119 0.432359 -0.119306
0.0709832 0.437617 0.162563
-0.127255 0.442363 -0.165278
0.0728391 0.444456 -0.167045
-0.127255 0.440072 -0.163777
0.0706063 0.435033 -0.161654
0.0721072 0.442363 0.165278
0.0728391 0.444456 0.167045
0.11271 0.435033 -0.119551
0.11271 0.435033 0.119551
0.0714854 0.440072 0.163777
0.120107 0.44632 0.122615
0.120107 0.44632 -0.122615
0.0721072 0.442363 -0.165278
0.0709832 0.437617 -0.162563
0.113618 0.437617 0.119927
0.0714854 0.440072 -0.163777
0.1181 0.444456 -0.121783
0.1181 0.444456 0.121784
0.114832 0.440072 0.120431
0.113618 0.437617 -0.119927
0.114832 0.440072 -0.12043
0.116333 0.442363 -0.121052
0.116333 0.442363 0.121052
0.0962573 -0.0245978 0.0989853
0.0962573 -0.0245978 0.096452
0.0962573 -0.0247647 0.0977186
0.0962573 -0.0241091 0.100166
0.0946255 -0.0247647 0.0977186
0.0946255 -0.0245978 0.0989853
0.0946255 -0.0241091 0.100166
0.0962573 -0.0241091 0.0952718
0.0946255 -0.0245978 0.096452
0.0946255 -0.0233311 0.101179
0.0962573 -0.0233311 0.101179
0.0962573 -0.0233311 0.0942579
0.0946255 -0.0241091 0.0952718
0.0962573 -0.0223178 0.101957
0.0946255 -0.0223178 0.101957
0.0962573 -0.0223178 0.0934799
0.0946255 -0.0233311 0.0942579
0.0962573 -0.0211365 0.102447
0.0946255 -0.0223178 0.0934799
0.0946255 -0.0211365 0.102447
0.0962573 -0.0214735 0.0977186
0.0946255 -0.0211365 0.0929912
0.0962573 -0.0198704 0.102613
0.0962573 -0.021419 0.0981337
0.0962573 -0.0211365 0.0929912
0.0946255 -0.0198704 0.102613
0.0962573 -0.0210039 0.0988528
0.0962573 -0.0212584 0.0985202
0.0962573 -0.021419 0.0973041
0.0946255 -0.0198704 0.0928243
0.0962573 -0.0186037 0.102447
0.0962573 -0.0206719 0.0991072
0.0962573 -0.0212584 0.0969171
0.0962573 -0.0198704 0.0928243
0.0946255 -0.0186037 0.102447
0.0962573 -0.0198704 0.0993224
0.0962573 -0.0202855 0.0992673
0.0962573 -0.0206719 0.0963301
0.0962573 -0.0210039 0.0965851
0.0946255 -0.0186037 0.0929912
0.0962573 -0.0174229 0.101957
0.0962573 -0.0194553 0.0992673
0.0962573 -0.0186037 0.0929912
0.0946255 -0.0174229 0.101957
0.0962573 -0.0184818 0.0985202
0.0962573 -0.0198704 0.0961155
0.0962573 -0.0190682 0.0991072
0.0962573 -0.0202855 0.0961705
0.0962573 -0.0194553 0.0961705
0.0946255 -0.0174229 0.0934799
0.0962573 -0.016409 0.101179
0.0962573 -0.0187368 0.0988528
0.0962573 -0.0183211 0.0981337
0.0962573 -0.0190682 0.0963301
0.0962573 -0.0174229 0.0934799
0.0946255 -0.016409 0.101179
0.0962573 -0.0187368 0.0965851
0.0962573 -0.0182723 0.0977608
0.0962573 -0.0184818 0.0969171
0.0946255 -0.016409 0.0942579
0.0946255 -0.0156311 0.100166
0.0962573 -0.0182667 0.0977186
0.0962573 -0.016409 0.0942579
0.0962573 -0.0183211 0.0973041
0.0962573 -0.0156311 0.100166
0.0962573 -0.0156311 0.0952718
0.0946255 -0.0151429 0.0989853
0.0946255 -0.0156311 0.0952718
0.0962573 -0.0151429 0.0989853
0.0962573 -0.0151429 0.096452
0.0946255 -0.0149755 0.0977186
0.0946255 -0.0151429 0.096452
0.0962573 -0.0149811 0.0977608
0.0962573 -0.0149755 0.0977186
0.0946255 0.0106373 0.0928243
0.0946255 0.0093319 0.0926957
0.0946255 0.00855391 0.0928243
0.0962573 0.00855391 0.0928243
0.0962573 0.0106373 0.0928243
0.0962573 0.00803713 0.0929097
0.0962573 0.00858031 0.0962458
0.0946255 0.0118653 0.0932861
0.0946255 0.00803713 0.0929097
0.0962573 0.00823036 0.0965334
0.0962573 0.00881904 0.096138
0.0962573 0.0118653 0.0932861
0.0962573 0.00684234 0.0934512
0.0962573 0.00796691 0.0969013
0.0962573 0.00831124 0.0989848
0.0962573 0.00867917 0.0992488
0.0962573 0.00893026 0.0960874
0.0962573 0.0106823 0.0964531
0.0946255 0.0129314 0.0940506
0.0946255 0.00684234 0.0934512
0.0962573 0.0071277 0.102151
0.0962573 0.00780682 0.0973249
0.0962573 0.00802308 0.0986348
0.0962573 0.0100436 0.0960874
0.0962573 0.0103143 0.0961891
0.0962573 0.0109693 0.096803
0.0962573 0.0129314 0.0940506
0.0962573 0.00582843 0.0942837
0.0962573 0.00606155 0.101387
0.0962573 0.007763 0.0977759
0.0962573 0.00776413 0.0977608
0.0962573 0.00783659 0.0982225
0.0962573 0.00835562 0.102613
0.0962573 0.0111283 0.097153
0.0962573 0.0121506 0.101987
0.0962573 0.0137639 0.0950645
0.0946255 0.00582843 0.0942837
0.0946255 0.00606155 0.101387
0.0962573 0.0104396 0.102613
0.0962573 0.0131651 0.101154
0.0946255 0.0137639 0.0950645
0.0946255 0.00506393 0.0953504
0.0962573 0.00522907 0.100373
0.0946255 0.0071277 0.102151
0.0946255 0.00835562 0.102613
0.0962573 0.00894936 0.0993504
0.0962573 0.0111283 0.0982658
0.0946255 0.0121506 0.101987
0.0962573 0.0143059 0.0962598
0.0962573 0.013929 0.100087
0.0962573 0.00506393 0.0953504
0.0946255 0.00522907 0.100373
0.0946255 0.0104396 0.102613
0.0962573 0.0100627 0.0993504
0.0962573 0.0110261 0.0985365
0.0946255 0.0131651 0.101154
0.0946255 0.0109558 0.102528
0.0946255 0.0143059 0.0962598
0.0946255 0.013929 0.100087
0.0946255 0.00460219 0.0965778
0.0962573 0.00468757 0.099178
0.0946255 0.00966107 0.102742
0.0962573 0.0109558 0.102528
0.0962573 0.0104121 0.099192
0.0962573 0.0143908 0.0967761
0.0962573 0.0143908 0.0988601
0.0946255 0.0143908 0.0988601
0.0962573 0.00460219 0.0965778
0.0946255 0.00468757 0.099178
0.0962573 0.0107626 0.0989044
0.0946255 0.0143908 0.0967761
0.0962573 0.00448536 0.0977608
0.0962573 0.00447356 0.0978838
0.0946255 0.00447356 0.0978838
0.0946255 0.0145194 0.0975541
0.0936756 0.0104115 0.10059
0.0936526 0.0102778 0.0953538
0.0936279 0.0101335 0.100424
0.0936728 0.0103924 0.0952718
0.0962298 0.00923977 0.100424
0.0938683 0.0115406 0.0952718
0.0962669 0.00937964 0.0953538
0.0963017 0.00950996 0.10059
0.0938717 0.0115602 0.10059
0.0962961 0.00949142 0.0952718
0.0985396 0.00753438 0.100424
0.0939161 0.0118198 0.0954375
0.096591 0.0106059 0.0952718
0.0985997 0.0076574 0.0953538
0.0986553 0.00777199 0.10059
0.096596 0.010625 0.10059
0.0939335 0.0119214 0.100332
0.0986474 0.0077557 0.0952718
0.100494 0.00509201 0.100424
0.0939807 0.0121995 0.0958672
0.0966629 0.0108761 0.0954375
0.0991221 0.00873759 0.0952718
0.100572 0.00519144 0.0953538
0.100646 0.00528412 0.10059
0.09913 0.00875388 0.10059
0.0966887 0.0109749 0.100332
0.0939953 0.0122821 0.0998633
0.100635 0.00527064 0.0952718
0.102071 0.00212612 0.0953538
0.101977 0.0020559 0.100424
0.0940312 0.0124955 0.0964379
0.0967601 0.0112446 0.0958672
0.0992373 0.00897576 0.0954375
0.101263 0.00606211 0.0952718
0.102158 0.00219072 0.10059
0.101273 0.00607559 0.10059
0.0992794 0.00906227 0.100332
0.0967814 0.0113254 0.0998633
0.0940413 0.0125545 0.0992634
0.102145 0.00218117 0.0952718
0.103006 -0.00135993 0.0953538
0.102904 -0.00139588 0.100424
0.0968511 0.0115895 0.0992634
0.0940593 0.0126595 0.0970081
0.0968364 0.0115327 0.0964379
0.0993945 0.00930044 0.0958672
0.101415 0.00625422 0.0954375
0.102887 0.00273615 0.0952718
0.103101 -0.00132679 0.10059
0.1029 0.0027457 0.10059
0.10147 0.00632387 0.100332
0.0994282 0.00937122 0.0998633
0.0995406 0.00960321 0.0992634
0.096878 0.0116911 0.098823
0.0940593 0.0126595 0.098823
0.103087 -0.00133128 0.0952718
0.103324 -0.00506224 0.0953538
0.103218 -0.00506224 0.100424
0.0995844 0.00969364 0.098823
0.096878 0.0116911 0.0970081
0.0995164 0.00955378 0.0964379
0.101622 0.00651598 0.0958672
0.103068 0.00287096 0.0954375
0.103408 -0.00506224 0.0952718
0.103423 -0.00506224 0.10059
0.103133 0.00291983 0.100332
0.101668 0.00657272 0.0998633
0.101816 0.00676033 0.0992634
0.101873 0.00683279 0.098823
0.0995844 0.00969364 0.0970081
0.103902 -0.00104536 0.0952718
0.102904 -0.00872916 0.100424
0.103101 -0.00879882 0.10059
0.103916 -0.00908417 0.10059
0.103916 -0.00104087 0.10059
0.101873 0.00683279 0.0970081
0.101784 0.00671989 0.0964379
0.103314 0.00305465 0.0958672
0.1041 -0.000976272 0.0954375
0.102887 -0.0128612 0.0952718
0.103087 -0.00879376 0.0952718
0.103006 -0.00876511 0.0953538
0.1029 -0.0128702 0.10059
0.104173 -0.000950996 0.100332
0.103368 0.00309397 0.0998633
0.103543 0.00322541 0.0992634
0.103611 0.00327653 0.098823
0.103505 0.00319732 0.0964379
0.104248 -0.00506224 0.0952718
0.103902 -0.00907912 0.0952718
0.101977 -0.0121815 0.100424
0.102158 -0.0123158 0.10059
0.104261 -0.00506224 0.10059
0.103133 -0.0130449 0.100332
0.103611 0.00327653 0.0970081
0.10458 -0.000808317 0.0964379
0.104369 -0.000882466 0.0958672
0.104451 -0.00506224 0.0954375
0.103068 -0.012996 0.0954375
0.102145 -0.0123062 0.0952718
0.102071 -0.0122512 0.0953538
0.101273 -0.0162006 0.10059
0.104173 -0.00917349 0.100332
0.10147 -0.0164495 0.100332
0.104526 -0.00506224 0.100332
0.104429 -0.000861119 0.0998633
0.104622 -0.000793713 0.0992634
0.104696 -0.000767874 0.098823
0.104696 -0.000767874 0.0970081
0.1041 -0.00914877 0.0954375
0.101415 -0.0163787 0.0954375
0.101263 -0.0161872 0.0952718
0.100494 -0.0152171 0.100424
0.100646 -0.0154092 0.10059
0.103368 -0.0132196 0.0998633
0.101668 -0.0166983 0.0998633
0.104945 -0.00506224 0.0964379
0.105065 -0.00506224 0.0970081
0.104729 -0.00506224 0.0958672
0.104369 -0.00924314 0.0958672
0.103314 -0.0131791 0.0958672
0.101622 -0.016641 0.0958672
0.100635 -0.0153957 0.0952718
0.100572 -0.0153165 0.0953538
0.09913 -0.0188795 0.10059
0.0992794 -0.0191879 0.100332
0.104429 -0.00926393 0.0998633
0.0994282 -0.0194963 0.0998633
0.104789 -0.00506224 0.0998633
0.105065 -0.00506224 0.098823
0.0992373 -0.0191008 0.0954375
0.0993945 -0.0194249 0.0958672
0.0991221 -0.0188626 0.0952718
0.0985396 -0.0176589 0.100424
0.0986553 -0.0178976 0.10059
0.104622 -0.00933133 0.0992634
0.103543 -0.013351 0.0992634
0.0995406 -0.0197288 0.0992634
0.104988 -0.00506224 0.0992634
0.10458 -0.00931729 0.0964379
0.104696 -0.00935773 0.098823
0.103505 -0.0133224 0.0964379
0.0995164 -0.0196783 0.0964379
0.0986474 -0.0178807 0.0952718
0.0985997 -0.017783 0.0953538
0.096596 -0.02075 0.10059
0.0966887 -0.0211 0.100332
0.0967814 -0.0214505 0.0998633
0.101816 -0.0168854 0.0992634
0.0968511 -0.0217151 0.0992634
0.104696 -0.00935773 0.0970081
0.101784 -0.0168449 0.0964379
0.0966629 -0.0210017 0.0954375
0.0967601 -0.0213702 0.0958672
0.096591 -0.0207309 0.0952718
0.0962298 -0.0193643 0.100424
0.0963017 -0.019635 0.10059
0.103611 -0.0134016 0.098823
0.0995844 -0.0198187 0.098823
0.096878 -0.0218167 0.098823
0.103611 -0.0134016 0.0970081
0.101873 -0.0169578 0.0970081
0.0968364 -0.0216578 0.0964379
0.0962961 -0.0196165 0.0952718
0.0962669 -0.0195047 0.0953538
0.0938717 -0.0216853 0.10059
0.0939335 -0.0220465 0.100332
0.0939953 -0.0224077 0.0998633
0.0940413 -0.0226795 0.0992634
0.101873 -0.0169578 0.098823
0.0940593 -0.0227846 0.098823
0.0939161 -0.0219448 0.0954375
0.0939807 -0.022324 0.0958672
0.0995844 -0.0198187 0.0970081
0.0938683 -0.0216662 0.0952718
0.0936279 -0.020258 0.100424
0.0936756 -0.0205371 0.10059
0.096878 -0.0218167 0.0970081
0.0940593 -0.0227846 0.0970081
0.0940312 -0.0226206 0.0964379
0.0936728 -0.0205175 0.0952718
0.0936526 -0.0204029 0.0953538
3 0 1 2
3 1 0 3
3 2 1 0
3 3 0 1
3 4 2 1
3 1 2 4
3 5 0 2
3 2 0 5
3 0 6 3
3 3 6 0
3 7 1 3
3 3 1 7
3 2 4 5
3 5 4 2
3 8 4 1
3 1 4 8
3 9 0 5
3 5 0 9
3 6 0 10
3 10 0 6
3 3 6 11
3 11 6 3
3 8 1 7
3 7 1 8
3 3 11 7
3 7 11 3
3 12 5 4
3 4 5 12
3 13 4 8
3 8 4 13
3 12 0 9
3 9 0 12
3 5 12 9
3 9 12 5
3 14 10 0
3 0 10 14
3 15 6 10
3 10 6 15
3 11 6 16
3 16 6 11
3 7 17 8
3 8 17 7
3 18 7 11
3 11 7 18
3 12 4 19
3 19 4 12
3 20 4 13
3 13 4 20
3 17 13 8
3 8 13 17
3 21 0 12
3 12 0 21
3 10 14 15
3 15 14 10
3 14 0 22
3 22 0 14
3 6 15 23
3 23 15 6
3 23 16 6
3 6 16 23
3 16 18 11
3 11 18 16
3 17 7 24
3 24 7 17
3 7 18 24
3 24 18 7
3 19 4 25
3 25 4 19
3 20 27 4
3 4 27 20
3 28 20 13
3 13 20 28
3 13 17 28
3 28 17 13
3 29 0 21
3 21 0 29
3 29 12 21
3 21 12 29
3 15 14 30
3 30 14 15
3 22 0 29
3 29 0 22
3 22 31 14
3 14 31 22
3 30 23 15
3 15 23 30
3 16 23 27
3 27 23 16
3 18 16 32
3 32 16 18
3 33 17 24
3 24 17 33
3 24 18 34
3 34 18 24
3 25 4 35
3 35 4 25
3 37 19 26
3 26 19 37
3 16 27 20
3 20 27 16
3 27 38 4
3 4 38 27
3 20 28 39
3 39 28 20
3 40 28 17
3 17 28 40
3 41 29 21
3 21 29 41
3 14 42 30
3 30 42 14
3 31 22 43
3 43 22 31
3 23 30 27
3 27 30 23
3 16 39 32
3 32 39 16
3 32 45 18
3 18 45 32
3 40 17 33
3 33 17 40
3 24 34 33
3 33 34 24
3 34 18 45
3 45 18 34
3 35 4 46
3 46 4 35
3 48 25 36
3 36 25 48
3 39 16 20
3 20 16 39
3 27 49 38
3 38 49 27
3 50 4 38
3 38 4 50
3 51 39 28
3 28 39 51
3 52 28 40
3 40 28 52
3 29 41 53
3 53 41 29
3 21 54 41
3 41 54 21
3 29 44 37
3 37 44 29
3 42 14 53
3 53 14 42
3 55 30 42
3 42 30 55
3 31 43 56
3 56 43 31
3 30 55 27
3 27 55 30
3 45 32 39
3 39 32 45
3 33 58 40
3 40 58 33
3 33 52 40
3 40 52 33
3 59 33 34
3 34 33 59
3 34 51 33
3 33 51 34
3 45 59 34
3 34 59 45
3 51 34 45
3 45 34 51
3 46 4 50
3 50 4 46
3 61 35 47
3 47 35 61
3 37 57 48
3 48 57 37
3 27 62 49
3 49 62 27
3 45 39 51
3 51 39 45
3 51 28 52
3 52 28 51
3 40 65 52
3 52 65 40
3 42 53 41
3 41 53 42
3 44 29 53
3 53 29 44
3 54 21 26
3 26 21 54
3 37 44 57
3 57 44 37
3 31 56 66
3 66 56 31
3 27 55 67
3 67 55 27
3 58 33 68
3 68 33 58
3 65 40 58
3 58 40 65
3 33 51 52
3 52 51 33
3 33 59 68
3 68 59 33
3 59 45 69
3 69 45 59
3 70 45 51
3 51 45 70
3 72 46 60
3 60 46 72
3 48 74 61
3 61 74 48
3 48 57 74
3 74 57 48
3 27 75 62
3 62 75 27
3 77 49 63
3 63 49 77
3 78 38 64
3 64 38 78
3 52 79 51
3 51 79 52
3 79 52 65
3 65 52 79
3 54 26 36
3 36 26 54
3 66 56 73
3 73 56 66
3 44 55 54
3 54 55 44
3 57 67 80
3 80 67 57
3 27 67 75
3 75 67 27
3 58 81 68
3 68 81 58
3 82 58 68
3 68 58 82
3 83 65 58
3 58 65 83
3 65 84 58
3 58 84 65
3 68 59 85
3 85 59 68
3 45 70 69
3 69 70 45
3 86 59 69
3 69 59 86
3 59 87 69
3 69 87 59
3 51 88 70
3 70 88 51
3 89 50 71
3 71 50 89
3 61 91 72
3 72 91 61
3 61 74 91
3 91 74 61
3 91 62 76
3 76 62 91
3 88 51 79
3 79 51 88
3 79 65 93
3 93 65 79
3 54 36 80
3 80 36 54
3 66 73 94
3 94 73 66
3 81 58 84
3 84 58 81
3 81 82 68
3 68 82 81
3 68 85 81
3 81 85 68
3 95 58 82
3 82 58 95
3 83 70 65
3 65 70 83
3 83 58 95
3 95 58 83
3 84 65 96
3 96 65 84
3 59 97 85
3 85 97 59
3 87 59 85
3 85 59 87
3 98 69 70
3 70 69 98
3 87 70 69
3 69 70 87
3 59 86 99
3 99 86 59
3 86 69 98
3 98 69 86
3 70 88 100
3 100 88 70
3 72 91 89
3 89 91 72
3 94 73 90
3 90 73 94
3 74 75 92
3 92 75 74
3 89 77 78
3 78 77 89
3 89 91 77
3 77 91 89
3 88 79 105
3 105 79 88
3 93 65 106
3 106 65 93
3 107 79 93
3 93 79 107
3 80 36 47
3 47 36 80
3 84 108 81
3 81 108 84
3 81 96 84
3 84 96 81
3 82 81 109
3 109 81 82
3 85 110 81
3 81 110 85
3 82 111 95
3 95 111 82
3 98 70 83
3 83 70 98
3 70 112 65
3 65 112 70
3 110 65 70
3 70 65 110
3 95 113 83
3 83 113 95
3 65 110 96
3 96 110 65
3 96 114 84
3 84 114 96
3 97 59 99
3 99 59 97
3 85 97 115
3 115 97 85
3 85 116 87
3 87 116 85
3 110 85 87
3 87 85 110
3 70 87 110
3 110 87 70
3 86 97 99
3 99 97 86
3 117 86 98
3 98 86 117
3 88 118 100
3 100 118 88
3 70 100 119
3 119 100 70
3 103 90 101
3 101 90 103
3 94 90 103
3 103 90 94
3 79 107 105
3 105 107 79
3 105 120 88
3 88 120 105
3 106 65 121
3 121 65 106
3 122 93 106
3 106 93 122
3 107 93 123
3 123 93 107
3 80 47 92
3 92 47 80
3 108 84 114
3 114 84 108
3 124 81 108
3 108 81 124
3 81 110 96
3 96 110 81
3 109 81 124
3 124 81 109
3 111 82 109
3 109 82 111
3 113 95 111
3 111 95 113
3 113 98 83
3 83 98 113
3 70 125 112
3 112 125 70
3 126 65 112
3 112 65 126
3 127 96 110
3 110 96 127
3 114 96 128
3 128 96 114
3 129 115 97
3 97 115 129
3 97 130 115
3 115 130 97
3 85 115 131
3 131 115 85
3 116 85 131
3 131 85 116
3 116 110 87
3 87 110 116
3 97 86 129
3 129 86 97
3 86 117 129
3 129 117 86
3 98 113 117
3 117 113 98
3 118 88 120
3 120 88 118
3 100 118 132
3 132 118 100
3 100 133 119
3 119 133 100
3 70 119 125
3 125 119 70
3 102 101 104
3 104 101 102
3 103 101 102
3 102 101 103
3 134 105 107
3 107 105 134
3 120 105 135
3 135 105 120
3 121 65 136
3 136 65 121
3 137 106 121
3 121 106 137
3 93 122 135
3 135 122 93
3 122 106 138
3 138 106 122
3 123 93 139
3 139 93 123
3 92 47 60
3 60 47 92
3 114 140 108
3 108 140 114
3 108 140 124
3 124 140 108
3 140 109 124
3 124 109 140
3 124 141 109
3 109 141 124
3 109 140 111
3 111 140 109
3 141 111 109
3 109 111 141
3 111 142 113
3 113 142 111
3 143 113 111
3 111 113 143
3 125 144 112
3 112 144 125
3 136 65 126
3 126 65 136
3 112 145 126
3 126 145 112
3 96 127 128
3 128 127 96
3 110 116 127
3 127 116 110
3 128 142 114
3 114 142 128
3 115 129 146
3 146 129 115
3 147 97 129
3 129 97 147
3 130 97 148
3 148 97 130
3 115 130 149
3 149 130 115
3 131 115 116
3 116 115 131
3 150 129 117
3 117 129 150
3 151 129 117
3 117 129 151
3 142 117 113
3 113 117 142
3 143 117 113
3 113 117 143
3 100 132 135
3 135 132 100
3 133 100 153
3 153 100 133
3 119 133 154
3 154 133 119
3 119 155 125
3 125 155 119
3 105 134 135
3 135 134 105
3 120 135 152
3 152 135 120
3 156 121 136
3 136 121 156
3 106 137 157
3 157 137 106
3 137 121 158
3 158 121 137
3 159 135 122
3 122 135 159
3 135 139 93
3 93 139 135
3 138 106 160
3 160 106 138
3 92 60 76
3 76 60 92
3 114 142 140
3 140 142 114
3 140 161 124
3 124 161 140
3 141 124 162
3 162 124 141
3 142 111 140
3 140 111 142
3 163 111 141
3 141 111 163
3 143 111 163
3 163 111 143
3 144 125 164
3 164 125 144
3 112 144 145
3 145 144 112
3 126 165 136
3 136 165 126
3 166 126 145
3 145 126 166
3 127 142 128
3 128 142 127
3 116 150 127
3 127 150 116
3 129 150 146
3 146 150 129
3 146 116 115
3 115 116 146
3 115 167 146
3 146 167 115
3 97 147 148
3 148 147 97
3 147 129 151
3 151 129 147
3 115 149 169
3 169 149 115
3 117 142 150
3 150 142 117
3 151 117 143
3 143 117 151
3 152 135 132
3 132 135 152
3 135 153 100
3 100 153 135
3 119 154 157
3 157 154 119
3 155 119 171
3 171 119 155
3 125 155 172
3 172 155 125
3 135 134 139
3 139 134 135
3 121 156 173
3 173 156 121
3 156 136 174
3 174 136 156
3 175 157 137
3 137 157 175
3 157 160 106
3 106 160 157
3 158 121 176
3 176 121 158
3 135 159 157
3 157 159 135
3 76 60 71
3 71 60 76
3 142 177 140
3 140 177 142
3 140 177 161
3 161 177 140
3 124 161 178
3 178 161 124
3 162 124 179
3 179 124 162
3 173 164 125
3 125 164 173
3 126 182 165
3 165 182 126
3 174 136 165
3 165 136 174
3 164 126 166
3 166 126 164
3 127 150 142
3 142 150 127
3 116 146 150
3 150 146 116
3 146 183 150
3 150 183 146
3 115 184 167
3 167 184 115
3 185 146 167
3 167 146 185
3 115 169 188
3 188 169 115
3 150 177 142
3 142 177 150
3 153 135 157
3 157 135 153
3 153 157 170
3 170 157 153
3 170 157 154
3 154 157 170
3 157 171 119
3 119 171 157
3 125 172 173
3 173 172 125
3 182 173 156
3 156 173 182
3 173 176 121
3 121 176 173
3 157 175 173
3 173 175 157
3 157 159 160
3 160 159 157
3 76 71 63
3 63 71 76
3 191 124 178
3 178 124 191
3 179 124 192
3 192 124 179
3 164 173 126
3 126 173 164
3 173 182 126
3 126 182 173
3 146 185 183
3 183 185 146
3 150 183 177
3 177 183 150
3 115 194 184
3 184 194 115
3 115 188 198
3 198 188 115
3 171 157 173
3 173 157 171
3 171 173 189
3 189 173 171
3 189 173 172
3 172 173 189
3 173 175 176
3 176 175 173
3 63 71 64
3 64 71 63
3 200 124 191
3 191 124 200
3 192 124 201
3 201 124 192
3 115 206 194
3 194 206 115
3 115 198 208
3 208 198 115
3 210 124 200
3 200 124 210
3 201 124 211
3 211 124 201
3 115 213 206
3 206 213 115
3 115 208 217
3 217 208 115
3 220 124 210
3 210 124 220
3 211 124 222
3 222 124 211
3 115 224 213
3 213 224 115
3 115 217 224
3 224 217 115
3 228 124 220
3 220 124 228
3 222 124 230
3 230 124 222
3 230 124 228
3 228 124 230
3 12 26 19
3 19 26 12
3 19 36 25
3 25 36 19
3 26 12 37
3 37 12 26
3 37 12 29
3 29 12 37
3 43 29 22
3 22 29 43
3 14 44 31
3 31 44 14
3 25 47 35
3 35 47 25
3 36 19 48
3 48 19 36
3 48 19 37
3 37 19 48
3 29 43 37
3 37 43 29
3 44 14 53
3 53 14 44
3 57 31 44
3 44 31 57
3 35 60 46
3 46 60 35
3 47 25 61
3 61 25 47
3 61 25 48
3 48 25 61
3 37 56 48
3 48 56 37
3 38 63 49
3 49 63 38
3 50 64 38
3 38 64 50
3 41 55 53
3 53 55 41
3 56 37 43
3 43 37 56
3 55 41 42
3 42 41 55
3 53 55 44
3 44 55 53
3 31 57 66
3 66 57 31
3 44 67 57
3 57 67 44
3 46 71 50
3 50 71 46
3 60 35 72
3 72 35 60
3 72 35 61
3 61 35 72
3 48 73 61
3 61 73 48
3 73 48 56
3 56 48 73
3 49 76 62
3 62 76 49
3 63 38 77
3 77 38 63
3 64 50 78
3 78 50 64
3 74 66 57
3 57 66 74
3 54 67 44
3 44 67 54
3 67 54 55
3 55 54 67
3 71 46 89
3 89 46 71
3 89 46 72
3 72 46 89
3 61 90 72
3 72 90 61
3 90 61 73
3 73 61 90
3 57 75 74
3 74 75 57
3 62 92 75
3 75 92 62
3 76 49 91
3 91 49 76
3 77 38 78
3 78 38 77
3 91 49 77
3 77 49 91
3 78 50 89
3 89 50 78
3 66 74 94
3 94 74 66
3 75 80 67
3 67 80 75
3 80 75 57
3 57 75 80
3 72 101 89
3 89 101 72
3 101 72 90
3 90 72 101
3 91 94 74
3 74 94 91
3 74 62 91
3 91 62 74
3 92 62 74
3 74 62 92
3 78 102 77
3 77 102 78
3 77 103 91
3 91 103 77
3 89 104 78
3 78 104 89
3 104 89 101
3 101 89 104
3 94 91 103
3 103 91 94
3 102 78 104
3 104 78 102
3 103 77 102
3 102 77 103
3 147 130 148
3 148 130 147
3 130 168 149
3 149 168 130
3 180 141 162
3 162 141 180
3 141 180 163
3 163 180 141
3 163 181 143
3 143 181 163
3 151 186 147
3 147 186 151
3 130 147 186
3 186 147 130
3 168 130 186
3 186 130 168
3 187 149 168
3 168 149 187
3 149 187 169
3 169 187 149
3 181 151 143
3 143 151 181
3 177 190 161
3 161 190 177
3 190 178 161
3 161 178 190
3 193 162 179
3 179 162 193
3 162 193 180
3 180 193 162
3 181 163 180
3 180 163 181
3 184 185 167
3 167 185 184
3 186 151 195
3 195 151 186
3 186 196 168
3 168 196 186
3 168 197 187
3 187 197 168
3 187 188 169
3 169 188 187
3 151 181 195
3 195 181 151
3 190 177 199
3 199 177 190
3 178 190 191
3 191 190 178
3 202 179 192
3 192 179 202
3 179 202 193
3 193 202 179
3 203 180 193
3 193 180 203
3 180 203 181
3 181 203 180
3 204 183 185
3 185 183 204
3 205 177 183
3 183 177 205
3 194 204 184
3 184 204 194
3 185 184 204
3 204 184 185
3 196 186 195
3 195 186 196
3 197 168 196
3 196 168 197
3 197 207 187
3 187 207 197
3 188 187 207
3 207 187 188
3 207 198 188
3 188 198 207
3 203 195 181
3 181 195 203
3 177 205 199
3 199 205 177
3 199 209 190
3 190 209 199
3 209 191 190
3 190 191 209
3 191 209 200
3 200 209 191
3 201 202 192
3 192 202 201
3 212 193 202
3 202 193 212
3 193 212 203
3 203 212 193
3 183 204 205
3 205 204 183
3 206 214 194
3 194 214 206
3 204 194 214
3 214 194 204
3 195 203 196
3 196 203 195
3 196 212 197
3 197 212 196
3 207 197 215
3 215 197 207
3 198 207 216
3 216 207 198
3 216 208 198
3 198 208 216
3 218 199 205
3 205 199 218
3 209 199 219
3 219 199 209
3 200 221 210
3 210 221 200
3 221 200 209
3 209 200 221
3 211 223 201
3 201 223 211
3 202 201 223
3 223 201 202
3 223 212 202
3 202 212 223
3 212 196 203
3 203 196 212
3 214 205 204
3 204 205 214
3 213 225 206
3 206 225 213
3 214 206 225
3 225 206 214
3 226 197 212
3 212 197 226
3 197 226 215
3 215 226 197
3 215 216 207
3 207 216 215
3 208 216 227
3 227 216 208
3 227 217 208
3 208 217 227
3 199 218 219
3 219 218 199
3 205 214 218
3 218 214 205
3 219 221 209
3 209 221 219
3 210 229 220
3 220 229 210
3 229 210 221
3 221 210 229
3 222 231 211
3 211 231 222
3 223 211 231
3 231 211 223
3 212 223 226
3 226 223 212
3 232 213 224
3 224 213 232
3 225 213 233
3 233 213 225
3 225 218 214
3 214 218 225
3 234 215 226
3 226 215 234
3 216 215 235
3 235 215 216
3 235 227 216
3 216 227 235
3 217 227 236
3 236 227 217
3 236 224 217
3 217 224 236
3 237 219 218
3 218 219 237
3 221 219 238
3 238 219 221
3 220 239 228
3 228 239 220
3 239 220 229
3 229 220 239
3 238 229 221
3 221 229 238
3 230 240 222
3 222 240 230
3 231 222 240
3 240 222 231
3 231 226 223
3 223 226 231
3 213 232 233
3 233 232 213
3 224 236 232
3 232 236 224
3 233 237 225
3 225 237 233
3 218 225 237
3 237 225 218
3 215 234 235
3 235 234 215
3 226 231 234
3 234 231 226
3 227 235 241
3 241 235 227
3 241 236 227
3 227 236 241
3 219 237 238
3 238 237 219
3 228 242 230
3 230 242 228
3 242 228 239
3 239 228 242
3 243 239 229
3 229 239 243
3 229 238 243
3 243 238 229
3 240 230 242
3 242 230 240
3 240 234 231
3 231 234 240
3 232 244 233
3 233 244 232
3 245 232 236
3 236 232 245
3 237 233 244
3 244 233 237
3 246 235 234
3 234 235 246
3 235 246 241
3 241 246 235
3 236 241 245
3 245 241 236
3 244 238 237
3 237 238 244
3 239 247 242
3 242 247 239
3 239 243 248
3 248 243 239
3 238 244 243
3 243 244 238
3 242 246 240
3 240 246 242
3 234 240 246
3 246 240 234
3 244 232 249
3 249 232 244
3 232 245 249
3 249 245 232
3 247 241 246
3 246 241 247
3 241 247 245
3 245 247 241
3 247 239 248
3 248 239 247
3 246 242 247
3 247 242 246
3 243 249 248
3 248 249 243
3 249 243 244
3 244 243 249
3 245 248 249
3 249 248 245
3 248 245 247
3 247 245 248
3 123 134 107
3 107 134 123
3 152 118 120
3 120 118 152
3 118 152 132
3 132 152 118
3 138 159 122
3 122 159 138
3 134 123 139
3 139 123 134
3 170 133 153
3 153 133 170
3 133 170 154
3 154 170 133
3 158 175 137
3 137 175 158
3 159 138 160
3 160 138 159
3 166 144 164
3 164 144 166
3 144 166 145
3 145 166 144
3 189 155 171
3 171 155 189
3 155 189 172
3 172 189 155
3 174 182 156
3 156 182 174
3 175 158 176
3 176 158 175
3 182 174 165
3 165 174 182
3 252 251 250
3 253 250 251
3 257 253 251
3 260 253 257
3 261 260 257
3 263 260 261
3 265 263 261
3 267 263 265
3 270 267 265
3 273 267 270
3 265 274 270
3 272 267 276
3 277 267 273
3 270 278 273
3 278 270 274
3 276 267 277
3 281 272 276
3 277 273 278
3 282 278 274
3 280 272 285
3 276 277 282
3 286 272 281
3 281 276 287
3 282 277 278
3 288 282 274
3 283 288 274
3 285 272 286
3 291 280 285
3 288 276 282
3 286 281 287
3 287 276 288
3 287 288 283
3 290 280 294
3 285 286 295
3 296 280 291
3 291 285 295
3 297 286 287
3 297 287 283
3 292 298 283
3 294 280 301
3 302 290 294
3 295 286 297
3 301 280 296
3 296 291 298
3 298 291 295
3 295 297 283
3 298 295 283
3 303 298 292
3 300 290 304
3 294 301 306
3 307 290 302
3 302 294 308
3 301 296 303
3 303 296 298
3 306 303 292
3 304 308 292
3 290 311 304
3 312 300 304
3 306 301 303
3 308 294 306
3 311 290 307
3 307 302 313
3 313 302 308
3 308 306 292
3 313 308 304
3 311 313 304
3 314 300 312
3 311 307 313
3 315 314 312
3 318 314 315
3 319 318 315
3 322 318 319
3 323 322 319
3 252 254 251
3 250 255 252
3 253 256 250
3 258 251 254
3 254 252 255
3 255 250 256
3 256 253 259
3 251 258 257
3 260 259 253
3 262 257 258
3 260 263 259
3 257 262 261
3 264 259 263
3 266 261 262
3 263 267 264
3 265 261 268
3 266 268 261
3 269 264 267
3 268 271 265
3 267 272 269
3 274 265 271
3 275 269 272
3 271 279 274
3 272 280 275
3 283 274 279
3 284 275 280
3 279 289 283
3 280 290 284
3 292 283 289
3 293 284 290
3 289 299 292
3 290 300 293
3 304 292 299
3 305 293 300
3 299 309 304
3 305 300 310
3 312 304 309
3 314 310 300
3 312 309 315
3 310 314 316
3 317 315 309
3 318 316 314
3 315 317 319
3 316 318 320
3 321 319 317
3 322 320 318
3 319 321 323
3 323 320 322
3 320 323 321
3 250 251 252
3 251 250 253
3 251 253 257
3 257 253 260
3 257 260 261
3 261 260 263
3 261 263 265
3 265 263 267
3 265 267 270
3 270 267 273
3 270 274 265
3 276 267 272
3 273 267 277
3 273 278 270
3 274 270 278
3 277 267 276
3 276 272 281
3 278 273 277
3 274 278 282
3 285 272 280
3 282 277 276
3 281 272 286
3 287 276 281
3 278 277 282
3 274 282 288
3 274 288 283
3 286 272 285
3 285 280 291
3 282 276 288
3 287 281 286
3 288 276 287
3 283 288 287
3 294 280 290
3 295 286 285
3 291 280 296
3 295 285 291
3 287 286 297
3 283 287 297
3 283 298 292
3 301 280 294
3 294 290 302
3 297 286 295
3 296 280 301
3 298 291 296
3 295 291 298
3 283 297 295
3 283 295 298
3 292 298 303
3 304 290 300
3 306 301 294
3 302 290 307
3 308 294 302
3 303 296 301
3 298 296 303
3 292 303 306
3 292 308 304
3 304 311 290
3 304 300 312
3 303 301 306
3 306 294 308
3 307 290 311
3 313 302 307
3 308 302 313
3 292 306 308
3 304 308 313
3 304 313 311
3 312 300 314
3 313 307 311
3 312 314 315
3 315 314 318
3 315 318 319
3 319 318 322
3 319 322 323
3 251 254 252
3 252 255 250
3 250 256 253
3 254 251 258
3 255 252 254
3 256 250 255
3 259 253 256
3 257 258 251
3 253 259 260
3 258 257 262
3 259 263 260
3 261 262 257
3 263 259 264
3 262 261 266
3 264 267 263
3 268 261 265
3 261 268 266
3 267 264 269
3 265 271 268
3 269 272 267
3 271 265 274
3 272 269 275
3 274 279 271
3 275 280 272
3 279 274 283
3 280 275 284
3 283 289 279
3 284 290 280
3 289 283 292
3 290 284 293
3 292 299 289
3 293 300 290
3 299 292 304
3 300 293 305
3 304 309 299
3 310 300 305
3 309 304 312
3 300 310 314
3 315 309 312
3 316 314 310
3 309 315 317
3 314 316 318
3 319 317 315
3 320 318 316
3 317 319 321
3 318 320 322
3 323 321 319
3 322 320 323
3 321 323 320
3 326 324 327
3 328 327 324
3 328 330 327
3 327 333 329
3 330 333 327
3 334 330 328
3 333 337 329
3 330 338 333
3 334 339 330
3 340 334 328
3 335 341 328
3 329 344 336
3 337 345 329
3 333 346 337
3 338 346 333
3 339 338 330
3 347 340 328
3 341 348 328
3 349 341 335
3 344 352 336
3 353 344 329
3 345 354 329
3 337 355 345
3 346 355 337
3 338 356 346
3 339 356 338
3 348 347 328
3 357 349 335
3 350 358 335
3 336 352 351
3 344 353 356
3 354 353 329
3 345 355 354
3 346 356 355
3 362 356 339
3 335 358 357
3 363 358 350
3 359 363 350
3 352 366 351
3 355 356 353
3 353 354 355
3 356 362 368
3 369 362 339
3 357 358 370
3 373 363 359
3 351 366 374
3 376 368 362
3 377 362 369
3 370 358 378
3 372 373 359
3 366 384 374
3 387 362 377
3 358 386 378
3 389 373 372
3 374 384 391
3 386 362 393
3 393 362 387
3 378 386 393
3 388 389 372
3 391 384 395
3 396 395 384
3 327 329 326
3 324 331 328
3 332 326 329
3 335 328 331
3 329 336 332
3 331 342 335
3 343 332 336
3 350 335 342
3 336 351 343
3 350 342 359
3 360 343 351
3 352 344 361
3 364 359 342
3 360 351 365
3 367 361 344
3 352 361 366
3 344 356 367
3 358 363 371
3 359 364 372
3 374 365 351
3 375 366 361
3 368 367 356
3 379 371 363
3 371 380 358
3 381 372 364
3 373 382 363
3 365 374 383
3 366 375 384
3 362 386 376
3 379 363 382
3 386 358 380
3 372 381 388
3 382 373 390
3 391 383 374
3 392 384 375
3 380 376 386
3 394 388 381
3 389 390 373
3 391 395 383
3 384 392 396
3 383 395 397
3 397 396 392
3 396 397 395
3 324 325 326
3 326 325 324
3 327 324 326
3 324 327 328
3 327 330 328
3 329 333 327
3 327 333 330
3 328 330 334
3 329 337 333
3 333 338 330
3 330 339 334
3 328 334 340
3 328 341 335
3 336 344 329
3 329 345 337
3 337 346 333
3 333 346 338
3 330 338 339
3 328 340 347
3 328 348 341
3 335 341 349
3 336 352 344
3 329 344 353
3 329 354 345
3 345 355 337
3 337 355 346
3 346 356 338
3 338 356 339
3 328 347 348
3 335 349 357
3 335 358 350
3 351 352 336
3 356 353 344
3 329 353 354
3 354 355 345
3 355 356 346
3 339 356 362
3 357 358 335
3 350 358 363
3 350 363 359
3 351 366 352
3 353 356 355
3 355 354 353
3 368 362 356
3 339 362 369
3 370 358 357
3 359 363 373
3 374 366 351
3 362 368 376
3 369 362 377
3 378 358 370
3 359 373 372
3 374 384 366
3 376 368 385
3 385 368 376
3 377 362 387
3 378 386 358
3 372 373 389
3 391 384 374
3 393 362 386
3 387 362 393
3 393 386 378
3 372 389 388
3 395 384 391
3 389 394 388
3 388 394 389
3 394 389 390
3 390 389 394
3 384 395 396
3 398 394 390
3 390 394 398
3 326 329 327
3 328 331 324
3 329 326 332
3 331 328 335
3 332 336 329
3 335 342 331
3 336 332 343
3 342 335 350
3 343 351 336
3 359 342 350
3 351 343 360
3 361 344 352
3 342 359 364
3 365 351 360
3 344 361 367
3 366 361 352
3 367 356 344
3 371 363 358
3 372 364 359
3 351 365 374
3 361 366 375
3 356 367 368
3 363 371 379
3 358 380 371
3 364 372 381
3 363 382 373
3 383 374 365
3 384 375 366
3 376 386 362
3 382 363 379
3 380 358 386
3 388 381 372
3 390 373 382
3 374 383 391
3 375 384 392
3 386 376 380
3 381 388 394
3 373 390 389
3 383 395 391
3 396 392 384
3 397 395 383
3 392 396 397
3 395 397 396
3 399 400 401
3 400 399 402
3 401 400 399
3 402 399 400
3 402 399 404
3 404 399 402
3 404 399 407
3 407 399 404
3 404 408 402
3 402 408 404
3 406 407 399
3 399 407 406
3 404 407 410
3 410 407 404
3 411 408 404
3 404 408 411
3 406 414 407
3 407 414 406
3 410 407 415
3 415 407 410
3 411 416 408
3 408 416 411
3 413 414 406
3 406 414 413
3 410 415 418
3 418 415 410
3 420 416 411
3 411 416 420
3 413 423 414
3 414 423 413
3 418 415 425
3 425 415 418
3 420 426 416
3 416 426 420
3 422 423 413
3 413 423 422
3 418 425 429
3 429 425 418
3 432 426 420
3 420 426 432
3 422 434 423
3 423 434 422
3 429 425 437
3 437 425 429
3 432 438 426
3 426 438 432
3 433 434 422
3 422 434 433
3 429 437 442
3 442 437 429
3 446 438 432
3 432 438 446
3 433 448 434
3 434 448 433
3 442 437 453
3 453 437 442
3 446 454 438
3 438 454 446
3 447 448 433
3 433 448 447
3 446 462 454
3 454 462 446
3 463 448 447
3 447 448 463
3 462 446 469
3 469 446 462
3 472 448 463
3 463 448 472
3 469 478 462
3 462 478 469
3 481 463 471
3 471 463 481
3 472 473 448
3 448 473 472
3 463 481 472
3 472 481 463
3 469 488 478
3 478 488 469
3 462 478 479
3 479 478 462
3 481 471 490
3 490 471 481
3 473 472 491
3 491 472 473
3 488 469 487
3 487 469 488
3 479 478 498
3 498 478 479
3 481 490 500
3 500 490 481
3 498 478 510
3 510 478 498
3 500 490 512
3 512 490 500
3 498 510 521
3 521 510 498
3 500 512 523
3 523 512 500
3 521 510 531
3 531 510 521
3 523 512 533
3 533 512 523
3 521 531 542
3 542 531 521
3 523 533 544
3 544 533 523
3 542 531 553
3 553 531 542
3 544 533 555
3 555 533 544
3 542 553 562
3 562 553 542
3 544 555 564
3 564 555 544
3 562 553 573
3 573 553 562
3 564 555 575
3 575 555 564
3 562 573 579
3 579 573 562
3 573 564 575
3 575 564 573
3 570 565 564
3 564 565 570
3 571 566 565
3 565 566 571
3 578 567 566
3 566 567 578
3 567 577 569
3 569 577 567
3 570 564 573
3 573 564 570
3 571 565 570
3 570 565 571
3 578 566 571
3 571 566 578
3 573 575 579
3 579 575 573
3 579 574 580
3 580 574 579
3 579 575 574
3 574 575 579
3 577 567 578
3 578 567 577
3 400 403 401
3 401 403 400
3 403 399 401
3 401 399 403
3 402 405 400
3 400 405 402
3 403 400 405
3 405 400 403
3 399 403 406
3 406 403 399
3 405 402 408
3 408 402 405
3 405 409 403
3 403 409 405
3 409 406 403
3 403 406 409
3 408 412 405
3 405 412 408
3 409 405 412
3 412 405 409
3 406 409 413
3 413 409 406
3 410 411 404
3 404 411 410
3 412 408 416
3 416 408 412
3 412 417 409
3 409 417 412
3 417 413 409
3 409 413 417
3 414 415 407
3 407 415 414
3 411 410 419
3 419 410 411
3 416 421 412
3 412 421 416
3 417 412 421
3 421 412 417
3 413 417 422
3 422 417 413
3 415 414 424
3 424 414 415
3 418 419 410
3 410 419 418
3 419 420 411
3 411 420 419
3 421 416 426
3 426 416 421
3 427 417 421
3 421 417 427
3 428 422 417
3 417 422 428
3 423 424 414
3 414 424 423
3 424 425 415
3 415 425 424
3 419 418 430
3 430 418 419
3 420 419 431
3 431 419 420
3 426 427 421
3 421 427 426
3 417 427 428
3 428 427 417
3 422 428 433
3 433 428 422
3 424 423 435
3 435 423 424
3 425 424 436
3 436 424 425
3 429 430 418
3 418 430 429
3 430 431 419
3 419 431 430
3 431 432 420
3 420 432 431
3 427 426 438
3 438 426 427
3 439 428 427
3 427 428 439
3 440 433 428
3 428 433 440
3 434 435 423
3 423 435 434
3 435 436 424
3 424 436 435
3 441 425 436
3 436 425 441
3 425 441 437
3 437 441 425
3 430 429 443
3 443 429 430
3 431 430 444
3 444 430 431
3 432 431 445
3 445 431 432
3 438 439 427
3 427 439 438
3 428 439 440
3 440 439 428
3 433 440 447
3 447 440 433
3 435 434 449
3 449 434 435
3 436 435 450
3 450 435 436
3 436 451 441
3 441 451 436
3 452 437 441
3 441 437 452
3 442 443 429
3 429 443 442
3 443 444 430
3 430 444 443
3 444 445 431
3 431 445 444
3 445 446 432
3 432 446 445
3 439 438 454
3 454 438 439
3 455 440 439
3 439 440 455
3 456 447 440
3 440 447 456
3 448 449 434
3 434 449 448
3 449 450 435
3 435 450 449
3 451 436 450
3 450 436 451
3 457 441 451
3 451 441 457
3 437 452 453
3 453 452 437
3 441 457 452
3 452 457 441
3 453 458 442
3 442 458 453
3 443 442 458
3 458 442 443
3 444 443 459
3 459 443 444
3 445 444 460
3 460 444 445
3 446 445 461
3 461 445 446
3 454 455 439
3 439 455 454
3 440 455 456
3 456 455 440
3 447 456 463
3 463 456 447
3 449 448 464
3 464 448 449
3 450 449 465
3 465 449 450
3 450 466 451
3 451 466 450
3 451 467 457
3 457 467 451
3 458 453 452
3 452 453 458
3 468 452 457
3 457 452 468
3 458 459 443
3 443 459 458
3 459 460 444
3 444 460 459
3 460 461 445
3 445 461 460
3 461 469 446
3 446 469 461
3 455 454 462
3 462 454 455
3 455 470 456
3 456 470 455
3 456 471 463
3 463 471 456
3 473 464 448
3 448 464 473
3 464 465 449
3 449 465 464
3 466 450 465
3 465 450 466
3 467 451 466
3 466 451 467
3 474 457 467
3 467 457 474
3 452 468 458
3 458 468 452
3 457 474 468
3 468 474 457
3 459 458 468
3 468 458 459
3 460 459 475
3 475 459 460
3 461 460 476
3 476 460 461
3 469 461 477
3 477 461 469
3 479 455 462
3 462 455 479
3 470 455 480
3 480 455 470
3 471 456 470
3 470 456 471
3 464 473 482
3 482 473 464
3 465 464 483
3 483 464 465
3 465 484 466
3 466 484 465
3 466 485 467
3 467 485 466
3 485 474 467
3 467 474 485
3 475 468 474
3 474 468 475
3 468 475 459
3 459 475 468
3 486 460 475
3 475 460 486
3 460 486 476
3 476 486 460
3 476 477 461
3 461 477 476
3 477 487 469
3 469 487 477
3 455 479 480
3 480 479 455
3 480 489 470
3 470 489 480
3 470 490 471
3 471 490 470
3 492 472 481
3 481 472 492
3 491 482 473
3 473 482 491
3 482 483 464
3 464 483 482
3 484 465 483
3 483 465 484
3 485 466 484
3 484 466 485
3 474 485 493
3 493 485 474
3 493 475 474
3 474 475 493
3 475 493 486
3 486 493 475
3 494 476 486
3 486 476 494
3 477 476 495
3 495 476 477
3 487 477 496
3 496 477 487
3 488 497 478
3 478 497 488
3 498 480 479
3 479 480 498
3 489 480 499
3 499 480 489
3 490 470 489
3 489 470 490
3 501 491 472
3 472 491 501
3 472 492 501
3 501 492 472
3 481 502 492
3 492 502 481
3 482 491 503
3 503 491 482
3 483 482 504
3 504 482 483
3 483 505 484
3 484 505 483
3 484 506 485
3 485 506 484
3 506 493 485
3 485 493 506
3 507 486 493
3 493 486 507
3 476 494 495
3 495 494 476
3 486 507 494
3 494 507 486
3 495 496 477
3 477 496 495
3 508 487 496
3 496 487 508
3 487 508 488
3 488 508 487
3 497 488 508
3 508 488 497
3 509 478 497
3 497 478 509
3 480 498 499
3 499 498 480
3 499 511 489
3 489 511 499
3 489 512 490
3 490 512 489
3 502 481 500
3 500 481 502
3 491 501 503
3 503 501 491
3 513 501 492
3 492 501 513
3 514 492 502
3 502 492 514
3 503 504 482
3 482 504 503
3 505 483 504
3 504 483 505
3 506 484 505
3 505 484 506
3 493 506 507
3 507 506 493
3 515 495 494
3 494 495 515
3 516 494 507
3 507 494 516
3 496 495 517
3 517 495 496
3 496 518 508
3 508 518 496
3 508 519 497
3 497 519 508
3 478 509 510
3 510 509 478
3 497 520 509
3 509 520 497
3 521 499 498
3 498 499 521
3 511 499 522
3 522 499 511
3 512 489 511
3 511 489 512
3 500 524 502
3 502 524 500
3 525 503 501
3 501 503 525
3 501 513 525
3 525 513 501
3 492 514 513
3 513 514 492
3 502 526 514
3 514 526 502
3 504 503 527
3 527 503 504
3 527 505 504
3 504 505 527
3 505 528 506
3 506 528 505
3 528 507 506
3 506 507 528
3 495 515 517
3 517 515 495
3 494 516 515
3 515 516 494
3 507 528 516
3 516 528 507
3 518 496 517
3 517 496 518
3 519 508 518
3 518 508 519
3 520 497 519
3 519 497 520
3 529 510 509
3 509 510 529
3 530 509 520
3 520 509 530
3 499 521 522
3 522 521 499
3 522 532 511
3 511 532 522
3 511 533 512
3 512 533 511
3 524 500 523
3 523 500 524
3 526 502 524
3 524 502 526
3 503 525 527
3 527 525 503
3 513 534 525
3 525 534 513
3 514 535 513
3 513 535 514
3 536 514 526
3 526 514 536
3 505 527 537
3 537 527 505
3 528 505 537
3 537 505 528
3 515 518 517
3 517 518 515
3 516 538 515
3 515 538 516
3 539 516 528
3 528 516 539
3 538 519 518
3 518 519 538
3 540 520 519
3 519 520 540
3 510 529 531
3 531 529 510
3 509 530 529
3 529 530 509
3 520 541 530
3 530 541 520
3 542 522 521
3 521 522 542
3 532 522 543
3 543 522 532
3 533 511 532
3 532 511 533
3 523 545 524
3 524 545 523
3 524 546 526
3 526 546 524
3 525 537 527
3 527 537 525
3 534 513 535
3 535 513 534
3 537 525 534
3 534 525 537
3 535 514 547
3 547 514 535
3 514 536 547
3 547 536 514
3 526 548 536
3 536 548 526
3 534 528 537
3 537 528 534
3 518 515 538
3 538 515 518
3 538 516 549
3 549 516 538
3 516 539 549
3 549 539 516
3 528 534 539
3 539 534 528
3 519 538 540
3 540 538 519
3 520 540 550
3 550 540 520
3 551 531 529
3 529 531 551
3 552 529 530
3 530 529 552
3 541 520 550
3 550 520 541
3 541 552 530
3 530 552 541
3 522 542 543
3 543 542 522
3 543 554 532
3 532 554 543
3 532 555 533
3 533 555 532
3 545 523 544
3 544 523 545
3 546 524 545
3 545 524 546
3 548 526 546
3 546 526 548
3 535 539 534
3 534 539 535
3 547 556 535
3 535 556 547
3 557 547 536
3 536 547 557
3 558 536 548
3 548 536 558
3 549 540 538
3 538 540 549
3 556 549 539
3 539 549 556
3 559 550 540
3 540 550 559
3 531 551 553
3 553 551 531
3 529 552 551
3 551 552 529
3 560 541 550
3 550 541 560
3 552 541 561
3 561 541 552
3 562 543 542
3 542 543 562
3 554 543 563
3 563 543 554
3 555 532 554
3 554 532 555
3 544 565 545
3 545 565 544
3 545 566 546
3 546 566 545
3 546 567 548
3 548 567 546
3 539 535 556
3 556 535 539
3 556 547 568
3 568 547 556
3 547 557 568
3 568 557 547
3 536 558 557
3 557 558 536
3 548 569 558
3 558 569 548
3 540 549 559
3 559 549 540
3 549 556 559
3 559 556 549
3 550 559 560
3 560 559 550
3 570 553 551
3 551 553 570
3 571 551 552
3 552 551 571
3 541 560 572
3 572 560 541
3 572 561 541
3 541 561 572
3 561 571 552
3 552 571 561
3 543 562 563
3 563 562 543
3 563 574 554
3 554 574 563
3 554 575 555
3 555 575 554
3 565 544 564
3 564 544 565
3 566 545 565
3 565 545 566
3 567 546 566
3 566 546 567
3 569 548 567
3 567 548 569
3 568 559 556
3 556 559 568
3 572 568 557
3 557 568 572
3 576 557 558
3 558 557 576
3 577 558 569
3 569 558 577
3 559 568 560
3 560 568 559
3 553 570 573
3 573 570 553
3 551 571 570
3 570 571 551
3 568 572 560
3 560 572 568
3 561 572 576
3 576 572 561
3 571 561 578
3 578 561 571
3 579 563 562
3 562 563 579
3 574 563 580
3 580 563 574
3 575 554 574
3 574 554 575
3 557 576 572
3 572 576 557
3 558 577 576
3 576 577 558
3 576 578 561
3 561 578 576
3 563 579 580
3 580 579 563
3 578 576 577
3 577 576 578
