ply
format ascii 1.0
comment Generated by PyMesh
element vertex 351
property double x
property double y
property double z
element face 1492
property list uchar int vertex_indices
end_header
0.118268 0.0459096 -0.108132
0.119048 0.0505768 -0.112134
0.118268 0.0459096 -0.112134
0.119048 0.0505768 -0.108132
0.122028 0.046795 -0.112134
0.117269 0.0412849 -0.112134
0.122028 0.046795 -0.108132
0.119606 0.0552749 -0.112134
0.123152 0.0526225 -0.112134
0.117269 0.0412849 -0.108132
0.123152 0.0526225 -0.108132
0.119606 0.0552749 -0.108132
0.120463 0.0410701 -0.112134
0.116052 0.0367124 -0.108132
0.120463 0.0410701 -0.108132
0.119941 0.0599949 -0.112134
0.123829 0.0585191 -0.112134
0.116052 0.0367124 -0.112134
0.123829 0.0585191 -0.108132
0.119941 0.0599949 -0.108132
0.118468 0.0354805 -0.112134
0.116052 0.0300597 -0.112134
0.116052 0.0927374 -0.108132
0.118468 0.0354805 -0.108132
0.120054 0.0647252 -0.112134
0.124056 0.0644497 -0.112134
0.116052 0.0300597 -0.108132
0.116052 0.0927374 -0.112134
0.116052 0.0988403 -0.108132
0.124056 0.0644497 -0.108132
0.120054 0.0647252 -0.108132
0.116052 0.38017 -0.100045
0.116052 -0.38017 -0.100045
0.116052 0.0988403 -0.112134
0.117269 0.0881649 -0.108132
0.118468 0.0934189 -0.108132
0.119941 0.0694549 -0.108132
0.123829 0.0703809 -0.112134
0.123829 0.0703809 -0.108132
0.116052 -0.38017 -0.184082
0.118468 0.0934189 -0.112134
0.117269 0.0881649 -0.112134
0.119941 0.0694549 -0.112134
0.116052 -0.140063 -0.100045
0.0960428 -0.38017 0.300134
0.118268 0.0835402 -0.112134
0.120463 0.0878299 -0.108132
0.120463 0.0878299 -0.112134
0.119606 0.0741749 -0.112134
0.119606 0.0741749 -0.108132
0.123152 0.0762769 -0.112134
0.116052 0.369199 -0.0884844
0.116052 -0.220098 -0.100045
0.116052 -0.38017 0.100045
-0.124056 -0.38017 -0.184082
0.116052 -0.38017 -0.20009
0.118268 0.0835402 -0.108132
0.123152 0.0762769 -0.108132
0.116052 0.38017 0.100045
0.116052 -0.119019 -0.0884844
0.116052 -0.172129 -0.0335238
0.116052 -0.300135 -0.100045
0.116052 -0.38017 0.20009
0.116052 -0.335524 -0.0292686
-0.124056 -0.38017 0.300134
0.116052 0.38017 -0.20009
0.119048 0.078873 -0.112134
0.122028 0.0821044 -0.112134
0.122028 0.0821044 -0.108132
0.119048 0.078873 -0.108132
0.0960428 0.38017 -0.100045
0.116052 0.369199 0.0875947
0.116052 -0.140063 0.100045
0.120054 -0.119019 -0.0884844
0.116052 -0.176131 -0.0335238
0.116052 -0.254181 -0.034556
0.116052 -0.331523 -0.0292686
0.116052 -0.38017 0.300134
0.116052 0.034861 0.110465
0.116052 -0.335524 -0.0226153
0.0960428 0.38017 0.300134
-0.124056 0.38017 -0.172077
0.116052 -0.38017 -0.300134
0.0960428 0.38017 -0.300134
0.0960428 0.38017 0.100045
0.116052 0.102987 0.091345
0.120054 0.369199 0.0875947
0.116052 -0.119019 0.0875947
0.120054 0.369199 -0.0884844
0.116052 -0.172129 -0.0268704
0.116052 -0.220098 0.100045
0.118468 -0.172129 -0.0281023
0.116052 -0.258183 -0.034556
0.116052 -0.300135 0.100045
0.116052 0.38017 0.300134
0.116052 0.103642 0.110465
0.116052 0.034861 0.114467
0.118468 -0.331523 -0.0238472
0.116052 -0.331523 -0.0226153
0.117269 -0.335524 -0.0180428
-0.124056 0.38017 0.300134
-0.124056 0.38017 -0.300134
0.0960428 -0.38017 -0.300134
0.116052 0.38017 -0.300134
0.116052 0.38017 0.20009
0.116052 0.102987 0.0953465
0.116052 0.0342062 0.091345
0.120054 -0.119019 0.0875947
0.116052 -0.172129 0.0291546
0.117269 -0.172129 -0.0222979
0.116052 -0.176131 -0.0268704
0.118468 -0.176131 -0.0281023
0.118268 -0.172129 -0.0176732
0.116052 -0.254181 -0.0279027
0.118468 -0.254181 -0.0291345
0.116052 0.0975387 0.110465
0.118468 0.0402818 0.110465
0.116052 0.0415137 0.114467
0.118468 -0.335524 -0.0238472
0.118268 -0.331523 -0.0134181
0.117269 -0.331523 -0.0180428
0.118268 -0.335524 -0.0134181
0.116052 -0.335524 0.0334097
-0.124056 -0.38017 -0.300134
0.116052 0.0408595 0.0953465
0.116052 0.0968845 0.091345
0.118468 0.097566 0.091345
0.116052 0.0342062 0.0953465
0.116052 -0.172129 0.0352575
0.116052 -0.176131 0.0291546
0.117269 -0.176131 -0.0222979
0.120463 -0.176131 -0.0225127
0.118268 -0.176131 -0.0176732
0.119048 -0.172129 -0.013006
0.116052 -0.254181 0.0281223
0.117269 -0.254181 -0.0233301
0.116052 -0.258183 -0.0279027
0.118468 -0.258183 -0.0291345
0.118268 -0.254181 -0.0187054
0.116052 -0.331523 0.0334097
0.116052 -0.335524 0.0395127
0.116052 0.103642 0.114467
0.118468 0.0982202 0.110465
0.116052 0.0415137 0.110465
0.118468 0.0402818 0.114467
0.120463 -0.335524 -0.0182576
0.119048 -0.331523 -0.00875149
0.116052 0.0968845 0.0953465
0.118468 0.097566 0.0953465
0.118468 0.039627 0.0953465
0.116052 -0.176131 0.0352575
0.117269 -0.172129 0.024582
0.120463 -0.172129 -0.0225127
0.119941 -0.176131 -0.00358792
0.119048 -0.176131 -0.013006
0.119606 -0.172129 -0.00830789
0.116052 -0.254181 0.0342247
0.116052 -0.258183 0.0281223
0.117269 -0.258183 -0.0233301
0.120463 -0.254181 -0.0235456
0.118268 -0.258183 -0.0187054
0.119048 -0.254181 -0.0140389
0.116052 -0.331523 0.0395127
0.116052 -0.258183 0.0342247
0.116052 0.0975387 0.114467
0.117269 0.0929662 0.110465
0.120463 0.0458714 0.114467
0.120463 0.0458714 0.110465
0.117269 0.0460856 0.110465
0.120463 -0.331523 -0.0182576
0.119941 -0.335524 0.00066722
0.119048 -0.335524 -0.00875149
0.119606 -0.331523 -0.00405276
0.117269 -0.331523 0.0288372
0.117269 -0.335524 0.0288372
0.116052 0.0408595 0.091345
0.117269 0.092312 0.0953465
0.117269 0.092312 0.091345
0.120463 0.0919764 0.091345
0.118468 0.039627 0.091345
0.118468 -0.172129 0.029836
0.118268 -0.172129 0.0199579
0.117269 -0.176131 0.024582
0.119941 -0.172129 -0.00358792
0.122028 -0.172129 -0.0167878
0.120054 -0.176131 0.00114177
0.119606 -0.176131 -0.00830789
0.117269 -0.254181 0.0235498
0.120463 -0.258183 -0.0235456
0.119941 -0.254181 -0.00462075
0.119048 -0.258183 -0.0140389
0.119606 -0.254181 -0.00934012
0.118468 -0.331523 0.0340912
0.118468 0.0982202 0.114467
0.117269 0.0929662 0.114467
0.120463 0.0926312 0.110465
0.117269 0.0460856 0.114467
0.119941 -0.331523 0.00066722
0.122028 -0.331523 -0.0125327
0.120054 -0.335524 0.0053969
0.119606 -0.335524 -0.00405276
0.118268 -0.335524 0.0242125
0.120463 0.0452172 0.0953465
0.117269 0.045432 0.091345
0.120463 0.0919764 0.0953465
0.120463 0.0452172 0.091345
0.118468 -0.176131 0.029836
0.118268 -0.176131 0.0199579
0.120054 -0.172129 0.00114177
0.122028 -0.176131 -0.0167878
0.120463 -0.172129 0.0242471
0.120463 -0.176131 0.0242471
0.118468 -0.254181 0.0288038
0.118268 -0.254181 0.0189251
0.117269 -0.258183 0.0235498
0.122028 -0.254181 -0.0178201
0.119941 -0.258183 -0.00462075
0.120054 -0.254181 0.000110144
0.119606 -0.258183 -0.00934012
0.118268 -0.331523 0.0242125
0.118468 -0.335524 0.0340912
0.118268 0.0883415 0.110465
0.122028 0.0515963 0.114467
0.122028 0.0515963 0.110465
0.118268 0.0507109 0.110465
0.120054 -0.331523 0.0053969
0.122028 -0.335524 -0.0125327
0.120463 -0.331523 0.0285016
0.120463 -0.335524 0.0285016
0.117269 0.045432 0.0953465
0.118268 0.0876873 0.091345
0.122028 0.0862515 0.091345
0.119048 -0.172129 0.0152902
0.119048 -0.176131 0.0152902
0.123152 -0.172129 -0.0109604
0.122028 -0.172129 0.0185216
0.119941 -0.176131 0.00587206
0.118468 -0.258183 0.0288038
0.118268 -0.258183 0.0189251
0.122028 -0.258183 -0.0178201
0.120463 -0.254181 0.0232142
0.120054 -0.258183 0.000110144
0.119048 -0.331523 0.0195453
0.120463 0.0926312 0.114467
0.122028 0.0869057 0.110465
0.118268 0.0883415 0.114467
0.118268 0.0507109 0.114467
0.123152 -0.331523 -0.00670524
0.122028 -0.331523 0.0227767
0.119941 -0.335524 0.0101278
0.119048 -0.335524 0.0195453
0.122028 0.0509421 0.0953465
0.118268 0.0500561 0.0953465
0.122028 0.0509421 0.091345
0.118268 0.0876873 0.0953465
0.122028 0.0862515 0.0953465
0.119941 -0.172129 0.00587206
0.119606 -0.172129 0.010592
0.123152 -0.176131 -0.0109604
0.122028 -0.176131 0.0185216
0.119048 -0.254181 0.0142585
0.123152 -0.254181 -0.011992
0.120463 -0.258183 0.0232142
0.122028 -0.254181 0.0174893
0.119941 -0.258183 0.00483983
0.119941 -0.254181 0.00483983
0.119941 -0.331523 0.0101278
0.119606 -0.331523 0.0148472
0.119048 0.0836749 0.110465
0.119048 0.0836749 0.114467
0.123152 0.0574237 0.114467
0.119048 0.0553775 0.110465
0.119048 0.0553775 0.114467
0.123152 -0.335524 -0.00670524
0.122028 -0.335524 0.0227767
0.119606 -0.335524 0.0148472
0.118268 0.0500561 0.091345
0.119048 0.0830201 0.091345
0.123152 0.0804241 0.091345
0.119606 -0.176131 0.010592
0.123829 -0.172129 -0.00506375
0.123152 -0.172129 0.0126941
0.123152 -0.176131 0.0126941
0.119048 -0.258183 0.0142585
0.119606 -0.254181 0.0095598
0.123152 -0.258183 -0.011992
0.122028 -0.258183 0.0174893
0.122028 0.0869057 0.114467
0.123152 0.0810776 0.110465
0.123152 0.0574237 0.110465
0.123829 -0.331523 -0.000808607
0.123152 -0.331523 0.0169493
0.123152 -0.335524 0.0169493
0.123152 0.0567696 0.0953465
0.119048 0.0547233 0.0953465
0.119048 0.0547233 0.091345
0.119048 0.0830201 0.0953465
0.123152 0.0804241 0.0953465
0.123829 -0.176131 -0.00506375
0.119606 -0.258183 0.0095598
0.123829 -0.254181 -0.00609597
0.123152 -0.254181 0.0116613
0.123152 -0.258183 0.0116613
0.119606 0.0789761 0.110465
0.119606 0.0789761 0.114467
0.123152 0.0810776 0.114467
0.123829 0.0633204 0.114467
0.119606 0.0600762 0.114467
0.119606 0.0600762 0.110465
0.123829 -0.335524 -0.000808607
0.123152 0.0567696 0.091345
0.119606 0.078322 0.0953465
0.119606 0.078322 0.091345
0.123829 0.0745274 0.0953465
0.124056 -0.172129 0.000866869
0.123829 -0.172129 0.00679748
0.123829 -0.258183 -0.00609597
0.123829 0.0751816 0.110465
0.123829 0.0633204 0.110465
0.124056 -0.331523 0.00512201
0.123829 -0.331523 0.0110526
0.123829 0.0626662 0.0953465
0.119606 0.0594221 0.0953465
0.119606 0.0594221 0.091345
0.123829 0.0745274 0.091345
0.124056 -0.176131 0.000866869
0.123829 -0.176131 0.00679748
0.124056 -0.254181 -0.00016536
0.123829 -0.254181 0.00576525
0.123829 0.0751816 0.114467
0.119941 0.0742562 0.110465
0.119941 0.0742562 0.114467
0.124056 0.069251 0.110465
0.119941 0.0647956 0.114467
0.119941 0.0647956 0.110465
0.124056 -0.335524 0.00512201
0.123829 -0.335524 0.0110526
0.123829 0.0626662 0.091345
0.119941 0.073602 0.0953465
0.119941 0.073602 0.091345
0.124056 0.0685968 0.091345
0.124056 -0.258183 -0.00016536
0.123829 -0.258183 0.00576525
0.120054 0.0695265 0.110465
0.124056 0.069251 0.114467
0.119941 0.064142 0.0953465
0.119941 0.064142 0.091345
0.120054 0.0688717 0.091345
0.124056 0.0685968 0.0953465
0.120054 0.0688717 0.0953465
0.120054 0.0695265 0.114467
3 1 2 4
3 0 6 3
3 3 6 0
3 2 5 4
3 8 1 4
3 9 6 0
3 0 6 9
3 3 6 10
3 10 6 3
3 7 1 8
3 4 5 12
3 9 14 6
3 6 14 9
3 3 10 11
3 11 10 3
3 16 7 8
3 5 17 12
3 13 14 9
3 9 14 13
3 11 10 18
3 18 10 11
3 15 7 16
3 12 17 20
3 17 21 13
3 13 22 17
3 13 23 14
3 14 23 13
3 11 18 19
3 19 18 11
3 25 15 16
3 21 20 17
3 26 13 21
3 17 27 21
3 27 17 22
3 28 22 13
3 23 13 26
3 26 13 23
3 19 18 29
3 29 18 19
3 24 15 25
3 26 31 13
3 26 21 32
3 27 33 21
3 22 28 27
3 22 35 28
3 28 35 22
3 13 31 28
3 19 29 30
3 30 29 19
3 37 24 25
3 31 26 32
3 32 21 39
3 33 39 21
3 33 27 40
3 33 27 28
3 34 35 22
3 22 35 34
3 28 31 33
3 30 29 38
3 38 29 30
3 30 38 36
3 36 38 30
3 42 24 37
3 43 31 32
3 32 44 39
3 39 44 32
3 33 31 39
3 27 41 40
3 34 46 35
3 35 46 34
3 36 38 49
3 49 38 36
3 48 42 37
3 43 51 31
3 52 43 32
3 53 44 32
3 32 44 53
3 39 44 54
3 54 44 39
3 39 31 55
3 40 41 47
3 41 45 47
3 56 46 34
3 34 46 56
3 49 38 57
3 57 38 49
3 50 48 37
3 58 31 51
3 51 43 59
3 52 60 43
3 61 52 32
3 62 44 53
3 53 44 62
3 53 63 32
3 54 44 64
3 64 44 54
3 54 55 39
3 39 55 54
3 65 55 31
3 47 45 67
3 56 68 46
3 46 68 56
3 49 57 69
3 69 57 49
3 66 48 50
3 31 58 70
3 71 58 51
3 72 59 43
3 51 73 59
3 59 73 51
3 72 43 60
3 60 52 74
3 61 75 52
3 32 76 61
3 44 62 77
3 77 62 44
3 62 78 53
3 76 32 63
3 79 63 53
3 44 64 80
3 81 54 64
3 64 54 81
3 55 54 82
3 82 54 55
3 55 65 82
3 31 83 65
3 45 66 67
3 69 68 56
3 56 68 69
3 69 57 68
3 68 57 69
3 67 66 50
3 84 70 58
3 70 83 31
3 85 58 71
3 86 51 71
3 71 51 86
3 87 59 72
3 73 51 88
3 88 51 73
3 73 87 59
3 59 87 73
3 89 72 60
3 90 74 52
3 60 74 89
3 90 52 75
3 75 61 92
3 93 61 76
3 77 94 62
3 77 44 94
3 95 53 78
3 96 78 62
3 76 63 98
3 63 99 79
3 79 99 63
3 79 98 63
3 98 79 53
3 100 80 64
3 80 94 44
3 101 54 81
3 81 54 101
3 81 64 100
3 100 64 81
3 82 54 102
3 102 54 82
3 103 82 65
3 103 65 83
3 84 101 70
3 58 104 84
3 83 70 101
3 105 58 85
3 87 85 71
3 51 86 88
3 88 86 51
3 87 86 71
3 71 86 87
3 106 87 72
3 86 73 88
3 88 73 86
3 87 73 107
3 107 73 87
3 108 72 89
3 89 60 109
3 110 74 90
3 60 91 112
3 110 89 74
3 113 90 75
3 93 92 61
3 75 92 113
3 98 93 76
3 104 62 94
3 53 95 93
3 115 95 78
3 96 117 78
3 117 96 62
3 76 97 119
3 98 76 120
3 63 121 99
3 99 121 63
3 122 98 53
3 100 101 80
3 80 84 94
3 54 101 123
3 123 101 54
3 81 101 100
3 102 54 123
3 123 54 102
3 102 82 83
3 103 83 82
3 80 101 84
3 94 84 104
3 104 58 95
3 83 101 102
3 124 58 105
3 85 125 105
3 85 87 106
3 86 87 107
3 107 87 86
3 127 106 72
3 73 86 107
3 107 86 73
3 128 72 108
3 108 89 129
3 109 60 112
3 74 130 110
3 110 130 74
3 89 110 90
3 111 132 74
3 74 132 111
3 112 91 133
3 134 90 113
3 113 75 135
3 136 92 93
3 75 114 138
3 136 113 92
3 139 93 98
3 104 117 62
3 93 95 90
3 93 140 53
3 95 115 141
3 95 115 142
3 143 115 78
3 78 116 143
3 143 78 117
3 144 117 96
3 96 117 144
3 118 121 63
3 63 121 118
3 119 97 146
3 120 76 119
3 139 98 122
3 140 122 53
3 123 102 101
3 72 95 58
3 141 104 95
3 127 58 124
3 105 147 124
3 147 105 125
3 85 125 126
3 125 85 106
3 127 124 106
3 58 127 72
3 150 72 128
3 108 151 128
3 108 129 128
3 129 89 90
3 74 132 130
3 130 132 74
3 131 153 111
3 111 153 131
3 111 154 132
3 132 154 111
3 133 91 155
3 156 90 134
3 134 113 157
3 135 75 138
3 92 158 136
3 136 158 92
3 113 136 93
3 137 160 92
3 92 160 137
3 138 114 161
3 162 93 139
3 117 104 141
3 90 95 72
3 90 163 93
3 140 93 162
3 164 141 115
3 115 165 142
3 115 143 164
3 167 143 116
3 117 164 143
3 117 144 166
3 166 144 117
3 145 170 118
3 118 170 145
3 118 171 121
3 121 171 118
3 146 97 172
3 139 122 162
3 174 140 122
3 122 140 174
3 140 162 122
3 149 124 127
3 127 124 149
3 124 147 175
3 147 148 105
3 105 148 147
3 125 175 147
3 125 177 126
3 175 125 106
3 175 106 124
3 72 150 90
3 150 128 129
3 151 181 128
3 150 129 90
3 91 152 183
3 153 131 185
3 185 131 153
3 111 153 186
3 186 153 111
3 111 186 154
3 154 186 111
3 155 91 183
3 163 90 156
3 134 187 156
3 134 157 156
3 157 113 93
3 92 160 158
3 158 160 92
3 114 159 189
3 137 190 160
3 160 190 137
3 161 114 191
3 139 173 162
3 141 164 117
3 163 157 93
3 164 193 141
3 141 193 164
3 142 165 195
3 168 143 167
3 117 166 196
3 196 166 117
3 97 169 197
3 170 145 199
3 199 145 170
3 118 170 200
3 200 170 118
3 118 200 171
3 171 200 118
3 172 97 197
3 201 140 174
3 174 140 201
3 124 149 202
3 202 149 124
3 176 148 147
3 147 148 176
3 126 177 178
3 106 179 175
3 128 181 180
3 182 150 129
3 129 150 182
3 208 183 152
3 152 184 210
3 131 211 185
3 185 211 131
3 163 156 157
3 187 213 156
3 188 216 137
3 137 216 188
3 217 189 159
3 191 114 189
3 137 218 190
3 190 218 137
3 173 219 162
3 214 163 157
3 157 163 214
3 162 219 192
3 194 193 164
3 164 193 194
3 165 221 195
3 223 168 167
3 196 166 222
3 222 166 196
3 225 197 169
3 169 198 227
3 145 228 199
3 199 228 145
3 201 220 140
3 140 220 201
3 124 202 229
3 229 202 124
3 203 175 205
3 176 204 148
3 148 204 176
3 177 230 178
3 205 175 179
3 207 206 150
3 150 206 207
3 181 232 180
3 207 150 182
3 182 150 207
3 208 152 210
3 209 211 131
3 131 211 209
3 210 184 235
3 185 211 236
3 236 211 185
3 156 213 212
3 159 215 240
3 216 188 241
3 241 188 216
3 137 216 218
3 218 216 137
3 217 159 240
3 238 163 214
3 214 163 238
3 219 242 192
3 194 243 193
3 193 243 194
3 195 221 244
3 224 168 223
3 196 222 246
3 246 222 196
3 225 169 227
3 226 228 145
3 145 228 226
3 227 198 248
3 199 228 249
3 249 228 199
3 250 220 201
3 201 220 250
3 229 202 251
3 251 202 229
3 253 203 205
3 254 204 176
3 176 204 254
3 178 230 231
3 233 206 207
3 207 206 233
3 180 256 210
3 232 257 180
3 256 208 210
3 184 234 235
3 209 259 211
3 211 259 209
3 236 211 206
3 206 211 236
3 238 237 163
3 163 237 238
3 213 260 212
3 239 262 188
3 188 262 239
3 240 215 263
3 188 262 241
3 241 262 188
3 265 217 240
3 192 266 227
3 242 267 192
3 245 243 194
3 194 243 245
3 221 268 244
3 271 224 223
3 246 222 272
3 272 222 246
3 266 225 227
3 198 247 248
3 226 274 228
3 228 274 226
3 249 228 220
3 220 228 249
3 275 220 250
3 250 220 275
3 229 251 252
3 252 251 229
3 276 203 253
3 254 255 204
3 204 255 254
3 230 277 231
3 279 206 233
3 233 206 279
3 257 256 180
3 258 259 209
3 209 259 258
3 235 234 281
3 236 206 279
3 279 206 236
3 283 237 238
3 238 237 283
3 212 265 240
3 260 284 212
3 215 261 263
3 239 286 262
3 262 286 239
3 241 262 264
3 264 262 241
3 267 266 192
3 245 287 243
3 243 287 245
3 244 268 288
3 269 287 245
3 245 287 269
3 272 222 270
3 270 222 272
3 289 271 223
3 273 274 226
3 226 274 273
3 248 247 291
3 249 220 275
3 275 220 249
3 252 251 294
3 294 251 252
3 295 276 253
3 296 255 254
3 254 255 296
3 231 277 278
3 234 280 281
3 258 282 259
3 259 282 258
3 299 237 283
3 283 237 299
3 264 262 237
3 237 262 264
3 284 265 212
3 285 286 239
3 239 286 285
3 263 261 301
3 268 303 288
3 269 305 287
3 287 305 269
3 272 270 307
3 307 270 272
3 308 271 289
3 247 290 291
3 273 292 274
3 274 292 273
3 294 251 293
3 293 251 294
3 310 295 253
3 296 297 255
3 255 297 296
3 277 312 278
3 298 282 258
3 258 282 298
3 281 280 315
3 264 237 299
3 299 237 264
3 261 300 301
3 285 302 286
3 286 302 285
3 288 303 317
3 304 305 269
3 269 305 304
3 307 270 306
3 306 270 307
3 318 308 289
3 309 292 273
3 273 292 309
3 291 290 320
3 294 293 322
3 322 293 294
3 323 295 310
3 311 297 296
3 296 297 311
3 278 312 324
3 311 313 297
3 297 313 311
3 314 315 280
3 298 326 282
3 282 326 298
3 316 302 285
3 285 302 316
3 301 300 328
3 303 330 317
3 304 329 305
3 305 329 304
3 307 306 333
3 333 306 307
3 334 308 318
3 319 320 290
3 309 336 292
3 292 336 309
3 322 293 321
3 321 293 322
3 337 323 310
3 312 339 324
3 338 313 311
3 311 313 338
3 326 298 325
3 325 298 326
3 327 328 300
3 316 342 302
3 302 342 316
3 330 343 317
3 331 329 304
3 304 329 331
3 332 334 318
3 333 306 344
3 344 306 333
3 336 309 335
3 335 309 336
3 322 321 345
3 345 321 322
3 346 323 337
3 339 347 324
3 324 347 340
3 349 313 338
3 338 313 349
3 342 316 341
3 341 316 342
3 317 343 332
3 350 329 331
3 331 329 350
3 343 334 332
3 333 344 350
3 350 344 333
3 340 346 337
3 345 321 348
3 348 321 345
3 349 348 313
3 313 348 349
3 347 346 340
3 350 344 329
3 329 344 350
3 345 348 349
3 349 348 345
3 0 1 2
3 1 0 3
3 2 1 0
3 3 0 1
3 5 0 2
3 2 0 5
3 3 7 1
3 1 7 3
3 0 5 9
3 9 5 0
3 7 3 11
3 11 3 7
3 8 4 10
3 5 13 9
3 9 13 5
3 6 10 4
3 11 15 7
3 7 15 11
3 4 12 6
3 10 18 8
3 13 5 17
3 17 5 13
3 14 6 12
3 15 11 19
3 19 11 15
3 16 8 18
3 14 12 23
3 19 24 15
3 15 24 19
3 16 18 25
3 20 23 12
3 24 19 30
3 30 19 24
3 29 25 18
3 20 21 23
3 26 23 21
3 27 34 22
3 22 34 27
3 36 24 30
3 30 24 36
3 29 38 25
3 34 27 41
3 41 27 34
3 35 28 40
3 24 36 42
3 42 36 24
3 37 25 38
3 33 40 28
3 45 34 41
3 41 34 45
3 40 47 35
3 36 48 42
3 42 48 36
3 37 38 50
3 34 45 56
3 56 45 34
3 46 35 47
3 48 36 49
3 49 36 48
3 57 50 38
3 66 56 45
3 45 56 66
3 47 67 46
3 49 66 48
3 48 66 49
3 57 68 50
3 56 66 69
3 69 66 56
3 68 46 67
3 66 49 69
3 69 49 66
3 67 50 68
3 60 74 91
3 76 63 97
3 111 91 74
3 75 92 114
3 78 96 116
3 118 97 63
3 99 98 79
3 79 98 99
3 85 126 105
3 89 130 109
3 109 130 89
3 111 131 91
3 130 89 110
3 110 89 130
3 137 114 92
3 144 116 96
3 118 145 97
3 98 99 120
3 120 99 98
3 121 120 99
3 99 120 121
3 148 105 126
3 127 149 106
3 151 129 108
3 108 129 151
3 109 132 112
3 112 132 109
3 132 109 130
3 130 109 132
3 152 91 131
3 112 154 133
3 133 154 112
3 113 158 135
3 135 158 113
3 114 137 159
3 158 113 136
3 136 113 158
3 95 142 141
3 144 166 116
3 117 168 143
3 143 168 117
3 169 97 145
3 119 171 146
3 146 171 119
3 120 121 119
3 119 121 120
3 173 122 139
3 139 122 173
3 125 176 147
3 147 176 125
3 126 178 148
3 179 106 149
3 128 180 150
3 129 151 182
3 182 151 129
3 154 112 132
3 132 112 154
3 152 131 184
3 133 186 155
3 155 186 133
3 186 133 154
3 154 133 186
3 187 157 134
3 134 157 187
3 135 160 138
3 138 160 135
3 160 135 158
3 158 135 160
3 188 159 137
3 138 190 161
3 161 190 138
3 162 192 140
3 115 194 164
3 164 194 115
3 193 141 142
3 194 115 165
3 165 115 194
3 167 116 166
3 168 117 196
3 196 117 168
3 169 145 198
3 171 119 121
3 121 119 171
3 146 200 172
3 172 200 146
3 200 146 171
3 171 146 200
3 122 173 174
3 174 173 122
3 124 203 175
3 175 203 124
3 176 125 177
3 177 125 176
3 204 148 178
3 179 149 205
3 206 150 180
3 207 151 181
3 181 151 207
3 151 207 182
3 182 207 151
3 209 184 131
3 208 153 185
3 185 153 208
3 153 155 186
3 186 155 153
3 155 153 183
3 183 153 155
3 156 212 163
3 157 187 214
3 214 187 157
3 190 138 160
3 160 138 190
3 159 188 215
3 161 218 191
3 191 218 161
3 218 161 190
3 190 161 218
3 220 140 192
3 142 195 193
3 221 194 165
3 165 194 221
3 166 222 167
3 196 224 168
3 168 224 196
3 226 198 145
3 225 170 199
3 199 170 225
3 170 172 200
3 200 172 170
3 172 170 197
3 197 170 172
3 173 201 174
3 174 201 173
3 202 205 149
3 203 124 229
3 229 124 203
3 230 176 177
3 177 176 230
3 178 231 204
3 180 210 206
3 181 233 207
3 207 233 181
3 153 208 183
3 183 208 153
3 184 209 234
3 236 208 185
3 185 208 236
3 237 163 212
3 238 187 213
3 213 187 238
3 187 238 214
3 214 238 187
3 239 215 188
3 189 241 217
3 217 241 189
3 191 216 189
3 189 216 191
3 216 191 218
3 218 191 216
3 201 173 219
3 219 173 201
3 192 227 220
3 243 193 195
3 194 221 245
3 245 221 194
3 223 167 222
3 224 196 246
3 246 196 224
3 170 225 197
3 197 225 170
3 198 226 247
3 249 225 199
3 199 225 249
3 202 251 205
3 252 203 229
3 229 203 252
3 176 230 254
3 254 230 176
3 255 204 231
3 211 206 210
3 233 181 232
3 232 181 233
3 258 234 209
3 235 259 210
3 208 236 256
3 256 236 208
3 212 240 237
3 260 238 213
3 213 238 260
3 215 239 261
3 241 189 216
3 216 189 241
3 264 217 241
3 241 217 264
3 219 250 201
3 201 250 219
3 228 220 227
3 250 219 242
3 242 219 250
3 195 244 243
3 221 269 245
3 245 269 221
3 222 270 223
3 246 271 224
3 224 271 246
3 273 247 226
3 248 274 227
3 225 249 266
3 266 249 225
3 253 205 251
3 203 252 276
3 276 252 203
3 277 254 230
3 230 254 277
3 231 278 255
3 211 210 259
3 257 233 232
3 232 233 257
3 234 258 280
3 259 235 282
3 236 257 256
3 256 257 236
3 262 237 240
3 238 260 283
3 283 260 238
3 285 261 239
3 263 286 240
3 217 264 265
3 265 264 217
3 228 227 274
3 267 250 242
3 242 250 267
3 287 243 244
3 269 221 268
3 268 221 269
3 289 223 270
3 271 246 272
3 272 246 271
3 247 273 290
3 274 248 292
3 249 267 266
3 266 267 249
3 250 267 275
3 275 267 250
3 251 293 253
3 252 295 276
3 276 295 252
3 254 277 296
3 296 277 254
3 297 255 278
3 233 257 279
3 279 257 233
3 298 280 258
3 281 282 235
3 257 236 279
3 279 236 257
3 262 240 286
3 284 283 260
3 260 283 284
3 261 285 300
3 286 263 302
3 264 284 265
3 265 284 264
3 244 288 287
3 268 304 269
3 269 304 268
3 270 306 289
3 272 308 271
3 271 308 272
3 309 290 273
3 291 292 248
3 267 249 275
3 275 249 267
3 310 253 293
3 295 252 294
3 294 252 295
3 277 311 296
3 296 311 277
3 297 278 313
3 280 298 314
3 281 315 282
3 283 284 299
3 299 284 283
3 316 300 285
3 301 302 263
3 284 264 299
3 299 264 284
3 305 287 288
3 304 268 303
3 303 268 304
3 318 289 306
3 308 272 307
3 307 272 308
3 290 309 319
3 291 320 292
3 293 321 310
3 294 323 295
3 295 323 294
3 311 277 312
3 312 277 311
3 324 313 278
3 325 314 298
3 326 282 315
3 300 316 327
3 301 328 302
3 305 288 329
3 317 329 288
3 303 331 304
3 304 331 303
3 318 306 332
3 307 334 308
3 308 334 307
3 335 319 309
3 336 292 320
3 337 310 321
3 323 294 322
3 322 294 323
3 312 338 311
3 311 338 312
3 324 340 313
3 314 325 315
3 326 315 325
3 341 327 316
3 342 302 328
3 331 303 330
3 330 303 331
3 317 332 329
3 344 332 306
3 334 307 333
3 333 307 334
3 319 335 320
3 336 320 335
3 337 321 340
3 322 346 323
3 323 346 322
3 338 312 339
3 339 312 338
3 348 313 340
3 327 341 328
3 342 328 341
3 343 331 330
3 330 331 343
3 344 329 332
3 350 334 333
3 333 334 350
3 348 340 321
3 346 322 345
3 345 322 346
3 347 338 339
3 339 338 347
3 338 347 349
3 349 347 338
3 331 343 350
3 350 343 331
3 334 350 343
3 343 350 334
3 345 347 346
3 346 347 345
3 347 345 349
3 349 345 347
3 4 2 1
3 4 5 2
3 4 1 8
3 8 1 7
3 12 5 4
3 8 7 16
3 12 17 5
3 16 7 15
3 20 17 12
3 16 15 25
3 17 20 21
3 25 15 24
3 25 24 37
3 40 27 33
3 37 24 42
3 40 41 27
3 37 42 48
3 47 41 40
3 47 45 41
3 37 48 50
3 67 45 47
3 50 48 66
3 67 66 45
3 50 66 67
3 109 60 89
3 112 91 60
3 119 97 76
3 120 76 98
3 112 60 109
3 133 91 112
3 135 75 113
3 138 114 75
3 142 115 95
3 143 116 78
3 146 97 119
3 119 76 120
3 126 125 85
3 128 151 108
3 155 91 133
3 138 75 135
3 161 114 138
3 142 165 115
3 116 143 167
3 172 97 146
3 126 177 125
3 128 181 151
3 183 152 91
3 183 91 155
3 156 187 134
3 189 159 114
3 191 114 161
3 162 173 139
3 195 165 142
3 167 143 168
3 197 169 97
3 197 97 172
3 178 177 126
3 175 179 106
3 180 181 128
3 152 183 208
3 210 184 152
3 156 213 187
3 159 189 217
3 189 114 191
3 162 219 173
3 192 219 162
3 195 221 165
3 167 168 223
3 169 197 225
3 227 198 169
3 205 175 203
3 178 230 177
3 179 175 205
3 180 232 181
3 210 152 208
3 235 184 210
3 212 213 156
3 240 215 159
3 240 159 217
3 192 242 219
3 244 221 195
3 223 168 224
3 227 169 225
3 248 198 227
3 205 203 253
3 231 230 178
3 210 256 180
3 180 257 232
3 210 208 256
3 235 234 184
3 212 260 213
3 263 215 240
3 240 217 265
3 227 266 192
3 192 267 242
3 244 268 221
3 223 224 271
3 227 225 266
3 248 247 198
3 253 203 276
3 231 277 230
3 180 256 257
3 281 234 235
3 240 265 212
3 212 284 260
3 263 261 215
3 192 266 267
3 288 268 244
3 223 271 289
3 291 247 248
3 253 276 295
3 278 277 231
3 281 280 234
3 212 265 284
3 301 261 263
3 288 303 268
3 289 271 308
3 291 290 247
3 253 295 310
3 278 312 277
3 315 280 281
3 301 300 261
3 317 303 288
3 289 308 318
3 320 290 291
3 310 295 323
3 324 312 278
3 280 315 314
3 328 300 301
3 317 330 303
3 318 308 334
3 290 320 319
3 310 323 337
3 324 339 312
3 300 328 327
3 317 343 330
3 318 334 332
3 337 323 346
3 324 347 339
3 340 347 324
3 332 343 317
3 332 334 343
3 337 346 340
3 340 346 347
3 10 4 8
3 4 10 6
3 6 12 4
3 8 18 10
3 12 6 14
3 18 8 16
3 23 12 14
3 25 18 16
3 12 23 20
3 18 25 29
3 23 21 20
3 21 23 26
3 25 38 29
3 40 28 35
3 38 25 37
3 28 40 33
3 35 47 40
3 50 38 37
3 47 35 46
3 38 50 57
3 46 67 47
3 50 68 57
3 67 46 68
3 68 50 67
3 91 74 60
3 97 63 76
3 74 91 111
3 114 92 75
3 116 96 78
3 63 97 118
3 105 126 85
3 91 131 111
3 92 114 137
3 96 116 144
3 97 145 118
3 126 105 148
3 106 149 127
3 131 91 152
3 159 137 114
3 141 142 95
3 116 166 144
3 145 97 169
3 148 178 126
3 149 106 179
3 150 180 128
3 184 131 152
3 137 159 188
3 140 192 162
3 142 141 193
3 166 116 167
3 198 145 169
3 178 148 204
3 205 149 179
3 180 150 206
3 131 184 209
3 163 212 156
3 215 188 159
3 192 140 220
3 193 195 142
3 167 222 166
3 145 198 226
3 149 205 202
3 204 231 178
3 206 210 180
3 234 209 184
3 212 163 237
3 188 215 239
3 220 227 192
3 195 193 243
3 222 167 223
3 247 226 198
3 205 251 202
3 231 204 255
3 210 206 211
3 209 234 258
3 210 259 235
3 237 240 212
3 261 239 215
3 227 220 228
3 243 244 195
3 223 270 222
3 226 247 273
3 227 274 248
3 251 205 253
3 255 278 231
3 259 210 211
3 280 258 234
3 282 235 259
3 240 237 262
3 239 261 285
3 240 286 263
3 274 227 228
3 244 243 287
3 270 223 289
3 290 273 247
3 292 248 274
3 253 293 251
3 278 255 297
3 258 280 298
3 235 282 281
3 286 240 262
3 300 285 261
3 302 263 286
3 287 288 244
3 289 306 270
3 273 290 309
3 248 292 291
3 293 253 310
3 313 278 297
3 314 298 280
3 282 315 281
3 285 300 316
3 263 302 301
3 288 287 305
3 306 289 318
3 319 309 290
3 292 320 291
3 310 321 293
3 278 313 324
3 298 314 325
3 315 282 326
3 327 316 300
3 302 328 301
3 329 288 305
3 288 329 317
3 332 306 318
3 309 319 335
3 320 292 336
3 321 310 337
3 313 340 324
3 315 325 314
3 325 315 326
3 316 327 341
3 328 302 342
3 329 332 317
3 306 332 344
3 320 335 319
3 335 320 336
3 340 321 337
3 340 313 348
3 328 341 327
3 341 328 342
3 332 329 344
3 321 340 348
3 13 21 17
3 17 22 13
3 21 13 26
3 21 27 17
3 22 17 27
3 13 22 28
3 13 31 26
3 32 21 26
3 21 33 27
3 27 28 22
3 28 31 13
3 32 26 31
3 39 21 32
3 21 39 33
3 28 27 33
3 33 31 28
3 32 31 43
3 39 31 33
3 31 51 43
3 32 43 52
3 55 31 39
3 51 31 58
3 59 43 51
3 43 60 52
3 32 52 61
3 32 63 53
3 31 55 65
3 70 58 31
3 51 58 71
3 43 59 72
3 60 43 72
3 74 52 60
3 52 75 61
3 61 76 32
3 53 78 62
3 63 32 76
3 53 63 79
3 80 64 44
3 82 65 55
3 65 83 31
3 58 70 84
3 31 83 70
3 71 58 85
3 72 59 87
3 60 72 89
3 52 74 90
3 89 74 60
3 75 52 90
3 92 61 75
3 76 61 93
3 62 94 77
3 94 44 77
3 78 53 95
3 62 78 96
3 98 63 76
3 63 98 79
3 53 79 98
3 64 80 100
3 44 94 80
3 65 82 103
3 83 65 103
3 70 101 84
3 84 104 58
3 101 70 83
3 85 58 105
3 71 85 87
3 72 87 106
3 89 72 108
3 90 74 110
3 74 89 110
3 75 90 113
3 61 92 93
3 113 92 75
3 76 93 98
3 94 62 104
3 93 95 53
3 78 95 115
3 78 117 96
3 62 96 117
3 53 98 122
3 80 101 100
3 94 84 80
3 100 101 81
3 83 82 102
3 82 83 103
3 84 101 80
3 104 84 94
3 95 58 104
3 102 101 83
3 105 58 124
3 105 125 85
3 106 87 85
3 72 106 127
3 108 72 128
3 129 89 108
3 90 110 89
3 113 90 134
3 93 92 136
3 92 113 136
3 98 93 139
3 62 117 104
3 90 95 93
3 53 140 93
3 141 115 95
3 78 115 143
3 117 78 143
3 122 98 139
3 53 122 140
3 101 102 123
3 58 95 72
3 95 104 141
3 124 58 127
3 124 147 105
3 125 105 147
3 106 85 125
3 106 124 127
3 72 127 58
3 128 72 150
3 128 129 108
3 90 89 129
3 134 90 156
3 157 113 134
3 93 136 113
3 139 93 162
3 141 104 117
3 72 95 90
3 93 163 90
3 162 93 140
3 115 141 164
3 164 143 115
3 143 164 117
3 162 122 139
3 122 162 140
3 175 147 124
3 147 175 125
3 106 125 175
3 124 106 175
3 90 150 72
3 129 128 150
3 90 129 150
3 156 90 163
3 156 157 134
3 93 113 157
3 117 164 141
3 93 157 163
3 157 156 163
