ply
format ascii 1.0
comment Generated by PyMesh
element vertex 389
property double x
property double y
property double z
element face 1538
property list uchar int vertex_indices
end_header
0.0553452 -0.251005 -0.205357
0.0553452 -0.251005 8.1467e-09
0.0553452 -0.251005 -0.410713
0.0559602 -0.250878 -0.000127376
0.0553452 -0.251005 0.410713
0.0559362 -0.250966 -0.205396
0.0559602 -0.250878 -0.20523
0.0553452 0.255787 8.1467e-09
0.0553452 -0.277512 0.410713
0.0553452 -0.251005 0.205356
0.0559362 -0.250966 -0.410675
0.0553452 0.255787 -0.205357
0.0565556 -0.250679 -0.000326927
0.0559602 0.255659 -0.000127376
0.0559416 -0.250948 5.6866e-05
0.0553452 -0.277512 -0.410713
0.0550948 0.255787 0.410713
0.0559416 -0.250948 0.205299
0.0559673 -0.250849 0.410556
0.0559362 0.255748 -0.410675
0.0565168 -0.250851 -0.205511
0.0559362 0.255748 -0.205396
0.0559602 0.255659 -0.20523
0.0565556 -0.250679 -0.20503
0.0553452 0.255787 -0.200124
0.0559416 0.255729 5.6866e-05
-0.0655879 -0.277512 -0.410713
0.0553452 0.255787 0.410713
-0.0655879 -0.277512 0.410713
0.0559416 0.255729 0.205299
0.0559673 -0.250849 0.205513
0.0553452 0.255787 -0.410713
0.0565168 0.255633 -0.410559
0.0565168 -0.250851 -0.410559
0.0553452 0.255787 -0.406188
0.0559602 0.255787 -0.20523
0.0571236 -0.25041 -0.000595365
0.0565556 0.25546 -0.000326927
0.0559602 0.255659 -0.200124
0.0550948 0.255787 8.1467e-09
0.0565255 -0.250815 0.000190266
0.0559416 0.255729 0.00467115
0.0565255 -0.250815 0.205166
0.0550948 0.255787 -0.410713
0.0553452 0.255787 0.210829
-0.0655879 0.277512 0.410713
0.0553452 0.255787 0.205356
0.0565255 0.255597 0.205166
0.0559673 0.25563 0.205513
0.0565671 -0.250622 0.41033
0.0559673 0.25563 0.410556
0.0559362 0.255748 -0.406188
0.0570772 -0.250661 -0.205701
0.0565168 0.255633 -0.205511
0.0550948 0.255787 -0.205357
0.0565556 0.25546 -0.20503
0.0565556 0.255787 -0.20503
0.0571236 -0.25041 -0.204762
0.0553452 0.255787 0.00467115
0.0565255 0.255597 0.000190266
0.0565255 0.255597 0.00467115
0.0550948 0.277512 -0.410713
0.0550948 0.255787 0.205356
0.0550948 0.277512 0.410713
0.0565671 0.255404 0.20574
0.0565671 -0.250622 0.20574
0.0570772 0.255442 -0.410369
0.0565168 0.255633 -0.406188
0.0570772 -0.250661 -0.410369
0.0576556 -0.250076 -0.000928863
0.0571236 0.255192 -0.000595365
0.0565556 0.25546 -0.200124
0.0570881 -0.250608 0.000396924
0.0559416 0.255787 5.6866e-05
0.0570881 -0.250608 0.20496
0.0570881 0.25539 0.20496
-0.0655879 0.277512 -0.410713
0.0559673 0.25563 0.210829
0.0571368 -0.250327 0.410035
0.0565671 0.255404 0.41033
0.057608 -0.250399 -0.205963
0.0570772 0.255442 -0.205701
0.0571236 0.255192 -0.204762
0.0571236 0.255787 -0.204762
0.0576556 -0.250076 -0.204428
0.0570881 0.25539 0.000396924
0.0565255 0.255787 0.000190266
0.0570881 0.25539 0.00467115
0.0571368 0.255109 0.206034
0.0565671 0.255404 0.210829
0.0571368 -0.250327 0.206034
0.057608 0.255181 -0.410108
0.0570772 0.255442 -0.406188
0.057608 -0.250399 -0.410108
0.0581443 -0.249682 -0.00132359
0.0576556 0.254858 -0.000928863
0.0571236 0.255192 -0.200124
0.057619 -0.250331 0.000674109
0.057619 -0.250331 0.204682
0.057619 0.255113 0.204682
0.0576687 -0.24997 0.409678
0.0571368 0.255109 0.410035
0.0581001 -0.25007 -0.206292
0.057608 0.255181 -0.205963
0.0576556 0.254858 -0.204428
0.0576556 0.255787 -0.204428
0.0581443 -0.249682 -0.204033
0.057619 0.255113 0.000674109
0.0570881 0.255787 0.000396924
0.057619 0.255113 0.00467115
0.0576687 0.254751 0.206392
0.0571368 0.255109 0.210829
0.0576687 -0.24997 0.206392
0.0581001 0.254851 -0.409778
0.057608 0.255181 -0.406188
0.0581001 -0.25007 -0.409778
0.0585823 -0.249232 -0.00177354
0.0581443 0.254463 -0.00132359
0.0576556 0.254858 -0.200124
0.0581105 -0.249988 0.00101635
0.0581105 -0.249988 0.20434
0.0581105 0.25477 0.20434
0.0581564 -0.249553 0.409261
0.0576687 0.254751 0.409678
0.0585451 -0.249679 -0.206682
0.0581001 0.254851 -0.206292
0.0581443 0.254463 -0.204033
0.0581443 0.255787 -0.204033
0.0585823 -0.249232 -0.203583
0.0581105 0.25477 0.00101635
0.057619 0.255787 0.000674109
0.0581105 0.25477 0.00467115
0.0581564 0.254335 0.206808
0.0576687 0.254751 0.210829
0.0581564 -0.249553 0.206808
0.0585451 0.254461 -0.409388
0.0581001 0.254851 -0.406188
0.0585451 -0.249679 -0.409388
0.0589644 -0.248733 -0.00227214
0.0585823 0.254013 -0.00177354
0.0581443 0.254463 -0.200124
0.0585538 -0.249586 0.00141928
0.0585538 -0.249586 0.203937
0.0585538 0.254368 0.203937
0.0585927 -0.249084 0.408792
0.0581564 0.254335 0.409261
0.0589354 -0.249234 -0.408943
0.0585451 0.254461 -0.206682
0.0585823 0.254013 -0.203583
0.0589644 -0.248733 -0.203085
0.0585538 0.254368 0.00141928
0.0581105 0.255787 0.00101635
0.0585538 0.254368 0.00467115
0.0585927 -0.249084 0.207278
0.0581564 0.254335 0.210829
0.0585451 0.254461 -0.406188
0.0589354 -0.249234 -0.207127
0.0585823 0.254013 -0.200124
0.0592843 -0.248193 -0.0028123
0.0589644 0.253515 -0.00227214
0.0589426 -0.249129 0.00187525
0.0589426 -0.249129 0.203481
0.0585927 0.253865 0.207278
0.0589726 -0.248566 0.408274
0.0585927 0.253865 0.408792
0.0589354 0.254016 -0.408943
0.0592646 -0.248742 -0.408451
0.0589354 0.254016 -0.207127
0.0589644 0.253515 -0.203085
0.0592843 -0.248193 -0.202545
0.0589426 0.253911 0.00187525
0.0585538 0.255787 0.00141928
0.0589426 0.253911 0.203481
0.0585927 0.253865 0.210829
0.0589726 -0.248566 0.207795
0.0589354 0.254016 -0.406188
0.0592646 -0.248742 -0.20762
0.0589644 0.253515 -0.200124
0.0595379 -0.247618 -0.0033869
0.0592843 0.252975 -0.0028123
0.0592695 -0.248628 0.00237713
0.0589426 0.255787 0.00187525
0.0592695 -0.248628 0.202979
0.0589726 0.253348 0.207795
0.0592897 -0.248009 0.407717
0.0589726 0.253348 0.408274
0.0592646 0.253524 -0.408451
0.0595264 -0.248212 -0.40792
0.0592646 0.253524 -0.20762
0.0592843 0.252975 -0.202545
0.0595379 -0.247618 -0.20197
0.0592695 0.253409 0.00237713
0.0589426 0.253911 0.00467115
0.0592695 0.253409 0.202979
0.0589726 0.253348 0.210829
0.0592897 -0.248009 0.208352
0.0592646 0.253524 -0.406188
0.0595264 -0.248212 -0.208151
0.0592843 0.252975 -0.200124
0.0597222 -0.247018 -0.00398774
0.0595379 0.2524 -0.0033869
0.0595292 -0.248088 0.00291674
0.0595292 -0.248088 0.20244
0.0592897 0.252791 0.208352
0.0595418 -0.247419 0.407127
0.0592897 0.252791 0.407717
0.0595264 0.252993 -0.40792
0.0597167 -0.247651 -0.407359
0.0595264 0.252993 -0.208151
0.0595379 0.2524 -0.20197
0.0597222 -0.247018 -0.20137
0.0595292 0.25287 0.00291674
0.0592695 0.253409 0.00467115
0.0595292 0.25287 0.20244
0.0592897 0.252791 0.210829
0.0595418 -0.247419 0.208942
0.0595264 0.252993 -0.406188
0.0597167 -0.247651 -0.208711
0.0595379 0.2524 -0.200124
0.0598337 -0.2464 -0.00460553
0.0597222 0.251799 -0.00398774
0.0597178 -0.247519 0.00348532
0.0597178 -0.247519 0.201871
0.0595418 0.252201 0.208942
0.0597238 -0.246805 0.406512
0.0595418 0.252201 0.407127
0.0597167 0.252433 -0.407359
0.0598321 -0.247071 -0.406779
0.0597167 0.252433 -0.208711
0.0597222 0.251799 -0.20137
0.0598337 -0.2464 -0.200751
0.0597178 0.252301 0.00348532
0.0595292 0.25287 0.00467115
0.0597178 0.252301 0.201871
0.0595418 0.252201 0.210829
0.0597238 -0.246805 0.209557
0.0597167 0.252433 -0.406188
0.0598321 -0.247071 -0.209292
0.0597222 0.255787 -0.20137
0.0597222 0.251799 -0.200124
0.0598709 -0.245773 -0.00523261
0.0598337 0.251181 -0.00460553
0.0598326 -0.246932 0.00407359
0.0598326 -0.246932 0.201283
0.0597238 0.251586 0.209557
0.0598337 -0.246173 0.405881
0.0597238 0.251586 0.406512
0.0598321 0.251852 -0.406779
0.0598709 -0.24648 -0.406188
0.0598321 0.251852 -0.209292
0.0598337 0.251181 -0.200751
0.0595379 0.255787 -0.20197
0.0598709 -0.245773 -0.200124
0.0598326 0.251713 0.00407359
0.0597178 0.252301 0.00467115
0.0598326 0.251713 0.201283
0.0597238 0.251586 0.210829
0.0598337 -0.246173 0.210189
0.0598321 0.251852 -0.406188
0.0598709 -0.24648 -0.209883
0.0598337 0.251181 -0.200124
0.0598709 -0.235533 -0.0154726
0.0598709 0.250554 -0.00523261
0.0598709 -0.246334 0.00467115
0.0598709 -0.246334 0.200685
0.0598337 0.250954 0.210189
0.0598709 -0.245533 0.405241
0.0598337 0.250954 0.405881
0.0598709 0.251261 -0.406188
0.0598709 -0.233924 -0.393633
0.0598709 0.251261 -0.209883
0.0598709 0.250554 -0.200124
0.0598709 -0.235533 -0.189885
0.0598709 0.251115 0.00467115
0.0598326 0.251713 0.00467115
0.0598709 0.251115 0.200685
0.0598337 0.250954 0.210829
0.0598709 -0.245533 0.210829
0.0598709 -0.233924 -0.222437
0.0598709 -0.0838507 -0.214957
0.0598709 -0.0837779 -0.196745
0.0598709 -0.106206 -0.0154726
0.0546361 -0.235533 -0.0154726
0.0598709 -0.237526 0.0134793
0.0598709 -0.0826976 0.198264
0.0598709 0.250314 0.210829
0.0598709 -0.23894 0.398648
0.0598709 0.250314 0.405241
0.0598709 0.239066 -0.222437
0.0598709 -0.106206 -0.393633
0.0546361 -0.233924 -0.222437
0.0598709 -0.0602353 -0.214957
0.0598709 -0.0601626 -0.196745
0.0598709 0.239066 -0.0154726
0.0598709 -0.0853317 -0.0154726
0.0598709 -0.106206 -0.189885
0.0546361 -0.235533 -0.189885
0.0598709 -0.106206 0.0134793
0.0598709 0.239066 0.191877
0.0598709 -0.237526 0.191877
0.0598709 -0.0590822 0.198264
0.0598709 -0.0826359 0.212768
0.0598709 -0.23894 0.217422
0.0598709 0.239066 -0.393633
0.0598709 -0.0853317 -0.393633
0.0546361 -0.106206 -0.393633
0.0598709 -0.106206 -0.222437
0.0546361 -0.233924 -0.393633
0.0655879 -0.0838507 -0.214957
0.0598709 -0.0601626 -0.194043
0.0655879 -0.0601626 -0.196745
0.0598709 0.239066 -0.189885
0.0546361 -0.106206 -0.0154726
0.0598709 -0.0853317 -0.189885
0.0598709 -0.0853317 0.0134793
0.0546361 -0.106206 0.0134793
0.0598709 0.239066 0.0134793
0.0546361 -0.237526 0.191877
0.0598709 -0.106206 0.191877
0.0655879 -0.0826976 0.198264
0.0598709 0.239066 0.398648
0.0598709 -0.0590205 0.212768
0.0598709 -0.106206 0.398648
0.0546361 -0.23894 0.398648
0.0598709 -0.0602353 -0.217659
0.0546361 0.239066 -0.393633
0.0598709 -0.0853317 -0.222437
0.0546361 -0.106206 -0.222437
0.0655879 -0.0602353 -0.214957
0.0598709 -0.0838507 -0.217659
0.0655879 -0.0837779 -0.196745
0.0575069 -0.0853317 -0.0154726
0.0575069 0.239066 -0.189885
0.0546361 -0.106206 -0.189885
0.0598709 -0.0837779 -0.194043
0.0546361 -0.237526 0.0134793
0.0598709 -0.0590822 0.195562
0.0575069 0.239066 0.0134793
0.0598709 -0.0853317 0.191877
0.0655879 -0.0590822 0.198264
0.0598709 -0.0826976 0.195562
0.0598709 -0.0853317 0.398648
0.0598709 0.239066 0.217422
0.0598709 -0.106206 0.217422
0.0598709 -0.0590205 0.21547
0.0655879 -0.0590205 0.212768
0.0546361 -0.23894 0.217422
0.0655879 -0.0602353 -0.217659
0.0546361 0.239066 -0.222437
0.0655879 -0.0838507 -0.217659
0.0655879 -0.0601626 -0.194043
0.0655879 -0.0837779 -0.194043
0.0575069 0.239066 -0.0154726
0.0575069 -0.0853317 -0.189885
0.0546361 -0.106206 0.191877
0.0655879 -0.0590822 0.195562
0.0575069 0.239066 0.191877
0.0655879 -0.0826976 0.195562
0.0546361 -0.0853317 0.398648
0.0546361 0.239066 0.217422
0.0598709 -0.0853317 0.217422
0.0546361 -0.106206 0.217422
0.0655879 -0.0826359 0.212768
0.0546361 -0.106206 0.398648
0.0546361 -0.0853317 -0.393633
0.0546361 -0.0853317 -0.222437
0.0575069 -0.070747 -0.0300568
0.0575069 0.224481 -0.0300568
0.0575069 -0.070747 -0.1753
0.0575069 -0.0853317 0.0134793
0.0575069 -0.0853317 0.191877
0.0575069 0.22439 0.177202
0.0546361 0.239066 0.398648
0.0598709 -0.0826359 0.21547
0.0655879 -0.0590205 0.21547
0.0655879 -0.0826359 0.21547
0.0575069 0.224481 -0.1753
0.0575069 -0.0706562 0.0281548
0.0575069 -0.0706562 0.177202
0.0575069 0.22439 0.0281548
0.0546361 -0.0853317 0.217422
0.0546361 -0.070747 -0.0300568
0.0546361 0.224481 -0.1753
0.0546361 -0.0706562 0.177202
0.0546361 0.22439 0.0281548
0.0546361 -0.070747 -0.1753
0.0546361 0.224481 -0.0300568
0.0546361 0.22439 0.177202
0.0546361 -0.0706562 0.0281548
3 0 1 2
3 4 2 1
3 8 2 4
3 4 1 9
3 2 8 15
3 4 16 8
3 8 26 15
3 26 2 15
3 16 4 27
3 8 16 28
3 26 8 28
3 2 26 43
3 28 16 45
3 43 31 2
3 45 26 28
3 43 26 61
3 45 16 63
3 54 61 39
3 26 45 76
3 61 26 76
3 61 54 43
3 62 61 16
3 16 61 63
3 61 45 63
3 39 61 62
3 45 61 76
3 145 132 154
3 147 135 155
3 164 162 173
3 167 165 175
3 192 170 172
3 185 183 194
3 188 186 196
3 212 191 193
3 205 203 214
3 208 206 216
3 232 211 213
3 225 223 234
3 228 226 236
3 254 231 233
3 261 240 252
3 246 244 256
3 249 247 258
3 248 269 259
3 240 261 262
3 252 272 261
3 274 253 255
3 269 248 268
3 278 259 269
3 259 279 270
3 280 252 271
3 262 261 281
3 272 252 280
3 272 282 261
3 283 263 273
3 263 283 264
3 264 284 275
3 267 265 276
3 286 266 277
3 270 288 268
3 269 268 289
3 279 259 278
3 269 290 278
3 270 279 291
3 280 271 292
3 262 293 271
3 282 281 261
3 262 281 294
3 272 280 295
3 282 272 296
3 283 273 297
3 275 298 273
3 299 264 283
3 284 264 299
3 275 284 300
3 301 277 285
3 266 286 287
3 277 302 286
3 270 291 288
3 303 268 288
3 289 268 304
3 305 269 289
3 279 278 306
3 290 269 307
3 290 306 278
3 292 271 309
3 262 294 293
3 311 271 293
3 281 282 312
3 281 313 294
3 295 280 313
3 295 296 272
3 296 312 282
3 297 273 314
3 315 283 297
3 275 300 298
3 316 273 298
3 283 317 299
3 284 299 318
3 287 320 285
3 302 277 301
3 301 285 321
3 287 286 322
3 302 323 286
3 324 288 291
3 304 268 303
3 288 325 303
3 304 306 289
3 269 305 307
3 306 305 289
3 279 306 326
3 305 290 307
3 306 290 327
3 309 271 311
3 331 293 294
3 293 332 311
3 333 281 312
3 313 281 295
3 313 331 294
3 334 313 280
3 296 295 333
3 312 296 333
3 314 273 316
3 314 318 297
3 283 315 335
3 318 315 297
3 336 298 300
3 298 337 316
3 317 283 335
3 317 318 299
3 284 318 338
3 287 341 320
3 342 285 320
3 302 301 343
3 321 285 344
3 323 322 286
3 287 322 341
3 323 302 346
3 329 288 324
3 325 304 303
3 325 288 348
3 306 304 326
3 305 306 327
3 279 326 329
3 290 305 327
3 311 334 309
3 293 331 352
3 332 293 352
3 332 313 311
3 281 333 295
3 331 313 353
3 313 334 311
3 337 314 316
3 318 314 338
3 315 317 335
3 315 318 354
3 340 298 336
3 337 298 356
3 318 317 354
3 284 338 340
3 358 320 341
3 344 285 342
3 320 359 342
3 343 301 360
3 361 302 343
3 322 323 363
3 322 360 341
3 302 361 346
3 346 363 323
3 288 329 326
3 304 325 364
3 288 365 348
3 365 325 348
3 304 365 326
3 331 366 352
3 352 367 332
3 313 332 353
3 353 368 331
3 314 337 369
3 314 370 338
3 317 315 354
3 298 340 338
3 298 370 356
3 356 371 337
3 320 358 372
3 360 358 341
3 342 373 344
3 359 320 372
3 359 360 342
3 373 360 301
3 360 322 343
3 322 361 343
3 361 322 363
3 363 346 361
3 365 288 326
3 325 365 364
3 365 304 364
3 366 331 368
3 352 366 367
3 376 332 367
3 368 353 332
3 377 369 337
3 370 314 369
3 370 298 338
3 370 378 356
3 356 378 371
3 379 337 371
3 358 359 372
3 358 360 380
3 360 373 342
3 360 359 380
3 368 381 366
3 381 367 366
3 368 332 376
3 367 382 376
3 369 377 370
3 377 337 379
3 378 370 377
3 383 371 378
3 371 384 379
3 359 358 380
3 381 368 385
3 367 381 386
3 382 368 376
3 382 367 386
3 384 377 379
3 377 383 378
3 371 383 387
3 384 371 387
3 368 382 385
3 377 384 388
3 383 377 388
3 0 3 1
3 2 5 0
3 3 0 6
3 3 7 1
3 5 2 10
3 5 11 0
3 0 11 6
3 6 12 3
3 7 3 13
3 1 7 14
3 9 1 17
3 9 18 4
3 2 19 10
3 10 20 5
3 11 5 21
3 22 6 11
3 12 6 23
3 12 13 3
3 13 24 7
3 25 14 7
3 14 17 1
3 17 29 9
3 18 9 30
3 18 27 4
3 19 2 31
3 32 10 19
3 20 10 33
3 20 21 5
3 21 34 11
3 6 22 23
3 24 22 11
3 23 36 12
3 13 12 37
3 24 13 38
3 14 25 40
3 25 7 41
3 17 14 42
3 46 9 29
3 29 17 47
3 9 48 30
3 30 49 18
3 27 18 50
3 34 19 31
3 10 32 33
3 51 32 19
3 33 52 20
3 21 20 53
3 34 21 51
3 55 23 22
3 24 38 22
3 36 23 57
3 36 37 12
3 37 38 13
3 59 40 25
3 40 42 14
3 7 58 41
3 25 41 60
3 42 47 17
3 50 44 27
3 48 9 46
3 46 29 58
3 29 47 41
3 64 30 48
3 49 30 65
3 49 50 18
3 34 51 19
3 66 33 32
3 51 67 32
3 52 33 68
3 52 53 20
3 53 51 21
3 23 55 57
3 38 55 22
3 57 69 36
3 37 36 70
3 38 37 71
3 40 59 72
3 59 25 60
3 42 40 74
3 41 58 29
3 60 41 47
3 47 42 75
3 44 50 77
3 44 48 46
3 30 64 65
3 77 64 48
3 65 78 49
3 50 49 79
3 33 66 68
3 67 66 32
3 51 53 67
3 68 80 52
3 53 52 81
3 82 57 55
3 38 71 55
3 69 57 84
3 69 70 36
3 70 71 37
3 85 72 59
3 72 74 40
3 59 60 87
3 74 75 42
3 47 75 60
3 79 77 50
3 44 77 48
3 88 65 64
3 77 89 64
3 78 65 90
3 78 79 49
3 91 68 66
3 67 92 66
3 81 67 53
3 80 68 93
3 80 81 52
3 57 82 84
3 71 82 55
3 84 94 69
3 70 69 95
3 71 70 96
3 72 85 97
3 85 59 87
3 74 72 98
3 87 60 75
3 75 74 99
3 77 79 89
3 65 88 90
3 89 88 64
3 90 100 78
3 79 78 101
3 68 91 93
3 92 91 66
3 67 81 92
3 93 102 80
3 81 80 103
3 104 84 82
3 71 96 82
3 94 84 106
3 94 95 69
3 95 96 70
3 107 97 85
3 97 98 72
3 85 87 109
3 98 99 74
3 75 99 87
3 101 89 79
3 110 90 88
3 89 111 88
3 100 90 112
3 100 101 78
3 113 93 91
3 92 114 91
3 103 92 81
3 102 93 115
3 102 103 80
3 84 104 106
3 96 104 82
3 106 116 94
3 95 94 117
3 96 95 118
3 97 107 119
3 107 85 109
3 98 97 120
3 109 87 99
3 99 98 121
3 89 101 111
3 90 110 112
3 111 110 88
3 112 122 100
3 101 100 123
3 93 113 115
3 114 113 91
3 92 103 114
3 115 124 102
3 103 102 125
3 126 106 104
3 96 118 104
3 116 106 128
3 116 117 94
3 117 118 95
3 129 119 107
3 119 120 97
3 107 109 131
3 120 121 98
3 99 121 109
3 123 111 101
3 132 112 110
3 111 133 110
3 122 112 134
3 122 123 100
3 135 115 113
3 114 136 113
3 125 114 103
3 124 115 137
3 124 125 102
3 106 126 128
3 118 126 104
3 128 138 116
3 117 116 139
3 118 117 140
3 119 129 141
3 129 107 131
3 120 119 142
3 131 109 121
3 121 120 143
3 111 123 133
3 112 132 134
3 133 132 110
3 134 144 122
3 123 122 145
3 115 135 137
3 136 135 113
3 114 125 136
3 146 124 137
3 125 124 147
3 148 128 126
3 118 140 126
3 138 128 149
3 138 139 116
3 139 140 117
3 150 141 129
3 141 142 119
3 129 131 152
3 142 143 120
3 121 143 131
3 145 133 123
3 132 153 134
3 133 154 132
3 144 134 153
3 144 145 122
3 135 146 137
3 136 155 135
3 147 136 125
3 124 146 156
3 156 147 124
3 128 148 149
3 126 157 148
3 139 126 140
3 149 158 138
3 139 138 159
3 141 150 160
3 150 129 152
3 141 160 142
3 152 131 143
3 142 161 143
3 133 145 154
3 153 132 162
3 153 163 144
3 145 144 164
3 146 135 165
3 136 147 155
3 166 156 146
3 147 156 167
3 168 149 148
3 157 126 139
3 159 148 157
3 158 149 169
3 158 159 138
3 159 157 139
3 170 160 150
3 152 172 150
3 161 142 160
3 172 152 143
3 172 143 161
3 132 173 162
3 162 174 153
3 164 132 145
3 163 153 174
3 163 164 144
3 135 175 165
3 165 166 146
3 167 135 147
3 156 166 176
3 176 167 156
3 149 168 169
3 148 177 168
3 177 148 159
3 169 178 158
3 159 158 179
3 160 170 180
3 150 172 170
3 160 180 161
3 161 182 172
3 173 132 164
3 174 162 183
3 174 184 163
3 164 163 185
3 175 135 167
3 166 165 186
3 187 176 166
3 167 176 188
3 189 169 168
3 179 168 177
3 179 177 159
3 178 169 190
3 178 179 158
3 191 180 170
3 182 161 180
3 193 172 182
3 185 162 164
3 162 194 183
3 183 195 174
3 184 174 195
3 184 185 163
3 188 165 167
3 165 196 186
3 186 187 166
3 176 187 197
3 197 188 176
3 169 189 190
3 168 198 189
3 198 168 179
3 190 199 178
3 179 178 200
3 180 191 201
3 170 193 191
3 192 193 170
3 193 192 172
3 180 201 182
3 182 202 193
3 194 162 185
3 195 183 203
3 195 204 184
3 185 184 205
3 196 165 188
3 187 186 206
3 207 197 187
3 188 197 208
3 209 190 189
3 200 189 198
3 200 198 179
3 199 190 210
3 199 200 178
3 211 201 191
3 202 182 201
3 213 193 202
3 205 183 185
3 183 214 203
3 203 215 195
3 204 195 215
3 204 205 184
3 208 186 188
3 186 216 206
3 206 207 187
3 197 207 217
3 217 208 197
3 190 209 210
3 189 218 209
3 218 189 200
3 210 219 199
3 200 199 220
3 201 211 221
3 191 213 211
3 212 213 191
3 213 212 193
3 201 221 202
3 202 222 213
3 214 183 205
3 215 203 223
3 215 224 204
3 205 204 225
3 216 186 208
3 207 206 226
3 227 217 207
3 208 217 228
3 229 210 209
3 220 209 218
3 220 218 200
3 219 210 230
3 219 220 199
3 231 221 211
3 222 202 221
3 233 213 222
3 225 203 205
3 203 234 223
3 223 235 215
3 224 215 235
3 224 225 204
3 228 206 208
3 206 236 226
3 226 227 207
3 217 227 237
3 237 228 217
3 210 229 230
3 209 239 229
3 239 209 220
3 230 240 219
3 220 219 241
3 221 231 242
3 211 233 231
3 232 233 211
3 233 232 213
3 221 242 222
3 222 243 233
3 234 203 225
3 235 223 244
3 235 245 224
3 225 224 246
3 236 206 228
3 227 226 247
3 248 237 227
3 228 237 249
3 250 230 229
3 241 229 239
3 241 239 220
3 240 230 252
3 240 241 219
3 253 242 231
3 243 222 242
3 255 233 243
3 246 223 225
3 223 256 244
3 244 257 235
3 245 235 257
3 245 246 224
3 249 226 228
3 226 258 247
3 247 248 227
3 237 248 259
3 259 249 237
3 230 250 252
3 229 260 250
3 260 229 241
3 241 240 262
3 242 253 263
3 231 255 253
3 254 255 231
3 255 254 233
3 242 263 243
3 243 264 255
3 256 223 246
3 257 244 265
3 257 266 245
3 246 245 267
3 258 226 249
3 248 247 268
3 249 259 270
3 271 252 250
3 262 250 260
3 262 260 241
3 273 263 253
3 264 243 263
3 275 255 264
3 267 244 246
3 244 276 265
3 265 277 257
3 266 257 277
3 266 267 245
3 270 247 249
3 247 270 268
3 250 262 271
3 273 253 275
3 274 275 253
3 275 274 255
3 276 244 267
3 277 265 285
3 267 266 287
3 287 265 267
3 265 287 285
3 2 1 0
3 1 2 4
3 4 2 8
3 9 1 4
3 15 8 2
3 8 16 4
3 15 26 8
3 15 2 26
3 27 4 16
3 28 16 8
3 24 39 7
3 7 39 24
3 28 8 26
3 43 26 2
3 44 16 27
3 27 16 44
3 45 16 28
3 2 31 43
3 34 54 11
3 11 54 34
3 54 24 11
3 11 24 54
3 39 24 54
3 54 24 39
3 39 58 7
3 7 58 39
3 28 26 45
3 61 26 43
3 16 44 62
3 62 44 16
3 63 16 45
3 43 34 31
3 31 34 43
3 54 34 43
3 43 34 54
3 39 61 54
3 39 46 58
3 58 46 39
3 76 45 26
3 76 26 61
3 43 54 61
3 62 44 46
3 46 44 62
3 16 61 62
3 63 61 16
3 63 45 61
3 62 61 39
3 46 39 62
3 62 39 46
3 76 61 45
3 154 132 145
3 155 135 147
3 173 162 164
3 175 165 167
3 172 170 192
3 194 183 185
3 196 186 188
3 193 191 212
3 214 203 205
3 216 206 208
3 213 211 232
3 209 238 229
3 229 238 209
3 234 223 225
3 236 226 228
3 238 209 251
3 251 209 238
3 233 231 254
3 252 240 261
3 256 244 246
3 258 247 249
3 259 269 248
3 262 261 240
3 261 272 252
3 255 253 274
3 268 248 269
3 269 259 278
3 270 279 259
3 271 252 280
3 281 261 262
3 280 252 272
3 261 282 272
3 273 263 283
3 264 283 263
3 275 284 264
3 276 265 267
3 277 266 286
3 268 288 270
3 289 268 269
3 278 259 279
3 278 290 269
3 291 279 270
3 292 271 280
3 271 293 262
3 261 281 282
3 294 281 262
3 295 280 272
3 296 272 282
3 297 273 283
3 273 298 275
3 283 264 299
3 299 264 284
3 300 284 275
3 285 277 301
3 287 286 266
3 286 302 277
3 288 291 270
3 288 268 303
3 304 268 289
3 289 269 305
3 306 278 279
3 307 269 290
3 278 306 290
3 279 291 308
3 309 271 292
3 292 280 310
3 293 294 262
3 293 271 311
3 312 282 281
3 294 313 281
3 313 280 295
3 272 296 295
3 282 312 296
3 314 273 297
3 297 283 315
3 298 300 275
3 298 273 316
3 299 317 283
3 318 299 284
3 284 300 319
3 285 320 287
3 301 277 302
3 321 285 301
3 322 286 287
3 286 323 302
3 291 288 324
3 303 268 304
3 303 325 288
3 289 306 304
3 307 305 269
3 289 305 306
3 326 306 279
3 307 290 305
3 327 290 306
3 328 308 291
3 279 308 329
3 311 271 309
3 292 310 309
3 330 310 280
3 294 293 331
3 311 332 293
3 312 281 333
3 295 281 313
3 294 331 313
3 280 313 334
3 333 295 296
3 333 296 312
3 316 273 314
3 297 318 314
3 335 315 283
3 297 315 318
3 300 298 336
3 316 337 298
3 335 283 317
3 299 318 317
3 338 318 284
3 339 319 300
3 284 319 340
3 320 341 287
3 320 285 342
3 343 301 302
3 344 285 321
3 321 301 345
3 286 322 323
3 341 322 287
3 346 302 323
3 324 288 329
3 324 347 291
3 303 304 325
3 348 288 325
3 326 304 306
3 327 306 305
3 329 326 279
3 327 305 290
3 328 347 308
3 328 291 347
3 349 329 308
3 309 334 311
3 350 309 310
3 330 351 310
3 330 280 351
3 352 331 293
3 352 293 332
3 311 313 332
3 295 333 281
3 353 313 331
3 311 334 313
3 334 351 280
3 316 314 337
3 338 314 318
3 335 317 315
3 354 318 315
3 336 298 340
3 336 355 300
3 356 298 337
3 354 317 318
3 340 338 284
3 339 355 319
3 339 300 355
3 357 340 319
3 341 320 358
3 342 285 344
3 342 359 320
3 360 301 343
3 343 302 361
3 321 345 344
3 362 345 301
3 363 323 322
3 341 360 322
3 346 361 302
3 323 363 346
3 326 329 288
3 324 329 347
3 364 325 304
3 348 365 288
3 348 325 365
3 326 365 304
3 349 308 347
3 349 347 329
3 334 309 351
3 350 351 309
3 350 310 351
3 353 332 313
3 369 337 314
3 338 370 314
3 354 315 317
3 338 340 298
3 336 340 355
3 356 370 298
3 357 319 355
3 357 355 340
3 372 358 320
3 341 358 360
3 344 373 342
3 372 320 359
3 342 360 359
3 301 360 373
3 343 322 360
3 343 361 322
3 374 344 345
3 362 375 345
3 362 301 375
3 363 322 361
3 361 346 363
3 326 288 365
3 364 365 325
3 364 304 365
3 369 314 370
3 338 298 370
3 372 359 358
3 380 360 358
3 342 373 360
3 373 344 375
3 380 359 360
3 373 375 301
3 374 375 344
3 374 345 375
3 380 358 359
3 1 3 0
3 0 5 2
3 6 0 3
3 1 7 3
3 10 2 5
3 0 11 5
3 6 11 0
3 3 12 6
3 13 3 7
3 14 7 1
3 17 1 9
3 4 18 9
3 10 19 2
3 5 20 10
3 21 5 11
3 11 6 22
3 23 6 12
3 3 13 12
3 7 24 13
3 7 14 25
3 1 17 14
3 9 29 17
3 30 9 18
3 4 27 18
3 31 2 19
3 19 10 32
3 33 10 20
3 5 21 20
3 11 34 21
3 23 22 6
3 11 35 22
3 22 35 11
3 11 22 24
3 12 36 23
3 37 12 13
3 38 13 24
3 40 25 14
3 41 7 25
3 42 14 17
3 29 9 46
3 47 17 29
3 30 48 9
3 18 49 30
3 50 18 27
3 31 19 34
3 33 32 10
3 19 32 51
3 20 52 33
3 53 20 21
3 51 21 34
3 22 23 55
3 56 22 35
3 35 22 56
3 22 38 24
3 57 23 36
3 12 37 36
3 13 38 37
3 25 40 59
3 14 42 40
3 41 58 7
3 60 41 25
3 17 47 42
3 27 44 50
3 46 9 48
3 58 29 46
3 41 47 29
3 48 30 64
3 65 30 49
3 18 50 49
3 19 51 34
3 32 33 66
3 32 67 51
3 68 33 52
3 20 53 52
3 21 51 53
3 57 55 23
3 22 56 55
3 55 56 22
3 22 55 38
3 36 69 57
3 70 36 37
3 71 37 38
3 72 59 40
3 59 73 25
3 25 73 59
3 60 25 59
3 74 40 42
3 29 58 41
3 47 41 60
3 75 42 47
3 77 50 44
3 46 48 44
3 65 64 30
3 48 64 77
3 49 78 65
3 79 49 50
3 68 66 33
3 32 66 67
3 67 53 51
3 52 80 68
3 81 52 53
3 55 57 82
3 83 55 56
3 56 55 83
3 55 71 38
3 84 57 69
3 36 70 69
3 37 71 70
3 59 72 85
3 40 74 72
3 73 59 86
3 86 59 73
3 87 60 59
3 42 75 74
3 60 75 47
3 50 77 79
3 48 77 44
3 64 65 88
3 64 89 77
3 90 65 78
3 49 79 78
3 66 68 91
3 66 92 67
3 53 67 81
3 93 68 80
3 52 81 80
3 84 82 57
3 55 83 82
3 82 83 55
3 55 82 71
3 69 94 84
3 95 69 70
3 96 70 71
3 97 85 72
3 85 86 59
3 59 86 85
3 87 59 85
3 98 72 74
3 75 60 87
3 99 74 75
3 89 79 77
3 90 88 65
3 64 88 89
3 78 100 90
3 101 78 79
3 93 91 68
3 66 91 92
3 92 81 67
3 80 102 93
3 103 80 81
3 82 84 104
3 105 82 83
3 83 82 105
3 82 96 71
3 106 84 94
3 69 95 94
3 70 96 95
3 85 97 107
3 72 98 97
3 86 85 108
3 108 85 86
3 109 87 85
3 74 99 98
3 87 99 75
3 79 89 101
3 88 90 110
3 88 111 89
3 112 90 100
3 78 101 100
3 91 93 113
3 91 114 92
3 81 92 103
3 115 93 102
3 80 103 102
3 106 104 84
3 82 105 104
3 104 105 82
3 82 104 96
3 94 116 106
3 117 94 95
3 118 95 96
3 119 107 97
3 107 108 85
3 85 108 107
3 109 85 107
3 120 97 98
3 99 87 109
3 121 98 99
3 111 101 89
3 112 110 90
3 88 110 111
3 100 122 112
3 123 100 101
3 115 113 93
3 91 113 114
3 114 103 92
3 102 124 115
3 125 102 103
3 104 106 126
3 127 104 105
3 105 104 127
3 104 118 96
3 128 106 116
3 94 117 116
3 95 118 117
3 107 119 129
3 97 120 119
3 108 107 130
3 130 107 108
3 131 109 107
3 98 121 120
3 109 121 99
3 101 111 123
3 110 112 132
3 110 133 111
3 134 112 122
3 100 123 122
3 113 115 135
3 113 136 114
3 103 114 125
3 137 115 124
3 102 125 124
3 128 126 106
3 104 127 126
3 126 127 104
3 104 126 118
3 116 138 128
3 139 116 117
3 140 117 118
3 141 129 119
3 129 130 107
3 107 130 129
3 131 107 129
3 142 119 120
3 121 109 131
3 143 120 121
3 133 123 111
3 134 132 112
3 110 132 133
3 122 144 134
3 145 122 123
3 137 135 115
3 113 135 136
3 136 125 114
3 137 124 146
3 147 124 125
3 126 128 148
3 126 140 118
3 149 128 138
3 116 139 138
3 117 140 139
3 129 141 150
3 119 142 141
3 130 129 151
3 151 129 130
3 152 131 129
3 120 143 142
3 131 143 121
3 123 133 145
3 134 153 132
3 132 154 133
3 153 134 144
3 122 145 144
3 137 146 135
3 135 155 136
3 125 136 147
3 156 146 124
3 124 147 156
3 149 148 128
3 148 157 126
3 140 126 139
3 138 158 149
3 159 138 139
3 160 150 141
3 150 151 129
3 129 151 150
3 152 129 150
3 142 160 141
3 143 131 152
3 143 161 142
3 154 145 133
3 162 132 153
3 144 163 153
3 164 144 145
3 165 135 146
3 155 147 136
3 146 156 166
3 167 156 147
3 148 149 168
3 139 126 157
3 157 148 159
3 169 149 158
3 138 159 158
3 139 157 159
3 150 160 170
3 151 150 171
3 171 150 151
3 150 172 152
3 160 142 161
3 143 152 172
3 161 143 172
3 162 173 132
3 153 174 162
3 145 132 164
3 174 153 163
3 144 164 163
3 165 175 135
3 146 166 165
3 147 135 167
3 176 166 156
3 156 167 176
3 169 168 149
3 168 177 148
3 159 148 177
3 158 178 169
3 179 158 159
3 180 170 160
3 181 150 170
3 170 150 181
3 170 172 150
3 150 181 171
3 171 181 150
3 161 180 160
3 172 182 161
3 164 132 173
3 183 162 174
3 163 184 174
3 185 163 164
3 167 135 175
3 186 165 166
3 166 176 187
3 188 176 167
3 168 169 189
3 177 168 179
3 159 177 179
3 190 169 178
3 158 179 178
3 170 180 191
3 180 161 182
3 182 172 193
3 164 162 185
3 183 194 162
3 174 195 183
3 195 174 184
3 163 185 184
3 167 165 188
3 186 196 165
3 166 187 186
3 197 187 176
3 176 188 197
3 190 189 169
3 189 198 168
3 179 168 198
3 178 199 190
3 200 178 179
3 201 191 180
3 191 193 170
3 170 193 192
3 172 192 193
3 182 201 180
3 193 202 182
3 185 162 194
3 203 183 195
3 184 204 195
3 205 184 185
3 188 165 196
3 206 186 187
3 187 197 207
3 208 197 188
3 189 190 209
3 198 189 200
3 179 198 200
3 210 190 199
3 178 200 199
3 191 201 211
3 201 182 202
3 202 193 213
3 185 183 205
3 203 214 183
3 195 215 203
3 215 195 204
3 184 205 204
3 188 186 208
3 206 216 186
3 187 207 206
3 217 207 197
3 197 208 217
3 210 209 190
3 209 218 189
3 200 189 218
3 199 219 210
3 220 199 200
3 221 211 201
3 211 213 191
3 191 213 212
3 193 212 213
3 202 221 201
3 213 222 202
3 205 183 214
3 223 203 215
3 204 224 215
3 225 204 205
3 208 186 216
3 226 206 207
3 207 217 227
3 228 217 208
3 209 210 229
3 218 209 220
3 200 218 220
3 230 210 219
3 199 220 219
3 211 221 231
3 221 202 222
3 222 213 233
3 205 203 225
3 223 234 203
3 215 235 223
3 235 215 224
3 204 225 224
3 208 206 228
3 226 236 206
3 207 227 226
3 237 227 217
3 217 228 237
3 230 229 210
3 229 239 209
3 220 209 239
3 219 240 230
3 241 219 220
3 242 231 221
3 231 233 211
3 211 233 232
3 213 232 233
3 222 242 221
3 233 243 222
3 225 203 234
3 244 223 235
3 224 245 235
3 246 224 225
3 228 206 236
3 247 226 227
3 227 237 248
3 249 237 228
3 229 230 250
3 239 229 241
3 220 239 241
3 252 230 240
3 219 241 240
3 231 242 253
3 242 222 243
3 243 233 255
3 225 223 246
3 244 256 223
3 235 257 244
3 257 235 245
3 224 246 245
3 228 226 249
3 247 258 226
3 227 248 247
3 259 248 237
3 237 249 259
3 252 250 230
3 250 260 229
3 241 229 260
3 262 240 241
3 263 253 242
3 253 255 231
3 231 255 254
3 233 254 255
3 243 263 242
3 255 264 243
3 246 223 256
3 265 244 257
3 245 266 257
3 267 245 246
3 249 226 258
3 268 247 248
3 270 259 249
3 250 252 271
3 260 250 262
3 241 260 262
3 253 263 273
3 263 243 264
3 264 255 275
3 246 244 267
3 265 276 244
3 257 277 265
3 277 257 266
3 245 267 266
3 249 247 270
3 268 270 247
3 271 262 250
3 275 253 273
3 253 275 274
3 255 274 275
3 267 244 276
3 285 265 277
3 287 266 267
3 267 265 287
3 285 287 265
3 308 291 279
3 310 280 292
3 319 300 284
3 291 308 328
3 329 308 279
3 309 310 292
3 280 310 330
3 300 319 339
3 340 319 284
3 345 301 321
3 291 347 324
3 308 347 328
3 347 291 328
3 308 329 349
3 310 309 350
3 310 351 330
3 351 280 330
3 280 351 334
3 300 355 336
3 319 355 339
3 355 300 339
3 319 340 357
3 344 345 321
3 301 345 362
3 347 329 324
3 347 308 349
3 329 347 349
3 351 309 334
3 309 351 350
3 351 310 350
3 355 340 336
3 355 319 357
3 340 355 357
3 345 344 374
3 345 375 362
3 375 301 362
3 375 344 373
3 301 375 373
3 344 375 374
3 375 345 374
3 382 381 385
3 381 382 386
3 383 384 387
3 384 383 388
3 352 366 331
3 332 367 352
3 331 368 353
3 337 371 356
3 368 331 366
3 367 366 352
3 367 332 376
3 332 353 368
3 337 369 377
3 356 378 370
3 371 378 356
3 371 337 379
3 366 381 368
3 366 367 381
3 376 332 368
3 376 382 367
3 370 377 369
3 379 337 377
3 377 370 378
3 378 371 383
3 379 384 371
3 385 368 381
3 386 381 367
3 376 368 382
3 386 367 382
3 379 377 384
3 378 383 377
3 387 383 371
3 387 371 384
3 385 382 368
3 385 381 382
3 386 382 381
3 388 384 377
3 388 377 383
3 387 384 383
3 388 383 384
