ply
format ascii 1.0
comment Generated by PyMesh
element vertex 550
property double x
property double y
property double z
element face 2172
property list uchar int vertex_indices
end_header
0.110538 0.154229 0.315448
0.107774 0.154229 0.435582
0.110538 0.154229 0.435582
0.107774 0.154229 0.315448
0.110538 0.0841801 0.435582
0.110538 0.151819 0.312833
0.107774 0.154921 0.15272
0.107774 0.0841801 0.435582
0.110538 0.145504 0.294899
0.110538 0.149602 0.309657
0.107774 0.151819 0.312833
0.107774 0.154229 0.274349
0.107774 0.154921 0.436272
0.107774 0.0841801 0.15341
0.110538 0.145766 0.298763
0.110538 0.154229 0.15341
0.110538 0.147833 0.30621
0.107774 0.154229 0.15341
0.110538 0.154921 0.436272
0.107774 0.0834895 0.436272
0.110538 0.0841801 0.15341
0.107774 0.145766 0.298763
0.110538 0.146547 0.302557
0.110538 0.145766 0.291034
0.107774 0.149602 0.309657
0.107774 0.151819 0.276963
0.110538 0.154921 0.15272
0.107774 0.0834895 0.15272
0.107774 0.145504 0.294899
0.107774 0.146547 0.302557
0.110538 0.146547 0.28724
0.107774 0.147833 0.30621
0.110538 0.154229 0.274349
0.110538 0.0834895 0.15272
0.110538 0.154921 0.143002
0.110538 0.0834895 0.436272
0.107774 0.145766 0.291034
0.107774 0.146547 0.28724
0.110538 0.147833 0.283586
0.107774 0.149602 0.28014
0.110538 0.151819 0.276963
0.110538 0.165296 -0.443135
0.110538 0.165296 0.445587
0.107774 0.147833 0.283586
0.110538 0.149602 0.28014
0.110538 0.0834895 0.143002
0.110538 0.154921 -0.140551
0.110538 0.0750697 0.436272
0.110538 0.0750697 0.15272
0.107774 0.0834895 0.143002
0.110538 0.154921 -0.150268
0.107774 0.154921 -0.140551
-0.110538 0.165296 0.445587
0.110538 -0.00861489 0.436272
0.110538 0.0750697 0.143002
0.107774 0.154921 0.143002
0.110538 0.0834895 -0.140551
0.110538 0.154921 -0.433821
-0.110538 0.165296 0.152317
-0.110538 -0.122081 0.445587
0.110538 -0.0177284 0.436272
0.107774 -0.00861489 0.436272
0.107774 0.0750697 0.15272
0.110538 -0.00861489 0.15272
0.107774 0.0841801 0.142312
0.107774 0.0834895 -0.140551
0.110538 0.0834895 -0.433821
0.107774 0.154921 -0.433821
0.110538 0.0834895 -0.150268
0.107774 0.154229 0.142312
-0.110538 0.165296 0.143002
-0.110538 0.154921 0.436272
0.110538 -0.122081 0.445587
-0.110538 -0.11022 0.436272
0.110538 -0.111686 0.436272
0.107774 0.0750697 0.436272
0.110538 -0.00861489 0.143002
0.110538 0.0750697 -0.140551
0.107774 0.0841801 -0.139859
0.110538 0.0750697 -0.433821
0.107774 0.154921 -0.150268
0.107774 0.154229 0.0221778
-0.110538 0.165296 -0.140551
-0.110538 0.154921 0.143002
-0.110538 0.154921 0.15272
-0.110538 -0.122081 0.152317
-0.110538 -0.11022 0.15272
0.107774 -0.111686 0.436272
0.110538 -0.0177284 0.15272
0.107774 -0.00792424 0.435582
0.107774 -0.00861489 0.15272
0.107774 0.0743791 0.435582
0.107774 -0.00861489 0.143002
0.107774 0.0750697 -0.140551
0.110538 0.0841801 0.142312
0.110538 -0.00861489 -0.433821
0.110538 0.0750697 -0.150268
0.107774 0.0834895 -0.433821
0.107774 0.154229 -0.150959
0.107774 0.0834895 -0.150268
0.107774 0.154229 -0.0189217
0.110538 0.154229 0.0221778
0.107774 0.154229 -0.139859
-0.110538 0.165296 -0.150268
-0.110538 -0.11022 0.143002
-0.106853 0.154921 0.436272
0.110538 -0.122081 0.152317
0.110538 -0.111686 0.15272
-0.106853 -0.11022 0.15272
0.107774 -0.0177284 0.436272
0.107774 -0.0177284 0.15272
0.107774 -0.00792424 0.15341
0.107774 0.0743791 0.315448
0.110538 -0.0177284 0.143002
0.107774 0.0750697 0.143002
0.110538 -0.00861489 -0.140551
0.107774 -0.00861489 -0.140551
0.110538 0.0841801 -0.139859
0.110538 0.154229 0.142312
0.110538 -0.0177284 -0.433821
0.107774 0.0750697 -0.433821
0.107774 0.0841801 -0.43313
0.107774 0.0841801 -0.150959
0.107774 0.154229 -0.43313
0.107774 0.151819 0.0195626
0.110538 0.151819 0.0195626
-0.110538 0.165296 -0.443135
-0.110538 0.154921 -0.140551
-0.106853 0.154921 0.143002
-0.106853 -0.11022 0.436272
-0.106853 0.154921 0.15272
-0.110538 -0.122081 0.143002
0.110538 -0.111686 -0.433821
0.110538 -0.111686 -0.150268
0.107774 -0.110996 0.435582
0.107774 -0.111686 0.15272
0.110538 -0.00792424 0.435582
0.107774 0.0743791 0.274349
0.110538 0.0743791 0.315448
0.107774 0.0743791 0.15341
0.110538 -0.111686 0.143002
0.107774 -0.00792424 0.142312
0.107774 0.0743791 0.142312
0.107774 -0.00792424 -0.139859
0.110538 0.154229 -0.139859
0.110538 0.145504 0.00162829
0.110538 -0.0177284 -0.150268
0.107774 -0.00861489 -0.433821
0.107774 0.0750697 -0.150268
0.110538 0.0841801 -0.150959
0.107774 0.154229 -0.271897
0.110538 -0.00861489 -0.150268
0.107774 0.151819 -0.016307
-0.110538 -0.122081 -0.443135
-0.110538 0.154921 -0.150268
-0.106853 -0.11022 0.143002
0.110538 -0.122081 0.143002
0.110538 -0.111686 -0.140551
0.107774 -0.110996 0.15341
0.107774 -0.018419 0.435582
0.110538 -0.00792424 0.15341
0.110538 0.0743791 0.435582
0.107774 0.0719677 0.312833
0.110538 0.0719677 0.312833
0.110538 0.0743791 0.15341
0.107774 -0.111686 0.143002
0.110538 -0.0177284 -0.140551
0.107774 0.0743791 0.0221778
0.107774 0.0743791 -0.139859
0.110538 0.145766 0.00549284
0.110538 -0.122081 -0.443135
0.107774 -0.0177284 -0.433821
0.107774 -0.00792424 -0.43313
0.107774 -0.00861489 -0.150268
0.107774 0.0743791 -0.150959
0.110538 0.154229 -0.43313
0.110538 0.154229 -0.150959
0.107774 0.154229 -0.312996
0.110538 0.154229 -0.271897
0.110538 0.154229 -0.0189217
0.107774 0.149602 0.0163866
0.110538 0.149602 0.0163866
-0.110538 -0.11022 -0.433821
-0.110538 -0.11022 -0.140551
-0.106853 0.154921 -0.140551
-0.106853 -0.11022 -0.140551
0.110538 -0.122081 -0.140551
0.110538 -0.122081 -0.150268
0.107774 -0.111686 -0.150268
0.110538 -0.110996 0.435582
0.107774 -0.018419 0.315448
0.107774 -0.018419 0.15341
0.110538 0.0656528 0.294899
0.107774 0.0719677 0.276963
0.107774 -0.0177284 0.143002
0.107774 -0.0177284 -0.140551
0.110538 -0.00792424 0.142312
0.107774 0.0743791 -0.0189217
0.110538 0.0743791 0.0221778
0.110538 0.0743791 -0.139859
0.110538 0.145766 -0.00223678
0.107774 0.145766 0.00549284
0.110538 0.146547 0.00928654
0.107774 -0.111686 -0.433821
0.107774 -0.0177284 -0.150268
0.107774 0.0743791 -0.43313
0.107774 -0.00792424 -0.150959
0.107774 0.0743791 -0.271897
0.110538 0.0841801 -0.43313
0.110538 0.145504 -0.292447
0.107774 0.151819 -0.274512
0.110538 0.151819 -0.274512
0.110538 0.151819 -0.016307
0.107774 0.149602 -0.0131306
0.110538 0.147833 0.01294
-0.110538 -0.122081 -0.150268
-0.110538 0.154921 -0.433821
-0.110538 -0.11022 -0.150268
-0.110538 -0.122081 -0.140551
0.110538 -0.110996 0.15341
0.110538 -0.018419 0.435582
0.107774 -0.018419 0.274349
0.110538 -0.018419 0.315448
0.110538 -0.018419 0.15341
0.110538 0.0659147 0.298763
0.110538 0.0743791 0.274349
0.107774 0.0697505 0.309657
0.110538 0.0697505 0.309657
0.107774 -0.110996 0.142312
0.107774 -0.111686 -0.140551
0.110538 -0.00792424 -0.139859
0.110538 0.0743791 0.142312
0.107774 0.0719677 0.0195626
0.110538 0.0719677 0.0195626
0.110538 0.146547 -0.00603048
0.107774 0.145504 0.00162829
0.107774 0.146547 0.00928654
0.107774 -0.110996 -0.43313
0.107774 -0.018419 -0.150959
0.107774 0.0743791 -0.312996
0.110538 0.0743791 -0.43313
0.110538 -0.00792424 -0.150959
0.110538 0.0743791 -0.271897
0.110538 0.154229 -0.312996
0.110538 0.145766 -0.288582
0.107774 0.151819 -0.310381
0.110538 0.149602 -0.0131306
0.107774 0.147833 0.01294
-0.106853 0.154921 -0.433821
-0.106853 0.154921 -0.150268
0.110538 -0.0271448 0.294899
0.107774 -0.0208299 0.312833
0.110538 -0.0208299 0.312833
0.110538 0.0659147 0.291034
0.107774 0.0659147 0.298763
0.110538 0.0666967 0.302557
0.110538 0.0719677 0.276963
0.107774 0.0697505 0.28014
0.110538 0.067983 0.30621
0.107774 -0.110996 -0.139859
0.107774 -0.018419 0.142312
0.110538 0.0656528 0.00162829
0.107774 0.0719677 -0.016307
0.110538 0.0743791 -0.0189217
0.110538 0.147833 -0.00968399
0.107774 0.145766 -0.00223678
0.107774 0.146547 -0.00603048
0.107774 -0.018419 -0.43313
0.107774 -0.110996 -0.150959
0.107774 -0.018419 -0.271897
0.110538 -0.00792424 -0.43313
0.110538 0.0743791 -0.150959
0.107774 0.0719677 -0.274512
0.110538 0.0719677 -0.274512
0.110538 0.151819 -0.310381
0.107774 0.145766 -0.288582
0.110538 0.146547 -0.284788
0.110538 0.145766 -0.296311
0.110538 0.149602 -0.277688
0.107774 0.149602 -0.277688
0.107774 0.147833 -0.00968399
-0.106853 -0.11022 -0.433821
-0.106853 -0.11022 -0.150268
0.110538 -0.026883 0.298763
0.107774 -0.0208299 0.276963
0.110538 -0.018419 0.274349
0.110538 0.0666967 0.28724
0.107774 0.0656528 0.294899
0.107774 0.0666967 0.302557
0.110538 0.0697505 0.28014
0.107774 0.067983 0.30621
0.110538 -0.110996 0.142312
0.107774 -0.018419 0.0221778
0.110538 0.0659147 0.00549284
0.107774 0.0697505 0.0163866
0.110538 0.0697505 0.0163866
0.110538 0.0719677 -0.016307
0.107774 -0.018419 -0.312996
0.110538 -0.018419 -0.43313
0.110538 -0.018419 -0.150959
0.110538 -0.018419 -0.271897
0.110538 0.0743791 -0.312996
0.110538 0.0656528 -0.292447
0.107774 0.0719677 -0.310381
0.110538 0.149602 -0.307205
0.107774 0.145504 -0.292447
0.107774 0.146547 -0.284788
0.110538 0.147833 -0.281134
0.110538 0.146547 -0.300105
0.107774 0.149602 -0.307205
0.110538 -0.110996 -0.150959
0.110538 -0.026883 0.291034
0.107774 -0.026883 0.298763
0.110538 -0.0261019 0.302557
0.110538 -0.0230472 0.309657
0.107774 -0.0230472 0.309657
0.110538 -0.0208299 0.276963
0.110538 0.067983 0.283586
0.107774 0.0659147 0.291034
0.107774 0.0666967 0.28724
0.107774 0.067983 0.283586
0.110538 -0.110996 -0.139859
0.110538 -0.018419 0.142312
0.107774 -0.018419 -0.0189217
0.110538 -0.018419 0.0221778
0.107774 -0.018419 -0.139859
0.110538 0.0659147 -0.00223678
0.107774 0.0659147 0.00549284
0.110538 0.0666967 0.00928654
0.107774 0.0697505 -0.0131306
0.110538 0.067983 0.01294
0.110538 0.0697505 -0.0131306
0.110538 -0.110996 -0.43313
0.107774 -0.0208299 -0.274512
0.110538 -0.0208299 -0.274512
0.110538 0.0719677 -0.310381
0.110538 0.0659147 -0.288582
0.107774 0.0697505 -0.277688
0.110538 0.0697505 -0.277688
0.110538 0.147833 -0.303758
0.107774 0.145766 -0.296311
0.107774 0.146547 -0.300105
0.107774 0.147833 -0.281134
0.110538 -0.0261019 0.28724
0.107774 -0.026883 0.291034
0.107774 -0.0271448 0.294899
0.107774 -0.0261019 0.302557
0.110538 -0.0248151 0.30621
0.107774 -0.0230472 0.28014
0.110538 -0.0230472 0.28014
0.110538 -0.018419 -0.139859
0.110538 -0.0271448 0.00162829
0.107774 -0.0208299 0.0195626
0.110538 -0.0208299 0.0195626
0.110538 0.0666967 -0.00603048
0.107774 0.0656528 0.00162829
0.107774 0.0666967 0.00928654
0.107774 0.067983 0.01294
0.110538 0.067983 -0.00968399
0.110538 -0.018419 -0.312996
0.110538 -0.0271448 -0.292447
0.107774 -0.0208299 -0.310381
0.110538 0.0697505 -0.307205
0.110538 0.0659147 -0.296311
0.107774 0.0659147 -0.288582
0.110538 0.0666967 -0.284788
0.107774 0.0697505 -0.307205
0.110538 0.067983 -0.281134
0.107774 0.147833 -0.303758
0.110538 -0.0248151 0.283586
0.107774 -0.0261019 0.28724
0.107774 -0.0248151 0.30621
0.110538 -0.026883 0.00549284
0.107774 -0.0208299 -0.016307
0.107774 0.0659147 -0.00223678
0.107774 0.0666967 -0.00603048
0.107774 0.067983 -0.00968399
0.110538 -0.0208299 -0.310381
0.110538 -0.026883 -0.296311
0.110538 -0.0230472 -0.277688
0.107774 -0.0230472 -0.277688
0.110538 0.067983 -0.303758
0.110538 0.0666967 -0.300105
0.107774 0.0656528 -0.292447
0.107774 0.0666967 -0.284788
0.107774 0.067983 -0.281134
0.107774 -0.0248151 0.283586
0.110538 -0.026883 -0.00223678
0.107774 -0.026883 0.00549284
0.110538 -0.0261019 0.00928654
0.110538 -0.0230472 0.0163866
0.110538 -0.018419 -0.0189217
0.107774 -0.0230472 0.0163866
0.110538 -0.0230472 -0.307205
0.110538 -0.0261019 -0.300105
0.107774 -0.0271448 -0.292447
0.110538 -0.026883 -0.288582
0.110538 -0.0248151 -0.281134
0.107774 -0.0230472 -0.307205
0.107774 0.067983 -0.303758
0.107774 0.0659147 -0.296311
0.107774 0.0666967 -0.300105
0.110538 -0.0261019 -0.00603048
0.107774 -0.026883 -0.00223678
0.107774 -0.0271448 0.00162829
0.107774 -0.0261019 0.00928654
0.110538 -0.0248151 0.01294
0.110538 -0.0208299 -0.016307
0.107774 -0.0230472 -0.0131306
0.110538 -0.0248151 -0.303758
0.107774 -0.026883 -0.296311
0.107774 -0.026883 -0.288582
0.110538 -0.0261019 -0.284788
0.107774 -0.0248151 -0.281134
0.110538 -0.0248151 -0.00968399
0.107774 -0.0261019 -0.00603048
0.107774 -0.0248151 0.01294
0.110538 -0.0230472 -0.0131306
0.107774 -0.0248151 -0.303758
0.107774 -0.0261019 -0.300105
0.107774 -0.0261019 -0.284788
0.107774 -0.0248151 -0.00968399
-0.0880072 -0.165296 -0.438311
-0.0880072 -0.15984 -0.445935
-0.0880072 -0.165296 -0.45318
-0.0880072 -0.154692 -0.438467
0.0861571 -0.15984 -0.445935
0.0861571 -0.165296 -0.45318
-0.0880072 -0.149863 -0.43079
0.0861571 -0.165296 -0.438311
-0.0880072 -0.160438 -0.430841
0.0861571 -0.149863 -0.430791
0.0861571 -0.154692 -0.438467
0.0861571 -0.160438 -0.430841
-0.0880072 -0.155897 -0.423175
0.0861571 -0.145359 -0.422918
0.0861571 -0.155897 -0.423175
-0.0880072 -0.145359 -0.422918
0.0861571 -0.151679 -0.415326
-0.0880072 -0.151679 -0.415326
0.0861571 -0.14119 -0.414863
-0.0880072 -0.14119 -0.414863
0.0861571 -0.147794 -0.407307
-0.0880072 -0.147794 -0.407307
0.0861571 -0.137362 -0.40664
-0.0880072 -0.137362 -0.40664
-0.0880072 -0.144247 -0.399133
0.0861571 -0.133882 -0.398264
0.0861571 -0.144247 -0.399133
-0.0880072 -0.133882 -0.398264
0.0861571 -0.141044 -0.390818
-0.0880072 -0.141044 -0.390818
0.0861571 -0.130757 -0.38975
-0.0880072 -0.130757 -0.38975
0.0861571 -0.138193 -0.382376
-0.0880072 -0.138193 -0.382376
0.0861571 -0.127991 -0.381112
-0.0880072 -0.127991 -0.381112
0.0861571 -0.135696 -0.373823
-0.0880072 -0.135696 -0.373823
0.0861571 -0.125591 -0.372366
-0.0880072 -0.125591 -0.372366
0.0861571 -0.133559 -0.365173
-0.0880072 -0.133559 -0.365173
0.0861571 -0.12356 -0.363527
-0.0880072 -0.12356 -0.363527
-0.0880072 -0.131785 -0.356441
-0.0880072 -0.1219 -0.35461
0.0861571 -0.131785 -0.356441
0.0861571 -0.1219 -0.35461
0.0861571 -0.130378 -0.347642
-0.0880072 -0.130378 -0.347642
0.0861571 -0.1219 -0.311214
-0.0880072 -0.1219 -0.311214
0.0861571 -0.129339 -0.338793
-0.0880072 -0.129339 -0.338793
-0.0880072 -0.129339 -0.311214
0.0861571 -0.129339 -0.311214
0.0302859 -0.102291 0.366629
0.0302859 -0.1219 -0.453718
0.0302859 -0.1219 0.360187
0.0302859 -0.102291 -0.458758
0.0521725 -0.1219 -0.453718
0.0521725 -0.102291 0.366629
0.0521725 -0.102291 -0.458758
0.0521725 -0.1219 0.360187
-0.0562651 -0.102291 0.366629
-0.0562651 -0.1219 -0.453718
-0.0562651 -0.1219 0.360187
-0.0562651 -0.102291 -0.458758
-0.0343789 -0.1219 -0.453718
-0.0343789 -0.102291 0.366629
-0.0343789 -0.102291 -0.458758
-0.0343789 -0.1219 0.360187
-0.0880072 -0.165296 0.458758
-0.0880072 -0.15984 0.451513
-0.0880072 -0.165296 0.443888
0.0861571 -0.15984 0.451513
-0.0880072 -0.154692 0.444045
0.0861571 -0.165296 0.458758
-0.0880072 -0.149863 0.436368
0.0861571 -0.165296 0.443888
0.0861571 -0.154692 0.444045
-0.0880072 -0.160438 0.436419
0.0861571 -0.149863 0.436368
0.0861571 -0.160438 0.436419
-0.0880072 -0.155897 0.428753
0.0861571 -0.145359 0.428495
0.0861571 -0.155897 0.428753
-0.0880072 -0.145359 0.428495
0.0861571 -0.151679 0.420903
-0.0880072 -0.151679 0.420903
0.0861571 -0.14119 0.420441
-0.0880072 -0.14119 0.420441
0.0861571 -0.147794 0.412885
-0.0880072 -0.147794 0.412885
0.0861571 -0.137362 0.412218
-0.0880072 -0.137362 0.412218
-0.0880072 -0.144247 0.404711
0.0861571 -0.144247 0.404711
0.0861571 -0.133882 0.403842
-0.0880072 -0.133882 0.403842
0.0861571 -0.141044 0.396396
-0.0880072 -0.141044 0.396396
0.0861571 -0.130757 0.395328
-0.0880072 -0.130757 0.395328
0.0861571 -0.138193 0.387954
-0.0880072 -0.138193 0.387954
0.0861571 -0.127991 0.38669
-0.0880072 -0.127991 0.38669
0.0861571 -0.135696 0.379401
-0.0880072 -0.135696 0.379401
0.0861571 -0.125591 0.377944
-0.0880072 -0.125591 0.377944
0.0861571 -0.133559 0.37075
-0.0880072 -0.133559 0.37075
0.0861571 -0.12356 0.369104
-0.0880072 -0.12356 0.369104
-0.0880072 -0.131785 0.362018
0.0861571 -0.131785 0.362018
-0.0880072 -0.1219 0.360187
0.0861571 -0.1219 0.360187
0.0861571 -0.130378 0.35322
-0.0880072 -0.130378 0.35322
0.0861571 -0.1219 0.316792
-0.0880072 -0.1219 0.316792
0.0861571 -0.129339 0.34437
-0.0880072 -0.129339 0.34437
-0.0880072 -0.129339 0.316792
0.0861571 -0.129339 0.316792
3 0 1 2
3 1 0 3
3 1 4 2
3 2 5 0
3 3 6 1
3 4 1 7
3 8 2 4
3 2 9 5
3 11 6 3
3 12 1 6
3 12 7 1
3 13 4 7
3 2 8 14
3 4 15 8
3 2 16 9
3 10 11 3
3 17 6 11
3 6 18 12
3 19 7 12
3 4 13 20
3 7 19 13
3 2 14 22
3 15 4 20
3 8 15 23
3 2 22 16
3 10 25 11
3 13 6 17
3 11 15 17
3 18 6 26
3 18 19 12
3 17 20 13
3 27 13 19
3 20 17 15
3 23 15 30
3 24 25 10
3 13 27 6
3 15 11 32
3 6 33 26
3 26 34 18
3 19 18 35
3 19 33 27
3 36 21 28
3 21 37 29
3 30 15 38
3 31 39 24
3 24 39 25
3 33 6 27
3 40 15 32
3 33 34 26
3 34 41 18
3 42 35 18
3 33 19 35
3 21 36 37
3 29 37 43
3 29 43 31
3 38 15 44
3 31 43 39
3 44 15 40
3 33 45 34
3 46 41 34
3 42 18 41
3 42 47 35
3 47 33 35
3 48 45 33
3 49 34 45
3 50 41 46
3 34 51 46
3 41 52 42
3 42 53 47
3 33 47 48
3 48 54 45
3 34 49 55
3 56 49 45
3 57 41 50
3 56 50 46
3 51 34 55
3 51 56 46
3 52 41 58
3 59 42 52
3 42 60 53
3 61 47 53
3 47 62 48
3 63 54 48
3 54 56 45
3 49 64 55
3 49 56 65
3 66 41 57
3 50 67 57
3 56 68 50
3 55 69 51
3 56 51 65
3 58 41 70
3 71 52 58
3 42 59 72
3 73 59 52
3 42 74 60
3 60 63 53
3 47 61 75
3 63 61 53
3 62 47 75
3 62 63 48
3 63 76 54
3 56 54 77
3 64 49 78
3 55 64 69
3 65 78 49
3 79 41 66
3 67 66 57
3 67 50 80
3 77 68 56
3 68 80 50
3 81 51 69
3 78 65 51
3 70 41 82
3 83 58 70
3 73 52 71
3 58 84 71
3 85 72 59
3 72 74 42
3 59 73 86
3 87 60 74
3 63 60 88
3 61 89 75
3 61 63 90
3 75 91 62
3 63 62 90
3 88 76 63
3 92 54 76
3 54 93 77
3 78 94 64
3 94 69 64
3 95 41 79
3 66 96 79
3 66 67 97
3 80 98 67
3 77 96 68
3 80 68 99
3 100 51 81
3 69 101 81
3 78 51 102
3 82 41 103
3 82 83 70
3 104 58 83
3 105 73 71
3 58 86 84
3 84 105 71
3 72 85 106
3 86 85 59
3 74 72 107
3 73 108 86
3 60 87 109
3 107 87 74
3 60 110 88
3 89 61 111
3 75 89 91
3 90 111 61
3 112 62 91
3 111 90 62
3 88 113 76
3 54 92 114
3 115 92 76
3 93 54 114
3 116 77 93
3 94 78 117
3 69 94 118
3 119 41 95
3 120 95 79
3 96 66 68
3 96 120 79
3 121 97 67
3 99 66 97
3 80 122 98
3 123 67 98
3 115 96 77
3 66 99 68
3 99 122 80
3 102 51 100
3 124 100 81
3 101 69 118
3 102 117 78
3 103 41 126
3 103 127 82
3 126 82 103
3 83 82 127
3 104 85 58
3 128 104 83
3 73 105 129
3 85 86 58
3 86 130 84
3 105 84 130
3 131 106 85
3 106 132 72
3 107 72 133
3 108 73 129
3 130 86 108
3 87 134 109
3 110 60 109
3 87 107 135
3 135 88 110
3 111 136 89
3 136 91 89
3 137 62 112
3 91 138 112
3 111 62 139
3 88 140 113
3 113 115 76
3 92 141 114
3 92 115 116
3 114 142 93
3 77 116 115
3 143 116 93
3 144 94 117
3 145 118 94
3 132 41 119
3 95 146 119
3 95 120 147
3 120 96 148
3 97 121 99
3 121 67 123
3 149 98 122
3 150 123 98
3 115 151 96
3 122 99 121
3 100 144 102
3 124 152 100
3 118 125 101
3 117 102 144
3 41 153 126
3 154 127 103
3 126 127 82
3 127 128 83
3 85 104 131
3 104 128 155
3 130 129 105
3 106 131 156
3 156 132 106
3 133 72 132
3 107 133 157
3 129 130 108
3 134 87 158
3 109 134 159
3 109 159 110
3 88 135 107
3 135 158 87
3 158 135 110
3 136 111 160
3 91 136 161
3 139 62 137
3 162 137 112
3 138 91 161
3 164 111 139
3 107 140 88
3 165 113 140
3 115 113 166
3 141 92 143
3 114 141 142
3 116 143 92
3 167 93 142
3 143 93 168
3 94 144 145
3 118 145 169
3 132 170 41
3 171 132 119
3 146 95 151
3 146 171 119
3 172 147 120
3 173 95 147
3 96 173 148
3 148 174 120
3 175 121 123
3 98 149 176
3 121 149 122
3 150 177 123
3 98 178 150
3 166 151 115
3 173 96 151
3 144 100 179
3 180 152 124
3 118 181 125
3 153 41 170
3 153 182 126
3 154 183 127
3 154 183 127
3 126 154 127
3 128 127 184
3 183 131 104
3 184 155 128
3 185 104 155
3 131 186 156
3 187 132 156
3 132 188 133
3 146 157 133
3 140 107 157
3 158 189 134
3 189 159 134
3 190 110 159
3 158 110 191
3 111 164 160
3 164 136 160
3 192 161 136
3 137 164 139
3 162 193 137
3 161 163 138
3 113 165 194
3 157 165 140
3 113 195 166
3 143 196 141
3 196 142 141
3 197 93 167
3 142 198 167
3 168 93 197
3 199 143 168
3 145 144 200
3 118 169 202
3 170 132 187
3 132 171 203
3 95 173 151
3 166 146 151
3 171 146 204
3 147 172 173
3 172 120 205
3 173 206 148
3 148 206 174
3 207 120 174
3 121 175 208
3 177 175 123
3 209 176 149
3 178 98 176
3 149 121 208
3 210 177 150
3 212 144 179
3 180 213 152
3 118 214 181
3 187 153 170
3 182 153 215
3 126 182 216
3 217 183 154
3 217 183 154
3 185 127 183
3 126 216 154
3 127 185 184
3 131 183 218
3 104 185 183
3 155 184 185
3 186 131 218
3 156 186 187
3 188 132 203
3 188 146 133
3 157 146 166
3 189 158 219
3 159 189 220
3 221 110 190
3 159 222 190
3 191 110 221
3 223 158 191
3 136 164 192
3 161 192 224
3 164 137 225
3 226 193 162
3 161 227 163
3 165 228 194
3 195 113 194
3 165 157 229
3 195 157 166
3 196 143 230
3 142 196 231
3 232 197 167
3 198 142 231
3 197 199 168
3 143 199 230
3 200 144 234
3 118 202 214
3 237 203 171
3 146 188 204
3 204 238 171
3 206 173 172
3 205 120 239
3 240 172 205
3 241 174 206
3 239 120 207
3 174 242 207
3 175 149 208
3 175 177 243
3 176 209 244
3 149 175 209
3 176 211 178
3 210 245 177
3 246 144 212
3 247 213 180
3 153 187 215
3 215 217 182
3 182 248 216
3 215 183 217
3 215 183 217
3 249 217 154
3 216 249 154
3 183 215 218
3 183 215 218
3 215 186 218
3 186 215 187
3 203 237 188
3 158 223 219
3 223 189 219
3 250 220 189
3 222 159 220
3 251 221 190
3 221 223 191
3 192 164 253
3 161 224 255
3 256 164 225
3 226 257 193
3 161 258 227
3 228 165 259
3 194 228 260
3 194 260 195
3 157 195 229
3 229 259 165
3 199 196 230
3 261 231 196
3 232 262 197
3 231 233 198
3 199 197 263
3 234 144 264
3 265 201 235
3 201 266 236
3 237 171 267
3 188 268 204
3 204 268 238
3 269 171 238
3 172 241 206
3 239 240 205
3 172 240 270
3 174 241 271
3 272 239 207
3 242 174 271
3 274 175 243
3 176 244 276
3 209 175 277
3 176 278 211
3 279 245 210
3 264 144 246
3 247 280 213
3 217 281 182
3 248 182 281
3 249 216 248
3 217 249 282
3 268 188 237
3 189 223 250
3 220 250 283
3 220 252 222
3 251 284 221
3 223 221 285
3 253 164 286
3 161 255 258
3 289 164 256
3 290 257 226
3 259 291 228
3 291 260 228
3 292 195 260
3 259 229 195
3 196 199 261
3 231 261 293
3 294 262 232
3 231 295 233
3 296 199 263
3 201 265 266
3 236 266 280
3 236 280 247
3 267 171 297
3 298 237 267
3 268 299 238
3 297 171 269
3 238 300 269
3 241 172 270
3 240 239 301
3 240 241 270
3 302 271 241
3 272 303 239
3 271 273 242
3 304 175 274
3 176 276 307
3 277 175 308
3 176 307 278
3 279 309 245
3 281 217 282
3 282 248 281
3 248 282 249
3 237 310 268
3 250 223 311
3 220 283 313
3 220 314 252
3 315 284 251
3 316 223 285
3 286 164 317
3 318 254 287
3 254 319 288
3 317 164 289
3 290 320 257
3 291 259 321
3 260 291 322
3 323 195 292
3 260 324 292
3 259 195 325
3 261 199 326
3 231 293 328
3 294 329 262
3 231 330 295
3 331 199 296
3 297 298 267
3 237 298 332
3 299 268 310
3 300 238 299
3 333 297 269
3 335 240 301
3 241 240 302
3 271 302 336
3 337 303 272
3 271 338 273
3 339 175 304
3 340 275 305
3 275 341 306
3 308 175 339
3 342 309 279
3 310 237 332
3 311 223 343
3 220 313 347
3 220 347 314
3 315 348 284
3 349 223 316
3 254 318 319
3 288 319 320
3 288 320 290
3 259 350 321
3 350 291 321
3 351 322 291
3 324 260 322
3 325 195 323
3 352 323 292
3 350 259 325
3 326 199 354
3 231 328 330
3 357 329 294
3 358 199 331
3 298 297 359
3 298 360 332
3 332 299 310
3 299 334 300
3 333 361 297
3 362 240 335
3 302 240 363
3 271 336 365
3 337 366 303
3 271 367 338
3 275 340 341
3 306 341 368
3 306 368 342
3 342 368 309
3 343 223 369
3 344 312 345
3 312 370 346
3 371 348 315
3 369 223 349
3 291 350 351
3 322 351 372
3 322 353 324
3 323 350 325
3 352 373 323
3 354 199 358
3 374 327 355
3 327 375 356
3 357 376 329
3 377 298 359
3 360 298 378
3 299 332 360
3 299 379 334
3 380 361 333
3 381 240 362
3 363 240 382
3 271 365 367
3 385 366 337
3 312 344 370
3 346 370 386
3 346 386 371
3 371 386 348
3 351 350 387
3 322 372 389
3 322 390 353
3 350 323 391
3 392 373 352
3 327 374 375
3 356 375 376
3 356 376 357
3 393 298 377
3 378 298 394
3 299 360 396
3 299 397 379
3 380 398 361
3 382 240 381
3 400 364 383
3 364 401 384
3 385 399 366
3 387 350 402
3 322 389 406
3 322 406 390
3 407 350 391
3 392 408 373
3 409 298 393
3 394 298 409
3 299 396 412
3 299 412 397
3 413 398 380
3 364 400 401
3 384 401 399
3 384 399 385
3 402 350 414
3 403 388 404
3 388 415 405
3 417 350 407
3 416 408 392
3 410 411 395
3 413 418 398
3 414 350 417
3 388 403 415
3 405 415 421
3 405 421 416
3 416 421 408
3 411 410 419
3 411 419 420
3 420 418 413
3 420 419 418
3 5 3 0
3 3 5 10
3 9 10 5
3 8 21 14
3 16 24 9
3 10 9 24
3 21 8 28
3 29 14 21
3 14 29 22
3 23 28 8
3 22 31 16
3 24 16 31
3 25 32 11
3 31 22 29
3 30 36 23
3 28 23 36
3 32 25 40
3 38 37 30
3 36 30 37
3 39 40 25
3 37 38 43
3 44 43 38
3 43 44 39
3 40 39 44
3 125 81 101
3 81 125 124
3 163 112 138
3 152 179 100
3 181 124 125
3 112 163 162
3 145 201 169
3 211 150 178
3 124 181 180
3 179 152 212
3 193 225 137
3 227 162 163
3 233 167 198
3 200 235 145
3 201 145 235
3 236 169 201
3 169 236 202
3 150 211 210
3 213 212 152
3 214 180 181
3 252 190 222
3 192 254 224
3 162 227 226
3 225 193 256
3 167 233 232
3 234 265 200
3 235 200 265
3 247 202 236
3 202 247 214
3 273 207 242
3 245 243 177
3 209 275 244
3 278 210 211
3 212 213 246
3 180 214 247
3 190 252 251
3 253 287 192
3 254 192 287
3 288 224 254
3 224 288 255
3 257 256 193
3 258 226 227
3 262 263 197
3 295 232 233
3 264 266 234
3 265 234 266
3 207 273 272
3 243 245 274
3 275 209 305
3 306 244 275
3 244 306 276
3 277 305 209
3 210 278 279
3 246 280 264
3 280 246 213
3 250 312 283
3 284 285 221
3 314 251 252
3 286 318 253
3 287 253 318
3 290 255 288
3 255 290 258
3 256 257 289
3 226 258 290
3 261 327 293
3 232 295 294
3 263 262 296
3 266 264 280
3 334 269 300
3 303 301 239
3 338 272 273
3 309 274 245
3 274 309 304
3 342 276 306
3 276 342 307
3 308 340 277
3 305 277 340
3 307 279 278
3 344 250 311
3 312 250 345
3 346 283 312
3 283 346 313
3 251 314 315
3 285 284 316
3 317 319 286
3 318 286 319
3 289 320 317
3 320 289 257
3 353 292 324
3 326 355 261
3 327 261 355
3 356 293 327
3 293 356 328
3 329 296 262
3 330 294 295
3 296 329 331
3 269 334 333
3 301 303 335
3 302 364 336
3 272 338 337
3 304 368 339
3 368 304 309
3 279 307 342
3 339 341 308
3 340 308 341
3 343 344 311
3 250 344 345
3 371 313 346
3 313 371 347
3 347 315 314
3 348 316 284
3 316 348 349
3 319 317 320
3 292 353 352
3 354 374 326
3 355 326 374
3 357 328 356
3 328 357 330
3 294 330 357
3 331 376 358
3 376 331 329
3 361 359 297
3 379 333 334
3 366 335 303
3 335 366 362
3 363 383 302
3 364 302 383
3 384 336 364
3 336 384 365
3 367 337 338
3 341 339 368
3 369 370 343
3 344 343 370
3 315 347 371
3 349 386 369
3 386 349 348
3 351 388 372
3 373 391 323
3 390 352 353
3 358 375 354
3 374 354 375
3 375 358 376
3 359 361 377
3 378 395 360
3 333 379 380
3 362 399 381
3 399 362 366
3 382 400 363
3 383 363 400
3 385 365 384
3 365 385 367
3 337 367 385
3 370 369 386
3 403 351 387
3 388 351 404
3 405 372 388
3 372 405 389
3 352 390 392
3 391 373 407
3 398 377 361
3 377 398 393
3 394 410 378
3 395 378 410
3 411 360 395
3 360 411 396
3 397 380 379
3 381 401 382
3 401 381 399
3 400 382 401
3 402 403 387
3 351 403 404
3 416 389 405
3 389 416 406
3 406 392 390
3 408 407 373
3 393 418 409
3 418 393 398
3 409 419 394
3 410 394 419
3 420 396 411
3 396 420 412
3 412 413 397
3 380 397 413
3 414 415 402
3 403 402 415
3 392 406 416
3 407 408 417
3 419 409 418
3 413 412 420
3 417 421 414
3 415 414 421
3 421 417 408
3 2 1 0
3 3 0 1
3 2 4 1
3 0 5 2
3 1 6 3
3 7 1 4
3 4 2 8
3 5 9 2
3 3 6 11
3 6 1 12
3 1 7 12
3 7 4 13
3 14 8 2
3 8 15 4
3 9 16 2
3 3 11 10
3 11 6 17
3 12 18 6
3 12 7 19
3 20 13 4
3 13 19 7
3 22 14 2
3 20 4 15
3 23 15 8
3 16 22 2
3 11 25 10
3 17 6 13
3 17 15 11
3 26 6 18
3 12 19 18
3 13 20 17
3 19 13 27
3 15 17 20
3 30 15 23
3 10 25 24
3 6 27 13
3 32 11 15
3 26 33 6
3 18 34 26
3 35 18 19
3 27 33 19
3 28 21 36
3 29 37 21
3 38 15 30
3 24 39 31
3 25 39 24
3 27 6 33
3 32 15 40
3 26 34 33
3 18 41 34
3 18 35 42
3 35 19 33
3 37 36 21
3 43 37 29
3 31 43 29
3 44 15 38
3 39 43 31
3 40 15 44
3 34 45 33
3 34 41 46
3 41 18 42
3 35 47 42
3 35 33 47
3 33 45 48
3 45 34 49
3 46 41 50
3 46 51 34
3 42 52 41
3 47 53 42
3 48 47 33
3 45 54 48
3 55 49 34
3 45 49 56
3 50 41 57
3 46 50 56
3 55 34 51
3 46 56 51
3 58 41 52
3 52 42 59
3 53 60 42
3 53 47 61
3 48 62 47
3 48 54 63
3 45 56 54
3 55 64 49
3 65 56 49
3 57 41 66
3 57 67 50
3 50 68 56
3 51 69 55
3 65 51 56
3 70 41 58
3 58 52 71
3 72 59 42
3 52 59 73
3 60 74 42
3 53 63 60
3 75 61 47
3 53 61 63
3 75 47 62
3 48 63 62
3 54 76 63
3 77 54 56
3 78 49 64
3 69 64 55
3 49 78 65
3 66 41 79
3 57 66 67
3 80 50 67
3 56 68 77
3 50 80 68
3 69 51 81
3 51 65 78
3 82 41 70
3 70 58 83
3 71 52 73
3 71 84 58
3 59 72 85
3 42 74 72
3 86 73 59
3 74 60 87
3 88 60 63
3 75 89 61
3 90 63 61
3 62 91 75
3 90 62 63
3 63 76 88
3 76 54 92
3 77 93 54
3 64 94 78
3 64 69 94
3 79 41 95
3 79 96 66
3 97 67 66
3 67 98 80
3 68 96 77
3 99 68 80
3 81 51 100
3 81 101 69
3 102 51 78
3 103 41 82
3 70 83 82
3 83 58 104
3 71 73 105
3 84 86 58
3 71 105 84
3 106 85 72
3 59 85 86
3 107 72 74
3 86 108 73
3 109 87 60
3 74 87 107
3 88 110 60
3 111 61 89
3 91 89 75
3 61 111 90
3 91 62 112
3 62 90 111
3 76 113 88
3 114 92 54
3 76 92 115
3 114 54 93
3 93 77 116
3 117 78 94
3 118 94 69
3 95 41 119
3 79 95 120
3 68 66 96
3 79 120 96
3 67 97 121
3 97 66 99
3 98 122 80
3 98 67 123
3 77 96 115
3 68 99 66
3 80 122 99
3 100 51 102
3 81 100 124
3 118 69 101
3 78 117 102
3 126 41 103
3 82 127 103
3 103 82 126
3 127 82 83
3 58 85 104
3 83 104 128
3 129 105 73
3 58 86 85
3 84 130 86
3 130 84 105
3 85 106 131
3 72 132 106
3 133 72 107
3 129 73 108
3 108 86 130
3 109 134 87
3 109 60 110
3 135 107 87
3 110 88 135
3 89 136 111
3 89 91 136
3 112 62 137
3 112 138 91
3 139 62 111
3 113 140 88
3 76 115 113
3 114 141 92
3 116 115 92
3 93 142 114
3 115 116 77
3 93 116 143
3 117 94 144
3 94 118 145
3 119 41 132
3 119 146 95
3 147 120 95
3 148 96 120
3 99 121 97
3 123 67 121
3 122 98 149
3 98 123 150
3 96 151 115
3 121 99 122
3 102 144 100
3 100 152 124
3 101 125 118
3 144 102 117
3 126 153 41
3 103 127 154
3 82 127 126
3 83 128 127
3 131 104 85
3 155 128 104
3 105 129 130
3 156 131 106
3 106 132 156
3 132 72 133
3 157 133 107
3 108 130 129
3 158 87 134
3 159 134 109
3 110 159 109
3 107 135 88
3 87 158 135
3 110 135 158
3 160 111 136
3 161 136 91
3 137 62 139
3 112 137 162
3 161 91 138
3 139 111 164
3 88 140 107
3 140 113 165
3 166 113 115
3 143 92 141
3 142 141 114
3 92 143 116
3 142 93 167
3 168 93 143
3 145 144 94
3 169 145 118
3 41 170 132
3 119 132 171
3 151 95 146
3 119 171 146
3 120 147 172
3 147 95 173
3 148 173 96
3 120 174 148
3 123 121 175
3 176 149 98
3 122 149 121
3 123 177 150
3 150 178 98
3 115 151 166
3 151 96 173
3 179 100 144
3 124 152 180
3 125 181 118
3 170 41 153
3 126 182 153
3 127 183 154
3 127 183 154
3 127 154 126
3 184 127 128
3 104 131 183
3 128 155 184
3 155 104 185
3 156 186 131
3 156 132 187
3 133 188 132
3 133 157 146
3 157 107 140
3 134 189 158
3 134 159 189
3 159 110 190
3 191 110 158
3 160 164 111
3 160 136 164
3 136 161 192
3 139 164 137
3 137 193 162
3 138 163 161
3 194 165 113
3 140 165 157
3 166 195 113
3 141 196 143
3 141 142 196
3 167 93 197
3 167 198 142
3 197 93 168
3 168 143 199
3 200 144 145
3 202 169 118
3 187 132 170
3 203 171 132
3 151 173 95
3 151 146 166
3 204 146 171
3 173 172 147
3 205 120 172
3 148 206 173
3 174 206 148
3 174 120 207
3 208 175 121
3 123 175 177
3 149 176 209
3 176 98 178
3 208 121 149
3 150 177 210
3 179 144 212
3 152 213 180
3 181 214 118
3 170 153 187
3 215 153 182
3 216 182 126
3 154 183 217
3 154 183 217
3 183 127 185
3 154 216 126
3 184 185 127
3 218 183 131
3 183 185 104
3 185 184 155
3 218 131 186
3 187 186 156
3 203 132 188
3 133 146 188
3 166 146 157
3 219 158 189
3 220 189 159
3 190 110 221
3 190 222 159
3 221 110 191
3 191 158 223
3 192 164 136
3 224 192 161
3 225 137 164
3 162 193 226
3 163 227 161
3 194 228 165
3 194 113 195
3 229 157 165
3 166 157 195
3 230 143 196
3 231 196 142
3 167 197 232
3 231 142 198
3 168 199 197
3 230 199 143
3 234 144 200
3 214 202 118
3 171 203 237
3 204 188 146
3 171 238 204
3 172 173 206
3 239 120 205
3 205 172 240
3 206 174 241
3 207 120 239
3 207 242 174
3 208 149 175
3 243 177 175
3 244 209 176
3 209 175 149
3 178 211 176
3 177 245 210
3 212 144 246
3 180 213 247
3 215 187 153
3 182 217 215
3 216 248 182
3 217 183 215
3 217 183 215
3 154 217 249
3 154 249 216
3 218 215 183
3 218 215 183
3 218 186 215
3 187 215 186
3 188 237 203
3 219 223 158
3 219 189 223
3 189 220 250
3 220 159 222
3 190 221 251
3 191 223 221
3 253 164 192
3 255 224 161
3 225 164 256
3 193 257 226
3 227 258 161
3 259 165 228
3 260 228 194
3 195 260 194
3 229 195 157
3 165 259 229
3 230 196 199
3 196 231 261
3 197 262 232
3 198 233 231
3 263 197 199
3 264 144 234
3 235 201 265
3 236 266 201
3 267 171 237
3 204 268 188
3 238 268 204
3 238 171 269
3 206 241 172
3 205 240 239
3 270 240 172
3 271 241 174
3 207 239 272
3 271 174 242
3 243 175 274
3 276 244 176
3 277 175 209
3 211 278 176
3 210 245 279
3 246 144 264
3 213 280 247
3 182 281 217
3 281 182 248
3 248 216 249
3 282 249 217
3 237 188 268
3 250 223 189
3 283 250 220
3 222 252 220
3 221 284 251
3 285 221 223
3 286 164 253
3 258 255 161
3 256 164 289
3 226 257 290
3 228 291 259
3 228 260 291
3 260 195 292
3 195 229 259
3 261 199 196
3 293 261 231
3 232 262 294
3 233 295 231
3 263 199 296
3 266 265 201
3 280 266 236
3 247 280 236
3 297 171 267
3 267 237 298
3 238 299 268
3 269 171 297
3 269 300 238
3 270 172 241
3 301 239 240
3 270 241 240
3 241 271 302
3 239 303 272
3 242 273 271
3 274 175 304
3 307 276 176
3 308 175 277
3 278 307 176
3 245 309 279
3 282 217 281
3 281 248 282
3 249 282 248
3 268 310 237
3 311 223 250
3 313 283 220
3 252 314 220
3 251 284 315
3 285 223 316
3 317 164 286
3 287 254 318
3 288 319 254
3 289 164 317
3 257 320 290
3 321 259 291
3 322 291 260
3 292 195 323
3 292 324 260
3 325 195 259
3 326 199 261
3 328 293 231
3 262 329 294
3 295 330 231
3 296 199 331
3 267 298 297
3 332 298 237
3 310 268 299
3 299 238 300
3 269 297 333
3 301 240 335
3 302 240 241
3 336 302 271
3 272 303 337
3 273 338 271
3 304 175 339
3 305 275 340
3 306 341 275
3 339 175 308
3 279 309 342
3 332 237 310
3 343 223 311
3 347 313 220
3 314 347 220
3 284 348 315
3 316 223 349
3 319 318 254
3 320 319 288
3 290 320 288
3 321 350 259
3 321 291 350
3 291 322 351
3 322 260 324
3 323 195 325
3 292 323 352
3 325 259 350
3 354 199 326
3 330 328 231
3 294 329 357
3 331 199 358
3 359 297 298
3 332 360 298
3 310 299 332
3 300 334 299
3 297 361 333
3 335 240 362
3 363 240 302
3 365 336 271
3 303 366 337
3 338 367 271
3 341 340 275
3 368 341 306
3 342 368 306
3 309 368 342
3 369 223 343
3 345 312 344
3 346 370 312
3 315 348 371
3 349 223 369
3 351 350 291
3 372 351 322
3 324 353 322
3 325 350 323
3 323 373 352
3 358 199 354
3 355 327 374
3 356 375 327
3 329 376 357
3 359 298 377
3 378 298 360
3 360 332 299
3 334 379 299
3 333 361 380
3 362 240 381
3 382 240 363
3 367 365 271
3 337 366 385
3 370 344 312
3 386 370 346
3 371 386 346
3 348 386 371
3 387 350 351
3 389 372 322
3 353 390 322
3 391 323 350
3 352 373 392
3 375 374 327
3 376 375 356
3 357 376 356
3 377 298 393
3 394 298 378
3 396 360 299
3 379 397 299
3 361 398 380
3 381 240 382
3 383 364 400
3 384 401 364
3 366 399 385
3 402 350 387
3 406 389 322
3 390 406 322
3 391 350 407
3 373 408 392
3 393 298 409
3 409 298 394
3 412 396 299
3 397 412 299
3 380 398 413
3 401 400 364
3 399 401 384
3 385 399 384
3 414 350 402
3 404 388 403
3 405 415 388
3 407 350 417
3 392 408 416
3 395 411 410
3 398 418 413
3 417 350 414
3 415 403 388
3 421 415 405
3 416 421 405
3 408 421 416
3 419 410 411
3 420 419 411
3 413 418 420
3 418 419 420
3 0 3 5
3 10 5 3
3 5 10 9
3 14 21 8
3 9 24 16
3 24 9 10
3 28 8 21
3 21 14 29
3 22 29 14
3 8 28 23
3 16 31 22
3 31 16 24
3 11 32 25
3 29 22 31
3 23 36 30
3 36 23 28
3 40 25 32
3 30 37 38
3 37 30 36
3 25 40 39
3 43 38 37
3 38 43 44
3 39 44 43
3 44 39 40
3 101 81 125
3 124 125 81
3 138 112 163
3 100 179 152
3 125 124 181
3 162 163 112
3 169 201 145
3 178 150 211
3 180 181 124
3 212 152 179
3 137 225 193
3 163 162 227
3 198 167 233
3 145 235 200
3 235 145 201
3 201 169 236
3 202 236 169
3 210 211 150
3 152 212 213
3 181 180 214
3 222 190 252
3 224 254 192
3 226 227 162
3 256 193 225
3 232 233 167
3 200 265 234
3 265 200 235
3 236 202 247
3 214 247 202
3 242 207 273
3 177 243 245
3 244 275 209
3 211 210 278
3 246 213 212
3 247 214 180
3 251 252 190
3 192 287 253
3 287 192 254
3 254 224 288
3 255 288 224
3 193 256 257
3 227 226 258
3 197 263 262
3 233 232 295
3 234 266 264
3 266 234 265
3 272 273 207
3 274 245 243
3 305 209 275
3 275 244 306
3 276 306 244
3 209 305 277
3 279 278 210
3 264 280 246
3 213 246 280
3 283 312 250
3 221 285 284
3 252 251 314
3 253 318 286
3 318 253 287
3 288 255 290
3 258 290 255
3 289 257 256
3 290 258 226
3 293 327 261
3 294 295 232
3 296 262 263
3 280 264 266
3 300 269 334
3 239 301 303
3 273 272 338
3 245 274 309
3 304 309 274
3 306 276 342
3 307 342 276
3 277 340 308
3 340 277 305
3 278 279 307
3 311 250 344
3 345 250 312
3 312 283 346
3 313 346 283
3 315 314 251
3 316 284 285
3 286 319 317
3 319 286 318
3 317 320 289
3 257 289 320
3 324 292 353
3 261 355 326
3 355 261 327
3 327 293 356
3 328 356 293
3 262 296 329
3 295 294 330
3 331 329 296
3 333 334 269
3 335 303 301
3 336 364 302
3 337 338 272
3 339 368 304
3 309 304 368
3 342 307 279
3 308 341 339
3 341 308 340
3 311 344 343
3 345 344 250
3 346 313 371
3 347 371 313
3 314 315 347
3 284 316 348
3 349 348 316
3 320 317 319
3 352 353 292
3 326 374 354
3 374 326 355
3 356 328 357
3 330 357 328
3 357 330 294
3 358 376 331
3 329 331 376
3 297 359 361
3 334 333 379
3 303 335 366
3 362 366 335
3 302 383 363
3 383 302 364
3 364 336 384
3 365 384 336
3 338 337 367
3 368 339 341
3 343 370 369
3 370 343 344
3 371 347 315
3 369 386 349
3 348 349 386
3 372 388 351
3 323 391 373
3 353 352 390
3 354 375 358
3 375 354 374
3 376 358 375
3 377 361 359
3 360 395 378
3 380 379 333
3 381 399 362
3 366 362 399
3 363 400 382
3 400 363 383
3 384 365 385
3 367 385 365
3 385 367 337
3 386 369 370
3 387 351 403
3 404 351 388
3 388 372 405
3 389 405 372
3 392 390 352
3 407 373 391
3 361 377 398
3 393 398 377
3 378 410 394
3 410 378 395
3 395 360 411
3 396 411 360
3 379 380 397
3 382 401 381
3 399 381 401
3 401 382 400
3 387 403 402
3 404 403 351
3 405 389 416
3 406 416 389
3 390 392 406
3 373 407 408
3 409 418 393
3 398 393 418
3 394 419 409
3 419 394 410
3 411 396 420
3 412 420 396
3 397 413 412
3 413 397 380
3 402 415 414
3 415 402 403
3 416 406 392
3 417 408 407
3 418 409 419
3 420 412 413
3 414 421 417
3 421 414 415
3 408 417 421
3 422 423 424
3 423 422 425
3 427 422 424
3 425 422 428
3 422 427 429
3 428 422 430
3 426 429 427
3 428 430 434
3 429 426 432
3 429 431 433
3 428 434 437
3 429 432 431
3 436 431 435
3 433 431 436
3 437 434 439
3 436 435 438
3 437 439 441
3 438 435 440
3 441 439 443
3 438 440 442
3 441 443 445
3 442 440 444
3 445 443 446
3 442 444 448
3 445 446 449
3 448 444 447
3 449 446 451
3 448 447 450
3 449 451 453
3 450 447 452
3 453 451 455
3 450 452 454
3 453 455 457
3 454 452 456
3 457 455 459
3 454 456 458
3 457 459 461
3 458 456 460
3 461 459 463
3 458 460 462
3 461 463 465
3 462 460 464
3 465 463 466
3 462 464 468
3 465 466 467
3 468 464 469
3 467 466 471
3 467 472 469
3 468 469 470
3 467 471 473
3 472 467 473
3 470 469 472
3 473 471 475
3 476 472 473
3 470 472 474
3 473 475 476
3 472 476 477
3 474 472 477
3 477 475 474
3 475 477 476
3 426 424 423
3 425 426 423
3 424 426 427
3 431 425 428
3 426 425 432
3 433 422 429
3 422 433 430
3 425 431 432
3 428 435 431
3 436 430 433
3 430 436 434
3 435 428 437
3 438 434 436
3 437 440 435
3 434 438 439
3 440 437 441
3 442 439 438
3 441 444 440
3 439 442 443
3 444 441 445
3 442 446 443
3 445 447 444
3 446 442 448
3 447 445 449
3 450 446 448
3 449 452 447
3 446 450 451
3 452 449 453
3 454 451 450
3 453 456 452
3 451 454 455
3 456 453 457
3 458 455 454
3 457 460 456
3 455 458 459
3 460 457 461
3 462 459 458
3 461 464 460
3 459 462 463
3 464 461 465
3 462 466 463
3 467 464 465
3 466 462 468
3 464 467 469
3 470 466 468
3 466 470 471
3 474 471 470
3 471 474 475
3 424 423 422
3 425 422 423
3 424 422 427
3 428 422 425
3 429 427 422
3 430 422 428
3 427 429 426
3 434 430 428
3 432 426 429
3 433 431 429
3 437 434 428
3 431 432 429
3 435 431 436
3 436 431 433
3 439 434 437
3 438 435 436
3 441 439 437
3 440 435 438
3 443 439 441
3 442 440 438
3 445 443 441
3 444 440 442
3 446 443 445
3 448 444 442
3 449 446 445
3 447 444 448
3 451 446 449
3 450 447 448
3 453 451 449
3 452 447 450
3 455 451 453
3 454 452 450
3 457 455 453
3 456 452 454
3 459 455 457
3 458 456 454
3 461 459 457
3 460 456 458
3 463 459 461
3 462 460 458
3 465 463 461
3 464 460 462
3 466 463 465
3 468 464 462
3 467 466 465
3 469 464 468
3 471 466 467
3 469 472 467
3 470 469 468
3 473 471 467
3 473 467 472
3 472 469 470
3 475 471 473
3 473 472 476
3 474 472 470
3 476 475 473
3 477 476 472
3 477 472 474
3 474 475 477
3 476 477 475
3 423 424 426
3 423 426 425
3 427 426 424
3 428 425 431
3 432 425 426
3 429 422 433
3 430 433 422
3 432 431 425
3 431 435 428
3 433 430 436
3 434 436 430
3 437 428 435
3 436 434 438
3 435 440 437
3 439 438 434
3 441 437 440
3 438 439 442
3 440 444 441
3 443 442 439
3 445 441 444
3 443 446 442
3 444 447 445
3 448 442 446
3 449 445 447
3 448 446 450
3 447 452 449
3 451 450 446
3 453 449 452
3 450 451 454
3 452 456 453
3 455 454 451
3 457 453 456
3 454 455 458
3 456 460 457
3 459 458 455
3 461 457 460
3 458 459 462
3 460 464 461
3 463 462 459
3 465 461 464
3 463 466 462
3 465 464 467
3 468 462 466
3 469 467 464
3 468 466 470
3 471 470 466
3 470 471 474
3 475 474 471
3 478 479 480
3 479 478 481
3 482 480 479
3 480 483 478
3 478 484 481
3 484 479 481
3 480 482 485
3 479 484 482
3 483 480 485
3 484 478 483
3 484 485 482
3 485 484 483
3 480 479 478
3 481 478 479
3 479 480 482
3 478 483 480
3 481 484 478
3 481 479 484
3 485 482 480
3 482 484 479
3 485 480 483
3 483 478 484
3 482 485 484
3 483 484 485
3 486 487 488
3 487 486 489
3 490 488 487
3 488 491 486
3 486 492 489
3 492 487 489
3 488 490 493
3 487 492 490
3 491 488 493
3 492 486 491
3 492 493 490
3 493 492 491
3 488 487 486
3 489 486 487
3 487 488 490
3 486 491 488
3 489 492 486
3 489 487 492
3 493 490 488
3 490 492 487
3 493 488 491
3 491 486 492
3 490 493 492
3 491 492 493
3 494 495 496
3 498 496 495
3 494 496 499
3 500 496 498
3 501 499 496
3 499 501 497
3 503 496 500
3 502 497 501
3 506 503 500
3 505 504 501
3 504 502 501
3 509 506 500
3 507 504 508
3 508 504 505
3 511 506 509
3 510 507 508
3 513 511 509
3 512 507 510
3 515 511 513
3 514 512 510
3 517 515 513
3 516 512 514
3 518 515 517
3 519 516 514
3 521 518 517
3 520 516 519
3 523 518 521
3 522 520 519
3 525 523 521
3 524 520 522
3 527 523 525
3 526 524 522
3 529 527 525
3 528 524 526
3 531 527 529
3 530 528 526
3 533 531 529
3 532 528 530
3 535 531 533
3 534 532 530
3 537 535 533
3 536 532 534
3 538 535 537
3 539 536 534
3 540 538 537
3 541 536 539
3 543 538 540
3 542 541 539
3 541 544 540
3 545 543 540
3 544 541 542
3 545 540 544
3 547 543 545
3 546 544 542
3 545 544 548
3 548 547 545
3 549 544 546
3 549 548 544
3 546 547 549
3 548 549 547
3 495 494 497
3 499 497 494
3 495 497 498
3 502 498 497
3 500 498 504
3 501 496 505
3 502 504 498
3 503 505 496
3 504 507 500
3 505 503 508
3 506 508 503
3 509 500 507
3 508 506 510
3 507 512 509
3 511 510 506
3 513 509 512
3 510 511 514
3 512 516 513
3 515 514 511
3 517 513 516
3 515 518 514
3 516 520 517
3 519 514 518
3 521 517 520
3 519 518 522
3 520 524 521
3 523 522 518
3 525 521 524
3 522 523 526
3 524 528 525
3 527 526 523
3 529 525 528
3 526 527 530
3 528 532 529
3 531 530 527
3 533 529 532
3 530 531 534
3 532 536 533
3 535 534 531
3 537 533 536
3 535 538 534
3 537 536 540
3 539 534 538
3 541 540 536
3 539 538 542
3 543 542 538
3 542 543 546
3 547 546 543
3 496 495 494
3 495 496 498
3 499 496 494
3 498 496 500
3 496 499 501
3 497 501 499
3 500 496 503
3 501 497 502
3 500 503 506
3 501 504 505
3 501 502 504
3 500 506 509
3 508 504 507
3 505 504 508
3 509 506 511
3 508 507 510
3 509 511 513
3 510 507 512
3 513 511 515
3 510 512 514
3 513 515 517
3 514 512 516
3 517 515 518
3 514 516 519
3 517 518 521
3 519 516 520
3 521 518 523
3 519 520 522
3 521 523 525
3 522 520 524
3 525 523 527
3 522 524 526
3 525 527 529
3 526 524 528
3 529 527 531
3 526 528 530
3 529 531 533
3 530 528 532
3 533 531 535
3 530 532 534
3 533 535 537
3 534 532 536
3 537 535 538
3 534 536 539
3 537 538 540
3 539 536 541
3 540 538 543
3 539 541 542
3 540 544 541
3 540 543 545
3 542 541 544
3 544 540 545
3 545 543 547
3 542 544 546
3 548 544 545
3 545 547 548
3 546 544 549
3 544 548 549
3 549 547 546
3 547 549 548
3 497 494 495
3 494 497 499
3 498 497 495
3 497 498 502
3 504 498 500
3 505 496 501
3 498 504 502
3 496 505 503
3 500 507 504
3 508 503 505
3 503 508 506
3 507 500 509
3 510 506 508
3 509 512 507
3 506 510 511
3 512 509 513
3 514 511 510
3 513 516 512
3 511 514 515
3 516 513 517
3 514 518 515
3 517 520 516
3 518 514 519
3 520 517 521
3 522 518 519
3 521 524 520
3 518 522 523
3 524 521 525
3 526 523 522
3 525 528 524
3 523 526 527
3 528 525 529
3 530 527 526
3 529 532 528
3 527 530 531
3 532 529 533
3 534 531 530
3 533 536 532
3 531 534 535
3 536 533 537
3 534 538 535
3 540 536 537
3 538 534 539
3 536 540 541
3 542 538 539
3 538 542 543
3 546 543 542
3 543 546 547
