ply
format ascii 1.0
comment Generated by PyMesh
element vertex 613
property double x
property double y
property double z
element face 2274
property list uchar int vertex_indices
end_header
0.0458809 0.313689 -0.188033
0.0458809 0.143116 -0.0113463
0.0458809 0.143116 -0.188033
0.0458809 0.313689 -0.0113463
0.036099 0.313689 0.0118863
0.036099 0.143116 0.188572
0.036099 0.143116 0.0118863
0.036099 0.313689 0.188572
0.036099 0.0850358 0.0118857
0.036099 -0.0855367 0.188572
0.036099 -0.0855367 0.0118857
0.036099 0.0850358 0.188572
0.0458809 0.0850358 -0.188033
0.0458809 -0.0855367 -0.0113457
0.0458809 -0.0855367 -0.188033
0.0458809 0.0850358 -0.0113457
-0.0609934 0.367041 0.240736
1.23418e-09 0.367041 0.240736
-0.0612068 0.367096 0.24095
0.0609934 0.367041 0.240736
-0.0612068 0.367096 -0.24095
0.0607748 0.367009 0.240518
0.0612068 0.367096 0.24095
-0.0609934 0.367041 -0.240737
-0.0614128 0.367176 -0.241156
1.23418e-09 0.367009 0.240518
0.0609934 0.367041 -0.240737
1.23418e-09 0.367096 0.24095
0.0612068 0.367096 -0.24095
-0.0607748 0.367009 0.240518
-0.0614128 0.367176 0.241156
0.0607748 0.367009 -0.240518
0.0614129 0.367176 -0.241156
-0.0607748 0.367009 -0.240518
-0.0616083 0.367278 -0.241351
0.0605541 0.367003 0.240297
0.0614129 0.367176 0.241156
-0.0605541 0.367003 0.240297
-0.0616083 0.367278 0.241351
1.23418e-09 0.367003 0.240297
0.0605541 0.367003 -0.240297
1.23418e-09 0.367176 0.241156
0.0616077 0.367278 -0.241351
-0.0605541 0.367003 -0.240297
-0.0617905 0.367404 -0.241533
0.059331 0.367003 0.239074
0.0616077 0.367278 0.241351
-0.0593316 0.367003 0.239074
-0.0617905 0.367404 0.241533
0.059331 0.367003 -0.239074
0.0617899 0.367404 -0.241533
1.23418e-09 0.367003 0.239074
-0.0593316 0.367003 -0.239074
1.23418e-09 0.367278 0.241351
-0.0619575 0.367548 -0.2417
0.059331 0.34744 0.239074
0.0617899 0.367404 0.241533
1.23418e-09 0.34744 0.239074
-0.0593316 0.34744 -0.239074
-0.0619575 0.367548 0.2417
0.059331 0.34744 -0.239074
0.0619568 0.367548 -0.2417
-0.0593316 0.34744 0.239074
1.23418e-09 0.367404 0.241533
-0.0621059 0.36771 0.241849
0.0556628 0.34744 0.235406
0.0619568 0.367548 0.2417
-0.0556635 0.34744 0.235406
-0.0621059 0.36771 -0.241849
1.23418e-09 0.367548 0.2417
0.0556628 0.34744 -0.235406
0.0621053 0.36771 -0.241849
1.23418e-09 0.34744 0.235406
-0.0556635 0.34744 -0.235406
-0.0622351 0.36789 0.241978
1.23418e-09 0.36771 0.241849
0.0556628 0.339691 0.213857
0.0621053 0.36771 0.241849
-0.0622351 0.36789 -0.241978
0.0556628 0.117763 0.213857
0.0556628 0.339691 -0.214343
0.0622351 0.36789 -0.241978
-0.0623438 0.368082 0.242087
1.23418e-09 0.36789 0.241978
0.0556628 0.109205 0.213857
0.0409903 0.117763 0.213857
0.0556628 0.117763 -0.214343
0.0507722 0.339691 0.00819568
0.0622351 0.36789 0.241978
-0.0623438 0.368082 -0.242087
0.0556628 -0.110278 0.213857
0.0409903 0.339691 0.213857
0.0507722 0.117763 0.00819568
0.0556628 0.109205 -0.214343
0.0507722 0.339691 -0.214343
0.0409903 0.339691 0.00819568
0.0623431 0.368082 -0.242087
-0.0624286 0.368286 0.242171
1.23418e-09 0.368082 0.242087
0.0556628 -0.124951 0.213857
0.0409903 -0.110278 0.213857
0.0409903 0.143116 0.188572
0.0409903 0.117763 0.00819568
0.0556628 -0.110278 -0.214343
0.0507722 0.117763 -0.214343
0.0507722 0.313689 -0.0113463
0.0623431 0.368082 0.242087
-0.0624286 0.368286 -0.242171
0.0556628 -0.344433 0.213857
0.0409903 0.109205 0.213857
0.0507722 -0.110278 0.00819568
0.0507722 0.109205 0.00819568
0.0409903 0.143116 0.0118857
0.0409903 0.22504 0.188572
0.0409903 0.313689 0.188572
0.0556628 -0.124951 -0.214343
0.0507722 0.109205 -0.214343
0.0507722 0.143116 -0.188033
0.0507722 0.143116 -0.0113463
0.0507722 0.232988 -0.0113463
0.0507722 0.313689 -0.0957009
0.062428 0.368286 -0.242171
-0.0624896 0.368498 0.242232
1.23418e-09 0.368286 0.242171
0.0556628 -0.350746 0.235406
0.0409903 -0.344433 0.213857
0.0409903 -0.0849251 0.188572
0.0409903 0.109205 0.00819568
0.0409903 -0.110278 0.00819568
0.0409903 0.143116 0.0956585
0.036099 0.143116 0.188572
0.0409903 0.232988 0.188572
0.0409903 0.313689 0.104217
0.0556628 -0.344433 -0.214343
0.0507722 -0.110278 -0.214343
0.0507722 0.22504 -0.188033
0.0507722 0.22504 -0.0113463
0.0458809 0.232988 -0.0113463
0.0507722 0.313689 -0.10426
0.0458809 0.313689 -0.0957009
0.062428 0.368286 0.242171
-0.0624896 0.368498 -0.242233
0.0409903 -0.124951 0.213857
0.0507722 -0.344433 0.00819568
0.0507722 -0.124951 0.00819568
0.0409903 -0.0849251 0.0118857
0.0409903 -0.00300156 0.188572
0.0409903 0.0856474 0.188572
0.0507722 0.0850358 -0.0113463
0.036099 0.143116 0.0956585
0.0409903 0.143116 0.104217
0.036099 0.22504 0.188572
0.0409903 0.232988 0.0118857
0.036099 0.232988 0.188572
0.0409903 0.313689 0.0956585
0.036099 0.313689 0.104217
0.0409903 0.22504 0.0118857
0.0556628 -0.350746 -0.235406
0.0507722 -0.124951 -0.214343
0.0507722 -0.0855367 -0.188033
0.0507722 0.232988 -0.188033
0.0458809 0.22504 -0.188033
0.0507722 0.143116 -0.10426
0.0458809 0.143116 -0.0113463
0.0458809 0.313689 -0.0113463
0.0507722 0.232988 -0.0957009
0.0507722 0.313689 -0.188033
0.0624896 0.368498 -0.242233
-0.0626009 0.368908 0.242344
1.23418e-09 0.368498 0.242232
0.0409903 -0.318469 0.189514
0.0409903 -0.124951 0.00819568
0.0409903 -0.344433 0.00819568
0.0409903 -0.0849251 0.0956585
0.036099 -0.0849251 0.188572
0.0409903 0.00494629 0.188572
0.0409903 0.0856474 0.104217
0.0507722 -0.0855367 -0.0113463
0.0507722 0.00433471 -0.0113463
0.0507722 0.0850358 -0.0957009
0.036099 0.143116 0.0118857
0.0409903 0.22504 0.0956585
0.036099 0.22504 0.104217
0.036099 0.143116 0.104217
0.0409903 0.22504 0.104217
0.0409903 0.232988 0.0956585
0.036099 0.313689 0.188572
0.0409903 0.232988 0.104217
0.0409903 0.313689 0.0118857
0.036099 0.22504 0.0118857
0.0507722 -0.344433 -0.214343
0.0507722 -0.00361247 -0.188033
0.0507722 0.22504 -0.10426
0.0458809 0.143116 -0.188033
0.0458809 0.143116 -0.10426
0.0507722 0.143116 -0.0957009
0.0458809 0.22504 -0.0113463
0.0507722 0.22504 -0.0957009
0.0507722 0.232988 -0.10426
0.0458809 0.232988 -0.0957009
0.0458809 0.313689 -0.188033
0.0624896 0.368498 0.242232
-0.0626009 0.368908 -0.242344
0.0565262 -0.351336 -0.236269
0.0409903 -0.318469 0.0134395
0.0409903 -0.144839 0.189514
0.0507722 -0.14813 -0.0145592
0.036099 -0.0849251 0.0956585
0.0409903 -0.0849251 0.104217
0.036099 -0.00300156 0.188572
0.0409903 0.00494629 0.0118857
0.036099 0.00494629 0.188572
0.0409903 0.0856474 0.0956585
0.036099 0.0856474 0.104217
0.0409903 -0.00300156 0.0118857
0.0507722 -0.00361247 -0.0113463
0.0458809 0.00433471 -0.0113463
0.0507722 0.0850358 -0.10426
0.0458809 0.0850358 -0.0957009
0.036099 0.22504 0.0956585
0.036099 0.232988 0.0956585
0.036099 0.232988 0.104217
0.036099 0.313689 0.0118857
0.0507722 -0.321759 -0.190634
0.0507722 0.00433471 -0.188033
0.0458809 -0.00361247 -0.188033
0.0458809 0.22504 -0.10426
0.0458809 0.22504 -0.0957009
0.0458809 0.143116 -0.0957009
0.0458809 0.232988 -0.10426
0.0458809 0.313689 -0.10426
0.0626009 0.368908 -0.242344
-0.0627453 0.369307 0.242488
1.23418e-09 0.368908 0.242344
0.0565262 -0.351336 0.23627
-0.0556635 -0.350746 -0.235406
0.036099 -0.312627 0.0192816
0.036099 -0.312627 0.183673
0.0409903 -0.144839 0.0134395
0.0507722 -0.321759 -0.0145592
0.0507722 -0.14813 -0.190634
0.0507722 -0.0855367 -0.10426
0.036099 -0.0849251 0.0118857
0.0409903 -0.00300156 0.0956585
0.036099 -0.00300156 0.104217
0.036099 -0.0849251 0.104217
0.0409903 -0.00300156 0.104217
0.0409903 0.00494629 0.0956585
0.036099 0.0856474 0.188572
0.0409903 0.00494629 0.104217
0.0409903 0.0856474 0.0118857
0.036099 -0.00300156 0.0118857
0.0458809 -0.0855367 -0.0113463
0.0458809 0.0850358 -0.0113463
0.0507722 0.00433471 -0.0957009
0.0507722 0.0850358 -0.188033
0.036099 0.232988 0.0118857
0.036099 0.313689 0.0956585
0.0507722 -0.00361247 -0.10426
0.0458809 -0.0855367 -0.188033
0.0458809 0.232988 -0.188033
0.0626009 0.368908 0.242344
-0.0627453 0.369307 -0.242488
1.23418e-09 -0.351336 0.23627
0.0573485 -0.351982 -0.237092
-0.0565262 -0.351336 -0.236269
0.036099 -0.150681 0.183673
0.0458809 -0.315918 -0.0204007
0.0458809 -0.153972 -0.0204007
0.0458809 -0.0855367 -0.10426
0.0507722 -0.0855367 -0.0957009
0.036099 -0.00300156 0.0956585
0.036099 0.00494629 0.0956585
0.036099 0.00494629 0.104217
0.036099 0.0856474 0.0118857
0.0458809 -0.00361247 -0.0113463
0.0507722 -0.00361247 -0.0957009
0.0507722 0.00433471 -0.10426
0.0458809 0.00433471 -0.0957009
0.0458809 0.0850358 -0.188033
0.0458809 -0.315918 -0.184792
0.0458809 -0.00361247 -0.10426
0.0627447 0.369307 -0.242488
-0.0629209 0.369692 0.242664
1.23418e-09 0.369307 0.242488
-0.0565262 -0.351336 0.23627
-0.0573491 -0.351982 0.237092
0.0573485 -0.351982 0.237092
-0.0556635 -0.350746 0.235406
0.036099 -0.150681 0.0192816
0.0458809 -0.153972 -0.184792
0.036099 0.00494629 0.0118857
0.036099 0.0856474 0.0956585
0.0458809 -0.00361247 -0.0957009
0.0458809 -0.0855367 -0.0957009
0.0458809 0.00433471 -0.10426
0.0458809 0.0850358 -0.10426
0.0458809 0.00433471 -0.188033
0.0627447 0.369307 0.242488
-0.0629209 0.369692 -0.242664
1.23418e-09 -0.350746 0.235406
1.23418e-09 -0.351982 0.237092
0.058127 -0.352681 -0.237871
-0.0573491 -0.351982 -0.237092
0.0629209 0.369692 -0.242664
-0.0631283 0.370063 0.242871
1.23418e-09 0.369692 0.242664
-0.058127 -0.352681 0.23787
0.058127 -0.352681 0.23787
0.0629209 0.369692 0.242664
-0.0631283 0.370063 -0.242871
-0.058127 -0.352681 -0.237871
1.23418e-09 -0.352681 0.23787
0.0588579 -0.353429 0.238601
0.0631277 0.370063 -0.242871
-0.0633649 0.370415 0.243108
1.23418e-09 0.370063 0.242871
-0.0588579 -0.353429 -0.238601
1.23418e-09 -0.353429 0.238601
0.0588579 -0.353429 -0.238601
0.0631277 0.370063 0.242871
-0.0633649 0.370415 -0.243108
-0.0588579 -0.353429 0.238601
0.0595377 -0.354223 0.239281
1.23418e-09 -0.354223 0.239281
0.0633642 0.370415 -0.243108
-0.0636292 0.370747 0.243372
1.23418e-09 0.370415 0.243108
-0.0595377 -0.354223 -0.239281
0.0595377 -0.354223 -0.239281
0.0633642 0.370415 0.243108
-0.0636292 0.370747 -0.243373
-0.0595377 -0.354223 0.239281
0.0601639 -0.355061 0.239907
1.23418e-09 -0.355061 0.239907
0.0636292 0.370747 -0.243373
-0.0639195 0.371056 0.243663
1.23418e-09 0.370747 0.243372
-0.0601639 -0.355061 -0.239907
0.0601639 -0.355061 -0.239907
0.0636292 0.370747 0.243372
-0.0639195 0.371056 -0.243663
-0.0601639 -0.355061 0.239907
0.0607337 -0.355937 0.240477
1.23418e-09 -0.355937 0.240477
0.0639195 0.371056 -0.243663
-0.0642349 0.37134 -0.243978
1.23418e-09 0.371056 0.243663
-0.0607343 -0.355937 -0.240477
0.0607337 -0.355937 -0.240477
0.0639195 0.371056 0.243663
-0.0642349 0.37134 0.243978
-0.0607343 -0.355937 0.240477
0.0612446 -0.35685 0.240987
1.23418e-09 -0.35685 0.240987
0.0642342 0.37134 -0.243978
-0.0645715 0.371598 -0.244315
-0.0612446 -0.35685 -0.240988
0.0612446 -0.35685 -0.240988
0.0642342 0.37134 0.243978
-0.0645715 0.371598 0.244315
-0.0612446 -0.35685 0.240987
0.0616945 -0.357794 0.241437
1.23418e-09 -0.357794 0.241437
0.0645715 0.371598 -0.244315
1.23418e-09 0.37134 0.243978
-0.0649286 0.371827 -0.244672
-0.0616945 -0.357794 -0.241437
0.0616945 -0.357794 -0.241437
0.0645715 0.371598 0.244315
-0.0649286 0.371827 0.244671
-0.0616945 -0.357794 0.241437
0.0620814 -0.358765 0.241824
1.23418e-09 -0.358765 0.241824
0.0649286 0.371827 -0.244672
1.23418e-09 0.371598 0.244315
-0.065303 0.372027 -0.245046
-0.0620814 -0.358765 -0.241825
0.0620814 -0.358765 -0.241825
0.0649286 0.371827 0.244671
-0.065303 0.372027 0.245046
-0.0620814 -0.358765 0.241824
0.0624034 -0.359761 0.242146
1.23418e-09 -0.359761 0.242146
0.065303 0.372027 -0.245046
1.23418e-09 0.371827 0.244671
-0.0656926 0.372194 -0.245436
-0.0624034 -0.359761 -0.242146
0.0624034 -0.359761 -0.242146
0.065303 0.372027 0.245046
-0.0656926 0.372194 0.245435
-0.0624034 -0.359761 0.242146
0.0626592 -0.360774 0.242403
1.23418e-09 -0.360774 0.242403
0.0656926 0.372194 -0.245436
1.23418e-09 0.372027 0.245046
-0.0657727 0.373811 0.245516
-0.0626599 -0.360774 -0.242403
0.0626592 -0.360774 -0.242403
0.0656926 0.372194 0.245435
-0.0657727 0.373811 -0.245516
1.23418e-09 0.372194 0.245435
-0.0626599 -0.360774 0.242403
0.0703228 -0.367795 -0.250066
-0.0703235 -0.367795 0.250066
0.0657727 0.373811 -0.245516
-0.0659556 0.375419 0.245698
1.23418e-09 0.373811 0.245516
-0.0703235 -0.367795 -0.250066
0.0703228 -0.367795 0.250066
1.23418e-09 -0.367795 0.250066
0.0657727 0.373811 0.245516
-0.0659556 0.375419 -0.245698
0.0703228 -0.410842 0.250066
1.23418e-09 -0.410842 0.250066
0.065955 0.375419 -0.245698
-0.0662405 0.377012 0.245983
1.23418e-09 0.375419 0.245698
-0.0703235 -0.410842 -0.250066
0.0703228 -0.410842 -0.250066
-0.0703235 -0.410842 0.250066
0.065955 0.375419 0.245698
-0.0662405 0.377012 -0.245983
0.0662399 0.377012 -0.245983
-0.0666262 0.378583 0.246369
1.23418e-09 0.377012 0.245983
0.0662399 0.377012 0.245983
-0.0666262 0.378583 -0.24637
0.0666262 0.378583 -0.24637
-0.0671112 0.380128 0.246854
1.23418e-09 0.378583 0.246369
0.0666262 0.378583 0.246369
-0.0671112 0.380128 -0.246854
0.0671105 0.380128 -0.246854
-0.0676936 0.381637 0.247437
1.23418e-09 0.380128 0.246854
0.0671105 0.380128 0.246854
-0.0676936 0.381637 -0.247437
0.0676936 0.381637 -0.247437
-0.0683708 0.383107 0.248114
1.23418e-09 0.381637 0.247437
0.0676936 0.381637 0.247437
-0.0683708 0.383107 -0.248114
0.0683708 0.383107 -0.248114
-0.0691407 0.384531 0.248884
1.23418e-09 0.383107 0.248114
0.0683708 0.383107 0.248114
-0.0691407 0.384531 -0.248884
0.0691407 0.384531 -0.248884
-0.0699994 0.385901 0.249742
1.23418e-09 0.384531 0.248884
0.0691407 0.384531 0.248884
-0.0699994 0.385901 -0.249742
0.0699995 0.385901 -0.249742
-0.0709437 0.387216 0.250687
1.23418e-09 0.385901 0.249742
0.0699995 0.385901 0.249742
-0.0709437 0.387216 -0.250686
0.070943 0.387216 -0.250686
-0.07197 0.388468 0.251713
1.23418e-09 0.387216 0.250687
0.070943 0.387216 0.250687
-0.07197 0.388468 -0.251713
0.0719694 0.388468 -0.251713
-0.0730739 0.389651 0.252817
1.23418e-09 0.388468 0.251713
0.0719694 0.388468 0.251713
-0.0730739 0.389651 -0.252817
0.0730732 0.389651 -0.252817
-0.0735424 0.3901 -0.253286
1.23418e-09 0.389651 0.252817
0.0730732 0.389651 0.252817
-0.0735424 0.3901 0.253286
0.0735424 0.3901 -0.253286
-0.0740333 0.390526 -0.253776
0.0735424 0.3901 0.253286
-0.0740333 0.390526 0.253776
0.0740327 0.390526 -0.253776
1.23418e-09 0.3901 0.253286
-0.0745442 0.390929 -0.254287
0.0740327 0.390526 0.253776
-0.0745442 0.390929 0.254287
0.0745436 0.390929 -0.254287
1.23418e-09 0.390526 0.253776
-0.0750736 0.391304 -0.254817
0.0745436 0.390929 0.254287
-0.0750736 0.391304 0.254816
0.0750736 0.391304 -0.254817
1.23418e-09 0.390929 0.254287
-0.0756216 0.391654 -0.255364
0.0750736 0.391304 0.254816
-0.0756216 0.391654 0.255364
0.0756209 0.391654 -0.255364
1.23418e-09 0.391304 0.254816
-0.0761855 0.391977 -0.255929
0.0756209 0.391654 0.255364
-0.0761855 0.391977 0.255928
0.0761855 0.391977 -0.255929
1.23418e-09 0.391654 0.255364
-0.0767646 0.392272 -0.256507
0.0761855 0.391977 0.255928
-0.0767646 0.392272 0.256507
0.0767639 0.392272 -0.256507
1.23418e-09 0.391977 0.255928
-0.0773576 0.392537 -0.2571
0.0767639 0.392272 0.256507
-0.0773576 0.392537 0.2571
0.0773569 0.392537 -0.2571
1.23418e-09 0.392272 0.256507
-0.0779626 0.392775 -0.257705
0.0773569 0.392537 0.2571
-0.0779626 0.392775 0.257705
0.0779626 0.392775 -0.257705
1.23418e-09 0.392537 0.2571
-0.0785788 0.392982 -0.258322
0.0779626 0.392775 0.257705
-0.0785788 0.392982 0.258322
0.0785781 0.392982 -0.258322
1.23418e-09 0.392775 0.257705
-0.0792036 0.393158 -0.258947
0.0785781 0.392982 0.258322
-0.0792036 0.393158 0.258946
0.0792036 0.393158 -0.258947
1.23418e-09 0.392982 0.258322
-0.079837 0.393305 -0.25958
0.0792036 0.393158 0.258946
-0.079837 0.393305 0.25958
0.0798364 0.393305 -0.25958
1.23418e-09 0.393158 0.258946
-0.079837 0.396973 0.25958
0.0798364 0.393305 0.25958
-0.079837 0.396973 -0.25958
1.23418e-09 0.393305 0.25958
0.0798364 0.396973 -0.25958
-0.0804486 0.396973 -0.260191
1.23418e-09 0.396973 0.25958
0.0798364 0.396973 0.25958
-0.0804486 0.396973 0.260191
0.080448 0.396973 -0.260191
-0.0818116 0.397605 -0.261554
0.080448 0.396973 0.260191
-0.0818116 0.397605 0.261554
0.0818109 0.397605 -0.261554
1.23418e-09 0.396973 0.260191
-0.0831103 0.39836 -0.262853
0.0818109 0.397605 0.261554
-0.0831103 0.39836 0.262853
0.0831096 0.39836 -0.262853
1.23418e-09 0.397605 0.261554
-0.0843328 0.399233 -0.264076
0.0831096 0.39836 0.262853
-0.0843328 0.399233 0.264076
0.0843328 0.399233 -0.264076
1.23418e-09 0.39836 0.262853
-0.0854698 0.400216 -0.265213
0.0843328 0.399233 0.264076
-0.0854698 0.400216 0.265213
0.0854698 0.400216 -0.265213
1.23418e-09 0.399233 0.264076
-0.0865107 0.401298 0.266254
0.0854698 0.400216 0.265213
-0.0865107 0.401298 -0.266254
1.23418e-09 0.400216 0.265213
0.0865107 0.401298 -0.266254
-0.087447 0.402474 0.26719
1.23418e-09 0.401298 0.266254
0.0865107 0.401298 0.266254
-0.087447 0.402474 -0.26719
0.087447 0.402474 -0.26719
-0.0882706 0.40373 0.268013
1.23418e-09 0.402474 0.26719
0.087447 0.402474 0.26719
-0.0882706 0.40373 -0.268013
0.0882699 0.40373 -0.268013
-0.0889736 0.405058 0.268716
1.23418e-09 0.40373 0.268013
0.0882699 0.40373 0.268013
-0.0889736 0.405058 -0.268717
0.0889736 0.405058 -0.268717
-0.0895514 0.406445 0.269294
1.23418e-09 0.405058 0.268716
0.0889736 0.405058 0.268716
-0.0895514 0.406445 -0.269294
0.0895507 0.406445 -0.269294
-0.0899973 0.40788 0.26974
1.23418e-09 0.406445 0.269294
0.0895507 0.406445 0.269294
-0.0899973 0.40788 -0.269741
0.0899973 0.40788 -0.269741
-0.0903094 0.409349 0.270052
1.23418e-09 0.40788 0.26974
0.0899973 0.40788 0.26974
-0.0903094 0.409349 -0.270052
0.0903087 0.409349 -0.270052
-0.090483 0.410842 0.270226
1.23418e-09 0.409349 0.270052
0.0903087 0.409349 0.270052
-0.090483 0.410842 -0.270226
0.090483 0.410842 -0.270226
1.23418e-09 0.410842 0.270226
0.090483 0.410842 0.270226
-0.0556635 0.34744 0.235406
-0.0556635 -0.350746 -0.235406
-0.0556635 -0.350746 0.235406
-0.0556635 0.34744 -0.235406
-0.0556635 0.34744 -0.235406
0.0556628 -0.350746 -0.235406
0.0556628 0.34744 -0.235406
-0.0556635 -0.350746 -0.235406
-0.0556635 0.34744 0.235406
0.0556628 -0.350746 0.235406
0.0556628 0.34744 0.235406
-0.0556635 -0.350746 0.235406
3 0 1 2
3 1 0 3
3 2 1 0
3 3 0 1
3 4 5 6
3 5 4 7
3 6 5 4
3 7 4 5
3 8 9 10
3 9 8 11
3 10 9 8
3 11 8 9
3 12 13 14
3 13 12 15
3 14 13 12
3 15 12 13
3 16 19 17
3 17 19 16
3 18 22 27
3 27 22 18
3 29 21 25
3 25 21 29
3 30 36 41
3 41 36 30
3 37 35 39
3 39 35 37
3 35 45 40
3 40 45 35
3 47 37 43
3 43 37 47
3 35 37 45
3 45 37 35
3 40 45 49
3 49 45 40
3 40 49 43
3 43 49 40
3 37 47 51
3 51 47 37
3 47 43 52
3 52 43 47
3 45 37 51
3 51 37 45
3 55 49 45
3 45 49 55
3 38 46 53
3 53 46 38
3 52 43 49
3 49 43 52
3 57 51 47
3 47 51 57
3 58 47 52
3 52 47 58
3 51 55 45
3 45 55 51
3 49 55 60
3 60 55 49
3 49 58 52
3 52 58 49
3 55 51 57
3 57 51 55
3 57 47 62
3 62 47 57
3 47 58 62
3 62 58 47
3 55 65 60
3 60 65 55
3 58 49 60
3 60 49 58
3 48 56 63
3 63 56 48
3 62 55 57
3 57 55 62
3 67 62 58
3 58 62 67
3 55 62 65
3 65 62 55
3 60 65 70
3 70 65 60
3 60 70 58
3 58 70 60
3 62 67 72
3 72 67 62
3 67 58 73
3 73 58 67
3 59 66 69
3 69 66 59
3 65 62 72
3 72 62 65
3 65 76 70
3 70 76 65
3 73 58 70
3 70 58 73
3 65 79 76
3 76 79 65
3 80 70 76
3 76 70 80
3 65 84 79
3 79 84 65
3 85 76 79
3 79 76 85
3 86 70 80
3 80 70 86
3 76 87 80
3 80 87 76
3 65 90 84
3 84 90 65
3 84 86 79
3 79 86 84
3 76 85 91
3 91 85 76
3 79 92 85
3 85 92 79
3 93 70 86
3 86 70 93
3 94 86 80
3 80 86 94
3 76 95 87
3 87 95 76
3 80 87 94
3 94 87 80
3 65 99 90
3 90 99 65
3 100 84 90
3 90 84 100
3 86 84 93
3 93 84 86
3 92 79 86
3 86 79 92
3 85 101 91
3 91 101 85
3 95 76 91
3 91 76 95
3 102 85 92
3 92 85 102
3 103 70 93
3 93 70 103
3 86 94 104
3 104 94 86
3 95 92 87
3 87 92 95
3 87 105 94
3 94 105 87
3 65 108 99
3 99 108 65
3 99 103 90
3 90 103 99
3 84 100 109
3 109 100 84
3 90 110 100
3 100 110 90
3 84 111 93
3 93 111 84
3 92 86 104
3 104 86 92
3 101 85 112
3 112 85 101
3 91 101 113
3 113 101 91
3 91 114 95
3 95 114 91
3 102 112 85
3 85 112 102
3 92 95 102
3 102 95 92
3 115 70 103
3 103 70 115
3 116 103 93
3 93 103 116
3 117 104 94
3 94 104 117
3 92 118 87
3 87 118 92
3 87 119 105
3 105 119 87
3 120 94 105
3 105 94 120
3 124 108 65
3 65 108 124
3 125 99 108
3 108 99 125
3 103 99 115
3 115 99 103
3 110 90 103
3 103 90 110
3 100 126 109
3 109 126 100
3 127 84 109
3 109 84 127
3 128 100 110
3 110 100 128
3 84 127 111
3 111 127 84
3 93 111 116
3 116 111 93
3 104 117 92
3 92 117 104
3 101 112 129
3 129 112 101
3 130 113 101
3 101 113 130
3 91 113 131
3 131 113 91
3 91 131 114
3 114 131 91
3 132 95 114
3 114 95 132
3 112 102 95
3 95 102 112
3 133 70 115
3 115 70 133
3 103 116 134
3 134 116 103
3 117 94 135
3 135 94 117
3 118 92 117
3 117 92 118
3 87 118 136
3 136 118 87
3 87 136 119
3 119 136 87
3 137 105 119
3 119 105 137
3 138 94 120
3 120 94 138
3 105 139 120
3 120 139 105
3 108 124 133
3 133 124 108
3 99 125 142
3 142 125 99
3 108 143 125
3 125 143 108
3 99 144 115
3 115 144 99
3 110 103 134
3 134 103 110
3 126 100 145
3 145 100 126
3 109 126 146
3 146 126 109
3 109 147 127
3 127 147 109
3 128 145 100
3 100 145 128
3 110 127 128
3 128 127 110
3 127 110 111
3 111 110 127
3 111 148 116
3 116 148 111
3 112 149 129
3 129 149 112
3 101 129 150
3 150 129 101
3 113 130 151
3 151 130 113
3 150 130 101
3 101 130 150
3 131 113 152
3 152 113 131
3 153 114 131
3 131 114 153
3 154 95 132
3 132 95 154
3 114 155 132
3 132 155 114
3 112 95 156
3 156 95 112
3 133 157 70
3 70 157 133
3 158 133 115
3 115 133 158
3 159 134 116
3 116 134 159
3 135 94 160
3 160 94 135
3 161 117 135
3 135 117 161
3 118 117 162
3 162 117 118
3 163 136 118
3 118 136 163
3 119 136 160
3 160 136 119
3 105 137 164
3 164 137 105
3 165 137 119
3 119 137 165
3 166 94 138
3 138 94 166
3 165 138 120
3 120 138 165
3 139 105 164
3 164 105 139
3 139 165 120
3 120 165 139
3 157 133 124
3 124 133 157
3 143 108 133
3 133 108 143
3 125 170 142
3 142 170 125
3 171 99 142
3 142 99 171
3 172 125 143
3 143 125 172
3 99 171 144
3 144 171 99
3 115 144 158
3 158 144 115
3 134 159 110
3 110 159 134
3 126 145 173
3 173 145 126
3 174 146 126
3 126 146 174
3 109 146 175
3 175 146 109
3 109 175 147
3 147 175 109
3 176 127 147
3 147 127 176
3 145 128 127
3 127 128 145
3 110 177 111
3 111 177 110
3 111 178 148
3 148 178 111
3 179 116 148
3 148 116 179
3 149 112 180
3 180 112 149
3 149 181 129
3 129 181 149
3 181 150 129
3 129 150 181
3 182 113 151
3 151 113 182
3 130 150 183
3 183 150 130
3 184 152 113
3 113 152 184
3 131 152 185
3 185 152 131
3 114 153 186
3 186 153 114
3 187 153 131
3 131 153 187
3 188 95 154
3 154 95 188
3 187 154 132
3 132 154 187
3 155 114 186
3 186 114 155
3 155 187 132
3 132 187 155
3 156 95 152
3 152 95 156
3 189 112 156
3 156 112 189
3 133 158 190
3 190 158 133
3 159 116 191
3 191 116 159
3 160 94 166
3 166 94 160
3 135 160 192
3 192 160 135
3 117 161 193
3 193 161 117
3 192 161 135
3 135 161 192
3 117 194 162
3 162 194 117
3 118 162 195
3 195 162 118
3 136 163 196
3 196 163 136
3 195 163 118
3 118 163 195
3 197 160 136
3 136 160 197
3 119 160 198
3 198 160 119
3 137 165 199
3 199 165 137
3 119 198 165
3 165 198 119
3 138 200 166
3 166 200 138
3 138 165 198
3 198 165 138
3 165 139 199
3 199 139 165
3 143 133 190
3 190 133 143
3 170 125 204
3 204 125 170
3 142 170 205
3 205 170 142
3 142 205 171
3 171 205 142
3 172 204 125
3 125 204 172
3 143 171 172
3 172 171 143
3 171 143 144
3 144 143 171
3 144 206 158
3 158 206 144
3 177 110 159
3 159 110 177
3 145 207 173
3 173 207 145
3 126 173 208
3 208 173 126
3 146 174 209
3 209 174 146
3 208 174 126
3 126 174 208
3 175 146 210
3 210 146 175
3 211 147 175
3 175 147 211
3 212 127 176
3 176 127 212
3 147 213 176
3 176 213 147
3 145 127 214
3 214 127 145
3 111 177 215
3 215 177 111
3 111 215 178
3 178 215 111
3 216 148 178
3 178 148 216
3 217 116 179
3 179 116 217
3 148 218 179
3 179 218 148
3 112 189 180
3 180 189 112
3 181 149 219
3 219 149 181
3 150 181 184
3 184 181 150
3 113 182 184
3 184 182 113
3 150 182 183
3 183 182 150
3 181 152 184
3 184 152 181
3 152 220 185
3 185 220 152
3 131 185 187
3 187 185 131
3 153 187 221
3 221 187 153
3 152 95 188
3 188 95 152
3 154 222 188
3 188 222 154
3 154 187 185
3 185 187 154
3 187 155 221
3 221 155 187
3 156 152 181
3 181 152 156
3 181 189 156
3 156 189 181
3 223 190 158
3 158 190 223
3 191 116 224
3 224 116 191
3 225 159 191
3 191 159 225
3 200 160 166
3 166 160 200
3 192 160 197
3 197 160 192
3 194 117 193
3 193 117 194
3 161 192 226
3 226 192 161
3 194 192 162
3 162 192 194
3 192 195 162
3 162 195 192
3 227 136 196
3 196 136 227
3 163 195 228
3 228 195 163
3 136 227 197
3 197 227 136
3 160 229 198
3 198 229 160
3 200 138 230
3 230 138 200
3 229 138 198
3 198 138 229
3 190 223 143
3 143 223 190
3 236 170 204
3 204 170 236
3 237 205 170
3 170 205 237
3 238 171 205
3 205 171 238
3 204 172 171
3 171 172 204
3 143 239 144
3 144 239 143
3 144 239 206
3 206 239 144
3 240 158 206
3 206 158 240
3 177 159 241
3 241 159 177
3 207 145 242
3 242 145 207
3 207 243 173
3 173 243 207
3 243 208 173
3 173 208 243
3 244 146 209
3 209 146 244
3 174 208 245
3 245 208 174
3 246 210 146
3 146 210 246
3 175 210 247
3 247 210 175
3 147 211 248
3 248 211 147
3 249 211 175
3 175 211 249
3 250 127 212
3 212 127 250
3 249 212 176
3 176 212 249
3 213 147 248
3 248 147 213
3 213 249 176
3 176 249 213
3 214 127 210
3 210 127 214
3 251 145 214
3 214 145 251
3 252 215 177
3 177 215 252
3 178 215 224
3 224 215 178
3 148 216 253
3 253 216 148
3 254 216 178
3 178 216 254
3 255 116 217
3 217 116 255
3 254 217 179
3 179 217 254
3 218 148 253
3 253 148 218
3 218 254 179
3 179 254 218
3 189 181 219
3 219 181 189
3 182 150 184
3 184 150 182
3 220 152 256
3 256 152 220
3 220 154 185
3 185 154 220
3 222 152 188
3 188 152 222
3 222 154 257
3 257 154 222
3 223 158 240
3 240 158 223
3 224 116 255
3 255 116 224
3 191 224 258
3 258 224 191
3 159 225 259
3 259 225 159
3 258 225 191
3 191 225 258
3 160 200 260
3 260 200 160
3 195 192 197
3 197 192 195
3 192 194 226
3 226 194 192
3 195 227 228
3 228 227 195
3 227 195 197
3 197 195 227
3 229 160 260
3 260 160 229
3 138 229 230
3 230 229 138
3 239 143 223
3 223 143 239
3 170 236 237
3 237 236 170
3 238 236 204
3 204 236 238
3 205 237 266
3 266 237 205
3 204 171 238
3 238 171 204
3 266 238 205
3 205 238 266
3 267 206 239
3 239 206 267
3 268 240 206
3 206 240 268
3 159 269 241
3 241 269 159
3 177 241 270
3 270 241 177
3 145 251 242
3 242 251 145
3 243 207 271
3 271 207 243
3 208 243 246
3 246 243 208
3 146 244 246
3 246 244 146
3 208 244 245
3 245 244 208
3 243 210 246
3 246 210 243
3 210 272 247
3 247 272 210
3 175 247 249
3 249 247 175
3 211 249 273
3 273 249 211
3 210 127 250
3 250 127 210
3 212 274 250
3 250 274 212
3 212 249 247
3 247 249 212
3 249 213 273
3 273 213 249
3 214 210 243
3 243 210 214
3 243 251 214
3 214 251 243
3 215 252 275
3 275 252 215
3 270 252 177
3 177 252 270
3 276 224 215
3 215 224 276
3 178 224 277
3 277 224 178
3 216 254 278
3 278 254 216
3 178 277 254
3 254 277 178
3 217 279 255
3 255 279 217
3 217 254 277
3 277 254 217
3 254 218 278
3 278 218 254
3 152 222 256
3 256 222 152
3 154 220 257
3 257 220 154
3 240 280 223
3 223 280 240
3 279 224 255
3 255 224 279
3 258 224 276
3 276 224 258
3 269 159 259
3 259 159 269
3 225 258 281
3 281 258 225
3 280 239 223
3 223 239 280
3 289 237 236
3 236 237 289
3 236 238 289
3 289 238 236
3 237 289 266
3 266 289 237
3 238 266 289
3 289 266 238
3 206 267 268
3 268 267 206
3 239 280 267
3 267 280 239
3 240 268 290
3 290 268 240
3 269 258 241
3 241 258 269
3 258 270 241
3 241 270 258
3 251 243 271
3 271 243 251
3 244 208 246
3 246 208 244
3 272 210 291
3 291 210 272
3 272 212 247
3 247 212 272
3 274 210 250
3 250 210 274
3 274 212 292
3 292 212 274
3 293 215 275
3 275 215 293
3 252 270 294
3 294 270 252
3 215 293 276
3 276 293 215
3 224 295 277
3 277 295 224
3 279 217 296
3 296 217 279
3 295 217 277
3 277 217 295
3 280 240 290
3 290 240 280
3 224 279 297
3 297 279 224
3 270 258 276
3 276 258 270
3 258 269 281
3 281 269 258
3 267 290 268
3 268 290 267
3 290 267 280
3 280 267 290
3 210 274 291
3 291 274 210
3 212 272 292
3 292 272 212
3 270 293 294
3 294 293 270
3 293 270 276
3 276 270 293
3 295 224 297
3 297 224 295
3 217 295 296
3 296 295 217
3 351 359 365
3 365 359 351
3 360 369 375
3 375 369 360
3 370 379 385
3 385 379 370
3 380 389 395
3 395 389 380
3 392 403 398
3 398 403 392
3 404 392 393
3 393 392 404
3 390 399 401
3 401 399 390
3 408 402 397
3 397 402 408
3 404 393 402
3 402 393 404
3 403 392 409
3 409 392 403
3 403 397 398
3 398 397 403
3 410 392 404
3 404 392 410
3 402 408 404
3 404 408 402
3 397 403 408
3 408 403 397
3 392 410 409
3 409 410 392
3 413 403 409
3 409 403 413
3 414 410 404
3 404 410 414
3 418 404 408
3 408 404 418
3 403 418 408
3 408 418 403
3 410 413 409
3 409 413 410
3 403 413 419
3 419 413 403
3 413 410 414
3 414 410 413
3 414 404 420
3 420 404 414
3 404 418 420
3 420 418 404
3 418 403 419
3 419 403 418
3 472 475 478
3 478 475 472
3 476 480 483
3 483 480 476
3 481 485 488
3 488 485 481
3 486 490 493
3 493 490 486
3 491 495 498
3 498 495 491
3 496 500 503
3 503 500 496
3 501 505 508
3 508 505 501
3 506 510 513
3 513 510 506
3 511 515 518
3 518 515 511
3 516 520 523
3 523 520 516
3 529 524 526
3 526 524 529
3 521 525 528
3 528 525 521
3 524 529 531
3 531 529 524
3 532 529 526
3 526 529 532
3 524 533 527
3 527 533 524
3 533 530 527
3 527 530 533
3 529 534 531
3 531 534 529
3 533 524 531
3 531 524 533
3 532 535 529
3 529 535 532
3 526 530 532
3 532 530 526
3 530 533 536
3 536 533 530
3 529 537 534
3 534 537 529
3 531 534 533
3 533 534 531
3 530 535 532
3 532 535 530
3 537 529 535
3 535 529 537
3 538 536 533
3 533 536 538
3 535 530 536
3 536 530 535
3 538 533 534
3 534 533 538
3 536 537 535
3 535 537 536
3 540 536 538
3 538 536 540
3 540 537 536
3 536 537 540
3 537 540 543
3 543 540 537
3 541 545 548
3 548 545 541
3 546 550 553
3 553 550 546
3 551 555 558
3 558 555 551
3 556 560 562
3 562 560 556
3 594 598 597
3 599 598 594
3 598 599 600
3 16 17 18
3 18 17 16
3 19 18 17
3 17 18 19
3 20 16 18
3 18 16 20
3 19 16 21
3 21 16 19
3 22 18 19
3 19 18 22
3 16 20 23
3 23 20 16
3 18 24 20
3 20 24 18
3 21 16 25
3 25 16 21
3 21 26 19
3 19 26 21
3 19 28 22
3 22 28 19
3 20 26 23
3 23 26 20
3 23 29 16
3 16 29 23
3 24 18 30
3 30 18 24
3 24 28 20
3 20 28 24
3 29 25 16
3 16 25 29
3 26 21 31
3 31 21 26
3 28 19 26
3 26 19 28
3 22 30 27
3 27 30 22
3 18 27 30
3 30 27 18
3 32 22 28
3 28 22 32
3 26 20 28
3 28 20 26
3 31 23 26
3 26 23 31
3 29 23 33
3 33 23 29
3 30 34 24
3 24 34 30
3 28 24 32
3 32 24 28
3 21 29 35
3 35 29 21
3 35 31 21
3 21 31 35
3 36 30 22
3 22 30 36
3 22 32 36
3 36 32 22
3 23 31 33
3 33 31 23
3 33 37 29
3 29 37 33
3 34 30 38
3 38 30 34
3 34 32 24
3 24 32 34
3 35 29 39
3 39 29 35
3 31 35 40
3 40 35 31
3 42 36 32
3 32 36 42
3 40 33 31
3 31 33 40
3 37 33 43
3 43 33 37
3 37 39 29
3 29 39 37
3 30 41 38
3 38 41 30
3 38 44 34
3 34 44 38
3 32 34 42
3 42 34 32
3 36 38 41
3 41 38 36
3 36 42 46
3 46 42 36
3 33 40 43
3 43 40 33
3 44 38 48
3 48 38 44
3 44 42 34
3 34 42 44
3 46 38 36
3 36 38 46
3 50 46 42
3 42 46 50
3 38 53 48
3 48 53 38
3 48 54 44
3 44 54 48
3 42 44 50
3 50 44 42
3 46 50 56
3 56 50 46
3 46 48 53
3 53 48 46
3 54 48 59
3 59 48 54
3 54 50 44
3 44 50 54
3 61 56 50
3 50 56 61
3 56 48 46
3 46 48 56
3 48 63 59
3 59 63 48
3 64 54 59
3 59 54 64
3 50 54 61
3 61 54 50
3 56 61 66
3 66 61 56
3 56 59 63
3 63 59 56
3 54 64 68
3 68 64 54
3 69 64 59
3 59 64 69
3 68 61 54
3 54 61 68
3 71 66 61
3 61 66 71
3 66 59 56
3 56 59 66
3 74 68 64
3 64 68 74
3 69 75 64
3 64 75 69
3 61 68 71
3 71 68 61
3 66 71 77
3 77 71 66
3 68 74 78
3 78 74 68
3 75 74 64
3 64 74 75
3 66 75 69
3 69 75 66
3 78 71 68
3 68 71 78
3 81 77 71
3 71 77 81
3 75 66 77
3 77 66 75
3 82 78 74
3 74 78 82
3 75 83 74
3 74 83 75
3 71 78 81
3 81 78 71
3 77 81 88
3 88 81 77
3 77 83 75
3 75 83 77
3 78 82 89
3 89 82 78
3 83 82 74
3 74 82 83
3 89 81 78
3 78 81 89
3 96 88 81
3 81 88 96
3 83 77 88
3 88 77 83
3 97 89 82
3 82 89 97
3 83 98 82
3 82 98 83
3 81 89 96
3 96 89 81
3 88 96 106
3 106 96 88
3 88 98 83
3 83 98 88
3 89 97 107
3 107 97 89
3 98 97 82
3 82 97 98
3 107 96 89
3 89 96 107
3 121 106 96
3 96 106 121
3 98 88 106
3 106 88 98
3 122 107 97
3 97 107 122
3 98 123 97
3 97 123 98
3 96 107 121
3 121 107 96
3 106 121 140
3 140 121 106
3 106 123 98
3 98 123 106
3 107 122 141
3 141 122 107
3 123 122 97
3 97 122 123
3 141 121 107
3 107 121 141
3 167 140 121
3 121 140 167
3 123 106 140
3 140 106 123
3 168 141 122
3 122 141 168
3 123 169 122
3 122 169 123
3 121 141 167
3 167 141 121
3 140 167 201
3 201 167 140
3 140 169 123
3 123 169 140
3 141 168 202
3 202 168 141
3 169 168 122
3 122 168 169
3 202 167 141
3 141 167 202
3 124 203 157
3 157 203 124
3 231 201 167
3 167 201 231
3 169 140 201
3 201 140 169
3 232 202 168
3 168 202 232
3 169 233 168
3 168 233 169
3 167 202 231
3 231 202 167
3 203 124 234
3 234 124 203
3 203 235 157
3 157 235 203
3 201 231 261
3 261 231 201
3 201 233 169
3 169 233 201
3 202 232 262
3 262 232 202
3 233 232 168
3 168 232 233
3 262 231 202
3 202 231 262
3 124 263 234
3 234 263 124
3 234 264 203
3 203 264 234
3 235 203 265
3 265 203 235
3 282 261 231
3 231 261 282
3 233 201 261
3 261 201 233
3 283 262 232
3 232 262 283
3 233 284 232
3 232 284 233
3 231 262 282
3 282 262 231
3 263 124 285
3 285 124 263
3 286 234 263
3 263 234 286
3 264 234 287
3 287 234 264
3 264 265 203
3 203 265 264
3 265 288 235
3 235 288 265
3 261 282 298
3 298 282 261
3 261 284 233
3 233 284 261
3 262 283 299
3 299 283 262
3 284 283 232
3 232 283 284
3 299 282 262
3 262 282 299
3 285 124 300
3 300 124 285
3 286 263 285
3 285 263 286
3 301 234 286
3 286 234 301
3 234 301 287
3 287 301 234
3 287 302 264
3 264 302 287
3 265 264 303
3 303 264 265
3 288 265 285
3 285 265 288
3 304 298 282
3 282 298 304
3 284 261 298
3 298 261 284
3 305 299 283
3 283 299 305
3 284 306 283
3 283 306 284
3 282 299 304
3 304 299 282
3 285 300 288
3 288 300 285
3 285 303 286
3 286 303 285
3 307 301 286
3 286 301 307
3 307 287 301
3 301 287 307
3 302 287 308
3 308 287 302
3 302 303 264
3 264 303 302
3 303 285 265
3 265 285 303
3 298 304 309
3 309 304 298
3 298 306 284
3 284 306 298
3 299 305 310
3 310 305 299
3 306 305 283
3 283 305 306
3 310 304 299
3 299 304 310
3 311 286 303
3 303 286 311
3 286 311 307
3 307 311 286
3 312 287 307
3 307 287 312
3 287 312 308
3 308 312 287
3 313 302 308
3 308 302 313
3 303 302 311
3 311 302 303
3 314 309 304
3 304 309 314
3 306 298 309
3 309 298 306
3 315 310 305
3 305 310 315
3 306 316 305
3 305 316 306
3 304 310 314
3 314 310 304
3 317 307 311
3 311 307 317
3 318 312 307
3 307 312 318
3 318 308 312
3 312 308 318
3 302 313 319
3 319 313 302
3 308 318 313
3 313 318 308
3 302 317 311
3 311 317 302
3 309 314 320
3 320 314 309
3 309 316 306
3 306 316 309
3 310 315 321
3 321 315 310
3 316 315 305
3 305 315 316
3 321 314 310
3 310 314 321
3 307 317 322
3 322 317 307
3 318 307 322
3 322 307 318
3 323 319 313
3 313 319 323
3 317 302 319
3 319 302 317
3 324 313 318
3 318 313 324
3 325 320 314
3 314 320 325
3 316 309 320
3 320 309 316
3 326 321 315
3 315 321 326
3 316 327 315
3 315 327 316
3 314 321 325
3 325 321 314
3 328 322 317
3 317 322 328
3 324 318 322
3 322 318 324
3 319 323 329
3 329 323 319
3 313 324 323
3 323 324 313
3 319 328 317
3 317 328 319
3 320 325 330
3 330 325 320
3 320 327 316
3 316 327 320
3 321 326 331
3 331 326 321
3 327 326 315
3 315 326 327
3 331 325 321
3 321 325 331
3 322 328 332
3 332 328 322
3 324 322 332
3 332 322 324
3 333 329 323
3 323 329 333
3 328 319 329
3 329 319 328
3 334 323 324
3 324 323 334
3 335 330 325
3 325 330 335
3 327 320 330
3 330 320 327
3 336 331 326
3 326 331 336
3 327 337 326
3 326 337 327
3 325 331 335
3 335 331 325
3 338 332 328
3 328 332 338
3 334 324 332
3 332 324 334
3 329 333 339
3 339 333 329
3 323 334 333
3 333 334 323
3 329 338 328
3 328 338 329
3 330 335 340
3 340 335 330
3 330 337 327
3 327 337 330
3 331 336 341
3 341 336 331
3 337 336 326
3 326 336 337
3 341 335 331
3 331 335 341
3 332 338 342
3 342 338 332
3 334 332 342
3 342 332 334
3 343 339 333
3 333 339 343
3 338 329 339
3 339 329 338
3 344 333 334
3 334 333 344
3 345 340 335
3 335 340 345
3 337 330 340
3 340 330 337
3 336 346 341
3 341 346 336
3 337 347 336
3 336 347 337
3 335 341 345
3 345 341 335
3 348 342 338
3 338 342 348
3 344 334 342
3 342 334 344
3 339 343 349
3 349 343 339
3 333 344 343
3 343 344 333
3 339 348 338
3 338 348 339
3 340 345 350
3 350 345 340
3 340 347 337
3 337 347 340
3 346 336 351
3 351 336 346
3 346 345 341
3 341 345 346
3 336 347 351
3 351 347 336
3 342 348 352
3 352 348 342
3 344 342 352
3 352 342 344
3 353 349 343
3 343 349 353
3 348 339 349
3 349 339 348
3 354 343 344
3 344 343 354
3 355 350 345
3 345 350 355
3 347 340 350
3 350 340 347
3 351 356 346
3 346 356 351
3 345 346 355
3 355 346 345
3 350 351 347
3 347 351 350
3 357 352 348
3 348 352 357
3 354 344 352
3 352 344 354
3 349 353 358
3 358 353 349
3 343 354 353
3 353 354 343
3 349 357 348
3 348 357 349
3 350 355 359
3 359 355 350
3 356 351 360
3 360 351 356
3 356 355 346
3 346 355 356
3 359 351 350
3 350 351 359
3 352 357 361
3 361 357 352
3 354 352 361
3 361 352 354
3 362 358 353
3 353 358 362
3 357 349 358
3 358 349 357
3 363 353 354
3 354 353 363
3 364 359 355
3 355 359 364
3 351 365 360
3 360 365 351
3 360 366 356
3 356 366 360
3 355 356 364
3 364 356 355
3 367 361 357
3 357 361 367
3 363 354 361
3 361 354 363
3 358 362 368
3 368 362 358
3 353 363 362
3 362 363 353
3 358 367 357
3 357 367 358
3 359 364 369
3 369 364 359
3 359 360 365
3 365 360 359
3 366 360 370
3 370 360 366
3 366 364 356
3 356 364 366
3 361 367 371
3 371 367 361
3 363 361 371
3 371 361 363
3 372 368 362
3 362 368 372
3 367 358 368
3 368 358 367
3 373 362 363
3 363 362 373
3 374 369 364
3 364 369 374
3 369 360 359
3 359 360 369
3 360 375 370
3 370 375 360
3 370 376 366
3 366 376 370
3 364 366 374
3 374 366 364
3 377 371 367
3 367 371 377
3 373 363 371
3 371 363 373
3 368 372 378
3 378 372 368
3 362 373 372
3 372 373 362
3 368 377 367
3 367 377 368
3 369 374 379
3 379 374 369
3 369 370 375
3 375 370 369
3 376 370 380
3 380 370 376
3 376 374 366
3 366 374 376
3 371 377 381
3 381 377 371
3 373 371 381
3 381 371 373
3 382 378 372
3 372 378 382
3 377 368 378
3 378 368 377
3 383 372 373
3 373 372 383
3 384 379 374
3 374 379 384
3 379 370 369
3 369 370 379
3 370 385 380
3 380 385 370
3 380 386 376
3 376 386 380
3 374 376 384
3 384 376 374
3 387 381 377
3 377 381 387
3 383 373 381
3 381 373 383
3 378 382 388
3 388 382 378
3 372 383 382
3 382 383 372
3 378 387 377
3 377 387 378
3 379 384 389
3 389 384 379
3 379 380 385
3 385 380 379
3 386 380 390
3 390 380 386
3 386 384 376
3 376 384 386
3 381 387 391
3 391 387 381
3 383 381 391
3 391 381 383
3 392 388 382
3 382 388 392
3 387 378 388
3 388 378 387
3 393 382 383
3 383 382 393
3 394 389 384
3 384 389 394
3 389 380 379
3 379 380 389
3 380 395 390
3 390 395 380
3 396 386 390
3 390 386 396
3 384 386 394
3 394 386 384
3 397 391 387
3 387 391 397
3 393 383 391
3 391 383 393
3 388 392 398
3 398 392 388
3 382 393 392
3 392 393 382
3 388 397 387
3 387 397 388
3 389 394 399
3 399 394 389
3 389 390 395
3 395 390 389
3 386 396 400
3 400 396 386
3 401 396 390
3 390 396 401
3 400 394 386
3 386 394 400
3 391 397 402
3 402 397 391
3 393 391 402
3 402 391 393
3 397 388 398
3 398 388 397
3 405 399 394
3 394 399 405
3 399 390 389
3 389 390 399
3 406 400 396
3 396 400 406
3 401 407 396
3 396 407 401
3 394 400 405
3 405 400 394
3 399 405 411
3 411 405 399
3 400 406 412
3 412 406 400
3 407 406 396
3 396 406 407
3 399 407 401
3 401 407 399
3 412 405 400
3 400 405 412
3 415 411 405
3 405 411 415
3 407 399 411
3 411 399 407
3 416 412 406
3 406 412 416
3 407 417 406
3 406 417 407
3 405 412 415
3 415 412 405
3 411 415 421
3 421 415 411
3 411 417 407
3 407 417 411
3 412 416 422
3 422 416 412
3 417 416 406
3 406 416 417
3 422 415 412
3 412 415 422
3 423 421 415
3 415 421 423
3 417 411 421
3 421 411 417
3 424 422 416
3 416 422 424
3 417 425 416
3 416 425 417
3 415 422 423
3 423 422 415
3 421 423 426
3 426 423 421
3 421 425 417
3 417 425 421
3 422 424 427
3 427 424 422
3 425 424 416
3 416 424 425
3 427 423 422
3 422 423 427
3 428 426 423
3 423 426 428
3 425 421 426
3 426 421 425
3 429 427 424
3 424 427 429
3 425 430 424
3 424 430 425
3 423 427 428
3 428 427 423
3 426 428 431
3 431 428 426
3 426 430 425
3 425 430 426
3 427 429 432
3 432 429 427
3 430 429 424
3 424 429 430
3 432 428 427
3 427 428 432
3 433 431 428
3 428 431 433
3 430 426 431
3 431 426 430
3 434 432 429
3 429 432 434
3 430 435 429
3 429 435 430
3 428 432 433
3 433 432 428
3 431 433 436
3 436 433 431
3 431 435 430
3 430 435 431
3 432 434 437
3 437 434 432
3 435 434 429
3 429 434 435
3 437 433 432
3 432 433 437
3 438 436 433
3 433 436 438
3 435 431 436
3 436 431 435
3 439 437 434
3 434 437 439
3 435 440 434
3 434 440 435
3 433 437 438
3 438 437 433
3 436 438 441
3 441 438 436
3 436 440 435
3 435 440 436
3 437 439 442
3 442 439 437
3 440 439 434
3 434 439 440
3 442 438 437
3 437 438 442
3 443 441 438
3 438 441 443
3 440 436 441
3 441 436 440
3 444 442 439
3 439 442 444
3 440 445 439
3 439 445 440
3 438 442 443
3 443 442 438
3 441 443 446
3 446 443 441
3 441 445 440
3 440 445 441
3 442 444 447
3 447 444 442
3 445 444 439
3 439 444 445
3 447 443 442
3 442 443 447
3 448 446 443
3 443 446 448
3 445 441 446
3 446 441 445
3 449 447 444
3 444 447 449
3 445 450 444
3 444 450 445
3 443 447 448
3 448 447 443
3 446 448 451
3 451 448 446
3 446 450 445
3 445 450 446
3 447 449 452
3 452 449 447
3 450 449 444
3 444 449 450
3 452 448 447
3 447 448 452
3 453 451 448
3 448 451 453
3 450 446 451
3 451 446 450
3 454 452 449
3 449 452 454
3 450 455 449
3 449 455 450
3 448 452 453
3 453 452 448
3 451 453 456
3 456 453 451
3 451 455 450
3 450 455 451
3 452 454 457
3 457 454 452
3 455 454 449
3 449 454 455
3 457 453 452
3 452 453 457
3 458 456 453
3 453 456 458
3 455 451 456
3 456 451 455
3 459 457 454
3 454 457 459
3 455 460 454
3 454 460 455
3 453 457 458
3 458 457 453
3 456 458 461
3 461 458 456
3 456 460 455
3 455 460 456
3 457 459 462
3 462 459 457
3 460 459 454
3 454 459 460
3 462 458 457
3 457 458 462
3 463 461 458
3 458 461 463
3 460 456 461
3 461 456 460
3 464 462 459
3 459 462 464
3 460 465 459
3 459 465 460
3 458 462 463
3 463 462 458
3 461 463 466
3 466 463 461
3 461 465 460
3 460 465 461
3 462 464 467
3 467 464 462
3 465 464 459
3 459 464 465
3 467 463 462
3 462 463 467
3 468 466 463
3 463 466 468
3 465 461 466
3 466 461 465
3 464 469 467
3 467 469 464
3 465 470 464
3 464 470 465
3 463 467 468
3 468 467 463
3 466 468 471
3 471 468 466
3 466 470 465
3 465 470 466
3 469 464 472
3 472 464 469
3 469 468 467
3 467 468 469
3 464 470 472
3 472 470 464
3 473 471 468
3 468 471 473
3 470 466 471
3 471 466 470
3 472 474 469
3 469 474 472
3 468 469 473
3 473 469 468
3 471 472 470
3 470 472 471
3 471 473 475
3 475 473 471
3 474 472 476
3 476 472 474
3 474 473 469
3 469 473 474
3 475 472 471
3 471 472 475
3 477 475 473
3 473 475 477
3 472 478 476
3 476 478 472
3 476 479 474
3 474 479 476
3 473 474 477
3 477 474 473
3 475 477 480
3 480 477 475
3 475 476 478
3 478 476 475
3 479 476 481
3 481 476 479
3 479 477 474
3 474 477 479
3 482 480 477
3 477 480 482
3 480 476 475
3 475 476 480
3 476 483 481
3 481 483 476
3 481 484 479
3 479 484 481
3 477 479 482
3 482 479 477
3 480 482 485
3 485 482 480
3 480 481 483
3 483 481 480
3 484 481 486
3 486 481 484
3 484 482 479
3 479 482 484
3 487 485 482
3 482 485 487
3 485 481 480
3 480 481 485
3 481 488 486
3 486 488 481
3 486 489 484
3 484 489 486
3 482 484 487
3 487 484 482
3 485 487 490
3 490 487 485
3 485 486 488
3 488 486 485
3 489 486 491
3 491 486 489
3 489 487 484
3 484 487 489
3 492 490 487
3 487 490 492
3 490 486 485
3 485 486 490
3 486 493 491
3 491 493 486
3 491 494 489
3 489 494 491
3 487 489 492
3 492 489 487
3 490 492 495
3 495 492 490
3 490 491 493
3 493 491 490
3 494 491 496
3 496 491 494
3 494 492 489
3 489 492 494
3 497 495 492
3 492 495 497
3 495 491 490
3 490 491 495
3 491 498 496
3 496 498 491
3 496 499 494
3 494 499 496
3 492 494 497
3 497 494 492
3 495 497 500
3 500 497 495
3 495 496 498
3 498 496 495
3 499 496 501
3 501 496 499
3 499 497 494
3 494 497 499
3 502 500 497
3 497 500 502
3 500 496 495
3 495 496 500
3 496 503 501
3 501 503 496
3 501 504 499
3 499 504 501
3 497 499 502
3 502 499 497
3 500 502 505
3 505 502 500
3 500 501 503
3 503 501 500
3 504 501 506
3 506 501 504
3 504 502 499
3 499 502 504
3 507 505 502
3 502 505 507
3 505 501 500
3 500 501 505
3 501 508 506
3 506 508 501
3 506 509 504
3 504 509 506
3 502 504 507
3 507 504 502
3 505 507 510
3 510 507 505
3 505 506 508
3 508 506 505
3 509 506 511
3 511 506 509
3 509 507 504
3 504 507 509
3 512 510 507
3 507 510 512
3 510 506 505
3 505 506 510
3 506 513 511
3 511 513 506
3 511 514 509
3 509 514 511
3 507 509 512
3 512 509 507
3 510 512 515
3 515 512 510
3 510 511 513
3 513 511 510
3 514 511 516
3 516 511 514
3 514 512 509
3 509 512 514
3 517 515 512
3 512 515 517
3 515 511 510
3 510 511 515
3 511 518 516
3 516 518 511
3 516 519 514
3 514 519 516
3 512 514 517
3 517 514 512
3 515 517 520
3 520 517 515
3 515 516 518
3 518 516 515
3 519 516 521
3 521 516 519
3 519 517 514
3 514 517 519
3 522 520 517
3 517 520 522
3 520 516 515
3 515 516 520
3 516 523 521
3 521 523 516
3 521 524 519
3 519 524 521
3 517 519 522
3 522 519 517
3 520 522 525
3 525 522 520
3 520 521 523
3 523 521 520
3 524 521 526
3 526 521 524
3 524 522 519
3 519 522 524
3 527 525 522
3 522 525 527
3 525 521 520
3 520 521 525
3 521 528 526
3 526 528 521
3 522 524 527
3 527 524 522
3 525 527 530
3 530 527 525
3 525 526 528
3 528 526 525
3 530 526 525
3 525 526 530
3 537 539 534
3 534 539 537
3 539 537 541
3 541 537 539
3 539 538 534
3 534 538 539
3 542 540 538
3 538 540 542
3 537 543 541
3 541 543 537
3 541 544 539
3 539 544 541
3 538 539 542
3 542 539 538
3 540 542 545
3 545 542 540
3 540 541 543
3 543 541 540
3 544 541 546
3 546 541 544
3 544 542 539
3 539 542 544
3 547 545 542
3 542 545 547
3 545 541 540
3 540 541 545
3 541 548 546
3 546 548 541
3 546 549 544
3 544 549 546
3 542 544 547
3 547 544 542
3 545 547 550
3 550 547 545
3 545 546 548
3 548 546 545
3 549 546 551
3 551 546 549
3 549 547 544
3 544 547 549
3 552 550 547
3 547 550 552
3 550 546 545
3 545 546 550
3 546 553 551
3 551 553 546
3 551 554 549
3 549 554 551
3 547 549 552
3 552 549 547
3 550 552 555
3 555 552 550
3 550 551 553
3 553 551 550
3 554 551 556
3 556 551 554
3 554 552 549
3 549 552 554
3 557 555 552
3 552 555 557
3 555 551 550
3 550 551 555
3 551 558 556
3 556 558 551
3 559 554 556
3 556 554 559
3 552 554 557
3 557 554 552
3 555 557 560
3 560 557 555
3 555 556 558
3 558 556 555
3 554 559 561
3 561 559 554
3 562 559 556
3 556 559 562
3 561 557 554
3 554 557 561
3 563 560 557
3 557 560 563
3 560 556 555
3 555 556 560
3 564 561 559
3 559 561 564
3 562 565 559
3 559 565 562
3 557 561 563
3 563 561 557
3 560 563 566
3 566 563 560
3 561 564 567
3 567 564 561
3 565 564 559
3 559 564 565
3 560 565 562
3 562 565 560
3 567 563 561
3 561 563 567
3 568 566 563
3 563 566 568
3 565 560 566
3 566 560 565
3 569 567 564
3 564 567 569
3 565 570 564
3 564 570 565
3 563 567 568
3 568 567 563
3 566 568 571
3 571 568 566
3 566 570 565
3 565 570 566
3 567 569 572
3 572 569 567
3 570 569 564
3 564 569 570
3 572 568 567
3 567 568 572
3 573 571 568
3 568 571 573
3 570 566 571
3 571 566 570
3 574 572 569
3 569 572 574
3 570 575 569
3 569 575 570
3 568 572 573
3 573 572 568
3 571 573 576
3 576 573 571
3 571 575 570
3 570 575 571
3 572 574 577
3 577 574 572
3 575 574 569
3 569 574 575
3 577 573 572
3 572 573 577
3 578 576 573
3 573 576 578
3 575 571 576
3 576 571 575
3 579 577 574
3 574 577 579
3 575 580 574
3 574 580 575
3 573 577 578
3 578 577 573
3 576 578 581
3 581 578 576
3 576 580 575
3 575 580 576
3 577 579 582
3 582 579 577
3 580 579 574
3 574 579 580
3 582 578 577
3 577 578 582
3 583 581 578
3 578 581 583
3 580 576 581
3 581 576 580
3 584 582 579
3 579 582 584
3 580 585 579
3 579 585 580
3 578 582 583
3 583 582 578
3 581 583 586
3 586 583 581
3 581 585 580
3 580 585 581
3 582 584 587
3 587 584 582
3 585 584 579
3 579 584 585
3 587 583 582
3 582 583 587
3 588 586 583
3 583 586 588
3 585 581 586
3 586 581 585
3 589 587 584
3 584 587 589
3 585 590 584
3 584 590 585
3 583 587 588
3 588 587 583
3 586 588 591
3 591 588 586
3 586 590 585
3 585 590 586
3 587 589 592
3 592 589 587
3 590 589 584
3 584 589 590
3 592 588 587
3 587 588 592
3 593 591 588
3 588 591 593
3 590 586 591
3 591 586 590
3 594 592 589
3 589 592 594
3 590 595 589
3 589 595 590
3 588 592 593
3 593 592 588
3 591 593 596
3 596 593 591
3 591 595 590
3 590 595 591
3 592 594 597
3 597 594 592
3 595 594 589
3 589 594 595
3 597 593 592
3 592 593 597
3 598 596 593
3 593 596 598
3 595 591 596
3 596 591 595
3 595 599 594
3 594 599 595
3 593 597 598
3 598 597 593
3 596 598 600
3 600 598 596
3 596 599 595
3 595 599 596
3 599 596 600
3 600 596 599
3 597 598 594
3 594 598 599
3 600 599 598
3 601 602 603
3 602 601 604
3 603 602 601
3 604 601 602
3 605 606 607
3 606 605 608
3 607 606 605
3 608 605 606
3 609 610 611
3 610 609 612
3 611 610 609
3 612 609 610
