ply
format ascii 1.0
comment Generated by PyMesh
element vertex 165
property double x
property double y
property double z
element face 644
property list uchar int vertex_indices
end_header
-0.15805 0.122902 0.368782
-0.15805 -0.0877798 2.35284e-07
-0.15805 -0.0877798 0.368782
-0.15805 0.122902 2.35284e-07
-0.0878056 -0.0877798 0.368782
-0.0878056 0.122902 2.35284e-07
-0.0878056 -0.0877798 2.35284e-07
-0.0878056 0.122902 0.368782
-0.15805 0.0175869 0.368782
0.15805 0.0175869 0.439027
-0.15805 0.0175869 0.439027
0.15805 0.0175869 0.368782
-0.15805 0.0878308 0.439027
0.15805 0.0878308 0.368782
0.15805 0.0878308 0.439027
-0.15805 0.0878308 0.368782
-0.15805 0.0175869 -0.439027
0.15805 0.0175869 -0.368782
-0.15805 0.0175869 -0.368782
0.15805 0.0175869 -0.439027
-0.15805 0.0878308 -0.368782
0.15805 0.0878308 -0.439027
0.15805 0.0878308 -0.368782
-0.15805 0.0878308 -0.439027
-0.15805 -0.0877798 -0.439027
-0.0878056 -0.0877798 -0.368782
-0.15805 -0.0877798 -0.368782
0.15805 -0.0877798 -0.439027
-0.15805 0.0175869 -0.368782
-0.15805 0.0175869 -0.439027
0.15805 -0.0877798 2.35284e-07
0.15805 0.0175869 -0.439027
-0.0878056 0.0175869 -0.368782
-0.0878056 0.0175869 -0.439027
-0.0878056 -0.0877798 0.368782
-0.0878056 0.0175869 0.368782
0.15805 -0.0877798 0.439027
0.15805 0.0175869 2.35284e-07
-0.0878056 0.0175869 2.35284e-07
-0.15805 -0.0877798 0.368782
-0.15805 -0.0877798 0.439027
0.15805 0.0175869 0.439027
-0.15805 0.0175869 0.368782
-0.0878056 0.0175869 0.439027
-0.15805 0.0175869 0.439027
-0.15805 0.122902 2.35284e-07
-0.15805 -0.0877798 -0.368782
-0.15805 -0.0877798 2.35284e-07
-0.15805 0.122902 -0.368782
-0.0878056 -0.0877798 2.35284e-07
-0.0878056 0.122902 -0.368782
-0.0878056 -0.0877798 -0.368782
-0.0878056 0.122902 2.35284e-07
0.152781 0.0386601 -0.453075
0.152781 -0.122902 -0.439027
0.152781 -0.122902 -0.453075
0.152781 -0.101829 -0.439027
-0.152781 -0.122902 -0.453075
0.140489 -0.108853 -0.453075
0.152781 -0.0877798 -0.439027
0.140489 -0.101829 -0.439027
-0.152781 -0.122902 -0.439027
0.140489 -0.101829 -0.453075
0.152781 0.0386601 -0.439027
0.152781 -0.101829 -0.00702451
0.140489 -0.108853 -0.439027
-0.152781 -0.101829 -0.439027
-0.138732 -0.108853 -0.453075
0.140489 0.0386601 -0.453075
0.140489 0.0386601 -0.439027
0.152781 -0.101829 0.00702448
0.144001 -0.101829 -0.00702451
-0.138732 -0.108853 -0.439027
-0.152781 0.0386601 -0.453075
-0.138732 -0.101829 -0.439027
-0.138732 -0.101829 -0.453075
0.140489 -0.0877798 -0.453075
0.140489 -0.0877798 -0.439027
0.152781 -0.101829 0.439027
0.152781 -0.122902 0.00702448
0.140489 -0.101829 -0.00702451
0.140489 -0.108853 -0.00702451
-0.152781 -0.0877798 -0.439027
-0.138732 0.0386601 -0.453075
-0.138732 -0.101829 -0.00702451
-0.138732 -0.0877798 -0.453075
0.140489 -0.0877798 -0.00702451
0.152781 -0.0877798 0.439027
0.140489 -0.101829 0.00702448
0.152781 -0.122902 -0.00702451
0.144001 -0.101829 0.00702448
-0.152781 -0.101829 -0.00702451
-0.152781 0.0386601 -0.439027
-0.138732 -0.0877798 -0.439027
0.144001 -0.0877798 -0.00702451
0.152781 0.0386601 0.453075
0.152781 -0.0877798 0.00702448
0.140489 -0.101829 0.439027
-0.152781 -0.122902 -0.00702451
0.140489 -0.108853 0.00702448
0.144001 -0.0877798 0.00702448
-0.152781 -0.101829 0.00702448
-0.138732 0.0386601 -0.439027
-0.138732 -0.101829 0.00702448
0.152781 -0.122902 0.453075
0.152781 0.0386601 0.439027
0.140489 -0.0877798 0.439027
0.140489 -0.108853 0.439027
0.140489 -0.0877798 0.00702448
-0.152781 -0.122902 0.00702448
-0.138732 -0.108853 -0.00702451
-0.152781 -0.0877798 0.439027
-0.138732 -0.0877798 0.00702448
-0.138732 -0.108853 0.00702448
0.152781 -0.122902 0.439027
0.140489 0.0386601 0.453075
0.140489 -0.101829 0.453075
-0.138732 -0.101829 0.439027
-0.152781 -0.101829 0.439027
-0.138732 -0.0877798 0.439027
-0.152781 -0.122902 0.439027
0.140489 0.0386601 0.439027
0.140489 -0.108853 0.453075
-0.152781 0.0386601 0.453075
-0.152781 -0.122902 0.453075
0.140489 -0.0877798 0.453075
-0.138732 -0.108853 0.439027
-0.138732 -0.108853 0.453075
-0.138732 -0.101829 0.453075
-0.138732 -0.0877798 0.453075
-0.152781 0.0386601 0.439027
-0.138732 0.0386601 0.439027
-0.138732 0.0386601 0.453075
0.15805 0.0386601 -0.439027
0.15805 0.0386601 -0.400392
0.15805 0.0527086 -0.439027
0.172098 0.0386601 -0.400392
0.15805 0.0527086 -0.400392
-0.15805 0.0386601 -0.439027
0.172098 0.0386601 -0.453075
0.172098 0.0527086 -0.400392
-0.15805 0.0527086 -0.439027
0.172098 0.0527086 -0.453075
-0.15805 0.0527086 -0.400392
-0.172098 0.0527086 -0.453075
-0.172098 0.0386601 -0.453075
-0.172098 0.0527086 -0.400392
-0.15805 0.0386601 -0.400392
-0.172098 0.0386601 -0.400392
0.15805 0.0527086 0.439027
0.15805 0.0386601 0.400392
0.15805 0.0386601 0.439027
0.15805 0.0527086 0.400392
0.172098 0.0386601 0.400392
-0.15805 0.0386601 0.439027
0.172098 0.0527086 0.400392
0.172098 0.0386601 0.453075
-0.15805 0.0527086 0.439027
0.172098 0.0527086 0.453075
-0.15805 0.0527086 0.400392
-0.172098 0.0527086 0.453075
-0.172098 0.0386601 0.453075
-0.15805 0.0386601 0.400392
-0.172098 0.0527086 0.400392
-0.172098 0.0386601 0.400392
3 1 4 2
3 2 4 1
3 4 1 6
3 6 1 4
3 0 1 2
3 1 0 3
3 2 1 0
3 3 0 1
3 4 0 2
3 2 0 4
3 0 5 3
3 3 5 0
3 5 1 3
3 3 1 5
3 0 4 7
3 7 4 0
3 5 0 7
3 7 0 5
3 1 5 6
3 6 5 1
3 5 4 6
3 6 4 5
3 4 5 7
3 7 5 4
3 8 9 10
3 9 8 11
3 10 9 8
3 11 8 9
3 9 12 10
3 10 12 9
3 12 8 10
3 10 8 12
3 8 13 11
3 11 13 8
3 13 9 11
3 11 9 13
3 12 9 14
3 14 9 12
3 8 12 15
3 15 12 8
3 13 8 15
3 15 8 13
3 9 13 14
3 14 13 9
3 13 12 14
3 14 12 13
3 12 13 15
3 15 13 12
3 16 17 18
3 17 16 19
3 18 17 16
3 19 16 17
3 17 20 18
3 18 20 17
3 20 16 18
3 18 16 20
3 16 21 19
3 19 21 16
3 21 17 19
3 19 17 21
3 20 17 22
3 22 17 20
3 16 20 23
3 23 20 16
3 21 16 23
3 23 16 21
3 17 21 22
3 22 21 17
3 21 20 22
3 22 20 21
3 20 21 23
3 23 21 20
3 30 25 27
3 27 25 30
3 30 34 25
3 25 34 30
3 36 34 30
3 30 34 36
3 24 25 26
3 27 25 24
3 26 25 24
3 24 25 27
3 25 28 26
3 26 28 25
3 26 29 24
3 24 29 26
3 24 31 27
3 27 31 24
3 28 25 32
3 32 25 28
3 29 26 28
3 28 26 29
3 33 24 29
3 29 24 33
3 31 30 27
3 27 30 31
3 31 24 33
3 33 24 31
3 25 35 32
3 32 35 25
3 33 28 32
3 32 28 33
3 28 33 29
3 29 33 28
3 35 25 34
3 34 25 35
3 30 31 37
3 37 31 30
3 32 31 33
3 33 31 32
3 32 35 38
3 38 35 32
3 36 39 34
3 34 39 36
3 37 36 30
3 30 36 37
3 39 35 34
3 34 35 39
3 31 38 37
3 37 38 31
3 38 31 32
3 32 31 38
3 35 37 38
3 38 37 35
3 39 36 40
3 40 36 39
3 36 37 41
3 41 37 36
3 35 39 42
3 42 39 35
3 43 37 35
3 35 37 43
3 36 43 40
3 40 43 36
3 44 39 40
3 40 39 44
3 37 43 41
3 41 43 37
3 43 36 41
3 41 36 43
3 39 44 42
3 42 44 39
3 44 35 42
3 42 35 44
3 35 44 43
3 43 44 35
3 40 43 44
3 44 43 40
3 46 49 47
3 47 49 46
3 49 46 51
3 51 46 49
3 45 46 47
3 46 45 48
3 47 46 45
3 48 45 46
3 49 45 47
3 47 45 49
3 45 50 48
3 48 50 45
3 50 46 48
3 48 46 50
3 45 49 52
3 52 49 45
3 50 45 52
3 52 45 50
3 46 50 51
3 51 50 46
3 50 49 51
3 51 49 50
3 49 50 52
3 52 50 49
3 53 54 55
3 54 53 56
3 55 54 53
3 56 53 54
3 54 57 55
3 55 57 54
3 55 58 53
3 53 58 55
3 56 53 59
3 59 53 56
3 60 54 56
3 56 54 60
3 57 54 61
3 61 54 57
3 58 55 57
3 57 55 58
3 62 53 58
3 58 53 62
3 59 53 63
3 63 53 59
3 56 59 64
3 64 59 56
3 54 60 65
3 65 60 54
3 64 60 56
3 56 60 64
3 54 65 61
3 61 65 54
3 66 57 61
3 61 57 66
3 58 57 67
3 67 57 58
3 53 62 68
3 68 62 53
3 58 60 62
3 62 60 58
3 53 69 63
3 63 69 53
3 69 59 63
3 63 59 69
3 64 59 70
3 70 59 64
3 60 58 65
3 65 58 60
3 71 60 64
3 64 60 71
3 61 65 72
3 72 65 61
3 57 66 73
3 73 66 57
3 61 74 66
3 66 74 61
3 67 57 75
3 75 57 67
3 72 58 67
3 67 58 72
3 68 62 76
3 76 62 68
3 69 53 68
3 68 53 69
3 60 75 62
3 62 75 60
3 59 69 77
3 77 69 59
3 70 59 78
3 78 59 70
3 79 64 70
3 70 64 79
3 58 72 65
3 65 72 58
3 60 71 80
3 80 71 60
3 64 81 71
3 71 81 64
3 61 72 74
3 74 72 61
3 73 66 82
3 82 66 73
3 83 57 73
3 73 57 83
3 84 66 74
3 74 66 84
3 75 57 85
3 85 57 75
3 75 72 67
3 67 72 75
3 75 76 62
3 62 76 75
3 76 69 68
3 68 69 76
3 75 60 74
3 74 60 75
3 69 76 77
3 77 76 69
3 86 59 77
3 77 59 86
3 87 78 59
3 59 78 87
3 78 88 70
3 70 88 78
3 64 79 89
3 89 79 64
3 90 79 70
3 70 79 90
3 80 71 81
3 81 71 80
3 90 80 71
3 71 80 90
3 71 86 80
3 80 86 71
3 86 60 80
3 80 60 86
3 89 81 64
3 64 81 89
3 72 75 74
3 74 75 72
3 82 66 91
3 91 66 82
3 73 82 92
3 92 82 73
3 85 57 83
3 83 57 85
3 92 83 73
3 73 83 92
3 66 84 91
3 91 84 66
3 93 84 74
3 74 84 93
3 76 75 85
3 85 75 76
3 77 74 60
3 60 74 77
3 76 93 77
3 77 93 76
3 94 59 86
3 86 59 94
3 60 86 77
3 77 86 60
3 95 78 87
3 87 78 95
3 87 59 96
3 96 59 87
3 88 78 97
3 97 78 88
3 70 88 90
3 90 88 70
3 79 98 89
3 89 98 79
3 79 90 99
3 99 90 79
3 81 88 80
3 80 88 81
3 80 90 88
3 88 90 80
3 100 71 90
3 90 71 100
3 86 71 94
3 94 71 86
3 81 89 98
3 98 89 81
3 82 91 101
3 101 91 82
3 93 92 82
3 82 92 93
3 83 93 85
3 85 93 83
3 83 92 102
3 102 92 83
3 84 98 91
3 91 98 84
3 84 93 103
3 103 93 84
3 74 77 93
3 93 77 74
3 93 76 85
3 85 76 93
3 100 59 94
3 94 59 100
3 104 78 95
3 95 78 104
3 95 87 105
3 105 87 95
3 59 100 96
3 96 100 59
3 96 106 87
3 87 106 96
3 97 78 107
3 107 78 97
3 106 88 97
3 97 88 106
3 99 90 88
3 88 90 99
3 90 108 88
3 88 108 90
3 98 79 109
3 109 79 98
3 79 99 109
3 109 99 79
3 88 81 99
3 99 81 88
3 88 84 80
3 80 84 88
3 71 100 94
3 94 100 71
3 108 90 100
3 100 90 108
3 81 98 110
3 110 98 81
3 98 101 91
3 91 101 98
3 82 101 111
3 111 101 82
3 92 93 102
3 102 93 92
3 82 112 93
3 93 112 82
3 93 83 102
3 102 83 93
3 110 98 84
3 84 98 110
3 103 93 112
3 112 93 103
3 84 88 103
3 103 88 84
3 113 84 103
3 103 84 113
3 78 104 114
3 114 104 78
3 115 104 95
3 95 104 115
3 106 105 87
3 87 105 106
3 105 115 95
3 95 115 105
3 108 96 100
3 100 96 108
3 106 96 108
3 108 96 106
3 114 107 78
3 78 107 114
3 107 116 97
3 97 116 107
3 88 106 108
3 108 106 88
3 117 106 97
3 97 106 117
3 112 88 108
3 108 88 112
3 101 98 109
3 109 98 101
3 109 99 113
3 113 99 109
3 81 113 99
3 99 113 81
3 113 81 110
3 110 81 113
3 118 111 101
3 101 111 118
3 111 112 82
3 82 112 111
3 84 113 110
3 110 113 84
3 88 112 103
3 103 112 88
3 119 103 112
3 112 103 119
3 101 113 103
3 103 113 101
3 104 120 114
3 114 120 104
3 104 115 116
3 116 115 104
3 105 106 121
3 121 106 105
3 115 105 121
3 121 105 115
3 107 114 120
3 120 114 107
3 116 107 122
3 122 107 116
3 116 117 97
3 97 117 116
3 106 117 119
3 119 117 106
3 109 113 101
3 101 113 109
3 118 123 111
3 111 123 118
3 101 117 118
3 118 117 101
3 112 111 119
3 119 111 112
3 103 119 117
3 117 119 103
3 117 101 103
3 103 101 117
3 120 104 124
3 124 104 120
3 116 115 125
3 125 115 116
3 122 104 116
3 116 104 122
3 106 115 121
3 121 115 106
3 107 120 126
3 126 120 107
3 107 127 122
3 122 127 107
3 117 116 128
3 128 116 117
3 129 106 119
3 119 106 129
3 120 123 118
3 118 123 120
3 111 123 130
3 130 123 111
3 117 120 118
3 118 120 117
3 111 131 119
3 119 131 111
3 104 122 124
3 124 122 104
3 123 120 124
3 124 120 123
3 115 106 125
3 125 106 115
3 116 125 128
3 128 125 116
3 126 120 117
3 117 120 126
3 127 107 126
3 126 107 127
3 124 122 127
3 127 122 124
3 127 117 128
3 128 117 127
3 106 129 125
3 125 129 106
3 131 129 119
3 119 129 131
3 123 131 130
3 130 131 123
3 131 111 130
3 130 111 131
3 124 127 123
3 123 127 124
3 128 125 129
3 129 125 128
3 117 127 126
3 126 127 117
3 128 123 127
3 127 123 128
3 129 131 132
3 132 131 129
3 131 123 132
3 132 123 131
3 129 123 128
3 128 123 129
3 123 129 132
3 132 129 123
3 133 134 135
3 135 134 133
3 134 133 136
3 136 133 134
3 137 135 134
3 134 135 137
3 133 135 138
3 138 135 133
3 136 133 139
3 139 133 136
3 136 140 134
3 134 140 136
3 137 140 135
3 135 140 137
3 137 134 140
3 140 134 137
3 141 138 135
3 135 138 141
3 138 139 133
3 133 139 138
3 136 139 140
3 140 139 136
3 140 142 135
3 135 142 140
3 141 143 138
3 138 143 141
3 135 144 141
3 141 144 135
3 139 138 145
3 145 138 139
3 142 140 139
3 139 140 142
3 144 135 142
3 142 135 144
3 143 141 146
3 146 141 143
3 147 138 143
3 143 138 147
3 146 141 144
3 144 141 146
3 148 145 138
3 138 145 148
3 145 144 139
3 139 144 145
3 142 139 144
3 144 139 142
3 146 148 143
3 143 148 146
3 147 148 138
3 138 148 147
3 147 143 148
3 148 143 147
3 146 144 148
3 148 144 146
3 145 148 144
3 144 148 145
3 149 150 151
3 150 149 152
3 151 150 149
3 152 149 150
3 153 151 150
3 150 151 153
3 154 149 151
3 151 149 154
3 149 155 152
3 152 155 149
3 155 150 152
3 152 150 155
3 156 151 153
3 153 151 156
3 150 155 153
3 153 155 150
3 149 154 157
3 157 154 149
3 151 156 154
3 154 156 151
3 149 158 155
3 155 158 149
3 155 156 153
3 153 156 155
3 154 159 157
3 157 159 154
3 157 160 149
3 149 160 157
3 161 154 156
3 156 154 161
3 158 149 160
3 160 149 158
3 156 155 158
3 158 155 156
3 159 154 162
3 162 154 159
3 163 157 159
3 159 157 163
3 160 157 163
3 163 157 160
3 154 161 164
3 164 161 154
3 156 160 161
3 161 160 156
3 160 156 158
3 158 156 160
3 154 164 162
3 162 164 154
3 164 159 162
3 162 159 164
3 159 164 163
3 163 164 159
3 164 160 163
3 163 160 164
3 160 164 161
3 161 164 160
