ply
format ascii 1.0
comment Generated by PyMesh
element vertex 258
property double x
property double y
property double z
element face 1048
property list uchar int vertex_indices
end_header
-0.117336 -0.186116 -0.432333
-0.168668 -0.186116 0.432333
-0.168668 -0.186116 -0.432333
-0.117336 -0.186116 0.432333
-0.168668 0.186116 -0.432333
-0.155384 -0.172832 -0.432333
-0.113571 -0.157515 0.432333
-0.155384 -0.172832 0.432333
-0.168668 0.186116 0.432333
-0.128986 -0.172832 -0.432333
-0.113571 -0.157515 -0.432333
-0.128986 -0.172832 0.432333
-0.150957 0.174981 0.432333
-0.158501 0.164033 -0.432333
-0.128986 -0.172832 -0.416823
-0.102531 -0.130863 0.432333
-0.126513 -0.154047 0.432333
-0.158501 0.164033 0.432333
-0.155384 -0.172832 0.416823
-0.150957 0.174981 -0.432333
-0.155384 0.161685 -0.432333
-0.126513 -0.154047 -0.432333
-0.155384 -0.172832 -0.416823
-0.102531 -0.130863 -0.432333
-0.126513 -0.154047 0.416823
-0.155384 0.161685 0.432333
-0.128986 -0.172832 0.416823
-0.134245 0.162398 0.432333
-0.134245 0.162398 -0.432333
-0.155384 0.162072 -0.432333
-0.155384 0.161685 -0.416823
-0.126513 -0.154047 -0.416823
-0.0849698 -0.107977 0.432333
-0.114135 -0.124164 0.432333
-0.114135 -0.124164 0.416823
-0.155384 0.162072 0.432333
-0.155384 0.161685 0.416823
-0.142682 0.152121 -0.432333
-0.114135 -0.124164 -0.432333
-0.0849698 -0.107977 -0.432333
-0.142682 0.152121 0.432333
-0.142682 0.152121 0.416823
-0.118649 0.148454 0.432333
-0.118649 0.148454 -0.432333
-0.114135 -0.124164 -0.416823
-0.0620832 -0.0904151 -0.432333
-0.0944439 -0.098502 0.432333
-0.0944439 -0.098502 0.416823
-0.12792 0.138923 0.416823
-0.12792 0.138923 -0.432333
-0.142682 0.152121 -0.416823
-0.0944439 -0.098502 -0.432333
-0.0944439 -0.098502 -0.416823
-0.0620832 -0.0904151 0.432333
-0.0687827 -0.0788107 0.416823
-0.12792 0.138923 0.432333
-0.114318 0.124532 0.416823
-0.10428 0.133249 -0.432333
-0.12792 0.138923 -0.416823
-0.0687827 -0.0788107 -0.416823
-0.035431 -0.079375 -0.432333
-0.0687827 -0.0788107 -0.432333
-0.0687827 -0.0788107 0.432333
-0.0388989 -0.0664325 0.416823
-0.10428 0.133249 0.432333
-0.101974 0.109047 0.416823
-0.114318 0.124532 0.432333
-0.114318 0.124532 -0.432333
-0.114318 0.124532 -0.416823
-0.0388989 -0.0664325 -0.416823
-0.035431 -0.079375 0.432333
-0.0388989 -0.0664325 0.432333
-0.0557692 -0.0326717 0.416823
-0.0909749 0.0925811 0.416823
-0.101974 0.109047 0.432333
-0.0912384 0.116891 -0.432333
-0.101974 0.109047 -0.416823
-0.0557692 -0.0326717 -0.416823
-0.00682998 -0.0756095 -0.432333
-0.00682998 -0.0756095 0.432333
-0.00682998 -0.0622109 0.432333
-0.00682998 -0.0622109 0.416823
-0.0585086 -0.000214938 0.416823
-0.0912384 0.116891 0.432333
-0.0813978 0.075249 0.416823
-0.0909749 0.0925811 0.432333
-0.101974 0.109047 -0.432333
-0.0909749 0.0925811 -0.416823
-0.0585086 -0.000214938 -0.416823
-0.00682998 -0.0622109 -0.416823
-0.0388989 -0.0664325 -0.432333
0.0252395 -0.0664325 0.432333
0.129796 -0.0602097 0.416823
-0.0557692 -0.0326717 0.432333
-0.0618261 0.0193072 0.416823
-0.0733115 0.0571733 0.416823
-0.0813978 0.075249 0.432333
-0.079618 0.0994951 0.432333
-0.079618 0.0994951 -0.432333
-0.0813978 0.075249 -0.416823
-0.0618261 0.0193072 -0.416823
-0.0585086 -0.000214938 -0.432333
0.129796 -0.0602097 -0.416823
0.0217716 -0.079375 -0.432333
0.0252395 -0.0664325 -0.432333
0.0551233 -0.0788107 0.432333
0.0252395 -0.0664325 0.416823
0.121807 -0.0531832 0.416823
-0.0585086 -0.000214938 0.432333
0.0621856 -0.0326717 0.416823
-0.0667714 0.0384821 0.416823
-0.0733115 0.0571733 0.432333
-0.0695001 0.0811842 0.432333
-0.0909749 0.0925811 -0.432333
-0.0733115 0.0571733 -0.416823
-0.0667714 0.0384821 -0.416823
-0.0618261 0.0193072 -0.432333
-0.0557692 -0.0326717 -0.432333
0.121807 -0.0531832 -0.416823
0.0252395 -0.0664325 -0.416823
-0.00682998 -0.0622109 -0.432333
0.0217716 -0.079375 0.432333
0.0551233 -0.0788107 -0.432333
0.136957 -0.0680779 0.416823
0.121807 -0.0531832 0.432333
0.113089 -0.0470847 0.416823
-0.0435589 -0.0193872 0.432333
0.0621856 -0.0326717 0.432333
0.0731776 -0.0332818 0.416823
-0.0618261 0.0193072 0.432333
-0.0667714 0.0384821 0.432333
-0.0609567 0.0620877 0.432333
-0.0695001 0.0811842 -0.432333
-0.0813978 0.075249 -0.432333
-0.0667714 0.0384821 -0.432333
-0.0435589 -0.0193872 -0.432333
0.0621856 -0.0326717 -0.432333
-0.045318 0.00145929 -0.432333
0.113089 -0.0470847 -0.416823
0.129796 -0.0602097 -0.432333
0.136957 -0.0680779 -0.416823
0.0484237 -0.0904151 -0.432333
0.0551233 -0.0788107 -0.416823
0.0484237 -0.0904151 0.432333
0.0551233 -0.0788107 0.416823
0.143203 -0.0766912 0.416823
0.136957 -0.0680779 0.432333
0.129796 -0.0602097 0.432333
0.113089 -0.0470847 0.432333
0.103749 -0.041989 0.416823
0.109463 -0.0299739 0.432333
-0.045318 0.00145929 0.432333
0.0836699 -0.0350446 0.416823
-0.054048 0.042341 0.432333
-0.0609567 0.0620877 -0.432333
-0.0733115 0.0571733 -0.432333
-0.0488232 0.0220839 -0.432333
0.0621856 -0.0326717 -0.416823
0.103749 -0.041989 -0.416823
0.121807 -0.0531832 -0.432333
0.143203 -0.0766912 -0.416823
0.080785 -0.098502 -0.432333
0.080785 -0.098502 -0.416823
0.080785 -0.098502 0.432333
0.143203 -0.0766912 0.432333
0.147278 -0.0596822 0.432333
0.139123 -0.0507223 0.432333
0.103749 -0.041989 0.432333
0.0939025 -0.0379589 0.416823
0.098251 -0.0253849 0.432333
0.0731776 -0.0332818 0.432333
-0.0488232 0.0220839 0.432333
-0.054048 0.042341 -0.432333
0.109463 -0.0299739 -0.432333
0.0731776 -0.0332818 -0.432333
0.0731776 -0.0332818 -0.416823
0.0939025 -0.0379589 -0.416823
0.113089 -0.0470847 -0.432333
0.147278 -0.0596822 -0.432333
0.136957 -0.0680779 -0.432333
0.0713103 -0.107977 -0.432333
0.152653 -0.0957194 -0.416823
0.0713103 -0.107977 0.432333
0.080785 -0.098502 0.416823
0.148457 -0.0859429 0.416823
0.148457 -0.0859429 0.432333
0.154391 -0.0694897 0.432333
0.130026 -0.0427207 0.432333
0.0939025 -0.0379589 0.432333
0.098251 -0.0253849 -0.432333
0.0865986 -0.0220668 0.432333
0.0625546 -0.0193872 0.432333
0.0836699 -0.0350446 0.432333
0.0836699 -0.0350446 -0.416823
0.103749 -0.041989 -0.432333
0.139123 -0.0507223 -0.432333
0.148457 -0.0859429 -0.416823
0.143203 -0.0766912 -0.432333
0.100476 -0.124164 -0.432333
0.155384 -0.104722 -0.416823
0.100476 -0.124164 0.432333
0.100476 -0.124164 0.416823
0.152653 -0.0957194 0.416823
0.160373 -0.0800247 0.432333
0.130026 -0.0427207 -0.432333
0.120099 -0.0357764 0.432333
0.0865986 -0.0220668 -0.432333
0.0746513 -0.0200587 0.432333
0.0625546 -0.0193872 -0.432333
0.0836699 -0.0350446 -0.432333
0.0939025 -0.0379589 -0.432333
0.154391 -0.0694897 -0.432333
0.0888724 -0.130863 0.432333
0.0888724 -0.130863 -0.432333
0.100476 -0.124164 -0.416823
0.152653 -0.0957194 -0.432333
0.148457 -0.0859429 -0.432333
0.155384 -0.104722 0.416823
0.152653 -0.0957194 0.432333
0.165152 -0.0911576 0.432333
0.160373 -0.0800247 -0.432333
0.120099 -0.0357764 -0.432333
0.0746513 -0.0200587 -0.432333
0.112854 -0.154047 -0.432333
0.112854 -0.154047 -0.416823
0.155384 -0.104722 -0.432333
0.112854 -0.154047 0.432333
0.112854 -0.154047 0.416823
0.155384 -0.104722 0.432333
0.165152 -0.0911576 -0.432333
0.0999114 -0.157515 0.432333
0.0999114 -0.157515 -0.432333
0.155384 -0.172832 -0.416823
0.168668 -0.102752 -0.432333
0.115327 -0.172832 0.416823
0.155384 -0.172832 0.432333
0.168668 -0.102752 0.432333
0.115327 -0.172832 -0.432333
0.153158 -0.172832 -0.416823
0.155384 -0.172832 -0.432333
0.155384 -0.172832 -0.419048
0.115327 -0.172832 0.432333
0.153158 -0.172832 0.416823
0.155384 -0.172832 0.419048
0.103677 -0.186116 0.432333
0.103677 -0.186116 -0.432333
0.115327 -0.172832 -0.416823
0.153158 -0.172832 -0.419048
0.155384 -0.172832 0.416823
0.168668 -0.186116 -0.432333
0.168668 -0.172832 0.419048
0.153158 -0.172832 0.419048
0.168668 -0.186116 0.432333
0.168668 -0.116036 0.419048
0.153158 -0.116036 -0.419048
0.168668 -0.172832 -0.419048
0.153158 -0.116036 0.419048
0.168668 -0.116036 -0.419048
3 0 1 2
3 1 0 3
3 2 1 0
3 3 0 1
3 1 4 2
3 2 4 1
3 2 5 0
3 0 5 2
3 7 1 3
3 3 1 7
3 4 1 8
3 8 1 4
3 5 2 4
3 4 2 5
3 9 0 5
3 5 0 9
3 6 11 3
3 3 11 6
3 1 7 8
3 8 7 1
3 7 3 11
3 11 3 7
3 5 4 13
3 13 4 5
3 0 9 10
3 10 9 0
3 5 14 9
3 9 14 5
3 11 6 16
3 16 6 11
3 8 7 17
3 17 7 8
3 11 18 7
3 7 18 11
3 8 17 12
3 12 17 8
3 13 4 19
3 19 4 13
3 5 13 20
3 20 13 5
3 10 9 21
3 21 9 10
3 14 5 22
3 22 5 14
3 16 6 15
3 15 6 16
3 17 7 25
3 25 7 17
3 18 11 26
3 26 11 18
3 18 25 7
3 7 25 18
3 17 27 12
3 12 27 17
3 28 13 19
3 19 13 28
3 28 29 13
3 13 29 28
3 13 29 20
3 20 29 13
3 20 22 5
3 5 22 20
3 10 21 23
3 23 21 10
3 22 14 30
3 16 15 33
3 33 15 16
3 35 27 17
3 17 27 35
3 17 25 35
3 35 25 17
3 26 18 24
3 25 18 36
3 36 18 25
3 28 37 20
3 28 20 29
3 20 37 28
3 29 20 28
3 22 20 30
3 30 20 22
3 23 21 38
3 38 21 23
3 31 30 14
3 33 15 32
3 32 15 33
3 34 24 36
3 40 27 25
3 25 27 35
3 25 27 40
3 35 27 25
3 36 24 18
3 43 37 28
3 28 37 43
3 23 38 39
3 39 38 23
3 44 30 31
3 33 32 46
3 46 32 33
3 47 34 36
3 40 42 27
3 27 42 40
3 41 48 36
3 43 49 37
3 37 49 43
3 39 38 51
3 51 38 39
3 52 30 44
3 39 51 45
3 45 51 39
3 46 32 53
3 53 32 46
3 54 47 36
3 55 42 40
3 40 42 55
3 48 56 36
3 57 49 43
3 43 49 57
3 50 30 58
3 59 30 52
3 45 51 61
3 61 51 45
3 46 53 62
3 62 53 46
3 63 54 36
3 55 64 42
3 42 64 55
3 56 65 36
3 57 67 49
3 49 67 57
3 58 30 68
3 69 30 59
3 45 61 60
3 60 61 45
3 62 53 70
3 70 53 62
3 72 63 36
3 66 64 55
3 55 64 66
3 65 73 36
3 75 67 57
3 57 67 75
3 68 30 76
3 77 30 69
3 60 61 78
3 78 61 60
3 62 70 79
3 79 70 62
3 62 79 71
3 71 79 62
3 81 63 72
3 82 72 36
3 66 83 64
3 64 83 66
3 73 84 36
3 74 83 66
3 66 83 74
3 75 86 67
3 67 86 75
3 76 30 87
3 88 30 77
3 89 77 69
3 78 61 90
3 90 61 78
3 79 91 71
3 71 91 79
3 71 91 80
3 80 91 71
3 92 81 72
3 94 82 36
3 84 95 36
3 85 97 74
3 74 97 85
3 74 97 83
3 83 97 74
3 98 86 75
3 75 86 98
3 87 30 99
3 100 30 88
3 102 77 89
3 78 90 104
3 104 90 78
3 79 105 91
3 91 105 79
3 81 92 106
3 107 92 72
3 109 93 72
3 72 93 109
3 110 94 36
3 95 110 36
3 96 112 85
3 85 112 96
3 85 112 97
3 97 112 85
3 98 113 86
3 86 113 98
3 99 30 114
3 115 30 100
3 118 77 102
3 89 119 102
3 122 103 78
3 78 103 122
3 104 90 120
3 120 90 104
3 122 78 104
3 104 78 122
3 121 105 79
3 79 105 121
3 92 123 106
3 125 107 72
3 93 126 108
3 108 126 93
3 93 109 127
3 127 109 93
3 109 128 72
3 111 131 96
3 96 131 111
3 96 131 112
3 112 131 96
3 132 113 98
3 98 113 132
3 114 30 115
3 135 117 101
3 101 117 135
3 136 77 117
3 117 77 136
3 137 101 116
3 116 101 137
3 138 77 118
3 102 119 140
3 122 141 103
3 103 141 122
3 143 105 121
3 121 105 143
3 123 145 106
3 149 125 72
3 93 150 126
3 126 150 93
3 108 126 151
3 151 126 108
3 127 150 93
3 93 150 127
3 128 152 72
3 108 151 129
3 129 151 108
3 130 153 111
3 111 153 130
3 111 153 131
3 131 153 111
3 132 133 113
3 113 133 132
3 156 116 134
3 134 116 156
3 117 135 136
3 136 135 117
3 135 101 137
3 137 101 135
3 77 136 157
3 157 136 77
3 137 116 156
3 156 116 137
3 158 77 138
3 140 119 160
3 161 141 122
3 122 141 161
3 143 163 105
3 105 163 143
3 106 145 144
3 147 165 124
3 124 165 147
3 124 166 148
3 148 166 124
3 168 149 72
3 126 150 169
3 169 150 126
3 170 150 127
3 127 150 170
3 152 168 72
3 129 151 171
3 171 151 129
3 129 171 130
3 130 171 129
3 130 171 153
3 153 171 130
3 154 133 132
3 132 133 154
3 154 155 133
3 133 155 154
3 172 134 155
3 155 134 172
3 156 134 172
3 172 134 156
3 136 135 173
3 173 135 136
3 77 175 157
3 176 77 158
3 178 139 159
3 159 139 178
3 119 142 160
3 161 180 141
3 141 180 161
3 142 162 181
3 182 163 143
3 143 163 182
3 145 184 144
3 146 165 147
3 147 165 146
3 164 186 146
3 146 186 164
3 124 165 166
3 166 165 124
3 148 166 187
3 187 166 148
3 148 187 167
3 167 187 148
3 126 169 190
3 190 169 126
3 126 135 191
3 192 150 170
3 170 150 192
3 172 155 154
3 154 155 172
3 173 135 189
3 189 135 173
3 173 174 136
3 136 174 173
3 175 77 193
3 193 77 176
3 195 159 177
3 177 159 195
3 178 179 139
3 139 179 178
3 178 159 195
3 195 159 178
3 160 142 196
3 198 180 161
3 161 180 198
3 181 162 199
3 196 142 181
3 182 200 163
3 163 200 182
3 144 202 183
3 184 202 144
3 185 203 164
3 164 203 185
3 146 186 165
3 165 186 146
3 164 203 186
3 186 203 164
3 167 187 205
3 205 187 167
3 167 205 188
3 188 205 167
3 126 190 207
3 207 190 126
3 208 191 135
3 126 207 191
3 191 207 126
3 192 205 150
3 150 205 192
3 189 135 206
3 206 135 189
3 173 209 174
3 174 209 173
3 204 177 194
3 194 177 204
3 195 177 204
3 204 177 195
3 211 179 178
3 178 179 211
3 211 197 179
3 179 197 211
3 198 213 180
3 180 213 198
3 162 214 199
3 212 200 182
3 182 200 212
3 183 217 201
3 202 217 183
3 185 219 203
3 203 219 185
3 188 205 192
3 192 205 188
3 208 222 135
3 135 222 208
3 206 135 222
3 222 135 206
3 221 209 173
3 173 209 221
3 221 194 210
3 210 194 221
3 204 194 221
3 221 194 204
3 220 197 211
3 211 197 220
3 223 213 198
3 198 213 223
3 214 224 199
3 212 226 200
3 200 226 212
3 201 217 227
3 218 219 185
3 185 219 218
3 221 210 209
3 209 210 221
3 220 216 197
3 197 216 220
3 223 231 213
3 213 231 223
3 199 224 232
3 233 225 215
3 215 225 233
3 225 232 199
3 199 232 225
3 229 215 216
3 216 215 229
3 230 226 212
3 212 226 230
3 227 217 234
3 217 235 228
3 228 235 217
3 228 236 218
3 218 236 228
3 218 236 219
3 219 236 218
3 229 216 220
3 220 216 229
3 237 231 223
3 223 231 237
3 232 224 238
3 233 239 225
3 225 239 233
3 233 215 229
3 229 215 233
3 232 225 240
3 240 225 232
3 230 241 226
3 226 241 230
3 234 217 242
3 235 217 243
3 243 217 235
3 235 236 228
3 228 236 235
3 237 245 231
3 231 245 237
3 246 238 224
3 232 247 238
3 238 247 232
3 238 248 232
3 232 248 238
3 249 239 233
3 233 239 249
3 240 225 239
3 239 225 240
3 247 232 240
3 240 232 247
3 232 250 240
3 240 250 232
3 244 241 230
3 230 241 244
3 248 242 217
3 242 234 251
3 251 234 242
3 243 217 248
3 248 217 243
3 251 235 243
3 243 235 251
3 236 235 252
3 252 235 236
3 236 253 233
3 233 253 236
3 245 237 249
3 249 237 245
3 238 237 246
3 246 237 238
3 247 238 254
3 237 238 247
3 247 238 237
3 248 238 242
3 242 238 248
3 248 250 232
3 232 250 248
3 239 249 237
3 237 249 239
3 255 249 233
3 233 249 255
3 239 247 240
3 240 247 239
3 255 247 240
3 240 247 255
3 240 250 255
3 255 250 240
3 241 244 252
3 252 244 241
3 235 234 241
3 241 234 235
3 242 243 248
3 248 243 242
3 234 235 251
3 251 235 234
3 251 256 242
3 243 242 251
3 251 242 243
3 250 248 243
3 243 248 250
3 256 243 251
3 251 243 256
3 241 252 235
3 235 252 241
3 252 250 236
3 236 250 252
3 253 236 250
3 250 236 253
3 233 253 257
3 257 253 233
3 249 244 245
3 245 244 249
3 238 242 254
3 247 255 254
3 254 255 247
3 237 247 239
3 239 247 237
3 250 249 255
3 255 249 250
3 233 257 255
3 255 257 233
3 244 249 252
3 252 249 244
3 254 242 256
3 243 256 250
3 250 256 243
3 250 252 249
3 249 252 250
3 250 256 253
3 253 256 250
3 256 257 253
3 253 257 256
3 254 255 257
3 257 255 254
3 257 256 254
3 254 256 257
3 0 6 3
3 3 6 0
3 6 0 10
3 10 0 6
3 8 4 12
3 10 15 6
3 6 15 10
3 19 12 4
3 14 21 9
3 9 21 14
3 15 10 23
3 23 10 15
3 24 11 16
3 16 11 24
3 12 19 27
3 21 14 31
3 31 14 21
3 23 32 15
3 15 32 23
3 11 24 26
3 26 24 11
3 16 34 24
3 24 34 16
3 28 27 19
3 31 38 21
3 21 38 31
3 32 23 39
3 39 23 32
3 34 16 33
3 33 16 34
3 41 25 36
3 36 25 41
3 27 28 42
3 37 30 20
3 20 30 37
3 38 31 44
3 44 31 38
3 45 32 39
3 39 32 45
3 33 47 34
3 34 47 33
3 25 41 40
3 40 41 25
3 43 42 28
3 30 37 50
3 50 37 30
3 44 51 38
3 38 51 44
3 32 45 53
3 53 45 32
3 47 33 46
3 46 33 47
3 48 40 41
3 41 40 48
3 43 57 42
3 49 50 37
3 37 50 49
3 51 44 52
3 52 44 51
3 60 53 45
3 45 53 60
3 62 47 46
3 46 47 62
3 47 62 54
3 54 62 47
3 40 48 55
3 55 48 40
3 66 48 56
3 56 48 66
3 64 42 57
3 50 49 58
3 58 49 50
3 59 51 52
3 52 51 59
3 53 60 70
3 70 60 53
3 51 59 61
3 61 59 51
3 71 54 62
3 62 54 71
3 54 71 63
3 63 71 54
3 48 66 55
3 55 66 48
3 74 56 65
3 65 56 74
3 56 74 66
3 66 74 56
3 57 75 64
3 68 49 67
3 67 49 68
3 49 68 58
3 58 68 49
3 69 61 59
3 59 61 69
3 78 70 60
3 60 70 78
3 80 63 71
3 71 63 80
3 85 65 73
3 73 65 85
3 65 85 74
3 74 85 65
3 83 64 75
3 67 76 68
3 68 76 67
3 61 69 90
3 90 69 61
3 70 78 79
3 79 78 70
3 63 80 81
3 81 80 63
3 93 82 72
3 72 82 93
3 96 73 84
3 84 73 96
3 73 96 85
3 85 96 73
3 75 98 83
3 76 67 86
3 86 67 76
3 86 87 76
3 76 87 86
3 101 77 88
3 88 77 101
3 89 90 69
3 69 90 89
3 103 79 78
3 78 79 103
3 91 81 80
3 80 81 91
3 82 93 108
3 108 93 82
3 108 94 82
3 82 94 108
3 111 84 95
3 95 84 111
3 84 111 96
3 96 111 84
3 97 83 98
3 113 99 87
3 87 99 113
3 87 86 113
3 113 86 87
3 116 88 100
3 100 88 116
3 77 101 117
3 117 101 77
3 88 116 101
3 101 116 88
3 90 89 120
3 120 89 90
3 79 103 121
3 121 103 79
3 105 106 91
3 91 106 105
3 81 91 106
3 106 91 81
3 92 124 107
3 107 124 92
3 94 108 129
3 129 108 94
3 129 110 94
3 94 110 129
3 130 95 110
3 110 95 130
3 95 130 111
3 111 130 95
3 112 97 132
3 98 132 97
3 133 114 99
3 99 114 133
3 99 113 133
3 133 113 99
3 134 100 115
3 115 100 134
3 100 134 116
3 116 134 100
3 118 139 102
3 102 139 118
3 119 120 89
3 89 120 119
3 141 121 103
3 103 121 141
3 120 119 104
3 104 119 120
3 104 142 122
3 122 142 104
3 106 105 144
3 144 105 106
3 146 92 123
3 123 92 146
3 124 92 147
3 147 92 124
3 148 107 124
3 124 107 148
3 107 148 125
3 125 148 107
3 128 127 109
3 109 127 128
3 110 129 130
3 130 129 110
3 131 112 154
3 132 154 112
3 155 115 114
3 114 115 155
3 114 133 155
3 155 133 114
3 115 155 134
3 134 155 115
3 138 159 118
3 118 159 138
3 139 118 159
3 159 118 139
3 139 140 102
3 102 140 139
3 121 141 143
3 143 141 121
3 142 104 119
3 119 104 142
3 162 122 142
3 142 122 162
3 163 144 105
3 105 144 163
3 164 123 145
3 145 123 164
3 92 146 147
3 147 146 92
3 123 164 146
3 146 164 123
3 167 125 148
3 148 125 167
3 125 167 149
3 149 167 125
3 126 151 135
3 127 128 170
3 170 128 127
3 152 170 128
3 128 170 152
3 153 131 172
3 154 172 131
3 137 135 151
3 174 157 136
3 136 157 174
3 156 137 171
3 158 177 138
3 138 177 158
3 159 138 177
3 177 138 159
3 140 139 179
3 179 139 140
3 179 160 140
3 140 160 179
3 180 143 141
3 141 143 180
3 122 162 161
3 161 162 122
3 144 163 183
3 183 163 144
3 145 185 164
3 164 185 145
3 188 149 167
3 167 149 188
3 149 188 168
3 168 188 149
3 169 189 150
3 168 192 152
3 152 192 168
3 170 152 192
3 192 152 170
3 151 171 137
3 171 153 156
3 172 156 153
3 157 174 175
3 175 174 157
3 176 194 158
3 158 194 176
3 177 158 194
3 194 158 177
3 160 179 197
3 197 179 160
3 143 180 182
3 182 180 143
3 162 198 161
3 161 198 162
3 163 201 183
3 183 201 163
3 185 145 184
3 184 145 185
3 165 166 178
3 187 204 166
3 192 168 188
3 188 168 192
3 173 150 189
3 189 169 206
3 190 206 169
3 209 175 174
3 174 175 209
3 175 209 193
3 193 209 175
3 193 210 176
3 176 210 193
3 194 176 210
3 210 176 194
3 195 178 166
3 197 196 160
3 160 196 197
3 180 212 182
3 182 212 180
3 198 162 214
3 214 162 198
3 215 199 181
3 181 199 215
3 216 181 196
3 196 181 216
3 201 163 200
3 200 163 201
3 218 184 202
3 202 184 218
3 184 218 185
3 185 218 184
3 186 165 211
3 203 186 220
3 178 211 165
3 195 166 204
3 204 187 221
3 205 221 187
3 150 173 205
3 206 190 222
3 207 222 190
3 191 208 207
3 210 193 209
3 209 193 210
3 196 197 216
3 216 197 196
3 212 180 213
3 213 180 212
3 214 223 198
3 198 223 214
3 199 215 225
3 225 215 199
3 181 216 215
3 215 216 181
3 200 227 201
3 201 227 200
3 228 202 217
3 217 202 228
3 202 228 218
3 218 228 202
3 219 203 229
3 211 220 186
3 220 229 203
3 221 205 173
3 222 207 208
3 213 230 212
3 212 230 213
3 223 214 224
3 224 214 223
3 227 200 226
3 226 200 227
3 229 233 219
3 230 213 231
3 231 213 230
3 224 237 223
3 223 237 224
3 226 234 227
3 227 234 226
3 236 219 233
3 231 244 230
3 230 244 231
3 237 224 246
3 246 224 237
3 234 226 241
3 241 226 234
3 244 231 245
3 245 231 244
3 12 4 8
3 4 12 19
3 27 19 12
3 19 27 28
3 42 28 27
3 28 42 43
3 42 57 43
3 57 42 64
3 64 75 57
3 75 64 83
3 83 98 75
3 98 83 97
3 132 97 112
3 97 132 98
3 154 112 131
3 112 154 132
3 135 151 126
3 172 131 153
3 131 172 154
3 151 135 137
3 171 137 156
3 150 189 169
3 137 171 151
3 156 153 171
3 153 156 172
3 178 166 165
3 166 204 187
3 189 150 173
3 206 169 189
3 169 206 190
3 166 178 195
3 211 165 186
3 220 186 203
3 165 211 178
3 204 166 195
3 221 187 204
3 187 221 205
3 205 173 150
3 222 190 206
3 190 222 207
3 207 208 191
3 229 203 219
3 186 220 211
3 203 229 220
3 173 205 221
3 208 207 222
3 219 233 229
3 233 219 236
3 30 14 22
3 24 18 26
3 14 30 31
3 36 24 34
3 18 24 36
3 31 30 44
3 36 34 47
3 36 48 41
3 44 30 52
3 36 47 54
3 36 56 48
3 58 30 50
3 52 30 59
3 36 54 63
3 36 65 56
3 68 30 58
3 59 30 69
3 36 63 72
3 36 73 65
3 76 30 68
3 69 30 77
3 72 63 81
3 36 72 82
3 36 84 73
3 87 30 76
3 77 30 88
3 69 77 89
3 72 81 92
3 36 82 94
3 36 95 84
3 99 30 87
3 88 30 100
3 89 77 102
3 106 92 81
3 72 92 107
3 36 94 110
3 36 110 95
3 114 30 99
3 100 30 115
3 102 77 118
3 102 119 89
3 106 123 92
3 72 107 125
3 72 128 109
3 115 30 114
3 118 77 138
3 140 119 102
3 106 145 123
3 72 125 149
3 72 152 128
3 138 77 158
3 160 119 140
3 144 145 106
3 72 149 168
3 72 168 152
3 157 175 77
3 158 77 176
3 160 142 119
3 181 162 142
3 144 184 145
3 193 77 175
3 176 77 193
3 196 142 160
3 199 162 181
3 181 142 196
3 183 202 144
3 144 202 184
3 199 214 162
3 201 217 183
3 183 217 202
3 199 224 214
3 227 217 201
3 232 224 199
3 234 217 227
3 238 224 232
3 242 217 234
3 224 238 246
3 217 242 248
3 254 238 247
3 242 256 251
3 254 242 238
3 256 242 254
3 191 135 126
3 135 191 208
