ply
format ascii 1.0
comment Generated by PyMesh
element vertex 448
property double x
property double y
property double z
element face 1784
property list uchar int vertex_indices
end_header
-0.132691 -0.00542869 0.330595
0.166969 0.0744576 0.330595
0.166969 -0.00542869 0.330595
-0.132691 0.0744576 0.330595
0.166969 0.0744576 0.442181
0.168102 -0.00542869 0.113023
-0.132691 -0.00542869 0.113023
-0.132691 0.0744576 0.332642
0.166969 -0.0347367 0.330595
-0.169235 0.0744576 0.442181
0.168102 -0.00542869 0.330595
-0.132691 -0.00542869 -0.108876
-0.132691 0.0744576 -0.329278
0.166969 -0.144697 0.334617
0.168102 -0.0347367 0.330595
-0.169235 -0.144697 0.442181
0.169235 -0.00542869 -0.108876
-0.132691 -0.00542869 -0.329278
-0.169235 0.0744576 0.332642
-0.132691 0.131617 0.332642
0.166969 -0.144697 0.442181
0.166969 -0.144697 0.0514991
0.166969 -0.0347367 0.113023
-0.169235 -0.144697 0.436122
0.168102 -0.0347367 0.113023
0.169235 -0.00542869 0.113023
0.168102 -0.00542869 -0.108876
0.168102 -0.00542869 -0.329278
-0.169235 -0.144697 -0.442181
-0.169235 0.131617 0.332642
0.166969 -0.00542869 -0.329278
-0.132691 0.131617 -0.330776
0.166969 -0.144697 0.436122
0.103404 -0.144697 0.334617
0.166969 -0.144697 -0.0478966
0.166969 -0.0347367 -0.108876
-0.169235 -0.144697 0.334617
0.103404 -0.144697 0.436122
0.169235 -0.0347367 0.113023
0.168102 -0.0347367 -0.108876
-0.169235 -0.144697 -0.43491
-0.169235 0.0744576 -0.442181
-0.169235 0.0744576 -0.330776
0.166969 0.0744576 -0.329278
-0.132691 0.0744576 -0.330776
0.166969 -0.160734 0.436122
0.102238 -0.144697 0.0514991
0.103404 -0.160734 0.334617
0.166969 -0.160734 0.0514991
0.166969 -0.144697 -0.332627
0.166969 -0.0347367 -0.329278
-0.169235 -0.144697 0.0514991
-0.107609 -0.144697 0.436122
-0.169235 -0.160734 0.334617
0.169235 -0.0347367 -0.108876
-0.169235 -0.144697 -0.332627
0.166969 -0.144697 -0.442181
0.166969 0.0744576 -0.442181
-0.169235 0.131617 -0.330776
0.166969 -0.160734 0.334617
0.166969 -0.160734 -0.0478966
0.102238 -0.144697 -0.0478966
0.166969 -0.144697 -0.43491
-0.169235 -0.144697 -0.0478966
-0.107609 -0.144697 0.334617
-0.107609 -0.160734 0.436122
-0.169235 -0.160734 0.436122
0.168102 -0.0347367 -0.329278
-0.169235 -0.144697 -0.108559
-0.169235 -0.160734 -0.43491
-0.11262 -0.144697 -0.332627
-0.11262 -0.144697 -0.43491
0.103404 -0.160734 0.436122
-0.11262 -0.144697 0.0514991
0.102238 -0.160734 0.0514991
0.102238 -0.160734 -0.0478966
-0.11262 -0.144697 -0.0478966
0.102238 -0.144697 -0.332627
0.166969 -0.160734 -0.332627
-0.169235 -0.160734 -0.0478966
-0.107609 -0.160734 0.334617
-0.169235 -0.160734 -0.332627
-0.11262 -0.160734 -0.332627
0.102238 -0.144697 -0.43491
-0.11262 -0.160734 0.0514991
0.166969 -0.160734 -0.43491
-0.169235 -0.160734 0.0514991
-0.11262 -0.160734 -0.43491
0.102238 -0.160734 -0.43491
0.102238 -0.160734 -0.332627
-0.11262 -0.160734 -0.0478966
-0.0929339 0.0974653 -0.19504
-0.0905706 0.0904379 -0.232969
-0.0929339 0.0974653 -0.241925
-0.0905706 0.0904379 -0.203995
-0.0852673 0.0688539 -0.241925
-0.0955892 0.104394 -0.18611
-0.0886529 0.0832797 -0.203995
-0.0885038 0.08332 -0.224002
-0.0867351 0.076122 -0.232969
-0.084103 0.0615263 -0.250854
-0.0955892 0.104394 -0.250854
-0.0891006 0.0831599 -0.19504
-0.0867351 0.076122 -0.203995
-0.0885038 0.08332 -0.212963
-0.0852673 0.0688539 -0.19504
-0.084103 0.0615263 -0.18611
-0.0985337 0.111213 -0.177217
-0.0832435 0.0541489 -0.259747
-0.0832435 0.0541489 -0.177217
-0.0985337 0.111213 -0.259747
-0.0898464 0.08296 -0.18611
-0.0908886 0.0826807 -0.177217
-0.101763 0.117913 -0.168373
-0.0826898 0.0467318 -0.26859
-0.0826898 0.0467318 -0.168373
-0.101763 0.117913 -0.26859
-0.0922262 0.0823224 -0.168373
-0.105272 0.124485 -0.159592
-0.0824431 0.0392854 -0.277372
-0.0824431 0.0392854 -0.159592
-0.105272 0.124485 -0.277372
-0.0938575 0.0818852 -0.159592
-0.109057 0.13092 -0.150885
-0.0825032 0.0318197 -0.286079
-0.0825032 0.0318197 -0.150885
-0.109057 0.13092 -0.286079
-0.0957796 0.0813702 -0.150885
-0.113112 0.137209 -0.142264
-0.0828698 0.0243457 -0.2947
-0.0828698 0.0243457 -0.142264
-0.113112 0.137209 -0.2947
-0.117431 0.143344 -0.13374
-0.0835433 0.016874 -0.303224
-0.0835433 0.016874 -0.13374
-0.0979905 0.0807779 -0.142264
-0.117431 0.143344 -0.303224
-0.122009 0.149314 -0.125327
-0.0845231 0.00941381 -0.311637
-0.0845231 0.00941381 -0.125327
-0.100487 0.0801088 -0.13374
-0.122009 0.149314 -0.311637
-0.103266 0.0793641 -0.125327
-0.126839 0.155114 -0.117035
-0.0858061 0.00197628 -0.319929
-0.0858061 0.00197628 -0.117035
-0.126839 0.155114 -0.319929
-0.131915 0.160734 -0.108876
-0.0873915 -0.00542869 -0.328088
-0.0873915 -0.00542869 -0.108876
-0.106323 0.0785454 -0.117035
-0.131915 0.160734 -0.328088
-0.133501 0.153329 -0.319929
-0.0924674 0.000191553 -0.319929
-0.109653 0.0776528 -0.108876
-0.0924674 0.000191553 -0.117035
-0.133501 0.153329 -0.117035
-0.112984 0.0767602 -0.117035
-0.134784 0.145892 -0.311637
-0.0972977 0.00599121 -0.311637
-0.134784 0.145892 -0.125327
-0.0972977 0.00599121 -0.125327
-0.135763 0.138432 -0.303224
-0.11604 0.0759415 -0.125327
-0.101875 0.011962 -0.303224
-0.135763 0.138432 -0.13374
-0.101875 0.011962 -0.13374
-0.136436 0.13096 -0.2947
-0.118819 0.0751968 -0.13374
-0.106195 0.0180962 -0.2947
-0.136436 0.13096 -0.142264
-0.106195 0.0180962 -0.142264
-0.136803 0.123486 -0.286079
-0.121316 0.0745277 -0.142264
-0.11025 0.0243855 -0.286079
-0.136803 0.123486 -0.150885
-0.11025 0.0243855 -0.150885
-0.136864 0.11602 -0.277372
-0.123526 0.0739354 -0.150885
-0.114035 0.0308205 -0.277372
-0.136864 0.11602 -0.159592
-0.114035 0.0308205 -0.159592
-0.136617 0.108574 -0.26859
-0.125449 0.0734204 -0.159592
-0.117544 0.037393 -0.26859
-0.136617 0.108574 -0.168373
-0.117544 0.037393 -0.168373
-0.136063 0.101157 -0.259747
-0.12708 0.0729832 -0.168373
-0.120773 0.0440925 -0.259747
-0.136063 0.101157 -0.177217
-0.120773 0.0440925 -0.177217
-0.135204 0.0937793 -0.250854
-0.128418 0.0726249 -0.177217
-0.123717 0.0509118 -0.250854
-0.135204 0.0937793 -0.18611
-0.123717 0.0509118 -0.18611
-0.134039 0.0864516 -0.241925
-0.129461 0.0723456 -0.18611
-0.126373 0.0578403 -0.241925
-0.134039 0.0864516 -0.19504
-0.126373 0.0578403 -0.19504
-0.132572 0.0791836 -0.232969
-0.130206 0.0721457 -0.19504
-0.128736 0.0648677 -0.232969
-0.132572 0.0791836 -0.203995
-0.128736 0.0648677 -0.203995
-0.130803 0.0719856 -0.224002
-0.130654 0.0720259 -0.203995
-0.130803 0.0719856 -0.212963
-0.0929339 0.0974653 0.0264264
-0.0905706 0.0904379 -0.0115033
-0.0929339 0.0974653 -0.0204578
-0.0905706 0.0904379 0.0174713
-0.0852673 0.0688539 -0.0204578
-0.0955892 0.104394 0.0353566
-0.0886529 0.0832797 0.0174713
-0.0885038 0.08332 -0.00253548
-0.0867351 0.076122 -0.0115033
-0.084103 0.0615263 -0.029388
-0.0955892 0.104394 -0.029388
-0.0891006 0.0831599 0.0264264
-0.0867351 0.076122 0.0174713
-0.0885038 0.08332 0.00850407
-0.0852673 0.0688539 0.0264264
-0.084103 0.0615263 0.0353566
-0.0985337 0.111213 0.0442493
-0.0832435 0.0541489 -0.0382807
-0.0832435 0.0541489 0.0442493
-0.0985337 0.111213 -0.0382807
-0.0898464 0.08296 0.0353566
-0.0908886 0.0826807 0.0442493
-0.101763 0.117913 0.0530929
-0.0826898 0.0467318 -0.0471243
-0.0826898 0.0467318 0.0530929
-0.101763 0.117913 -0.0471243
-0.0922262 0.0823224 0.0530929
-0.105272 0.124485 0.0618741
-0.0824431 0.0392854 -0.0559055
-0.0824431 0.0392854 0.0618741
-0.105272 0.124485 -0.0559055
-0.0938575 0.0818852 0.0618741
-0.109057 0.13092 0.0705813
-0.0825032 0.0318197 -0.0646132
-0.0825032 0.0318197 0.0705813
-0.109057 0.13092 -0.0646132
-0.0957796 0.0813702 0.0705813
-0.113112 0.137209 0.0792029
-0.0828698 0.0243457 -0.0732343
-0.0828698 0.0243457 0.0792029
-0.113112 0.137209 -0.0732343
-0.117431 0.143344 0.0877258
-0.0835433 0.016874 -0.0817577
-0.0835433 0.016874 0.0877258
-0.0979905 0.0807779 0.0792029
-0.117431 0.143344 -0.0817577
-0.122009 0.149314 0.0961393
-0.0845231 0.00941381 -0.0901707
-0.0845231 0.00941381 0.0961393
-0.100487 0.0801088 0.0877258
-0.122009 0.149314 -0.0901707
-0.103266 0.0793641 0.0961393
-0.126839 0.155114 0.104431
-0.0858061 0.00197628 -0.0984628
-0.0858061 0.00197628 0.104431
-0.126839 0.155114 -0.0984622
-0.131915 0.160734 0.11259
-0.0873915 -0.00542869 -0.106621
-0.0873915 -0.00542869 0.11259
-0.106323 0.0785454 0.104431
-0.131915 0.160734 -0.106621
-0.133501 0.153329 -0.0984622
-0.0924674 0.000191553 -0.0984628
-0.109653 0.0776528 0.11259
-0.0924674 0.000191553 0.104431
-0.133501 0.153329 0.104431
-0.112984 0.0767602 0.104431
-0.134784 0.145892 -0.0901707
-0.0972977 0.00599121 -0.0901712
-0.134784 0.145892 0.0961393
-0.0972977 0.00599121 0.0961393
-0.135763 0.138432 -0.0817577
-0.11604 0.0759415 0.0961393
-0.101875 0.011962 -0.0817577
-0.135763 0.138432 0.0877258
-0.101875 0.011962 0.0877258
-0.136436 0.13096 -0.0732343
-0.118819 0.0751968 0.0877258
-0.106195 0.0180962 -0.0732343
-0.136436 0.13096 0.0792029
-0.106195 0.0180962 0.0792029
-0.136803 0.123486 -0.0646132
-0.121316 0.0745277 0.0792029
-0.11025 0.0243855 -0.0646132
-0.136803 0.123486 0.0705813
-0.11025 0.0243855 0.0705813
-0.136864 0.11602 -0.0559055
-0.123526 0.0739354 0.0705813
-0.114035 0.0308205 -0.0559055
-0.136864 0.11602 0.0618741
-0.114035 0.0308205 0.0618741
-0.136617 0.108574 -0.0471243
-0.125449 0.0734204 0.0618741
-0.117544 0.0373925 -0.0471243
-0.136617 0.108574 0.0530929
-0.117544 0.0373925 0.0530929
-0.136063 0.101157 -0.0382807
-0.12708 0.0729832 0.0530929
-0.120773 0.0440925 -0.0382807
-0.136063 0.101157 0.0442493
-0.120773 0.0440925 0.0442493
-0.135204 0.0937793 -0.029388
-0.128418 0.0726249 0.0442493
-0.123717 0.0509118 -0.029388
-0.135204 0.0937793 0.0353566
-0.123717 0.0509118 0.0353566
-0.134039 0.0864516 -0.0204578
-0.129461 0.0723456 0.0353566
-0.126373 0.0578403 -0.0204578
-0.134039 0.0864516 0.0264264
-0.126373 0.0578403 0.0264264
-0.132572 0.0791836 -0.0115033
-0.130206 0.0721457 0.0264264
-0.128736 0.0648677 -0.0115033
-0.132572 0.0791836 0.0174713
-0.128736 0.0648677 0.0174713
-0.130803 0.0719856 -0.00253548
-0.130654 0.0720259 0.0174713
-0.130803 0.0719856 0.00850407
-0.0879849 0.0974653 0.245637
-0.0856217 0.0904379 0.207708
-0.0879849 0.0974653 0.198753
-0.0856217 0.0904379 0.236682
-0.0803183 0.0688539 0.198753
-0.0906402 0.104394 0.254568
-0.0837039 0.0832797 0.236682
-0.0835543 0.08332 0.216676
-0.0817861 0.076122 0.207708
-0.0791541 0.0615263 0.189824
-0.0906402 0.104394 0.189824
-0.0841516 0.0831599 0.245637
-0.0817861 0.076122 0.236682
-0.0835543 0.08332 0.227715
-0.0803183 0.0688539 0.245637
-0.0791541 0.0615263 0.254568
-0.0935847 0.111213 0.263461
-0.0782945 0.0541489 0.18093
-0.0782945 0.0541489 0.263461
-0.0935847 0.111213 0.18093
-0.0848974 0.08296 0.254568
-0.0859396 0.0826807 0.263461
-0.0968136 0.117913 0.272304
-0.0777409 0.0467318 0.172087
-0.0777409 0.0467318 0.272304
-0.0968136 0.117913 0.172087
-0.0872778 0.0823224 0.272304
-0.100323 0.124485 0.281086
-0.0774941 0.0392854 0.163306
-0.0774941 0.0392854 0.281086
-0.100323 0.124485 0.163306
-0.0889085 0.0818852 0.281086
-0.104108 0.13092 0.289793
-0.0775543 0.0318197 0.154598
-0.0775543 0.0318197 0.289793
-0.104108 0.13092 0.154598
-0.0908312 0.0813702 0.289793
-0.108163 0.137209 0.298414
-0.0779214 0.0243457 0.145977
-0.0779214 0.0243457 0.298414
-0.108163 0.137209 0.145977
-0.112482 0.143344 0.306937
-0.0785948 0.016874 0.137454
-0.0785948 0.016874 0.306937
-0.0930421 0.0807779 0.298414
-0.112482 0.143344 0.137454
-0.11706 0.149314 0.31535
-0.0795742 0.00941381 0.12904
-0.0795742 0.00941381 0.31535
-0.0955389 0.0801088 0.306937
-0.11706 0.149314 0.12904
-0.0983173 0.0793641 0.31535
-0.12189 0.155114 0.323643
-0.0808571 0.00197628 0.120748
-0.0808571 0.00197628 0.323643
-0.12189 0.155114 0.120748
-0.126966 0.160734 0.331801
-0.0824431 -0.00542869 0.11259
-0.0824431 -0.00542869 0.331801
-0.101373 0.0785454 0.323643
-0.126966 0.160734 0.11259
-0.128552 0.153329 0.120748
-0.0875185 0.000191553 0.120748
-0.104704 0.0776528 0.331801
-0.0875185 0.000191553 0.323643
-0.128552 0.153329 0.323643
-0.108035 0.0767602 0.323643
-0.129835 0.145892 0.12904
-0.0923487 0.00599121 0.12904
-0.129835 0.145892 0.31535
-0.0923487 0.00599121 0.31535
-0.130814 0.138432 0.137454
-0.111092 0.0759415 0.31535
-0.0969268 0.011962 0.137454
-0.130814 0.138432 0.306937
-0.0969268 0.011962 0.306937
-0.131488 0.13096 0.145977
-0.11387 0.0751968 0.306937
-0.101246 0.0180962 0.145977
-0.131488 0.13096 0.298414
-0.101246 0.0180962 0.298414
-0.131855 0.123486 0.154598
-0.116367 0.0745277 0.298414
-0.105301 0.0243855 0.154598
-0.131855 0.123486 0.289793
-0.105301 0.0243855 0.289793
-0.131915 0.11602 0.163306
-0.118578 0.0739354 0.289793
-0.109085 0.0308205 0.163306
-0.131915 0.11602 0.281086
-0.109085 0.0308205 0.281086
-0.131668 0.108574 0.172087
-0.1205 0.0734204 0.281086
-0.112595 0.037393 0.172087
-0.131668 0.108574 0.272304
-0.112595 0.0373925 0.272304
-0.131114 0.101157 0.18093
-0.122131 0.0729832 0.272304
-0.115824 0.0440925 0.18093
-0.131114 0.101157 0.263461
-0.115824 0.0440925 0.263461
-0.130255 0.0937793 0.189824
-0.123469 0.0726249 0.263461
-0.118768 0.0509118 0.189824
-0.130255 0.0937793 0.254568
-0.118768 0.0509118 0.254568
-0.12909 0.0864516 0.198753
-0.124512 0.0723456 0.254568
-0.121424 0.0578403 0.198753
-0.12909 0.0864516 0.245637
-0.121424 0.0578403 0.245637
-0.127623 0.0791836 0.207708
-0.125257 0.0721457 0.245637
-0.123787 0.0648677 0.207708
-0.127623 0.0791836 0.236682
-0.123787 0.0648677 0.236682
-0.125854 0.0719856 0.216676
-0.125705 0.0720259 0.236682
-0.125854 0.0719856 0.227715
3 2 1 0
3 3 0 1
3 1 2 4
3 0 5 2
3 0 3 6
3 3 1 7
3 2 8 4
3 4 9 1
3 10 2 5
3 6 5 0
3 11 6 3
3 7 1 9
3 7 12 3
3 8 13 4
3 8 2 14
3 9 4 15
3 10 14 2
3 10 5 14
3 6 16 5
3 11 16 6
3 17 11 3
3 7 9 18
3 12 17 3
3 19 12 7
3 4 13 20
3 21 13 8
3 8 14 22
3 20 15 4
3 15 23 9
3 24 14 5
3 25 5 16
3 26 16 11
3 17 27 11
3 18 9 28
3 18 29 7
3 17 12 30
3 19 31 12
3 19 7 29
3 32 20 13
3 34 21 8
3 24 22 14
3 22 35 8
3 36 9 23
3 24 5 38
3 25 38 5
3 25 16 38
3 26 39 16
3 26 11 27
3 30 27 17
3 28 9 40
3 41 18 28
3 18 42 29
3 43 30 12
3 44 12 31
3 19 29 31
3 32 13 45
3 33 47 13
3 21 34 48
3 49 34 8
3 22 24 35
3 35 50 8
3 51 9 36
3 36 52 23
3 23 52 36
3 36 23 53
3 38 35 24
3 54 38 16
3 54 16 39
3 26 27 39
3 30 50 27
3 40 9 55
3 42 18 41
3 41 28 57
3 58 29 42
3 43 57 30
3 43 12 57
3 44 57 12
3 44 31 42
3 58 31 29
3 59 45 13
3 32 45 37
3 21 48 46
3 59 13 47
3 33 37 47
3 60 48 34
3 62 49 8
3 50 62 8
3 35 39 50
3 63 9 51
3 52 36 64
3 64 36 52
3 52 65 23
3 66 53 23
3 36 53 64
3 54 35 38
3 39 35 54
3 67 39 27
3 67 27 50
3 30 57 50
3 55 9 68
3 40 55 69
3 40 70 55
3 55 70 40
3 56 57 28
3 41 57 42
3 58 42 31
3 42 57 44
3 45 59 72
3 72 37 45
3 74 46 48
3 47 72 59
3 72 47 37
3 60 75 48
3 60 34 75
3 61 75 34
3 49 62 78
3 50 57 62
3 67 50 39
3 68 9 63
3 63 51 79
3 63 73 51
3 51 73 63
3 52 64 65
3 66 23 65
3 66 65 53
3 80 64 53
3 81 69 55
3 40 69 71
3 70 40 71
3 71 40 70
3 70 82 55
3 56 62 57
3 73 84 51
3 74 48 75
3 49 78 77
3 85 78 62
3 86 79 51
3 63 79 76
3 73 63 76
3 76 63 73
3 80 65 64
3 80 53 65
3 81 82 69
3 81 55 82
3 87 71 69
3 70 71 82
3 86 51 84
3 73 76 84
3 83 88 62
3 83 77 88
3 89 77 78
3 85 88 78
3 85 62 88
3 86 84 79
3 90 76 79
3 87 69 82
3 87 82 71
3 90 84 76
3 89 88 77
3 89 78 88
3 90 79 84
3 0 1 2
3 1 0 3
3 6 3 0
3 7 1 3
3 1 9 4
3 3 6 11
3 9 1 7
3 3 12 7
3 15 4 9
3 3 11 17
3 18 9 7
3 3 17 12
3 7 12 19
3 4 15 20
3 9 23 15
3 28 9 18
3 7 29 18
3 30 12 17
3 12 31 19
3 29 7 19
3 13 33 21
3 20 15 32
3 23 9 36
3 23 37 15
3 40 9 28
3 28 18 41
3 29 42 18
3 12 30 43
3 31 12 44
3 31 29 19
3 21 33 46
3 37 32 15
3 36 9 51
3 52 37 23
3 55 9 40
3 28 56 40
3 41 18 42
3 57 28 41
3 42 29 58
3 57 12 43
3 12 57 44
3 42 31 44
3 29 31 58
3 46 33 51
3 37 52 33
3 34 61 49
3 51 9 63
3 51 33 36
3 68 9 55
3 40 56 71
3 28 57 56
3 42 57 41
3 31 42 58
3 44 57 42
3 73 46 51
3 64 33 52
3 46 73 61
3 76 49 61
3 63 9 68
3 36 33 64
3 55 77 68
3 70 77 55
3 71 56 83
3 76 61 73
3 63 49 76
3 77 49 68
3 68 49 63
3 71 83 70
3 77 70 83
3 62 83 56
3 4 2 1
3 4 8 2
3 4 13 8
3 14 5 10
3 20 13 4
3 8 13 21
3 5 14 24
3 13 20 32
3 8 21 34
3 8 35 22
3 38 16 25
3 45 13 32
3 48 34 21
3 8 34 49
3 8 50 35
3 16 38 54
3 39 27 26
3 30 57 43
3 13 45 59
3 34 48 60
3 8 49 62
3 8 62 50
3 27 39 67
3 50 57 30
3 78 62 49
3 62 57 50
3 57 62 56
3 62 78 85
3 2 5 0
3 5 2 10
3 0 5 6
3 5 16 6
3 6 16 11
3 16 5 25
3 11 16 26
3 11 27 17
3 27 11 26
3 17 27 30
3 14 2 8
3 2 14 10
3 38 5 24
3 5 38 25
3 22 14 8
3 14 22 24
3 35 24 22
3 24 35 38
3 50 39 35
3 38 35 54
3 54 35 39
3 39 50 67
3 21 33 13
3 32 15 20
3 15 37 23
3 13 37 32
3 32 37 13
3 46 33 21
3 37 13 33
3 33 13 37
3 34 46 21
3 21 46 34
3 15 32 37
3 23 37 52
3 40 56 28
3 51 33 46
3 33 52 37
3 46 34 61
3 61 34 46
3 49 61 34
3 36 33 51
3 71 56 40
3 51 46 73
3 52 33 64
3 61 73 46
3 75 46 61
3 61 46 75
3 61 49 76
3 62 77 49
3 49 77 62
3 64 33 36
3 68 77 55
3 55 77 70
3 83 56 71
3 46 75 74
3 74 75 46
3 73 61 76
3 76 49 63
3 77 62 83
3 83 62 77
3 68 49 77
3 63 49 68
3 70 83 71
3 83 70 77
3 56 83 62
3 16 39 26
3 39 16 54
3 27 50 30
3 50 27 67
3 13 47 33
3 53 23 36
3 37 45 32
3 47 13 59
3 47 37 33
3 23 65 52
3 23 53 66
3 64 53 36
3 45 37 72
3 37 47 72
3 65 23 66
3 53 64 80
3 71 69 40
3 69 71 87
3 62 88 83
3 88 62 85
3 46 48 21
3 48 46 74
3 48 75 60
3 79 51 63
3 51 84 73
3 75 48 74
3 51 79 86
3 84 51 86
3 84 76 73
3 79 84 86
3 76 84 90
3 84 79 90
3 69 55 40
3 72 59 45
3 59 72 47
3 65 64 52
3 53 65 66
3 55 69 81
3 55 82 70
3 77 78 49
3 64 65 80
3 65 53 80
3 69 82 81
3 82 55 81
3 82 71 70
3 78 77 89
3 78 88 85
3 82 69 87
3 71 82 87
3 88 78 89
3 75 34 60
3 34 75 61
3 76 79 63
3 79 76 90
3 88 77 83
3 77 88 89
3 149 147 154
3 147 149 154
3 91 92 93
3 92 91 94
3 92 95 93
3 93 96 91
3 91 97 94
3 94 98 92
3 95 92 99
3 100 93 95
3 96 93 101
3 96 102 91
3 97 91 103
3 97 104 94
3 98 94 104
3 98 99 92
3 99 105 95
3 93 100 101
3 95 106 100
3 101 107 96
3 102 96 105
3 105 91 102
3 103 91 105
3 104 97 103
3 103 98 104
3 98 103 99
3 105 99 103
3 106 95 105
3 108 101 100
3 109 100 106
3 107 101 110
3 107 111 96
3 105 96 111
3 105 111 106
3 101 108 110
3 100 109 108
3 106 112 109
3 110 113 107
3 111 107 106
3 114 110 108
3 115 108 109
3 106 107 112
3 112 113 109
3 113 110 116
3 113 112 107
3 110 114 116
3 108 115 114
3 109 117 115
3 109 113 117
3 116 118 113
3 119 116 114
3 120 114 115
3 117 118 115
3 118 117 113
3 118 116 121
3 116 119 121
3 114 120 119
3 115 122 120
3 115 118 122
3 121 123 118
3 124 121 119
3 125 119 120
3 122 123 120
3 123 122 118
3 123 121 126
3 121 124 126
3 119 125 124
3 120 127 125
3 120 123 127
3 126 128 123
3 129 126 124
3 130 124 125
3 127 128 125
3 128 127 123
3 128 126 131
3 126 129 131
3 124 130 129
3 125 128 130
3 131 132 128
3 133 131 129
3 134 129 130
3 130 128 135
3 132 131 136
3 132 135 128
3 131 133 136
3 129 134 133
3 130 132 134
3 135 132 130
3 136 137 132
3 138 136 133
3 139 133 134
3 134 132 140
3 137 136 141
3 137 140 132
3 136 138 141
3 133 139 138
3 134 142 139
3 140 137 134
3 141 143 137
3 144 141 138
3 145 138 139
3 134 137 142
3 142 143 139
3 143 141 146
3 143 142 137
3 141 144 146
3 138 145 144
3 139 143 145
3 146 147 143
3 148 146 144
3 149 144 145
3 145 143 150
3 147 146 151
3 147 150 143
3 146 148 151
3 144 149 148
3 145 147 149
3 150 147 145
3 152 147 151
3 148 152 151
3 149 153 148
3 147 155 149
3 147 152 156
3 152 148 153
3 153 149 155
3 147 157 155
3 158 156 152
3 157 147 156
3 153 158 152
3 155 159 153
3 156 155 157
3 156 158 160
3 158 153 159
3 159 155 161
3 156 161 155
3 162 160 158
3 163 156 160
3 159 162 158
3 161 164 159
3 156 163 161
3 160 162 165
3 160 166 163
3 162 159 164
3 164 161 166
3 163 166 161
3 167 165 162
3 168 160 165
3 160 168 166
3 164 167 162
3 166 169 164
3 165 167 170
3 165 166 168
3 167 164 169
3 169 166 171
3 172 170 167
3 173 165 170
3 165 171 166
3 169 172 167
3 171 174 169
3 170 172 175
3 165 173 171
3 170 171 173
3 172 169 174
3 174 171 176
3 177 175 172
3 178 170 175
3 170 176 171
3 174 177 172
3 176 179 174
3 175 177 180
3 170 178 176
3 175 181 178
3 177 174 179
3 179 176 181
3 182 180 177
3 183 175 180
3 178 181 176
3 175 183 181
3 179 182 177
3 181 184 179
3 180 182 185
3 180 181 183
3 182 179 184
3 184 181 186
3 187 185 182
3 188 180 185
3 180 186 181
3 184 187 182
3 186 189 184
3 185 187 190
3 180 188 186
3 185 186 188
3 187 184 189
3 189 186 191
3 192 190 187
3 193 185 190
3 185 191 186
3 189 192 187
3 191 194 189
3 190 192 195
3 185 193 191
3 190 196 193
3 192 189 194
3 194 191 196
3 197 195 192
3 198 190 195
3 193 196 191
3 190 198 196
3 194 197 192
3 196 199 194
3 195 197 200
3 195 196 198
3 197 194 199
3 199 196 201
3 202 200 197
3 203 195 200
3 195 201 196
3 199 202 197
3 201 204 199
3 200 202 205
3 195 203 201
3 200 206 203
3 202 199 204
3 204 201 206
3 207 205 202
3 208 200 205
3 203 206 201
3 200 208 206
3 207 202 204
3 206 207 204
3 205 207 209
3 205 206 208
3 207 206 209
3 206 205 209
3 154 147 149
3 154 149 147
3 93 92 91
3 94 91 92
3 93 95 92
3 91 96 93
3 94 97 91
3 92 98 94
3 99 92 95
3 95 93 100
3 101 93 96
3 91 102 96
3 103 91 97
3 94 104 97
3 104 94 98
3 92 99 98
3 95 105 99
3 101 100 93
3 100 106 95
3 96 107 101
3 105 96 102
3 102 91 105
3 105 91 103
3 103 97 104
3 104 98 103
3 99 103 98
3 103 99 105
3 105 95 106
3 100 101 108
3 106 100 109
3 110 101 107
3 96 111 107
3 111 96 105
3 106 111 105
3 110 108 101
3 108 109 100
3 109 112 106
3 107 113 110
3 106 107 111
3 108 110 114
3 109 108 115
3 112 107 106
3 109 113 112
3 116 110 113
3 107 112 113
3 116 114 110
3 114 115 108
3 115 117 109
3 117 113 109
3 113 118 116
3 114 116 119
3 115 114 120
3 115 118 117
3 113 117 118
3 121 116 118
3 121 119 116
3 119 120 114
3 120 122 115
3 122 118 115
3 118 123 121
3 119 121 124
3 120 119 125
3 120 123 122
3 118 122 123
3 126 121 123
3 126 124 121
3 124 125 119
3 125 127 120
3 127 123 120
3 123 128 126
3 124 126 129
3 125 124 130
3 125 128 127
3 123 127 128
3 131 126 128
3 131 129 126
3 129 130 124
3 130 128 125
3 128 132 131
3 129 131 133
3 130 129 134
3 135 128 130
3 136 131 132
3 128 135 132
3 136 133 131
3 133 134 129
3 134 132 130
3 130 132 135
3 132 137 136
3 133 136 138
3 134 133 139
3 140 132 134
3 141 136 137
3 132 140 137
3 141 138 136
3 138 139 133
3 139 142 134
3 134 137 140
3 137 143 141
3 138 141 144
3 139 138 145
3 142 137 134
3 139 143 142
3 146 141 143
3 137 142 143
3 146 144 141
3 144 145 138
3 145 143 139
3 143 147 146
3 144 146 148
3 145 144 149
3 150 143 145
3 151 146 147
3 143 150 147
3 151 148 146
3 148 149 144
3 149 147 145
3 145 147 150
3 151 147 152
3 151 152 148
3 148 153 149
3 149 155 147
3 156 152 147
3 153 148 152
3 155 149 153
3 155 157 147
3 152 156 158
3 156 147 157
3 152 158 153
3 153 159 155
3 157 155 156
3 160 158 156
3 159 153 158
3 161 155 159
3 155 161 156
3 158 160 162
3 160 156 163
3 158 162 159
3 159 164 161
3 161 163 156
3 165 162 160
3 163 166 160
3 164 159 162
3 166 161 164
3 161 166 163
3 162 165 167
3 165 160 168
3 166 168 160
3 162 167 164
3 164 169 166
3 170 167 165
3 168 166 165
3 169 164 167
3 171 166 169
3 167 170 172
3 170 165 173
3 166 171 165
3 167 172 169
3 169 174 171
3 175 172 170
3 171 173 165
3 173 171 170
3 174 169 172
3 176 171 174
3 172 175 177
3 175 170 178
3 171 176 170
3 172 177 174
3 174 179 176
3 180 177 175
3 176 178 170
3 178 181 175
3 179 174 177
3 181 176 179
3 177 180 182
3 180 175 183
3 176 181 178
3 181 183 175
3 177 182 179
3 179 184 181
3 185 182 180
3 183 181 180
3 184 179 182
3 186 181 184
3 182 185 187
3 185 180 188
3 181 186 180
3 182 187 184
3 184 189 186
3 190 187 185
3 186 188 180
3 188 186 185
3 189 184 187
3 191 186 189
3 187 190 192
3 190 185 193
3 186 191 185
3 187 192 189
3 189 194 191
3 195 192 190
3 191 193 185
3 193 196 190
3 194 189 192
3 196 191 194
3 192 195 197
3 195 190 198
3 191 196 193
3 196 198 190
3 192 197 194
3 194 199 196
3 200 197 195
3 198 196 195
3 199 194 197
3 201 196 199
3 197 200 202
3 200 195 203
3 196 201 195
3 197 202 199
3 199 204 201
3 205 202 200
3 201 203 195
3 203 206 200
3 204 199 202
3 206 201 204
3 202 205 207
3 205 200 208
3 201 206 203
3 206 208 200
3 204 202 207
3 204 207 206
3 209 207 205
3 208 206 205
3 209 206 207
3 209 205 206
3 268 266 273
3 266 268 273
3 210 211 212
3 211 210 213
3 211 214 212
3 212 215 210
3 210 216 213
3 213 217 211
3 214 211 218
3 219 212 214
3 215 212 220
3 215 221 210
3 216 210 222
3 216 223 213
3 217 213 223
3 217 218 211
3 218 224 214
3 212 219 220
3 214 225 219
3 220 226 215
3 221 215 224
3 224 210 221
3 222 210 224
3 223 216 222
3 222 217 223
3 217 222 218
3 224 218 222
3 225 214 224
3 227 220 219
3 228 219 225
3 226 220 229
3 226 230 215
3 224 215 230
3 224 230 225
3 220 227 229
3 219 228 227
3 225 231 228
3 229 232 226
3 230 226 225
3 233 229 227
3 234 227 228
3 225 226 231
3 231 232 228
3 232 229 235
3 232 231 226
3 229 233 235
3 227 234 233
3 228 236 234
3 228 232 236
3 235 237 232
3 238 235 233
3 239 233 234
3 236 237 234
3 237 236 232
3 237 235 240
3 235 238 240
3 233 239 238
3 234 241 239
3 234 237 241
3 240 242 237
3 243 240 238
3 244 238 239
3 241 242 239
3 242 241 237
3 242 240 245
3 240 243 245
3 238 244 243
3 239 246 244
3 239 242 246
3 245 247 242
3 248 245 243
3 249 243 244
3 246 247 244
3 247 246 242
3 247 245 250
3 245 248 250
3 243 249 248
3 244 247 249
3 250 251 247
3 252 250 248
3 253 248 249
3 249 247 254
3 251 250 255
3 251 254 247
3 250 252 255
3 248 253 252
3 249 251 253
3 254 251 249
3 255 256 251
3 257 255 252
3 258 252 253
3 253 251 259
3 256 255 260
3 256 259 251
3 255 257 260
3 252 258 257
3 253 261 258
3 259 256 253
3 260 262 256
3 263 260 257
3 264 257 258
3 253 256 261
3 261 262 258
3 262 260 265
3 262 261 256
3 260 263 265
3 257 264 263
3 258 262 264
3 265 266 262
3 267 265 263
3 268 263 264
3 264 262 269
3 266 265 270
3 266 269 262
3 265 267 270
3 263 268 267
3 264 266 268
3 269 266 264
3 271 266 270
3 267 271 270
3 268 272 267
3 266 274 268
3 266 271 275
3 271 267 272
3 272 268 274
3 266 276 274
3 277 275 271
3 276 266 275
3 272 277 271
3 274 278 272
3 275 274 276
3 275 277 279
3 277 272 278
3 278 274 280
3 275 280 274
3 281 279 277
3 282 275 279
3 278 281 277
3 280 283 278
3 275 282 280
3 279 281 284
3 279 285 282
3 281 278 283
3 283 280 285
3 282 285 280
3 286 284 281
3 287 279 284
3 279 287 285
3 283 286 281
3 285 288 283
3 284 286 289
3 284 285 287
3 286 283 288
3 288 285 290
3 291 289 286
3 292 284 289
3 284 290 285
3 288 291 286
3 290 293 288
3 289 291 294
3 284 292 290
3 289 290 292
3 291 288 293
3 293 290 295
3 296 294 291
3 297 289 294
3 289 295 290
3 293 296 291
3 295 298 293
3 294 296 299
3 289 297 295
3 294 300 297
3 296 293 298
3 298 295 300
3 301 299 296
3 302 294 299
3 297 300 295
3 294 302 300
3 298 301 296
3 300 303 298
3 299 301 304
3 299 300 302
3 301 298 303
3 303 300 305
3 306 304 301
3 307 299 304
3 299 305 300
3 303 306 301
3 305 308 303
3 304 306 309
3 299 307 305
3 304 305 307
3 306 303 308
3 308 305 310
3 311 309 306
3 312 304 309
3 304 310 305
3 308 311 306
3 310 313 308
3 309 311 314
3 304 312 310
3 309 315 312
3 311 308 313
3 313 310 315
3 316 314 311
3 317 309 314
3 312 315 310
3 309 317 315
3 313 316 311
3 315 318 313
3 314 316 319
3 314 315 317
3 316 313 318
3 318 315 320
3 321 319 316
3 322 314 319
3 314 320 315
3 318 321 316
3 320 323 318
3 319 321 324
3 314 322 320
3 319 325 322
3 321 318 323
3 323 320 325
3 326 324 321
3 327 319 324
3 322 325 320
3 319 327 325
3 326 321 323
3 325 326 323
3 324 326 328
3 324 325 327
3 326 325 328
3 325 324 328
3 273 266 268
3 273 268 266
3 212 211 210
3 213 210 211
3 212 214 211
3 210 215 212
3 213 216 210
3 211 217 213
3 218 211 214
3 214 212 219
3 220 212 215
3 210 221 215
3 222 210 216
3 213 223 216
3 223 213 217
3 211 218 217
3 214 224 218
3 220 219 212
3 219 225 214
3 215 226 220
3 224 215 221
3 221 210 224
3 224 210 222
3 222 216 223
3 223 217 222
3 218 222 217
3 222 218 224
3 224 214 225
3 219 220 227
3 225 219 228
3 229 220 226
3 215 230 226
3 230 215 224
3 225 230 224
3 229 227 220
3 227 228 219
3 228 231 225
3 226 232 229
3 225 226 230
3 227 229 233
3 228 227 234
3 231 226 225
3 228 232 231
3 235 229 232
3 226 231 232
3 235 233 229
3 233 234 227
3 234 236 228
3 236 232 228
3 232 237 235
3 233 235 238
3 234 233 239
3 234 237 236
3 232 236 237
3 240 235 237
3 240 238 235
3 238 239 233
3 239 241 234
3 241 237 234
3 237 242 240
3 238 240 243
3 239 238 244
3 239 242 241
3 237 241 242
3 245 240 242
3 245 243 240
3 243 244 238
3 244 246 239
3 246 242 239
3 242 247 245
3 243 245 248
3 244 243 249
3 244 247 246
3 242 246 247
3 250 245 247
3 250 248 245
3 248 249 243
3 249 247 244
3 247 251 250
3 248 250 252
3 249 248 253
3 254 247 249
3 255 250 251
3 247 254 251
3 255 252 250
3 252 253 248
3 253 251 249
3 249 251 254
3 251 256 255
3 252 255 257
3 253 252 258
3 259 251 253
3 260 255 256
3 251 259 256
3 260 257 255
3 257 258 252
3 258 261 253
3 253 256 259
3 256 262 260
3 257 260 263
3 258 257 264
3 261 256 253
3 258 262 261
3 265 260 262
3 256 261 262
3 265 263 260
3 263 264 257
3 264 262 258
3 262 266 265
3 263 265 267
3 264 263 268
3 269 262 264
3 270 265 266
3 262 269 266
3 270 267 265
3 267 268 263
3 268 266 264
3 264 266 269
3 270 266 271
3 270 271 267
3 267 272 268
3 268 274 266
3 275 271 266
3 272 267 271
3 274 268 272
3 274 276 266
3 271 275 277
3 275 266 276
3 271 277 272
3 272 278 274
3 276 274 275
3 279 277 275
3 278 272 277
3 280 274 278
3 274 280 275
3 277 279 281
3 279 275 282
3 277 281 278
3 278 283 280
3 280 282 275
3 284 281 279
3 282 285 279
3 283 278 281
3 285 280 283
3 280 285 282
3 281 284 286
3 284 279 287
3 285 287 279
3 281 286 283
3 283 288 285
3 289 286 284
3 287 285 284
3 288 283 286
3 290 285 288
3 286 289 291
3 289 284 292
3 285 290 284
3 286 291 288
3 288 293 290
3 294 291 289
3 290 292 284
3 292 290 289
3 293 288 291
3 295 290 293
3 291 294 296
3 294 289 297
3 290 295 289
3 291 296 293
3 293 298 295
3 299 296 294
3 295 297 289
3 297 300 294
3 298 293 296
3 300 295 298
3 296 299 301
3 299 294 302
3 295 300 297
3 300 302 294
3 296 301 298
3 298 303 300
3 304 301 299
3 302 300 299
3 303 298 301
3 305 300 303
3 301 304 306
3 304 299 307
3 300 305 299
3 301 306 303
3 303 308 305
3 309 306 304
3 305 307 299
3 307 305 304
3 308 303 306
3 310 305 308
3 306 309 311
3 309 304 312
3 305 310 304
3 306 311 308
3 308 313 310
3 314 311 309
3 310 312 304
3 312 315 309
3 313 308 311
3 315 310 313
3 311 314 316
3 314 309 317
3 310 315 312
3 315 317 309
3 311 316 313
3 313 318 315
3 319 316 314
3 317 315 314
3 318 313 316
3 320 315 318
3 316 319 321
3 319 314 322
3 315 320 314
3 316 321 318
3 318 323 320
3 324 321 319
3 320 322 314
3 322 325 319
3 323 318 321
3 325 320 323
3 321 324 326
3 324 319 327
3 320 325 322
3 325 327 319
3 323 321 326
3 323 326 325
3 328 326 324
3 327 325 324
3 328 325 326
3 328 324 325
3 387 385 392
3 385 387 392
3 329 330 331
3 330 329 332
3 330 333 331
3 331 334 329
3 329 335 332
3 332 336 330
3 333 330 337
3 338 331 333
3 334 331 339
3 334 340 329
3 335 329 341
3 335 342 332
3 336 332 342
3 336 337 330
3 337 343 333
3 331 338 339
3 333 344 338
3 339 345 334
3 340 334 343
3 343 329 340
3 341 329 343
3 342 335 341
3 341 336 342
3 336 341 337
3 343 337 341
3 344 333 343
3 346 339 338
3 347 338 344
3 345 339 348
3 345 349 334
3 343 334 349
3 343 349 344
3 339 346 348
3 338 347 346
3 344 350 347
3 348 351 345
3 349 345 344
3 352 348 346
3 353 346 347
3 344 345 350
3 350 351 347
3 351 348 354
3 351 350 345
3 348 352 354
3 346 353 352
3 347 355 353
3 347 351 355
3 354 356 351
3 357 354 352
3 358 352 353
3 355 356 353
3 356 355 351
3 356 354 359
3 354 357 359
3 352 358 357
3 353 360 358
3 353 356 360
3 359 361 356
3 362 359 357
3 363 357 358
3 360 361 358
3 361 360 356
3 361 359 364
3 359 362 364
3 357 363 362
3 358 365 363
3 358 361 365
3 364 366 361
3 367 364 362
3 368 362 363
3 365 366 363
3 366 365 361
3 366 364 369
3 364 367 369
3 362 368 367
3 363 366 368
3 369 370 366
3 371 369 367
3 372 367 368
3 368 366 373
3 370 369 374
3 370 373 366
3 369 371 374
3 367 372 371
3 368 370 372
3 373 370 368
3 374 375 370
3 376 374 371
3 377 371 372
3 372 370 378
3 375 374 379
3 375 378 370
3 374 376 379
3 371 377 376
3 372 380 377
3 378 375 372
3 379 381 375
3 382 379 376
3 383 376 377
3 372 375 380
3 380 381 377
3 381 379 384
3 381 380 375
3 379 382 384
3 376 383 382
3 377 381 383
3 384 385 381
3 386 384 382
3 387 382 383
3 383 381 388
3 385 384 389
3 385 388 381
3 384 386 389
3 382 387 386
3 383 385 387
3 388 385 383
3 390 385 389
3 386 390 389
3 387 391 386
3 385 393 387
3 385 390 394
3 390 386 391
3 391 387 393
3 385 395 393
3 396 394 390
3 395 385 394
3 391 396 390
3 393 397 391
3 394 393 395
3 394 396 398
3 396 391 397
3 397 393 399
3 394 399 393
3 400 398 396
3 401 394 398
3 397 400 396
3 399 402 397
3 394 401 399
3 398 400 403
3 398 404 401
3 400 397 402
3 402 399 404
3 401 404 399
3 405 403 400
3 406 398 403
3 398 406 404
3 402 405 400
3 404 407 402
3 403 405 408
3 403 404 406
3 405 402 407
3 407 404 409
3 410 408 405
3 411 403 408
3 403 409 404
3 407 410 405
3 409 412 407
3 408 410 413
3 403 411 409
3 408 409 411
3 410 407 412
3 412 409 414
3 415 413 410
3 416 408 413
3 408 414 409
3 412 415 410
3 414 417 412
3 413 415 418
3 408 416 414
3 413 419 416
3 415 412 417
3 417 414 419
3 420 418 415
3 421 413 418
3 416 419 414
3 413 421 419
3 417 420 415
3 419 422 417
3 418 420 423
3 418 419 421
3 420 417 422
3 422 419 424
3 425 423 420
3 426 418 423
3 418 424 419
3 422 425 420
3 424 427 422
3 423 425 428
3 418 426 424
3 423 424 426
3 425 422 427
3 427 424 429
3 430 428 425
3 431 423 428
3 423 429 424
3 427 430 425
3 429 432 427
3 428 430 433
3 423 431 429
3 428 434 431
3 430 427 432
3 432 429 434
3 435 433 430
3 436 428 433
3 431 434 429
3 428 436 434
3 432 435 430
3 434 437 432
3 433 435 438
3 433 434 436
3 435 432 437
3 437 434 439
3 440 438 435
3 441 433 438
3 433 439 434
3 437 440 435
3 439 442 437
3 438 440 443
3 433 441 439
3 438 444 441
3 440 437 442
3 442 439 444
3 445 443 440
3 446 438 443
3 441 444 439
3 438 446 444
3 445 440 442
3 444 445 442
3 443 445 447
3 443 444 446
3 445 444 447
3 444 443 447
3 392 385 387
3 392 387 385
3 331 330 329
3 332 329 330
3 331 333 330
3 329 334 331
3 332 335 329
3 330 336 332
3 337 330 333
3 333 331 338
3 339 331 334
3 329 340 334
3 341 329 335
3 332 342 335
3 342 332 336
3 330 337 336
3 333 343 337
3 339 338 331
3 338 344 333
3 334 345 339
3 343 334 340
3 340 329 343
3 343 329 341
3 341 335 342
3 342 336 341
3 337 341 336
3 341 337 343
3 343 333 344
3 338 339 346
3 344 338 347
3 348 339 345
3 334 349 345
3 349 334 343
3 344 349 343
3 348 346 339
3 346 347 338
3 347 350 344
3 345 351 348
3 344 345 349
3 346 348 352
3 347 346 353
3 350 345 344
3 347 351 350
3 354 348 351
3 345 350 351
3 354 352 348
3 352 353 346
3 353 355 347
3 355 351 347
3 351 356 354
3 352 354 357
3 353 352 358
3 353 356 355
3 351 355 356
3 359 354 356
3 359 357 354
3 357 358 352
3 358 360 353
3 360 356 353
3 356 361 359
3 357 359 362
3 358 357 363
3 358 361 360
3 356 360 361
3 364 359 361
3 364 362 359
3 362 363 357
3 363 365 358
3 365 361 358
3 361 366 364
3 362 364 367
3 363 362 368
3 363 366 365
3 361 365 366
3 369 364 366
3 369 367 364
3 367 368 362
3 368 366 363
3 366 370 369
3 367 369 371
3 368 367 372
3 373 366 368
3 374 369 370
3 366 373 370
3 374 371 369
3 371 372 367
3 372 370 368
3 368 370 373
3 370 375 374
3 371 374 376
3 372 371 377
3 378 370 372
3 379 374 375
3 370 378 375
3 379 376 374
3 376 377 371
3 377 380 372
3 372 375 378
3 375 381 379
3 376 379 382
3 377 376 383
3 380 375 372
3 377 381 380
3 384 379 381
3 375 380 381
3 384 382 379
3 382 383 376
3 383 381 377
3 381 385 384
3 382 384 386
3 383 382 387
3 388 381 383
3 389 384 385
3 381 388 385
3 389 386 384
3 386 387 382
3 387 385 383
3 383 385 388
3 389 385 390
3 389 390 386
3 386 391 387
3 387 393 385
3 394 390 385
3 391 386 390
3 393 387 391
3 393 395 385
3 390 394 396
3 394 385 395
3 390 396 391
3 391 397 393
3 395 393 394
3 398 396 394
3 397 391 396
3 399 393 397
3 393 399 394
3 396 398 400
3 398 394 401
3 396 400 397
3 397 402 399
3 399 401 394
3 403 400 398
3 401 404 398
3 402 397 400
3 404 399 402
3 399 404 401
3 400 403 405
3 403 398 406
3 404 406 398
3 400 405 402
3 402 407 404
3 408 405 403
3 406 404 403
3 407 402 405
3 409 404 407
3 405 408 410
3 408 403 411
3 404 409 403
3 405 410 407
3 407 412 409
3 413 410 408
3 409 411 403
3 411 409 408
3 412 407 410
3 414 409 412
3 410 413 415
3 413 408 416
3 409 414 408
3 410 415 412
3 412 417 414
3 418 415 413
3 414 416 408
3 416 419 413
3 417 412 415
3 419 414 417
3 415 418 420
3 418 413 421
3 414 419 416
3 419 421 413
3 415 420 417
3 417 422 419
3 423 420 418
3 421 419 418
3 422 417 420
3 424 419 422
3 420 423 425
3 423 418 426
3 419 424 418
3 420 425 422
3 422 427 424
3 428 425 423
3 424 426 418
3 426 424 423
3 427 422 425
3 429 424 427
3 425 428 430
3 428 423 431
3 424 429 423
3 425 430 427
3 427 432 429
3 433 430 428
3 429 431 423
3 431 434 428
3 432 427 430
3 434 429 432
3 430 433 435
3 433 428 436
3 429 434 431
3 434 436 428
3 430 435 432
3 432 437 434
3 438 435 433
3 436 434 433
3 437 432 435
3 439 434 437
3 435 438 440
3 438 433 441
3 434 439 433
3 435 440 437
3 437 442 439
3 443 440 438
3 439 441 433
3 441 444 438
3 442 437 440
3 444 439 442
3 440 443 445
3 443 438 446
3 439 444 441
3 444 446 438
3 442 440 445
3 442 445 444
3 447 445 443
3 446 444 443
3 447 444 445
3 447 443 444
