ply
format ascii 1.0
comment Generated by PyMesh
element vertex 556
property double x
property double y
property double z
element face 2060
property list uchar int vertex_indices
end_header
0.201762 0.153917 0.389625
0.201762 0.147634 0.395785
0.201762 0.147634 0.389625
0.201762 0.147634 0.415165
-0.184908 0.147634 0.389625
0.201762 0.147634 0.416926
0.201762 0.0157064 0.403738
-0.184908 0.147634 0.395785
-0.184908 0.153917 0.389625
0.201762 0.153917 0.416926
-0.229091 0.147634 0.415165
0.201762 -0.153917 0.415165
0.201762 0.0157064 0.395785
0.173276 0.130882 0.395785
-0.187756 0.147634 -0.395786
-0.184908 0.153917 -0.389625
-0.229091 0.153917 0.416926
-0.229091 0.147634 0.416926
0.173276 0.130882 0.415165
0.201762 -0.153917 0.403738
0.209714 0.0157064 0.395785
0.173276 0.00104745 0.395785
0.0212463 0.130882 0.395785
-0.187756 0.147634 0.395785
-0.184908 0.147634 -0.389625
-0.229091 0.153917 -0.416926
0.000578605 0.130882 0.415165
0.176839 -0.153917 -0.415165
0.209714 -0.153917 0.403738
0.176839 -0.137163 0.415165
0.209714 0.0157064 0.403738
0.209714 0.0153908 0.391743
0.201762 -0.0157058 0.395785
0.173276 0.130882 0.398426
-0.00724007 0.130882 0.395785
-0.187756 -0.0157058 0.395785
-0.187756 0.130882 0.380824
-0.184908 0.147634 -0.395786
0.201762 0.147634 -0.389625
0.208884 0.153917 -0.416926
-0.229091 0.147772 -0.416926
-0.229091 0.147772 -0.415165
-0.0279078 0.130882 0.415165
0.000578605 0.130882 0.412525
0.176839 -0.153917 0.415165
0.173276 -0.120411 0.415165
0.201762 0.0153908 0.391743
0.201762 -0.00826023 0.321932
0.173276 0.00104745 0.398426
0.0212463 0.130882 0.398426
-0.00724007 0.00104745 0.395785
-0.15927 0.130882 0.395785
-0.187756 0.00104745 0.380824
-0.187756 0.130882 0.109492
-0.187756 -0.0157058 -0.395786
0.208884 0.147634 -0.389625
0.208884 0.153917 -0.389625
0.201762 0.147634 -0.416926
-0.229091 -0.153917 -0.415165
-0.200605 0.130882 0.415165
0.000578605 -0.120411 0.415165
0.173276 0.130882 0.412525
0.201762 -0.153917 -0.403738
0.209714 -0.132758 0.375059
-0.197042 -0.137163 0.415165
0.173276 -0.120411 0.412525
0.209714 0.0149589 0.387713
0.201762 0.0149589 0.387713
0.201762 -0.0157058 -0.395786
0.0212463 0.00104745 0.395785
0.201762 -0.00961364 0.317115
0.201762 -0.00668366 0.326675
0.0212463 0.00104745 0.398426
-0.00724007 0.130882 0.398426
-0.15927 0.00104745 0.395785
-0.187756 0.00104745 -0.380824
-0.19203 0.00104745 0.380824
-0.187756 0.130882 0.0918902
-0.19203 0.130882 0.109492
-0.160009 0.000612512 -0.395786
0.201762 0.147634 -0.395786
0.208884 0.147634 -0.416926
0.201762 0.147634 -0.415165
-0.229091 -0.153917 0.415165
-0.200605 0.13101 -0.415165
-0.200605 -0.120411 0.415165
-0.200605 0.130882 0.412525
-0.0279078 -0.120411 0.415165
0.000578605 -0.120411 0.412525
0.176839 -0.137163 -0.415165
0.201762 -0.153917 -0.415165
0.209714 -0.153917 -0.403738
0.209714 -0.132758 0.119843
0.209714 -0.033873 0.375059
-0.197042 -0.137163 -0.415165
0.209714 0.0144118 0.383699
0.201762 0.0144118 0.383699
0.201762 -0.0129432 0.292302
0.201762 -0.0107421 0.312232
0.209714 -0.00961364 0.317115
0.201762 -0.00488691 0.33133
0.209714 -0.00826023 0.321932
-0.00724007 0.00104745 0.398426
-0.15927 0.130882 0.398426
-0.15927 0.00104745 0.398426
-0.187756 0.00104745 -0.167769
-0.19203 0.130882 0.380824
-0.187756 0.00104745 0.109492
-0.187756 0.130882 -0.150168
-0.00724007 0.000612512 -0.395786
-0.160009 0.131316 -0.395786
-0.187756 0.130882 -0.380824
0.174015 0.131316 -0.395786
0.173276 0.130891 -0.415165
-0.197042 -0.153917 0.415165
-0.0281399 0.130955 -0.415165
-0.200605 -0.120411 -0.415165
-0.0279078 0.130882 0.412525
-0.0279078 -0.120411 0.412525
0.209714 -0.132758 -0.373639
0.209714 0.0157064 -0.403738
0.220397 -0.132758 0.375059
0.209714 0.0137495 0.379703
0.201762 0.0137495 0.379703
0.174015 0.000612512 -0.395786
0.201762 -0.0127422 0.297322
0.201762 -0.0129432 -0.292303
0.201762 -0.0116402 0.307299
0.209714 -0.0107421 0.312232
0.201762 -0.00287599 0.335888
0.209714 -0.00668366 0.326675
-0.19203 0.00104745 -0.167769
-0.187756 0.00104745 -0.150168
-0.19203 0.00104745 0.109492
-0.187756 0.00104745 0.0918902
-0.187756 0.130882 -0.167769
-0.19203 0.130882 -0.150168
0.0212463 0.000612512 -0.395786
-0.00724007 0.000612512 -0.398426
-0.00724007 0.131316 -0.395786
-0.160009 0.131316 -0.398426
-0.19203 0.130882 -0.380824
0.201762 0.0157064 -0.395786
0.0212463 0.131316 -0.395786
0.000346448 0.130946 -0.415165
-0.197042 -0.153917 -0.415165
-0.0281399 0.130955 -0.412525
-0.197042 -0.120411 -0.415165
-0.200605 -0.120411 -0.412525
-0.200605 -0.120411 0.412525
-0.197042 -0.120411 0.415165
0.173276 -0.120411 -0.415165
0.201762 0.0157064 -0.403738
0.209714 -0.132758 0.10572
0.220397 -0.132758 0.119843
0.220397 -0.033873 0.375059
0.209714 0.012972 0.375731
0.201762 0.012972 0.375731
0.201762 -0.0123079 0.302324
0.209714 -0.0129432 0.292302
0.201762 -0.0127422 -0.297322
0.209714 -0.0129432 -0.292303
0.209714 -0.0116402 0.307299
0.201762 -0.00065451 0.340336
0.209714 -0.00488691 0.33133
-0.19203 0.00104745 -0.380824
-0.19203 0.130882 0.0918902
-0.19203 0.00104745 0.0918902
-0.160009 0.000612512 -0.398426
0.0212463 0.131316 -0.398426
0.173276 0.130891 -0.412525
-0.0283715 -0.120411 -0.415165
-0.200605 0.13101 -0.412525
-0.197042 -0.120411 0.412525
0.000346448 -0.120411 -0.415165
0.209714 -0.033663 -0.373639
0.209714 -0.033873 0.119843
0.209714 -0.132758 -0.144826
0.220397 -0.033873 0.119843
0.209714 0.0120811 0.371784
0.201762 0.0120811 0.371784
0.174015 0.000612512 -0.398426
0.209714 -0.0127422 0.297322
0.201762 -0.0123079 -0.302324
0.209714 -0.0127422 -0.297322
0.209714 -0.0123079 0.302324
0.201762 0.00177095 0.344665
0.209714 -0.00287599 0.335888
-0.19203 0.130882 -0.167769
-0.19203 0.00104745 -0.150168
-0.00724007 0.131316 -0.398426
0.201762 -0.00826023 -0.321933
0.174015 0.131316 -0.398426
0.000346448 0.130946 -0.412525
-0.0283715 -0.120411 -0.412525
-0.197042 -0.120411 -0.412525
0.000346448 -0.120411 -0.412525
0.209714 -0.00826023 -0.321933
0.220397 -0.033663 -0.373639
0.209714 0.0157064 -0.395786
0.209714 -0.0343356 0.10572
0.220397 -0.132758 -0.144826
0.209714 -0.132758 -0.131894
0.209714 0.0110768 0.367869
0.201762 0.0110768 0.367869
0.0212463 0.000612512 -0.398426
0.209714 -0.033663 -0.144826
0.201762 -0.0116402 -0.307299
0.209714 -0.0123079 -0.302324
0.201762 0.00439618 0.348864
0.209714 -0.00065451 0.340336
0.201762 -0.00961364 -0.317115
0.201762 -0.00668366 -0.326675
0.173276 -0.120411 -0.412525
0.209714 -0.00668366 -0.326675
0.209714 -0.00961364 -0.317115
0.220397 -0.132758 -0.373639
0.201762 0.0153908 -0.391744
0.209714 0.0153908 -0.391744
0.220397 -0.132758 0.10572
0.209714 0.00996039 0.363986
0.201762 0.00996039 0.363986
0.201762 -0.0107421 -0.312233
0.209714 -0.0116402 -0.307299
0.201762 0.00594996 0.352576
0.209714 0.00177095 0.344665
0.201762 -0.00488691 -0.331331
0.209714 -0.00488691 -0.331331
0.209714 -0.0107421 -0.312233
0.220397 -0.033663 -0.144826
0.201762 0.0149589 -0.387713
0.209714 0.0149589 -0.387713
0.220397 -0.0343356 0.10572
0.209714 -0.0343356 -0.131894
0.220397 -0.132758 -0.131894
0.209714 0.00873296 0.360141
0.201762 0.00873296 0.360141
0.201762 0.00739576 0.356336
0.209714 0.00439618 0.348864
0.201762 -0.00287599 -0.335888
0.209714 -0.00287599 -0.335888
0.201762 0.0144118 -0.383699
0.209714 0.0144118 -0.383699
0.220397 -0.0343356 -0.131894
0.209714 0.00739576 0.356336
0.209714 0.00594996 0.352576
0.201762 -0.00065451 -0.340337
0.209714 -0.00065451 -0.340337
0.201762 0.0137495 -0.379703
0.209714 0.0137495 -0.379703
0.201762 0.00177095 -0.344665
0.209714 0.00177095 -0.344665
0.201762 0.012972 -0.375731
0.209714 0.012972 -0.375731
0.201762 0.00439618 -0.348864
0.209714 0.00439618 -0.348864
0.201762 0.0120811 -0.371784
0.209714 0.0120811 -0.371784
0.201762 0.00594996 -0.352577
0.209714 0.00594996 -0.352577
0.201762 0.0110768 -0.367869
0.209714 0.0110768 -0.367869
0.201762 0.00739576 -0.356337
0.209714 0.00739576 -0.356337
0.201762 0.00996039 -0.363986
0.209714 0.00996039 -0.363986
0.201762 0.00873296 -0.360141
0.209714 0.00873296 -0.360141
0.229091 -0.0818764 -0.248337
0.229091 -0.0839342 -0.248546
0.229091 -0.0798175 -0.248546
0.226918 -0.0818764 -0.248337
0.229091 -0.0779002 -0.24916
0.226918 -0.0798175 -0.248546
0.226918 -0.0839342 -0.248546
0.226918 -0.0779002 -0.24916
0.229091 -0.0858521 -0.24916
0.226918 -0.0762534 -0.250138
0.229091 -0.0762534 -0.250138
0.226918 -0.0858521 -0.24916
0.226918 -0.0874994 -0.250138
0.229091 -0.0874994 -0.250138
0.229091 -0.0749894 -0.251413
0.226918 -0.0887629 -0.251413
0.226918 -0.0749894 -0.251413
0.229091 -0.0887629 -0.251413
0.229091 -0.0741945 -0.252896
0.226918 -0.0895578 -0.252896
0.226918 -0.0741945 -0.252896
0.226918 -0.0818764 -0.252444
0.229091 -0.0895578 -0.252896
0.229091 -0.073924 -0.254488
0.226918 -0.0825597 -0.252514
0.226918 -0.0811925 -0.252514
0.226918 -0.073924 -0.254488
0.226918 -0.0898283 -0.254488
0.226918 -0.0831969 -0.252718
0.220397 -0.0818764 -0.252444
0.229091 -0.0898283 -0.254488
0.220397 -0.0811925 -0.252514
0.226918 -0.0805554 -0.252718
0.226918 -0.0800083 -0.253043
0.229091 -0.0741945 -0.25608
0.226918 -0.083744 -0.253043
0.220397 -0.0825597 -0.252514
0.220397 -0.0805554 -0.252718
0.226918 -0.0795884 -0.253466
0.226918 -0.0741945 -0.25608
0.226918 -0.0841639 -0.253466
0.226918 -0.0895578 -0.25608
0.220397 -0.0831969 -0.252718
0.229091 -0.0895578 -0.25608
0.220397 -0.0800083 -0.253043
0.226918 -0.0793244 -0.253959
0.226918 -0.0793244 -0.255017
0.229091 -0.0749894 -0.257563
0.226918 -0.0844279 -0.253959
0.220397 -0.0841639 -0.253466
0.226918 -0.0845179 -0.254488
0.220397 -0.083744 -0.253043
0.220397 -0.0795884 -0.253466
0.226918 -0.0792344 -0.254488
0.226918 -0.0795884 -0.255509
0.226918 -0.0749894 -0.257563
0.220397 -0.0844279 -0.253959
0.226918 -0.0844279 -0.255017
0.226918 -0.0887629 -0.257563
0.229091 -0.0887629 -0.257563
0.220397 -0.0793244 -0.253959
0.220397 -0.0793244 -0.255017
0.226918 -0.0800083 -0.255932
0.220397 -0.0792344 -0.254488
0.226918 -0.0805554 -0.256257
0.229091 -0.0762534 -0.258838
0.220397 -0.0845179 -0.254488
0.226918 -0.0841639 -0.255509
0.220397 -0.0844279 -0.255017
0.226918 -0.0831969 -0.256257
0.220397 -0.0795884 -0.255509
0.220397 -0.0800083 -0.255932
0.226918 -0.0811925 -0.256461
0.226918 -0.0762534 -0.258838
0.226918 -0.083744 -0.255932
0.220397 -0.0841639 -0.255509
0.226918 -0.0825597 -0.256461
0.229091 -0.0874994 -0.258838
0.220397 -0.0805554 -0.256257
0.220397 -0.0811925 -0.256461
0.226918 -0.0818764 -0.256531
0.226918 -0.0874994 -0.258838
0.226918 -0.0779002 -0.259814
0.220397 -0.083744 -0.255932
0.220397 -0.0831969 -0.256257
0.229091 -0.0779002 -0.259814
0.220397 -0.0818764 -0.256531
0.226918 -0.0858521 -0.259814
0.220397 -0.0825597 -0.256461
0.229091 -0.0858521 -0.259814
0.226918 -0.0798175 -0.260429
0.226918 -0.0839342 -0.260429
0.229091 -0.0798175 -0.260429
0.229091 -0.0839342 -0.260429
0.226918 -0.0818764 -0.260639
0.229091 -0.0818764 -0.260639
0.229091 -0.0818764 -0.000260374
0.229091 -0.0839348 -0.000470345
0.229091 -0.0798181 -0.000470345
0.226918 -0.0818764 -0.000260374
0.229091 -0.0779002 -0.00108466
0.226918 -0.0798181 -0.000470345
0.226918 -0.0839348 -0.000470345
0.226918 -0.0779002 -0.00108466
0.229091 -0.0858521 -0.00108466
0.226918 -0.0762534 -0.00206252
0.229091 -0.0762534 -0.00206252
0.226918 -0.0858521 -0.00108466
0.226918 -0.0874994 -0.00206252
0.229091 -0.0874994 -0.00206252
0.229091 -0.0749894 -0.00333614
0.226918 -0.0887629 -0.00333614
0.226918 -0.0749894 -0.00333614
0.229091 -0.0887629 -0.00333614
0.229091 -0.0741945 -0.00481973
0.226918 -0.0895578 -0.00481973
0.226918 -0.0741945 -0.00481973
0.226918 -0.0818764 -0.00436799
0.229091 -0.0895578 -0.00481973
0.229091 -0.073924 -0.00641131
0.226918 -0.0825597 -0.00443818
0.226918 -0.0811925 -0.00443818
0.226918 -0.073924 -0.00641131
0.226918 -0.0898283 -0.00641131
0.226918 -0.0831969 -0.00464216
0.220397 -0.0818764 -0.00436799
0.229091 -0.0898283 -0.00641131
0.220397 -0.0811925 -0.00443818
0.226918 -0.0805554 -0.00464216
0.226918 -0.0800083 -0.00496671
0.229091 -0.0741945 -0.00800348
0.226918 -0.083744 -0.00496671
0.220397 -0.0825597 -0.00443818
0.220397 -0.0805554 -0.00464216
0.226918 -0.0795884 -0.00539025
0.226918 -0.0741945 -0.00800348
0.226918 -0.0841639 -0.00539025
0.226918 -0.0895578 -0.00800348
0.220397 -0.0831969 -0.00464216
0.229091 -0.0895578 -0.00800348
0.220397 -0.0800083 -0.00496671
0.226918 -0.0793244 -0.00588278
0.226918 -0.0793244 -0.00694043
0.229091 -0.0749894 -0.00948707
0.226918 -0.0844279 -0.00588278
0.220397 -0.0841639 -0.00539025
0.226918 -0.0845179 -0.00641131
0.220397 -0.083744 -0.00496671
0.220397 -0.0795884 -0.00539025
0.226918 -0.0792344 -0.00641131
0.226918 -0.0795884 -0.00743356
0.226918 -0.0749894 -0.00948707
0.220397 -0.0844279 -0.00588278
0.226918 -0.0844279 -0.00694043
0.226918 -0.0887629 -0.00948707
0.229091 -0.0887629 -0.00948707
0.220397 -0.0793244 -0.00588278
0.220397 -0.0793244 -0.00694043
0.226918 -0.0800083 -0.0078565
0.220397 -0.0792344 -0.00641131
0.226918 -0.0805554 -0.00818106
0.229091 -0.0762534 -0.0107607
0.220397 -0.0845179 -0.00641131
0.226918 -0.0841639 -0.00743356
0.220397 -0.0844279 -0.00694043
0.226918 -0.0831969 -0.00818106
0.220397 -0.0795884 -0.00743356
0.220397 -0.0800083 -0.0078565
0.226918 -0.0811925 -0.00838503
0.226918 -0.0762534 -0.0107607
0.226918 -0.083744 -0.0078565
0.220397 -0.0841639 -0.00743356
0.226918 -0.0825597 -0.00838503
0.229091 -0.0874994 -0.0107607
0.220397 -0.0805554 -0.00818106
0.220397 -0.0811925 -0.00838503
0.226918 -0.0818764 -0.00845522
0.226918 -0.0874994 -0.0107607
0.226918 -0.0779002 -0.0117386
0.220397 -0.083744 -0.0078565
0.220397 -0.0831969 -0.00818106
0.229091 -0.0779002 -0.0117386
0.220397 -0.0818764 -0.00845522
0.226918 -0.0858521 -0.0117386
0.220397 -0.0825597 -0.00838503
0.229091 -0.0858521 -0.0117386
0.226918 -0.0798181 -0.0123529
0.226918 -0.0839348 -0.0123529
0.229091 -0.0798181 -0.0123529
0.229091 -0.0839348 -0.0123529
0.226918 -0.0818764 -0.0125628
0.229091 -0.0818764 -0.0125628
0.229091 -0.0818764 0.256863
0.229091 -0.0839342 0.256654
0.229091 -0.0798175 0.256654
0.226918 -0.0818764 0.256863
0.229091 -0.0779002 0.25604
0.226918 -0.0798175 0.256654
0.226918 -0.0839342 0.256654
0.226918 -0.0779002 0.25604
0.229091 -0.0858521 0.25604
0.226918 -0.0762534 0.255062
0.229091 -0.0762534 0.255062
0.226918 -0.0858521 0.25604
0.226918 -0.0874994 0.255062
0.229091 -0.0874994 0.255062
0.229091 -0.0749894 0.253788
0.226918 -0.0887629 0.253788
0.226918 -0.0749894 0.253788
0.229091 -0.0887629 0.253788
0.229091 -0.0741945 0.252305
0.226918 -0.0895578 0.252305
0.226918 -0.0741945 0.252305
0.226918 -0.0818764 0.252756
0.229091 -0.0895578 0.252305
0.229091 -0.073924 0.250712
0.226918 -0.0825597 0.252686
0.226918 -0.0811925 0.252686
0.226918 -0.073924 0.250712
0.226918 -0.0898283 0.250712
0.226918 -0.0831969 0.252482
0.220397 -0.0818764 0.252756
0.229091 -0.0898283 0.250712
0.220397 -0.0811925 0.252686
0.226918 -0.0805554 0.252482
0.226918 -0.0800083 0.252158
0.229091 -0.0741945 0.24912
0.226918 -0.083744 0.252158
0.220397 -0.0825597 0.252686
0.220397 -0.0805554 0.252482
0.226918 -0.0795884 0.251734
0.226918 -0.0741945 0.24912
0.226918 -0.0841639 0.251734
0.226918 -0.0895578 0.24912
0.220397 -0.0831969 0.252482
0.229091 -0.0895578 0.24912
0.220397 -0.0800083 0.252158
0.226918 -0.0793244 0.251242
0.226918 -0.0793244 0.250184
0.229091 -0.0749894 0.247637
0.226918 -0.0844279 0.251242
0.220397 -0.0841639 0.251734
0.226918 -0.0845179 0.250712
0.220397 -0.083744 0.252158
0.220397 -0.0795884 0.251734
0.226918 -0.0792344 0.250712
0.226918 -0.0795884 0.249691
0.226918 -0.0749894 0.247637
0.220397 -0.0844279 0.251242
0.226918 -0.0844279 0.250184
0.226918 -0.0887629 0.247637
0.229091 -0.0887629 0.247637
0.220397 -0.0793244 0.251242
0.220397 -0.0793244 0.250184
0.226918 -0.0800083 0.249268
0.220397 -0.0792344 0.250712
0.226918 -0.0805554 0.248943
0.229091 -0.0762534 0.246363
0.220397 -0.0845179 0.250712
0.226918 -0.0841639 0.249691
0.220397 -0.0844279 0.250184
0.226918 -0.0831969 0.248943
0.220397 -0.0795884 0.249691
0.220397 -0.0800083 0.249268
0.226918 -0.0811925 0.248739
0.226918 -0.0762534 0.246363
0.226918 -0.083744 0.249268
0.220397 -0.0841639 0.249691
0.226918 -0.0825597 0.248739
0.229091 -0.0874994 0.246363
0.220397 -0.0805554 0.248943
0.220397 -0.0811925 0.248739
0.226918 -0.0818764 0.248669
0.226918 -0.0874994 0.246363
0.226918 -0.0779002 0.245386
0.220397 -0.083744 0.249268
0.220397 -0.0831969 0.248943
0.229091 -0.0779002 0.245386
0.220397 -0.0818764 0.248669
0.226918 -0.0858521 0.245386
0.220397 -0.0825597 0.248739
0.229091 -0.0858521 0.245386
0.226918 -0.0798175 0.244771
0.226918 -0.0839342 0.244771
0.229091 -0.0798175 0.244771
0.229091 -0.0839342 0.244771
0.226918 -0.0818764 0.244561
0.229091 -0.0818764 0.244561
3 0 1 2
3 1 0 3
3 3 0 5
3 3 6 1
3 5 0 9
3 11 6 3
3 1 6 12
3 6 11 19
3 30 31 20
3 28 63 30
3 30 66 31
3 55 39 56
3 63 28 92
3 30 63 93
3 30 95 66
3 39 55 81
3 82 62 90
3 91 119 28
3 28 119 92
3 30 93 101
3 30 122 95
3 62 82 152
3 119 91 120
3 153 92 119
3 101 93 99
3 30 101 130
3 30 156 122
3 99 93 128
3 152 80 142
3 80 152 82
3 119 120 175
3 92 153 176
3 153 119 177
3 178 121 154
3 121 178 155
3 30 130 164
3 30 179 156
3 128 93 162
3 175 120 197
3 176 153 200
3 153 177 202
3 30 164 187
3 30 203 179
3 182 206 159
3 159 206 161
3 206 184 161
3 162 93 185
3 197 120 214
3 175 197 215
3 218 120 199
3 200 206 176
3 206 202 177
3 176 206 93
3 30 187 210
3 30 220 203
3 185 93 182
3 182 93 206
3 206 208 184
3 214 120 227
3 175 215 228
3 198 201 216
3 175 223 206
3 231 120 218
3 233 206 200
3 202 206 233
3 30 210 225
3 30 235 220
3 206 223 208
3 227 120 240
3 175 228 223
3 201 198 229
3 242 120 231
3 219 243 232
3 243 219 234
3 30 225 238
3 30 244 235
3 240 120 247
3 249 120 242
3 30 238 245
3 30 245 244
3 247 120 251
3 253 120 249
3 251 120 255
3 257 120 253
3 255 120 259
3 261 120 257
3 259 120 263
3 265 120 261
3 263 120 267
3 267 120 265
3 2 1 0
3 3 0 1
3 2 4 1
3 2 0 4
3 5 0 3
3 1 6 3
3 7 1 4
3 8 4 0
3 9 0 5
3 5 10 3
3 3 6 11
3 12 6 1
3 7 13 1
3 4 14 7
3 8 15 4
3 8 0 16
3 9 16 0
3 16 5 9
3 10 5 17
3 18 3 10
3 19 11 6
3 3 18 11
3 12 20 6
3 1 21 12
3 21 1 13
3 22 13 7
3 23 7 14
3 24 14 4
3 24 4 15
3 15 8 25
3 25 8 16
3 5 16 17
3 16 10 17
3 18 10 26
3 11 27 19
3 19 27 11
3 19 6 28
3 11 18 29
3 30 6 20
3 12 21 32
3 13 33 21
3 13 22 33
3 34 22 7
3 23 35 7
3 14 36 23
3 37 14 24
3 38 15 24
3 39 15 25
3 40 16 25
3 10 16 41
3 26 10 42
3 43 18 26
3 27 11 44
3 44 11 27
3 19 27 28
3 28 27 19
3 30 28 6
3 45 29 18
3 44 11 29
3 20 31 30
3 35 32 21
3 12 32 47
3 48 21 33
3 49 33 22
3 50 22 34
3 51 34 7
3 7 35 51
3 23 52 35
3 36 52 23
3 36 14 53
3 54 37 14
3 37 38 24
3 55 15 38
3 56 15 39
3 25 57 39
3 41 16 40
3 40 57 25
3 58 10 41
3 42 10 59
3 26 42 60
3 18 43 61
3 60 43 26
3 44 27 29
3 28 27 62
3 62 27 28
3 30 63 28
3 29 45 64
3 18 65 45
3 31 66 30
3 46 12 67
3 32 35 68
3 69 35 21
3 47 32 70
3 71 12 47
3 48 72 21
3 48 33 72
3 49 72 33
3 49 22 72
3 22 50 69
3 34 73 50
3 34 51 73
3 51 35 74
3 75 35 52
3 52 36 76
3 53 14 77
3 53 78 36
3 54 79 37
3 14 54 75
3 38 37 80
3 15 55 56
3 38 55 80
3 56 39 55
3 81 39 57
3 41 82 40
3 57 40 82
3 10 58 83
3 58 84 41
3 59 10 85
3 86 42 59
3 87 60 42
3 43 65 61
3 65 18 61
3 43 60 88
3 89 29 27
3 62 27 90
3 90 27 62
3 91 28 62
3 62 28 91
3 92 28 63
3 93 63 30
3 64 45 60
3 64 29 94
3 65 60 45
3 66 95 30
3 67 12 96
3 54 68 35
3 68 97 32
3 50 35 69
3 69 21 72
3 70 32 98
3 100 12 71
3 69 72 22
3 102 50 73
3 103 73 51
3 74 35 50
3 74 104 51
3 35 75 54
3 105 75 52
3 106 76 36
3 52 76 107
3 77 14 108
3 53 77 107
3 106 36 78
3 53 107 78
3 54 109 79
3 110 37 79
3 111 14 75
3 112 80 37
3 81 80 55
3 81 55 39
3 57 82 81
3 41 113 82
3 58 114 83
3 83 114 58
3 83 85 10
3 84 115 41
3 84 58 116
3 85 86 59
3 42 86 117
3 64 60 87
3 42 118 87
3 65 43 88
3 60 65 88
3 89 94 29
3 89 27 82
3 90 82 27
3 90 62 82
3 28 119 91
3 91 120 62
3 92 119 28
3 63 121 92
3 63 93 121
3 101 93 30
3 64 94 114
3 95 122 30
3 96 12 123
3 68 124 54
3 125 32 97
3 97 68 126
3 98 32 127
3 129 12 100
3 102 104 50
3 102 73 104
3 103 104 73
3 103 51 104
3 74 50 104
3 105 131 75
3 132 105 52
3 106 78 76
3 133 107 76
3 107 134 52
3 108 14 135
3 108 136 77
3 134 107 77
3 133 78 107
3 54 137 109
3 138 79 109
3 139 37 110
3 79 140 110
3 135 14 111
3 111 75 141
3 80 112 142
3 112 37 143
3 82 80 81
3 113 89 82
3 144 113 41
3 114 58 145
3 145 58 114
3 114 85 83
3 115 144 41
3 115 84 146
3 116 58 147
3 116 148 84
3 86 85 149
3 86 118 117
3 118 42 117
3 64 87 150
3 118 150 87
3 89 151 94
3 152 82 62
3 120 91 119
3 152 62 120
3 119 92 153
3 154 92 121
3 155 121 93
3 99 93 101
3 130 101 30
3 145 114 94
3 64 85 114
3 122 156 30
3 123 12 157
3 124 68 112
3 54 124 137
3 158 32 125
3 126 68 160
3 126 161 97
3 127 32 158
3 128 93 99
3 163 12 129
3 165 75 131
3 105 135 131
3 105 132 135
3 134 132 52
3 133 76 78
3 108 135 132
3 166 77 136
3 108 132 136
3 134 77 167
3 109 137 139
3 79 138 168
3 139 138 109
3 143 37 139
3 140 139 110
3 140 79 168
3 111 141 135
3 165 141 75
3 142 112 68
3 142 80 152
3 169 112 143
3 82 152 80
3 151 89 113
3 113 144 170
3 145 94 58
3 115 171 144
3 172 146 84
3 115 146 171
3 147 58 94
3 116 147 148
3 172 84 148
3 85 173 149
3 173 86 149
3 118 86 173
3 64 150 85
3 150 118 173
3 174 94 151
3 175 120 119
3 152 120 142
3 176 153 92
3 177 119 153
3 154 178 92
3 154 121 178
3 155 178 121
3 155 93 178
3 164 130 30
3 156 179 30
3 157 12 180
3 112 181 124
3 181 137 124
3 159 97 161
3 160 68 183
3 162 93 128
3 186 12 163
3 165 131 141
3 188 131 135
3 134 167 132
3 166 167 77
3 166 136 167
3 189 136 132
3 143 139 137
3 138 140 168
3 138 139 190
3 139 140 190
3 188 135 141
3 142 191 68
3 112 169 192
3 137 169 143
3 113 170 151
3 193 170 144
3 144 171 174
3 146 172 194
3 194 171 146
3 147 94 171
3 195 148 147
3 148 195 172
3 173 85 150
3 171 94 174
3 174 151 196
3 197 120 175
3 175 119 198
3 199 142 120
3 200 153 176
3 176 92 178
3 177 201 119
3 202 177 153
3 176 178 93
3 187 164 30
3 179 203 30
3 180 12 204
3 181 112 192
3 137 181 205
3 159 206 182
3 161 206 159
3 183 68 207
3 161 184 206
3 185 93 162
3 209 12 186
3 188 141 131
3 189 132 167
3 189 167 136
3 140 138 190
3 211 68 191
3 212 191 142
3 169 181 192
3 169 137 205
3 213 151 170
3 193 196 170
3 193 144 196
3 174 196 144
3 195 194 172
3 194 195 171
3 147 171 195
3 213 196 151
3 214 120 197
3 215 197 175
3 216 198 119
3 175 198 206
3 199 120 218
3 153 200 219
3 176 206 200
3 216 119 201
3 177 206 201
3 177 202 206
3 153 219 202
3 93 206 176
3 210 187 30
3 203 220 30
3 204 12 221
3 181 169 205
3 182 93 185
3 206 93 182
3 207 68 222
3 184 208 206
3 224 12 209
3 222 68 211
3 226 212 142
3 213 170 196
3 227 120 214
3 228 215 175
3 216 201 198
3 229 206 198
3 206 223 175
3 217 230 142
3 218 120 231
3 232 219 200
3 200 206 233
3 229 201 206
3 233 206 202
3 234 202 219
3 225 210 30
3 220 235 30
3 221 12 236
3 208 223 206
3 237 12 224
3 239 226 142
3 240 120 227
3 223 228 175
3 229 198 201
3 230 241 142
3 231 120 242
3 232 243 219
3 232 200 243
3 233 243 200
3 233 202 243
3 234 243 202
3 234 219 243
3 238 225 30
3 235 244 30
3 236 12 237
3 246 239 142
3 247 120 240
3 241 248 142
3 242 120 249
3 245 238 30
3 244 245 30
3 250 246 142
3 251 120 247
3 248 252 142
3 249 120 253
3 254 250 142
3 255 120 251
3 252 256 142
3 253 120 257
3 258 254 142
3 259 120 255
3 256 260 142
3 257 120 261
3 262 258 142
3 263 120 259
3 260 264 142
3 261 120 265
3 266 262 142
3 267 120 263
3 264 266 142
3 265 120 267
3 20 12 31
3 46 31 12
3 31 46 66
3 67 66 46
3 70 99 47
3 47 101 71
3 66 67 95
3 96 95 67
3 98 128 70
3 101 47 99
3 99 70 128
3 71 130 100
3 130 71 101
3 95 96 122
3 123 122 96
3 97 159 125
3 127 162 98
3 128 98 162
3 100 164 129
3 164 100 130
3 122 123 156
3 157 156 123
3 125 182 158
3 182 125 159
3 160 184 126
3 161 126 184
3 158 185 127
3 162 127 185
3 129 187 163
3 187 129 164
3 156 157 179
3 180 179 157
3 185 158 182
3 183 208 160
3 184 160 208
3 163 210 186
3 210 163 187
3 142 199 217
3 179 180 203
3 204 203 180
3 207 223 183
3 208 183 223
3 186 225 209
3 225 186 210
3 191 197 211
3 212 214 191
3 197 191 214
3 215 211 197
3 218 217 199
3 203 204 220
3 221 220 204
3 222 228 207
3 223 207 228
3 209 238 224
3 238 209 225
3 211 215 222
3 214 212 227
3 226 227 212
3 228 222 215
3 217 218 230
3 231 230 218
3 220 221 235
3 236 235 221
3 224 245 237
3 245 224 238
3 227 226 240
3 239 240 226
3 230 231 241
3 242 241 231
3 235 236 244
3 237 244 236
3 244 237 245
3 240 239 247
3 246 247 239
3 241 242 248
3 249 248 242
3 247 246 251
3 250 251 246
3 248 249 252
3 253 252 249
3 251 250 255
3 254 255 250
3 252 253 256
3 257 256 253
3 255 254 259
3 258 259 254
3 256 257 260
3 261 260 257
3 259 258 263
3 262 263 258
3 260 261 264
3 265 264 261
3 263 262 267
3 266 267 262
3 264 265 266
3 267 266 265
3 1 4 2
3 4 1 7
3 33 22 13
3 22 33 49
3 73 51 34
3 51 73 103
3 4 0 2
3 0 4 8
3 1 13 7
3 12 21 1
3 13 1 21
3 7 13 22
3 32 21 12
3 7 22 34
3 7 35 23
3 21 32 35
3 34 22 50
3 7 34 51
3 51 35 7
3 21 35 69
3 72 33 48
3 33 72 49
3 69 50 22
3 74 35 51
3 69 35 50
3 50 35 74
3 104 73 102
3 73 104 103
3 3 10 5
3 17 5 10
3 26 18 43
3 61 43 18
3 59 42 86
3 117 86 42
3 7 14 4
3 14 7 23
3 4 14 24
3 24 14 37
3 36 78 53
3 78 36 106
3 77 136 108
3 136 77 166
3 135 141 111
3 141 135 188
3 4 15 8
3 15 4 24
3 23 36 14
3 35 52 23
3 23 52 36
3 53 14 36
3 52 35 75
3 77 14 53
3 75 54 14
3 54 75 35
3 52 75 105
3 108 14 77
3 107 77 53
3 75 14 111
3 52 105 132
3 76 78 106
3 52 134 107
3 135 14 108
3 77 107 134
3 111 14 135
3 135 132 105
3 52 132 134
3 78 76 133
3 132 135 108
3 141 131 165
3 167 136 166
3 131 141 188
3 136 167 189
3 16 0 8
3 0 16 9
3 25 8 15
3 16 8 25
3 25 15 39
3 39 15 56
3 9 5 16
3 10 3 18
3 11 18 3
3 17 16 5
3 26 10 18
3 29 18 11
3 42 10 26
3 18 29 45
3 29 11 44
3 59 10 42
3 60 42 26
3 64 45 29
3 85 10 59
3 42 60 87
3 61 65 43
3 60 45 64
3 10 85 83
3 87 60 64
3 88 43 65
3 83 85 114
3 117 118 86
3 150 87 64
3 114 85 64
3 149 86 173
3 173 86 118
3 85 150 64
3 6 20 12
3 20 6 30
3 142 120 152
3 120 142 199
3 17 10 16
3 25 16 40
3 41 16 10
3 40 16 41
3 41 10 58
3 83 58 10
3 28 6 19
3 6 28 30
3 31 12 20
3 12 31 46
3 21 33 13
3 33 21 48
3 50 73 34
3 73 50 102
3 24 15 38
3 14 37 54
3 38 15 55
3 37 79 54
3 56 55 15
3 79 109 54
3 79 37 110
3 37 80 112
3 54 124 68
3 109 137 54
3 110 37 139
3 142 112 80
3 143 37 112
3 112 68 124
3 137 124 54
3 139 137 109
3 139 37 143
3 68 112 142
3 137 139 143
3 168 140 138
3 190 138 140
3 192 181 169
3 205 169 181
3 47 32 12
3 67 12 46
3 70 32 47
3 47 12 71
3 96 12 67
3 32 97 68
3 98 32 70
3 71 12 100
3 123 12 96
3 97 32 125
3 126 68 97
3 127 32 98
3 100 12 129
3 157 12 123
3 125 32 158
3 160 68 126
3 158 32 127
3 129 12 163
3 180 12 157
3 183 68 160
3 163 12 186
3 68 191 142
3 204 12 180
3 207 68 183
3 186 12 209
3 191 68 211
3 142 191 212
3 221 12 204
3 222 68 207
3 209 12 224
3 211 68 222
3 142 212 226
3 142 230 217
3 236 12 221
3 224 12 237
3 142 226 239
3 142 241 230
3 237 12 236
3 142 239 246
3 142 248 241
3 142 246 250
3 142 252 248
3 142 250 254
3 142 256 252
3 142 254 258
3 142 260 256
3 142 258 262
3 142 264 260
3 142 262 266
3 142 266 264
3 24 38 37
3 80 37 38
3 110 139 140
3 143 112 169
3 190 140 139
3 192 169 112
3 39 57 25
3 25 57 40
3 57 39 81
3 41 84 58
3 82 113 41
3 41 115 84
3 116 58 84
3 82 27 89
3 27 82 90
3 82 89 113
3 41 113 144
3 41 144 115
3 147 58 116
3 94 151 89
3 113 89 151
3 58 94 145
3 144 171 115
3 94 58 147
3 151 94 174
3 174 171 144
3 194 172 146
3 171 94 147
3 172 195 148
3 174 94 171
3 170 196 193
3 172 194 195
3 196 170 213
3 26 43 60
3 88 60 43
3 59 86 85
3 149 85 86
3 29 27 44
3 27 29 89
3 151 170 113
3 170 151 213
3 45 65 18
3 61 18 65
3 87 118 42
3 117 42 118
3 66 46 31
3 46 66 67
3 68 35 32
3 35 68 54
3 21 72 48
3 72 21 69
3 50 104 102
3 104 50 74
3 72 22 49
3 22 72 69
3 51 104 74
3 104 51 103
3 76 36 52
3 36 76 106
3 131 135 105
3 167 77 134
3 135 131 188
3 77 167 166
3 80 55 38
3 55 80 81
3 81 82 57
3 92 121 63
3 81 80 82
3 121 92 154
3 119 201 177
3 201 119 216
3 202 219 153
3 219 202 234
3 40 82 41
3 82 40 57
3 146 84 115
3 170 144 113
3 84 146 172
3 144 170 193
3 94 29 64
3 29 94 89
3 45 60 65
3 88 65 60
3 87 150 118
3 149 173 85
3 173 118 150
3 150 85 173
3 47 99 70
3 99 47 101
3 71 101 47
3 101 71 130
3 107 76 52
3 75 131 105
3 76 107 133
3 131 75 165
3 132 167 134
3 167 132 189
3 78 107 53
3 107 78 133
3 141 75 111
3 136 132 108
3 75 141 165
3 132 136 189
3 62 120 91
3 120 62 152
3 121 93 63
3 93 121 155
3 219 200 153
3 201 206 177
3 200 219 232
3 206 201 229
3 114 94 64
3 84 148 116
3 94 114 145
3 148 84 172
3 196 144 193
3 144 196 174
3 95 67 66
3 67 95 96
3 70 128 98
3 128 70 99
3 100 130 71
3 130 100 164
3 109 79 138
3 168 138 79
3 124 137 181
3 205 181 137
3 110 140 79
3 168 79 140
3 143 169 137
3 205 137 169
3 122 96 95
3 96 122 123
3 125 159 97
3 159 125 182
3 97 161 126
3 178 93 155
3 161 97 159
3 93 178 176
3 206 198 175
3 198 206 229
3 243 200 232
3 200 243 233
3 98 162 127
3 162 98 128
3 129 164 100
3 164 129 187
3 109 138 139
3 124 181 112
3 190 139 138
3 192 112 181
3 171 146 115
3 146 171 194
3 148 147 116
3 147 148 195
3 196 151 174
3 171 195 194
3 195 171 147
3 151 196 213
3 92 178 154
3 198 119 175
3 178 92 176
3 119 198 216
3 243 202 233
3 202 243 234
3 156 123 122
3 123 156 157
3 158 182 125
3 182 158 185
3 126 184 160
3 184 126 161
3 127 185 158
3 185 127 162
3 163 187 129
3 187 163 210
3 179 157 156
3 157 179 180
3 160 208 183
3 208 160 184
3 186 210 163
3 210 186 225
3 217 199 142
3 199 217 218
3 203 180 179
3 180 203 204
3 183 223 207
3 223 183 208
3 209 225 186
3 225 209 238
3 211 197 191
3 197 211 215
3 191 214 212
3 214 191 197
3 220 204 203
3 204 220 221
3 207 228 222
3 228 207 223
3 224 238 209
3 238 224 245
3 222 215 211
3 215 222 228
3 227 212 214
3 212 227 226
3 230 218 217
3 218 230 231
3 235 221 220
3 221 235 236
3 237 245 224
3 245 237 244
3 240 226 227
3 226 240 239
3 241 231 230
3 231 241 242
3 244 236 235
3 236 244 237
3 247 239 240
3 239 247 246
3 248 242 241
3 242 248 249
3 251 246 247
3 246 251 250
3 252 249 248
3 249 252 253
3 255 250 251
3 250 255 254
3 256 253 252
3 253 256 257
3 259 254 255
3 254 259 258
3 260 257 256
3 257 260 261
3 263 258 259
3 258 263 262
3 264 261 260
3 261 264 265
3 267 262 263
3 262 267 266
3 266 265 264
3 265 266 267
3 268 269 270
3 272 270 269
3 276 272 269
3 278 272 276
3 281 278 276
3 282 278 281
3 285 282 281
3 286 282 285
3 290 286 285
3 291 286 290
3 298 291 290
3 302 291 298
3 311 302 298
3 315 302 311
3 327 315 311
3 333 315 327
3 345 333 327
3 353 333 345
3 357 353 345
3 360 353 357
3 361 360 357
3 363 360 361
3 268 271 269
3 270 273 268
3 271 268 273
3 274 269 271
3 272 275 270
3 273 270 275
3 269 274 276
3 275 272 277
3 279 276 274
3 278 277 272
3 276 279 281
3 278 282 277
3 280 281 279
3 284 277 282
3 280 283 281
3 282 286 284
3 285 281 283
3 288 284 286
3 283 287 285
3 286 291 288
3 290 285 287
3 294 288 291
3 287 295 290
3 289 297 292
3 293 299 289
3 291 302 294
3 298 290 295
3 292 304 296
3 297 289 299
3 304 292 297
3 299 293 305
3 300 305 293
3 307 294 302
3 295 309 298
3 296 310 303
3 310 296 304
3 305 300 312
3 301 312 300
3 301 306 312
3 302 315 307
3 308 303 317
3 311 298 309
3 319 303 310
3 320 312 306
3 306 313 320
3 323 307 315
3 316 308 324
3 319 317 303
3 317 324 308
3 309 326 311
3 328 320 313
3 313 321 328
3 314 322 329
3 321 314 331
3 315 333 323
3 318 316 334
3 324 334 316
3 325 318 336
3 327 311 326
3 331 328 321
3 338 329 322
3 329 331 314
3 330 339 322
3 341 323 333
3 334 336 318
3 335 325 343
3 336 343 325
3 327 326 345
3 338 322 339
3 339 330 346
3 332 346 330
3 340 347 332
3 341 333 350
3 342 335 351
3 343 351 335
3 342 351 337
3 337 352 344
3 349 345 326
3 346 332 347
3 347 340 354
3 348 354 340
3 353 350 333
3 352 337 351
3 344 356 348
3 356 344 352
3 345 349 357
3 354 348 356
3 355 357 349
3 350 353 358
3 357 355 361
3 360 358 353
3 359 361 355
3 358 360 362
3 361 359 363
3 363 362 360
3 362 363 359
3 270 269 268
3 269 270 272
3 269 272 276
3 274 273 271
3 276 272 278
3 273 279 275
3 273 274 279
3 275 280 277
3 276 278 281
3 275 279 280
3 277 280 283
3 281 278 282
3 277 283 284
3 281 282 285
3 284 283 287
3 285 282 286
3 284 287 289
3 285 286 290
3 289 288 284
3 289 287 292
3 290 286 291
3 288 289 293
3 292 287 296
3 290 291 298
3 288 293 300
3 288 301 294
3 303 287 295
3 296 287 303
3 298 291 302
3 288 300 301
3 294 301 306
3 303 295 308
3 298 302 311
3 294 306 313
3 294 314 307
3 308 295 316
3 318 295 309
3 311 302 315
3 294 313 321
3 307 314 322
3 294 321 314
3 316 295 318
3 318 309 325
3 311 315 327
3 307 322 330
3 307 332 323
3 325 309 335
3 337 309 326
3 327 315 333
3 307 330 332
3 323 332 340
3 335 309 342
3 342 309 337
3 337 326 344
3 327 333 345
3 323 340 348
3 323 349 341
3 344 326 348
3 345 333 353
3 323 348 326
3 341 349 355
3 323 326 349
3 341 355 350
3 345 353 357
3 350 355 359
3 357 353 360
3 350 359 358
3 357 360 361
3 358 359 362
3 361 360 363
3 269 271 268
3 268 273 270
3 273 268 271
3 271 269 274
3 270 275 272
3 275 270 273
3 276 274 269
3 277 272 275
3 274 276 279
3 272 277 278
3 281 279 276
3 277 282 278
3 279 281 280
3 282 277 284
3 281 283 280
3 284 286 282
3 283 281 285
3 286 284 288
3 285 287 283
3 288 291 286
3 287 285 290
3 291 288 294
3 290 295 287
3 292 297 289
3 289 299 293
3 294 302 291
3 295 290 298
3 296 304 292
3 299 289 297
3 297 292 304
3 305 293 299
3 293 305 300
3 302 294 307
3 298 309 295
3 303 310 296
3 304 296 310
3 312 300 305
3 300 312 301
3 312 306 301
3 307 315 302
3 317 303 308
3 309 298 311
3 310 303 319
3 306 312 320
3 320 313 306
3 315 307 323
3 324 308 316
3 303 317 319
3 308 324 317
3 311 326 309
3 313 320 328
3 328 321 313
3 329 322 314
3 331 314 321
3 323 333 315
3 334 316 318
3 316 334 324
3 336 318 325
3 326 311 327
3 321 328 331
3 322 329 338
3 314 331 329
3 322 339 330
3 333 323 341
3 318 336 334
3 343 325 335
3 325 343 336
3 345 326 327
3 339 322 338
3 346 330 339
3 330 346 332
3 332 347 340
3 350 333 341
3 351 335 342
3 335 351 343
3 337 351 342
3 344 352 337
3 326 345 349
3 347 332 346
3 354 340 347
3 340 354 348
3 333 350 353
3 351 337 352
3 348 356 344
3 352 344 356
3 357 349 345
3 356 348 354
3 349 357 355
3 358 353 350
3 361 355 357
3 353 358 360
3 355 361 359
3 362 360 358
3 363 359 361
3 360 362 363
3 359 363 362
3 271 273 274
3 275 279 273
3 279 274 273
3 277 280 275
3 280 279 275
3 283 280 277
3 284 283 277
3 287 283 284
3 289 287 284
3 284 288 289
3 292 287 289
3 293 289 288
3 296 287 292
3 300 293 288
3 294 301 288
3 295 287 303
3 303 287 296
3 301 300 288
3 306 301 294
3 308 295 303
3 313 306 294
3 307 314 294
3 316 295 308
3 309 295 318
3 321 313 294
3 322 314 307
3 314 321 294
3 318 295 316
3 325 309 318
3 330 322 307
3 323 332 307
3 335 309 325
3 326 309 337
3 332 330 307
3 340 332 323
3 342 309 335
3 337 309 342
3 344 326 337
3 348 340 323
3 341 349 323
3 348 326 344
3 326 348 323
3 355 349 341
3 349 326 323
3 350 355 341
3 359 355 350
3 358 359 350
3 362 359 358
3 364 365 366
3 368 366 365
3 372 368 365
3 374 368 372
3 377 374 372
3 378 374 377
3 381 378 377
3 382 378 381
3 386 382 381
3 387 382 386
3 394 387 386
3 398 387 394
3 407 398 394
3 411 398 407
3 423 411 407
3 429 411 423
3 441 429 423
3 449 429 441
3 453 449 441
3 456 449 453
3 457 456 453
3 459 456 457
3 364 367 365
3 366 369 364
3 367 364 369
3 370 365 367
3 368 371 366
3 369 366 371
3 365 370 372
3 371 368 373
3 375 372 370
3 374 373 368
3 372 375 377
3 374 378 373
3 376 377 375
3 380 373 378
3 376 379 377
3 378 382 380
3 381 377 379
3 384 380 382
3 379 383 381
3 382 387 384
3 386 381 383
3 390 384 387
3 383 391 386
3 385 393 388
3 389 395 385
3 387 398 390
3 394 386 391
3 388 400 392
3 393 385 395
3 400 388 393
3 395 389 401
3 396 401 389
3 403 390 398
3 391 405 394
3 392 406 399
3 406 392 400
3 401 396 408
3 397 408 396
3 397 402 408
3 398 411 403
3 404 399 413
3 407 394 405
3 415 399 406
3 416 408 402
3 402 409 416
3 419 403 411
3 412 404 420
3 415 413 399
3 413 420 404
3 405 422 407
3 424 416 409
3 409 417 424
3 410 418 425
3 417 410 427
3 411 429 419
3 414 412 430
3 420 430 412
3 421 414 432
3 423 407 422
3 427 424 417
3 434 425 418
3 425 427 410
3 426 435 418
3 437 419 429
3 430 432 414
3 431 421 439
3 432 439 421
3 423 422 441
3 434 418 435
3 435 426 442
3 428 442 426
3 436 443 428
3 437 429 446
3 438 431 447
3 439 447 431
3 438 447 433
3 433 448 440
3 445 441 422
3 442 428 443
3 443 436 450
3 444 450 436
3 449 446 429
3 448 433 447
3 440 452 444
3 452 440 448
3 441 445 453
3 450 444 452
3 451 453 445
3 446 449 454
3 453 451 457
3 456 454 449
3 455 457 451
3 454 456 458
3 457 455 459
3 459 458 456
3 458 459 455
3 366 365 364
3 365 366 368
3 365 368 372
3 370 369 367
3 372 368 374
3 369 375 371
3 369 370 375
3 371 376 373
3 372 374 377
3 371 375 376
3 373 376 379
3 377 374 378
3 373 379 380
3 377 378 381
3 380 379 383
3 381 378 382
3 380 383 385
3 381 382 386
3 385 384 380
3 385 383 388
3 386 382 387
3 384 385 389
3 388 383 392
3 386 387 394
3 384 389 396
3 384 397 390
3 399 383 391
3 392 383 399
3 394 387 398
3 384 396 397
3 390 397 402
3 399 391 404
3 394 398 407
3 390 402 409
3 390 410 403
3 404 391 412
3 414 391 405
3 407 398 411
3 390 409 417
3 403 410 418
3 390 417 410
3 412 391 414
3 414 405 421
3 407 411 423
3 403 418 426
3 403 428 419
3 421 405 431
3 433 405 422
3 423 411 429
3 403 426 428
3 419 428 436
3 431 405 438
3 438 405 433
3 433 422 440
3 423 429 441
3 419 436 444
3 419 445 437
3 440 422 444
3 441 429 449
3 419 444 422
3 437 445 451
3 419 422 445
3 437 451 446
3 441 449 453
3 446 451 455
3 453 449 456
3 446 455 454
3 453 456 457
3 454 455 458
3 457 456 459
3 365 367 364
3 364 369 366
3 369 364 367
3 367 365 370
3 366 371 368
3 371 366 369
3 372 370 365
3 373 368 371
3 370 372 375
3 368 373 374
3 377 375 372
3 373 378 374
3 375 377 376
3 378 373 380
3 377 379 376
3 380 382 378
3 379 377 381
3 382 380 384
3 381 383 379
3 384 387 382
3 383 381 386
3 387 384 390
3 386 391 383
3 388 393 385
3 385 395 389
3 390 398 387
3 391 386 394
3 392 400 388
3 395 385 393
3 393 388 400
3 401 389 395
3 389 401 396
3 398 390 403
3 394 405 391
3 399 406 392
3 400 392 406
3 408 396 401
3 396 408 397
3 408 402 397
3 403 411 398
3 413 399 404
3 405 394 407
3 406 399 415
3 402 408 416
3 416 409 402
3 411 403 419
3 420 404 412
3 399 413 415
3 404 420 413
3 407 422 405
3 409 416 424
3 424 417 409
3 425 418 410
3 427 410 417
3 419 429 411
3 430 412 414
3 412 430 420
3 432 414 421
3 422 407 423
3 417 424 427
3 418 425 434
3 410 427 425
3 418 435 426
3 429 419 437
3 414 432 430
3 439 421 431
3 421 439 432
3 441 422 423
3 435 418 434
3 442 426 435
3 426 442 428
3 428 443 436
3 446 429 437
3 447 431 438
3 431 447 439
3 433 447 438
3 440 448 433
3 422 441 445
3 443 428 442
3 450 436 443
3 436 450 444
3 429 446 449
3 447 433 448
3 444 452 440
3 448 440 452
3 453 445 441
3 452 444 450
3 445 453 451
3 454 449 446
3 457 451 453
3 449 454 456
3 451 457 455
3 458 456 454
3 459 455 457
3 456 458 459
3 455 459 458
3 367 369 370
3 371 375 369
3 375 370 369
3 373 376 371
3 376 375 371
3 379 376 373
3 380 379 373
3 383 379 380
3 385 383 380
3 380 384 385
3 388 383 385
3 389 385 384
3 392 383 388
3 396 389 384
3 390 397 384
3 391 383 399
3 399 383 392
3 397 396 384
3 402 397 390
3 404 391 399
3 409 402 390
3 403 410 390
3 412 391 404
3 405 391 414
3 417 409 390
3 418 410 403
3 410 417 390
3 414 391 412
3 421 405 414
3 426 418 403
3 419 428 403
3 431 405 421
3 422 405 433
3 428 426 403
3 436 428 419
3 438 405 431
3 433 405 438
3 440 422 433
3 444 436 419
3 437 445 419
3 444 422 440
3 422 444 419
3 451 445 437
3 445 422 419
3 446 451 437
3 455 451 446
3 454 455 446
3 458 455 454
3 460 461 462
3 464 462 461
3 468 464 461
3 470 464 468
3 473 470 468
3 474 470 473
3 477 474 473
3 478 474 477
3 482 478 477
3 483 478 482
3 490 483 482
3 494 483 490
3 503 494 490
3 507 494 503
3 519 507 503
3 525 507 519
3 537 525 519
3 545 525 537
3 549 545 537
3 552 545 549
3 553 552 549
3 555 552 553
3 460 463 461
3 462 465 460
3 463 460 465
3 466 461 463
3 464 467 462
3 465 462 467
3 461 466 468
3 467 464 469
3 471 468 466
3 470 469 464
3 468 471 473
3 470 474 469
3 472 473 471
3 476 469 474
3 472 475 473
3 474 478 476
3 477 473 475
3 480 476 478
3 475 479 477
3 478 483 480
3 482 477 479
3 486 480 483
3 479 487 482
3 481 489 484
3 485 491 481
3 483 494 486
3 490 482 487
3 484 496 488
3 489 481 491
3 496 484 489
3 491 485 497
3 492 497 485
3 499 486 494
3 487 501 490
3 488 502 495
3 502 488 496
3 497 492 504
3 493 504 492
3 493 498 504
3 494 507 499
3 500 495 509
3 503 490 501
3 511 495 502
3 512 504 498
3 498 505 512
3 515 499 507
3 508 500 516
3 511 509 495
3 509 516 500
3 501 518 503
3 520 512 505
3 505 513 520
3 506 514 521
3 513 506 523
3 507 525 515
3 510 508 526
3 516 526 508
3 517 510 528
3 519 503 518
3 523 520 513
3 530 521 514
3 521 523 506
3 522 531 514
3 533 515 525
3 526 528 510
3 527 517 535
3 528 535 517
3 519 518 537
3 530 514 531
3 531 522 538
3 524 538 522
3 532 539 524
3 533 525 542
3 534 527 543
3 535 543 527
3 534 543 529
3 529 544 536
3 541 537 518
3 538 524 539
3 539 532 546
3 540 546 532
3 545 542 525
3 544 529 543
3 536 548 540
3 548 536 544
3 537 541 549
3 546 540 548
3 547 549 541
3 542 545 550
3 549 547 553
3 552 550 545
3 551 553 547
3 550 552 554
3 553 551 555
3 555 554 552
3 554 555 551
3 462 461 460
3 461 462 464
3 461 464 468
3 466 465 463
3 468 464 470
3 465 471 467
3 465 466 471
3 467 472 469
3 468 470 473
3 467 471 472
3 469 472 475
3 473 470 474
3 469 475 476
3 473 474 477
3 476 475 479
3 477 474 478
3 476 479 481
3 477 478 482
3 481 480 476
3 481 479 484
3 482 478 483
3 480 481 485
3 484 479 488
3 482 483 490
3 480 485 492
3 480 493 486
3 495 479 487
3 488 479 495
3 490 483 494
3 480 492 493
3 486 493 498
3 495 487 500
3 490 494 503
3 486 498 505
3 486 506 499
3 500 487 508
3 510 487 501
3 503 494 507
3 486 505 513
3 499 506 514
3 486 513 506
3 508 487 510
3 510 501 517
3 503 507 519
3 499 514 522
3 499 524 515
3 517 501 527
3 529 501 518
3 519 507 525
3 499 522 524
3 515 524 532
3 527 501 534
3 534 501 529
3 529 518 536
3 519 525 537
3 515 532 540
3 515 541 533
3 536 518 540
3 537 525 545
3 515 540 518
3 533 541 547
3 515 518 541
3 533 547 542
3 537 545 549
3 542 547 551
3 549 545 552
3 542 551 550
3 549 552 553
3 550 551 554
3 553 552 555
3 461 463 460
3 460 465 462
3 465 460 463
3 463 461 466
3 462 467 464
3 467 462 465
3 468 466 461
3 469 464 467
3 466 468 471
3 464 469 470
3 473 471 468
3 469 474 470
3 471 473 472
3 474 469 476
3 473 475 472
3 476 478 474
3 475 473 477
3 478 476 480
3 477 479 475
3 480 483 478
3 479 477 482
3 483 480 486
3 482 487 479
3 484 489 481
3 481 491 485
3 486 494 483
3 487 482 490
3 488 496 484
3 491 481 489
3 489 484 496
3 497 485 491
3 485 497 492
3 494 486 499
3 490 501 487
3 495 502 488
3 496 488 502
3 504 492 497
3 492 504 493
3 504 498 493
3 499 507 494
3 509 495 500
3 501 490 503
3 502 495 511
3 498 504 512
3 512 505 498
3 507 499 515
3 516 500 508
3 495 509 511
3 500 516 509
3 503 518 501
3 505 512 520
3 520 513 505
3 521 514 506
3 523 506 513
3 515 525 507
3 526 508 510
3 508 526 516
3 528 510 517
3 518 503 519
3 513 520 523
3 514 521 530
3 506 523 521
3 514 531 522
3 525 515 533
3 510 528 526
3 535 517 527
3 517 535 528
3 537 518 519
3 531 514 530
3 538 522 531
3 522 538 524
3 524 539 532
3 542 525 533
3 543 527 534
3 527 543 535
3 529 543 534
3 536 544 529
3 518 537 541
3 539 524 538
3 546 532 539
3 532 546 540
3 525 542 545
3 543 529 544
3 540 548 536
3 544 536 548
3 549 541 537
3 548 540 546
3 541 549 547
3 550 545 542
3 553 547 549
3 545 550 552
3 547 553 551
3 554 552 550
3 555 551 553
3 552 554 555
3 551 555 554
3 463 465 466
3 467 471 465
3 471 466 465
3 469 472 467
3 472 471 467
3 475 472 469
3 476 475 469
3 479 475 476
3 481 479 476
3 476 480 481
3 484 479 481
3 485 481 480
3 488 479 484
3 492 485 480
3 486 493 480
3 487 479 495
3 495 479 488
3 493 492 480
3 498 493 486
3 500 487 495
3 505 498 486
3 499 506 486
3 508 487 500
3 501 487 510
3 513 505 486
3 514 506 499
3 506 513 486
3 510 487 508
3 517 501 510
3 522 514 499
3 515 524 499
3 527 501 517
3 518 501 529
3 524 522 499
3 532 524 515
3 534 501 527
3 529 501 534
3 536 518 529
3 540 532 515
3 533 541 515
3 540 518 536
3 518 540 515
3 547 541 533
3 541 518 515
3 542 547 533
3 551 547 542
3 550 551 542
3 554 551 550
