ply
format ascii 1.0
comment Generated by PyMesh
element vertex 145
property double x
property double y
property double z
element face 524
property list uchar int vertex_indices
end_header
-0.127089 0.110551 0.410039
-0.0833696 0.110551 0.358736
-0.0989158 0.110551 0.429967
-0.15134 0.110551 0.385488
-0.0892082 0.0230821 0.385488
-0.127089 -0.110551 0.410039
-0.17092 0.110551 0.357072
-0.0833696 -0.0206527 0.358736
-0.0989158 0.0230821 0.429967
-0.15134 -0.110551 0.385488
-0.0704827 0.110551 0.286977
-0.0892082 -0.0206527 0.385488
-0.0704827 -0.0206527 0.286977
0.0989158 0.0230821 0.429967
-0.0989158 -0.110551 0.429967
-0.17092 -0.110551 0.357072
-0.166807 0.110551 -0.383798
-0.0704827 -0.0133635 0.286977
-0.0723476 -0.0206527 0.368894
-0.0539972 -0.0206527 0.353965
0.06769 0.0230821 0.444658
0.127089 0.0230821 0.410039
-0.06769 0.0230821 0.444658
-0.0602718 0.110551 0.214788
-0.0602718 -0.0133635 0.214788
-0.0723476 0.0230821 0.368894
0.17092 -0.0133635 0.286977
-0.0343196 -0.0206527 0.340834
0.06769 -0.110551 0.444658
0.15134 0.0230821 0.385488
0.0989158 -0.110551 0.429967
-0.06769 -0.110551 0.444658
-0.166807 -0.110551 -0.383798
-0.0527512 0.110551 0.142269
0.17092 -0.0206527 0.286977
-0.0134906 -0.0206527 0.329618
-0.0539972 0.0230821 0.353965
0.0343755 0.0230821 0.453658
0.0343755 -0.110551 0.453658
0.15134 -0.110551 0.385488
0.127089 -0.110551 0.410039
-0.0343755 0.0230821 0.453658
-0.1437 -0.110551 -0.405199
-0.0479316 0.110551 0.0695213
-0.0527512 -0.0133635 0.142269
0.17092 -0.0133635 -0.294139
0.17092 0.0230821 0.357072
0.17092 -0.0206527 -0.294139
0.101152 -0.0206527 0.305128
0.00830388 -0.0206527 0.320418
-0.0343196 0.0230821 0.340834
0.17092 -0.110551 0.357072
-0.0343755 -0.110551 0.453658
-0.1437 0.110551 -0.405199
-0.0458195 0.110551 -0.00335591
-0.0479316 -0.0133635 0.0695213
0.17092 -0.0206527 -0.351601
0.124746 -0.0206527 0.306854
0.0775009 -0.0206527 0.305636
0.0308688 -0.0206527 0.313315
-0.0134906 0.0230821 0.329618
0.17092 0.0230821 0.316927
-3.561e-09 0.0230821 0.456689
-3.561e-09 -0.110551 0.456689
-0.117908 -0.110551 -0.423273
-0.0899055 0.110551 -0.437689
-0.0464174 0.110551 -0.0762613
-0.0458195 -0.0133635 -0.00335591
-0.0644481 -0.0133635 -0.294139
0.17092 -0.0206527 0.316927
0.149172 -0.0206527 -0.346877
0.148071 -0.0206527 0.310799
0.101152 0.0230821 0.305128
0.0540034 -0.0206527 0.308373
0.0775009 0.0230821 0.305636
0.00830388 0.0230821 0.320418
-0.117908 0.110551 -0.423273
-0.0758424 0.110551 -0.36615
-0.0497253 0.110551 -0.149094
-0.0464174 -0.0133635 -0.0762613
-0.0644481 -0.0206527 -0.294139
-0.0557384 -0.0133635 -0.221753
0.17092 -0.0332289 0.262078
0.127134 -0.0206527 -0.343774
0.17092 0.0279414 -0.351601
0.124746 0.0230821 0.306854
0.0540034 0.0230821 0.308373
0.0308688 0.0230821 0.313315
-0.0899055 -0.110551 -0.437689
-0.0644481 0.110551 -0.294139
-0.0899055 0.0279414 -0.437689
-0.0557384 0.110551 -0.221753
-0.0497253 -0.0133635 -0.149094
-0.0758424 -0.0206527 -0.36615
0.148071 0.0230821 0.310799
0.17092 -0.0435478 0.20676
0.17092 -0.0332289 -0.296753
0.104927 -0.0206527 -0.342307
0.149172 0.0279414 -0.346877
0.17092 0.0279414 -0.383798
-0.0827248 0.0279414 -0.401161
0.0385064 -0.0206527 -0.347766
0.17092 -0.0515917 0.151066
0.17092 -0.0435478 -0.241435
0.17092 -0.110551 -0.383798
0.0826723 -0.0206527 -0.342486
0.127134 0.0279414 -0.343774
0.0385064 0.0279414 -0.347766
0.0168367 0.0279414 -0.352839
-0.0602091 -0.110551 -0.448179
-0.0827248 -0.0206527 -0.401161
0.147813 0.0279414 -0.405199
0.0168367 -0.0206527 -0.352839
0.0604916 -0.0206527 -0.344309
0.104927 0.0279414 -0.342307
0.0604916 0.0279414 -0.344309
-0.00439857 0.0279414 -0.359499
-0.0602091 0.0279414 -0.448179
-0.0643544 0.0279414 -0.388599
0.12202 0.0279414 -0.423273
-0.0643544 -0.0206527 -0.388599
-0.00439857 -0.0206527 -0.359499
0.17092 -0.0573472 0.0950887
0.17092 -0.0515917 -0.185741
0.0826723 0.0279414 -0.342486
0.147813 -0.110551 -0.405199
-0.0250837 0.0279414 -0.36771
-0.0293657 -0.110551 -0.454552
0.0940183 0.0279414 -0.437689
-0.0451055 -0.0206527 -0.377428
-0.0250837 -0.0206527 -0.36771
0.17092 -0.0608042 0.038923
0.17092 -0.0573472 -0.129763
-0.0451055 0.0279414 -0.377428
-0.0293657 0.0279414 -0.454552
0.0643219 0.0279414 -0.448179
0.12202 -0.110551 -0.423273
0.17092 -0.0608042 -0.0735977
0.17092 -0.0619575 -0.0173374
0.00205661 -0.110551 -0.456689
0.0940183 -0.110551 -0.437689
0.00205661 0.0279414 -0.456689
0.0334789 0.0279414 -0.454552
0.0643219 -0.110551 -0.448179
0.0334789 -0.110551 -0.454552
3 0 1 2
3 1 0 3
3 1 3 6
3 2 4 8
3 1 6 10
3 13 8 4
3 10 6 16
3 7 18 11
3 19 7 12
3 20 8 13
3 13 4 21
3 15 16 6
3 10 16 23
3 18 7 19
3 26 12 17
3 17 12 26
3 19 12 27
3 20 22 8
3 21 4 29
3 16 15 32
3 23 16 33
3 24 26 17
3 29 4 25
3 12 26 34
3 34 26 12
3 27 12 35
3 37 22 20
3 33 16 43
3 26 24 45
3 29 25 46
3 26 47 34
3 34 48 12
3 35 12 49
3 37 41 22
3 43 16 54
3 45 24 44
3 47 26 45
3 46 25 36
3 56 34 47
3 34 57 48
3 58 12 48
3 49 12 59
3 61 36 50
3 41 37 62
3 65 16 53
3 54 16 66
3 45 44 55
3 68 47 45
3 45 47 68
3 46 36 61
3 69 51 46
3 56 69 34
3 47 70 56
3 34 71 57
3 73 12 58
3 59 12 73
3 61 50 60
3 77 16 65
3 65 53 76
3 66 16 78
3 45 55 67
3 47 68 80
3 80 68 47
3 45 81 68
3 69 46 61
3 82 51 69
3 56 82 69
3 71 34 69
3 70 47 83
3 61 60 75
3 89 16 77
3 78 16 91
3 45 67 79
3 93 47 80
3 45 92 81
3 95 51 82
3 96 82 56
3 83 47 97
3 99 56 84
3 85 74 72
3 85 86 74
3 61 75 87
3 91 16 89
3 45 79 92
3 47 93 101
3 61 87 94
3 102 51 95
3 103 95 82
3 103 82 96
3 56 104 96
3 47 105 97
3 98 107 84
3 104 56 99
3 84 108 99
3 94 86 85
3 94 87 86
3 111 100 90
3 101 93 112
3 47 101 113
3 51 102 104
3 103 102 95
3 96 104 103
3 47 113 105
3 106 115 98
3 98 115 107
3 84 107 108
3 99 108 116
3 111 118 100
3 111 90 119
3 120 93 110
3 112 93 121
3 104 102 122
3 123 102 103
3 103 104 123
3 124 106 114
3 106 124 115
3 99 118 111
3 99 116 126
3 128 90 117
3 119 90 128
3 129 93 120
3 121 93 130
3 123 122 102
3 104 122 131
3 123 104 132
3 99 133 118
3 99 126 133
3 128 117 135
3 130 93 129
3 132 122 123
3 137 131 122
3 104 131 138
3 132 104 137
3 135 117 134
3 137 122 132
3 131 137 138
3 137 104 138
3 135 134 142
3 142 134 141
3 1 4 2
3 2 5 0
3 5 3 0
3 7 4 1
3 8 5 2
3 3 5 9
3 9 6 3
3 4 7 11
3 1 12 7
3 5 8 14
3 6 9 15
3 17 1 10
3 18 4 11
3 12 1 17
3 22 14 8
3 10 24 17
3 4 18 25
3 13 28 20
3 21 30 13
3 14 22 31
3 24 10 23
3 19 25 18
3 27 36 19
3 28 13 30
3 38 20 28
3 39 21 29
3 30 21 40
3 41 31 22
3 42 16 32
3 44 23 33
3 23 44 24
3 25 19 36
3 35 50 27
3 36 27 50
3 20 38 37
3 21 39 40
3 29 51 39
3 31 41 52
3 16 42 53
3 55 33 43
3 33 55 44
3 51 29 46
3 49 60 35
3 50 35 60
3 63 37 38
3 62 52 41
3 64 53 42
3 67 43 54
3 43 67 55
3 57 72 48
3 48 74 58
3 59 75 49
3 60 49 75
3 37 63 62
3 52 62 63
3 53 64 76
3 79 54 66
3 54 79 67
3 70 84 56
3 71 85 57
3 72 57 85
3 74 48 72
3 58 86 73
3 86 58 74
3 73 87 59
3 75 59 87
3 88 76 64
3 90 77 65
3 76 90 65
3 92 66 78
3 66 92 79
3 68 93 80
3 91 68 81
3 94 69 61
3 69 94 71
3 83 98 70
3 84 70 98
3 85 71 94
3 87 73 86
3 90 76 88
3 77 68 89
3 100 77 90
3 81 78 91
3 78 81 92
3 93 68 77
3 68 91 89
3 97 106 83
3 98 83 106
3 109 90 88
3 110 77 100
3 77 110 93
3 105 114 97
3 106 97 114
3 111 104 99
3 90 109 117
3 118 110 100
3 112 107 101
3 101 115 113
3 113 124 105
3 114 105 124
3 115 101 107
3 107 112 108
3 104 111 125
3 108 121 116
3 127 117 109
3 110 118 120
3 119 125 111
3 121 108 112
3 124 113 115
3 130 116 121
3 116 130 126
3 117 127 134
3 133 120 118
3 128 136 119
3 125 119 136
3 120 133 129
3 129 126 130
3 126 129 133
3 139 134 127
3 135 140 128
3 136 128 140
3 134 139 141
3 140 135 143
3 144 141 139
3 142 143 135
3 141 144 142
3 143 142 144
3 2 1 0
3 3 0 1
3 6 3 1
3 8 4 2
3 10 6 1
3 4 8 13
3 16 6 10
3 11 18 7
3 12 7 19
3 13 8 20
3 21 4 13
3 6 16 15
3 23 16 10
3 19 7 18
3 27 12 19
3 8 22 20
3 29 4 21
3 32 15 16
3 33 16 23
3 25 4 29
3 35 12 27
3 20 22 37
3 43 16 33
3 46 25 29
3 34 47 26
3 12 48 34
3 49 12 35
3 22 41 37
3 54 16 43
3 45 26 47
3 36 25 46
3 47 34 56
3 48 57 34
3 48 12 58
3 59 12 49
3 50 36 61
3 62 37 41
3 53 16 65
3 66 16 54
3 61 36 46
3 46 51 69
3 34 69 56
3 56 70 47
3 57 71 34
3 58 12 73
3 73 12 59
3 60 50 61
3 65 16 77
3 76 53 65
3 78 16 66
3 61 46 69
3 69 51 82
3 69 82 56
3 69 34 71
3 83 47 70
3 75 60 61
3 77 16 89
3 91 16 78
3 80 47 93
3 82 51 95
3 56 82 96
3 97 47 83
3 84 56 99
3 72 74 85
3 74 86 85
3 87 75 61
3 89 16 91
3 101 93 47
3 94 87 61
3 95 51 102
3 82 95 103
3 96 82 103
3 96 104 56
3 97 105 47
3 84 107 98
3 99 56 104
3 99 108 84
3 85 86 94
3 86 87 94
3 90 100 111
3 112 93 101
3 113 101 47
3 104 102 51
3 95 102 103
3 103 104 96
3 105 113 47
3 98 115 106
3 107 115 98
3 108 107 84
3 116 108 99
3 100 118 111
3 119 90 111
3 110 93 120
3 121 93 112
3 122 102 104
3 103 102 123
3 123 104 103
3 114 106 124
3 115 124 106
3 111 118 99
3 126 116 99
3 117 90 128
3 128 90 119
3 120 93 129
3 130 93 121
3 102 122 123
3 131 122 104
3 132 104 123
3 118 133 99
3 133 126 99
3 135 117 128
3 129 93 130
3 123 122 132
3 122 131 137
3 138 131 104
3 137 104 132
3 134 117 135
3 132 122 137
3 138 137 131
3 138 104 137
3 142 134 135
3 141 134 142
3 2 4 1
3 0 5 2
3 0 3 5
3 1 4 7
3 2 5 8
3 9 5 3
3 3 6 9
3 11 7 4
3 7 12 1
3 14 8 5
3 15 9 6
3 10 1 17
3 11 4 18
3 17 1 12
3 8 14 22
3 17 24 10
3 25 18 4
3 20 28 13
3 13 30 21
3 31 22 14
3 23 10 24
3 18 25 19
3 19 36 27
3 30 13 28
3 28 20 38
3 29 21 39
3 40 21 30
3 22 31 41
3 32 16 42
3 33 23 44
3 24 44 23
3 36 19 25
3 27 50 35
3 50 27 36
3 37 38 20
3 40 39 21
3 39 51 29
3 52 41 31
3 53 42 16
3 43 33 55
3 44 55 33
3 46 29 51
3 35 60 49
3 60 35 50
3 38 37 63
3 41 52 62
3 42 53 64
3 54 43 67
3 55 67 43
3 48 72 57
3 58 74 48
3 49 75 59
3 75 49 60
3 62 63 37
3 63 62 52
3 76 64 53
3 66 54 79
3 67 79 54
3 56 84 70
3 57 85 71
3 85 57 72
3 72 48 74
3 73 86 58
3 74 58 86
3 59 87 73
3 87 59 75
3 64 76 88
3 65 77 90
3 65 90 76
3 78 66 92
3 79 92 66
3 80 93 68
3 81 68 91
3 61 69 94
3 71 94 69
3 70 98 83
3 98 70 84
3 94 71 85
3 86 73 87
3 88 76 90
3 89 68 77
3 90 77 100
3 91 78 81
3 92 81 78
3 77 68 93
3 89 91 68
3 83 106 97
3 106 83 98
3 88 90 109
3 100 77 110
3 93 110 77
3 97 114 105
3 114 97 106
3 99 104 111
3 117 109 90
3 100 110 118
3 101 107 112
3 113 115 101
3 105 124 113
3 124 105 114
3 107 101 115
3 108 112 107
3 125 111 104
3 116 121 108
3 109 117 127
3 120 118 110
3 111 125 119
3 112 108 121
3 115 113 124
3 121 116 130
3 126 130 116
3 134 127 117
3 118 120 133
3 119 136 128
3 136 119 125
3 129 133 120
3 130 126 129
3 133 129 126
3 127 134 139
3 128 140 135
3 140 128 136
3 141 139 134
3 143 135 140
3 139 141 144
3 135 143 142
3 142 144 141
3 144 142 143
3 17 26 24
3 45 24 26
3 44 24 45
3 55 44 45
3 67 55 45
3 68 81 45
3 79 67 45
3 81 92 45
3 92 79 45
