ply
format ascii 1.0
comment Generated by PyMesh
element vertex 473
property double x
property double y
property double z
element face 1914
property list uchar int vertex_indices
end_header
-0.0167988 -0.0551497 -0.39947
0.00364328 -0.0528938 -0.421332
0.00364328 -0.0528938 -0.39947
-0.0167988 -0.0551497 -0.421332
0.0240848 -0.0551497 -0.39947
0.00364328 -0.0291031 -0.39947
-0.0363515 -0.0618183 -0.39947
0.00364328 -0.0291031 -0.421332
0.0240848 -0.0551497 -0.421332
-0.0225707 -0.0321552 -0.39947
-0.0363515 -0.0618183 -0.421332
-0.0225707 -0.0321552 -0.421332
0.0436376 -0.0618183 -0.39947
0.0298567 -0.0321552 -0.39947
-0.0541659 -0.07261 -0.39947
-0.0183951 -0.0556939 -0.421332
-0.047517 -0.0411638 -0.39947
0.0256817 -0.0556939 -0.421332
0.0436376 -0.0618183 -0.421332
-0.0541659 -0.07261 -0.421332
0.0298567 -0.0321552 -0.421332
0.0614519 -0.07261 -0.39947
0.0548026 -0.0411638 -0.39947
-0.0694663 -0.0870563 -0.39947
-0.047517 -0.0411638 -0.421332
-0.060265 -0.0494065 -0.39947
0.0614519 -0.07261 -0.421332
-0.0694663 -0.0870563 -0.421332
-0.060265 -0.0494065 -0.421332
0.0548026 -0.0411638 -0.421332
0.0767524 -0.0870563 -0.39947
0.0675511 -0.0494065 -0.39947
-0.0815889 -0.104528 -0.421332
-0.0699897 -0.0556939 -0.39947
-0.060265 -0.0494065 -0.412587
0.0675511 -0.0494065 -0.421332
0.0767524 -0.0870563 -0.421332
-0.0815889 -0.104528 -0.39947
-0.0699897 -0.0556939 -0.421332
-0.060265 -0.0256158 -0.421332
-0.060265 -0.0256158 -0.412587
0.0675511 -0.0494065 -0.412587
0.0888745 -0.104528 -0.421332
0.0772758 -0.0556939 -0.39947
-0.0900054 -0.124266 -0.421332
-0.0889027 -0.0750426 -0.421332
-0.0699897 -0.0256158 -0.421332
-0.0889027 -0.0750426 -0.39947
-0.0699897 -0.0556939 -0.412587
0.0675511 -0.0256158 -0.421332
0.0675511 -0.0256158 -0.412587
0.0888745 -0.104528 -0.39947
0.0772758 -0.0556939 -0.421332
-0.0900054 -0.124266 -0.39947
-0.0699897 -0.0256158 -0.412587
0.133453 -0.0256158 -0.437728
0.0772758 -0.0256158 -0.421332
0.0772758 -0.0556939 -0.412587
0.0772758 -0.0256158 -0.412587
0.0972915 -0.124266 -0.421332
0.0961883 -0.0750426 -0.421332
0.0961883 -0.0750426 -0.39947
-0.103341 -0.0982748 -0.421332
-0.135208 -0.0256158 -0.437728
-0.103341 -0.0982748 -0.39947
-0.0699897 -0.0256158 -0.0124794
0.0972915 -0.124266 -0.39947
-0.112607 -0.124266 -0.421332
0.133453 -0.0150311 -0.445798
-0.112607 -0.124266 -0.39947
0.110627 -0.0982743 -0.421332
0.110627 -0.0982743 -0.39947
-0.0699897 -0.0256158 -0.00373463
-0.135208 -0.0150311 -0.445798
0.133453 -0.0184788 0.44317
-0.060265 -0.0256158 -0.0124794
0.119893 -0.124266 -0.421332
0.119893 -0.124266 -0.39947
-0.060265 -0.0256158 0.412365
-0.060265 -0.0256158 -0.00373463
-0.0699897 -0.0556939 -0.0124794
-0.135208 -0.0150311 0.445798
0.133453 -0.00342689 -0.452582
0.133453 -0.0256158 0.437728
0.133453 -0.0150311 0.445798
0.0675511 -0.0256158 -0.0124794
-0.0699897 -0.0256158 0.412365
0.0675511 -0.0256158 -0.00373463
-0.0699897 -0.0556939 -0.00373463
-0.135208 -0.0256158 0.437728
-0.135208 -0.00342689 0.452583
-0.135208 -0.00342689 -0.452582
0.133453 -0.00342689 0.452583
0.0772758 -0.0256158 0.437728
0.0772758 -0.0256158 -0.0124794
-0.060265 -0.0494065 -0.0124794
-0.0699897 -0.0613019 -0.0124794
-0.0699897 -0.0256158 0.42111
-0.0699897 -0.0556939 0.412365
0.0772758 -0.0256158 -0.00373463
-0.0699897 -0.0613019 -0.00373463
-0.0699897 -0.0556939 -0.0190376
-0.047517 -0.0411638 -0.0190376
0.133453 0.00901263 -0.457974
0.133453 0.00901263 0.457974
0.0772758 -0.0256158 0.42111
0.0675511 -0.0556939 -0.0124794
-0.060265 -0.0494065 -0.00373463
-0.060265 -0.0256158 0.42111
-0.060265 -0.0494065 0.412365
0.0675511 -0.0256158 0.412365
0.0675511 -0.0556939 -0.00373463
0.0675511 -0.0494065 -0.0124794
-0.0699897 -0.0556939 0.00282406
-0.060265 -0.0494065 -0.0190376
-0.135208 0.00901213 0.457974
-0.135208 0.00901213 -0.457974
0.0772758 -0.0256158 0.412365
0.0772758 -0.0556939 -0.0124794
-0.060265 -0.0613019 -0.0124794
-0.0699897 -0.0556939 0.42111
-0.0694663 -0.0870563 0.42111
-0.060265 -0.0494065 0.399248
0.0772758 -0.0556939 -0.00373463
0.0675511 -0.0494065 -0.00373463
-0.060265 -0.0613019 -0.00373463
-0.0889027 -0.0750426 -0.0190376
-0.0694663 -0.0870563 -0.0190376
-0.060265 -0.0494065 0.00282406
-0.0541659 -0.07261 -0.0190376
0.133453 0.0220899 -0.461887
0.133453 0.0220899 0.461888
0.0675511 -0.0256158 0.42111
0.0772758 -0.0556939 0.412365
-0.0699897 -0.0556939 0.399248
-0.060265 -0.0494065 0.42111
-0.047517 -0.0411638 0.399248
-0.0889027 -0.0750426 0.00282406
-0.0815889 -0.104528 -0.0190376
-0.047517 -0.0411638 0.00282406
-0.0694663 -0.0870563 0.00282406
-0.0363515 -0.0618183 -0.0190376
-0.135208 0.0220899 0.461888
-0.135208 0.0220899 -0.461887
0.0675511 -0.0494065 0.412365
0.0767524 -0.0870563 0.42111
0.0772758 -0.0556939 0.42111
0.0772758 -0.0556939 0.00282406
0.0548026 -0.0411638 -0.0190376
-0.0699897 -0.0878104 0.42111
-0.0889027 -0.0750426 0.399248
-0.0541659 -0.0726105 0.42111
-0.0694663 -0.0870563 0.399248
-0.0541659 -0.0726105 0.399248
-0.103341 -0.0982748 -0.0190376
-0.0815889 -0.104528 0.00282406
-0.0900054 -0.124266 -0.0190376
-0.0541659 -0.07261 0.00282406
-0.0225707 -0.0321552 -0.0190376
0.133453 0.0355989 -0.46426
0.133453 0.026724 0.383074
0.0675511 -0.0494065 0.42111
0.0772758 -0.0556939 0.399248
0.0548026 -0.0411638 0.399248
0.0961883 -0.0750426 -0.0190376
0.0772758 -0.0556939 -0.0190376
-0.0815889 -0.104528 0.42111
-0.0699897 -0.0878104 0.399248
-0.0889027 -0.0750426 0.42111
-0.0815889 -0.104528 0.399248
-0.047517 -0.0411638 0.42111
-0.0363515 -0.0618183 0.399248
-0.103341 -0.0982748 0.00282406
-0.0900054 -0.124266 0.00282406
-0.0363515 -0.0618183 0.00282406
-0.0225707 -0.0321552 0.00282406
-0.0167988 -0.0551497 -0.0190376
0.133453 0.0355989 0.46426
-0.135208 0.0355989 0.46426
-0.135208 0.0355989 -0.46426
0.133453 0.026724 -0.378701
0.0888745 -0.104528 0.42111
0.0675511 -0.078369 0.42111
0.0961883 -0.0750426 0.399248
0.0660394 -0.0484291 0.399248
0.0961883 -0.0750426 0.00282406
0.0675511 -0.0494065 0.00282406
0.0675511 -0.0494065 -0.0190376
-0.103341 -0.0982748 0.399248
-0.0900054 -0.124266 0.399248
-0.0225707 -0.0321552 0.399248
-0.0363515 -0.0618183 0.42111
-0.112607 -0.124266 -0.0190376
0.00364328 -0.0291031 -0.0190376
0.133453 0.0493253 -0.465055
0.133453 0.117312 -0.378701
0.133299 0.0279559 0.383074
0.133453 0.117129 0.383074
0.0961883 -0.0750426 0.42111
0.0888745 -0.104528 0.399248
0.0614519 -0.07261 0.42111
0.0675511 -0.078369 0.399248
0.0675511 -0.0494065 0.399248
0.0548026 -0.0411638 0.42111
0.0614519 -0.07261 0.399248
0.0888745 -0.104528 0.00282406
0.110627 -0.0982743 -0.0190376
0.0888745 -0.104528 -0.0190376
0.0548026 -0.0411638 0.00282406
0.0767524 -0.0870563 0.00282406
0.0767524 -0.0870563 -0.0190376
0.0614519 -0.07261 -0.0190376
-0.0900054 -0.124266 0.42111
-0.103341 -0.0982748 0.42111
-0.0225707 -0.0321552 0.42111
-0.0183951 -0.0556939 0.399248
-0.112607 -0.124266 0.00282406
-0.0167988 -0.0551497 0.00282406
0.00364328 -0.0291031 0.00282406
0.00364328 -0.0528938 -0.0190376
0.133453 0.0493253 0.465055
-0.135208 0.0493253 0.465055
-0.135208 0.0493253 -0.465055
0.133299 0.0279559 -0.378701
0.0972915 -0.124266 0.42111
0.0767524 -0.0870563 0.399248
0.0972915 -0.124266 0.399248
0.110627 -0.0982743 0.399248
0.0298567 -0.0321552 0.399248
0.0436376 -0.0618183 0.399248
0.0972915 -0.124266 0.00282406
0.110627 -0.0982743 0.00282406
0.0972915 -0.124266 -0.0190376
0.0298567 -0.0321552 -0.0190376
0.0614519 -0.07261 0.00282406
0.0436376 -0.0618183 -0.0190376
-0.112607 -0.124266 0.399248
0.00364328 -0.0291031 0.399248
-0.0183951 -0.0556939 0.42111
-0.0167988 -0.0551497 0.399248
0.0298567 -0.0321552 0.00282406
0.0240848 -0.0551497 -0.0190376
0.133453 0.0630517 -0.46426
0.133453 0.11875 -0.378701
0.128933 0.026724 -0.378701
0.132848 0.0291031 0.383074
0.133453 0.0630517 0.46426
0.110627 -0.0982743 0.42111
0.0436376 -0.0618183 0.42111
0.0298567 -0.0321552 0.42111
0.119893 -0.124266 -0.0190376
0.0436376 -0.0618183 0.00282406
-0.112607 -0.124266 0.42111
0.00364328 -0.0291031 0.42111
-0.0167988 -0.0551497 0.42111
0.00364328 -0.0528938 0.00282406
0.0240848 -0.0551497 0.00282406
-0.135208 0.0630517 0.46426
-0.135208 0.0630517 -0.46426
0.133453 0.0765608 -0.461887
0.133453 0.118273 -0.378656
0.133453 0.121141 -0.440111
0.132848 0.0291031 -0.378701
0.133299 0.0254925 -0.378701
0.132129 0.0300885 0.383074
0.133453 0.0765608 0.461888
0.119893 -0.124266 0.42111
0.119893 -0.124266 0.399248
0.0256817 -0.0556939 0.399248
0.119893 -0.124266 0.00282406
0.00364328 -0.0528938 0.399248
0.133453 0.0896385 -0.457974
0.133453 0.113682 -0.445798
0.133706 0.119124 -0.378868
0.132129 0.0300885 -0.378701
0.132848 0.0243448 -0.378701
0.131194 0.030845 0.383074
0.133453 0.0896385 0.457974
0.0256817 -0.0556939 0.42111
0.00364328 -0.0528938 0.42111
0.0240848 -0.0551497 0.399248
-0.135208 0.0765608 0.461888
-0.135208 0.0765608 -0.461887
0.133453 0.102078 -0.452582
-0.135208 0.113682 -0.445798
0.134104 0.119888 -0.379283
-0.0810478 0.11875 -0.378701
0.131194 0.030845 -0.378701
0.132129 0.0233594 -0.378701
0.130103 0.0313204 0.383074
0.133453 0.102078 0.452583
0.0240848 -0.0551497 0.42111
-0.135208 0.0896385 -0.457974
-0.135208 0.102078 -0.452582
-0.135208 0.121141 -0.440111
0.134386 0.120652 -0.379771
-0.0862889 0.119229 -0.378747
0.130103 0.0313204 -0.378701
0.131194 0.0226034 -0.378701
-0.0810487 0.117129 0.383074
0.133453 0.113682 0.445798
-0.135208 0.0896385 0.457974
-0.135208 0.119617 0.441273
0.133217 0.121449 -0.43964
-0.135208 0.113682 0.445798
0.134543 0.121398 -0.380321
-0.0862889 0.120159 -0.378972
0.128933 0.0314823 -0.378701
-0.0862889 0.11875 -0.378701
0.130103 0.022128 -0.378701
0.128933 0.0314823 0.383074
0.13397 0.117853 0.383355
0.133453 0.119617 0.441273
-0.135208 0.102078 0.452583
-0.135089 0.120301 0.440688
-0.134975 0.12146 -0.439646
-0.0862889 0.12104 -0.379326
-0.0862889 0.124231 -0.378701
0.126673 0.0314823 -0.378701
-0.0810478 0.11875 -0.373692
0.124413 0.026724 -0.378701
0.128933 0.0219656 -0.378701
-0.0811062 0.0314823 0.383074
-0.0858487 0.117927 0.383275
0.133104 0.120083 0.440577
-0.134991 0.12094 0.440059
-0.134914 0.121532 0.439389
0.133022 0.121753 -0.439152
-0.0862889 0.121851 -0.3798
-0.0862889 0.120541 -0.379126
-0.0810478 0.0314823 -0.378701
-0.0811062 0.0314823 -0.378701
0.127763 0.0313204 -0.378701
-0.0854783 0.118731 0.383565
-0.0862889 0.11875 0.383074
-0.0810478 0.11875 -0.383498
-0.0812265 0.120178 0.39041
0.127763 0.022128 -0.378701
-0.0862889 0.117129 0.383074
0.134406 0.118595 0.383713
0.132816 0.120543 0.439856
-0.134859 0.122071 0.438682
-0.134783 0.121773 -0.439163
0.134574 0.122108 -0.380919
0.125737 0.0300885 -0.378701
0.126673 0.030845 -0.378701
-0.0851832 0.119525 0.383938
-0.0810478 0.11875 0.383074
-0.0812265 0.117322 -0.383498
0.126673 0.0226034 -0.378701
-0.0862889 0.113233 0.383074
0.134752 0.11934 0.38414
0.135004 0.120076 0.384629
0.13259 0.120994 0.439113
0.132428 0.121432 0.438355
-0.134632 0.12208 -0.438667
0.132869 0.122052 -0.438652
-0.0862889 0.122573 -0.380383
0.125019 0.0291031 -0.378701
-0.0849688 0.120297 0.384388
-0.0810478 0.11875 0.39041
-0.0812265 0.120178 -0.383498
0.125737 0.0233594 -0.378701
-0.0862889 0.0314823 0.383074
0.135157 0.120791 0.385172
0.13233 0.121858 0.437583
0.132759 0.122344 -0.43814
-0.0862889 0.123189 -0.381062
0.134476 0.122764 -0.381551
0.124567 0.0279559 -0.378701
-0.0848386 0.121034 0.384908
-0.0812265 0.117322 0.39041
-0.0817499 0.115991 -0.383498
-0.0817499 0.121508 0.39041
0.125019 0.0243448 -0.378701
0.135208 0.121472 0.385761
-0.134826 0.122558 0.437941
-0.134524 0.122378 -0.438158
-0.0862889 0.123684 -0.381819
-0.084795 0.121723 0.385488
-0.0817499 0.121508 -0.383498
-0.0817499 0.115991 0.39041
0.124567 0.0254925 -0.378701
0.132298 0.122267 0.436803
0.135157 0.122109 0.386383
0.132693 0.122629 -0.437621
-0.134459 0.122665 -0.43764
0.134253 0.123351 -0.382201
-0.0862889 0.124046 -0.382638
-0.0810478 0.026724 -0.378701
-0.0848386 0.122351 0.386119
-0.0825827 0.114848 -0.383498
-0.0825827 0.12265 0.39041
-0.0825827 0.114848 0.39041
-0.134815 0.122987 0.437171
0.132671 0.122903 -0.437097
0.133909 0.123856 -0.382856
-0.0862889 0.124231 -0.383358
-0.0849688 0.12291 0.386789
-0.0825827 0.122651 -0.383498
0.13233 0.122657 0.436019
0.135004 0.122688 0.38703
-0.134437 0.122941 -0.437116
-0.134826 0.123357 0.436377
0.132693 0.123166 -0.436569
0.133453 0.124266 -0.383498
-0.0862889 0.124266 0.389633
-0.0851832 0.123388 0.387488
-0.0836681 0.113972 -0.383498
-0.0836681 0.123527 -0.383498
-0.0836681 0.113972 0.39041
-0.134459 0.123203 -0.436588
0.132759 0.123417 -0.436042
0.132869 0.123653 -0.435519
-0.0862889 0.124266 -0.383498
-0.0858487 0.124072 0.388922
-0.0854783 0.123777 0.388203
-0.0836681 0.123527 0.39041
0.132428 0.123028 0.435234
0.134752 0.123202 0.387689
-0.134859 0.123667 0.435561
-0.134524 0.12345 -0.43606
0.133022 0.123874 -0.435002
0.133453 0.124266 -0.38526
-0.0862889 0.124231 -0.383498
-0.135208 0.124266 -0.433996
-0.0849322 0.124078 -0.383498
-0.0876451 0.124078 -0.383498
0.13397 0.123998 0.389002
-0.0849322 0.113421 0.39041
-0.0849322 0.113421 -0.383498
-0.134632 0.123681 -0.435533
-0.134783 0.123895 -0.435013
0.133217 0.124079 -0.434493
0.133445 0.124263 -0.385165
-0.135208 0.124266 0.432177
-0.0849322 0.124078 0.39041
-0.0862889 0.113233 -0.383498
-0.0876451 0.124078 0.39041
-0.0876451 0.113421 -0.383498
0.133453 0.124266 0.389633
0.134406 0.123642 0.38835
0.13259 0.123375 0.434454
-0.134914 0.123913 0.434728
-0.134975 0.124091 -0.434499
0.133453 0.124266 -0.433996
0.133379 0.124266 -0.384379
-0.0862889 0.124266 0.39041
-0.0889092 0.123527 0.39041
-0.0889092 0.113972 -0.383498
0.133104 0.123997 0.432921
0.132816 0.123699 0.433681
-0.0862889 0.113233 0.39041
-0.134991 0.124096 0.433884
-0.135089 0.124214 0.433032
0.133453 0.124266 0.432177
-0.0876451 0.113421 0.39041
-0.0889092 0.123527 -0.383498
-0.0889092 0.113972 0.39041
-0.0899945 0.12265 0.39041
-0.0899945 0.114848 0.39041
-0.0899945 0.114848 -0.383498
-0.0899945 0.122651 -0.383498
-0.0908278 0.121508 -0.383498
-0.0908278 0.115991 0.39041
-0.0908278 0.115991 -0.383498
-0.0908278 0.121508 0.39041
-0.0913512 0.120178 -0.383498
-0.0913512 0.117322 -0.383498
-0.0913512 0.117322 0.39041
-0.0913512 0.120178 0.39041
-0.09153 0.11875 -0.383498
-0.09153 0.11875 0.39041
3 2 5 0
3 7 1 3
3 4 5 2
3 0 5 9
3 0 9 6
3 7 8 1
3 7 3 11
3 4 13 5
3 6 9 16
3 7 17 8
3 11 3 15
3 12 13 4
3 6 16 14
3 11 15 10
3 20 17 7
3 12 22 13
3 24 10 19
3 14 16 25
3 11 10 24
3 20 18 17
3 21 22 12
3 14 25 23
3 24 19 28
3 29 18 20
3 29 26 18
3 21 31 22
3 28 19 27
3 23 25 33
3 35 26 29
3 30 31 21
3 32 38 27
3 28 27 39
3 23 33 37
3 34 28 40
3 26 35 36
3 30 43 31
3 38 32 45
3 46 27 38
3 39 27 46
3 39 40 28
3 37 33 47
3 48 33 34
3 34 40 48
3 49 36 35
3 41 50 35
3 52 42 36
3 51 43 30
3 45 32 44
3 46 38 54
3 37 47 53
3 38 33 48
3 54 48 40
3 56 36 49
3 49 35 50
3 57 41 43
3 50 41 58
3 60 42 52
3 52 36 56
3 51 61 43
3 45 44 62
3 48 54 38
3 53 47 64
3 57 58 41
3 60 59 42
3 56 58 52
3 66 61 51
3 62 44 67
3 53 64 69
3 57 52 58
3 70 59 60
3 66 71 61
3 59 70 76
3 71 66 77
3 65 80 72
3 65 75 80
3 72 88 79
3 88 72 80
3 75 79 95
3 80 75 96
3 86 78 98
3 88 100 79
3 101 88 80
3 85 94 106
3 107 95 79
3 75 95 96
3 86 98 97
3 109 98 78
3 87 111 99
3 79 100 107
3 85 112 87
3 101 113 88
3 80 114 101
3 99 118 94
3 118 106 94
3 112 85 106
3 119 96 95
3 120 97 98
3 78 108 109
3 121 108 97
3 122 98 109
3 123 99 111
3 124 111 87
3 125 107 100
3 124 87 112
3 101 114 127
3 114 102 129
3 117 105 133
3 118 99 123
3 121 97 120
3 134 120 98
3 135 109 108
3 121 135 108
3 98 122 134
3 109 136 122
3 126 101 138
3 127 114 129
3 138 101 127
3 140 128 113
3 129 102 141
3 110 117 144
3 145 105 132
3 146 133 105
3 133 144 117
3 147 118 123
3 121 120 149
3 135 136 109
3 110 144 132
3 151 135 121
3 134 122 152
3 122 136 153
3 155 113 137
3 156 126 138
3 157 139 128
3 157 128 140
3 140 113 155
3 102 158 141
3 145 146 105
3 145 132 161
3 146 162 133
3 133 163 144
3 120 166 149
3 150 134 169
3 136 135 170
3 161 132 144
3 151 170 135
3 152 122 153
3 167 134 152
3 153 136 171
3 154 126 156
3 155 137 173
3 174 139 157
3 141 158 176
3 181 146 145
3 145 161 182
3 162 184 133
3 144 163 161
3 184 163 133
3 166 120 168
3 169 134 167
3 189 150 169
3 170 190 136
3 191 170 151
3 136 190 171
3 173 137 172
3 192 154 156
3 174 175 139
3 158 193 176
3 181 198 146
3 161 200 182
3 162 183 199
3 202 184 162
3 203 161 163
3 163 184 204
3 205 185 147
3 165 164 207
3 209 147 186
3 187 165 210
3 148 187 211
3 166 168 212
3 188 150 189
3 190 170 214
3 191 214 170
3 171 190 215
3 173 172 216
3 217 175 174
3 176 193 219
3 224 198 181
3 200 161 203
3 199 183 226
3 225 162 199
3 184 202 204
3 202 162 225
3 163 228 203
3 229 163 204
3 230 185 205
3 205 147 209
3 164 206 232
3 207 164 232
3 210 165 207
3 234 186 208
3 209 186 234
3 211 187 210
3 235 148 211
3 212 168 213
3 236 188 189
3 214 237 190
3 238 214 191
3 215 190 239
3 217 218 175
3 219 193 241
3 224 247 198
3 200 203 248
3 201 202 225
3 204 202 201
3 183 227 226
3 249 203 228
3 228 163 229
3 230 231 185
3 250 232 206
3 233 148 235
3 234 208 251
3 212 213 252
3 237 214 253
3 190 237 239
3 254 214 238
3 255 218 217
3 256 240 218
3 193 233 241
3 247 224 266
3 248 203 249
3 267 226 227
3 228 237 249
3 268 228 229
3 231 230 269
3 251 208 240
3 241 233 235
3 254 253 214
3 253 249 237
3 239 237 270
3 256 218 255
3 251 240 256
3 248 249 278
3 237 228 268
3 279 253 254
3 278 249 253
3 270 237 280
3 280 237 268
3 291 253 279
3 278 253 291
3 0 1 2
3 1 0 3
3 1 4 2
3 6 3 0
3 4 1 8
3 3 6 10
3 8 12 4
3 7 9 5
3 14 10 6
3 3 10 15
3 9 7 11
3 12 8 18
3 13 7 5
3 10 14 19
3 11 16 9
3 18 8 17
3 18 21 12
3 7 13 20
3 23 19 14
3 16 11 24
3 21 18 26
3 22 20 13
3 19 23 27
3 24 25 16
3 26 30 21
3 20 22 29
3 23 32 27
3 34 24 28
3 25 24 33
3 30 26 36
3 31 29 22
3 32 23 37
3 33 24 34
3 29 41 35
3 42 30 36
3 29 31 43
3 37 44 32
3 29 43 41
3 30 42 51
3 44 37 53
3 45 33 38
3 33 45 47
3 59 51 42
3 62 47 45
3 43 60 57
3 51 59 66
3 57 60 52
3 60 43 61
3 47 62 64
3 61 70 60
3 67 64 62
3 64 67 69
3 70 61 71
3 71 76 70
3 76 71 77
3 88 102 80
3 113 102 88
3 80 102 114
3 126 113 101
3 128 102 113
3 113 126 137
3 102 128 139
3 148 123 118
3 150 120 134
3 154 137 126
3 129 140 127
3 140 138 127
3 139 158 102
3 141 157 129
3 147 164 118
3 148 147 123
3 148 118 165
3 167 121 149
3 120 150 168
3 121 153 151
3 137 154 172
3 155 156 138
3 140 129 157
3 138 140 155
3 158 139 175
3 157 141 174
3 146 183 162
3 164 147 185
3 118 164 165
3 148 186 147
3 148 165 187
3 169 149 166
3 121 167 152
3 149 169 167
3 188 168 150
3 153 121 152
3 171 151 153
3 192 172 154
3 156 155 173
3 175 193 158
3 176 174 141
3 145 199 181
3 201 145 182
3 183 146 198
3 185 206 164
3 186 148 208
3 166 189 169
3 168 188 213
3 151 171 191
3 172 192 216
3 193 175 218
3 174 176 217
3 199 145 225
3 226 181 199
3 204 182 200
3 145 201 225
3 182 204 201
3 198 227 183
3 206 185 231
3 233 208 148
3 189 166 212
3 236 213 188
3 215 191 171
3 240 193 218
3 219 217 176
3 181 226 224
3 200 229 204
3 227 198 247
3 205 232 230
3 209 207 205
3 231 250 206
3 232 205 207
3 207 209 210
3 208 233 240
3 211 209 234
3 209 211 210
3 234 235 211
3 213 236 252
3 191 215 238
3 239 238 215
3 193 240 233
3 256 219 241
3 217 219 255
3 229 200 248
3 247 267 227
3 250 231 269
3 235 234 251
3 238 239 254
3 219 256 255
3 241 251 256
3 267 247 266
3 248 268 229
3 251 241 235
3 270 254 239
3 268 248 278
3 254 270 279
3 291 270 280
3 278 280 268
3 270 291 279
3 280 278 291
3 0 5 2
3 3 1 7
3 2 5 4
3 9 5 0
3 6 9 0
3 1 8 7
3 11 3 7
3 5 13 4
3 16 9 6
3 8 17 7
3 15 3 11
3 4 13 12
3 14 16 6
3 10 15 11
3 7 17 20
3 13 22 12
3 19 10 24
3 25 16 14
3 24 10 11
3 17 18 20
3 12 22 21
3 23 25 14
3 28 19 24
3 20 18 29
3 18 26 29
3 22 31 21
3 27 19 28
3 33 25 23
3 29 26 35
3 21 31 30
3 27 38 32
3 39 27 28
3 37 33 23
3 40 28 34
3 36 35 26
3 31 43 30
3 45 32 38
3 38 27 46
3 46 27 39
3 28 40 39
3 47 33 37
3 34 33 48
3 48 40 34
3 35 36 49
3 35 50 41
3 36 42 52
3 30 43 51
3 44 32 45
3 54 38 46
3 39 55 46
3 46 55 39
3 40 49 39
3 39 49 40
3 53 47 37
3 48 33 38
3 40 48 54
3 49 36 56
3 50 35 49
3 43 41 57
3 58 41 50
3 52 42 60
3 56 36 52
3 43 61 51
3 62 44 45
3 38 54 48
3 63 54 46
3 46 54 63
3 49 55 39
3 39 55 49
3 63 46 55
3 55 46 63
3 40 50 49
3 49 50 40
3 64 47 53
3 50 40 54
3 54 40 50
3 56 55 49
3 49 55 56
3 41 58 57
3 65 58 50
3 50 58 65
3 42 59 60
3 52 58 56
3 51 61 66
3 67 44 62
3 63 65 54
3 54 65 63
3 69 64 53
3 54 65 50
3 50 65 54
3 58 55 56
3 56 55 58
3 58 52 57
3 65 55 58
3 58 55 65
3 60 59 70
3 61 71 66
3 63 72 65
3 65 72 63
3 74 55 68
3 68 55 74
3 75 55 65
3 65 55 75
3 76 70 59
3 77 66 71
3 63 78 72
3 72 78 63
3 65 79 72
3 72 79 65
3 72 80 65
3 63 81 73
3 73 81 63
3 55 74 83
3 83 74 55
3 74 68 84
3 84 68 74
3 85 55 75
3 75 55 85
3 79 65 75
3 75 65 79
3 80 75 65
3 63 86 78
3 78 86 63
3 72 78 87
3 87 78 72
3 79 88 72
3 87 79 72
3 72 79 87
3 80 72 88
3 81 63 89
3 89 63 81
3 73 81 90
3 90 81 73
3 92 68 82
3 82 68 92
3 74 93 83
3 83 93 74
3 55 93 83
3 83 93 55
3 84 68 92
3 92 68 84
3 94 55 85
3 85 55 94
3 79 85 75
3 75 85 79
3 95 79 75
3 96 75 80
3 63 97 86
3 86 97 63
3 78 97 86
3 86 97 78
3 98 78 86
3 78 99 87
3 87 99 78
3 79 100 88
3 79 87 85
3 85 87 79
3 88 96 80
3 80 96 88
3 80 88 101
3 89 97 63
3 63 97 89
3 73 90 91
3 91 90 73
3 92 82 104
3 104 82 92
3 93 55 105
3 105 55 93
3 99 55 94
3 94 55 99
3 99 85 94
3 94 85 99
3 106 94 85
3 79 95 107
3 96 95 75
3 97 98 86
3 97 78 108
3 108 78 97
3 78 98 109
3 110 99 78
3 78 99 110
3 85 99 87
3 87 99 85
3 99 111 87
3 107 100 79
3 96 88 100
3 100 88 96
3 87 112 85
3 88 113 101
3 101 114 80
3 89 108 97
3 97 108 89
3 105 89 93
3 93 89 105
3 91 90 115
3 115 90 91
3 104 82 103
3 103 82 104
3 105 55 117
3 117 55 105
3 110 55 99
3 99 55 110
3 94 118 99
3 94 106 118
3 106 85 112
3 119 107 95
3 95 107 119
3 95 96 119
3 98 97 120
3 109 108 78
3 108 110 78
3 78 110 108
3 97 108 121
3 109 98 122
3 111 99 123
3 87 111 124
3 100 107 125
3 100 119 96
3 96 119 100
3 112 87 124
3 127 114 101
3 129 102 114
3 89 105 108
3 108 105 89
3 91 115 116
3 116 115 91
3 104 103 131
3 131 103 104
3 117 55 110
3 110 55 117
3 132 117 105
3 105 117 132
3 133 105 117
3 123 99 118
3 106 123 118
3 118 123 106
3 124 106 112
3 112 106 124
3 107 119 125
3 125 119 107
3 120 97 121
3 98 120 134
3 108 109 135
3 110 108 132
3 132 108 110
3 108 135 121
3 134 122 98
3 122 136 109
3 123 106 111
3 111 106 123
3 106 124 111
3 111 124 106
3 119 100 125
3 125 100 119
3 138 101 126
3 129 114 127
3 127 101 138
3 113 128 140
3 141 102 129
3 108 105 132
3 132 105 108
3 116 115 142
3 142 115 116
3 131 103 130
3 130 103 131
3 117 132 110
3 110 132 117
3 144 117 110
3 132 105 145
3 105 133 146
3 117 144 133
3 123 118 147
3 149 120 121
3 109 136 135
3 132 144 110
3 121 135 151
3 152 122 134
3 153 136 122
3 137 113 155
3 138 126 156
3 128 139 157
3 140 128 157
3 155 113 140
3 141 158 102
3 116 142 143
3 143 142 116
3 131 130 160
3 160 130 131
3 105 146 145
3 161 132 145
3 133 162 146
3 144 163 133
3 149 166 120
3 169 134 150
3 170 135 136
3 144 132 161
3 135 170 151
3 153 122 152
3 152 134 167
3 171 136 153
3 156 126 154
3 173 137 155
3 157 139 174
3 176 158 141
3 143 142 178
3 178 142 143
3 180 130 159
3 159 130 180
3 130 180 160
3 160 180 130
3 131 160 177
3 177 160 131
3 145 146 181
3 182 161 145
3 133 184 162
3 161 163 144
3 133 163 184
3 168 120 166
3 167 134 169
3 169 150 189
3 136 190 170
3 151 170 191
3 171 190 136
3 172 137 173
3 156 154 192
3 139 175 174
3 176 193 158
3 143 178 179
3 179 178 143
3 180 159 195
3 195 159 180
3 146 198 181
3 182 200 161
3 199 183 162
3 162 184 202
3 163 161 203
3 204 184 163
3 147 185 205
3 207 164 165
3 186 147 209
3 210 165 187
3 211 187 148
3 212 168 166
3 189 150 188
3 214 170 190
3 170 214 191
3 215 190 171
3 216 172 173
3 173 192 156
3 156 192 173
3 174 175 217
3 219 193 176
3 179 178 221
3 221 178 179
3 195 159 194
3 194 159 195
3 180 223 195
3 160 197 196
3 181 198 224
3 203 161 200
3 226 183 199
3 199 162 225
3 204 202 184
3 225 162 202
3 203 228 163
3 204 163 229
3 205 185 230
3 209 147 205
3 232 206 164
3 232 164 207
3 207 165 210
3 208 186 234
3 234 186 209
3 210 187 211
3 211 148 235
3 213 168 212
3 189 188 236
3 190 237 214
3 191 214 238
3 239 190 215
3 192 173 216
3 216 173 192
3 175 218 217
3 241 193 219
3 179 221 222
3 222 221 179
3 195 194 242
3 242 194 195
3 243 195 223
3 223 244 180
3 180 244 223
3 245 196 197
3 198 247 224
3 248 203 200
3 225 202 201
3 201 202 204
3 226 227 183
3 228 203 249
3 229 163 228
3 185 231 230
3 206 232 250
3 235 148 233
3 251 208 234
3 252 213 212
3 212 236 189
3 189 236 212
3 253 214 237
3 239 237 190
3 238 214 254
3 217 218 255
3 218 240 256
3 241 233 193
3 222 221 257
3 257 221 222
3 195 242 259
3 259 242 195
3 243 260 195
3 195 260 243
3 195 261 243
3 243 261 195
3 262 243 223
3 244 223 262
3 262 223 244
3 244 263 180
3 180 263 244
3 264 245 197
3 266 224 247
3 267 224 226
3 226 224 267
3 249 203 248
3 227 226 267
3 249 237 228
3 229 228 268
3 269 230 231
3 250 230 232
3 232 230 250
3 240 208 251
3 235 233 241
3 236 212 252
3 252 212 236
3 214 253 254
3 237 249 253
3 270 237 239
3 255 218 256
3 256 240 251
3 222 257 258
3 258 257 222
3 195 259 271
3 271 259 195
3 195 272 261
3 261 272 195
3 274 243 262
3 244 262 274
3 274 262 244
3 263 244 275
3 275 244 263
3 276 264 197
3 224 267 266
3 266 267 224
3 278 249 248
3 268 228 237
3 230 250 269
3 269 250 230
3 254 253 279
3 253 249 278
3 280 237 270
3 258 257 281
3 281 257 258
3 195 271 283
3 283 271 195
3 195 283 272
3 272 283 195
3 287 243 274
3 244 274 287
3 287 274 244
3 275 244 288
3 288 244 275
3 289 276 197
3 268 237 280
3 279 253 291
3 291 253 278
3 258 281 282
3 282 281 258
3 286 243 297
3 297 243 287
3 244 287 297
3 297 287 244
3 288 244 298
3 298 244 288
3 299 289 197
3 282 281 301
3 301 281 282
3 282 301 292
3 292 301 282
3 293 304 284
3 284 304 293
3 307 286 297
3 244 297 307
3 307 297 244
3 298 244 309
3 309 244 298
3 310 289 299
3 292 301 313
3 313 301 292
3 292 313 293
3 293 313 292
3 293 313 304
3 304 313 293
3 318 286 307
3 308 317 296
3 307 320 244
3 244 320 307
3 309 244 321
3 321 244 309
3 322 310 299
3 330 286 318
3 318 307 331
3 318 332 307
3 307 332 318
3 317 333 308
3 308 333 317
3 320 307 332
3 332 307 320
3 337 244 320
3 320 244 337
3 321 244 337
3 337 244 321
3 310 322 307
3 322 299 331
3 338 322 299
3 299 322 338
3 331 330 286
3 286 330 331
3 330 318 331
3 344 318 330
3 330 318 344
3 331 307 322
3 332 318 345
3 345 318 332
3 320 332 345
3 345 332 320
3 337 320 349
3 349 320 337
3 322 338 350
3 350 338 322
3 299 334 338
3 338 334 299
3 357 328 317
3 345 318 344
3 344 318 345
3 344 330 358
3 358 330 344
3 334 299 347
3 347 299 334
3 348 361 335
3 335 361 348
3 320 345 344
3 344 345 320
3 349 320 362
3 362 320 349
3 322 350 363
3 363 350 322
3 367 357 317
3 358 330 369
3 369 330 358
3 320 344 358
3 358 344 320
3 361 348 372
3 372 348 361
3 336 371 360
3 360 371 336
3 362 320 374
3 374 320 362
3 378 367 317
3 369 330 320
3 320 330 369
3 320 358 369
3 369 358 320
3 361 372 380
3 380 372 361
3 381 336 373
3 373 336 381
3 371 336 381
3 381 336 371
3 374 320 382
3 382 320 374
3 388 378 317
3 320 330 389
3 389 330 320
3 380 372 391
3 391 372 380
3 381 373 393
3 393 373 381
3 397 388 317
3 380 391 399
3 399 391 380
3 393 373 392
3 392 373 393
3 399 391 408
3 408 391 399
3 393 392 410
3 410 392 393
3 399 408 409
3 409 408 399
3 410 392 417
3 417 392 410
3 423 414 405
3 405 414 423
3 414 397 424
3 424 397 414
3 425 406 414
3 414 406 425
3 409 408 430
3 430 408 409
3 410 417 429
3 429 417 410
3 425 414 423
3 423 414 425
3 434 405 423
3 423 405 434
3 435 406 425
3 425 406 435
3 426 437 414
3 414 437 426
3 414 439 427
3 427 439 414
3 409 430 426
3 426 430 409
3 429 417 436
3 436 417 429
3 425 423 445
3 445 423 425
3 405 434 446
3 446 434 405
3 435 440 406
3 406 440 435
3 426 430 437
3 437 430 426
3 414 437 439
3 439 437 414
3 427 439 449
3 449 439 427
3 429 436 452
3 452 436 429
3 440 435 455
3 455 435 440
3 452 436 447
3 447 436 452
3 456 447 438
3 438 447 456
3 458 438 448
3 448 438 458
3 427 449 457
3 457 449 427
3 452 447 456
3 456 447 452
3 456 438 458
3 458 438 456
3 458 448 460
3 460 448 458
3 457 449 461
3 461 449 457
3 460 448 459
3 459 448 460
3 457 461 462
3 462 461 457
3 460 459 464
3 464 459 460
3 462 461 465
3 465 461 462
3 462 465 463
3 463 465 462
3 464 459 466
3 466 459 464
3 463 465 468
3 468 465 463
3 464 466 469
3 469 466 464
3 463 468 467
3 467 468 463
3 469 466 470
3 470 466 469
3 467 468 471
3 471 468 467
3 469 470 472
3 472 470 469
3 2 1 0
3 3 0 1
3 2 4 1
3 0 3 6
3 8 1 4
3 10 6 3
3 4 12 8
3 5 9 7
3 6 10 14
3 15 10 3
3 11 7 9
3 18 8 12
3 5 7 13
3 19 14 10
3 9 16 11
3 17 8 18
3 12 21 18
3 20 13 7
3 14 19 23
3 24 11 16
3 26 18 21
3 13 20 22
3 27 23 19
3 16 25 24
3 21 30 26
3 29 22 20
3 27 32 23
3 28 24 34
3 33 24 25
3 36 26 30
3 22 29 31
3 37 23 32
3 34 24 33
3 35 41 29
3 36 30 42
3 43 31 29
3 32 44 37
3 41 43 29
3 51 42 30
3 53 37 44
3 38 33 45
3 47 45 33
3 42 51 59
3 45 47 62
3 57 60 43
3 66 59 51
3 52 60 57
3 61 43 60
3 63 68 55
3 55 68 63
3 64 62 47
3 60 70 61
3 62 64 67
3 68 63 73
3 73 63 68
3 69 67 64
3 71 61 70
3 73 82 68
3 68 82 73
3 70 76 71
3 77 71 76
3 82 73 91
3 91 73 82
3 93 74 84
3 84 74 93
3 80 102 88
3 93 81 89
3 89 81 93
3 81 92 90
3 90 92 81
3 91 103 82
3 82 103 91
3 92 81 84
3 84 81 92
3 93 84 81
3 81 84 93
3 88 102 113
3 114 102 80
3 104 90 92
3 92 90 104
3 103 91 116
3 116 91 103
3 101 113 126
3 113 102 128
3 90 104 115
3 115 104 90
3 116 130 103
3 103 130 116
3 137 126 113
3 139 128 102
3 131 115 104
3 104 115 131
3 130 116 143
3 143 116 130
3 118 123 148
3 134 120 150
3 126 137 154
3 127 140 129
3 127 138 140
3 102 158 139
3 129 157 141
3 115 131 142
3 142 131 115
3 143 159 130
3 130 159 143
3 118 164 147
3 123 147 148
3 165 118 148
3 149 121 167
3 168 150 120
3 151 153 121
3 172 154 137
3 138 156 155
3 157 129 140
3 155 140 138
3 175 139 158
3 174 141 157
3 177 142 131
3 131 142 177
3 159 143 179
3 179 143 159
3 162 183 146
3 185 147 164
3 165 164 118
3 147 186 148
3 187 165 148
3 166 149 169
3 152 167 121
3 167 169 149
3 150 168 188
3 152 121 153
3 153 151 171
3 154 172 192
3 173 155 156
3 158 193 175
3 141 174 176
3 142 177 178
3 178 177 142
3 179 194 159
3 159 194 179
3 196 180 160
3 177 160 197
3 197 160 177
3 181 199 145
3 182 145 201
3 198 146 183
3 164 206 185
3 208 148 186
3 169 189 166
3 213 188 168
3 191 171 151
3 216 192 172
3 218 175 193
3 217 176 174
3 220 178 177
3 177 178 220
3 194 179 222
3 222 179 194
3 180 196 223
3 177 197 220
3 220 197 177
3 225 145 199
3 199 181 226
3 200 182 204
3 225 201 145
3 201 204 182
3 183 227 198
3 231 185 206
3 148 208 233
3 212 166 189
3 188 213 236
3 171 191 215
3 218 193 240
3 176 217 219
3 178 220 221
3 221 220 178
3 222 242 194
3 194 242 222
3 245 223 196
3 220 197 246
3 246 197 220
3 224 226 181
3 204 229 200
3 247 198 227
3 230 232 205
3 205 207 209
3 206 250 231
3 207 205 232
3 210 209 207
3 240 233 208
3 234 209 211
3 210 211 209
3 211 235 234
3 252 236 213
3 238 215 191
3 215 238 239
3 233 240 193
3 241 219 256
3 255 219 217
3 246 221 220
3 220 221 246
3 242 222 258
3 258 222 242
3 223 245 262
3 246 197 265
3 265 197 246
3 248 200 229
3 227 267 247
3 269 231 250
3 251 234 235
3 254 239 238
3 255 256 219
3 256 251 241
3 221 246 257
3 257 246 221
3 258 259 242
3 242 259 258
3 261 273 243
3 243 273 261
3 264 262 245
3 265 197 277
3 277 197 265
3 265 257 246
3 246 257 265
3 266 247 267
3 229 268 248
3 235 241 251
3 239 254 270
3 259 258 282
3 282 258 259
3 282 271 259
3 259 271 282
3 284 261 272
3 272 261 284
3 261 285 273
3 273 285 261
3 273 243 286
3 262 264 274
3 287 264 276
3 277 197 290
3 290 197 277
3 277 281 265
3 265 281 277
3 257 265 281
3 281 265 257
3 278 248 268
3 279 270 254
3 280 270 291
3 271 282 292
3 292 282 271
3 292 283 271
3 271 283 292
3 293 272 283
3 283 272 293
3 261 284 294
3 294 284 261
3 272 293 284
3 284 293 272
3 261 295 285
3 285 295 261
3 285 273 296
3 273 286 296
3 264 287 274
3 276 297 287
3 297 276 289
3 290 197 300
3 300 197 290
3 290 301 277
3 277 301 290
3 281 277 301
3 301 277 281
3 268 280 278
3 279 291 270
3 291 278 280
3 283 292 293
3 293 292 283
3 284 302 294
3 294 302 284
3 294 303 261
3 261 303 294
3 305 295 261
3 261 295 305
3 295 285 306
3 285 296 306
3 286 308 296
3 289 307 297
3 197 311 299
3 300 197 312
3 312 197 300
3 300 313 290
3 290 313 300
3 301 290 313
3 313 290 301
3 284 304 302
3 302 304 284
3 294 302 314
3 314 302 294
3 294 315 303
3 303 315 294
3 303 305 261
3 261 305 303
3 305 295 316
3 295 306 316
3 306 296 317
3 308 319 286
3 286 319 308
3 307 289 310
3 299 311 323
3 312 197 311
3 311 197 312
3 312 304 300
3 300 304 312
3 313 300 304
3 304 300 313
3 304 312 302
3 302 312 304
3 302 324 314
3 314 324 302
3 294 314 325
3 325 314 294
3 326 315 294
3 294 315 326
3 315 327 303
3 303 327 315
3 327 305 303
3 303 305 327
3 305 316 328
3 329 316 306
3 329 306 317
3 334 319 308
3 308 319 334
3 286 335 319
3 286 319 336
3 319 286 299
3 311 339 323
3 299 323 338
3 312 311 339
3 339 311 312
3 324 302 312
3 312 302 324
3 340 314 324
3 324 314 340
3 314 340 325
3 325 340 314
3 326 294 325
3 325 294 326
3 341 315 326
3 326 315 341
3 315 342 327
3 327 342 315
3 343 305 327
3 327 305 343
3 328 316 317
3 343 305 328
3 316 329 317
3 317 346 333
3 333 346 317
3 308 333 334
3 334 333 308
3 319 334 347
3 347 334 319
3 335 348 319
3 335 286 336
3 319 347 336
3 286 331 299
3 347 319 299
3 339 333 323
3 334 323 338
3 338 323 334
3 312 339 351
3 351 339 312
3 324 312 351
3 351 312 324
3 340 324 352
3 352 324 340
3 353 325 340
3 340 325 353
3 353 326 325
3 325 326 353
3 341 342 315
3 315 342 341
3 354 341 326
3 326 341 354
3 342 355 327
3 327 355 342
3 343 327 356
3 356 327 343
3 343 328 357
3 317 359 346
3 346 359 317
3 351 346 333
3 334 333 323
3 323 333 334
3 347 319 360
3 319 348 360
3 361 335 336
3 360 336 347
3 339 351 333
3 324 351 352
3 352 351 324
3 364 340 352
3 352 340 364
3 353 340 364
3 364 340 353
3 354 326 353
3 353 326 354
3 355 342 341
3 341 342 355
3 365 341 354
3 354 341 365
3 327 355 356
3 356 355 327
3 366 343 356
3 356 343 366
3 368 343 357
3 317 370 359
3 359 370 317
3 352 359 346
3 351 352 346
3 371 360 348
3 336 373 361
3 352 364 359
3 375 353 364
3 364 353 375
3 375 354 353
3 353 354 375
3 376 355 341
3 341 355 376
3 365 376 341
3 341 376 365
3 365 354 375
3 375 354 365
3 355 377 356
3 356 377 355
3 368 343 366
3 366 343 368
3 356 377 366
3 366 377 356
3 357 367 368
3 317 379 370
3 370 379 317
3 364 370 359
3 348 372 371
3 380 361 373
3 364 375 370
3 376 377 355
3 355 377 376
3 383 376 365
3 365 376 383
3 384 365 375
3 375 365 384
3 368 366 385
3 385 366 368
3 377 386 366
3 366 386 377
3 368 367 387
3 367 378 387
3 317 390 379
3 379 390 317
3 375 379 370
3 381 371 372
3 373 392 380
3 394 377 376
3 376 377 394
3 383 394 376
3 376 394 383
3 383 365 384
3 384 365 383
3 375 384 390
3 366 386 385
3 385 386 366
3 395 368 385
3 385 368 395
3 394 386 377
3 377 386 394
3 387 368 395
3 395 368 387
3 387 378 396
3 378 388 396
3 317 398 390
3 390 398 317
3 375 390 379
3 372 391 381
3 399 380 392
3 393 381 391
3 400 394 383
3 383 394 400
3 401 383 384
3 384 383 401
3 384 398 390
3 386 402 385
3 385 402 386
3 385 402 395
3 395 402 385
3 403 386 394
3 394 386 403
3 387 395 404
3 404 395 387
3 396 387 404
3 404 387 396
3 396 388 405
3 388 397 405
3 397 406 317
3 317 406 397
3 317 407 398
3 398 407 317
3 399 392 409
3 393 391 410
3 400 403 394
3 394 403 400
3 401 400 383
3 383 400 401
3 401 398 384
3 403 402 386
3 386 402 403
3 402 411 395
3 395 411 402
3 395 411 404
3 404 411 395
3 396 404 412
3 412 404 396
3 413 405 396
3 396 405 413
3 414 405 397
3 406 397 414
3 414 397 406
3 317 406 415
3 415 406 317
3 317 416 407
3 407 416 317
3 401 407 398
3 408 410 391
3 417 409 392
3 418 403 400
3 400 403 418
3 419 400 401
3 401 400 419
3 420 402 403
3 403 402 420
3 420 411 402
3 402 411 420
3 411 421 404
3 404 421 411
3 404 421 412
3 412 421 404
3 396 412 413
3 413 412 396
3 405 413 422
3 422 413 405
3 414 426 406
3 414 406 427
3 428 406 415
3 317 415 416
3 416 415 317
3 419 416 407
3 419 407 401
3 410 408 429
3 409 417 426
3 418 420 403
3 403 420 418
3 419 418 400
3 400 418 419
3 420 421 411
3 411 421 420
3 421 431 412
3 412 431 421
3 412 431 413
3 413 431 412
3 413 432 422
3 422 432 413
3 433 405 422
3 422 405 433
3 434 423 405
3 405 423 434
3 426 436 406
3 427 406 438
3 440 406 428
3 428 415 441
3 441 415 416
3 441 416 419
3 430 429 408
3 436 426 417
3 442 420 418
3 418 420 442
3 442 418 419
3 419 418 442
3 443 421 420
3 420 421 443
3 443 431 421
3 421 431 443
3 431 432 413
3 413 432 431
3 432 444 422
3 422 444 432
3 405 433 434
3 434 433 405
3 422 444 433
3 433 444 422
3 423 434 433
3 433 434 423
3 444 435 425
3 425 435 444
3 447 406 436
3 447 438 406
3 438 448 427
3 428 440 450
3 450 440 428
3 441 428 451
3 451 428 441
3 441 442 419
3 419 442 441
3 429 430 452
3 442 443 420
3 420 443 442
3 453 431 443
3 443 431 453
3 453 432 431
3 431 432 453
3 454 444 432
3 432 444 454
3 444 425 433
3 433 425 444
3 433 445 423
3 423 445 433
3 433 425 445
3 445 425 433
3 444 454 435
3 435 454 444
3 437 350 430
3 437 439 350
3 457 427 448
3 439 449 456
3 440 455 450
3 450 455 440
3 428 450 451
3 451 450 428
3 451 442 441
3 441 442 451
3 350 452 430
3 451 443 442
3 442 443 451
3 451 453 443
3 443 453 451
3 454 432 453
3 453 432 454
3 435 454 455
3 455 454 435
3 350 439 452
3 448 459 457
3 458 456 449
3 456 452 439
3 455 454 450
3 450 454 455
3 450 453 451
3 451 453 450
3 450 454 453
3 453 454 450
3 462 457 459
3 460 458 461
3 449 461 458
3 462 459 463
3 460 461 464
3 466 463 459
3 465 464 461
3 463 466 467
3 464 465 469
3 470 467 466
3 468 469 465
3 467 470 471
3 469 468 472
3 472 471 470
3 471 472 468
3 195 223 180
3 196 197 160
3 223 195 243
3 197 196 245
3 223 243 262
3 197 245 264
3 262 243 274
3 197 264 276
3 274 243 287
3 197 276 289
3 297 243 286
3 287 243 297
3 197 289 299
3 297 286 307
3 299 289 310
3 307 286 318
3 296 317 308
3 299 310 322
3 318 286 330
3 331 307 318
3 307 322 310
3 331 299 322
3 331 318 330
3 322 307 331
3 317 328 357
3 317 357 367
3 317 367 378
3 317 378 388
3 317 388 397
3 160 180 196
3 223 196 180
3 196 223 245
3 262 245 223
3 245 262 264
3 286 243 273
3 274 264 262
3 276 264 287
3 296 273 285
3 296 286 273
3 274 287 264
3 287 297 276
3 289 276 297
3 306 285 295
3 306 296 285
3 296 308 286
3 297 307 289
3 299 311 197
3 316 295 305
3 316 306 295
3 317 296 306
3 310 289 307
3 323 311 299
3 328 316 305
3 306 316 329
3 317 306 329
3 319 335 286
3 336 319 286
3 299 286 319
3 323 339 311
3 338 323 299
3 317 316 328
3 328 305 343
3 317 329 316
3 319 348 335
3 336 286 335
3 336 347 319
3 299 331 286
3 299 319 347
3 323 333 339
3 357 328 343
3 333 346 351
3 360 319 347
3 360 348 319
3 336 335 361
3 347 336 360
3 333 351 339
3 357 343 368
3 346 359 352
3 346 352 351
3 348 360 371
3 361 373 336
3 359 364 352
3 368 367 357
3 359 370 364
3 371 372 348
3 373 361 380
3 370 375 364
3 387 367 368
3 387 378 367
3 370 379 375
3 372 371 381
3 380 392 373
3 390 384 375
3 396 378 387
3 396 388 378
3 379 390 375
3 381 391 372
3 392 380 399
3 391 381 393
3 390 398 384
3 405 388 396
3 405 397 388
3 409 392 399
3 410 391 393
3 384 398 401
3 397 405 414
3 398 407 401
3 391 410 408
3 392 409 417
3 406 426 414
3 427 406 414
3 415 406 428
3 407 416 419
3 401 407 419
3 429 408 410
3 426 417 409
3 406 436 426
3 438 406 427
3 428 406 440
3 441 415 428
3 416 415 441
3 419 416 441
3 408 429 430
3 417 426 436
3 436 406 447
3 406 438 447
3 427 448 438
3 452 430 429
3 430 350 437
3 350 439 437
3 448 427 457
3 456 449 439
3 430 452 350
3 452 439 350
3 457 459 448
3 449 456 458
3 439 452 456
3 459 457 462
3 461 458 460
3 458 461 449
3 463 459 462
3 464 461 460
3 459 463 466
3 461 464 465
3 467 466 463
3 469 465 464
3 466 467 470
3 465 469 468
3 471 470 467
3 472 468 469
3 470 471 472
3 468 472 471
