ply
format ascii 1.0
comment Generated by PyMesh
element vertex 589
property double x
property double y
property double z
element face 2132
property list uchar int vertex_indices
end_header
0.202706 -0.0284872 0.278545
0.135257 -0.0284872 0.228246
0.135257 -0.0284872 0.328845
0.202706 -0.0299192 0.252035
0.0678084 -0.0284872 0.278545
0.170806 -0.0299192 0.328845
0.202706 -0.0340681 0.228246
0.170806 -0.0299192 0.228246
0.0997084 -0.0299192 0.328845
0.0997084 -0.0299192 0.228246
0.202706 -0.0299192 0.305056
0.0678084 -0.0299192 0.305056
0.0678084 -0.0299192 0.252035
0.202706 -0.0340681 0.328845
0.0678084 -0.0340681 0.228246
0.0678084 -0.0340681 0.328845
0.0678084 -0.0775599 0.228246
0.202706 -0.0775599 0.328845
0.202706 -0.0775599 0.228246
0.0678084 -0.0775599 0.328845
-0.0670893 -0.0284872 0.278545
-0.134538 -0.0284872 0.228246
-0.134538 -0.0284872 0.328845
-0.0670893 -0.0299192 0.252035
-0.201987 -0.0284872 0.278545
-0.0989893 -0.0299192 0.328845
-0.0670893 -0.0340681 0.228246
-0.0989893 -0.0299192 0.228246
-0.170087 -0.0299192 0.328845
-0.170087 -0.0299192 0.228246
-0.0670893 -0.0299192 0.305056
-0.201987 -0.0299192 0.305056
-0.201987 -0.0299192 0.252035
-0.0670893 -0.0340681 0.328845
-0.201987 -0.0340681 0.228246
-0.201987 -0.0340681 0.328845
-0.201987 -0.0775599 0.228246
-0.0670893 -0.0775599 0.328845
-0.0670893 -0.0775599 0.228246
-0.201987 -0.0775599 0.328845
0.0678084 -0.0284872 0.278545
0.000359569 -0.0284872 0.228246
0.000359569 -0.0284872 0.328845
0.0678084 -0.0299192 0.252035
-0.0670893 -0.0284872 0.278545
0.0359085 -0.0299192 0.328845
0.0678084 -0.0340681 0.228246
0.0359085 -0.0299192 0.228246
-0.0351888 -0.0299192 0.328845
-0.0351888 -0.0299192 0.228246
0.0678084 -0.0299192 0.305056
-0.0670893 -0.0299192 0.305056
-0.0670893 -0.0299192 0.252035
0.0678084 -0.0340681 0.328845
-0.0670893 -0.0340681 0.228246
-0.0670893 -0.0340681 0.328845
-0.0670893 -0.0775599 0.228246
0.0678084 -0.0775599 0.328845
0.0678084 -0.0775599 0.228246
-0.0670893 -0.0775599 0.328845
0.202706 -0.0284867 0.0773491
0.135257 -0.0284867 0.02705
0.135257 -0.0284867 0.127648
0.202706 -0.0299192 0.050839
0.0678084 -0.0284867 0.0773491
0.170806 -0.0299192 0.127648
0.202706 -0.0340681 0.02705
0.170806 -0.0299192 0.02705
0.0997084 -0.0299192 0.127648
0.0997084 -0.0299192 0.02705
0.202706 -0.0299192 0.103859
0.0678084 -0.0299192 0.103859
0.0678084 -0.0299192 0.050839
0.202706 -0.0340681 0.127648
0.0678084 -0.0340681 0.02705
0.0678084 -0.0340681 0.127648
0.0678084 -0.0775599 0.02705
0.202706 -0.0775599 0.127648
0.202706 -0.0775599 0.02705
0.0678084 -0.0775599 0.127648
0.0678084 -0.0284867 0.0773491
0.000359569 -0.0284867 0.02705
0.000359569 -0.0284867 0.127648
0.0678084 -0.0299192 0.050839
-0.0670893 -0.0284867 0.0773491
0.0359085 -0.0299192 0.127648
0.0678084 -0.0340681 0.02705
0.0359085 -0.0299192 0.02705
-0.0351888 -0.0299192 0.127648
-0.0351888 -0.0299192 0.02705
0.0678084 -0.0299192 0.103859
-0.0670893 -0.0299192 0.103859
-0.0670893 -0.0299192 0.050839
0.0678084 -0.0340681 0.127648
-0.0670893 -0.0340681 0.02705
-0.0670893 -0.0340681 0.127648
-0.0670893 -0.0775599 0.02705
0.0678084 -0.0775599 0.127648
0.0678084 -0.0775599 0.02705
-0.0670893 -0.0775599 0.127648
0.202706 -0.0284867 0.177947
0.135257 -0.0284867 0.127648
0.135257 -0.0284867 0.228246
0.202706 -0.0299192 0.151437
0.0678084 -0.0284867 0.177947
0.170806 -0.0299192 0.228246
0.202706 -0.0340681 0.127648
0.170806 -0.0299192 0.127648
0.0997084 -0.0299192 0.228246
0.0997084 -0.0299192 0.127648
0.202706 -0.0299192 0.204457
0.0678084 -0.0299192 0.204457
0.0678084 -0.0299192 0.151437
0.202706 -0.0340681 0.228246
0.0678084 -0.0340681 0.127648
0.0678084 -0.0340681 0.228246
0.0678084 -0.0775599 0.127648
0.202706 -0.0775599 0.228246
0.202706 -0.0775599 0.127648
0.0678084 -0.0775599 0.228246
0.0678084 -0.0284867 0.177947
0.000359569 -0.0284867 0.127648
0.000359569 -0.0284867 0.228246
0.0678084 -0.0299192 0.151437
-0.0670893 -0.0284867 0.177947
0.0359085 -0.0299192 0.228246
0.0678084 -0.0340681 0.127648
0.0359085 -0.0299192 0.127648
-0.0351888 -0.0299192 0.228246
-0.0351888 -0.0299192 0.127648
0.0678084 -0.0299192 0.204457
-0.0670893 -0.0299192 0.204457
-0.0670893 -0.0299192 0.151437
0.0678084 -0.0340681 0.228246
-0.0670893 -0.0340681 0.127648
-0.0670893 -0.0340681 0.228246
-0.0670893 -0.0775599 0.127648
0.0678084 -0.0775599 0.228246
0.0678084 -0.0775599 0.127648
-0.0670893 -0.0775599 0.228246
-0.0670893 -0.0284867 0.177947
-0.134538 -0.0284867 0.127648
-0.134538 -0.0284867 0.228246
-0.0670893 -0.0299192 0.151437
-0.201987 -0.0284867 0.177947
-0.0989893 -0.0299192 0.228246
-0.0670893 -0.0340681 0.127648
-0.0989893 -0.0299192 0.127648
-0.170087 -0.0299192 0.228246
-0.170087 -0.0299192 0.127648
-0.0670893 -0.0299192 0.204457
-0.201987 -0.0299192 0.204457
-0.201987 -0.0299192 0.151437
-0.0670893 -0.0340681 0.228246
-0.201987 -0.0340681 0.127648
-0.201987 -0.0340681 0.228246
-0.201987 -0.0775599 0.127648
-0.0670893 -0.0775599 0.228246
-0.0670893 -0.0775599 0.127648
-0.201987 -0.0775599 0.228246
-0.0670893 -0.0284867 0.0773491
-0.134538 -0.0284867 0.02705
-0.134538 -0.0284867 0.127648
-0.0670893 -0.0299192 0.050839
-0.201987 -0.0284867 0.0773491
-0.0989893 -0.0299192 0.127648
-0.0670893 -0.0340681 0.02705
-0.0989893 -0.0299192 0.02705
-0.170087 -0.0299192 0.127648
-0.170087 -0.0299192 0.02705
-0.0670893 -0.0299192 0.103859
-0.201987 -0.0299192 0.103859
-0.201987 -0.0299192 0.050839
-0.0670893 -0.0340681 0.127648
-0.201987 -0.0340681 0.02705
-0.201987 -0.0340681 0.127648
-0.201987 -0.0775599 0.02705
-0.0670893 -0.0775599 0.127648
-0.0670893 -0.0775599 0.02705
-0.201987 -0.0775599 0.127648
0.202706 -0.0284872 -0.123847
0.135257 -0.0284867 -0.174146
0.135257 -0.0284872 -0.0735483
0.202706 -0.0299192 -0.150357
0.0678084 -0.0284872 -0.123847
0.170806 -0.0299192 -0.0735483
0.202706 -0.0340681 -0.174146
0.170806 -0.0299192 -0.174146
0.0997084 -0.0299192 -0.0735483
0.0997084 -0.0299192 -0.174146
0.202706 -0.0299192 -0.0973373
0.0678084 -0.0299192 -0.0973373
0.0678084 -0.0299192 -0.150357
0.202706 -0.0340681 -0.0735483
0.0678084 -0.0340681 -0.174146
0.0678084 -0.0340681 -0.0735483
0.0678084 -0.0775599 -0.174146
0.202706 -0.0775599 -0.0735483
0.202706 -0.0775599 -0.174146
0.0678084 -0.0775599 -0.0735483
0.0678084 -0.0284867 -0.123847
0.000359569 -0.0284867 -0.174146
0.000359569 -0.0284867 -0.0735483
0.0678084 -0.0299192 -0.150357
-0.0670893 -0.0284867 -0.123847
0.0359085 -0.0299192 -0.0735483
0.0678084 -0.0340681 -0.174146
0.0359085 -0.0299192 -0.174146
-0.0351888 -0.0299192 -0.0735483
-0.0351888 -0.0299192 -0.174146
0.0678084 -0.0299192 -0.0973373
-0.0670893 -0.0299192 -0.0973373
-0.0670893 -0.0299192 -0.150357
0.0678084 -0.0340681 -0.0735483
-0.0670893 -0.0340681 -0.174146
-0.0670893 -0.0340681 -0.0735483
-0.0670893 -0.0775599 -0.174146
0.0678084 -0.0775599 -0.0735483
0.0678084 -0.0775599 -0.174146
-0.0670893 -0.0775599 -0.0735483
0.202706 -0.0284867 -0.0232492
0.135257 -0.0284867 -0.0735483
0.135257 -0.0284867 0.02705
0.202706 -0.0299192 -0.0497587
0.0678084 -0.0284867 -0.0232492
0.170806 -0.0299192 0.02705
0.202706 -0.0340681 -0.0735483
0.170806 -0.0299192 -0.0735483
0.0997084 -0.0299192 0.02705
0.0997084 -0.0299192 -0.0735483
0.202706 -0.0299192 0.00326093
0.0678084 -0.0299192 0.00326093
0.0678084 -0.0299192 -0.0497587
0.202706 -0.0340681 0.02705
0.0678084 -0.0340681 -0.0735483
0.0678084 -0.0340681 0.02705
0.0678084 -0.0775599 -0.0735483
0.202706 -0.0775599 0.02705
0.202706 -0.0775599 -0.0735483
0.0678084 -0.0775599 0.02705
0.0678084 -0.0284867 -0.0232492
0.000359569 -0.0284867 -0.0735477
0.000359569 -0.0284867 0.02705
0.0678084 -0.0299192 -0.0497587
-0.0670893 -0.0284867 -0.0232492
0.0359085 -0.0299192 0.02705
0.0678084 -0.0340681 -0.0735477
0.0359085 -0.0299192 -0.0735477
-0.0351888 -0.0299192 0.02705
-0.0351888 -0.0299192 -0.0735477
0.0678084 -0.0299192 0.00326093
-0.0670893 -0.0299192 0.00326093
-0.0670893 -0.0299192 -0.0497587
0.0678084 -0.0340681 0.02705
-0.0670893 -0.0340681 -0.0735477
-0.0670893 -0.0340681 0.02705
-0.0670893 -0.0775599 -0.0735477
0.0678084 -0.0775599 0.02705
0.0678084 -0.0775599 -0.0735477
-0.0670893 -0.0775599 0.02705
-0.0670893 -0.0284867 -0.0232492
-0.134538 -0.0284867 -0.0735477
-0.134538 -0.0284867 0.02705
-0.0670893 -0.0299192 -0.0497587
-0.201987 -0.0284867 -0.0232492
-0.0989893 -0.0299192 0.02705
-0.0670893 -0.0340681 -0.0735477
-0.0989893 -0.0299192 -0.0735477
-0.170087 -0.0299192 0.02705
-0.170087 -0.0299192 -0.0735477
-0.0670893 -0.0299192 0.00326093
-0.201987 -0.0299192 0.00326093
-0.201987 -0.0299192 -0.0497587
-0.0670893 -0.0340681 0.02705
-0.201987 -0.0340681 -0.0735477
-0.201987 -0.0340681 0.02705
-0.201987 -0.0775599 -0.0735477
-0.0670893 -0.0775599 0.02705
-0.0670893 -0.0775599 -0.0735477
-0.201987 -0.0775599 0.02705
-0.0670893 -0.0284867 -0.123847
-0.134538 -0.0284867 -0.174146
-0.134538 -0.0284867 -0.0735483
-0.0670893 -0.0299192 -0.150357
-0.201987 -0.0284867 -0.123847
-0.0989893 -0.0299192 -0.0735483
-0.0670893 -0.0340681 -0.174146
-0.0989893 -0.0299192 -0.174146
-0.170087 -0.0299192 -0.0735483
-0.170087 -0.0299192 -0.174146
-0.0670893 -0.0299192 -0.0973373
-0.201987 -0.0299192 -0.0973373
-0.201987 -0.0299192 -0.150357
-0.0670893 -0.0340681 -0.0735483
-0.201987 -0.0340681 -0.174146
-0.201987 -0.0340681 -0.0735483
-0.201987 -0.0775599 -0.174146
-0.0670893 -0.0775599 -0.0735483
-0.0670893 -0.0775599 -0.174146
-0.201987 -0.0775599 -0.0735483
0.202706 -0.0284867 -0.325043
0.135257 -0.0284867 -0.375343
0.135257 -0.0284867 -0.274745
0.202706 -0.0299192 -0.351553
0.0678084 -0.0284867 -0.325043
0.170806 -0.0299192 -0.274745
0.202706 -0.0340681 -0.375343
0.170806 -0.0299192 -0.375343
0.0997084 -0.0299192 -0.274745
0.0997084 -0.0299192 -0.375343
0.202706 -0.0299192 -0.298533
0.0678084 -0.0299192 -0.298533
0.0678084 -0.0299192 -0.351553
0.202706 -0.0340681 -0.274745
0.0678084 -0.0340681 -0.375343
0.0678084 -0.0340681 -0.274745
0.0678084 -0.0775599 -0.375343
0.202706 -0.0775599 -0.274745
0.202706 -0.0775599 -0.375343
0.0678084 -0.0775599 -0.274745
0.0678084 -0.0284872 -0.325043
0.000359569 -0.0284872 -0.375343
0.000359569 -0.0284872 -0.274745
0.0678084 -0.0299192 -0.351553
-0.0670893 -0.0284872 -0.325043
0.0359085 -0.0299192 -0.274745
0.0678084 -0.0340681 -0.375343
0.0359085 -0.0299192 -0.375343
-0.0351888 -0.0299192 -0.274745
-0.0351888 -0.0299192 -0.375343
0.0678084 -0.0299192 -0.298533
-0.0670893 -0.0299192 -0.298533
-0.0670893 -0.0299192 -0.351553
0.0678084 -0.0340681 -0.274745
-0.0670893 -0.0340681 -0.375343
-0.0670893 -0.0340681 -0.274745
-0.0670893 -0.0775599 -0.375343
0.0678084 -0.0775599 -0.274745
0.0678084 -0.0775599 -0.375343
-0.0670893 -0.0775599 -0.274745
0.202706 -0.0284867 -0.224446
0.135257 -0.0284867 -0.274745
0.135257 -0.0284867 -0.174146
0.202706 -0.0299192 -0.250956
0.0678084 -0.0284867 -0.224446
0.170806 -0.0299192 -0.174146
0.202706 -0.0340681 -0.274745
0.170806 -0.0299192 -0.274745
0.0997084 -0.0299192 -0.174146
0.0997084 -0.0299192 -0.274745
0.202706 -0.0299192 -0.197936
0.0678084 -0.0299192 -0.197936
0.0678084 -0.0299192 -0.250956
0.202706 -0.0340681 -0.174146
0.0678084 -0.0340681 -0.274745
0.0678084 -0.0340681 -0.174146
0.0678084 -0.0775599 -0.274745
0.202706 -0.0775599 -0.174146
0.202706 -0.0775599 -0.274745
0.0678084 -0.0775599 -0.174146
0.0678084 -0.0284872 -0.224446
0.000359569 -0.0284867 -0.274745
0.000359569 -0.0284872 -0.174146
0.0678084 -0.0299192 -0.250956
-0.0670893 -0.0284872 -0.224446
0.0359085 -0.0299192 -0.174146
0.0678084 -0.0340681 -0.274745
0.0359085 -0.0299192 -0.274745
-0.0351888 -0.0299192 -0.174146
-0.0351888 -0.0299192 -0.274745
0.0678084 -0.0299192 -0.197936
-0.0670893 -0.0299192 -0.197936
-0.0670893 -0.0299192 -0.250956
0.0678084 -0.0340681 -0.174146
-0.0670893 -0.0340681 -0.274745
-0.0670893 -0.0340681 -0.174146
-0.0670893 -0.0775599 -0.274745
0.0678084 -0.0775599 -0.174146
0.0678084 -0.0775599 -0.274745
-0.0670893 -0.0775599 -0.174146
-0.0670893 -0.0284867 -0.224446
-0.134538 -0.0284867 -0.274745
-0.134538 -0.0284867 -0.174146
-0.0670893 -0.0299192 -0.250956
-0.201987 -0.0284867 -0.224446
-0.0989893 -0.0299192 -0.174146
-0.0670893 -0.0340681 -0.274745
-0.0989893 -0.0299192 -0.274745
-0.170087 -0.0299192 -0.174146
-0.170087 -0.0299192 -0.274745
-0.0670893 -0.0299192 -0.197936
-0.201987 -0.0299192 -0.197936
-0.201987 -0.0299192 -0.250956
-0.0670893 -0.0340681 -0.174146
-0.201987 -0.0340681 -0.274745
-0.201987 -0.0340681 -0.174146
-0.201987 -0.0775599 -0.274745
-0.0670893 -0.0775599 -0.174146
-0.0670893 -0.0775599 -0.274745
-0.201987 -0.0775599 -0.174146
-0.0670893 -0.0284867 -0.325043
-0.134538 -0.0284867 -0.375343
-0.134538 -0.0284867 -0.274745
-0.0670893 -0.0299192 -0.351553
-0.201987 -0.0284867 -0.325043
-0.0989893 -0.0299192 -0.274745
-0.0670893 -0.0340681 -0.375343
-0.0989893 -0.0299192 -0.375343
-0.170087 -0.0299192 -0.274745
-0.170087 -0.0299192 -0.375343
-0.0670893 -0.0299192 -0.298533
-0.201987 -0.0299192 -0.298533
-0.201987 -0.0299192 -0.351553
-0.0670893 -0.0340681 -0.274745
-0.201987 -0.0340681 -0.375343
-0.201987 -0.0340681 -0.274745
-0.201987 -0.0775599 -0.375343
-0.0670893 -0.0775599 -0.274745
-0.0670893 -0.0775599 -0.375343
-0.201987 -0.0775599 -0.274745
0.201877 0.0243065 0.292168
0.133868 -0.0209973 0.281109
0.135014 0.0706326 0.305703
0.201598 -0.000234582 0.287154
0.0670058 0.0253293 0.294643
0.17058 0.0699693 0.306518
0.201396 -0.0230446 0.285589
0.169434 -0.0216611 0.281924
0.0994965 0.0705084 0.307823
0.0983505 -0.0211215 0.283228
0.202203 0.0480584 0.300117
0.0673315 0.0490818 0.302592
0.0667271 0.00078881 0.28963
0.202543 0.0685853 0.310183
0.0665257 -0.0220212 0.288063
0.0676722 0.0696086 0.312658
0.0672521 -0.0339882 0.332614
0.20327 0.0566187 0.354734
0.202123 -0.0350111 0.330139
0.0683987 0.0576416 0.357208
0.0669787 0.0243065 0.292168
-0.00103018 -0.0209973 0.281109
0.000116898 0.0706326 0.305703
0.0667005 -0.000234582 0.287154
-0.067892 0.0253293 0.294643
0.0356825 0.0699693 0.306518
0.0664991 -0.0230446 0.285589
0.0345354 -0.0216611 0.281924
-0.0354007 0.0705084 0.307823
-0.0365478 -0.0211215 0.283228
0.0673048 0.0480584 0.300117
-0.0675663 0.0490818 0.302592
-0.0681701 0.00078881 0.28963
0.0676451 0.0685853 0.310182
-0.0683721 -0.0220212 0.288063
-0.067226 0.0696086 0.312658
-0.0676456 -0.0339882 0.332614
0.0683721 0.0566187 0.354734
0.0672255 -0.0350111 0.330139
-0.0664991 0.0576416 0.357208
0.201877 0.115544 0.318205
0.133868 0.0702406 0.307146
0.135014 0.161871 0.33174
0.201598 0.0910033 0.313192
0.0670058 0.116567 0.32068
0.17058 0.161207 0.332555
0.201396 0.0681933 0.311625
0.169434 0.0695773 0.30796
0.0994965 0.161746 0.333859
0.0983505 0.0701164 0.309265
0.202203 0.139297 0.326153
0.067332 0.14032 0.328629
0.0667271 0.0920267 0.315666
0.202543 0.159824 0.33622
0.0665262 0.0692167 0.3141
0.0676722 0.160847 0.338695
0.0672527 0.0572497 0.358651
0.20327 0.147857 0.38077
0.202123 0.0562263 0.356176
0.0683987 0.14888 0.383245
0.0669792 0.115544 0.318206
-0.00103018 0.0702406 0.307146
0.000116898 0.161871 0.33174
0.0667005 0.0910038 0.313192
-0.067892 0.116567 0.32068
0.0356825 0.161207 0.332555
0.0664991 0.0681933 0.311625
0.0345359 0.0695773 0.30796
-0.0354007 0.161747 0.333859
-0.0365478 0.0701164 0.309265
0.0673048 0.139297 0.326153
-0.0675663 0.14032 0.328629
-0.0681701 0.0920267 0.315666
0.0676451 0.159824 0.33622
-0.0683721 0.0692167 0.3141
-0.067226 0.160847 0.338695
-0.0676456 0.0572497 0.358651
0.0683721 0.147857 0.38077
0.0672255 0.0562263 0.356176
-0.0664991 0.14888 0.383245
-0.0679186 0.115544 0.318206
-0.135927 0.0702406 0.307146
-0.134781 0.161871 0.33174
-0.0681967 0.0910038 0.313192
-0.20279 0.116567 0.32068
-0.0992153 0.161207 0.332555
-0.0683987 0.0681933 0.311625
-0.100362 0.0695773 0.30796
-0.170298 0.161747 0.333859
-0.171445 0.0701164 0.309265
-0.0675929 0.139297 0.326153
-0.202464 0.14032 0.328629
-0.203068 0.0920267 0.315666
-0.0672521 0.159824 0.33622
-0.20327 0.0692167 0.3141
-0.202123 0.160847 0.338695
-0.202543 0.0572497 0.358651
-0.0665252 0.147857 0.38077
-0.0676717 0.0562263 0.356176
-0.201396 0.14888 0.383245
-0.0679186 0.0243065 0.292168
-0.135927 -0.0209973 0.281109
-0.134781 0.0706326 0.305703
-0.0681967 -0.000234582 0.287154
-0.20279 0.0253293 0.294643
-0.0992153 0.0699693 0.306518
-0.0683987 -0.0230446 0.285589
-0.100362 -0.0216611 0.281924
-0.170298 0.0705084 0.307823
-0.171445 -0.0211215 0.283228
-0.0675929 0.0480584 0.300117
-0.202464 0.0490818 0.302592
-0.203068 0.00078881 0.28963
-0.0672521 0.0685853 0.310183
-0.20327 -0.0220212 0.288063
-0.202123 0.0696086 0.312658
-0.202543 -0.0339882 0.332614
-0.0665252 0.0566187 0.354734
-0.0676717 -0.0350111 0.330139
-0.201396 0.0576416 0.357208
0.202706 0.13677 0.427176
-0.201987 -0.0340681 0.379421
0.202706 -0.0340681 0.379421
-0.201987 0.13677 0.427176
-0.157021 -0.116905 0.379421
0.202706 0.148408 0.380918
-0.201987 0.148408 0.380918
-0.201987 -0.161871 0.379421
0.15774 -0.116905 0.379421
0.202706 -0.116905 0.334455
-0.201987 -0.116905 0.334455
-0.157021 -0.161871 0.379421
0.15774 -0.161871 0.379421
0.15774 -0.116905 0.334455
0.202706 -0.0775599 0.328845
0.202706 -0.161871 0.379421
0.202706 -0.0340681 0.328845
-0.201987 -0.0340681 0.328845
-0.157021 -0.161871 0.334455
-0.157021 -0.116905 0.334455
-0.201987 -0.161871 0.334455
0.202706 -0.116905 -0.367455
0.202706 -0.161871 0.334455
-0.201987 -0.0775599 0.328845
0.15774 -0.161871 0.334455
-0.157021 -0.116905 -0.412421
0.202706 -0.0775599 -0.375343
0.15774 -0.116905 -0.367455
-0.201987 -0.116905 -0.367455
0.15774 -0.116905 -0.412421
-0.157021 -0.116905 -0.367455
0.202706 -0.161871 -0.367455
0.15774 -0.161871 -0.367455
-0.201987 -0.0775599 -0.375343
-0.201987 -0.0340681 -0.412421
-0.157021 -0.161871 -0.367455
0.202706 0.0636572 -0.403231
-0.201987 -0.161871 -0.367455
-0.157021 -0.161871 -0.412421
0.202706 -0.0340681 -0.412421
0.202706 -0.0340681 -0.375343
0.202706 -0.161871 -0.412421
0.15774 -0.161871 -0.412421
-0.201987 0.0636572 -0.403231
-0.201987 -0.161871 -0.412421
-0.201987 0.0636572 -0.427176
0.202706 0.0636572 -0.415203
-0.201987 -0.0340681 -0.375343
0.202706 0.0636572 -0.427176
3 0 1 2
3 2 1 0
3 0 3 1
3 1 3 0
3 4 2 1
3 1 2 4
3 2 5 0
3 0 5 2
3 3 0 6
3 6 0 3
3 7 1 3
3 3 1 7
3 2 4 8
3 8 4 2
3 1 9 4
3 4 9 1
3 2 8 5
3 5 8 2
3 10 0 5
3 5 0 10
3 0 10 6
3 6 10 0
3 3 6 7
3 7 6 3
3 1 7 9
3 9 7 1
3 11 8 4
3 4 8 11
3 12 4 9
3 9 4 12
3 5 8 13
3 13 8 5
3 13 10 5
3 5 10 13
3 13 6 10
3 10 6 13
3 7 6 14
3 14 6 7
3 9 7 14
3 14 7 9
3 15 8 11
3 11 8 15
3 4 16 11
3 11 16 4
3 12 16 4
3 4 16 12
3 9 14 12
3 12 14 9
3 15 13 8
3 8 13 15
3 13 17 6
3 6 17 13
3 6 18 14
3 14 18 6
3 11 16 15
3 15 16 11
3 14 16 12
3 12 16 14
3 15 19 13
3 13 19 15
3 17 13 19
3 19 13 17
3 18 6 17
3 17 6 18
3 16 14 18
3 18 14 16
3 19 15 16
3 16 15 19
3 19 16 17
3 17 16 19
3 18 17 16
3 16 17 18
3 20 21 22
3 22 21 20
3 20 23 21
3 21 23 20
3 24 22 21
3 21 22 24
3 22 25 20
3 20 25 22
3 23 20 26
3 26 20 23
3 27 21 23
3 23 21 27
3 22 24 28
3 28 24 22
3 21 29 24
3 24 29 21
3 22 28 25
3 25 28 22
3 30 20 25
3 25 20 30
3 20 30 26
3 26 30 20
3 23 26 27
3 27 26 23
3 21 27 29
3 29 27 21
3 31 28 24
3 24 28 31
3 32 24 29
3 29 24 32
3 25 28 33
3 33 28 25
3 33 30 25
3 25 30 33
3 33 26 30
3 30 26 33
3 27 26 34
3 34 26 27
3 29 27 34
3 34 27 29
3 35 28 31
3 31 28 35
3 24 36 31
3 31 36 24
3 32 36 24
3 24 36 32
3 29 34 32
3 32 34 29
3 35 33 28
3 28 33 35
3 33 37 26
3 26 37 33
3 26 38 34
3 34 38 26
3 31 36 35
3 35 36 31
3 34 36 32
3 32 36 34
3 35 39 33
3 33 39 35
3 37 33 39
3 39 33 37
3 38 26 37
3 37 26 38
3 36 34 38
3 38 34 36
3 39 35 36
3 36 35 39
3 39 36 37
3 37 36 39
3 38 37 36
3 36 37 38
3 40 41 42
3 42 41 40
3 40 43 41
3 41 43 40
3 44 42 41
3 41 42 44
3 42 45 40
3 40 45 42
3 43 40 46
3 46 40 43
3 47 41 43
3 43 41 47
3 42 44 48
3 48 44 42
3 41 49 44
3 44 49 41
3 42 48 45
3 45 48 42
3 50 40 45
3 45 40 50
3 40 50 46
3 46 50 40
3 43 46 47
3 47 46 43
3 41 47 49
3 49 47 41
3 51 48 44
3 44 48 51
3 52 44 49
3 49 44 52
3 45 48 53
3 53 48 45
3 53 50 45
3 45 50 53
3 53 46 50
3 50 46 53
3 47 46 54
3 54 46 47
3 49 47 54
3 54 47 49
3 55 48 51
3 51 48 55
3 44 56 51
3 51 56 44
3 52 56 44
3 44 56 52
3 49 54 52
3 52 54 49
3 55 53 48
3 48 53 55
3 53 57 46
3 46 57 53
3 46 58 54
3 54 58 46
3 51 56 55
3 55 56 51
3 54 56 52
3 52 56 54
3 55 59 53
3 53 59 55
3 57 53 59
3 59 53 57
3 58 46 57
3 57 46 58
3 56 54 58
3 58 54 56
3 59 55 56
3 56 55 59
3 59 56 57
3 57 56 59
3 58 57 56
3 56 57 58
3 60 61 62
3 62 61 60
3 60 63 61
3 61 63 60
3 64 62 61
3 61 62 64
3 62 65 60
3 60 65 62
3 63 60 66
3 66 60 63
3 67 61 63
3 63 61 67
3 62 64 68
3 68 64 62
3 61 69 64
3 64 69 61
3 62 68 65
3 65 68 62
3 70 60 65
3 65 60 70
3 60 70 66
3 66 70 60
3 63 66 67
3 67 66 63
3 61 67 69
3 69 67 61
3 71 68 64
3 64 68 71
3 72 64 69
3 69 64 72
3 65 68 73
3 73 68 65
3 73 70 65
3 65 70 73
3 73 66 70
3 70 66 73
3 67 66 74
3 74 66 67
3 69 67 74
3 74 67 69
3 75 68 71
3 71 68 75
3 64 76 71
3 71 76 64
3 72 76 64
3 64 76 72
3 69 74 72
3 72 74 69
3 75 73 68
3 68 73 75
3 73 77 66
3 66 77 73
3 66 78 74
3 74 78 66
3 71 76 75
3 75 76 71
3 74 76 72
3 72 76 74
3 75 79 73
3 73 79 75
3 77 73 79
3 79 73 77
3 78 66 77
3 77 66 78
3 76 74 78
3 78 74 76
3 79 75 76
3 76 75 79
3 79 76 77
3 77 76 79
3 78 77 76
3 76 77 78
3 80 81 82
3 82 81 80
3 80 83 81
3 81 83 80
3 84 82 81
3 81 82 84
3 82 85 80
3 80 85 82
3 83 80 86
3 86 80 83
3 87 81 83
3 83 81 87
3 82 84 88
3 88 84 82
3 81 89 84
3 84 89 81
3 82 88 85
3 85 88 82
3 90 80 85
3 85 80 90
3 80 90 86
3 86 90 80
3 83 86 87
3 87 86 83
3 81 87 89
3 89 87 81
3 91 88 84
3 84 88 91
3 92 84 89
3 89 84 92
3 85 88 93
3 93 88 85
3 93 90 85
3 85 90 93
3 93 86 90
3 90 86 93
3 87 86 94
3 94 86 87
3 89 87 94
3 94 87 89
3 95 88 91
3 91 88 95
3 84 96 91
3 91 96 84
3 92 96 84
3 84 96 92
3 89 94 92
3 92 94 89
3 95 93 88
3 88 93 95
3 93 97 86
3 86 97 93
3 86 98 94
3 94 98 86
3 91 96 95
3 95 96 91
3 94 96 92
3 92 96 94
3 95 99 93
3 93 99 95
3 97 93 99
3 99 93 97
3 98 86 97
3 97 86 98
3 96 94 98
3 98 94 96
3 99 95 96
3 96 95 99
3 99 96 97
3 97 96 99
3 98 97 96
3 96 97 98
3 100 101 102
3 102 101 100
3 100 103 101
3 101 103 100
3 104 102 101
3 101 102 104
3 102 105 100
3 100 105 102
3 103 100 106
3 106 100 103
3 107 101 103
3 103 101 107
3 102 104 108
3 108 104 102
3 101 109 104
3 104 109 101
3 102 108 105
3 105 108 102
3 110 100 105
3 105 100 110
3 100 110 106
3 106 110 100
3 103 106 107
3 107 106 103
3 101 107 109
3 109 107 101
3 111 108 104
3 104 108 111
3 112 104 109
3 109 104 112
3 105 108 113
3 113 108 105
3 113 110 105
3 105 110 113
3 113 106 110
3 110 106 113
3 107 106 114
3 114 106 107
3 109 107 114
3 114 107 109
3 115 108 111
3 111 108 115
3 104 116 111
3 111 116 104
3 112 116 104
3 104 116 112
3 109 114 112
3 112 114 109
3 115 113 108
3 108 113 115
3 113 117 106
3 106 117 113
3 106 118 114
3 114 118 106
3 111 116 115
3 115 116 111
3 114 116 112
3 112 116 114
3 115 119 113
3 113 119 115
3 117 113 119
3 119 113 117
3 118 106 117
3 117 106 118
3 116 114 118
3 118 114 116
3 119 115 116
3 116 115 119
3 119 116 117
3 117 116 119
3 118 117 116
3 116 117 118
3 120 121 122
3 122 121 120
3 120 123 121
3 121 123 120
3 124 122 121
3 121 122 124
3 122 125 120
3 120 125 122
3 123 120 126
3 126 120 123
3 127 121 123
3 123 121 127
3 122 124 128
3 128 124 122
3 121 129 124
3 124 129 121
3 122 128 125
3 125 128 122
3 130 120 125
3 125 120 130
3 120 130 126
3 126 130 120
3 123 126 127
3 127 126 123
3 121 127 129
3 129 127 121
3 131 128 124
3 124 128 131
3 132 124 129
3 129 124 132
3 125 128 133
3 133 128 125
3 133 130 125
3 125 130 133
3 133 126 130
3 130 126 133
3 127 126 134
3 134 126 127
3 129 127 134
3 134 127 129
3 135 128 131
3 131 128 135
3 124 136 131
3 131 136 124
3 132 136 124
3 124 136 132
3 129 134 132
3 132 134 129
3 135 133 128
3 128 133 135
3 133 137 126
3 126 137 133
3 126 138 134
3 134 138 126
3 131 136 135
3 135 136 131
3 134 136 132
3 132 136 134
3 135 139 133
3 133 139 135
3 137 133 139
3 139 133 137
3 138 126 137
3 137 126 138
3 136 134 138
3 138 134 136
3 139 135 136
3 136 135 139
3 139 136 137
3 137 136 139
3 138 137 136
3 136 137 138
3 140 141 142
3 142 141 140
3 140 143 141
3 141 143 140
3 144 142 141
3 141 142 144
3 142 145 140
3 140 145 142
3 143 140 146
3 146 140 143
3 147 141 143
3 143 141 147
3 142 144 148
3 148 144 142
3 141 149 144
3 144 149 141
3 142 148 145
3 145 148 142
3 150 140 145
3 145 140 150
3 140 150 146
3 146 150 140
3 143 146 147
3 147 146 143
3 141 147 149
3 149 147 141
3 151 148 144
3 144 148 151
3 152 144 149
3 149 144 152
3 145 148 153
3 153 148 145
3 153 150 145
3 145 150 153
3 153 146 150
3 150 146 153
3 147 146 154
3 154 146 147
3 149 147 154
3 154 147 149
3 155 148 151
3 151 148 155
3 144 156 151
3 151 156 144
3 152 156 144
3 144 156 152
3 149 154 152
3 152 154 149
3 155 153 148
3 148 153 155
3 153 157 146
3 146 157 153
3 146 158 154
3 154 158 146
3 151 156 155
3 155 156 151
3 154 156 152
3 152 156 154
3 155 159 153
3 153 159 155
3 157 153 159
3 159 153 157
3 158 146 157
3 157 146 158
3 156 154 158
3 158 154 156
3 159 155 156
3 156 155 159
3 159 156 157
3 157 156 159
3 158 157 156
3 156 157 158
3 160 161 162
3 162 161 160
3 160 163 161
3 161 163 160
3 164 162 161
3 161 162 164
3 162 165 160
3 160 165 162
3 163 160 166
3 166 160 163
3 167 161 163
3 163 161 167
3 162 164 168
3 168 164 162
3 161 169 164
3 164 169 161
3 162 168 165
3 165 168 162
3 170 160 165
3 165 160 170
3 160 170 166
3 166 170 160
3 163 166 167
3 167 166 163
3 161 167 169
3 169 167 161
3 171 168 164
3 164 168 171
3 172 164 169
3 169 164 172
3 165 168 173
3 173 168 165
3 173 170 165
3 165 170 173
3 173 166 170
3 170 166 173
3 167 166 174
3 174 166 167
3 169 167 174
3 174 167 169
3 175 168 171
3 171 168 175
3 164 176 171
3 171 176 164
3 172 176 164
3 164 176 172
3 169 174 172
3 172 174 169
3 175 173 168
3 168 173 175
3 173 177 166
3 166 177 173
3 166 178 174
3 174 178 166
3 171 176 175
3 175 176 171
3 174 176 172
3 172 176 174
3 175 179 173
3 173 179 175
3 177 173 179
3 179 173 177
3 178 166 177
3 177 166 178
3 176 174 178
3 178 174 176
3 179 175 176
3 176 175 179
3 179 176 177
3 177 176 179
3 178 177 176
3 176 177 178
3 180 181 182
3 182 181 180
3 180 183 181
3 181 183 180
3 184 182 181
3 181 182 184
3 182 185 180
3 180 185 182
3 183 180 186
3 186 180 183
3 187 181 183
3 183 181 187
3 182 184 188
3 188 184 182
3 181 189 184
3 184 189 181
3 182 188 185
3 185 188 182
3 190 180 185
3 185 180 190
3 180 190 186
3 186 190 180
3 183 186 187
3 187 186 183
3 181 187 189
3 189 187 181
3 191 188 184
3 184 188 191
3 192 184 189
3 189 184 192
3 185 188 193
3 193 188 185
3 193 190 185
3 185 190 193
3 193 186 190
3 190 186 193
3 187 186 194
3 194 186 187
3 189 187 194
3 194 187 189
3 195 188 191
3 191 188 195
3 184 196 191
3 191 196 184
3 192 196 184
3 184 196 192
3 189 194 192
3 192 194 189
3 195 193 188
3 188 193 195
3 193 197 186
3 186 197 193
3 186 198 194
3 194 198 186
3 191 196 195
3 195 196 191
3 194 196 192
3 192 196 194
3 195 199 193
3 193 199 195
3 197 193 199
3 199 193 197
3 198 186 197
3 197 186 198
3 196 194 198
3 198 194 196
3 199 195 196
3 196 195 199
3 199 196 197
3 197 196 199
3 198 197 196
3 196 197 198
3 200 201 202
3 202 201 200
3 200 203 201
3 201 203 200
3 204 202 201
3 201 202 204
3 202 205 200
3 200 205 202
3 203 200 206
3 206 200 203
3 207 201 203
3 203 201 207
3 202 204 208
3 208 204 202
3 201 209 204
3 204 209 201
3 202 208 205
3 205 208 202
3 210 200 205
3 205 200 210
3 200 210 206
3 206 210 200
3 203 206 207
3 207 206 203
3 201 207 209
3 209 207 201
3 211 208 204
3 204 208 211
3 212 204 209
3 209 204 212
3 205 208 213
3 213 208 205
3 213 210 205
3 205 210 213
3 213 206 210
3 210 206 213
3 207 206 214
3 214 206 207
3 209 207 214
3 214 207 209
3 215 208 211
3 211 208 215
3 204 216 211
3 211 216 204
3 212 216 204
3 204 216 212
3 209 214 212
3 212 214 209
3 215 213 208
3 208 213 215
3 213 217 206
3 206 217 213
3 206 218 214
3 214 218 206
3 211 216 215
3 215 216 211
3 214 216 212
3 212 216 214
3 215 219 213
3 213 219 215
3 217 213 219
3 219 213 217
3 218 206 217
3 217 206 218
3 216 214 218
3 218 214 216
3 219 215 216
3 216 215 219
3 219 216 217
3 217 216 219
3 218 217 216
3 216 217 218
3 220 221 222
3 222 221 220
3 220 223 221
3 221 223 220
3 224 222 221
3 221 222 224
3 222 225 220
3 220 225 222
3 223 220 226
3 226 220 223
3 227 221 223
3 223 221 227
3 222 224 228
3 228 224 222
3 221 229 224
3 224 229 221
3 222 228 225
3 225 228 222
3 230 220 225
3 225 220 230
3 220 230 226
3 226 230 220
3 223 226 227
3 227 226 223
3 221 227 229
3 229 227 221
3 231 228 224
3 224 228 231
3 232 224 229
3 229 224 232
3 225 228 233
3 233 228 225
3 233 230 225
3 225 230 233
3 233 226 230
3 230 226 233
3 227 226 234
3 234 226 227
3 229 227 234
3 234 227 229
3 235 228 231
3 231 228 235
3 224 236 231
3 231 236 224
3 232 236 224
3 224 236 232
3 229 234 232
3 232 234 229
3 235 233 228
3 228 233 235
3 233 237 226
3 226 237 233
3 226 238 234
3 234 238 226
3 231 236 235
3 235 236 231
3 234 236 232
3 232 236 234
3 235 239 233
3 233 239 235
3 237 233 239
3 239 233 237
3 238 226 237
3 237 226 238
3 236 234 238
3 238 234 236
3 239 235 236
3 236 235 239
3 239 236 237
3 237 236 239
3 238 237 236
3 236 237 238
3 240 241 242
3 242 241 240
3 240 243 241
3 241 243 240
3 244 242 241
3 241 242 244
3 242 245 240
3 240 245 242
3 243 240 246
3 246 240 243
3 247 241 243
3 243 241 247
3 242 244 248
3 248 244 242
3 241 249 244
3 244 249 241
3 242 248 245
3 245 248 242
3 250 240 245
3 245 240 250
3 240 250 246
3 246 250 240
3 243 246 247
3 247 246 243
3 241 247 249
3 249 247 241
3 251 248 244
3 244 248 251
3 252 244 249
3 249 244 252
3 245 248 253
3 253 248 245
3 253 250 245
3 245 250 253
3 253 246 250
3 250 246 253
3 247 246 254
3 254 246 247
3 249 247 254
3 254 247 249
3 255 248 251
3 251 248 255
3 244 256 251
3 251 256 244
3 252 256 244
3 244 256 252
3 249 254 252
3 252 254 249
3 255 253 248
3 248 253 255
3 253 257 246
3 246 257 253
3 246 258 254
3 254 258 246
3 251 256 255
3 255 256 251
3 254 256 252
3 252 256 254
3 255 259 253
3 253 259 255
3 257 253 259
3 259 253 257
3 258 246 257
3 257 246 258
3 256 254 258
3 258 254 256
3 259 255 256
3 256 255 259
3 259 256 257
3 257 256 259
3 258 257 256
3 256 257 258
3 260 261 262
3 262 261 260
3 260 263 261
3 261 263 260
3 264 262 261
3 261 262 264
3 262 265 260
3 260 265 262
3 263 260 266
3 266 260 263
3 267 261 263
3 263 261 267
3 262 264 268
3 268 264 262
3 261 269 264
3 264 269 261
3 262 268 265
3 265 268 262
3 270 260 265
3 265 260 270
3 260 270 266
3 266 270 260
3 263 266 267
3 267 266 263
3 261 267 269
3 269 267 261
3 271 268 264
3 264 268 271
3 272 264 269
3 269 264 272
3 265 268 273
3 273 268 265
3 273 270 265
3 265 270 273
3 273 266 270
3 270 266 273
3 267 266 274
3 274 266 267
3 269 267 274
3 274 267 269
3 275 268 271
3 271 268 275
3 264 276 271
3 271 276 264
3 272 276 264
3 264 276 272
3 269 274 272
3 272 274 269
3 275 273 268
3 268 273 275
3 273 277 266
3 266 277 273
3 266 278 274
3 274 278 266
3 271 276 275
3 275 276 271
3 274 276 272
3 272 276 274
3 275 279 273
3 273 279 275
3 277 273 279
3 279 273 277
3 278 266 277
3 277 266 278
3 276 274 278
3 278 274 276
3 279 275 276
3 276 275 279
3 279 276 277
3 277 276 279
3 278 277 276
3 276 277 278
3 280 281 282
3 282 281 280
3 280 283 281
3 281 283 280
3 284 282 281
3 281 282 284
3 282 285 280
3 280 285 282
3 283 280 286
3 286 280 283
3 287 281 283
3 283 281 287
3 282 284 288
3 288 284 282
3 281 289 284
3 284 289 281
3 282 288 285
3 285 288 282
3 290 280 285
3 285 280 290
3 280 290 286
3 286 290 280
3 283 286 287
3 287 286 283
3 281 287 289
3 289 287 281
3 291 288 284
3 284 288 291
3 292 284 289
3 289 284 292
3 285 288 293
3 293 288 285
3 293 290 285
3 285 290 293
3 293 286 290
3 290 286 293
3 287 286 294
3 294 286 287
3 289 287 294
3 294 287 289
3 295 288 291
3 291 288 295
3 284 296 291
3 291 296 284
3 292 296 284
3 284 296 292
3 289 294 292
3 292 294 289
3 295 293 288
3 288 293 295
3 293 297 286
3 286 297 293
3 286 298 294
3 294 298 286
3 291 296 295
3 295 296 291
3 294 296 292
3 292 296 294
3 295 299 293
3 293 299 295
3 297 293 299
3 299 293 297
3 298 286 297
3 297 286 298
3 296 294 298
3 298 294 296
3 299 295 296
3 296 295 299
3 299 296 297
3 297 296 299
3 298 297 296
3 296 297 298
3 300 301 302
3 302 301 300
3 300 303 301
3 301 303 300
3 304 302 301
3 301 302 304
3 302 305 300
3 300 305 302
3 303 300 306
3 306 300 303
3 307 301 303
3 303 301 307
3 302 304 308
3 308 304 302
3 301 309 304
3 304 309 301
3 302 308 305
3 305 308 302
3 310 300 305
3 305 300 310
3 300 310 306
3 306 310 300
3 303 306 307
3 307 306 303
3 301 307 309
3 309 307 301
3 311 308 304
3 304 308 311
3 312 304 309
3 309 304 312
3 305 308 313
3 313 308 305
3 313 310 305
3 305 310 313
3 313 306 310
3 310 306 313
3 307 306 314
3 314 306 307
3 309 307 314
3 314 307 309
3 315 308 311
3 311 308 315
3 304 316 311
3 311 316 304
3 312 316 304
3 304 316 312
3 309 314 312
3 312 314 309
3 315 313 308
3 308 313 315
3 313 317 306
3 306 317 313
3 306 318 314
3 314 318 306
3 311 316 315
3 315 316 311
3 314 316 312
3 312 316 314
3 315 319 313
3 313 319 315
3 317 313 319
3 319 313 317
3 318 306 317
3 317 306 318
3 316 314 318
3 318 314 316
3 319 315 316
3 316 315 319
3 319 316 317
3 317 316 319
3 318 317 316
3 316 317 318
3 320 321 322
3 322 321 320
3 320 323 321
3 321 323 320
3 324 322 321
3 321 322 324
3 322 325 320
3 320 325 322
3 323 320 326
3 326 320 323
3 327 321 323
3 323 321 327
3 322 324 328
3 328 324 322
3 321 329 324
3 324 329 321
3 322 328 325
3 325 328 322
3 330 320 325
3 325 320 330
3 320 330 326
3 326 330 320
3 323 326 327
3 327 326 323
3 321 327 329
3 329 327 321
3 331 328 324
3 324 328 331
3 332 324 329
3 329 324 332
3 325 328 333
3 333 328 325
3 333 330 325
3 325 330 333
3 333 326 330
3 330 326 333
3 327 326 334
3 334 326 327
3 329 327 334
3 334 327 329
3 335 328 331
3 331 328 335
3 324 336 331
3 331 336 324
3 332 336 324
3 324 336 332
3 329 334 332
3 332 334 329
3 335 333 328
3 328 333 335
3 333 337 326
3 326 337 333
3 326 338 334
3 334 338 326
3 331 336 335
3 335 336 331
3 334 336 332
3 332 336 334
3 335 339 333
3 333 339 335
3 337 333 339
3 339 333 337
3 338 326 337
3 337 326 338
3 336 334 338
3 338 334 336
3 339 335 336
3 336 335 339
3 339 336 337
3 337 336 339
3 338 337 336
3 336 337 338
3 340 341 342
3 342 341 340
3 340 343 341
3 341 343 340
3 344 342 341
3 341 342 344
3 342 345 340
3 340 345 342
3 343 340 346
3 346 340 343
3 347 341 343
3 343 341 347
3 342 344 348
3 348 344 342
3 341 349 344
3 344 349 341
3 342 348 345
3 345 348 342
3 350 340 345
3 345 340 350
3 340 350 346
3 346 350 340
3 343 346 347
3 347 346 343
3 341 347 349
3 349 347 341
3 351 348 344
3 344 348 351
3 352 344 349
3 349 344 352
3 345 348 353
3 353 348 345
3 353 350 345
3 345 350 353
3 353 346 350
3 350 346 353
3 347 346 354
3 354 346 347
3 349 347 354
3 354 347 349
3 355 348 351
3 351 348 355
3 344 356 351
3 351 356 344
3 352 356 344
3 344 356 352
3 349 354 352
3 352 354 349
3 355 353 348
3 348 353 355
3 353 357 346
3 346 357 353
3 346 358 354
3 354 358 346
3 351 356 355
3 355 356 351
3 354 356 352
3 352 356 354
3 355 359 353
3 353 359 355
3 357 353 359
3 359 353 357
3 358 346 357
3 357 346 358
3 356 354 358
3 358 354 356
3 359 355 356
3 356 355 359
3 359 356 357
3 357 356 359
3 358 357 356
3 356 357 358
3 360 361 362
3 362 361 360
3 360 363 361
3 361 363 360
3 364 362 361
3 361 362 364
3 362 365 360
3 360 365 362
3 363 360 366
3 366 360 363
3 367 361 363
3 363 361 367
3 362 364 368
3 368 364 362
3 361 369 364
3 364 369 361
3 362 368 365
3 365 368 362
3 370 360 365
3 365 360 370
3 360 370 366
3 366 370 360
3 363 366 367
3 367 366 363
3 361 367 369
3 369 367 361
3 371 368 364
3 364 368 371
3 372 364 369
3 369 364 372
3 365 368 373
3 373 368 365
3 373 370 365
3 365 370 373
3 373 366 370
3 370 366 373
3 367 366 374
3 374 366 367
3 369 367 374
3 374 367 369
3 375 368 371
3 371 368 375
3 364 376 371
3 371 376 364
3 372 376 364
3 364 376 372
3 369 374 372
3 372 374 369
3 375 373 368
3 368 373 375
3 373 377 366
3 366 377 373
3 366 378 374
3 374 378 366
3 371 376 375
3 375 376 371
3 374 376 372
3 372 376 374
3 375 379 373
3 373 379 375
3 377 373 379
3 379 373 377
3 378 366 377
3 377 366 378
3 376 374 378
3 378 374 376
3 379 375 376
3 376 375 379
3 379 376 377
3 377 376 379
3 378 377 376
3 376 377 378
3 380 381 382
3 382 381 380
3 380 383 381
3 381 383 380
3 384 382 381
3 381 382 384
3 382 385 380
3 380 385 382
3 383 380 386
3 386 380 383
3 387 381 383
3 383 381 387
3 382 384 388
3 388 384 382
3 381 389 384
3 384 389 381
3 382 388 385
3 385 388 382
3 390 380 385
3 385 380 390
3 380 390 386
3 386 390 380
3 383 386 387
3 387 386 383
3 381 387 389
3 389 387 381
3 391 388 384
3 384 388 391
3 392 384 389
3 389 384 392
3 385 388 393
3 393 388 385
3 393 390 385
3 385 390 393
3 393 386 390
3 390 386 393
3 387 386 394
3 394 386 387
3 389 387 394
3 394 387 389
3 395 388 391
3 391 388 395
3 384 396 391
3 391 396 384
3 392 396 384
3 384 396 392
3 389 394 392
3 392 394 389
3 395 393 388
3 388 393 395
3 393 397 386
3 386 397 393
3 386 398 394
3 394 398 386
3 391 396 395
3 395 396 391
3 394 396 392
3 392 396 394
3 395 399 393
3 393 399 395
3 397 393 399
3 399 393 397
3 398 386 397
3 397 386 398
3 396 394 398
3 398 394 396
3 399 395 396
3 396 395 399
3 399 396 397
3 397 396 399
3 398 397 396
3 396 397 398
3 400 401 402
3 402 401 400
3 400 403 401
3 401 403 400
3 404 402 401
3 401 402 404
3 402 405 400
3 400 405 402
3 403 400 406
3 406 400 403
3 407 401 403
3 403 401 407
3 402 404 408
3 408 404 402
3 401 409 404
3 404 409 401
3 402 408 405
3 405 408 402
3 410 400 405
3 405 400 410
3 400 410 406
3 406 410 400
3 403 406 407
3 407 406 403
3 401 407 409
3 409 407 401
3 411 408 404
3 404 408 411
3 412 404 409
3 409 404 412
3 405 408 413
3 413 408 405
3 413 410 405
3 405 410 413
3 413 406 410
3 410 406 413
3 407 406 414
3 414 406 407
3 409 407 414
3 414 407 409
3 415 408 411
3 411 408 415
3 404 416 411
3 411 416 404
3 412 416 404
3 404 416 412
3 409 414 412
3 412 414 409
3 415 413 408
3 408 413 415
3 413 417 406
3 406 417 413
3 406 418 414
3 414 418 406
3 411 416 415
3 415 416 411
3 414 416 412
3 412 416 414
3 415 419 413
3 413 419 415
3 417 413 419
3 419 413 417
3 418 406 417
3 417 406 418
3 416 414 418
3 418 414 416
3 419 415 416
3 416 415 419
3 419 416 417
3 417 416 419
3 418 417 416
3 416 417 418
3 420 421 422
3 422 421 420
3 420 423 421
3 421 423 420
3 424 422 421
3 421 422 424
3 422 425 420
3 420 425 422
3 423 420 426
3 426 420 423
3 427 421 423
3 423 421 427
3 422 424 428
3 428 424 422
3 421 429 424
3 424 429 421
3 422 428 425
3 425 428 422
3 430 420 425
3 425 420 430
3 420 430 426
3 426 430 420
3 423 426 427
3 427 426 423
3 421 427 429
3 429 427 421
3 431 428 424
3 424 428 431
3 432 424 429
3 429 424 432
3 425 428 433
3 433 428 425
3 433 430 425
3 425 430 433
3 433 426 430
3 430 426 433
3 427 426 434
3 434 426 427
3 429 427 434
3 434 427 429
3 435 428 431
3 431 428 435
3 424 436 431
3 431 436 424
3 432 436 424
3 424 436 432
3 429 434 432
3 432 434 429
3 435 433 428
3 428 433 435
3 433 437 426
3 426 437 433
3 426 438 434
3 434 438 426
3 431 436 435
3 435 436 431
3 434 436 432
3 432 436 434
3 435 439 433
3 433 439 435
3 437 433 439
3 439 433 437
3 438 426 437
3 437 426 438
3 436 434 438
3 438 434 436
3 439 435 436
3 436 435 439
3 439 436 437
3 437 436 439
3 438 437 436
3 436 437 438
3 440 441 442
3 442 441 440
3 440 443 441
3 441 443 440
3 444 442 441
3 441 442 444
3 442 445 440
3 440 445 442
3 443 440 446
3 446 440 443
3 447 441 443
3 443 441 447
3 442 444 448
3 448 444 442
3 441 449 444
3 444 449 441
3 442 448 445
3 445 448 442
3 450 440 445
3 445 440 450
3 440 450 446
3 446 450 440
3 443 446 447
3 447 446 443
3 441 447 449
3 449 447 441
3 451 448 444
3 444 448 451
3 452 444 449
3 449 444 452
3 445 448 453
3 453 448 445
3 453 450 445
3 445 450 453
3 453 446 450
3 450 446 453
3 447 446 454
3 454 446 447
3 449 447 454
3 454 447 449
3 455 448 451
3 451 448 455
3 444 456 451
3 451 456 444
3 452 456 444
3 444 456 452
3 449 454 452
3 452 454 449
3 455 453 448
3 448 453 455
3 453 457 446
3 446 457 453
3 446 458 454
3 454 458 446
3 451 456 455
3 455 456 451
3 454 456 452
3 452 456 454
3 455 459 453
3 453 459 455
3 457 453 459
3 459 453 457
3 458 446 457
3 457 446 458
3 456 454 458
3 458 454 456
3 459 455 456
3 456 455 459
3 459 456 457
3 457 456 459
3 458 457 456
3 456 457 458
3 460 461 462
3 462 461 460
3 460 463 461
3 461 463 460
3 464 462 461
3 461 462 464
3 462 465 460
3 460 465 462
3 463 460 466
3 466 460 463
3 467 461 463
3 463 461 467
3 462 464 468
3 468 464 462
3 461 469 464
3 464 469 461
3 462 468 465
3 465 468 462
3 470 460 465
3 465 460 470
3 460 470 466
3 466 470 460
3 463 466 467
3 467 466 463
3 461 467 469
3 469 467 461
3 471 468 464
3 464 468 471
3 472 464 469
3 469 464 472
3 465 468 473
3 473 468 465
3 473 470 465
3 465 470 473
3 473 466 470
3 470 466 473
3 467 466 474
3 474 466 467
3 469 467 474
3 474 467 469
3 475 468 471
3 471 468 475
3 464 476 471
3 471 476 464
3 472 476 464
3 464 476 472
3 469 474 472
3 472 474 469
3 475 473 468
3 468 473 475
3 473 477 466
3 466 477 473
3 466 478 474
3 474 478 466
3 471 476 475
3 475 476 471
3 474 476 472
3 472 476 474
3 475 479 473
3 473 479 475
3 477 473 479
3 479 473 477
3 478 466 477
3 477 466 478
3 476 474 478
3 478 474 476
3 479 475 476
3 476 475 479
3 479 476 477
3 477 476 479
3 478 477 476
3 476 477 478
3 480 481 482
3 482 481 480
3 480 483 481
3 481 483 480
3 484 482 481
3 481 482 484
3 482 485 480
3 480 485 482
3 483 480 486
3 486 480 483
3 487 481 483
3 483 481 487
3 482 484 488
3 488 484 482
3 481 489 484
3 484 489 481
3 482 488 485
3 485 488 482
3 490 480 485
3 485 480 490
3 480 490 486
3 486 490 480
3 483 486 487
3 487 486 483
3 481 487 489
3 489 487 481
3 491 488 484
3 484 488 491
3 492 484 489
3 489 484 492
3 485 488 493
3 493 488 485
3 493 490 485
3 485 490 493
3 493 486 490
3 490 486 493
3 487 486 494
3 494 486 487
3 489 487 494
3 494 487 489
3 495 488 491
3 491 488 495
3 484 496 491
3 491 496 484
3 492 496 484
3 484 496 492
3 489 494 492
3 492 494 489
3 495 493 488
3 488 493 495
3 493 497 486
3 486 497 493
3 486 498 494
3 494 498 486
3 491 496 495
3 495 496 491
3 494 496 492
3 492 496 494
3 495 499 493
3 493 499 495
3 497 493 499
3 499 493 497
3 498 486 497
3 497 486 498
3 496 494 498
3 498 494 496
3 499 495 496
3 496 495 499
3 499 496 497
3 497 496 499
3 498 497 496
3 496 497 498
3 500 501 502
3 502 501 500
3 500 503 501
3 501 503 500
3 504 502 501
3 501 502 504
3 502 505 500
3 500 505 502
3 503 500 506
3 506 500 503
3 507 501 503
3 503 501 507
3 502 504 508
3 508 504 502
3 501 509 504
3 504 509 501
3 502 508 505
3 505 508 502
3 510 500 505
3 505 500 510
3 500 510 506
3 506 510 500
3 503 506 507
3 507 506 503
3 501 507 509
3 509 507 501
3 511 508 504
3 504 508 511
3 512 504 509
3 509 504 512
3 505 508 513
3 513 508 505
3 513 510 505
3 505 510 513
3 513 506 510
3 510 506 513
3 507 506 514
3 514 506 507
3 509 507 514
3 514 507 509
3 515 508 511
3 511 508 515
3 504 516 511
3 511 516 504
3 512 516 504
3 504 516 512
3 509 514 512
3 512 514 509
3 515 513 508
3 508 513 515
3 513 517 506
3 506 517 513
3 506 518 514
3 514 518 506
3 511 516 515
3 515 516 511
3 514 516 512
3 512 516 514
3 515 519 513
3 513 519 515
3 517 513 519
3 519 513 517
3 518 506 517
3 517 506 518
3 516 514 518
3 518 514 516
3 519 515 516
3 516 515 519
3 519 516 517
3 517 516 519
3 518 517 516
3 516 517 518
3 520 521 522
3 522 521 520
3 520 523 521
3 521 523 520
3 524 522 521
3 521 522 524
3 522 525 520
3 520 525 522
3 523 520 526
3 526 520 523
3 527 521 523
3 523 521 527
3 522 524 528
3 528 524 522
3 521 529 524
3 524 529 521
3 522 528 525
3 525 528 522
3 530 520 525
3 525 520 530
3 520 530 526
3 526 530 520
3 523 526 527
3 527 526 523
3 521 527 529
3 529 527 521
3 531 528 524
3 524 528 531
3 532 524 529
3 529 524 532
3 525 528 533
3 533 528 525
3 533 530 525
3 525 530 533
3 533 526 530
3 530 526 533
3 527 526 534
3 534 526 527
3 529 527 534
3 534 527 529
3 535 528 531
3 531 528 535
3 524 536 531
3 531 536 524
3 532 536 524
3 524 536 532
3 529 534 532
3 532 534 529
3 535 533 528
3 528 533 535
3 533 537 526
3 526 537 533
3 526 538 534
3 534 538 526
3 531 536 535
3 535 536 531
3 534 536 532
3 532 536 534
3 535 539 533
3 533 539 535
3 537 533 539
3 539 533 537
3 538 526 537
3 537 526 538
3 536 534 538
3 538 534 536
3 539 535 536
3 536 535 539
3 539 536 537
3 537 536 539
3 538 537 536
3 536 537 538
3 540 541 542
3 541 540 543
3 542 541 540
3 543 540 541
3 541 544 542
3 542 544 541
3 542 545 540
3 540 545 542
3 545 543 540
3 540 543 545
3 546 541 543
3 543 541 546
3 547 544 541
3 541 544 547
3 548 542 544
3 544 542 548
3 549 545 542
3 542 545 549
3 543 545 546
3 546 545 543
3 546 550 541
3 541 550 546
3 544 547 551
3 551 547 544
3 541 550 547
3 547 550 541
3 552 542 548
3 548 542 552
3 544 553 548
3 548 553 544
3 554 545 549
3 549 545 554
3 549 542 555
3 555 542 549
3 556 546 545
3 545 546 556
3 557 550 546
3 546 550 557
3 547 558 551
3 551 558 547
3 551 559 544
3 544 559 551
3 547 550 560
3 560 550 547
3 542 552 555
3 555 552 542
3 553 552 548
3 548 552 553
3 559 553 544
3 544 553 559
3 545 554 556
3 556 554 545
3 561 554 549
3 549 554 561
3 555 562 549
3 549 562 555
3 546 556 557
3 557 556 546
3 563 550 557
3 557 550 563
3 558 547 560
3 560 547 558
3 559 551 558
3 558 551 559
3 550 558 560
3 560 558 550
3 564 555 552
3 552 555 564
3 552 553 564
3 564 553 552
3 565 553 559
3 559 553 565
3 554 557 556
3 556 557 554
3 561 566 554
3 554 566 561
3 549 567 561
3 561 567 549
3 555 564 562
3 562 564 555
3 562 553 549
3 549 553 562
3 563 568 550
3 550 568 563
3 557 554 563
3 563 554 557
3 558 550 559
3 559 550 558
3 553 562 564
3 564 562 553
3 569 553 565
3 565 553 569
3 565 559 570
3 570 559 565
3 571 566 561
3 561 566 571
3 566 563 554
3 554 563 566
3 567 549 553
3 553 549 567
3 572 561 567
3 567 561 572
3 573 568 563
3 563 568 573
3 570 550 568
3 568 550 570
3 570 559 550
3 550 559 570
3 567 553 569
3 569 553 567
3 565 574 569
3 569 574 565
3 575 565 570
3 570 565 575
3 571 576 566
3 566 576 571
3 561 572 571
3 571 572 561
3 563 566 573
3 573 566 563
3 569 572 567
3 567 572 569
3 573 577 568
3 568 577 573
3 577 570 568
3 568 570 577
3 578 574 565
3 565 574 578
3 579 569 574
3 574 569 579
3 565 575 578
3 578 575 565
3 570 577 575
3 575 577 570
3 571 579 576
3 576 579 571
3 580 566 576
3 576 566 580
3 572 581 571
3 571 581 572
3 580 573 566
3 566 573 580
3 572 569 582
3 582 569 572
3 583 577 573
3 573 577 583
3 574 578 584
3 584 578 574
3 581 569 579
3 579 569 581
3 585 579 574
3 574 579 585
3 575 584 578
3 578 584 575
3 584 575 577
3 577 575 584
3 579 571 581
3 581 571 579
3 579 586 576
3 576 586 579
3 576 587 580
3 580 587 576
3 581 572 582
3 582 572 581
3 573 580 587
3 587 580 573
3 569 581 582
3 582 581 569
3 574 577 583
3 583 577 574
3 587 583 573
3 573 583 587
3 577 574 584
3 584 574 577
3 579 585 588
3 588 585 579
3 583 585 574
3 574 585 583
3 586 579 588
3 588 579 586
3 586 585 576
3 576 585 586
3 587 576 583
3 583 576 587
3 585 586 588
3 588 586 585
3 576 585 583
3 583 585 576
