ply
format ascii 1.0
comment Generated by PyMesh
element vertex 163
property double x
property double y
property double z
element face 664
property list uchar int vertex_indices
end_header
0.204349 0.00952527 -2.6708e-07
-0.132909 0.00952527 -0.344849
-0.132909 0.00952527 -2.6708e-07
0.204349 0.00952527 -0.344849
0.204349 0.00952527 0.344849
-0.132909 0.0203338 -0.027499
0.204349 0.0203338 0.027499
0.204349 0.0203338 -0.31735
0.204349 -0.186936 0.416289
0.204349 0.0144238 -0.344849
-0.132909 0.00952527 0.344849
0.204349 0.0203338 -0.027499
-0.132909 0.0203338 0.027499
0.204349 -0.186936 -0.416289
-0.132909 0.0203338 -0.31735
-0.132909 0.151216 -0.344849
0.204349 0.151216 -0.416289
-0.132909 0.0203338 0.317349
-0.132909 0.151216 0.344849
-0.132909 0.0208657 0.340591
0.204349 0.0203338 0.317349
0.204349 0.151216 0.416289
-0.132909 0.0292466 -0.0556697
0.204349 0.0292466 0.0556697
0.204349 0.0292466 -0.289179
0.150285 -0.186936 -0.416289
0.204349 0.145179 -0.344849
0.204349 0.151216 0.344849
0.204349 0.0208657 0.340591
0.150285 -0.064296 0.416289
0.204349 0.0292466 -0.0556697
-0.132909 0.0292466 0.0556697
0.150285 -0.064296 -0.416289
0.150285 -0.186936 0.416289
-0.132909 0.0292466 -0.289179
0.204349 0.151216 -0.344849
0.204349 0.0195535 -0.342388
-0.204349 0.0144238 -0.344849
0.204349 0.151216 -0.347745
-0.132909 0.0292466 0.289179
-0.134126 0.160461 0.346066
-0.132909 0.139875 0.340591
0.204349 0.0324595 0.337084
0.204349 0.0292466 0.289179
0.204349 0.160461 0.346066
-0.204349 0.151216 0.416289
-0.132909 0.036222 -0.0843822
0.204349 0.036222 0.0843811
0.204349 0.036222 -0.260467
-0.204349 0.151216 -0.416289
-0.132909 0.036222 -0.260467
-0.134126 0.160461 -0.346066
0.204349 0.0311184 -0.337956
-0.204349 0.0195535 -0.342388
-0.204349 0.145179 -0.344849
0.204349 0.160461 -0.415072
-0.132909 0.0324595 0.337084
0.204349 0.139875 0.340591
0.204349 0.160461 0.415072
-0.203132 0.160461 0.415072
-0.103254 -0.064296 0.416289
0.204349 0.036222 -0.0843822
-0.132909 0.036222 0.0843811
-0.103254 -0.064296 -0.416289
-0.203132 0.160461 -0.415072
-0.132909 0.0412273 -0.231347
0.204349 0.160461 -0.346066
0.204349 0.0430046 -0.334478
-0.204349 0.0311184 -0.337956
0.204349 0.140049 -0.342388
-0.132909 0.036222 0.260467
-0.137695 0.169076 0.349634
-0.137695 0.169076 -0.349634
0.204349 0.128281 0.337084
-0.132909 0.128281 0.337084
0.204349 0.0442573 0.33434
0.204349 0.036222 0.260467
0.204349 0.169076 0.349634
-0.103254 -0.186936 0.416289
-0.132909 0.0412273 -0.113502
0.204349 0.0412273 0.113501
0.204349 0.0412273 -0.231347
-0.103254 -0.186936 -0.416289
-0.132909 0.0442401 -0.201954
0.204349 0.169076 -0.349634
0.204349 0.0551342 -0.331978
-0.204349 0.0430046 -0.334478
-0.204349 -0.186936 -0.416289
-0.204349 0.140049 -0.342388
0.204349 0.128485 -0.337956
-0.204349 -0.186936 0.416289
0.204349 0.169076 -0.411504
-0.199564 0.169076 -0.411504
-0.132909 0.0442573 0.33434
0.204349 0.116484 0.33434
-0.132909 0.116484 0.33434
0.204349 0.0562096 0.332372
0.204349 0.169076 0.411503
0.204349 0.0412273 -0.113502
-0.132909 0.0412273 0.113501
-0.132909 0.0452454 -0.172424
0.204349 0.0442401 -0.201954
0.204349 0.0674272 -0.330471
-0.204349 0.0551342 -0.331978
0.204349 0.116598 -0.334478
-0.132909 0.0412273 0.231347
-0.143371 0.176473 0.355311
-0.143371 0.176473 -0.355311
0.204349 0.176473 -0.355311
0.204349 0.104532 0.332372
-0.132909 0.104532 0.332372
0.204349 0.0682642 0.331187
0.204349 0.0412273 0.231347
0.204349 0.176473 0.355311
-0.199564 0.169076 0.411503
-0.132909 0.0442401 -0.142895
0.204349 0.0442401 0.142894
-0.132909 0.0452454 0.172424
0.204349 0.0452454 -0.172424
0.204349 0.176473 -0.405827
0.204349 0.0798013 -0.329967
-0.204349 0.0674272 -0.330471
-0.204349 0.128485 -0.337956
0.204349 0.104468 -0.331978
-0.193887 0.176473 -0.405827
-0.132909 0.0442401 0.201954
0.204349 0.0924772 0.331187
-0.132909 0.0924772 0.331187
-0.132909 0.0562096 0.332372
0.204349 0.0803704 0.330792
0.204349 0.176473 0.405827
0.204349 0.0442401 -0.142895
-0.132909 0.0442401 0.142894
0.204349 0.092176 -0.330471
-0.204349 0.0798013 -0.329967
-0.204349 0.116598 -0.334478
0.204349 0.18215 0.362709
-0.150769 0.18215 -0.362709
0.204349 0.18215 -0.398429
-0.132909 0.0803704 0.330792
-0.132909 0.0682642 0.331187
0.204349 0.0442401 0.201954
-0.193887 0.176473 0.405827
0.204349 0.0452454 0.172424
-0.204349 0.092176 -0.330471
-0.204349 0.104468 -0.331978
-0.150769 0.18215 0.362709
0.204349 0.18215 -0.362709
0.204349 0.18215 0.398429
-0.186489 0.18215 0.398429
-0.186489 0.18215 -0.398429
0.204349 0.185719 0.371324
-0.159384 0.185719 -0.371324
0.204349 0.185719 -0.389814
-0.159384 0.185719 0.371324
0.204349 0.185719 -0.371324
0.204349 0.185719 0.389814
-0.177874 0.185719 0.389814
-0.177874 0.185719 -0.389814
0.204349 0.186936 0.380569
-0.168629 0.186936 -0.380569
0.204349 0.186936 -0.380569
-0.168629 0.186936 0.380569
3 0 1 2
3 1 0 3
3 2 1 0
3 3 0 1
3 2 4 0
3 0 4 2
3 3 0 7
3 3 8 0
3 3 1 9
3 4 2 10
3 10 2 4
3 0 4 6
3 0 8 4
3 2 12 5
3 11 7 0
3 8 3 13
3 15 9 1
3 9 16 3
3 10 4 18
3 20 6 4
3 21 4 8
3 22 5 12
3 24 7 11
3 16 13 3
3 13 25 8
3 1 14 15
3 9 15 26
3 26 16 9
3 10 19 17
3 27 18 4
3 23 6 20
3 27 4 21
3 8 29 21
3 31 22 12
3 30 24 11
3 13 16 32
3 33 8 25
3 13 32 25
3 34 15 14
3 35 26 15
3 9 36 26
3 37 26 9
3 9 26 37
3 38 16 26
3 39 17 19
3 4 27 28
3 43 23 20
3 27 21 44
3 45 21 29
3 29 8 33
3 46 22 31
3 48 24 30
3 49 32 16
3 25 32 33
3 50 15 34
3 26 35 38
3 52 26 36
3 26 37 54
3 54 37 26
3 16 38 55
3 56 39 19
3 18 15 41
3 42 28 27
3 47 23 43
3 60 45 29
3 29 33 32
3 62 46 31
3 61 48 30
3 63 32 49
3 65 15 50
3 35 66 38
3 67 26 52
3 55 38 66
3 70 39 56
3 57 73 27
3 41 15 74
3 75 42 27
3 76 47 43
3 78 45 60
3 60 29 63
3 32 63 29
3 79 46 62
3 81 48 61
3 83 15 65
3 85 26 67
3 69 26 89
3 91 55 66
3 93 70 56
3 73 94 27
3 74 15 95
3 96 75 27
3 80 47 76
3 90 45 78
3 60 63 78
3 99 79 62
3 98 81 61
3 82 78 63
3 100 15 83
3 84 91 66
3 102 26 85
3 89 26 104
3 105 70 93
3 94 109 27
3 95 15 110
3 111 96 27
3 112 80 76
3 115 79 99
3 101 81 98
3 117 15 100
3 119 91 84
3 120 26 102
3 104 26 123
3 125 105 93
3 108 119 84
3 109 126 27
3 110 15 127
3 129 111 27
3 116 80 112
3 132 115 99
3 131 101 98
3 128 15 117
3 117 100 132
3 118 101 131
3 133 26 120
3 123 26 133
3 117 125 93
3 138 119 108
3 126 129 27
3 127 15 139
3 128 117 93
3 141 116 112
3 100 115 132
3 140 15 128
3 147 138 108
3 139 15 140
3 143 116 141
3 153 138 147
3 155 153 147
3 161 153 155
3 2 5 0
3 0 6 2
3 3 7 1
3 11 0 5
3 12 2 6
3 14 1 7
3 10 17 4
3 10 4 19
3 5 22 11
3 6 23 12
3 7 24 14
3 20 4 17
3 28 19 4
3 30 11 22
3 31 12 23
3 34 14 24
3 17 39 20
3 18 41 27
3 28 42 19
3 22 46 30
3 23 47 31
3 24 48 34
3 36 9 53
3 37 53 9
3 43 20 39
3 57 27 41
3 56 19 42
3 58 44 21
3 61 30 46
3 62 31 47
3 50 34 48
3 52 36 68
3 53 68 36
3 26 69 54
3 39 70 43
3 41 74 57
3 42 75 56
3 77 44 58
3 46 79 61
3 47 80 62
3 82 63 49
3 65 50 81
3 48 81 50
3 67 52 86
3 68 86 52
3 88 54 69
3 76 43 70
3 73 57 74
3 93 56 75
3 97 77 58
3 98 61 79
3 99 62 80
3 87 82 49
3 83 65 101
3 81 101 65
3 85 67 103
3 86 103 67
3 69 89 88
3 70 105 76
3 94 73 95
3 74 95 73
3 75 96 93
3 113 77 97
3 90 78 87
3 79 115 98
3 80 116 99
3 82 87 78
3 100 83 118
3 101 118 83
3 102 85 121
3 103 121 85
3 122 88 89
3 89 104 122
3 112 76 105
3 109 94 110
3 95 110 94
3 128 93 96
3 96 111 128
3 130 113 97
3 131 98 115
3 132 99 116
3 118 131 100
3 120 102 134
3 121 134 102
3 104 123 135
3 135 122 104
3 105 125 112
3 126 109 127
3 110 127 109
3 140 128 111
3 111 129 140
3 136 113 130
3 115 100 131
3 116 143 132
3 117 132 143
3 133 120 144
3 134 144 120
3 123 133 145
3 145 135 123
3 141 112 125
3 125 117 141
3 129 126 139
3 127 139 126
3 139 140 129
3 148 136 130
3 143 141 117
3 144 145 133
3 151 136 148
3 156 151 148
3 159 151 156
3 7 0 3
3 6 4 0
3 5 12 2
3 0 7 11
3 18 4 10
3 4 6 20
3 12 5 22
3 11 7 24
3 15 14 1
3 17 19 10
3 4 18 27
3 20 6 23
3 12 22 31
3 11 24 30
3 14 15 34
3 26 36 9
3 19 17 39
3 28 27 4
3 20 23 43
3 31 22 46
3 30 24 48
3 34 15 50
3 36 26 52
3 55 38 16
3 19 39 56
3 41 15 18
3 27 28 42
3 43 23 47
3 31 46 62
3 30 48 61
3 50 15 65
3 38 66 35
3 52 26 67
3 54 37 49
3 53 45 37
3 66 38 55
3 56 39 70
3 27 73 57
3 74 15 41
3 27 42 75
3 43 47 76
3 62 46 79
3 61 48 81
3 65 15 83
3 67 26 85
3 68 45 53
3 49 37 87
3 49 45 54
3 89 26 69
3 90 37 45
3 66 55 91
3 56 70 93
3 27 94 73
3 95 15 74
3 27 75 96
3 76 47 80
3 62 79 99
3 61 81 98
3 83 15 100
3 66 91 84
3 85 26 102
3 86 45 68
3 90 87 37
3 54 45 88
3 104 26 89
3 93 70 105
3 27 109 94
3 110 15 95
3 27 96 111
3 76 80 112
3 99 79 115
3 98 81 101
3 100 15 117
3 84 91 119
3 102 26 120
3 103 45 86
3 88 45 122
3 123 26 104
3 93 105 125
3 84 119 108
3 27 126 109
3 127 15 110
3 27 111 129
3 112 80 116
3 99 115 132
3 98 101 131
3 117 15 128
3 132 100 117
3 131 101 118
3 120 26 133
3 121 45 103
3 122 45 135
3 133 26 123
3 93 125 117
3 108 119 138
3 27 129 126
3 139 15 127
3 93 117 128
3 112 116 141
3 132 115 100
3 128 15 140
3 134 45 121
3 135 45 145
3 108 138 147
3 140 15 139
3 141 116 143
3 144 45 134
3 145 45 144
3 147 138 153
3 147 153 155
3 155 153 161
3 0 5 2
3 2 6 0
3 1 7 3
3 5 0 11
3 6 2 12
3 7 1 14
3 4 17 10
3 19 4 10
3 11 22 5
3 12 23 6
3 14 24 7
3 17 4 20
3 4 19 28
3 22 11 30
3 23 12 31
3 24 14 34
3 20 39 17
3 40 27 18
3 18 27 40
3 27 41 18
3 19 42 28
3 30 46 22
3 31 47 23
3 34 48 24
3 35 51 15
3 53 9 36
3 9 53 37
3 39 20 43
3 27 40 44
3 44 40 27
3 18 51 40
3 40 51 18
3 41 27 57
3 42 19 56
3 21 59 45
3 45 59 21
3 46 30 61
3 47 31 62
3 64 16 49
3 48 34 50
3 51 35 66
3 51 18 15
3 15 18 51
3 68 36 52
3 36 68 53
3 54 69 26
3 16 64 55
3 43 70 39
3 71 44 40
3 40 44 71
3 72 40 51
3 51 40 72
3 57 74 41
3 56 75 42
3 59 21 58
3 58 21 59
3 64 45 59
3 59 45 64
3 61 79 46
3 62 80 47
3 45 64 49
3 49 64 45
3 81 50 65
3 50 81 48
3 84 51 66
3 86 52 67
3 52 86 68
3 69 54 88
3 92 55 64
3 70 43 76
3 44 71 77
3 77 71 44
3 40 72 71
3 71 72 40
3 51 84 72
3 74 57 73
3 75 56 93
3 97 59 58
3 58 59 97
3 59 92 64
3 64 92 59
3 79 61 98
3 80 62 99
3 101 65 83
3 65 101 81
3 103 67 85
3 67 103 86
3 88 89 69
3 55 92 91
3 76 105 70
3 106 77 71
3 71 77 106
3 107 71 72
3 72 71 107
3 108 72 84
3 95 73 94
3 73 95 74
3 93 96 75
3 59 97 114
3 114 97 59
3 92 59 114
3 114 59 92
3 98 115 79
3 99 116 80
3 118 83 100
3 83 118 101
3 121 85 102
3 85 121 103
3 89 88 122
3 122 104 89
3 124 91 92
3 105 76 112
3 77 106 113
3 113 106 77
3 71 107 106
3 106 107 71
3 72 108 107
3 110 94 109
3 94 110 95
3 96 93 128
3 128 111 96
3 130 114 97
3 97 114 130
3 114 124 92
3 92 124 114
3 115 98 131
3 116 99 132
3 100 131 118
3 91 124 119
3 134 102 120
3 102 134 121
3 135 123 104
3 104 122 135
3 112 125 105
3 106 136 113
3 113 136 106
3 137 106 107
3 107 106 137
3 108 137 107
3 127 109 126
3 109 127 110
3 111 128 140
3 140 129 111
3 114 130 142
3 142 130 114
3 124 114 142
3 142 114 124
3 131 100 115
3 132 143 116
3 143 132 117
3 124 138 119
3 144 120 133
3 120 144 134
3 145 133 123
3 123 135 145
3 125 112 141
3 141 117 125
3 136 106 146
3 146 106 136
3 106 137 146
3 146 137 106
3 137 108 147
3 139 126 129
3 126 139 127
3 129 140 139
3 130 149 142
3 142 149 130
3 149 124 142
3 142 124 149
3 117 141 143
3 138 124 150
3 133 145 144
3 146 151 136
3 136 151 146
3 152 146 137
3 137 146 152
3 147 152 137
3 149 130 148
3 148 130 149
3 124 149 150
3 150 149 124
3 150 153 138
3 151 146 154
3 154 146 151
3 146 152 154
3 154 152 146
3 152 147 155
3 148 157 149
3 149 157 148
3 157 150 149
3 149 150 157
3 153 150 158
3 154 159 151
3 151 159 154
3 160 154 152
3 152 154 160
3 155 160 152
3 157 148 156
3 156 148 157
3 150 157 158
3 158 157 150
3 158 161 153
3 159 154 162
3 162 154 159
3 154 160 162
3 162 160 154
3 160 155 161
3 162 156 159
3 159 156 162
3 156 162 157
3 157 162 156
3 162 158 157
3 157 158 162
3 161 158 160
3 158 162 160
3 160 162 158
3 0 8 3
3 4 8 0
3 13 3 8
3 3 16 9
3 8 4 21
3 3 13 16
3 8 25 13
3 9 16 26
3 21 4 27
3 21 29 8
3 32 16 13
3 25 8 33
3 25 32 13
3 26 16 38
3 29 21 45
3 33 8 29
3 16 32 49
3 33 32 25
3 38 35 26
3 29 45 60
3 32 33 29
3 49 32 63
3 49 37 54
3 37 45 53
3 60 45 78
3 63 29 60
3 29 63 32
3 53 45 68
3 87 37 49
3 54 45 49
3 45 37 90
3 78 45 90
3 78 63 60
3 63 78 82
3 68 45 86
3 37 87 90
3 88 45 54
3 86 45 103
3 122 45 88
3 103 45 121
3 135 45 122
3 121 45 134
3 145 45 135
3 134 45 144
3 144 45 145
3 49 63 82
3 49 82 87
3 87 78 90
3 78 87 82
3 9 1 3
3 1 9 15
3 26 15 9
3 15 26 35
3 44 21 27
3 15 51 35
3 21 44 58
3 49 16 64
3 66 35 51
3 55 64 16
3 58 44 77
3 66 51 84
3 64 55 92
3 72 84 51
3 58 77 97
3 91 92 55
3 84 72 108
3 97 77 113
3 92 91 124
3 107 108 72
3 97 113 130
3 119 124 91
3 107 137 108
3 130 113 136
3 119 138 124
3 147 108 137
3 130 136 148
3 150 124 138
3 137 152 147
3 148 136 151
3 138 153 150
3 155 147 152
3 148 151 156
3 158 150 153
3 152 160 155
3 156 151 159
3 153 161 158
3 161 155 160
3 160 158 161
