ply
format ascii 1.0
comment Generated by PyMesh
element vertex 702
property double x
property double y
property double z
element face 2066
property list uchar int vertex_indices
end_header
-0.171907 -0.115655 -0.33586
-0.169022 -0.11468 0.33586
-0.171907 -0.115655 0.33586
-0.169022 -0.11468 -0.33586
-0.175003 -0.115988 -0.33586
-0.166544 -0.113127 -0.33586
-0.175003 -0.115988 0.33586
-0.166544 -0.113127 0.33586
-0.178099 -0.115655 -0.33586
-0.164644 -0.111105 -0.33586
-0.178099 -0.115655 0.33586
-0.164644 -0.111105 0.33586
-0.180984 -0.11468 -0.33586
-0.164644 -0.111105 -0.334618
-0.180984 -0.11468 0.33586
-0.163449 -0.10875 -0.33586
-0.164644 -0.111105 -0.318557
-0.183461 -0.113127 0.33586
0.151896 -0.10875 -0.335544
-0.163449 -0.10875 -0.335544
-0.165876 -0.10875 -0.335544
-0.164644 -0.111105 0.318872
-0.183461 -0.113127 -0.33586
0.153091 -0.111105 -0.334618
-0.165876 -0.111105 -0.334618
-0.164644 -0.111105 0.334933
-0.185362 -0.111105 0.33586
0.16345 -0.10875 -0.335544
-0.165876 -0.113127 -0.333144
-0.185362 -0.111105 -0.33586
0.16345 -0.111105 -0.334618
0.154992 -0.113127 -0.333144
-0.163449 -0.10875 0.33586
-0.186557 -0.10875 0.33586
0.16345 -0.11468 -0.331224
-0.163449 -0.10875 -0.317631
-0.186557 -0.10875 -0.33586
0.16345 -0.113127 -0.333144
0.157469 -0.11468 -0.331224
-0.163041 -0.106222 -0.33586
-0.163449 -0.10875 0.317946
-0.186965 -0.106222 0.33586
-0.165876 -0.11468 -0.331224
0.16345 -0.115655 -0.328987
-0.186965 -0.106222 -0.33586
-0.163041 -0.106222 0.33586
-0.186557 -0.103695 0.33586
0.160354 -0.115655 -0.328987
-0.163041 -0.106222 -0.317315
-0.186557 -0.103695 -0.33586
-0.165876 -0.115655 -0.328987
-0.163449 -0.103695 -0.33586
-0.163041 -0.106222 0.31763
-0.185362 -0.101339 0.33586
0.16345 -0.115988 -0.326587
-0.163449 -0.103695 -0.335544
0.151488 -0.106222 -0.33586
-0.165876 -0.106222 -0.33586
-0.185362 -0.101339 -0.33586
-0.165876 -0.115988 -0.326587
0.151896 -0.103695 -0.335544
-0.165876 -0.103695 -0.335544
-0.163449 -0.103695 0.33586
-0.183461 -0.0993171 0.33586
0.16345 -0.115655 -0.324187
0.16345 -0.106222 -0.33586
0.151896 -0.103695 0.33586
0.151896 -0.103695 -0.33586
-0.164644 -0.101339 -0.334618
-0.163449 -0.103695 -0.317631
-0.183461 -0.0993171 -0.33586
0.160354 -0.115655 -0.324187
0.16345 -0.103695 -0.335544
0.151488 -0.106222 -0.317315
0.151896 -0.103695 0.317946
0.153091 -0.101339 -0.334618
-0.165876 -0.101339 -0.334618
-0.164644 -0.101339 -0.33586
-0.163449 -0.103695 0.317946
-0.180984 -0.0977648 -0.33586
-0.165876 -0.115655 -0.324187
0.151488 -0.106222 0.31763
0.153091 -0.101339 0.33586
0.151896 -0.103695 -0.317631
-0.165876 -0.0993171 -0.333144
-0.180984 -0.0977648 0.33586
0.16345 -0.11468 -0.321951
0.16345 -0.101339 -0.334618
0.151488 -0.106222 0.33586
0.154992 -0.0993171 -0.333144
-0.164644 -0.101339 0.33586
-0.178099 -0.096789 -0.33586
0.157469 -0.11468 -0.321951
0.151896 -0.10875 -0.33586
0.153091 -0.101339 -0.33586
0.16345 -0.0977648 -0.331224
-0.178099 -0.096789 0.33586
-0.165876 -0.11468 -0.321951
0.16345 -0.113127 -0.32003
0.16345 -0.0993171 -0.333144
0.151896 -0.10875 -0.317631
0.153091 -0.101339 0.334933
0.157469 -0.0977648 -0.331224
-0.166544 -0.0993171 -0.33586
-0.164644 -0.101339 -0.318557
-0.175003 -0.0964566 -0.33586
0.151896 -0.10875 0.317946
0.154992 -0.0993171 0.33586
0.153091 -0.101339 0.318872
-0.165876 -0.0977648 -0.331224
0.16345 -0.096789 -0.328987
-0.164644 -0.101339 0.318872
-0.175003 -0.0964566 0.33586
0.154992 -0.113127 -0.32003
0.151896 -0.10875 0.33586
0.153091 -0.101339 -0.318557
-0.164644 -0.101339 0.334933
-0.171907 -0.096789 -0.33586
-0.165876 -0.113127 -0.32003
0.153091 -0.111105 -0.318557
0.160354 -0.096789 -0.328987
-0.171907 -0.096789 0.33586
0.16345 -0.111105 -0.318557
-0.165876 -0.096789 -0.328987
-0.166544 -0.0993171 0.33586
-0.169022 -0.0977648 -0.33586
0.154992 -0.0993171 -0.33586
0.16345 -0.0964566 -0.326587
-0.169022 -0.0977648 0.33586
-0.165876 -0.111105 -0.318557
0.16345 -0.10875 -0.317631
0.154992 -0.0993171 0.33346
-0.165876 -0.0964566 -0.326587
-0.165876 -0.10875 -0.317631
0.157469 -0.0977648 0.33154
0.154992 -0.0993171 0.320346
0.16345 -0.096789 -0.324187
0.16345 -0.106222 -0.317315
0.157469 -0.0977648 0.33586
0.154992 -0.0993171 -0.32003
0.160354 -0.096789 -0.324187
-0.165876 -0.106222 -0.317315
0.16345 -0.103695 -0.317631
0.160354 -0.096789 0.329303
0.157469 -0.0977648 0.322267
0.157469 -0.0977648 -0.321951
-0.165876 -0.096789 -0.324187
0.160354 -0.096789 0.33586
0.157469 -0.0977648 -0.33586
0.16345 -0.0977648 -0.321951
0.16345 -0.101339 -0.318557
0.16345 -0.0964566 0.326903
0.160354 -0.096789 0.324503
-0.165876 -0.103695 -0.317631
0.16345 -0.0964566 0.33586
0.160354 -0.096789 -0.33586
-0.165876 -0.0977648 -0.321951
0.16345 -0.0993171 -0.32003
0.166546 -0.096789 -0.33586
-0.165876 -0.0993171 -0.32003
-0.165876 -0.101339 -0.318557
0.166546 -0.096789 0.33586
0.16345 -0.0964566 -0.33586
0.169431 -0.0977648 -0.33586
0.169431 -0.0977648 0.33586
0.171908 -0.0993171 -0.33586
0.171908 -0.0993171 0.33586
0.173809 -0.101339 0.33586
0.173809 -0.101339 -0.33586
0.175004 -0.103695 0.33586
0.175004 -0.103695 -0.33586
0.175412 -0.106222 0.33586
0.175412 -0.106222 -0.33586
0.175004 -0.10875 0.33586
0.175004 -0.10875 -0.33586
0.173809 -0.111105 0.33586
0.173809 -0.111105 -0.33586
0.171908 -0.113127 0.33586
0.171908 -0.113127 -0.33586
0.169431 -0.11468 0.33586
0.169431 -0.11468 -0.33586
0.166546 -0.115655 -0.33586
0.166546 -0.115655 0.33586
0.16345 -0.115988 0.326903
0.16345 -0.115988 0.33586
0.160354 -0.115655 0.329303
0.160354 -0.115655 0.324503
0.16345 -0.115988 -0.33586
0.160354 -0.115655 0.33586
0.157469 -0.11468 0.33154
0.157469 -0.11468 0.322267
0.160354 -0.115655 -0.33586
0.157469 -0.11468 0.33586
0.154992 -0.113127 0.33586
0.154992 -0.113127 0.320346
0.157469 -0.11468 -0.33586
0.154992 -0.113127 0.33346
0.153091 -0.111105 0.33586
0.154992 -0.113127 -0.33586
0.153091 -0.111105 -0.33586
0.153091 -0.111105 0.334933
0.153091 -0.111105 0.318872
0.153091 -0.111105 0.318872
0.16345 -0.10875 0.317946
0.16345 -0.111105 0.318872
0.151896 -0.10875 0.317946
0.154992 -0.113127 0.320346
-0.164644 -0.111105 0.318872
0.16345 -0.106222 0.31763
0.16345 -0.113127 0.320346
-0.165876 -0.113127 0.320346
-0.163449 -0.10875 0.317946
0.151488 -0.106222 0.31763
0.16345 -0.11468 0.322267
-0.165876 -0.111105 0.318872
-0.165876 -0.10875 0.317946
0.151896 -0.103695 0.317946
0.157469 -0.11468 0.322267
-0.165876 -0.106222 0.31763
-0.163041 -0.106222 0.31763
0.16345 -0.103695 0.317946
-0.163449 -0.103695 0.317946
-0.165876 -0.11468 0.322267
0.16345 -0.115655 0.324503
0.153091 -0.101339 0.318872
-0.164644 -0.101339 0.318872
0.16345 -0.101339 0.318872
-0.165876 -0.103695 0.317946
0.160354 -0.115655 0.324503
0.154992 -0.0993171 0.320346
-0.165876 -0.0993171 0.320346
-0.165876 -0.101339 0.318872
-0.165876 -0.115655 0.324503
0.16345 -0.0993171 0.320346
0.16345 -0.115988 0.326903
0.16345 -0.0977648 0.322267
-0.165876 -0.115988 0.326903
0.157469 -0.0977648 0.322267
0.16345 -0.115655 0.329303
-0.165876 -0.0977648 0.322267
0.160354 -0.115655 0.329303
0.16345 -0.096789 0.324503
-0.165876 -0.115655 0.329303
0.160354 -0.096789 0.324503
0.16345 -0.11468 0.33154
-0.165876 -0.096789 0.324503
0.157469 -0.11468 0.33154
0.16345 -0.0964566 0.326903
-0.165876 -0.11468 0.33154
-0.165876 -0.0964566 0.326903
0.16345 -0.113127 0.33346
0.16345 -0.096789 0.329303
0.154992 -0.113127 0.33346
0.160354 -0.096789 0.329303
-0.165876 -0.113127 0.33346
0.153091 -0.111105 0.334933
-0.165876 -0.096789 0.329303
0.16345 -0.111105 0.334933
0.16345 -0.0977648 0.33154
-0.164644 -0.111105 0.334933
0.151896 -0.10875 0.33586
0.157469 -0.0977648 0.33154
-0.165876 -0.111105 0.334933
0.16345 -0.10875 0.33586
-0.165876 -0.0977648 0.33154
0.16345 -0.0993171 0.33346
-0.163449 -0.10875 0.33586
-0.165876 -0.10875 0.33586
-0.165876 -0.106222 0.336175
0.16345 -0.106222 0.336175
0.154992 -0.0993171 0.33346
0.16345 -0.103695 0.33586
-0.165876 -0.0993171 0.33346
0.153091 -0.101339 0.334933
0.151896 -0.103695 0.33586
0.16345 -0.101339 0.334933
-0.163449 -0.103695 0.33586
-0.164644 -0.101339 0.334933
-0.165876 -0.103695 0.33586
-0.165876 -0.101339 0.334933
-0.116811 0.188221 0.408824
-0.200522 -0.0189198 0.408824
-0.0915675 -0.0189198 0.408824
-0.122476 0.193585 0.408824
-0.200522 -0.0189198 -0.408824
-0.116811 0.188221 -0.408824
-0.128838 0.198123 0.408824
-0.0915675 -0.0189198 -0.408824
-0.200522 0.188221 0.408824
-0.122476 0.193585 -0.408824
-0.135776 0.201746 0.408824
-0.200522 0.188221 -0.408824
-0.194858 0.193585 0.408824
-0.128838 0.198123 -0.408824
-0.143156 0.204385 0.408824
-0.194858 0.193585 -0.408824
-0.188494 0.198123 0.408824
-0.135776 0.201746 -0.408824
-0.150836 0.20599 0.408824
-0.188494 0.198123 -0.408824
-0.181556 0.201746 0.408824
-0.143156 0.204385 -0.408824
-0.158666 0.206528 0.408824
-0.181556 0.201746 -0.408824
-0.174176 0.204385 0.408824
-0.150836 0.20599 -0.408824
-0.166497 0.20599 0.408824
-0.174176 0.204385 -0.408824
-0.158666 0.206528 -0.408824
-0.166497 0.20599 -0.408824
0.175004 -0.103695 0.33586
0.175004 -0.10875 0.33586
0.175412 -0.106222 0.33586
0.173809 -0.101339 0.33586
0.173809 -0.111105 0.33586
0.171908 -0.0993171 0.33586
0.171908 -0.113127 0.33586
0.169431 -0.0977648 0.33586
0.169431 -0.11468 0.33586
0.166546 -0.115655 0.33586
0.166546 -0.096789 0.33586
0.16345 -0.0964566 0.33586
0.16345 -0.115988 0.33586
0.160354 -0.096789 0.33586
0.160354 -0.115655 0.33586
0.157469 -0.0977648 0.33586
0.157469 -0.11468 0.33586
0.154992 -0.113127 0.33586
0.154992 -0.0993171 0.33586
0.153091 -0.101339 0.33586
0.153091 -0.111105 0.33586
0.151896 -0.103695 0.33586
0.151896 -0.10875 0.33586
0.151488 -0.106222 0.33586
0.16345 -0.115655 0.324503
0.16345 -0.115655 0.329303
0.16345 -0.115988 0.326903
0.16345 -0.11468 0.322267
0.16345 -0.11468 0.33154
0.16345 -0.113127 0.320346
0.16345 -0.113127 0.33346
0.16345 -0.111105 0.318872
0.16345 -0.111105 0.334933
0.16345 -0.10875 0.317946
0.16345 -0.10875 0.33586
0.16345 -0.106222 0.31763
0.16345 -0.106222 0.336175
0.16345 -0.103695 0.317946
0.16345 -0.103695 0.33586
0.16345 -0.101339 0.318872
0.16345 -0.101339 0.334933
0.16345 -0.0993171 0.320346
0.16345 -0.0993171 0.33346
0.16345 -0.0977648 0.322267
0.16345 -0.0977648 0.33154
0.16345 -0.096789 0.324503
0.16345 -0.096789 0.329303
0.16345 -0.0964566 0.326903
-0.165876 -0.115655 0.329303
-0.165876 -0.115655 0.324503
-0.165876 -0.115988 0.326903
-0.165876 -0.11468 0.33154
-0.165876 -0.11468 0.322267
-0.165876 -0.113127 0.33346
-0.165876 -0.113127 0.320346
-0.165876 -0.111105 0.334933
-0.165876 -0.111105 0.318872
-0.165876 -0.10875 0.33586
-0.165876 -0.10875 0.317946
-0.165876 -0.106222 0.336175
-0.165876 -0.106222 0.31763
-0.165876 -0.103695 0.33586
-0.165876 -0.103695 0.317946
-0.165876 -0.101339 0.334933
-0.165876 -0.101339 0.318872
-0.165876 -0.0993171 0.33346
-0.165876 -0.0993171 0.320346
-0.165876 -0.0977648 0.33154
-0.165876 -0.0977648 0.322267
-0.165876 -0.096789 0.329303
-0.165876 -0.096789 0.324503
-0.165876 -0.0964566 0.326903
-0.165876 -0.115655 -0.324187
-0.165876 -0.115655 -0.328987
-0.165876 -0.115988 -0.326587
-0.165876 -0.11468 -0.321951
-0.165876 -0.11468 -0.331224
-0.165876 -0.113127 -0.32003
-0.165876 -0.113127 -0.333144
-0.165876 -0.111105 -0.318557
-0.165876 -0.111105 -0.334618
-0.165876 -0.10875 -0.317631
-0.165876 -0.10875 -0.335544
-0.165876 -0.106222 -0.317315
-0.165876 -0.106222 -0.33586
-0.165876 -0.103695 -0.317631
-0.165876 -0.103695 -0.335544
-0.165876 -0.101339 -0.318557
-0.165876 -0.101339 -0.334618
-0.165876 -0.0993171 -0.32003
-0.165876 -0.0993171 -0.333144
-0.165876 -0.0977648 -0.321951
-0.165876 -0.0977648 -0.331224
-0.165876 -0.096789 -0.324187
-0.165876 -0.096789 -0.328987
-0.165876 -0.0964566 -0.326587
0.16345 -0.115655 -0.328987
0.16345 -0.115655 -0.324187
0.16345 -0.115988 -0.326587
0.16345 -0.11468 -0.331224
0.16345 -0.11468 -0.321951
0.16345 -0.113127 -0.333144
0.16345 -0.113127 -0.32003
0.16345 -0.111105 -0.334618
0.16345 -0.111105 -0.318557
0.16345 -0.10875 -0.335544
0.16345 -0.10875 -0.317631
0.16345 -0.106222 -0.33586
0.16345 -0.106222 -0.317315
0.16345 -0.103695 -0.335544
0.16345 -0.103695 -0.317631
0.16345 -0.101339 -0.334618
0.16345 -0.101339 -0.318557
0.16345 -0.0993171 -0.333144
0.16345 -0.0993171 -0.32003
0.16345 -0.0977648 -0.331224
0.16345 -0.0977648 -0.321951
0.16345 -0.096789 -0.328987
0.16345 -0.096789 -0.324187
0.16345 -0.0964566 -0.326587
-0.163449 -0.10875 -0.33586
-0.163449 -0.103695 -0.33586
-0.163041 -0.106222 -0.33586
-0.164644 -0.111105 -0.33586
-0.164644 -0.101339 -0.33586
-0.166544 -0.113127 -0.33586
-0.166544 -0.0993171 -0.33586
-0.169022 -0.11468 -0.33586
-0.169022 -0.0977648 -0.33586
-0.171907 -0.115655 -0.33586
-0.171907 -0.096789 -0.33586
-0.175003 -0.115988 -0.33586
-0.175003 -0.0964566 -0.33586
-0.178099 -0.115655 -0.33586
-0.178099 -0.096789 -0.33586
-0.180984 -0.11468 -0.33586
-0.180984 -0.0977648 -0.33586
-0.183461 -0.113127 -0.33586
-0.183461 -0.0993171 -0.33586
-0.185362 -0.111105 -0.33586
-0.185362 -0.101339 -0.33586
-0.186557 -0.10875 -0.33586
-0.186557 -0.103695 -0.33586
-0.186965 -0.106222 -0.33586
-0.163449 -0.103695 0.33586
-0.163449 -0.10875 0.33586
-0.163041 -0.106222 0.33586
-0.164644 -0.101339 0.33586
-0.164644 -0.111105 0.33586
-0.166544 -0.0993171 0.33586
-0.166544 -0.113127 0.33586
-0.169022 -0.0977648 0.33586
-0.169022 -0.11468 0.33586
-0.171907 -0.115655 0.33586
-0.171907 -0.096789 0.33586
-0.175003 -0.0964566 0.33586
-0.175003 -0.115988 0.33586
-0.178099 -0.096789 0.33586
-0.178099 -0.115655 0.33586
-0.180984 -0.0977648 0.33586
-0.180984 -0.11468 0.33586
-0.183461 -0.113127 0.33586
-0.183461 -0.0993171 0.33586
-0.185362 -0.101339 0.33586
-0.185362 -0.111105 0.33586
-0.186557 -0.103695 0.33586
-0.186557 -0.10875 0.33586
-0.186965 -0.106222 0.33586
0.175004 -0.10875 -0.33586
0.175004 -0.103695 -0.33586
0.175412 -0.106222 -0.33586
0.173809 -0.111105 -0.33586
0.173809 -0.101339 -0.33586
0.171908 -0.113127 -0.33586
0.171908 -0.0993171 -0.33586
0.169431 -0.11468 -0.33586
0.169431 -0.0977648 -0.33586
0.166546 -0.115655 -0.33586
0.166546 -0.096789 -0.33586
0.16345 -0.115988 -0.33586
0.16345 -0.0964566 -0.33586
0.160354 -0.115655 -0.33586
0.160354 -0.096789 -0.33586
0.157469 -0.11468 -0.33586
0.157469 -0.0977648 -0.33586
0.154992 -0.113127 -0.33586
0.154992 -0.0993171 -0.33586
0.153091 -0.111105 -0.33586
0.153091 -0.101339 -0.33586
0.151896 -0.10875 -0.33586
0.151896 -0.103695 -0.33586
0.151488 -0.106222 -0.33586
0.161303 -0.2039 0.353042
0.165451 -0.2039 0.353042
0.163377 -0.203855 0.353251
0.15937 -0.204034 0.352431
0.163377 -0.0956824 0.340964
0.160281 -0.0957503 0.340652
0.167384 -0.204034 0.352431
0.166473 -0.0957503 0.340652
0.157396 -0.0959497 0.33974
0.15771 -0.204247 0.351459
0.169044 -0.204247 0.351459
0.169358 -0.0959497 0.33974
0.154919 -0.0962666 0.338289
0.156436 -0.204523 0.350192
0.153018 -0.0966802 0.336398
0.170318 -0.204523 0.350192
0.171835 -0.0962666 0.338289
0.151823 -0.0971612 0.334195
0.155636 -0.204846 0.348716
0.173736 -0.0966802 0.336398
0.171118 -0.204846 0.348716
0.174931 -0.0971612 0.334195
0.151416 -0.097677 0.331832
0.155363 -0.205191 0.347133
0.171392 -0.205191 0.347133
0.175339 -0.097677 0.331832
0.151823 -0.0981933 0.329468
0.155636 -0.205537 0.345549
0.171118 -0.205537 0.345549
0.174931 -0.0981933 0.329468
0.153018 -0.0986749 0.327266
0.156436 -0.20586 0.344073
0.170318 -0.20586 0.344073
0.173736 -0.0986749 0.327266
0.154919 -0.0990879 0.325375
0.15771 -0.206137 0.342806
0.169044 -0.206137 0.342806
0.171835 -0.0990879 0.325375
0.157396 -0.0994054 0.323923
0.15937 -0.206349 0.341834
0.167384 -0.206349 0.341834
0.169358 -0.0994054 0.323923
0.160281 -0.0996048 0.323011
0.161303 -0.206483 0.341223
0.165451 -0.206483 0.341223
0.166473 -0.0996048 0.323011
0.163377 -0.0996722 0.3227
0.163377 -0.206528 0.341014
-0.175075 -0.203855 -0.356578
-0.173001 -0.2039 -0.35637
-0.17715 -0.2039 -0.35637
-0.175075 -0.0956824 -0.344291
-0.179082 -0.204034 -0.355759
-0.171979 -0.0957503 -0.34398
-0.178171 -0.0957503 -0.34398
-0.171068 -0.204034 -0.355759
-0.181056 -0.0959497 -0.343068
-0.180742 -0.204247 -0.354786
-0.169094 -0.0959497 -0.343068
-0.169408 -0.204247 -0.354786
-0.183533 -0.0962666 -0.341616
-0.182016 -0.204523 -0.353519
-0.166617 -0.0962666 -0.341616
-0.185435 -0.0966802 -0.339725
-0.168135 -0.204523 -0.353519
-0.164716 -0.0966802 -0.339725
-0.18663 -0.0971612 -0.337523
-0.182816 -0.204846 -0.352043
-0.167334 -0.204846 -0.352043
-0.163521 -0.0971612 -0.337523
-0.187037 -0.097677 -0.335159
-0.18309 -0.205191 -0.35046
-0.167061 -0.205191 -0.35046
-0.163113 -0.097677 -0.335159
-0.18663 -0.0981933 -0.332796
-0.182816 -0.205537 -0.348876
-0.167334 -0.205537 -0.348876
-0.163521 -0.0981933 -0.332796
-0.185435 -0.0986749 -0.330594
-0.182016 -0.20586 -0.347401
-0.168135 -0.20586 -0.347401
-0.164716 -0.0986749 -0.330594
-0.183533 -0.0990879 -0.328702
-0.180742 -0.206137 -0.346134
-0.169408 -0.206137 -0.346134
-0.166617 -0.0990879 -0.328702
-0.181056 -0.0994054 -0.327251
-0.179082 -0.206349 -0.345162
-0.171068 -0.206349 -0.345162
-0.169094 -0.0994054 -0.327251
-0.178171 -0.0996048 -0.326339
-0.17715 -0.206483 -0.34455
-0.173001 -0.206483 -0.34455
-0.171979 -0.0996048 -0.326339
-0.175075 -0.0996722 -0.326027
-0.175075 -0.206528 -0.344342
-0.200522 -0.0968481 -0.408824
0.200522 -0.0968481 0.408824
-0.200522 -0.0968481 0.408824
0.200522 -0.0968481 -0.408824
-0.200522 -0.0189198 0.408824
0.200522 -0.0189198 -0.408824
0.200522 -0.0189198 0.408824
-0.200522 -0.0189198 -0.408824
-0.17715 -0.2039 0.353042
-0.173001 -0.2039 0.353042
-0.175075 -0.203855 0.353251
-0.179082 -0.204034 0.352431
-0.175075 -0.0956824 0.340964
-0.178171 -0.0957503 0.340652
-0.171068 -0.204034 0.352431
-0.171979 -0.0957503 0.340652
-0.181056 -0.0959497 0.33974
-0.180742 -0.204247 0.351459
-0.169408 -0.204247 0.351459
-0.169094 -0.0959497 0.33974
-0.183533 -0.0962666 0.338289
-0.182016 -0.204523 0.350192
-0.185435 -0.0966802 0.336398
-0.168135 -0.204523 0.350192
-0.166617 -0.0962666 0.338289
-0.18663 -0.0971612 0.334195
-0.182816 -0.204846 0.348716
-0.164716 -0.0966802 0.336398
-0.167334 -0.204846 0.348716
-0.163521 -0.0971612 0.334195
-0.187037 -0.097677 0.331832
-0.18309 -0.205191 0.347133
-0.167061 -0.205191 0.347133
-0.163113 -0.097677 0.331832
-0.18663 -0.0981933 0.329468
-0.182816 -0.205537 0.345549
-0.167334 -0.205537 0.345549
-0.163521 -0.0981933 0.329468
-0.185435 -0.0986749 0.327266
-0.182016 -0.20586 0.344073
-0.168135 -0.20586 0.344073
-0.164716 -0.0986749 0.327266
-0.183533 -0.0990879 0.325375
-0.180742 -0.206137 0.342806
-0.169408 -0.206137 0.342806
-0.166617 -0.0990879 0.325375
-0.181056 -0.0994054 0.323923
-0.179082 -0.206349 0.341834
-0.171068 -0.206349 0.341834
-0.169094 -0.0994054 0.323923
-0.178171 -0.0996048 0.323011
-0.17715 -0.206483 0.341223
-0.173001 -0.206483 0.341223
-0.171979 -0.0996048 0.323011
-0.175075 -0.0996722 0.3227
-0.175075 -0.206528 0.341014
0.163377 -0.203855 -0.356578
0.165451 -0.2039 -0.35637
0.161303 -0.2039 -0.35637
0.163377 -0.0956824 -0.344291
0.15937 -0.204034 -0.355759
0.166473 -0.0957503 -0.34398
0.160281 -0.0957503 -0.34398
0.167384 -0.204034 -0.355759
0.157396 -0.0959497 -0.343068
0.15771 -0.204247 -0.354786
0.169358 -0.0959497 -0.343068
0.169044 -0.204247 -0.354786
0.154919 -0.0962666 -0.341616
0.156436 -0.204523 -0.353519
0.171835 -0.0962666 -0.341616
0.153018 -0.0966802 -0.339725
0.170318 -0.204523 -0.353519
0.173736 -0.0966802 -0.339725
0.151823 -0.0971612 -0.337523
0.155636 -0.204846 -0.352043
0.171118 -0.204846 -0.352043
0.174931 -0.0971612 -0.337523
0.151416 -0.097677 -0.335159
0.155363 -0.205191 -0.35046
0.171392 -0.205191 -0.35046
0.175339 -0.097677 -0.335159
0.151823 -0.0981933 -0.332796
0.155636 -0.205537 -0.348876
0.171118 -0.205537 -0.348876
0.174931 -0.0981933 -0.332796
0.153018 -0.0986749 -0.330594
0.156436 -0.20586 -0.347401
0.170318 -0.20586 -0.347401
0.173736 -0.0986749 -0.330594
0.154919 -0.0990879 -0.328702
0.15771 -0.206137 -0.346134
0.169044 -0.206137 -0.346134
0.171835 -0.0990879 -0.328702
0.157396 -0.0994054 -0.327251
0.15937 -0.206349 -0.345162
0.167384 -0.206349 -0.345162
0.169358 -0.0994054 -0.327251
0.160281 -0.0996048 -0.326339
0.161303 -0.206483 -0.34455
0.165451 -0.206483 -0.34455
0.166473 -0.0996048 -0.326339
0.163377 -0.0996722 -0.326027
0.163377 -0.206528 -0.344342
3 11 9 13
3 11 13 16
3 11 16 21
3 11 21 25
3 32 15 19
3 32 19 35
3 32 35 40
3 45 39 48
3 43 50 47
3 45 48 52
3 62 51 55
3 62 55 69
3 67 66 74
3 62 69 78
3 64 80 71
3 56 81 73
3 67 74 83
3 56 88 81
3 67 83 60
3 90 77 68
3 94 82 101
3 90 68 104
3 94 101 108
3 90 104 111
3 94 108 115
3 90 111 116
3 94 115 75
3 123 110 120
3 126 107 131
3 126 131 135
3 126 135 139
3 126 139 89
3 146 136 140
3 156 149 145
3 199 197 200
3 199 200 201
3 199 201 119
3 199 119 23
3 0 1 2
3 1 0 3
3 2 4 0
3 5 1 3
3 4 2 6
3 1 5 7
3 6 8 4
3 9 7 5
3 8 6 10
3 7 9 11
3 10 12 8
3 12 10 14
3 15 13 9
3 17 12 14
3 13 15 16
3 18 13 19
3 19 13 20
3 12 17 22
3 16 15 21
3 18 23 13
3 20 13 24
3 26 22 17
3 21 15 25
3 27 23 18
3 23 28 13
3 13 28 24
3 25 15 11
3 22 26 29
3 23 27 30
3 23 31 28
3 11 15 32
3 33 29 26
3 30 31 23
3 34 28 31
3 29 33 36
3 31 30 37
3 38 28 34
3 34 31 37
3 39 19 15
3 19 39 35
3 41 36 33
3 28 38 42
3 43 38 34
3 35 39 40
3 40 39 32
3 36 41 44
3 43 42 38
3 32 39 45
3 46 44 41
3 47 42 43
3 44 46 49
3 42 47 50
3 51 48 39
3 53 49 46
3 54 50 43
3 48 51 52
3 55 56 39
3 55 39 57
3 52 51 45
3 49 53 58
3 50 54 59
3 60 56 55
3 55 57 61
3 45 51 62
3 63 58 53
3 64 59 54
3 60 65 56
3 56 66 67
3 68 60 55
3 68 55 61
3 58 63 70
3 71 59 64
3 65 60 72
3 73 66 56
3 75 60 68
3 68 61 76
3 77 55 51
3 55 77 69
3 63 79 70
3 59 71 80
3 75 72 60
3 81 66 73
3 82 74 66
3 84 75 68
3 84 68 76
3 69 77 78
3 78 77 62
3 79 63 85
3 86 80 64
3 72 75 87
3 66 81 88
3 74 82 83
3 83 82 60
3 89 75 84
3 62 77 90
3 85 91 79
3 92 80 86
3 89 87 75
3 93 88 56
3 60 82 67
3 67 82 94
3 84 95 89
3 91 85 96
3 80 92 97
3 98 92 86
3 87 89 99
3 100 88 18
3 18 88 93
3 84 102 95
3 89 95 99
3 103 68 77
3 96 105 91
3 98 97 92
3 106 88 100
3 107 101 82
3 102 84 109
3 102 110 95
3 68 103 104
3 105 96 112
3 113 97 98
3 88 106 114
3 101 107 108
3 109 110 102
3 104 103 111
3 112 117 105
3 97 113 118
3 98 119 113
3 108 107 115
3 109 120 110
3 111 103 116
3 116 103 90
3 117 112 121
3 113 119 118
3 119 98 122
3 115 107 75
3 75 107 94
3 120 109 123
3 90 103 124
3 121 125 117
3 118 119 16
3 122 100 119
3 94 107 126
3 123 127 110
3 103 128 124
3 125 121 128
3 119 100 16
3 118 16 129
3 100 122 130
3 127 123 132
3 128 103 125
3 16 100 35
3 16 133 129
3 130 73 100
3 107 134 131
3 132 136 127
3 100 73 35
3 16 35 133
3 73 130 137
3 134 107 138
3 131 134 135
3 132 140 136
3 35 73 48
3 35 141 133
3 142 73 137
3 138 143 134
3 135 134 144
3 135 145 139
3 140 132 146
3 73 69 48
3 35 48 141
3 73 142 83
3 143 138 147
3 134 143 144
3 135 144 145
3 139 145 89
3 89 148 126
3 146 149 136
3 73 83 69
3 48 69 141
3 150 83 142
3 147 151 143
3 144 143 152
3 144 140 145
3 89 145 102
3 89 102 148
3 146 145 149
3 83 104 69
3 141 69 153
3 83 150 115
3 151 147 154
3 143 151 152
3 144 152 140
3 145 140 102
3 102 155 148
3 145 146 156
3 83 115 104
3 69 104 153
3 157 115 150
3 154 158 151
3 152 151 127
3 152 127 140
3 102 140 120
3 102 120 155
3 156 157 149
3 115 159 104
3 153 104 160
3 115 157 139
3 158 154 161
3 151 158 127
3 140 127 120
3 120 162 155
3 156 139 157
3 115 139 159
3 104 159 160
3 161 163 158
3 127 158 162
3 120 127 162
3 139 156 159
3 163 161 164
3 164 165 163
3 165 164 166
3 167 165 166
3 165 167 168
3 169 168 167
3 168 169 170
3 171 170 169
3 170 171 172
3 173 172 171
3 172 173 174
3 175 174 173
3 174 175 176
3 177 176 175
3 176 177 178
3 179 178 177
3 178 179 180
3 179 181 180
3 181 179 182
3 182 183 181
3 183 182 184
3 181 183 54
3 184 185 183
3 183 186 54
3 181 54 187
3 185 184 188
3 183 185 186
3 54 186 71
3 54 47 187
3 188 189 185
3 185 190 186
3 186 190 71
3 54 71 47
3 187 47 191
3 189 188 192
3 185 189 190
3 71 190 92
3 71 38 47
3 47 38 191
3 193 189 192
3 189 194 190
3 190 194 92
3 71 92 38
3 191 38 195
3 189 193 196
3 189 196 194
3 92 194 113
3 92 31 38
3 38 31 195
3 197 196 193
3 196 197 194
3 194 197 113
3 92 113 31
3 195 31 198
3 113 197 31
3 31 197 198
3 198 197 199
3 13 9 11
3 16 13 11
3 21 16 11
3 25 21 11
3 19 15 32
3 35 19 32
3 40 35 32
3 48 39 45
3 47 50 43
3 52 48 45
3 55 51 62
3 69 55 62
3 74 66 67
3 78 69 62
3 71 80 64
3 73 81 56
3 83 74 67
3 81 88 56
3 60 83 67
3 68 77 90
3 101 82 94
3 104 68 90
3 108 101 94
3 111 104 90
3 115 108 94
3 116 111 90
3 75 115 94
3 120 110 123
3 131 107 126
3 135 131 126
3 139 135 126
3 89 139 126
3 140 136 146
3 145 149 156
3 200 197 199
3 201 200 199
3 119 201 199
3 23 119 199
3 2 1 0
3 3 0 1
3 0 4 2
3 3 1 5
3 6 2 4
3 7 5 1
3 4 8 6
3 5 7 9
3 10 6 8
3 11 9 7
3 8 12 10
3 14 10 12
3 9 13 15
3 14 12 17
3 16 15 13
3 19 13 18
3 20 13 19
3 22 17 12
3 21 15 16
3 13 23 18
3 24 13 20
3 17 22 26
3 25 15 21
3 18 23 27
3 13 28 23
3 24 28 13
3 11 15 25
3 29 26 22
3 30 27 23
3 28 31 23
3 32 15 11
3 26 29 33
3 23 31 30
3 31 28 34
3 36 33 29
3 37 30 31
3 34 28 38
3 37 31 34
3 15 19 39
3 35 39 19
3 33 36 41
3 42 38 28
3 34 38 43
3 40 39 35
3 32 39 40
3 44 41 36
3 38 42 43
3 45 39 32
3 41 44 46
3 43 42 47
3 49 46 44
3 50 47 42
3 39 48 51
3 46 49 53
3 43 50 54
3 52 51 48
3 39 56 55
3 57 39 55
3 45 51 52
3 58 53 49
3 59 54 50
3 55 56 60
3 61 57 55
3 62 51 45
3 53 58 63
3 54 59 64
3 56 65 60
3 67 66 56
3 55 60 68
3 61 55 68
3 70 63 58
3 64 59 71
3 72 60 65
3 56 66 73
3 68 60 75
3 76 61 68
3 51 55 77
3 69 77 55
3 70 79 63
3 80 71 59
3 60 72 75
3 73 66 81
3 66 74 82
3 68 75 84
3 76 68 84
3 78 77 69
3 62 77 78
3 85 63 79
3 64 80 86
3 87 75 72
3 88 81 66
3 83 82 74
3 60 82 83
3 84 75 89
3 90 77 62
3 79 91 85
3 86 80 92
3 75 87 89
3 56 88 93
3 67 82 60
3 94 82 67
3 89 95 84
3 96 85 91
3 97 92 80
3 86 92 98
3 99 89 87
3 18 88 100
3 93 88 18
3 95 102 84
3 99 95 89
3 77 68 103
3 91 105 96
3 92 97 98
3 100 88 106
3 82 101 107
3 109 84 102
3 95 110 102
3 104 103 68
3 112 96 105
3 98 97 113
3 114 106 88
3 108 107 101
3 102 110 109
3 111 103 104
3 105 117 112
3 118 113 97
3 113 119 98
3 115 107 108
3 110 120 109
3 116 103 111
3 90 103 116
3 121 112 117
3 118 119 113
3 122 98 119
3 75 107 115
3 94 107 75
3 123 109 120
3 124 103 90
3 117 125 121
3 16 119 118
3 119 100 122
3 126 107 94
3 110 127 123
3 124 128 103
3 128 121 125
3 16 100 119
3 129 16 118
3 130 122 100
3 132 123 127
3 125 103 128
3 35 100 16
3 129 133 16
3 100 73 130
3 131 134 107
3 127 136 132
3 35 73 100
3 133 35 16
3 137 130 73
3 138 107 134
3 135 134 131
3 136 140 132
3 48 73 35
3 133 141 35
3 137 73 142
3 134 143 138
3 144 134 135
3 139 145 135
3 146 132 140
3 48 69 73
3 141 48 35
3 83 142 73
3 147 138 143
3 144 143 134
3 145 144 135
3 89 145 139
3 126 148 89
3 136 149 146
3 69 83 73
3 141 69 48
3 142 83 150
3 143 151 147
3 152 143 144
3 145 140 144
3 102 145 89
3 148 102 89
3 149 145 146
3 69 104 83
3 153 69 141
3 115 150 83
3 154 147 151
3 152 151 143
3 140 152 144
3 102 140 145
3 148 155 102
3 156 146 145
3 104 115 83
3 153 104 69
3 150 115 157
3 151 158 154
3 127 151 152
3 140 127 152
3 120 140 102
3 155 120 102
3 149 157 156
3 104 159 115
3 160 104 153
3 139 157 115
3 161 154 158
3 127 158 151
3 120 127 140
3 155 162 120
3 157 139 156
3 159 139 115
3 160 159 104
3 158 163 161
3 162 158 127
3 162 127 120
3 159 156 139
3 164 161 163
3 163 165 164
3 166 164 165
3 166 165 167
3 168 167 165
3 167 168 169
3 170 169 168
3 169 170 171
3 172 171 170
3 171 172 173
3 174 173 172
3 173 174 175
3 176 175 174
3 175 176 177
3 178 177 176
3 177 178 179
3 180 179 178
3 180 181 179
3 182 179 181
3 181 183 182
3 184 182 183
3 54 183 181
3 183 185 184
3 54 186 183
3 187 54 181
3 188 184 185
3 186 185 183
3 71 186 54
3 187 47 54
3 185 189 188
3 186 190 185
3 71 190 186
3 47 71 54
3 191 47 187
3 192 188 189
3 190 189 185
3 92 190 71
3 47 38 71
3 191 38 47
3 192 189 193
3 190 194 189
3 92 194 190
3 38 92 71
3 195 38 191
3 196 193 189
3 194 196 189
3 113 194 92
3 38 31 92
3 195 31 38
3 193 196 197
3 194 197 196
3 113 197 194
3 31 113 92
3 198 31 195
3 31 197 113
3 198 197 31
3 199 197 198
3 223 232 228
3 239 235 237
3 238 242 240
3 245 241 243
3 244 248 246
3 256 251 253
3 202 203 204
3 203 202 205
3 204 206 202
3 205 202 207
3 205 208 203
3 206 204 209
3 202 206 210
3 202 210 207
3 205 207 211
3 208 205 212
3 213 206 209
3 213 210 206
3 207 210 214
3 211 207 215
3 212 205 211
3 216 208 212
3 217 210 213
3 215 207 214
3 218 211 215
3 212 211 219
3 208 216 220
3 216 212 221
3 210 217 222
3 223 217 213
3 219 211 218
3 221 212 219
3 224 220 216
3 225 216 221
3 223 222 217
3 221 219 218
3 220 224 226
3 224 216 225
3 225 221 227
3 228 222 223
3 221 218 227
3 229 226 224
3 230 224 225
3 225 227 231
3 222 228 232
3 226 229 233
3 229 224 230
3 230 225 231
3 234 232 223
3 229 235 233
3 230 235 229
3 232 234 236
3 230 237 235
3 238 236 234
3 237 230 239
3 240 236 238
3 239 241 235
3 236 240 242
3 239 243 241
3 244 242 238
3 243 239 245
3 246 242 244
3 245 247 241
3 242 246 248
3 247 245 249
3 250 248 244
3 249 251 247
3 252 248 250
3 249 253 251
3 248 252 254
3 250 255 252
3 253 249 256
3 252 255 254
3 255 250 257
3 256 258 251
3 254 255 259
3 257 260 255
3 256 261 258
3 255 260 259
3 254 259 262
3 260 257 263
3 261 256 264
3 261 265 258
3 259 260 266
3 259 267 262
3 263 268 260
3 264 265 261
3 260 268 266
3 259 266 267
3 268 263 269
3 264 270 265
3 266 268 267
3 271 268 269
3 270 264 272
3 273 265 270
3 268 271 274
3 273 270 272
3 265 273 275
3 275 274 271
3 268 274 276
3 273 272 277
3 274 275 273
3 274 277 276
3 268 276 278
3 277 272 279
3 274 273 277
3 276 277 278
3 278 277 279
3 228 232 223
3 237 235 239
3 240 242 238
3 243 241 245
3 246 248 244
3 253 251 256
3 204 203 202
3 205 202 203
3 202 206 204
3 207 202 205
3 203 208 205
3 209 204 206
3 210 206 202
3 207 210 202
3 211 207 205
3 212 205 208
3 209 206 213
3 206 210 213
3 214 210 207
3 215 207 211
3 211 205 212
3 212 208 216
3 213 210 217
3 214 207 215
3 215 211 218
3 219 211 212
3 220 216 208
3 221 212 216
3 222 217 210
3 213 217 223
3 218 211 219
3 219 212 221
3 216 220 224
3 221 216 225
3 217 222 223
3 218 219 221
3 226 224 220
3 225 216 224
3 227 221 225
3 223 222 228
3 227 218 221
3 224 226 229
3 225 224 230
3 231 227 225
3 232 228 222
3 233 229 226
3 230 224 229
3 231 225 230
3 223 232 234
3 233 235 229
3 229 235 230
3 236 234 232
3 235 237 230
3 234 236 238
3 239 230 237
3 238 236 240
3 235 241 239
3 242 240 236
3 241 243 239
3 238 242 244
3 245 239 243
3 244 242 246
3 241 247 245
3 248 246 242
3 249 245 247
3 244 248 250
3 247 251 249
3 250 248 252
3 251 253 249
3 254 252 248
3 252 255 250
3 256 249 253
3 254 255 252
3 257 250 255
3 251 258 256
3 259 255 254
3 255 260 257
3 258 261 256
3 259 260 255
3 262 259 254
3 263 257 260
3 264 256 261
3 258 265 261
3 266 260 259
3 262 267 259
3 260 268 263
3 261 265 264
3 266 268 260
3 267 266 259
3 269 263 268
3 265 270 264
3 267 268 266
3 269 268 271
3 272 264 270
3 270 265 273
3 274 271 268
3 272 270 273
3 275 273 265
3 271 274 275
3 276 274 268
3 277 272 273
3 273 275 274
3 276 277 274
3 278 276 268
3 279 272 277
3 277 273 274
3 278 277 276
3 279 277 278
3 282 281 280
3 283 280 281
3 281 282 284
3 286 283 281
3 287 284 282
3 290 286 281
3 287 285 284
3 288 292 281
3 289 284 285
3 294 290 281
3 291 284 295
3 292 296 281
3 293 284 289
3 298 294 281
3 295 284 299
3 296 300 281
3 297 284 293
3 302 298 281
3 299 284 303
3 300 304 281
3 301 284 297
3 306 302 281
3 303 284 307
3 304 306 281
3 305 284 301
3 307 284 309
3 308 284 305
3 309 284 308
3 280 285 282
3 280 283 285
3 281 284 288
3 287 282 285
3 289 285 283
3 283 286 289
3 291 288 284
3 293 289 286
3 286 290 293
3 291 295 288
3 292 288 295
3 297 293 290
3 290 294 297
3 296 292 299
3 295 299 292
3 301 297 294
3 294 298 301
3 300 296 303
3 299 303 296
3 305 301 298
3 298 302 305
3 304 300 307
3 303 307 300
3 308 305 302
3 302 306 308
3 306 304 309
3 307 309 304
3 309 308 306
3 280 281 282
3 281 280 283
3 284 282 281
3 281 283 286
3 282 284 287
3 281 286 290
3 284 285 287
3 281 292 288
3 285 284 289
3 281 290 294
3 295 284 291
3 281 296 292
3 289 284 293
3 281 294 298
3 299 284 295
3 281 300 296
3 293 284 297
3 281 298 302
3 303 284 299
3 281 304 300
3 297 284 301
3 281 302 306
3 307 284 303
3 281 306 304
3 301 284 305
3 309 284 307
3 305 284 308
3 308 284 309
3 282 285 280
3 285 283 280
3 288 284 281
3 285 282 287
3 283 285 289
3 289 286 283
3 284 288 291
3 286 289 293
3 293 290 286
3 288 295 291
3 295 288 292
3 290 293 297
3 297 294 290
3 299 292 296
3 292 299 295
3 294 297 301
3 301 298 294
3 303 296 300
3 296 303 299
3 298 301 305
3 305 302 298
3 307 300 304
3 300 307 303
3 302 305 308
3 308 306 302
3 309 304 306
3 304 309 307
3 306 308 309
3 310 311 312
3 311 310 313
3 311 313 314
3 314 313 315
3 314 315 316
3 316 315 317
3 316 317 318
3 318 317 319
3 319 317 320
3 319 320 321
3 319 321 322
3 322 321 323
3 322 323 324
3 324 323 325
3 324 325 326
3 326 325 327
3 327 325 328
3 327 328 329
3 327 329 330
3 330 329 331
3 330 331 332
3 332 331 333
3 312 311 310
3 313 310 311
3 314 313 311
3 315 313 314
3 316 315 314
3 317 315 316
3 318 317 316
3 319 317 318
3 320 317 319
3 321 320 319
3 322 321 319
3 323 321 322
3 324 323 322
3 325 323 324
3 326 325 324
3 327 325 326
3 328 325 327
3 329 328 327
3 330 329 327
3 331 329 330
3 332 331 330
3 333 331 332
3 334 335 336
3 335 334 337
3 335 337 338
3 338 337 339
3 338 339 340
3 340 339 341
3 340 341 342
3 342 341 343
3 342 343 344
3 344 343 345
3 344 345 346
3 346 345 347
3 346 347 348
3 348 347 349
3 348 349 350
3 350 349 351
3 350 351 352
3 352 351 353
3 352 353 354
3 354 353 355
3 354 355 356
3 356 355 357
3 336 335 334
3 337 334 335
3 338 337 335
3 339 337 338
3 340 339 338
3 341 339 340
3 342 341 340
3 343 341 342
3 344 343 342
3 345 343 344
3 346 345 344
3 347 345 346
3 348 347 346
3 349 347 348
3 350 349 348
3 351 349 350
3 352 351 350
3 353 351 352
3 354 353 352
3 355 353 354
3 356 355 354
3 357 355 356
3 358 359 360
3 359 358 361
3 359 361 362
3 362 361 363
3 362 363 364
3 364 363 365
3 364 365 366
3 366 365 367
3 366 367 368
3 368 367 369
3 368 369 370
3 370 369 371
3 370 371 372
3 372 371 373
3 372 373 374
3 374 373 375
3 374 375 376
3 376 375 377
3 376 377 378
3 378 377 379
3 378 379 380
3 380 379 381
3 360 359 358
3 361 358 359
3 362 361 359
3 363 361 362
3 364 363 362
3 365 363 364
3 366 365 364
3 367 365 366
3 368 367 366
3 369 367 368
3 370 369 368
3 371 369 370
3 372 371 370
3 373 371 372
3 374 373 372
3 375 373 374
3 376 375 374
3 377 375 376
3 378 377 376
3 379 377 378
3 380 379 378
3 381 379 380
3 382 383 384
3 383 382 385
3 383 385 386
3 386 385 387
3 386 387 388
3 388 387 389
3 388 389 390
3 390 389 391
3 390 391 392
3 392 391 393
3 392 393 394
3 394 393 395
3 394 395 396
3 396 395 397
3 396 397 398
3 398 397 399
3 398 399 400
3 400 399 401
3 400 401 402
3 402 401 403
3 402 403 404
3 404 403 405
3 384 383 382
3 385 382 383
3 386 385 383
3 387 385 386
3 388 387 386
3 389 387 388
3 390 389 388
3 391 389 390
3 392 391 390
3 393 391 392
3 394 393 392
3 395 393 394
3 396 395 394
3 397 395 396
3 398 397 396
3 399 397 398
3 400 399 398
3 401 399 400
3 402 401 400
3 403 401 402
3 404 403 402
3 405 403 404
3 406 407 408
3 407 406 409
3 407 409 410
3 410 409 411
3 410 411 412
3 412 411 413
3 412 413 414
3 414 413 415
3 414 415 416
3 416 415 417
3 416 417 418
3 418 417 419
3 418 419 420
3 420 419 421
3 420 421 422
3 422 421 423
3 422 423 424
3 424 423 425
3 424 425 426
3 426 425 427
3 426 427 428
3 428 427 429
3 408 407 406
3 409 406 407
3 410 409 407
3 411 409 410
3 412 411 410
3 413 411 412
3 414 413 412
3 415 413 414
3 416 415 414
3 417 415 416
3 418 417 416
3 419 417 418
3 420 419 418
3 421 419 420
3 422 421 420
3 423 421 422
3 424 423 422
3 425 423 424
3 426 425 424
3 427 425 426
3 428 427 426
3 429 427 428
3 430 431 432
3 431 430 433
3 431 433 434
3 434 433 435
3 434 435 436
3 436 435 437
3 436 437 438
3 438 437 439
3 438 439 440
3 440 439 441
3 440 441 442
3 442 441 443
3 442 443 444
3 444 443 445
3 444 445 446
3 446 445 447
3 446 447 448
3 448 447 449
3 448 449 450
3 450 449 451
3 450 451 452
3 452 451 453
3 432 431 430
3 433 430 431
3 434 433 431
3 435 433 434
3 436 435 434
3 437 435 436
3 438 437 436
3 439 437 438
3 440 439 438
3 441 439 440
3 442 441 440
3 443 441 442
3 444 443 442
3 445 443 444
3 446 445 444
3 447 445 446
3 448 447 446
3 449 447 448
3 450 449 448
3 451 449 450
3 452 451 450
3 453 451 452
3 454 455 456
3 455 454 457
3 455 457 458
3 458 457 459
3 458 459 460
3 460 459 461
3 460 461 462
3 462 461 463
3 463 461 464
3 463 464 465
3 463 465 466
3 466 465 467
3 466 467 468
3 468 467 469
3 468 469 470
3 470 469 471
3 471 469 472
3 471 472 473
3 471 473 474
3 474 473 475
3 474 475 476
3 476 475 477
3 456 455 454
3 457 454 455
3 458 457 455
3 459 457 458
3 460 459 458
3 461 459 460
3 462 461 460
3 463 461 462
3 464 461 463
3 465 464 463
3 466 465 463
3 467 465 466
3 468 467 466
3 469 467 468
3 470 469 468
3 471 469 470
3 472 469 471
3 473 472 471
3 474 473 471
3 475 473 474
3 476 475 474
3 477 475 476
3 478 479 480
3 479 478 481
3 479 481 482
3 482 481 483
3 482 483 484
3 484 483 485
3 484 485 486
3 486 485 487
3 486 487 488
3 488 487 489
3 488 489 490
3 490 489 491
3 490 491 492
3 492 491 493
3 492 493 494
3 494 493 495
3 494 495 496
3 496 495 497
3 496 497 498
3 498 497 499
3 498 499 500
3 500 499 501
3 480 479 478
3 481 478 479
3 482 481 479
3 483 481 482
3 484 483 482
3 485 483 484
3 486 485 484
3 487 485 486
3 488 487 486
3 489 487 488
3 490 489 488
3 491 489 490
3 492 491 490
3 493 491 492
3 494 493 492
3 495 493 494
3 496 495 494
3 497 495 496
3 498 497 496
3 499 497 498
3 500 499 498
3 501 499 500
3 502 503 504
3 503 502 505
3 503 505 508
3 508 505 511
3 509 507 506
3 507 509 510
3 508 511 512
3 510 509 513
3 512 511 515
3 510 513 514
3 512 515 517
3 514 513 518
3 514 518 516
3 517 515 520
3 516 518 521
3 516 521 519
3 517 520 522
3 519 521 523
3 522 520 525
3 519 523 524
3 522 525 526
3 524 523 527
3 526 525 529
3 524 527 528
3 526 529 530
3 528 527 531
3 530 529 533
3 528 531 532
3 530 533 534
3 532 531 535
3 534 533 537
3 532 535 536
3 534 537 538
3 536 535 539
3 538 537 541
3 536 539 540
3 538 541 542
3 540 539 543
3 542 541 545
3 540 543 544
3 542 545 546
3 544 543 547
3 546 545 549
3 544 547 548
3 503 506 504
3 506 502 504
3 507 505 502
3 506 503 509
3 502 506 507
3 505 507 510
3 508 509 503
3 510 511 505
3 509 508 513
3 511 510 514
3 512 513 508
3 516 511 514
3 511 516 515
3 513 512 518
3 519 515 516
3 521 512 517
3 512 521 518
3 515 519 520
3 517 523 521
3 524 520 519
3 523 517 522
3 520 524 525
3 522 527 523
3 528 525 524
3 527 522 526
3 525 528 529
3 526 531 527
3 532 529 528
3 531 526 530
3 529 532 533
3 530 535 531
3 536 533 532
3 535 530 534
3 533 536 537
3 534 539 535
3 540 537 536
3 539 534 538
3 537 540 541
3 538 543 539
3 544 541 540
3 543 538 542
3 541 544 545
3 542 547 543
3 548 545 544
3 547 542 546
3 545 548 549
3 548 546 549
3 546 548 547
3 504 503 502
3 505 502 503
3 508 505 503
3 511 505 508
3 506 507 509
3 510 509 507
3 512 511 508
3 513 509 510
3 515 511 512
3 514 513 510
3 517 515 512
3 518 513 514
3 516 518 514
3 520 515 517
3 521 518 516
3 519 521 516
3 522 520 517
3 523 521 519
3 525 520 522
3 524 523 519
3 526 525 522
3 527 523 524
3 529 525 526
3 528 527 524
3 530 529 526
3 531 527 528
3 533 529 530
3 532 531 528
3 534 533 530
3 535 531 532
3 537 533 534
3 536 535 532
3 538 537 534
3 539 535 536
3 541 537 538
3 540 539 536
3 542 541 538
3 543 539 540
3 545 541 542
3 544 543 540
3 546 545 542
3 547 543 544
3 549 545 546
3 548 547 544
3 504 506 503
3 504 502 506
3 502 505 507
3 509 503 506
3 507 506 502
3 510 507 505
3 503 509 508
3 505 511 510
3 513 508 509
3 514 510 511
3 508 513 512
3 514 511 516
3 515 516 511
3 518 512 513
3 516 515 519
3 517 512 521
3 518 521 512
3 520 519 515
3 521 523 517
3 519 520 524
3 522 517 523
3 525 524 520
3 523 527 522
3 524 525 528
3 526 522 527
3 529 528 525
3 527 531 526
3 528 529 532
3 530 526 531
3 533 532 529
3 531 535 530
3 532 533 536
3 534 530 535
3 537 536 533
3 535 539 534
3 536 537 540
3 538 534 539
3 541 540 537
3 539 543 538
3 540 541 544
3 542 538 543
3 545 544 541
3 543 547 542
3 544 545 548
3 546 542 547
3 549 548 545
3 549 546 548
3 547 548 546
3 550 551 552
3 554 552 551
3 557 554 551
3 553 556 555
3 559 554 557
3 558 555 556
3 561 559 557
3 560 555 558
3 563 559 561
3 562 560 558
3 566 563 561
3 564 560 562
3 565 564 562
3 569 563 566
3 567 564 565
3 568 567 565
3 570 569 566
3 571 567 568
3 573 569 570
3 572 571 568
3 574 573 570
3 575 571 572
3 577 573 574
3 576 575 572
3 578 577 574
3 579 575 576
3 581 577 578
3 580 579 576
3 582 581 578
3 583 579 580
3 585 581 582
3 584 583 580
3 586 585 582
3 587 583 584
3 589 585 586
3 588 587 584
3 590 589 586
3 591 587 588
3 593 589 590
3 592 591 588
3 594 593 590
3 595 591 592
3 597 593 594
3 596 595 592
3 550 553 551
3 550 552 553
3 555 551 553
3 552 554 556
3 556 553 552
3 551 555 557
3 558 556 554
3 560 557 555
3 554 559 558
3 557 560 561
3 562 558 559
3 564 561 560
3 562 559 565
3 563 565 559
3 564 567 561
3 565 563 568
3 566 561 567
3 569 568 563
3 567 571 566
3 568 569 572
3 570 566 571
3 573 572 569
3 571 575 570
3 572 573 576
3 574 570 575
3 577 576 573
3 575 579 574
3 576 577 580
3 578 574 579
3 581 580 577
3 579 583 578
3 580 581 584
3 582 578 583
3 585 584 581
3 583 587 582
3 584 585 588
3 586 582 587
3 589 588 585
3 587 591 586
3 588 589 592
3 590 586 591
3 593 592 589
3 591 595 590
3 592 593 596
3 594 590 595
3 597 596 593
3 595 596 594
3 597 594 596
3 552 551 550
3 551 552 554
3 551 554 557
3 555 556 553
3 557 554 559
3 556 555 558
3 557 559 561
3 558 555 560
3 561 559 563
3 558 560 562
3 561 563 566
3 562 560 564
3 562 564 565
3 566 563 569
3 565 564 567
3 565 567 568
3 566 569 570
3 568 567 571
3 570 569 573
3 568 571 572
3 570 573 574
3 572 571 575
3 574 573 577
3 572 575 576
3 574 577 578
3 576 575 579
3 578 577 581
3 576 579 580
3 578 581 582
3 580 579 583
3 582 581 585
3 580 583 584
3 582 585 586
3 584 583 587
3 586 585 589
3 584 587 588
3 586 589 590
3 588 587 591
3 590 589 593
3 588 591 592
3 590 593 594
3 592 591 595
3 594 593 597
3 592 595 596
3 551 553 550
3 553 552 550
3 553 551 555
3 556 554 552
3 552 553 556
3 557 555 551
3 554 556 558
3 555 557 560
3 558 559 554
3 561 560 557
3 559 558 562
3 560 561 564
3 565 559 562
3 559 565 563
3 561 567 564
3 568 563 565
3 567 561 566
3 563 568 569
3 566 571 567
3 572 569 568
3 571 566 570
3 569 572 573
3 570 575 571
3 576 573 572
3 575 570 574
3 573 576 577
3 574 579 575
3 580 577 576
3 579 574 578
3 577 580 581
3 578 583 579
3 584 581 580
3 583 578 582
3 581 584 585
3 582 587 583
3 588 585 584
3 587 582 586
3 585 588 589
3 586 591 587
3 592 589 588
3 591 586 590
3 589 592 593
3 590 595 591
3 596 593 592
3 595 590 594
3 593 596 597
3 594 596 595
3 596 594 597
3 600 599 598
3 601 598 599
3 600 602 599
3 600 598 602
3 601 603 598
3 601 599 603
3 604 599 602
3 605 602 598
3 605 598 603
3 604 603 599
3 604 602 603
3 605 603 602
3 598 599 600
3 599 598 601
3 599 602 600
3 602 598 600
3 598 603 601
3 603 599 601
3 602 599 604
3 598 602 605
3 603 598 605
3 599 603 604
3 603 602 604
3 602 603 605
3 606 607 608
3 607 606 609
3 607 609 612
3 612 609 615
3 613 611 610
3 611 613 614
3 612 615 616
3 614 613 617
3 616 615 619
3 614 617 618
3 616 619 621
3 618 617 622
3 618 622 620
3 621 619 624
3 620 622 625
3 620 625 623
3 621 624 626
3 623 625 627
3 626 624 629
3 623 627 628
3 626 629 630
3 628 627 631
3 630 629 633
3 628 631 632
3 630 633 634
3 632 631 635
3 634 633 637
3 632 635 636
3 634 637 638
3 636 635 639
3 638 637 641
3 636 639 640
3 638 641 642
3 640 639 643
3 642 641 645
3 640 643 644
3 642 645 646
3 644 643 647
3 646 645 649
3 644 647 648
3 646 649 650
3 648 647 651
3 650 649 653
3 648 651 652
3 607 610 608
3 610 606 608
3 611 609 606
3 610 607 613
3 606 610 611
3 609 611 614
3 612 613 607
3 614 615 609
3 613 612 617
3 615 614 618
3 616 617 612
3 620 615 618
3 615 620 619
3 617 616 622
3 623 619 620
3 625 616 621
3 616 625 622
3 619 623 624
3 621 627 625
3 628 624 623
3 627 621 626
3 624 628 629
3 626 631 627
3 632 629 628
3 631 626 630
3 629 632 633
3 630 635 631
3 636 633 632
3 635 630 634
3 633 636 637
3 634 639 635
3 640 637 636
3 639 634 638
3 637 640 641
3 638 643 639
3 644 641 640
3 643 638 642
3 641 644 645
3 642 647 643
3 648 645 644
3 647 642 646
3 645 648 649
3 646 651 647
3 652 649 648
3 651 646 650
3 649 652 653
3 652 650 653
3 650 652 651
3 608 607 606
3 609 606 607
3 612 609 607
3 615 609 612
3 610 611 613
3 614 613 611
3 616 615 612
3 617 613 614
3 619 615 616
3 618 617 614
3 621 619 616
3 622 617 618
3 620 622 618
3 624 619 621
3 625 622 620
3 623 625 620
3 626 624 621
3 627 625 623
3 629 624 626
3 628 627 623
3 630 629 626
3 631 627 628
3 633 629 630
3 632 631 628
3 634 633 630
3 635 631 632
3 637 633 634
3 636 635 632
3 638 637 634
3 639 635 636
3 641 637 638
3 640 639 636
3 642 641 638
3 643 639 640
3 645 641 642
3 644 643 640
3 646 645 642
3 647 643 644
3 649 645 646
3 648 647 644
3 650 649 646
3 651 647 648
3 653 649 650
3 652 651 648
3 608 610 607
3 608 606 610
3 606 609 611
3 613 607 610
3 611 610 606
3 614 611 609
3 607 613 612
3 609 615 614
3 617 612 613
3 618 614 615
3 612 617 616
3 618 615 620
3 619 620 615
3 622 616 617
3 620 619 623
3 621 616 625
3 622 625 616
3 624 623 619
3 625 627 621
3 623 624 628
3 626 621 627
3 629 628 624
3 627 631 626
3 628 629 632
3 630 626 631
3 633 632 629
3 631 635 630
3 632 633 636
3 634 630 635
3 637 636 633
3 635 639 634
3 636 637 640
3 638 634 639
3 641 640 637
3 639 643 638
3 640 641 644
3 642 638 643
3 645 644 641
3 643 647 642
3 644 645 648
3 646 642 647
3 649 648 645
3 647 651 646
3 648 649 652
3 650 646 651
3 653 652 649
3 653 650 652
3 651 652 650
3 654 655 656
3 658 656 655
3 661 658 655
3 657 660 659
3 663 658 661
3 662 659 660
3 665 663 661
3 664 659 662
3 667 663 665
3 666 664 662
3 670 667 665
3 668 664 666
3 669 668 666
3 673 667 670
3 671 668 669
3 672 671 669
3 674 673 670
3 675 671 672
3 677 673 674
3 676 675 672
3 678 677 674
3 679 675 676
3 681 677 678
3 680 679 676
3 682 681 678
3 683 679 680
3 685 681 682
3 684 683 680
3 686 685 682
3 687 683 684
3 689 685 686
3 688 687 684
3 690 689 686
3 691 687 688
3 693 689 690
3 692 691 688
3 694 693 690
3 695 691 692
3 697 693 694
3 696 695 692
3 698 697 694
3 699 695 696
3 701 697 698
3 700 699 696
3 654 657 655
3 654 656 657
3 659 655 657
3 656 658 660
3 660 657 656
3 655 659 661
3 662 660 658
3 664 661 659
3 658 663 662
3 661 664 665
3 666 662 663
3 668 665 664
3 666 663 669
3 667 669 663
3 668 671 665
3 669 667 672
3 670 665 671
3 673 672 667
3 671 675 670
3 672 673 676
3 674 670 675
3 677 676 673
3 675 679 674
3 676 677 680
3 678 674 679
3 681 680 677
3 679 683 678
3 680 681 684
3 682 678 683
3 685 684 681
3 683 687 682
3 684 685 688
3 686 682 687
3 689 688 685
3 687 691 686
3 688 689 692
3 690 686 691
3 693 692 689
3 691 695 690
3 692 693 696
3 694 690 695
3 697 696 693
3 695 699 694
3 696 697 700
3 698 694 699
3 701 700 697
3 699 700 698
3 701 698 700
3 656 655 654
3 655 656 658
3 655 658 661
3 659 660 657
3 661 658 663
3 660 659 662
3 661 663 665
3 662 659 664
3 665 663 667
3 662 664 666
3 665 667 670
3 666 664 668
3 666 668 669
3 670 667 673
3 669 668 671
3 669 671 672
3 670 673 674
3 672 671 675
3 674 673 677
3 672 675 676
3 674 677 678
3 676 675 679
3 678 677 681
3 676 679 680
3 678 681 682
3 680 679 683
3 682 681 685
3 680 683 684
3 682 685 686
3 684 683 687
3 686 685 689
3 684 687 688
3 686 689 690
3 688 687 691
3 690 689 693
3 688 691 692
3 690 693 694
3 692 691 695
3 694 693 697
3 692 695 696
3 694 697 698
3 696 695 699
3 698 697 701
3 696 699 700
3 655 657 654
3 657 656 654
3 657 655 659
3 660 658 656
3 656 657 660
3 661 659 655
3 658 660 662
3 659 661 664
3 662 663 658
3 665 664 661
3 663 662 666
3 664 665 668
3 669 663 666
3 663 669 667
3 665 671 668
3 672 667 669
3 671 665 670
3 667 672 673
3 670 675 671
3 676 673 672
3 675 670 674
3 673 676 677
3 674 679 675
3 680 677 676
3 679 674 678
3 677 680 681
3 678 683 679
3 684 681 680
3 683 678 682
3 681 684 685
3 682 687 683
3 688 685 684
3 687 682 686
3 685 688 689
3 686 691 687
3 692 689 688
3 691 686 690
3 689 692 693
3 690 695 691
3 696 693 692
3 695 690 694
3 693 696 697
3 694 699 695
3 700 697 696
3 699 694 698
3 697 700 701
3 698 700 699
3 700 698 701
