ply
format ascii 1.0
comment Generated by PyMesh
element vertex 112
property double x
property double y
property double z
element face 488
property list uchar int vertex_indices
end_header
0.189189 -0.0862529 0.113679
-0.189189 -0.0862529 0.454718
-0.189189 -0.0862529 0.113679
0.189189 -0.0862529 0.454718
-0.189189 -0.0761963 0.444661
-0.189189 -0.0718923 0.113679
0.189189 -0.0761963 0.444661
0.189189 0.0862529 0.454718
-0.189189 0.0761963 0.444661
-0.189189 -0.0761963 0.123736
0.164849 -0.0718923 0.113679
-0.189189 -0.0431267 0.113679
0.189189 -0.0761963 0.123736
-0.189189 0.0862529 0.454718
-0.189189 0 0.444661
-0.189189 0 0.113679
0.164849 -0.0718923 -0.113679
0.189189 0 0.113679
-0.189189 -0.0431267 -0.113679
0.189189 0.0761963 0.444661
0.189189 0.0100566 0.123736
-0.171781 0.0862529 0.444661
-0.189189 0.0862529 -0.454718
0.155998 0 0.444661
-0.189189 -0.0420421 0.444661
-0.189189 0.0100566 0.123736
-0.189189 -0.0718923 -0.113679
0.164849 -0.067724 0.109512
0.164849 -0.0431267 0.113679
0.189189 0.0862529 -0.454718
0.155998 -0.0420421 0.444661
0.155998 -0.0420421 0.123736
0.171781 0.0862529 0.444661
-0.189189 0.0761963 -0.444661
-0.171781 0.0761963 0.444661
-0.189189 0 0.123736
-0.189189 -0.0420421 0.123736
-0.189189 0.0100566 -0.123735
-0.189189 -0.0862529 -0.113679
0.164849 -0.067724 -0.109512
0.189189 0.0100566 -0.123735
-0.189189 0 -0.113679
0.164849 -0.0431267 -0.113679
0.189189 0.0761963 -0.444661
0.171781 0.0862529 -0.444661
0.155998 0 0.123736
-0.171781 0.0862529 -0.444661
0.171781 0.0761963 0.444661
-0.189189 -0.0761963 -0.444661
-0.171781 0.0761963 -0.444661
0.189189 -0.0862529 -0.113679
0.164849 -0.047294 0.109512
0.164849 -0.047294 -0.109512
0.162636 -0.067724 -0.109512
0.189189 0 -0.113679
0.189189 -0.0862529 -0.454718
0.155998 -0.036276 0.438895
0.155998 -0.00576609 0.129502
-0.189189 -0.0862529 -0.454718
-0.189189 -0.0420421 -0.444661
-0.189189 0 -0.444661
0.171781 0.0761963 -0.444661
0.155998 -0.00576609 0.438895
0.162636 -0.047294 0.109512
0.162636 -0.067724 0.109512
0.189189 -0.0761963 -0.123735
0.155998 0 -0.123735
0.189189 -0.0761963 -0.444661
0.155998 -0.036276 0.129502
-0.189189 -0.0761963 -0.123735
0.155998 -0.0420421 -0.444661
0.162636 -0.047294 -0.109512
0.162636 -0.0604077 0.102195
0.155998 -0.0420421 -0.123735
-0.189189 0 -0.123735
0.151572 -0.00576609 0.438895
0.151572 -0.036276 0.129502
-0.189189 -0.0420421 -0.123735
0.162636 -0.0546108 -0.102195
0.162636 -0.0604077 -0.102195
0.155998 -0.036276 -0.129502
0.155998 0 -0.444661
0.151572 -0.036276 0.438895
0.151572 -0.00576609 0.129502
0.162636 -0.0546108 0.102195
0.164849 -0.0604077 -0.102195
0.155998 -0.00576609 -0.129502
0.155998 -0.00576609 -0.438895
0.151572 -0.0257268 0.428346
0.151572 -0.0163147 0.428346
0.151572 -0.0163147 0.140051
0.164849 -0.0546108 0.102195
0.164849 -0.0604077 0.102195
0.155998 -0.036276 -0.438895
0.151572 -0.00576609 -0.129502
0.151572 -0.0257268 0.140051
0.164849 -0.0546108 -0.102195
0.151572 -0.036276 -0.438895
0.151572 -0.036276 -0.129502
0.155998 -0.0163147 0.428346
0.155998 -0.0257268 0.140051
0.151572 -0.0257268 -0.140051
0.151572 -0.00576609 -0.438895
0.155998 -0.0257268 0.428346
0.155998 -0.0163147 0.140051
0.151572 -0.0163147 -0.140051
0.151572 -0.0163147 -0.428346
0.151572 -0.0257268 -0.428346
0.155998 -0.0163147 -0.140051
0.155998 -0.0257268 -0.428346
0.155998 -0.0257268 -0.140051
0.155998 -0.0163147 -0.428346
3 0 1 2
3 1 0 3
3 1 4 2
3 5 0 2
3 6 3 0
3 7 1 3
3 4 1 8
3 2 4 9
3 0 5 10
3 2 11 5
3 3 6 7
3 6 0 12
3 1 7 13
3 13 8 1
3 4 8 14
3 6 9 4
3 2 9 15
3 5 16 10
3 0 10 17
3 2 15 11
3 18 5 11
3 19 7 6
3 12 0 20
3 9 6 12
3 21 13 7
3 8 13 22
3 8 23 14
3 4 14 24
3 24 6 4
3 9 25 15
3 16 5 26
3 27 10 16
3 17 10 28
3 20 0 17
3 15 28 11
3 5 18 26
3 28 18 11
3 7 19 29
3 6 30 19
3 31 12 20
3 12 31 9
3 13 21 22
3 21 7 32
3 8 22 33
3 23 8 34
3 23 35 14
3 35 24 14
3 6 24 30
3 36 25 9
3 15 25 37
3 26 38 16
3 10 27 28
3 27 16 39
3 17 28 15
3 20 17 40
3 26 18 41
3 18 28 42
3 29 19 43
3 29 44 7
3 19 30 23
3 31 20 45
3 36 9 31
3 46 22 21
3 32 7 44
3 47 21 32
3 33 22 48
3 49 8 33
3 8 49 34
3 47 23 34
3 35 23 45
3 24 35 36
3 24 31 30
3 36 35 25
3 20 37 25
3 15 37 41
3 26 41 38
3 50 16 38
3 51 28 27
3 39 16 52
3 53 27 39
3 15 54 17
3 40 17 54
3 37 20 40
3 18 54 41
3 28 51 42
3 42 54 18
3 47 43 19
3 29 43 55
3 29 46 44
3 30 56 23
3 19 23 47
3 45 20 35
3 45 57 31
3 31 24 36
3 22 46 29
3 21 49 46
3 44 47 32
3 21 47 34
3 58 48 22
3 59 33 48
3 60 49 33
3 49 21 34
3 23 62 45
3 56 30 31
3 35 20 25
3 41 37 38
3 54 15 41
3 16 50 54
3 38 55 50
3 27 63 51
3 42 52 16
3 52 53 39
3 27 53 64
3 40 54 65
3 40 66 37
3 42 51 52
3 16 54 42
3 43 47 61
3 67 55 43
3 55 22 29
3 49 44 46
3 62 23 56
3 45 62 57
3 68 31 57
3 47 44 61
3 58 69 48
3 22 55 58
3 59 60 33
3 59 48 70
3 49 60 61
3 44 49 61
3 56 31 68
3 38 37 69
3 50 65 54
3 55 38 58
3 65 50 55
3 63 27 64
3 63 52 51
3 53 52 71
3 65 73 40
3 40 73 66
3 37 66 74
3 60 43 61
3 65 55 67
3 70 67 43
3 56 75 62
3 75 57 62
3 57 76 68
3 38 69 58
3 65 48 69
3 77 60 59
3 67 70 48
3 70 77 59
3 76 56 68
3 69 37 74
3 52 63 71
3 65 77 73
3 73 80 66
3 66 60 74
3 81 43 60
3 48 65 67
3 70 43 81
3 75 56 82
3 57 75 83
3 76 57 83
3 77 65 69
3 60 77 74
3 77 70 73
3 56 76 82
3 69 74 77
3 85 72 79
3 80 73 70
3 86 66 80
3 60 66 81
3 81 87 70
3 72 91 84
3 91 78 84
3 72 85 92
3 80 70 93
3 66 86 81
3 80 94 86
3 81 86 87
3 93 70 87
3 91 72 92
3 78 91 96
3 85 91 92
3 97 80 93
3 94 80 98
3 94 87 86
3 87 97 93
3 88 99 89
3 99 90 89
3 90 100 95
3 100 88 95
3 91 85 96
3 80 97 98
3 87 94 102
3 97 87 102
3 99 88 103
3 90 99 104
3 100 90 104
3 88 100 103
3 100 99 103
3 99 100 104
3 101 108 105
3 109 101 107
3 108 101 110
3 108 106 105
3 106 109 107
3 101 109 110
3 109 108 110
3 106 108 111
3 109 106 111
3 108 109 111
3 2 1 0
3 3 0 1
3 2 4 1
3 2 0 5
3 0 3 6
3 3 1 7
3 8 1 4
3 9 4 2
3 10 5 0
3 5 11 2
3 7 6 3
3 12 0 6
3 13 7 1
3 1 8 13
3 14 8 4
3 4 9 6
3 15 9 2
3 10 16 5
3 17 10 0
3 11 15 2
3 11 5 18
3 6 7 19
3 20 0 12
3 12 6 9
3 7 13 21
3 22 13 8
3 14 23 8
3 24 14 4
3 4 6 24
3 15 25 9
3 26 5 16
3 16 10 27
3 28 10 17
3 17 0 20
3 11 28 15
3 26 18 5
3 11 18 28
3 29 19 7
3 19 30 6
3 20 12 31
3 9 31 12
3 22 21 13
3 32 7 21
3 33 22 8
3 34 8 23
3 14 35 23
3 14 24 35
3 30 24 6
3 9 25 36
3 37 25 15
3 16 38 26
3 28 27 10
3 39 16 27
3 15 28 17
3 40 17 20
3 41 18 26
3 42 28 18
3 43 19 29
3 7 44 29
3 23 30 19
3 45 20 31
3 31 9 36
3 21 22 46
3 44 7 32
3 32 21 47
3 48 22 33
3 33 8 49
3 34 49 8
3 34 23 47
3 45 23 35
3 36 35 24
3 30 31 24
3 25 35 36
3 25 37 20
3 41 37 15
3 38 41 26
3 38 16 50
3 27 28 51
3 52 16 39
3 39 27 53
3 17 54 15
3 54 17 40
3 40 20 37
3 41 54 18
3 42 51 28
3 18 54 42
3 19 43 47
3 55 43 29
3 44 46 29
3 23 56 30
3 47 23 19
3 35 20 45
3 31 57 45
3 36 24 31
3 29 46 22
3 46 49 21
3 32 47 44
3 34 47 21
3 22 48 58
3 48 33 59
3 33 49 60
3 34 21 49
3 45 62 23
3 31 30 56
3 25 20 35
3 38 37 41
3 41 15 54
3 54 50 16
3 50 55 38
3 51 63 27
3 16 52 42
3 39 53 52
3 64 53 27
3 65 54 40
3 37 66 40
3 52 51 42
3 42 54 16
3 61 47 43
3 43 55 67
3 29 22 55
3 46 44 49
3 56 23 62
3 57 62 45
3 57 31 68
3 61 44 47
3 48 69 58
3 58 55 22
3 33 60 59
3 70 48 59
3 61 60 49
3 61 49 44
3 68 31 56
3 69 37 38
3 54 65 50
3 58 38 55
3 55 50 65
3 64 27 63
3 51 52 63
3 71 52 53
3 72 64 53
3 53 64 72
3 40 73 65
3 66 73 40
3 74 66 37
3 61 43 60
3 67 55 65
3 43 67 70
3 62 75 56
3 62 57 75
3 68 76 57
3 58 69 38
3 69 48 65
3 59 60 77
3 48 70 67
3 59 77 70
3 68 56 76
3 74 37 69
3 64 72 63
3 63 72 64
3 71 63 52
3 71 78 53
3 53 78 71
3 72 53 79
3 79 53 72
3 73 77 65
3 66 80 73
3 74 60 66
3 60 43 81
3 67 65 48
3 81 43 70
3 82 56 75
3 83 75 57
3 83 57 76
3 69 65 77
3 74 77 60
3 73 70 77
3 82 76 56
3 77 74 69
3 84 63 72
3 72 63 84
3 63 84 71
3 71 84 63
3 71 84 78
3 78 84 71
3 79 53 78
3 78 53 79
3 79 72 85
3 70 73 80
3 80 66 86
3 81 66 60
3 70 87 81
3 82 88 75
3 75 88 82
3 75 89 83
3 83 89 75
3 83 90 76
3 76 90 83
3 88 82 76
3 76 82 88
3 84 91 72
3 84 78 91
3 78 85 79
3 79 85 78
3 92 85 72
3 93 70 80
3 81 86 66
3 86 94 80
3 87 86 81
3 87 70 93
3 89 75 88
3 88 75 89
3 83 89 90
3 90 89 83
3 95 76 90
3 90 76 95
3 88 76 95
3 95 76 88
3 92 72 91
3 96 91 78
3 85 78 96
3 96 78 85
3 92 91 85
3 93 80 97
3 98 80 94
3 86 87 94
3 93 97 87
3 89 99 88
3 89 90 99
3 95 100 90
3 95 88 100
3 96 85 91
3 98 97 80
3 98 101 94
3 94 101 98
3 102 94 87
3 102 87 97
3 103 88 99
3 104 99 90
3 104 90 100
3 103 100 88
3 101 98 97
3 97 98 101
3 105 94 101
3 101 94 105
3 94 105 102
3 102 105 94
3 102 106 97
3 97 106 102
3 103 99 100
3 104 100 99
3 101 97 107
3 107 97 101
3 105 108 101
3 102 105 106
3 106 105 102
3 107 97 106
3 106 97 107
3 107 101 109
3 110 101 108
3 105 106 108
3 107 109 106
3 110 109 101
3 110 108 109
3 111 108 106
3 111 106 109
3 111 109 108
3 32 46 21
3 21 46 32
3 46 32 44
3 44 32 46
3 61 34 49
3 49 34 61
3 34 61 47
3 47 61 34
