ply
format ascii 1.0
comment Generated by PyMesh
element vertex 186
property double x
property double y
property double z
element face 636
property list uchar int vertex_indices
end_header
-0.184092 0.0972153 -0.390761
0.179605 0.136088 -0.390761
0.179605 0.0972153 -0.390761
-0.184092 0.136088 -0.390761
0.179605 0.116652 -0.280533
-0.184092 0.0674374 -0.365774
-0.184092 0.136088 0.390761
0.179605 0.165866 -0.365774
0.179605 0.0674374 -0.365774
0.179605 0.15318 -0.293828
-0.184092 0.0972153 0.390761
-0.184092 0.165866 0.365774
-0.184092 0.165866 -0.365774
0.179605 0.0621559 -0.33582
-0.144313 0.15318 -0.293828
-0.184092 0.0674374 0.365774
0.179605 0.0972153 0.390761
0.179605 0.136088 0.390761
-0.184092 0.172616 -0.327492
0.179605 0.172616 -0.327492
0.179605 -0.047246 -0.280533
-0.144313 0.116652 -0.280533
-0.184092 0.0621559 -0.33582
0.179605 0.0674374 0.365774
0.179605 0.165866 0.365774
-0.184092 0.172616 0.327492
-0.144313 0.172616 -0.327492
0.179605 -0.206363 -0.313089
-0.144313 -0.047246 -0.280533
-0.144313 0.15318 0.293828
-0.184092 0.0621559 0.33582
0.179605 0.116652 0.280533
0.179605 0.15318 0.293828
0.179605 0.172616 0.327492
-0.144313 0.240809 -0.327492
-0.184092 0.240809 0.327492
0.179605 -0.206363 0.313089
-0.144313 -0.047246 0.280533
-0.144313 0.116652 0.280533
-0.144313 0.172616 0.327492
-0.184092 -0.206363 -0.313089
0.179605 0.0621559 0.33582
-0.184092 0.240809 -0.327492
-0.144313 0.240809 0.327492
0.179605 -0.047246 0.280533
-0.184092 -0.206363 0.313089
-0.161361 -0.251825 -0.313089
-0.13863 -0.206363 -0.313089
-0.13863 -0.251825 -0.313089
-0.161361 -0.206363 -0.313089
-0.13863 -0.251825 -0.290358
-0.161361 -0.206363 -0.290358
-0.13863 -0.206363 -0.290358
-0.161361 -0.251825 -0.290358
0.134143 -0.251825 -0.313089
0.156874 -0.206363 -0.313089
0.156874 -0.251825 -0.313089
0.134143 -0.206363 -0.313089
0.156874 -0.251825 -0.290358
0.134143 -0.206363 -0.290358
0.156874 -0.206363 -0.290358
0.134143 -0.251825 -0.290358
-0.161361 -0.251825 0.290358
-0.13863 -0.206363 0.290358
-0.13863 -0.251825 0.290358
-0.161361 -0.206363 0.290358
-0.13863 -0.251825 0.313089
-0.161361 -0.206363 0.313089
-0.13863 -0.206363 0.313089
-0.161361 -0.251825 0.313089
0.134143 -0.251825 0.290358
0.156874 -0.206363 0.290358
0.156874 -0.251825 0.290358
0.134143 -0.206363 0.290358
0.156874 -0.251825 0.313089
0.134143 -0.206363 0.313089
0.156874 -0.206363 0.313089
0.134143 -0.251825 0.313089
0.178046 0.0441592 0.00626257
0.145654 0.0549567 0.241179
0.178046 0.0441592 0.27357
0.145654 0.0549567 0.0386541
-0.124277 0.0441592 0.27357
0.184092 0.000970194 0.278916
-0.0918852 0.0549567 0.0386541
-0.0918852 0.0549567 0.241179
-0.130324 0.000970194 0.278916
0.184092 0.000970194 0.000916781
-0.124277 0.0441592 0.00626257
-0.130324 0.000970194 0.000916781
0.178046 -0.0422188 0.27357
-0.124277 -0.0422188 0.00626257
0.178046 -0.0422188 0.00626257
-0.124277 -0.0422188 0.27357
0.145654 -0.0530158 0.241179
-0.0918852 -0.0530158 0.241179
0.145654 -0.0530158 0.0386541
-0.0918852 -0.0530158 0.0386541
0.178046 0.0441592 -0.273978
0.145654 0.0549567 -0.039062
0.178046 0.0441592 -0.00666999
0.145654 0.0549567 -0.241586
-0.124277 0.0441592 -0.00666999
0.184092 0.000970194 -0.00132373
-0.0918852 0.0549567 -0.241586
-0.0918852 0.0549567 -0.039062
-0.130324 0.000970194 -0.00132373
0.184092 0.000970194 -0.279324
-0.124277 0.0441592 -0.273978
-0.130324 0.000970194 -0.279324
0.178046 -0.0422188 -0.00666999
-0.124277 -0.0422188 -0.273978
0.178046 -0.0422188 -0.273978
-0.124277 -0.0422188 -0.00666999
0.145654 -0.0530158 -0.039062
-0.0918852 -0.0530158 -0.039062
0.145654 -0.0530158 -0.241586
-0.0918852 -0.0530158 -0.241586
-0.138487 0.0783168 -0.241624
-0.138487 0.0783168 -0.0391004
-0.141187 0.091893 -0.22003
-0.133089 0.0579519 -0.00670883
-0.141187 0.091893 -0.0606949
-0.141187 0.214082 -0.22003
-0.133089 0.0579519 -0.274016
-0.133089 0.248023 -0.00670883
-0.141187 0.214082 -0.0606949
-0.138487 0.227659 -0.0391004
-0.138487 0.134074 -0.241624
-0.111495 0.0541502 -0.00136212
-0.111495 0.251825 -0.00136212
-0.138487 0.177528 -0.287087
-0.111495 0.0541502 -0.279362
-0.133089 0.15048 -0.274016
-0.111495 0.251825 -0.324824
-0.138487 0.227659 -0.287087
-0.0899004 0.0579519 -0.00670883
-0.111495 0.150568 -0.279362
-0.0898999 0.248023 -0.319478
-0.133089 0.248023 -0.319478
-0.133089 0.177528 -0.319478
-0.0899004 0.0579519 -0.274016
-0.0898999 0.248023 -0.00670883
-0.111495 0.177324 -0.324824
-0.0845014 0.0783168 -0.241624
-0.0898999 0.15048 -0.274016
-0.0845014 0.227659 -0.0391004
-0.0845014 0.227659 -0.287087
-0.0898999 0.177324 -0.319478
-0.0845014 0.0783168 -0.0391004
-0.0845014 0.177324 -0.287087
-0.0845014 0.132844 -0.241624
-0.141187 0.091893 0.221221
-0.138488 0.0783168 0.0402916
-0.138488 0.0783168 0.242815
-0.141187 0.091893 0.0618861
-0.133089 0.0579519 0.00789914
-0.141187 0.214082 0.221221
-0.141187 0.214082 0.0618861
-0.138488 0.227659 0.0402916
-0.133089 0.0579519 0.275207
-0.133089 0.248023 0.00789914
-0.138488 0.134074 0.242815
-0.111495 0.0541502 0.00255335
-0.111495 0.251825 0.00255335
-0.138488 0.177528 0.288278
-0.138488 0.227659 0.288278
-0.111495 0.0541502 0.280553
-0.133089 0.15048 0.275207
-0.111495 0.251825 0.326015
-0.133089 0.248023 0.320669
-0.0899004 0.0579519 0.00789914
-0.111495 0.150568 0.280553
-0.0899004 0.248023 0.320669
-0.133089 0.177528 0.320669
-0.0899004 0.0579519 0.275207
-0.0899004 0.248023 0.00789914
-0.111495 0.177324 0.326015
-0.0845019 0.0783168 0.242815
-0.0899004 0.15048 0.275207
-0.0845019 0.227659 0.0402916
-0.0845019 0.227659 0.288278
-0.0899004 0.177324 0.320669
-0.0845019 0.0783168 0.0402916
-0.0845019 0.177324 0.288278
-0.0845019 0.132844 0.242815
3 4 2 1
3 1 2 4
3 0 6 3
3 3 6 0
3 4 8 2
3 2 8 4
3 4 1 9
3 9 1 4
3 5 10 0
3 0 10 5
3 0 10 6
3 6 10 0
3 3 6 11
3 11 6 3
3 9 1 7
3 7 1 9
3 4 13 8
3 8 13 4
3 5 15 10
3 10 15 5
3 3 11 12
3 12 11 3
3 9 7 19
3 19 7 9
3 20 13 4
3 4 13 20
3 22 15 5
3 5 15 22
3 12 11 25
3 25 11 12
3 12 25 18
3 18 25 12
3 20 27 13
3 13 27 20
3 29 21 14
3 14 21 29
3 27 22 13
3 13 22 27
3 22 30 15
3 15 30 22
3 16 31 17
3 17 31 16
3 23 31 16
3 16 31 23
3 17 32 24
3 24 32 17
3 18 25 35
3 35 25 18
3 27 20 36
3 36 20 27
3 37 20 28
3 28 20 37
3 38 21 29
3 29 21 38
3 38 28 21
3 21 28 38
3 22 27 40
3 40 27 22
3 40 30 22
3 22 30 40
3 17 31 32
3 32 31 17
3 41 31 23
3 23 31 41
3 24 32 33
3 33 32 24
3 18 35 42
3 42 35 18
3 36 20 44
3 44 20 36
3 20 37 44
3 44 37 20
3 28 38 37
3 37 38 28
3 30 40 45
3 45 40 30
3 30 36 41
3 41 36 30
3 41 44 31
3 31 44 41
3 44 41 36
3 36 41 44
3 36 30 45
3 45 30 36
3 0 1 2
3 1 0 3
3 2 1 0
3 3 0 1
3 2 5 0
3 0 5 2
3 3 7 1
3 1 7 3
3 5 2 8
3 8 2 5
3 7 3 12
3 12 3 7
3 14 4 9
3 9 4 14
3 13 5 8
3 8 5 13
3 16 6 10
3 10 6 16
3 17 11 6
3 6 11 17
3 18 7 12
3 12 7 18
3 4 14 21
3 21 14 4
3 19 14 9
3 9 14 19
3 5 13 22
3 22 13 5
3 23 10 15
3 15 10 23
3 6 16 17
3 17 16 6
3 10 23 16
3 16 23 10
3 11 17 24
3 24 17 11
3 26 7 18
3 18 7 26
3 7 26 19
3 19 26 7
3 4 28 20
3 20 28 4
3 28 4 21
3 21 4 28
3 14 19 26
3 26 19 14
3 30 23 15
3 15 23 30
3 33 11 24
3 24 11 33
3 11 33 25
3 25 33 11
3 18 34 26
3 26 34 18
3 29 14 39
3 39 14 29
3 39 14 26
3 26 14 39
3 23 30 41
3 41 30 23
3 25 33 39
3 39 33 25
3 34 18 42
3 42 18 34
3 43 26 34
3 34 26 43
3 39 35 25
3 25 35 39
3 32 38 29
3 29 38 32
3 39 32 29
3 29 32 39
3 39 26 43
3 43 26 39
3 38 32 31
3 31 32 38
3 32 39 33
3 33 39 32
3 35 34 42
3 42 34 35
3 34 35 43
3 43 35 34
3 35 39 43
3 43 39 35
3 37 31 44
3 44 31 37
3 31 37 38
3 38 37 31
3 46 47 48
3 47 46 49
3 48 47 46
3 49 46 47
3 47 50 48
3 48 50 47
3 46 51 49
3 49 51 46
3 50 47 52
3 52 47 50
3 51 46 53
3 53 46 51
3 51 50 52
3 52 50 51
3 50 51 53
3 53 51 50
3 54 55 56
3 55 54 57
3 56 55 54
3 57 54 55
3 55 58 56
3 56 58 55
3 54 59 57
3 57 59 54
3 58 55 60
3 60 55 58
3 59 54 61
3 61 54 59
3 59 58 60
3 60 58 59
3 58 59 61
3 61 59 58
3 62 63 64
3 63 62 65
3 64 63 62
3 65 62 63
3 63 66 64
3 64 66 63
3 62 67 65
3 65 67 62
3 66 63 68
3 68 63 66
3 67 62 69
3 69 62 67
3 67 66 68
3 68 66 67
3 66 67 69
3 69 67 66
3 70 71 72
3 71 70 73
3 72 71 70
3 73 70 71
3 71 74 72
3 72 74 71
3 70 75 73
3 73 75 70
3 74 71 76
3 76 71 74
3 75 70 77
3 77 70 75
3 75 74 76
3 76 74 75
3 74 75 77
3 77 75 74
3 78 79 80
3 79 78 81
3 80 79 78
3 81 78 79
3 79 82 80
3 80 82 79
3 83 78 80
3 80 78 83
3 78 84 81
3 81 84 78
3 81 85 79
3 79 85 81
3 82 79 85
3 85 79 82
3 86 80 82
3 82 80 86
3 78 83 87
3 87 83 78
3 80 86 83
3 83 86 80
3 84 78 88
3 88 78 84
3 85 81 84
3 84 81 85
3 85 88 82
3 82 88 85
3 82 89 86
3 86 89 82
3 90 87 83
3 83 87 90
3 89 78 87
3 87 78 89
3 86 90 83
3 83 90 86
3 78 89 88
3 88 89 78
3 88 85 84
3 84 85 88
3 89 82 88
3 88 82 89
3 91 86 89
3 89 86 91
3 87 90 92
3 92 90 87
3 92 89 87
3 87 89 92
3 90 86 93
3 93 86 90
3 86 91 93
3 93 91 86
3 89 92 91
3 91 92 89
3 94 92 90
3 90 92 94
3 95 90 93
3 93 90 95
3 91 95 93
3 93 95 91
3 96 91 92
3 92 91 96
3 92 94 96
3 96 94 92
3 90 95 94
3 94 95 90
3 95 91 97
3 97 91 95
3 91 96 97
3 97 96 91
3 94 97 96
3 96 97 94
3 97 94 95
3 95 94 97
3 98 99 100
3 99 98 101
3 100 99 98
3 101 98 99
3 99 102 100
3 100 102 99
3 103 98 100
3 100 98 103
3 98 104 101
3 101 104 98
3 101 105 99
3 99 105 101
3 102 99 105
3 105 99 102
3 106 100 102
3 102 100 106
3 98 103 107
3 107 103 98
3 100 106 103
3 103 106 100
3 104 98 108
3 108 98 104
3 105 101 104
3 104 101 105
3 105 108 102
3 102 108 105
3 102 109 106
3 106 109 102
3 110 107 103
3 103 107 110
3 109 98 107
3 107 98 109
3 106 110 103
3 103 110 106
3 98 109 108
3 108 109 98
3 108 105 104
3 104 105 108
3 109 102 108
3 108 102 109
3 111 106 109
3 109 106 111
3 107 110 112
3 112 110 107
3 112 109 107
3 107 109 112
3 110 106 113
3 113 106 110
3 106 111 113
3 113 111 106
3 109 112 111
3 111 112 109
3 114 112 110
3 110 112 114
3 115 110 113
3 113 110 115
3 111 115 113
3 113 115 111
3 116 111 112
3 112 111 116
3 112 114 116
3 116 114 112
3 110 115 114
3 114 115 110
3 115 111 117
3 117 111 115
3 111 116 117
3 117 116 111
3 114 117 116
3 116 117 114
3 117 114 115
3 115 114 117
3 118 119 120
3 120 119 118
3 119 118 121
3 121 118 119
3 122 120 119
3 119 120 122
3 120 123 118
3 118 123 120
3 124 121 118
3 118 121 124
3 121 125 119
3 119 125 121
3 122 126 120
3 120 126 122
3 119 127 122
3 122 127 119
3 123 120 126
3 126 120 123
3 128 118 123
3 123 118 128
3 121 124 129
3 129 124 121
3 118 128 124
3 124 128 118
3 125 121 130
3 130 121 125
3 127 119 125
3 125 119 127
3 126 122 127
3 127 122 126
3 126 127 123
3 123 127 126
3 131 128 123
3 123 128 131
3 132 129 124
3 124 129 132
3 129 130 121
3 121 130 129
3 133 124 128
3 128 124 133
3 130 134 125
3 125 134 130
3 127 125 135
3 135 125 127
3 135 123 127
3 127 123 135
3 131 133 128
3 128 133 131
3 135 131 123
3 123 131 135
3 129 132 136
3 136 132 129
3 132 124 137
3 137 124 132
3 129 136 130
3 130 136 129
3 133 137 124
3 124 137 133
3 134 130 138
3 138 130 134
3 139 125 134
3 134 125 139
3 139 135 125
3 125 135 139
3 131 140 133
3 133 140 131
3 131 135 140
3 140 135 131
3 141 136 132
3 132 136 141
3 132 137 141
3 141 137 132
3 142 130 136
3 136 130 142
3 133 140 137
3 137 140 133
3 142 138 130
3 130 138 142
3 134 138 143
3 143 138 134
3 139 134 140
3 140 134 139
3 139 140 135
3 135 140 139
3 141 144 136
3 136 144 141
3 145 141 137
3 137 141 145
3 142 136 146
3 146 136 142
3 137 140 143
3 143 140 137
3 138 142 147
3 147 142 138
3 148 143 138
3 138 143 148
3 143 140 134
3 134 140 143
3 141 145 144
3 144 145 141
3 149 136 144
3 144 136 149
3 137 143 145
3 145 143 137
3 149 146 136
3 136 146 149
3 146 147 142
3 142 147 146
3 147 150 138
3 138 150 147
3 145 143 148
3 148 143 145
3 148 138 150
3 150 138 148
3 151 144 145
3 145 144 151
3 144 151 149
3 149 151 144
3 149 151 146
3 146 151 149
3 146 151 147
3 147 151 146
3 150 147 151
3 151 147 150
3 148 150 145
3 145 150 148
3 145 150 151
3 151 150 145
3 152 153 154
3 153 152 155
3 154 153 152
3 155 152 153
3 156 154 153
3 153 154 156
3 154 157 152
3 152 157 154
3 152 158 155
3 155 158 152
3 155 159 153
3 153 159 155
3 154 156 160
3 160 156 154
3 153 161 156
3 156 161 153
3 157 154 162
3 162 154 157
3 158 152 157
3 157 152 158
3 159 155 158
3 158 155 159
3 161 153 159
3 159 153 161
3 163 160 156
3 156 160 163
3 160 162 154
3 154 162 160
3 164 156 161
3 161 156 164
3 157 162 165
3 165 162 157
3 157 159 158
3 158 159 157
3 166 161 159
3 159 161 166
3 160 163 167
3 167 163 160
3 156 164 163
3 163 164 156
3 162 160 168
3 168 160 162
3 161 169 164
3 164 169 161
3 162 168 165
3 165 168 162
3 157 165 166
3 166 165 157
3 159 157 166
3 166 157 159
3 161 166 170
3 170 166 161
3 171 167 163
3 163 167 171
3 172 160 167
3 167 160 172
3 164 171 163
3 163 171 164
3 160 172 168
3 168 172 160
3 169 161 170
3 170 161 169
3 173 164 169
3 169 164 173
3 168 174 165
3 165 174 168
3 174 166 165
3 165 166 174
3 166 174 170
3 170 174 166
3 167 171 175
3 175 171 167
3 175 172 167
3 167 172 175
3 171 164 176
3 176 164 171
3 172 174 168
3 168 174 172
3 174 169 170
3 170 169 174
3 164 173 176
3 176 173 164
3 177 173 169
3 169 173 177
3 171 178 175
3 175 178 171
3 172 175 179
3 179 175 172
3 180 171 176
3 176 171 180
3 177 174 172
3 172 174 177
3 169 174 177
3 177 174 169
3 181 176 173
3 173 176 181
3 173 177 182
3 182 177 173
3 178 171 183
3 183 171 178
3 178 179 175
3 175 179 178
3 179 177 172
3 172 177 179
3 171 180 183
3 183 180 171
3 176 181 180
3 180 181 176
3 173 184 181
3 181 184 173
3 182 177 179
3 179 177 182
3 184 173 182
3 182 173 184
3 183 185 178
3 178 185 183
3 179 178 185
3 185 178 179
3 180 185 183
3 183 185 180
3 181 185 180
3 180 185 181
3 185 181 184
3 184 181 185
3 179 184 182
3 182 184 179
3 185 184 179
3 179 184 185
