ply
format ascii 1.0
comment Generated by PyMesh
element vertex 221
property double x
property double y
property double z
element face 920
property list uchar int vertex_indices
end_header
-0.0472077 0.0439857 0.0126482
-0.0472077 0.0439857 -0.0126482
-0.0488732 0.0439857 2.82782e-07
-0.042326 0.0439857 0.0244368
-0.0488732 0.0244365 2.82782e-07
-0.0472077 -0.366547 0.0126482
-0.042326 -0.366547 0.0244368
-0.042326 0.0439857 -0.0244362
-0.0488732 -0.366547 2.82782e-07
-0.0345592 -0.366547 0.0345592
-0.0345592 0.0439857 0.0345592
-0.0472077 -0.366547 -0.0126482
-0.0509236 -0.366547 0.190053
-2.76521e-07 -0.366547 0.196756
-0.0345592 0.0244365 0.0345592
-0.042326 -0.366547 -0.0244362
-0.0345592 0.0439857 -0.0345592
-0.0509236 -0.366547 -0.190053
-0.0244367 0.0439857 0.042326
-0.0345592 -0.366547 -0.0345592
-0.0244367 -0.366547 0.042326
-2.76521e-07 -0.366547 -0.196756
-0.0920085 -0.366547 0.00935247
-0.0509236 -0.41542 0.190053
-0.0126482 -0.366547 0.0472072
-0.0244367 0.0439857 -0.042326
-2.76521e-07 -0.41542 -0.196756
-0.0926751 -0.366547 0.00429319
-0.0926751 -0.366547 0.0144118
-2.76521e-07 -0.41542 0.196756
-0.0983792 -0.41542 0.170397
-0.0126482 0.0439857 0.0472072
-0.0345592 0.0244365 -0.0345592
-0.0244367 -0.366547 -0.042326
-2.76521e-07 -0.366547 0.0488732
-0.0509236 -0.41542 -0.190053
0.0509236 -0.41542 -0.190053
-0.094628 -0.366547 -0.000422118
-0.0920085 -0.346998 0.00935247
-0.094628 -0.366547 0.0191271
-0.0926751 -0.346998 0.0144118
0.0509236 -0.366547 0.190053
-0.0983792 -0.366547 0.170397
-0.0126482 -0.366547 -0.0472072
-2.76521e-07 0.0244365 0.0488732
-0.0126482 0.0439857 -0.0472072
-0.0983792 -0.366547 -0.170397
0.0509236 -0.366547 -0.190053
0.0509236 -0.41542 0.190053
-0.0977344 -0.366547 -0.00447077
-0.0926751 -0.346998 0.00429319
-0.0977344 -0.366547 0.0231757
-0.094628 -0.346998 0.0191271
-0.139128 -0.41542 0.139127
-0.0983792 -0.41542 -0.170397
-2.76521e-07 -0.366547 -0.0488732
0.0126482 -0.366547 0.0472072
0.0126482 0.0439857 0.0472072
-2.76521e-07 0.0439857 0.0488732
0.0126482 -0.366547 -0.0472072
0.0983792 -0.41542 -0.170397
-0.094628 -0.346998 -0.000422118
-0.0977344 -0.346998 0.0231757
0.0983792 -0.366547 0.170397
-0.101783 -0.366547 0.0262821
-0.139128 -0.366547 0.139127
-0.139128 -0.41542 -0.139127
0.0244362 -0.366547 0.042326
-2.76521e-07 0.0439857 -0.0488732
-0.139128 -0.366547 -0.139127
-0.101783 -0.366547 -0.00757939
0.0244362 -0.366547 -0.042326
0.0983792 -0.366547 -0.170397
0.0983792 -0.41542 0.170397
-0.0977344 -0.346998 -0.00447077
-0.106498 -0.366547 0.028235
-0.13044 -0.366547 0.0144118
-0.170397 -0.366547 0.0983792
-0.170397 -0.41542 -0.0983792
-2.76521e-07 0.0244365 -0.0488732
0.0345587 -0.366547 0.0345592
0.0244362 0.0439857 0.042326
-0.13044 -0.366547 0.00429319
-0.106498 -0.366547 -0.00953229
-0.101783 -0.346998 -0.00757939
0.0126482 0.0439857 -0.0472072
0.0345587 -0.366547 -0.0345592
0.139127 -0.41542 -0.139127
0.139127 -0.41542 0.139127
-0.101783 -0.346998 0.0262821
0.139127 -0.366547 0.139127
-0.111558 -0.366547 0.0289016
-0.131107 -0.366547 0.00935247
-0.128487 -0.366547 0.0191271
-0.170397 -0.41542 0.0983792
-0.170397 -0.366547 -0.0983792
0.042326 -0.366547 0.0244368
0.0345587 0.0244365 0.0345592
-0.128487 -0.366547 -0.000422118
-0.111558 -0.366547 -0.0101967
-0.106498 -0.346998 -0.00953229
0.0244362 0.0439857 -0.042326
0.042326 -0.366547 -0.0244362
0.0488727 -0.366547 2.82782e-07
0.139127 -0.366547 -0.139127
-0.116617 -0.366547 0.028235
-0.106498 -0.346998 0.028235
-0.131107 -0.346998 0.00935247
-0.125381 -0.366547 0.0231757
-0.13044 -0.346998 0.0144118
-0.190054 -0.366547 0.0509236
-0.190054 -0.366547 -0.0509236
-0.190054 -0.41542 -0.0509236
0.0472072 -0.366547 0.0126482
0.0345587 0.0439857 0.0345592
-0.13044 -0.346998 0.00429319
-0.128487 -0.346998 -0.000422118
-0.125381 -0.366547 -0.00447077
-0.116617 -0.366547 -0.00953229
-0.111558 -0.346998 -0.0101967
0.0345587 0.0244365 -0.0345592
0.042326 0.0439857 -0.0244362
0.0472072 -0.366547 -0.0126482
0.170396 -0.366547 -0.0983792
0.170396 -0.41542 0.0983792
0.170396 -0.366547 0.0983792
-0.121332 -0.366547 0.0262821
-0.111558 -0.346998 0.0289016
-0.128487 -0.346998 0.0191271
-0.190054 -0.41542 0.0509236
0.042326 0.0439857 0.0244368
-0.125381 -0.346998 -0.00447077
-0.121332 -0.366547 -0.00757939
-0.116617 -0.346998 -0.00953229
0.0345587 0.0439857 -0.0345592
0.0472072 0.0439857 -0.0126482
0.0472072 0.0439857 0.0126482
0.0488727 0.0244365 2.82782e-07
0.170396 -0.41542 -0.0983792
-0.116617 -0.346998 0.028235
-0.121332 -0.346998 0.0262821
-0.125381 -0.346998 0.0231757
-0.196756 -0.366547 2.82782e-07
-0.196756 -0.41542 2.82782e-07
-0.121332 -0.346998 -0.00757939
0.0488727 0.0439857 2.82782e-07
0.0484391 0.0439857 0.00330386
0.190053 -0.366547 -0.0509236
0.190053 -0.41542 -0.0509236
0.190053 -0.41542 0.0509236
0.190053 -0.366547 0.0509236
0.196756 -0.366547 2.82782e-07
0.196756 -0.41542 2.82782e-07
-0.121205 0.141732 0.121205
-0.117295 0.141732 0.117295
-0.121205 0.141732 -0.121205
0.121205 0.141732 0.121205
-0.117295 0.141732 -0.117295
-0.121205 0.0146619 0.121205
0.117295 0.141732 0.117295
0.121205 0.141732 -0.121205
-0.117295 0.0146619 -0.117295
-0.121205 0.0146619 -0.121205
0.121205 0.0146619 0.121205
0.117295 0.141732 -0.117295
0.117295 0.0244365 0.117295
0.121205 0.0146619 -0.121205
-0.117295 0.0244365 0.117295
-0.117295 0.0244365 -0.117295
-0.117295 0.0146619 0.117295
0.117295 0.0244365 -0.117295
0.117295 0.0146619 0.117295
0.117295 0.0146619 -0.117295
-0.144664 0.239477 0.144664
-0.140754 0.239477 0.140754
-0.144664 0.239477 -0.144664
0.144664 0.239477 0.144664
-0.140754 0.239477 -0.140754
-0.144664 0.122182 0.144664
0.140754 0.239477 0.140754
0.144664 0.239477 -0.144664
-0.140754 0.122182 -0.140754
-0.144664 0.122182 -0.144664
0.144664 0.122182 0.144664
0.140754 0.239477 -0.140754
0.140754 0.122182 0.140754
0.144664 0.122182 -0.144664
-0.140754 0.122182 0.140754
0.140754 0.122182 -0.140754
-0.168123 0.337223 0.168123
-0.164213 0.337223 0.164213
-0.168123 0.337223 -0.168123
0.168123 0.337223 0.168123
-0.164213 0.337223 -0.164213
-0.168123 0.219928 0.168123
0.164213 0.337223 0.164213
0.168123 0.337223 -0.168123
-0.164213 0.219928 -0.164213
-0.168123 0.219928 -0.168123
0.168123 0.219928 0.168123
0.164213 0.337223 -0.164213
0.164213 0.219928 0.164213
0.168123 0.219928 -0.168123
-0.164213 0.219928 0.164213
0.164213 0.219928 -0.164213
-0.195492 0.41542 0.195492
-0.191582 0.41542 0.191582
-0.195492 0.41542 -0.195492
0.195492 0.41542 0.195492
-0.191582 0.41542 -0.191582
-0.195492 0.317674 0.195492
0.191582 0.41542 0.191582
0.195492 0.41542 -0.195492
-0.191582 0.317674 -0.191582
-0.195492 0.317674 -0.195492
0.195492 0.317674 0.195492
0.191582 0.41542 -0.191582
0.191582 0.317674 0.191582
0.195492 0.317674 -0.195492
-0.191582 0.317674 0.191582
0.191582 0.317674 -0.191582
3 0 1 2
3 1 0 3
3 2 1 0
3 3 0 1
3 1 3 7
3 7 3 1
3 4 2 8
3 7 3 10
3 10 3 7
3 11 5 8
3 8 5 11
3 5 12 8
3 5 11 6
3 6 11 5
3 6 13 5
3 6 15 9
3 9 15 6
3 9 13 6
3 7 10 16
3 16 10 7
3 8 17 11
3 8 12 17
3 13 12 5
3 6 11 15
3 15 11 6
3 9 15 19
3 19 15 9
3 20 13 9
3 16 10 18
3 18 10 16
3 15 11 21
3 21 11 17
3 12 22 17
3 19 15 21
3 9 19 20
3 20 19 9
3 24 13 20
3 16 18 25
3 25 18 16
3 22 27 17
3 22 12 28
3 32 16 19
3 33 19 21
3 20 19 33
3 33 19 20
3 34 13 24
3 20 33 24
3 24 33 20
3 25 18 31
3 31 18 25
3 27 37 17
3 28 12 39
3 23 35 29
3 29 35 23
3 30 35 23
3 23 35 30
3 43 33 21
3 41 13 34
3 24 43 34
3 34 43 24
3 24 33 43
3 43 33 24
3 25 31 45
3 45 31 25
3 29 35 26
3 26 35 29
3 48 26 36
3 36 26 48
3 37 49 17
3 39 12 51
3 12 42 51
3 30 54 35
3 35 54 30
3 55 43 21
3 56 41 34
3 34 43 55
3 55 43 34
3 45 31 58
3 58 31 45
3 29 26 48
3 48 26 29
3 17 49 46
3 47 59 21
3 48 36 60
3 60 36 48
3 38 40 50
3 40 52 61
3 51 42 64
3 53 66 30
3 30 66 53
3 30 66 54
3 54 66 30
3 59 55 21
3 67 41 56
3 34 59 56
3 56 59 34
3 34 55 59
3 59 55 34
3 45 58 68
3 68 58 45
3 49 70 46
3 71 59 47
3 48 60 73
3 73 60 48
3 50 40 61
3 52 62 74
3 61 52 74
3 63 41 72
3 64 42 75
3 42 65 76
3 53 78 66
3 66 78 53
3 80 41 67
3 56 59 67
3 67 59 56
3 68 58 57
3 57 58 68
3 46 82 69
3 70 83 46
3 67 59 71
3 71 59 67
3 86 71 47
3 72 41 47
3 73 60 88
3 88 60 73
3 62 89 74
3 90 63 72
3 75 42 91
3 76 65 92
3 93 42 76
3 65 77 95
3 94 78 53
3 53 78 94
3 96 41 80
3 67 86 80
3 80 86 67
3 85 57 81
3 81 57 85
3 68 57 85
3 85 57 68
3 92 69 82
3 98 82 46
3 83 99 46
3 67 71 86
3 86 71 67
3 102 86 47
3 47 41 103
3 88 60 87
3 87 60 88
3 74 89 84
3 104 90 72
3 91 42 105
3 92 65 69
3 108 42 93
3 95 77 111
3 69 65 95
3 94 112 78
3 78 112 94
3 113 41 96
3 80 102 96
3 96 102 80
3 80 86 102
3 102 86 80
3 85 81 101
3 101 81 85
3 117 98 46
3 99 118 46
3 84 106 100
3 122 102 47
3 103 41 113
3 103 122 47
3 88 87 124
3 124 87 88
3 89 106 84
3 125 90 104
3 105 42 126
3 126 42 108
3 77 110 111
3 129 112 94
3 94 112 129
3 96 122 113
3 113 122 96
3 96 102 122
3 122 102 96
3 101 81 114
3 114 81 101
3 132 117 46
3 118 132 46
3 100 106 119
3 120 86 134
3 113 122 103
3 103 122 113
3 123 125 104
3 124 87 138
3 138 87 124
3 106 127 119
3 107 115 109
3 128 109 116
3 142 111 110
3 112 129 143
3 143 129 112
3 101 114 134
3 134 114 101
3 116 109 115
3 131 128 116
3 119 139 133
3 134 130 121
3 121 130 134
3 121 136 135
3 135 136 121
3 137 103 145
3 147 125 123
3 124 138 148
3 148 138 124
3 127 139 119
3 141 128 131
3 121 130 136
3 136 130 121
3 134 114 130
3 130 114 134
3 133 140 144
3 139 140 133
3 135 136 146
3 146 136 135
3 135 146 145
3 145 146 135
3 150 125 147
3 124 148 149
3 149 148 124
3 140 141 131
3 144 140 131
3 151 150 147
3 149 148 152
3 152 148 149
3 2 4 1
3 0 5 2
3 3 6 0
3 8 1 4
3 8 2 5
3 5 0 6
3 6 3 9
3 1 11 7
3 11 1 8
3 9 3 14
3 10 14 3
3 15 7 11
3 14 18 9
3 10 18 14
3 7 15 16
3 12 13 23
3 20 9 18
3 19 16 15
3 21 17 26
3 29 23 13
3 23 30 12
3 18 31 20
3 24 20 31
3 16 32 25
3 35 26 17
3 26 36 21
3 22 38 27
3 28 40 22
3 13 41 29
3 42 12 30
3 19 33 32
3 34 24 44
3 31 44 24
3 25 32 33
3 17 46 35
3 47 21 36
3 27 50 37
3 50 27 38
3 38 22 40
3 39 52 28
3 40 28 52
3 48 29 41
3 30 53 42
3 33 43 25
3 44 57 34
3 58 44 31
3 45 25 43
3 54 35 46
3 36 60 47
3 37 61 49
3 61 37 50
3 51 62 39
3 52 39 62
3 41 63 48
3 65 42 53
3 43 55 45
3 56 34 57
3 58 57 44
3 46 69 54
3 72 47 60
3 74 49 61
3 51 64 62
3 73 48 63
3 65 53 77
3 66 54 69
3 79 45 55
3 55 59 79
3 67 56 81
3 57 81 56
3 68 45 79
3 70 49 84
3 59 71 85
3 60 87 72
3 74 84 49
3 89 62 64
3 63 90 73
3 64 75 89
3 94 77 53
3 66 69 78
3 85 79 59
3 80 67 97
3 81 97 67
3 68 79 85
3 83 70 100
3 84 100 70
3 101 85 71
3 71 86 101
3 104 72 87
3 88 73 90
3 75 91 106
3 106 89 75
3 92 107 76
3 76 109 93
3 77 94 110
3 95 78 69
3 80 97 96
3 114 97 81
3 82 115 92
3 98 116 82
3 99 83 119
3 100 119 83
3 120 101 86
3 102 121 86
3 104 87 123
3 88 90 124
3 91 105 127
3 127 106 91
3 109 76 107
3 107 92 115
3 93 128 108
3 128 93 109
3 129 110 94
3 111 112 95
3 78 95 112
3 96 130 113
3 114 96 97
3 115 82 116
3 116 98 131
3 117 131 98
3 118 99 133
3 119 133 99
3 134 101 120
3 134 86 121
3 121 102 135
3 122 135 102
3 113 136 103
3 103 137 122
3 138 123 87
3 125 124 90
3 105 126 139
3 139 127 105
3 126 108 140
3 141 108 128
3 110 129 142
3 112 111 143
3 136 113 130
3 130 96 114
3 117 132 131
3 132 118 144
3 133 144 118
3 135 122 145
3 146 103 136
3 145 122 137
3 123 138 147
3 124 125 149
3 140 139 126
3 141 140 108
3 143 142 129
3 142 143 111
3 144 131 132
3 145 103 146
3 148 147 138
3 150 149 125
3 147 148 151
3 149 150 152
3 152 151 148
3 151 152 150
3 8 2 4
3 8 12 5
3 5 13 6
3 6 13 9
3 11 17 8
3 17 12 8
3 5 12 13
3 9 13 20
3 21 11 15
3 17 11 21
3 17 22 12
3 21 15 19
3 20 13 24
3 17 27 22
3 28 12 22
3 19 16 32
3 21 19 33
3 24 13 34
3 17 37 27
3 39 12 28
3 21 33 43
3 34 13 41
3 17 49 37
3 51 12 39
3 51 42 12
3 21 43 55
3 34 41 56
3 46 49 17
3 21 59 47
3 64 42 51
3 21 55 59
3 56 41 67
3 46 70 49
3 47 59 71
3 72 41 63
3 75 42 64
3 76 65 42
3 67 41 80
3 69 82 46
3 46 83 70
3 47 71 86
3 47 41 72
3 72 63 90
3 91 42 75
3 92 65 76
3 76 42 93
3 95 77 65
3 80 41 96
3 82 69 92
3 46 82 98
3 46 99 83
3 47 86 102
3 103 41 47
3 72 90 104
3 105 42 91
3 69 65 92
3 93 42 108
3 111 77 95
3 95 65 69
3 96 41 113
3 46 98 117
3 46 118 99
3 47 102 122
3 113 41 103
3 47 122 103
3 104 90 125
3 126 42 105
3 108 42 126
3 111 110 77
3 46 117 132
3 46 132 118
3 134 86 120
3 104 125 123
3 110 111 142
3 145 103 137
3 123 125 147
3 147 125 150
3 147 150 151
3 1 4 2
3 2 5 0
3 0 6 3
3 4 1 8
3 5 2 8
3 6 0 5
3 9 3 6
3 7 11 1
3 8 1 11
3 14 3 9
3 3 14 10
3 11 7 15
3 9 18 14
3 14 18 10
3 16 15 7
3 23 13 12
3 18 9 20
3 15 16 19
3 26 17 21
3 13 23 29
3 12 30 23
3 20 31 18
3 31 20 24
3 25 32 16
3 17 26 35
3 21 36 26
3 29 41 13
3 30 12 42
3 32 33 19
3 44 24 34
3 24 44 31
3 33 32 25
3 35 46 17
3 36 21 47
3 41 29 48
3 42 53 30
3 25 43 33
3 34 57 44
3 31 44 58
3 43 25 45
3 46 35 54
3 47 60 36
3 48 63 41
3 53 42 65
3 45 55 43
3 57 34 56
3 44 57 58
3 54 69 46
3 60 47 72
3 63 48 73
3 77 53 65
3 69 54 66
3 55 45 79
3 79 59 55
3 81 56 67
3 56 81 57
3 79 45 68
3 85 71 59
3 72 87 60
3 73 90 63
3 53 77 94
3 78 69 66
3 59 79 85
3 97 67 80
3 67 97 81
3 85 79 68
3 71 85 101
3 101 86 71
3 87 72 104
3 90 73 88
3 110 94 77
3 69 78 95
3 96 97 80
3 81 97 114
3 86 101 120
3 86 121 102
3 123 87 104
3 124 90 88
3 94 110 129
3 95 112 111
3 112 95 78
3 113 130 96
3 97 96 114
3 120 101 134
3 121 86 134
3 135 102 121
3 102 135 122
3 103 136 113
3 122 137 103
3 87 123 138
3 90 124 125
3 142 129 110
3 143 111 112
3 130 113 136
3 114 96 130
3 145 122 135
3 136 103 146
3 137 122 145
3 147 138 123
3 149 125 124
3 129 142 143
3 111 143 142
3 146 103 145
3 138 147 148
3 125 149 150
3 151 148 147
3 152 150 149
3 148 151 152
3 150 152 151
3 50 40 38
3 61 52 40
3 61 40 50
3 74 62 52
3 74 52 61
3 74 89 62
3 84 89 74
3 100 106 84
3 84 106 89
3 119 106 100
3 119 127 106
3 109 115 107
3 116 109 128
3 115 109 116
3 116 128 131
3 133 139 119
3 119 139 127
3 131 128 141
3 144 140 133
3 133 140 139
3 131 141 140
3 131 140 144
3 27 38 22
3 22 40 28
3 37 50 27
3 38 27 50
3 40 22 38
3 28 52 39
3 52 28 40
3 49 61 37
3 50 37 61
3 39 62 51
3 62 39 52
3 61 49 74
3 62 64 51
3 84 49 70
3 49 84 74
3 64 62 89
3 89 75 64
3 100 70 83
3 70 100 84
3 106 91 75
3 75 89 106
3 76 107 92
3 93 109 76
3 92 115 82
3 82 116 98
3 119 83 99
3 83 119 100
3 127 105 91
3 91 106 127
3 107 76 109
3 115 92 107
3 108 128 93
3 109 93 128
3 116 82 115
3 131 98 116
3 98 131 117
3 133 99 118
3 99 133 119
3 139 126 105
3 105 127 139
3 140 108 126
3 128 108 141
3 131 132 117
3 144 118 132
3 118 144 133
3 126 139 140
3 108 140 141
3 132 131 144
3 153 154 155
3 154 153 156
3 155 154 153
3 156 153 154
3 157 155 154
3 154 155 157
3 155 158 153
3 153 158 155
3 158 156 153
3 153 156 158
3 154 156 159
3 159 156 154
3 155 157 160
3 160 157 155
3 154 161 157
3 157 161 154
3 158 155 162
3 162 155 158
3 156 158 163
3 163 158 156
3 159 156 164
3 164 156 159
3 165 154 159
3 159 154 165
3 160 157 164
3 164 157 160
3 166 155 160
3 160 155 166
3 167 161 154
3 154 161 167
3 157 161 168
3 168 161 157
3 155 166 162
3 162 166 155
3 162 161 158
3 158 161 162
3 158 169 163
3 163 169 158
3 166 156 163
3 163 156 166
3 160 164 156
3 156 164 160
3 164 165 159
3 159 165 164
3 165 167 154
3 154 167 165
3 168 164 157
3 157 164 168
3 156 166 160
3 160 166 156
3 161 167 169
3 169 167 161
3 161 170 168
3 168 170 161
3 161 162 166
3 166 162 161
3 169 158 161
3 161 158 169
3 163 169 171
3 171 169 163
3 163 171 166
3 166 171 163
3 165 164 171
3 171 164 165
3 171 167 165
3 165 167 171
3 168 170 164
3 164 170 168
3 167 171 169
3 169 171 167
3 170 161 172
3 172 161 170
3 161 166 172
3 172 166 161
3 172 166 171
3 171 166 172
3 171 164 172
3 172 164 171
3 172 164 170
3 170 164 172
3 173 174 175
3 174 173 176
3 175 174 173
3 176 173 174
3 177 175 174
3 174 175 177
3 175 178 173
3 173 178 175
3 178 176 173
3 173 176 178
3 174 176 179
3 179 176 174
3 175 177 180
3 180 177 175
3 174 181 177
3 177 181 174
3 178 175 182
3 182 175 178
3 176 178 183
3 183 178 176
3 179 176 184
3 184 176 179
3 185 174 179
3 179 174 185
3 180 177 184
3 184 177 180
3 186 175 180
3 180 175 186
3 181 174 187
3 187 174 181
3 181 184 177
3 177 184 181
3 175 186 182
3 182 186 175
3 182 181 178
3 178 181 182
3 178 187 183
3 183 187 178
3 186 176 183
3 183 176 186
3 180 184 176
3 176 184 180
3 184 185 179
3 179 185 184
3 174 185 187
3 187 185 174
3 176 186 180
3 180 186 176
3 187 178 181
3 181 178 187
3 184 181 188
3 188 181 184
3 181 182 186
3 186 182 181
3 183 187 185
3 185 187 183
3 183 185 186
3 186 185 183
3 185 184 188
3 188 184 185
3 181 186 188
3 188 186 181
3 188 186 185
3 185 186 188
3 189 190 191
3 190 189 192
3 191 190 189
3 192 189 190
3 193 191 190
3 190 191 193
3 191 194 189
3 189 194 191
3 194 192 189
3 189 192 194
3 190 192 195
3 195 192 190
3 191 193 196
3 196 193 191
3 190 197 193
3 193 197 190
3 194 191 198
3 198 191 194
3 192 194 199
3 199 194 192
3 195 192 200
3 200 192 195
3 201 190 195
3 195 190 201
3 196 193 200
3 200 193 196
3 202 191 196
3 196 191 202
3 197 190 203
3 203 190 197
3 197 200 193
3 193 200 197
3 191 202 198
3 198 202 191
3 198 197 194
3 194 197 198
3 194 203 199
3 199 203 194
3 202 192 199
3 199 192 202
3 196 200 192
3 192 200 196
3 200 201 195
3 195 201 200
3 190 201 203
3 203 201 190
3 192 202 196
3 196 202 192
3 203 194 197
3 197 194 203
3 200 197 204
3 204 197 200
3 197 198 202
3 202 198 197
3 199 203 201
3 201 203 199
3 199 201 202
3 202 201 199
3 201 200 204
3 204 200 201
3 197 202 204
3 204 202 197
3 204 202 201
3 201 202 204
3 205 206 207
3 206 205 208
3 207 206 205
3 208 205 206
3 209 207 206
3 206 207 209
3 207 210 205
3 205 210 207
3 210 208 205
3 205 208 210
3 206 208 211
3 211 208 206
3 207 209 212
3 212 209 207
3 206 213 209
3 209 213 206
3 210 207 214
3 214 207 210
3 208 210 215
3 215 210 208
3 211 208 216
3 216 208 211
3 217 206 211
3 211 206 217
3 212 209 216
3 216 209 212
3 218 207 212
3 212 207 218
3 213 206 219
3 219 206 213
3 213 216 209
3 209 216 213
3 207 218 214
3 214 218 207
3 214 213 210
3 210 213 214
3 210 219 215
3 215 219 210
3 218 208 215
3 215 208 218
3 212 216 208
3 208 216 212
3 216 217 211
3 211 217 216
3 206 217 219
3 219 217 206
3 208 218 212
3 212 218 208
3 219 210 213
3 213 210 219
3 216 213 220
3 220 213 216
3 213 214 218
3 218 214 213
3 215 219 217
3 217 219 215
3 215 217 218
3 218 217 215
3 217 216 220
3 220 216 217
3 213 218 220
3 220 218 213
3 220 218 217
3 217 218 220
