ply
format ascii 1.0
comment Generated by PyMesh
element vertex 479
property double x
property double y
property double z
element face 2072
property list uchar int vertex_indices
end_header
0.105174 -0.218315 0.171683
0.107862 -0.218315 0.181709
0.106519 -0.223506 0.176695
0.106519 -0.213124 0.176695
0.105174 0.220353 0.171683
0.107862 0.220353 0.181709
0.106519 0.215162 0.176695
0.106519 0.225544 0.176695
0.105703 0.220353 0.171541
0.108922 0.220353 0.181426
0.108392 0.220353 0.181568
0.109452 0.220353 0.181284
0.106519 0.225544 0.176695
0.106519 0.215162 0.176695
0.106233 0.220353 0.171399
0.106763 0.220353 0.171257
0.108638 0.225544 0.176129
0.108638 0.215162 0.176129
0.105703 -0.218315 0.171541
0.108922 -0.218315 0.181426
0.108392 -0.218315 0.181568
0.109452 -0.218315 0.181284
0.106519 -0.213124 0.176695
0.106519 -0.223506 0.176695
0.106233 -0.218315 0.171399
0.106763 -0.218315 0.171257
0.108638 -0.213124 0.176129
0.108638 -0.223506 0.176129
0.107862 -0.218315 -0.181709
0.105174 -0.218315 -0.171681
0.106519 -0.223506 -0.176695
0.106519 -0.213124 -0.176695
0.107862 0.220353 -0.181709
0.105174 0.220353 -0.171681
0.106519 0.215162 -0.176695
0.106519 0.225544 -0.176695
0.111376 -0.413279 -0.186352
0.109981 -0.218315 -0.181143
0.104848 -0.413279 -0.161987
0.111376 0.415317 -0.186352
0.108638 -0.223506 -0.176129
0.100611 -0.413279 -0.163121
0.112942 0.415317 -0.188697
0.105525 0.00101925 -0.164514
0.112942 -0.413279 -0.188697
0.108638 -0.213124 -0.176129
0.107293 -0.218315 -0.171115
0.107139 -0.413279 -0.187485
0.0990433 -0.413279 -0.160776
0.107139 0.415317 -0.187485
0.111376 0.419704 -0.186352
0.111376 -0.417666 -0.186352
0.105525 0.419704 -0.164514
0.112942 -0.417666 -0.188697
0.109981 0.220353 -0.181143
0.104848 0.415317 -0.161987
0.100611 0.415317 -0.163121
0.096374 -0.413279 -0.15987
0.0990433 0.415317 -0.160776
0.115613 -0.413279 -0.189602
0.112942 0.419704 -0.188697
0.110273 0.415317 -0.192176
0.105525 -0.417666 -0.164514
0.0937546 -0.105772 -0.155484
0.110273 -0.413279 -0.192176
0.108638 0.225544 -0.176129
0.108638 0.215162 -0.176129
0.101714 -0.413279 -0.157297
0.115613 0.415317 -0.189602
0.136618 0.419704 -0.189602
0.136618 -0.417666 -0.189602
0.101173 -0.417666 -0.158001
0.0937546 0.206124 -0.155484
0.115613 0.419704 -0.189602
0.107293 0.220353 -0.171115
0.101714 0.415317 -0.157297
0.096374 -0.413279 -0.155484
0.096374 0.415317 -0.15987
0.136618 -0.413279 -0.189602
0.115613 -0.413279 -0.193989
0.115613 0.415317 -0.193989
0.101173 0.419704 -0.158001
0.115613 -0.417666 -0.189602
0.0808479 -0.417666 -0.155484
0.0937546 -0.417666 -0.155484
0.096374 0.415317 -0.155484
0.072679 -0.413279 -0.15987
0.136618 0.415317 -0.189602
0.136618 0.415317 -0.193989
0.0756915 0.419704 -0.0852968
0.0937546 -0.417666 0.155484
-0.0926046 0.206124 -0.155484
0.0937546 0.419704 -0.155484
0.0535702 0.33153 -0.155484
0.072679 -0.413279 -0.155484
0.0535702 0.33153 -0.15987
0.136618 0.183014 -0.109667
0.136618 -0.413279 -0.193989
0.0756915 0.419704 0.0852968
-0.094902 0.419704 -0.0852968
0.101173 -0.417666 0.158001
0.0763155 -0.416405 -0.155484
0.102359 0.206124 -0.155484
0.0937546 0.401088 -0.155484
-0.130463 0.415317 -0.155484
0.000474836 -0.258853 -0.155484
0.0535702 0.28279 -0.15987
-0.130463 0.415317 -0.15987
0.136618 0.340665 -0.109667
0.136618 0.183014 0.109667
0.136618 -0.417666 0.189603
0.0937546 0.419704 0.155484
0.0756915 0.415317 -0.0852968
0.105525 -0.417666 0.164514
0.0937546 -0.105772 0.155484
0.136618 0.419704 0.189603
0.0808479 -0.417666 0.155484
0.0730877 -0.412985 -0.155484
-0.0926046 0.206124 -0.149733
0.102359 0.206124 -0.149733
0.102359 0.401088 -0.155484
-0.0926046 0.401088 -0.155484
-0.124146 0.419704 -0.155484
0.0231072 0.33153 -0.155484
0.0535702 0.28279 -0.155484
0.000474836 -0.258853 -0.15987
0.0231072 0.33153 -0.15987
0.136618 0.340665 0.109667
0.104625 0.340665 -0.109667
0.104625 0.183014 0.109667
0.112942 -0.417666 0.188697
0.101173 0.419704 0.158001
-0.124146 0.419704 0.155484
0.0756915 0.415317 0.0852968
-0.094902 0.415317 -0.0852968
0.111376 -0.417666 0.186352
0.105525 0.00101925 0.164514
-0.0926046 0.206124 0.155484
0.115613 0.419704 0.189603
0.0763155 -0.416405 0.155484
0.0730877 -0.412985 0.155484
0.000901002 -0.258348 -0.155484
-0.0926046 0.401088 -0.149733
0.102359 0.401088 -0.127214
-0.0969605 0.0682124 -0.155484
-0.094902 0.419704 0.0852968
-0.130463 0.40625 -0.15987
0.00941184 0.33153 -0.155484
-0.0564024 -0.0981494 -0.155484
0.0231072 0.28279 -0.155484
0.0231072 0.28279 -0.15987
0.00941184 0.33153 -0.15987
0.104625 0.183014 -0.109667
-0.111187 0.183014 0.109667
0.115613 -0.417666 0.189603
0.105525 0.419704 0.164514
0.0937546 0.206124 0.155484
0.0937546 0.401088 0.155484
0.104625 0.415317 -0.109667
-0.094902 0.415317 0.0852968
-0.114709 0.415317 -0.109667
0.111376 -0.413279 0.186352
0.112942 0.419704 0.188697
0.000901002 -0.258348 0.155484
-0.0559587 -0.0974431 -0.155484
-0.0926046 0.206124 -0.127214
0.102359 0.206124 -0.127214
0.102359 0.401088 -0.149733
-0.0926046 0.401088 -0.127214
-0.130463 0.40625 -0.155484
-0.122181 0.235979 -0.15987
-0.0210518 0.33153 -0.155484
-0.0564024 -0.0981494 -0.15987
-0.0210518 0.28279 -0.155484
0.00941184 0.28279 -0.155484
0.00941184 0.28279 -0.15987
-0.0210518 0.33153 -0.15987
0.104625 0.340665 0.109667
0.104625 0.183014 -0.127214
-0.111187 0.183014 -0.109667
-0.114709 0.183014 0.109667
0.112942 -0.413279 0.188697
0.111376 0.419704 0.186352
-0.0926046 0.401088 0.155484
0.104625 0.415317 0.140861
-0.114709 0.415317 0.109667
0.111376 0.415317 0.186352
0.102359 0.206124 0.149733
-0.0926046 0.206124 0.149733
0.115613 0.415317 0.189603
-0.0559587 -0.0974431 0.155484
-0.115538 0.182454 -0.109667
-0.121717 0.237063 -0.155484
-0.128281 0.41799 0.155484
-0.122181 0.235979 -0.155484
-0.0974172 0.0673164 -0.15987
-0.034749 0.33153 -0.155484
-0.0974172 0.0673164 -0.155484
-0.0210518 0.28279 -0.15987
-0.034749 0.28279 -0.155484
-0.034749 0.33153 -0.15987
0.104625 0.40313 0.140861
0.104625 0.40313 -0.127214
-0.115538 0.182454 0.109667
-0.114709 0.183014 0.140861
0.104625 0.183014 0.140861
-0.114709 0.183014 -0.109667
0.115613 -0.413279 0.189603
0.112942 0.415317 0.188697
0.102359 0.401088 0.155484
0.102359 0.206124 0.155484
-0.0926046 0.401088 0.149733
0.102359 0.401088 0.149733
0.104625 0.415317 -0.127214
-0.114709 0.415317 -0.127214
-0.114709 0.403132 -0.109667
0.107139 -0.413279 0.187485
0.109981 -0.218315 0.181143
-0.0926046 0.401088 0.140861
-0.108958 0.183014 -0.127214
-0.129995 0.407518 -0.155484
-0.128281 0.41799 -0.155484
-0.129995 0.407518 0.155484
-0.0652121 0.33153 -0.15987
-0.0652121 0.33153 -0.155484
-0.0652121 0.28279 -0.155484
-0.034749 0.28279 -0.15987
-0.108958 0.183014 0.140861
-0.114709 0.340665 0.109667
-0.114709 0.390163 0.140861
-0.0969605 0.0682124 0.155484
-0.114709 0.415317 0.140861
0.104625 0.403132 -0.109667
0.104625 0.415317 0.109667
0.100611 -0.413279 0.163121
0.107139 0.415317 0.187485
0.108638 -0.223506 0.176129
0.108638 -0.213124 0.176129
0.102359 0.206124 0.140861
-0.0926046 0.206124 0.140861
0.131744 0.415317 0.189603
-0.114709 0.183014 -0.127214
-0.123916 0.261411 -0.109667
-0.128725 0.340665 -0.109667
-0.129995 0.413855 -0.155484
-0.121717 0.237063 0.155484
-0.129995 0.413855 0.155484
-0.0652121 0.28279 -0.15987
-0.114709 0.40313 -0.127214
-0.114709 0.40313 0.140861
0.102359 0.401088 0.140861
0.104625 0.403132 0.109667
-0.114709 0.403132 0.109667
0.110273 -0.413279 0.192176
0.104848 -0.413279 0.161987
0.100611 0.415317 0.163121
0.107293 -0.218315 0.171115
0.109981 0.220353 0.181143
0.131744 -0.413279 0.189603
0.115613 0.415317 0.193989
-0.108958 0.390163 -0.127214
-0.128725 0.340665 0.109667
-0.129995 0.407518 0.116613
-0.114709 0.390163 -0.127214
-0.108958 0.390163 0.140861
0.110273 0.415317 0.192176
0.115613 -0.413279 0.193989
0.0990433 -0.413279 0.160776
0.104848 0.415317 0.161987
0.108638 0.215162 0.176129
0.108638 0.225544 0.176129
0.131744 -0.413279 0.193989
0.131744 0.415317 0.193989
-0.123916 0.261411 0.109667
-0.128725 0.340665 -0.0548337
-0.128725 0.340665 0.0548337
-0.129995 0.407518 0.0777418
-0.114709 0.340665 -0.109667
0.101714 -0.413279 0.157297
0.0990433 0.415317 0.160776
0.107293 0.220353 0.171115
-0.128725 0.340665 -2.50603e-09
-0.129995 0.407518 -0.116613
-0.129995 0.407518 -2.50603e-09
0.096374 -0.413279 0.15987
0.101714 0.415317 0.157297
-0.129995 0.407518 -0.0777418
0.096374 0.415317 0.15987
0.096374 -0.413279 0.155484
0.0535702 0.33153 0.15987
0.072679 -0.413279 0.155484
0.096374 0.415317 0.155484
-0.130463 0.415317 0.15987
0.072679 -0.413279 0.15987
0.0231072 0.33153 0.15987
0.0535702 0.28279 0.15987
0.000474836 -0.258853 0.15987
0.0535702 0.33153 0.155484
-0.130463 0.415317 0.155484
0.00941184 0.33153 0.15987
0.0231072 0.33153 0.155484
0.0535702 0.28279 0.155484
0.000474836 -0.258853 0.155484
-0.130463 0.40625 0.155484
-0.0210518 0.33153 0.15987
0.0231072 0.28279 0.15987
-0.0564024 -0.0981494 0.15987
-0.130463 0.40625 0.15987
-0.122181 0.235979 0.155484
-0.034749 0.33153 0.15987
-0.0210518 0.33153 0.155484
0.00941184 0.28279 0.15987
0.0231072 0.28279 0.155484
-0.0564024 -0.0981494 0.155484
-0.0210518 0.28279 0.15987
0.00941184 0.33153 0.155484
-0.122181 0.235979 0.15987
-0.0974172 0.0673164 0.155484
-0.0652121 0.33153 0.15987
0.00941184 0.28279 0.155484
-0.0974172 0.0673164 0.15987
-0.0210518 0.28279 0.155484
-0.034749 0.28279 0.15987
-0.0652121 0.33153 0.155484
-0.0652121 0.28279 0.15987
-0.034749 0.33153 0.155484
-0.0652121 0.28279 0.155484
-0.034749 0.28279 0.155484
0.109452 0.220353 -0.181284
0.106233 0.220353 -0.171399
0.106763 0.220353 -0.171257
0.105703 0.220353 -0.171539
0.108638 0.215162 -0.176129
0.108638 0.225544 -0.176129
0.108392 0.220353 -0.181568
0.108922 0.220353 -0.181426
0.106519 0.215162 -0.176695
0.106519 0.225544 -0.176695
0.109452 -0.218315 -0.181284
0.106233 -0.218315 -0.171399
0.106763 -0.218315 -0.171257
0.105703 -0.218315 -0.171539
0.108638 -0.223506 -0.176129
0.108638 -0.213124 -0.176129
0.108392 -0.218315 -0.181568
0.108922 -0.218315 -0.181426
0.106519 -0.223506 -0.176695
0.106519 -0.213124 -0.176695
0.0680486 -0.404454 0.194964
0.0795351 -0.439687 0.194964
0.0849386 -0.436872 0.194964
0.0626463 -0.407269 0.194964
0.0795351 -0.439687 -0.194964
0.0680486 -0.404454 -0.194964
0.0666977 -0.405156 0.194964
0.0849386 -0.436872 -0.194964
-0.00229618 -0.252046 -0.194964
-0.00229618 -0.252046 0.194964
0.0653462 -0.40586 0.194964
0.0626463 -0.407269 -0.194964
0.0666977 -0.405156 -0.194964
0.0639954 -0.406564 0.194964
-0.00794303 -0.254331 0.194964
-0.057757 -0.0936151 -0.194964
0.0653462 -0.40586 -0.194964
-0.00794303 -0.254331 -0.194964
-0.057757 -0.0936151 0.194964
0.0639954 -0.406564 -0.194964
-0.063596 -0.0953497 0.194964
-0.117545 0.193726 -0.0152321
-0.063596 -0.0953497 -0.194964
-0.117545 0.193726 0.0152328
-0.097824 0.0693904 -0.194964
-0.123594 0.192989 0.0152328
-0.097824 0.0693904 0.194964
-0.12248 0.239065 -0.0593911
-0.103803 0.0682218 -0.194964
-0.123594 0.192989 -0.0152321
-0.103803 0.0682218 0.194964
-0.12109 0.228528 0.0152328
-0.12248 0.239065 0.0593911
-0.12248 0.239065 -0.0289281
-0.122134 0.23548 -0.194964
-0.128545 0.238483 0.0593911
-0.122134 0.23548 0.194964
-0.12109 0.228528 -0.0152321
-0.124634 0.263329 0.0152328
-0.12248 0.239065 0.0289281
-0.128545 0.238483 -0.0289281
-0.126238 0.284565 -0.10355
-0.128545 0.238483 -0.0593911
-0.128197 0.234887 -0.194964
-0.128545 0.238483 0.0289281
-0.128197 0.234887 0.194964
-0.124634 0.263329 -0.0152321
-0.12715 0.227912 0.0152328
-0.126238 0.284565 0.10355
-0.124411 0.262566 -0.0289281
-0.126238 0.284565 -0.0730865
-0.127758 0.308852 -0.10355
-0.13046 0.403132 -0.194964
-0.132317 0.28414 0.10355
-0.13046 0.403132 0.194964
-0.12715 0.227912 -0.0152321
-0.126786 0.298245 0.0152328
-0.124411 0.262566 0.0289281
-0.126238 0.284565 0.0730865
-0.127758 0.308852 0.10355
-0.126342 0.286069 0.0593911
-0.126342 0.286069 -0.0593911
-0.126342 0.286069 -0.0289281
-0.132317 0.28414 -0.0730865
-0.132317 0.28414 -0.10355
-0.131983 0.403128 -0.194964
-0.130705 0.262833 0.0152328
-0.132317 0.28414 0.0730865
-0.133841 0.308515 0.10355
-0.136552 0.40312 0.194964
-0.126786 0.298245 -0.0152321
-0.12894 0.33316 0.0152328
-0.126342 0.286069 0.0289281
-0.127641 0.309614 0.0593911
-0.127641 0.309614 -0.0593911
-0.127641 0.309614 -0.0289281
-0.127758 0.308852 -0.0730865
-0.12894 0.33316 -0.10355
-0.133841 0.308515 -0.10355
-0.130705 0.262833 -0.0152321
-0.136552 0.40312 -0.194964
-0.130525 0.439687 -0.194964
-0.130483 0.262067 0.0289281
-0.132421 0.285652 0.0593911
-0.135026 0.332906 0.10355
-0.12894 0.33316 0.10355
-0.130525 0.439687 0.194964
-0.12894 0.33316 -0.0152321
-0.127641 0.309614 0.0289281
-0.127758 0.308852 0.0730865
-0.12894 0.33316 0.0593911
-0.12894 0.33316 -0.0593911
-0.12894 0.33316 -0.0289281
-0.12894 0.33316 -0.0730865
-0.135026 0.332906 -0.10355
-0.132421 0.285652 -0.0593911
-0.130483 0.262067 -0.0289281
-0.133507 0.403126 -0.194964
-0.136618 0.439676 -0.194964
-0.13046 0.403132 -0.0974815
-0.132421 0.285652 0.0289281
-0.12894 0.33316 0.0289281
-0.132866 0.297871 0.0152328
-0.133841 0.308515 0.0730865
-0.136618 0.439676 0.194964
-0.12894 0.33316 0.0730865
-0.135026 0.332906 -0.0730865
-0.133841 0.308515 -0.0730865
-0.132866 0.297871 -0.0152321
-0.132421 0.285652 -0.0289281
-0.13503 0.403124 -0.194964
-0.13046 0.403132 -0.0487407
-0.135026 0.332906 0.0289281
-0.135026 0.332906 0.0152328
-0.135026 0.332906 0.0593911
-0.133724 0.309279 0.0593911
-0.135026 0.332906 0.0730865
-0.136552 0.40312 0.0974821
-0.13046 0.403132 0.0974821
-0.135026 0.332906 -0.0593911
-0.135026 0.332906 -0.0289281
-0.133724 0.309279 -0.0593911
-0.135026 0.332906 -0.0152321
-0.13046 0.403132 -2.50603e-09
-0.133724 0.309279 0.0289281
-0.136552 0.40312 0.0487407
-0.13046 0.403132 0.0487407
-0.133724 0.309279 -0.0289281
-0.136552 0.40312 -0.0974815
-0.136552 0.40312 -2.50603e-09
-0.136552 0.40312 -0.0487407
3 0 1 2
3 1 0 3
3 2 1 0
3 3 0 1
3 4 5 6
3 5 4 7
3 6 5 4
3 7 4 5
3 8 9 10
3 9 8 11
3 10 9 8
3 11 8 9
3 9 8 10
3 8 9 11
3 10 8 9
3 11 9 8
3 12 8 10
3 10 8 12
3 8 13 10
3 10 13 8
3 11 8 14
3 14 8 11
3 8 11 15
3 15 11 8
3 11 14 15
3 15 14 11
3 16 11 15
3 15 11 16
3 11 17 15
3 15 17 11
3 18 19 20
3 19 18 21
3 20 19 18
3 21 18 19
3 19 18 20
3 18 19 21
3 20 18 19
3 21 19 18
3 22 18 20
3 20 18 22
3 18 23 20
3 20 23 18
3 21 18 24
3 24 18 21
3 18 21 25
3 25 21 18
3 21 24 25
3 25 24 21
3 26 21 25
3 25 21 26
3 21 27 25
3 25 27 21
3 28 29 30
3 29 28 31
3 30 29 28
3 31 28 29
3 32 33 34
3 33 32 35
3 34 33 32
3 35 32 33
3 56 47 41
3 58 41 48
3 47 56 49
3 41 58 56
3 64 49 61
3 49 64 47
3 80 64 61
3 86 77 57
3 64 80 79
3 77 86 95
3 88 79 80
3 95 86 106
3 77 95 107
3 79 88 97
3 125 106 86
3 107 95 126
3 106 125 150
3 107 126 151
3 107 170 146
3 150 125 126
3 151 126 175
3 107 151 176
3 107 195 170
3 198 125 172
3 126 125 175
3 107 176 200
3 107 223 195
3 175 125 198
3 198 172 176
3 200 176 226
3 107 200 223
3 247 195 223
3 247 172 195
3 176 172 226
3 235 234 216
3 226 172 247
3 265 216 253
3 234 235 255
3 216 265 235
3 266 265 253
3 255 267 234
3 259 271 272
3 265 266 259
3 271 259 266
3 267 255 279
3 267 287 284
3 287 267 279
3 287 289 284
3 289 287 292
3 284 289 293
3 289 292 294
3 295 293 289
3 294 292 299
3 293 295 296
3 299 292 304
3 294 299 305
3 296 295 305
3 304 292 309
3 311 305 299
3 296 305 311
3 296 314 306
3 316 292 307
3 309 292 318
3 304 309 314
3 296 311 314
3 306 314 322
3 320 292 316
3 318 292 324
3 322 314 309
3 306 324 320
3 306 322 324
3 324 292 320
3 36 37 38
3 37 36 39
3 38 37 36
3 39 36 37
3 38 37 40
3 40 37 38
3 41 36 38
3 38 36 41
3 36 42 39
3 39 42 36
3 36 43 39
3 39 43 36
3 44 36 39
3 39 36 44
3 37 39 45
3 45 39 37
3 46 38 40
3 40 38 46
3 36 41 47
3 47 41 36
3 38 48 41
3 41 48 38
3 42 36 44
3 44 36 42
3 42 49 39
3 39 49 42
3 44 39 42
3 42 39 50
3 42 39 44
3 50 39 42
3 51 43 36
3 36 43 51
3 39 43 52
3 52 43 39
3 47 44 36
3 36 44 47
3 53 36 44
3 44 36 53
3 45 39 54
3 54 39 45
3 38 46 55
3 55 46 38
3 41 47 56
3 38 57 48
3 48 57 38
3 48 41 58
3 59 42 44
3 44 42 59
3 60 44 42
3 42 44 60
3 49 42 61
3 61 42 49
3 56 39 49
3 49 39 56
3 39 52 50
3 50 52 39
3 42 50 60
3 60 50 42
3 43 51 62
3 62 51 43
3 36 53 51
3 51 53 36
3 63 52 43
3 43 52 63
3 44 47 64
3 64 47 44
3 60 53 44
3 44 53 60
3 54 39 65
3 65 39 54
3 45 54 66
3 66 54 45
3 55 46 45
3 45 46 55
3 55 67 38
3 38 67 55
3 49 56 47
3 56 58 41
3 67 57 38
3 38 57 67
3 57 58 48
3 48 58 57
3 42 59 68
3 68 59 42
3 44 64 59
3 59 64 44
3 61 42 68
3 68 42 61
3 61 49 64
3 39 56 55
3 55 56 39
3 52 69 50
3 50 69 52
3 50 69 60
3 60 69 50
3 70 62 51
3 51 62 70
3 43 62 71
3 71 62 43
3 70 51 53
3 53 51 70
3 52 63 72
3 72 63 52
3 63 43 71
3 71 43 63
3 47 64 49
3 73 53 60
3 60 53 73
3 55 65 39
3 39 65 55
3 74 45 66
3 66 45 74
3 55 45 74
3 74 45 55
3 67 55 75
3 75 55 67
3 58 55 56
3 56 55 58
3 57 67 76
3 76 67 57
3 58 57 77
3 77 57 58
3 78 68 59
3 59 68 78
3 59 64 79
3 79 64 59
3 61 68 80
3 80 68 61
3 61 64 80
3 81 69 52
3 52 69 81
3 60 69 73
3 73 69 60
3 70 71 62
3 62 71 70
3 70 53 82
3 82 53 70
3 63 83 72
3 72 83 63
3 52 72 81
3 81 72 52
3 63 71 84
3 84 71 63
3 59 53 73
3 73 53 59
3 55 74 65
3 65 74 55
3 77 75 55
3 55 75 77
3 85 67 75
3 75 67 85
3 77 55 58
3 58 55 77
3 67 85 76
3 76 85 67
3 76 86 57
3 57 86 76
3 57 77 86
3 68 78 87
3 87 78 68
3 79 78 59
3 59 78 79
3 79 80 64
3 68 88 80
3 80 88 68
3 89 69 81
3 81 69 89
3 69 82 73
3 73 82 69
3 70 90 71
3 71 90 70
3 53 59 82
3 82 59 53
3 69 70 82
3 82 70 69
3 83 63 84
3 84 63 83
3 72 83 91
3 91 83 72
3 72 92 81
3 81 92 72
3 71 90 84
3 84 90 71
3 73 82 59
3 59 82 73
3 75 77 85
3 85 77 75
3 85 93 76
3 76 93 85
3 86 76 94
3 94 76 86
3 95 86 77
3 78 88 87
3 87 88 78
3 87 96 78
3 78 96 87
3 70 87 78
3 78 87 70
3 88 68 87
3 87 68 88
3 78 79 97
3 97 79 78
3 80 79 88
3 98 69 89
3 89 69 98
3 89 81 99
3 99 81 89
3 70 100 90
3 90 100 70
3 87 70 69
3 69 70 87
3 84 90 83
3 83 90 84
3 91 83 101
3 101 83 91
3 91 102 72
3 72 102 91
3 102 91 72
3 72 91 102
3 103 72 91
3 91 72 103
3 92 72 103
3 103 72 92
3 99 81 92
3 92 81 99
3 77 104 85
3 85 104 77
3 93 85 104
3 104 85 93
3 76 93 94
3 94 93 76
3 105 86 94
3 94 86 105
3 106 86 95
3 107 95 77
3 88 78 97
3 97 78 88
3 96 87 108
3 108 87 96
3 109 78 96
3 96 78 109
3 78 110 70
3 70 110 78
3 97 88 79
3 111 69 98
3 98 69 111
3 112 98 89
3 89 98 112
3 99 112 89
3 89 112 99
3 70 113 100
3 100 113 70
3 90 100 114
3 114 100 90
3 115 87 69
3 69 87 115
3 83 90 116
3 116 90 83
3 116 101 83
3 83 101 116
3 91 101 117
3 117 101 91
3 118 102 91
3 91 102 118
3 119 91 102
3 102 91 119
3 102 103 72
3 72 103 102
3 72 120 102
3 102 120 72
3 120 72 103
3 103 72 120
3 103 91 121
3 121 91 103
3 121 92 103
3 103 92 121
3 122 99 92
3 92 99 122
3 104 77 107
3 107 77 104
3 93 104 123
3 123 104 93
3 124 94 93
3 93 94 124
3 86 105 125
3 125 105 86
3 94 124 105
3 105 124 94
3 86 106 125
3 106 93 95
3 95 93 106
3 126 95 107
3 108 87 127
3 127 87 108
3 128 96 108
3 108 96 128
3 110 78 109
3 109 78 110
3 96 129 109
3 109 129 96
3 110 130 70
3 70 130 110
3 131 69 111
3 111 69 131
3 111 98 132
3 132 98 111
3 98 112 133
3 133 112 98
3 112 99 134
3 134 99 112
3 70 135 113
3 113 135 70
3 136 100 113
3 113 100 136
3 114 100 136
3 136 100 114
3 114 137 90
3 90 137 114
3 115 127 87
3 87 127 115
3 69 138 115
3 115 138 69
3 90 137 116
3 116 137 90
3 101 116 139
3 139 116 101
3 101 140 117
3 117 140 101
3 91 117 141
3 141 117 91
3 118 119 102
3 102 119 118
3 121 118 91
3 91 118 121
3 142 91 118
3 118 91 142
3 91 119 118
3 118 119 91
3 119 143 102
3 102 143 119
3 120 119 102
3 102 119 120
3 103 102 120
3 120 102 103
3 102 143 120
3 120 143 102
3 120 121 103
3 103 121 120
3 121 120 103
3 103 120 121
3 91 144 121
3 121 144 91
3 91 142 121
3 121 142 91
3 92 121 122
3 122 121 92
3 122 145 99
3 99 145 122
3 146 104 107
3 107 104 146
3 123 104 147
3 147 104 123
3 126 93 123
3 123 93 126
3 93 106 124
3 124 106 93
3 148 125 105
3 105 125 148
3 105 124 149
3 149 124 105
3 150 125 106
3 93 126 95
3 95 126 93
3 151 126 107
3 127 128 108
3 108 128 127
3 96 128 152
3 152 128 96
3 110 109 115
3 115 109 110
3 129 96 153
3 153 96 129
3 129 127 109
3 109 127 129
3 130 110 154
3 154 110 130
3 70 130 135
3 135 130 70
3 155 69 131
3 131 69 155
3 111 156 131
3 131 156 111
3 145 132 98
3 98 132 145
3 132 157 111
3 111 157 132
3 158 133 112
3 112 133 158
3 159 98 133
3 133 98 159
3 99 159 134
3 134 159 99
3 134 160 112
3 112 160 134
3 161 113 135
3 135 113 161
3 113 161 136
3 136 161 113
3 136 156 114
3 114 156 136
3 137 114 156
3 156 114 137
3 115 109 127
3 127 109 115
3 138 69 162
3 162 69 138
3 138 110 115
3 115 110 138
3 116 137 139
3 139 137 116
3 140 101 139
3 139 101 140
3 163 117 140
3 140 117 163
3 117 163 141
3 141 163 117
3 91 141 164
3 164 141 91
3 165 119 118
3 118 119 165
3 119 142 118
3 118 142 119
3 118 121 165
3 165 121 118
3 143 119 166
3 166 119 143
3 119 120 167
3 167 120 119
3 120 143 167
3 167 143 120
3 167 121 120
3 120 121 167
3 142 120 121
3 121 120 142
3 91 164 144
3 144 164 91
3 122 121 144
3 144 121 122
3 167 142 121
3 121 142 167
3 168 121 142
3 142 121 168
3 132 145 122
3 122 145 132
3 159 99 145
3 145 99 159
3 104 146 169
3 169 146 104
3 146 170 107
3 147 104 171
3 171 104 147
3 123 147 149
3 149 147 123
3 149 126 123
3 123 126 149
3 106 149 124
3 124 149 106
3 125 148 172
3 172 148 125
3 105 173 148
3 148 173 105
3 105 149 174
3 174 149 105
3 126 125 150
3 149 106 150
3 150 106 149
3 175 126 151
3 176 151 107
3 128 127 177
3 177 127 128
3 128 178 152
3 152 178 128
3 179 96 152
3 152 96 179
3 153 96 179
3 179 96 153
3 180 129 153
3 153 129 180
3 127 129 177
3 177 129 127
3 110 138 154
3 154 138 110
3 154 162 130
3 130 162 154
3 181 135 130
3 130 135 181
3 182 69 155
3 155 69 182
3 131 156 155
3 155 156 131
3 156 111 157
3 157 111 156
3 98 159 145
3 145 159 98
3 157 132 183
3 183 132 157
3 184 133 158
3 158 133 184
3 158 112 160
3 160 112 158
3 133 185 159
3 159 185 133
3 159 160 134
3 134 160 159
3 135 181 161
3 161 181 135
3 136 161 186
3 186 161 136
3 156 136 155
3 155 136 156
3 156 187 137
3 137 187 156
3 188 156 137
3 137 156 188
3 156 183 137
3 137 183 156
3 162 69 182
3 182 69 162
3 162 189 138
3 138 189 162
3 139 137 140
3 140 137 139
3 140 137 163
3 163 137 140
3 190 141 163
3 163 141 190
3 141 190 164
3 164 190 141
3 119 165 166
3 166 165 119
3 142 119 167
3 167 119 142
3 165 121 168
3 168 121 165
3 166 178 143
3 143 178 166
3 120 142 167
3 167 142 120
3 143 142 167
3 167 142 143
3 191 144 164
3 164 144 191
3 122 144 192
3 192 144 122
3 142 143 168
3 168 143 142
3 122 193 132
3 132 193 122
3 170 169 146
3 146 169 170
3 194 104 169
3 169 104 194
3 170 195 107
3 171 104 196
3 196 104 171
3 176 147 171
3 171 147 176
3 174 149 147
3 147 149 174
3 126 149 150
3 150 149 126
3 197 172 148
3 148 172 197
3 172 125 198
3 105 174 173
3 173 174 105
3 148 173 199
3 199 173 148
3 175 125 126
3 175 147 151
3 151 147 175
3 147 176 151
3 151 176 147
3 200 176 107
3 177 201 128
3 128 201 177
3 178 128 202
3 202 128 178
3 179 152 178
3 178 152 179
3 179 203 153
3 153 203 179
3 204 129 180
3 180 129 204
3 205 180 129
3 129 180 206
3 129 180 205
3 206 180 129
3 129 201 177
3 177 201 129
3 154 138 189
3 189 138 154
3 207 162 154
3 154 162 207
3 130 162 208
3 208 162 130
3 130 208 181
3 181 208 130
3 155 186 182
3 182 186 155
3 209 156 157
3 157 156 209
3 210 157 156
3 156 157 183
3 156 157 210
3 183 157 156
3 183 132 137
3 137 132 183
3 211 157 183
3 183 157 211
3 157 212 183
3 183 212 157
3 184 185 133
3 133 185 184
3 213 184 158
3 158 184 213
3 158 160 214
3 214 160 158
3 158 215 160
3 160 215 158
3 185 158 160
3 160 158 185
3 160 159 185
3 185 159 160
3 161 181 208
3 208 181 161
3 181 216 161
3 161 216 181
3 186 181 161
3 161 181 186
3 161 208 186
3 186 208 161
3 161 217 186
3 186 217 161
3 136 186 155
3 155 186 136
3 187 156 210
3 210 156 187
3 137 187 188
3 188 187 137
3 156 188 210
3 210 188 156
3 188 218 137
3 137 218 188
3 183 188 137
3 137 188 183
3 137 218 183
3 183 218 137
3 186 162 182
3 182 162 186
3 189 162 207
3 207 162 189
3 163 137 190
3 190 137 163
3 203 164 190
3 190 164 203
3 219 166 165
3 165 166 219
3 168 214 165
3 165 214 168
3 178 166 219
3 219 166 178
3 202 143 178
3 178 143 202
3 192 144 191
3 191 144 192
3 164 203 191
3 191 203 164
3 122 192 220
3 220 192 122
3 143 214 168
3 168 214 143
3 193 122 221
3 221 122 193
3 222 132 193
3 193 132 222
3 169 170 194
3 194 170 169
3 197 104 194
3 194 104 197
3 195 223 107
3 195 194 170
3 170 194 195
3 196 104 224
3 224 104 196
3 171 196 173
3 173 196 171
3 173 176 171
3 171 176 173
3 147 175 174
3 174 175 147
3 172 197 195
3 195 197 172
3 148 225 197
3 197 225 148
3 198 125 175
3 176 172 198
3 175 173 174
3 174 173 175
3 199 173 196
3 196 173 199
3 148 199 225
3 225 199 148
3 226 176 200
3 223 200 107
3 202 128 201
3 201 128 202
3 219 202 178
3 178 202 219
3 202 129 178
3 178 129 202
3 179 178 206
3 206 178 179
3 203 179 191
3 191 179 203
3 227 129 204
3 204 129 227
3 228 204 180
3 180 204 228
3 180 227 204
3 204 227 180
3 229 180 204
3 204 180 229
3 229 180 204
3 204 180 229
3 180 227 204
3 204 227 180
3 227 180 205
3 205 180 227
3 129 227 205
3 205 227 129
3 201 129 205
3 205 129 201
3 129 202 205
3 205 202 129
3 219 180 206
3 206 180 219
3 180 229 206
3 206 229 180
3 180 229 206
3 206 229 180
3 129 206 178
3 178 206 129
3 154 189 207
3 207 189 154
3 186 208 162
3 162 208 186
3 189 181 208
3 208 181 189
3 181 186 208
3 208 186 181
3 156 209 210
3 210 209 156
3 157 211 209
3 209 211 157
3 212 157 209
3 209 157 212
3 157 210 209
3 209 210 157
3 137 132 230
3 230 132 137
3 183 218 211
3 211 218 183
3 183 212 211
3 211 212 183
3 188 183 211
3 211 183 188
3 185 184 231
3 231 184 185
3 202 184 213
3 213 184 202
3 158 214 213
3 213 214 158
3 231 214 160
3 160 214 231
3 215 158 232
3 232 158 215
3 215 185 160
3 160 185 215
3 158 185 233
3 233 185 158
3 231 160 185
3 185 160 231
3 207 216 181
3 181 216 207
3 234 161 216
3 216 161 234
3 235 208 186
3 186 208 235
3 217 161 236
3 236 161 217
3 186 217 237
3 237 217 186
3 209 187 210
3 210 187 209
3 212 210 187
3 187 210 212
3 210 188 187
3 187 188 210
3 188 187 238
3 238 187 188
3 188 212 187
3 187 212 188
3 218 188 239
3 239 188 218
3 240 207 189
3 189 207 240
3 181 189 207
3 207 189 181
3 190 137 230
3 230 137 190
3 203 190 230
3 230 190 203
3 165 214 219
3 219 214 165
3 241 178 219
3 219 178 241
3 178 241 219
3 219 241 178
3 202 214 143
3 143 214 202
3 242 192 191
3 191 192 242
3 220 192 243
3 243 192 220
3 122 220 221
3 221 220 122
3 244 193 221
3 221 193 244
3 245 132 222
3 222 132 245
3 222 193 246
3 246 193 222
3 225 104 197
3 197 104 225
3 194 195 197
3 197 195 194
3 223 195 247
3 224 104 225
3 225 104 224
3 223 196 224
3 224 196 223
3 176 173 198
3 198 173 176
3 195 172 247
3 173 175 198
3 198 175 173
3 226 172 176
3 196 226 199
3 199 226 196
3 226 225 199
3 199 225 226
3 226 196 200
3 200 196 226
3 196 223 200
3 200 223 196
3 202 201 184
3 184 201 202
3 205 202 201
3 201 202 232
3 201 202 205
3 232 202 201
3 202 219 248
3 248 219 202
3 206 178 241
3 241 178 206
3 178 206 241
3 241 206 178
3 231 227 204
3 204 227 231
3 227 229 204
3 204 229 227
3 227 249 204
3 204 249 227
3 204 228 229
3 229 228 204
3 203 228 180
3 180 228 203
3 227 180 219
3 219 180 227
3 231 204 229
3 229 204 231
3 204 249 229
3 229 249 204
3 238 205 227
3 227 205 238
3 205 249 227
3 227 249 205
3 205 238 201
3 201 238 205
3 249 205 201
3 201 205 249
3 219 206 241
3 241 206 219
3 206 229 241
3 241 229 206
3 206 229 241
3 241 229 206
3 235 189 208
3 208 189 235
3 210 212 209
3 209 212 210
3 209 211 212
3 212 211 209
3 250 209 212
3 212 209 250
3 230 132 245
3 245 132 230
3 212 211 218
3 218 211 212
3 212 188 211
3 211 188 212
3 184 250 231
3 231 250 184
3 214 202 213
3 213 202 214
3 249 214 231
3 231 214 249
3 158 251 232
3 232 251 158
3 251 215 232
3 232 215 251
3 252 232 215
3 215 232 202
3 215 232 252
3 202 232 215
3 185 215 252
3 252 215 185
3 185 251 233
3 233 251 185
3 251 158 233
3 233 158 251
3 207 253 216
3 216 253 207
3 161 234 254
3 254 234 161
3 216 234 235
3 186 255 235
3 235 255 186
3 161 256 236
3 236 256 161
3 186 237 257
3 257 237 186
3 187 209 238
3 238 209 187
3 188 238 239
3 239 238 188
3 239 227 218
3 218 227 239
3 207 240 258
3 258 240 207
3 259 240 189
3 189 240 259
3 245 203 230
3 230 203 245
3 219 214 241
3 241 214 219
3 241 260 219
3 219 260 241
3 248 219 241
3 241 219 248
3 243 192 242
3 242 192 243
3 191 243 242
3 242 243 191
3 243 222 220
3 220 222 243
3 221 220 244
3 244 220 221
3 193 244 246
3 246 244 193
3 222 261 245
3 245 261 222
3 246 262 222
3 222 262 246
3 223 225 247
3 247 225 223
3 225 223 224
3 224 223 225
3 247 172 226
3 225 226 247
3 247 226 225
3 201 238 184
3 184 238 201
3 201 232 251
3 251 232 201
3 215 202 248
3 248 202 215
3 263 206 241
3 241 206 263
3 231 218 227
3 227 218 231
3 229 227 264
3 264 227 229
3 229 228 263
3 263 228 229
3 228 203 261
3 261 203 228
3 260 227 219
3 219 227 260
3 231 229 249
3 249 229 231
3 229 248 249
3 249 248 229
3 263 229 249
3 249 229 263
3 238 227 239
3 239 227 238
3 251 249 201
3 201 249 251
3 241 229 263
3 263 229 241
3 241 229 263
3 263 229 241
3 265 189 235
3 235 189 265
3 238 209 250
3 250 209 238
3 212 218 250
3 250 218 212
3 250 184 238
3 238 184 250
3 231 250 218
3 218 250 231
3 249 248 214
3 214 248 249
3 252 251 232
3 232 251 252
3 215 251 252
3 252 251 215
3 248 252 215
3 215 252 248
3 251 185 252
3 252 185 251
3 253 207 266
3 266 207 253
3 253 216 265
3 267 254 234
3 234 254 267
3 254 256 161
3 161 256 254
3 255 235 234
3 235 265 216
3 255 186 268
3 268 186 255
3 257 237 269
3 269 237 257
3 186 257 270
3 270 257 186
3 240 271 258
3 258 271 240
3 271 207 258
3 258 207 271
3 240 259 272
3 272 259 240
3 189 265 259
3 259 265 189
3 273 203 245
3 245 203 273
3 241 214 248
3 248 214 241
3 260 241 263
3 263 241 260
3 241 248 263
3 263 248 241
3 248 241 263
3 263 241 248
3 206 243 191
3 191 243 206
3 274 222 243
3 243 222 274
3 220 222 262
3 262 222 220
3 220 246 244
3 244 246 220
3 222 275 261
3 261 275 222
3 261 273 245
3 245 273 261
3 262 246 276
3 276 246 262
3 206 263 277
3 277 263 206
3 227 260 264
3 264 260 227
3 260 229 264
3 264 229 260
3 277 263 228
3 228 263 277
3 229 263 248
3 248 263 229
3 229 260 263
3 263 260 229
3 261 203 273
3 273 203 261
3 275 228 261
3 261 228 275
3 263 249 248
3 248 249 252
3 248 249 263
3 252 249 248
3 249 251 252
3 252 251 249
3 207 271 266
3 266 271 207
3 253 265 266
3 254 267 278
3 278 267 254
3 234 267 255
3 256 254 268
3 268 254 256
3 186 270 268
3 268 270 186
3 268 279 255
3 255 279 268
3 237 280 269
3 269 280 237
3 271 240 272
3 272 240 271
3 272 271 259
3 259 266 265
3 243 206 277
3 277 206 243
3 281 222 274
3 274 222 281
3 277 274 243
3 243 274 277
3 220 262 276
3 276 262 220
3 282 246 220
3 220 246 282
3 275 222 281
3 281 222 275
3 276 246 283
3 283 246 276
3 228 275 277
3 277 275 228
3 266 259 271
3 278 267 284
3 284 267 278
3 285 254 278
3 278 254 285
3 279 255 267
3 254 285 268
3 268 285 254
3 256 268 237
3 237 268 256
3 280 268 270
3 270 268 280
3 279 268 285
3 285 268 279
3 237 268 280
3 280 268 237
3 277 281 274
3 274 281 277
3 220 276 283
3 283 276 220
3 286 246 282
3 282 246 286
3 220 286 282
3 282 286 220
3 277 275 281
3 281 275 277
3 283 246 286
3 286 246 283
3 284 287 267
3 278 284 288
3 288 284 278
3 288 285 278
3 278 285 288
3 279 267 287
3 279 285 287
3 287 285 279
3 220 283 286
3 286 283 220
3 284 289 287
3 284 290 288
3 288 290 284
3 285 288 291
3 291 288 285
3 287 285 291
3 291 285 287
3 292 287 289
3 293 289 284
3 290 284 293
3 293 284 290
3 290 291 288
3 288 291 290
3 291 292 287
3 287 292 291
3 294 292 289
3 289 293 295
3 296 290 293
3 293 290 296
3 291 290 297
3 297 290 291
3 292 291 298
3 298 291 292
3 299 292 294
3 300 289 294
3 294 289 300
3 296 295 293
3 289 301 295
3 295 301 289
3 290 296 302
3 302 296 290
3 297 290 301
3 301 290 297
3 291 297 298
3 298 297 291
3 303 292 298
3 298 292 303
3 304 292 299
3 305 299 294
3 289 300 297
3 297 300 289
3 305 300 294
3 294 300 305
3 305 295 296
3 301 289 297
3 297 289 301
3 301 305 295
3 295 305 301
3 306 302 296
3 296 302 306
3 302 301 290
3 290 301 302
3 298 297 300
3 300 297 298
3 292 303 307
3 307 303 292
3 298 308 303
3 303 308 298
3 309 292 304
3 310 299 304
3 304 299 310
3 299 305 311
3 300 305 312
3 312 305 300
3 311 305 296
3 305 301 312
3 312 301 305
3 302 306 313
3 313 306 302
3 306 314 296
3 301 302 312
3 312 302 301
3 298 300 315
3 315 300 298
3 308 307 303
3 303 307 308
3 307 292 316
3 298 317 308
3 308 317 298
3 318 292 309
3 314 309 304
3 299 310 315
3 315 310 299
3 314 310 304
3 304 310 314
3 299 319 311
3 311 319 299
3 312 302 300
3 300 302 312
3 314 311 296
3 320 313 306
3 306 313 320
3 321 302 313
3 313 302 321
3 322 314 306
3 315 300 319
3 319 300 315
3 298 315 310
3 310 315 298
3 307 308 316
3 316 308 307
3 316 292 320
3 298 323 317
3 317 323 298
3 317 316 308
3 308 316 317
3 324 292 318
3 323 309 318
3 318 309 323
3 309 314 322
3 319 299 315
3 315 299 319
3 310 314 321
3 321 314 310
3 319 314 311
3 311 314 319
3 300 302 319
3 319 302 300
3 313 320 317
3 317 320 313
3 320 324 306
3 319 302 321
3 321 302 319
3 321 313 310
3 310 313 321
3 324 322 306
3 298 310 325
3 325 310 298
3 320 292 324
3 316 317 320
3 320 317 316
3 298 325 323
3 323 325 298
3 326 317 323
3 323 317 326
3 324 323 318
3 318 323 324
3 309 323 325
3 325 323 309
3 309 327 322
3 322 327 309
3 314 319 321
3 321 319 314
3 326 313 317
3 317 313 326
3 310 313 327
3 327 313 310
3 327 324 322
3 322 324 327
3 325 310 327
3 327 310 325
3 323 324 326
3 326 324 323
3 327 309 325
3 325 309 327
3 327 313 326
3 326 313 327
3 324 327 326
3 326 327 324
3 328 329 330
3 329 328 331
3 330 329 328
3 331 328 329
3 330 332 328
3 328 332 330
3 331 328 330
3 330 328 331
3 333 330 328
3 328 330 333
3 331 328 334
3 334 328 331
3 328 331 334
3 334 331 328
3 334 328 335
3 335 328 334
3 328 334 335
3 335 334 328
3 334 336 331
3 331 336 334
3 337 334 331
3 331 334 337
3 338 339 340
3 339 338 341
3 340 339 338
3 341 338 339
3 340 342 338
3 338 342 340
3 341 338 340
3 340 338 341
3 343 340 338
3 338 340 343
3 341 338 344
3 344 338 341
3 338 341 344
3 344 341 338
3 344 338 345
3 345 338 344
3 338 344 345
3 345 344 338
3 344 346 341
3 341 346 344
3 347 344 341
3 341 344 347
3 348 349 350
3 349 348 351
3 352 350 349
3 350 353 348
3 351 348 354
3 351 352 349
3 350 352 355
3 353 350 355
3 356 348 353
3 357 354 348
3 351 354 358
3 352 351 359
3 352 353 355
3 348 356 357
3 360 356 353
3 354 357 358
3 351 358 361
3 362 359 351
3 353 352 359
3 363 357 356
3 356 360 364
3 353 359 360
3 358 357 361
3 361 357 351
3 359 362 365
3 351 357 362
3 357 363 366
3 356 365 363
3 360 359 364
3 356 364 367
3 368 365 362
3 356 359 365
3 362 357 366
3 369 366 363
3 363 365 370
3 364 359 367
3 356 367 359
3 365 368 370
3 362 366 368
3 366 369 371
3 369 363 372
3 363 370 372
3 373 370 368
3 368 366 374
3 369 373 371
3 371 374 366
3 375 369 372
3 372 370 376
3 370 373 377
3 373 368 378
3 368 374 378
3 373 369 377
3 373 379 371
3 380 374 371
3 381 369 375
3 375 372 382
3 377 376 370
3 372 376 382
3 383 373 378
3 378 374 384
3 385 377 369
3 379 373 386
3 379 387 371
3 380 384 374
3 380 371 387
3 381 385 369
3 375 388 381
3 389 375 382
3 390 376 377
3 382 376 391
3 392 373 383
3 383 378 393
3 378 384 393
3 377 385 394
3 386 373 395
3 387 379 386
3 380 396 384
3 387 383 380
3 385 381 394
3 388 375 390
3 388 397 381
3 375 389 398
3 399 389 382
3 390 391 376
3 390 377 388
3 382 391 400
3 392 395 373
3 383 387 392
3 401 383 393
3 393 384 402
3 377 394 403
3 386 395 404
3 386 405 387
3 396 380 406
3 407 384 396
3 383 408 380
3 397 394 381
3 409 390 375
3 397 388 410
3 389 411 398
3 409 375 398
3 399 412 389
3 400 399 382
3 390 412 391
3 403 388 377
3 400 391 413
3 395 392 414
3 405 392 387
3 383 401 415
3 416 401 393
3 402 384 407
3 393 402 417
3 403 394 418
3 404 395 419
3 404 420 386
3 405 386 420
3 408 406 380
3 406 401 396
3 401 407 396
3 408 383 421
3 394 397 410
3 390 409 422
3 410 388 423
3 411 389 412
3 411 424 398
3 424 409 398
3 412 399 425
3 400 425 399
3 412 390 411
3 426 391 412
3 388 403 427
3 413 391 428
3 413 429 400
3 430 414 392
3 419 395 414
3 392 405 420
3 401 406 415
3 431 383 415
3 432 401 416
3 417 416 393
3 402 407 433
3 434 417 402
3 418 394 410
3 403 418 435
3 419 436 404
3 436 420 404
3 437 406 408
3 407 401 433
3 421 383 438
3 421 437 408
3 422 409 424
3 390 422 439
3 423 388 440
3 423 418 410
3 424 411 441
3 412 425 442
3 400 441 425
3 443 411 390
3 428 391 426
3 412 442 426
3 403 435 427
3 427 444 388
3 413 428 445
3 429 413 446
3 429 447 400
3 414 430 448
3 392 449 430
3 419 414 450
3 392 420 436
3 437 415 406
3 438 383 431
3 451 431 415
3 433 401 432
3 417 432 416
3 433 400 402
3 417 434 452
3 402 429 434
3 435 418 423
3 449 436 419
3 453 421 438
3 453 437 421
3 441 422 424
3 439 422 441
3 390 439 443
3 440 388 444
3 435 423 440
3 441 411 454
3 441 442 425
3 441 400 439
3 455 411 443
3 428 426 442
3 427 435 456
3 444 427 457
3 445 428 458
3 446 413 445
3 452 429 446
3 447 429 459
3 402 400 447
3 430 460 448
3 450 414 448
3 392 436 449
3 430 449 460
3 419 450 461
3 415 437 453
3 438 431 462
3 463 431 451
3 415 464 451
3 464 433 432
3 417 464 432
3 453 400 433
3 429 452 434
3 452 465 417
3 466 429 402
3 419 400 449
3 438 400 453
3 443 439 467
3 440 444 468
3 440 400 435
3 454 411 455
3 442 441 454
3 439 400 440
3 469 455 443
3 442 417 428
3 456 435 470
3 456 457 427
3 468 444 457
3 446 458 428
3 446 445 458
3 428 452 446
3 459 429 471
3 402 447 459
3 448 460 472
3 472 450 448
3 438 460 449
3 461 450 472
3 470 419 461
3 415 453 464
3 462 431 463
3 460 438 462
3 464 463 451
3 433 464 453
3 464 417 462
3 465 452 473
3 428 417 465
3 474 429 466
3 435 400 419
3 449 400 438
3 440 467 439
3 443 467 469
3 467 440 468
3 454 455 469
3 454 417 442
3 419 470 435
3 470 475 456
3 475 457 456
3 468 457 475
3 476 452 428
3 471 429 474
3 402 459 471
3 461 472 460
3 461 417 470
3 462 463 464
3 462 417 460
3 473 452 477
3 428 465 473
3 454 469 467
3 468 417 467
3 467 417 454
3 468 475 470
3 478 452 476
3 428 478 476
3 460 417 461
3 470 417 468
3 477 452 478
3 428 473 477
3 428 477 478
3 350 349 348
3 351 348 349
3 349 350 352
3 348 353 350
3 354 348 351
3 349 352 351
3 355 352 350
3 355 350 353
3 353 348 356
3 348 354 357
3 358 354 351
3 359 351 352
3 355 353 352
3 357 356 348
3 353 356 360
3 358 357 354
3 361 358 351
3 351 359 362
3 359 352 353
3 356 357 363
3 364 360 356
3 360 359 353
3 361 357 358
3 351 357 361
3 365 362 359
3 362 357 351
3 366 363 357
3 363 365 356
3 364 359 360
3 367 364 356
3 362 365 368
3 365 359 356
3 366 357 362
3 363 366 369
3 370 365 363
3 367 359 364
3 359 367 356
3 370 368 365
3 368 366 362
3 371 369 366
3 372 363 369
3 372 370 363
3 368 370 373
3 374 366 368
3 371 373 369
3 366 374 371
3 372 369 375
3 376 370 372
3 377 373 370
3 378 368 373
3 378 374 368
3 377 369 373
3 371 379 373
3 371 374 380
3 375 369 381
3 382 372 375
3 370 376 377
3 382 376 372
3 378 373 383
3 384 374 378
3 369 377 385
3 386 373 379
3 371 387 379
3 374 384 380
3 387 371 380
3 369 385 381
3 381 388 375
3 382 375 389
3 377 376 390
3 391 376 382
3 383 373 392
3 393 378 383
3 393 384 378
3 394 385 377
3 395 373 386
3 386 379 387
3 384 396 380
3 380 383 387
3 394 381 385
3 390 375 388
3 381 397 388
3 398 389 375
3 382 389 399
3 376 391 390
3 388 377 390
3 400 391 382
3 373 395 392
3 392 387 383
3 393 383 401
3 402 384 393
3 403 394 377
3 404 395 386
3 387 405 386
3 406 380 396
3 396 384 407
3 380 408 383
3 381 394 397
3 375 390 409
3 410 388 397
3 398 411 389
3 398 375 409
3 389 412 399
3 382 399 400
3 391 412 390
3 377 388 403
3 413 391 400
3 414 392 395
3 387 392 405
3 415 401 383
3 393 401 416
3 407 384 402
3 417 402 393
3 418 394 403
3 419 395 404
3 386 420 404
3 420 386 405
3 380 406 408
3 396 401 406
3 396 407 401
3 421 383 408
3 410 397 394
3 422 409 390
3 423 388 410
3 412 389 411
3 398 424 411
3 398 409 424
3 425 399 412
3 399 425 400
3 411 390 412
3 412 391 426
3 427 403 388
3 428 391 413
3 400 429 413
3 392 414 430
3 414 395 419
3 420 405 392
3 415 406 401
3 415 383 431
3 416 401 432
3 393 416 417
3 433 407 402
3 402 417 434
3 410 394 418
3 435 418 403
3 404 436 419
3 404 420 436
3 408 406 437
3 433 401 407
3 438 383 421
3 408 437 421
3 424 409 422
3 439 422 390
3 440 388 423
3 410 418 423
3 441 411 424
3 442 425 412
3 425 441 400
3 390 411 443
3 426 391 428
3 426 442 412
3 427 435 403
3 388 444 427
3 445 428 413
3 446 413 429
3 400 447 429
3 448 430 414
3 430 449 392
3 450 414 419
3 436 420 392
3 406 415 437
3 431 383 438
3 415 431 451
3 432 401 433
3 416 432 417
3 402 400 433
3 452 434 417
3 434 429 402
3 423 418 435
3 419 436 449
3 438 421 453
3 421 437 453
3 424 422 441
3 441 422 439
3 443 439 390
3 444 388 440
3 440 423 435
3 454 411 441
3 425 442 441
3 439 400 441
3 443 411 455
3 442 426 428
3 456 435 427
3 457 427 444
3 458 428 445
3 445 413 446
3 446 429 452
3 459 429 447
3 447 400 402
3 448 460 430
3 448 414 450
3 449 436 392
3 460 449 430
3 461 450 419
3 453 437 415
3 462 431 438
3 451 431 463
3 451 464 415
3 432 433 464
3 432 464 417
3 433 400 453
3 434 452 429
3 417 465 452
3 402 429 466
3 449 400 419
3 453 400 438
3 467 439 443
3 468 444 440
3 435 400 440
3 455 411 454
3 454 441 442
3 440 400 439
3 443 455 469
3 428 417 442
3 470 435 456
3 427 457 456
3 457 444 468
3 428 458 446
3 458 445 446
3 446 452 428
3 471 429 459
3 459 447 402
3 472 460 448
3 448 450 472
3 449 460 438
3 472 450 461
3 461 419 470
3 464 453 415
3 463 431 462
3 462 438 460
3 451 463 464
3 453 464 433
3 462 417 464
3 473 452 465
3 465 417 428
3 466 429 474
3 419 400 435
3 438 400 449
3 439 467 440
3 469 467 443
3 468 440 467
3 469 455 454
3 442 417 454
3 435 470 419
3 456 475 470
3 456 457 475
3 475 457 468
3 428 452 476
3 474 429 471
3 471 459 402
3 460 472 461
3 470 417 461
3 464 463 462
3 460 417 462
3 477 452 473
3 473 465 428
3 467 469 454
3 467 417 468
3 454 417 467
3 470 475 468
3 476 452 478
3 476 478 428
3 461 417 460
3 468 417 470
3 478 452 477
3 477 473 428
3 478 477 428
