ply
format ascii 1.0
comment Generated by PyMesh
element vertex 368
property double x
property double y
property double z
element face 1496
property list uchar int vertex_indices
end_header
0.165423 0.448149 0.057957
-0.057304 0.442645 -0.020688
-0.0572337 0.442019 -0.0208358
0.165394 0.448405 0.0580174
0.165473 0.447918 0.057836
0.165387 0.448671 0.0580135
-0.0573211 0.443291 -0.0206991
-0.0571134 0.441457 -0.0211316
0.165403 0.448926 0.0579438
0.145007 0.448181 0.0508105
0.165539 0.44773 0.0576619
0.165441 0.449155 0.057815
-0.0572823 0.443914 -0.0208674
-0.0569518 0.440997 -0.0215555
-0.057191 0.444471 -0.0211822
0.165617 0.447595 0.057447
0.165497 0.449341 0.0576343
-0.0567599 0.440669 -0.0220793
-0.057053 0.444924 -0.0216219
0.165703 0.447525 0.0572058
0.165569 0.449472 0.0574154
-0.0565515 0.440497 -0.0226662
-0.0568782 0.445243 -0.0221568
0.16579 0.447523 0.0569554
0.165651 0.449539 0.0571716
-0.0563392 0.440492 -0.0232774
-0.0566777 0.445406 -0.0227496
0.165872 0.447589 0.0567116
0.165738 0.449537 0.0569212
-0.0561395 0.440655 -0.0238702
-0.0564661 0.4454 -0.0233602
0.165944 0.44772 0.0564927
0.165824 0.449466 0.05668
-0.055964 0.440974 -0.0244045
-0.0562571 0.445229 -0.0239471
0.166001 0.447906 0.056312
0.165903 0.449332 0.0564651
-0.0558266 0.441428 -0.0248441
-0.0560652 0.444902 -0.0244709
-0.0557346 0.441985 -0.025159
0.165969 0.449143 0.0562909
0.166038 0.448134 0.0561832
-0.0559042 0.444442 -0.0248948
-0.0556958 0.442607 -0.0253279
0.166018 0.448913 0.05617
0.166054 0.44839 0.0561135
-0.0557839 0.443879 -0.0251912
-0.0557129 0.443253 -0.0253384
0.166047 0.448656 0.0561096
0.190961 0.426799 0.0454871
0.136615 0.426799 0.0282669
0.135453 0.426799 0.0258313
0.188525 0.426799 0.046649
0.122594 0.426799 0.0621447
0.135453 0.437531 0.0258313
0.17694 0.426799 0.0793656
0.188525 0.439733 0.046649
0.125029 0.426799 0.0609828
0.122594 0.437531 0.0621447
0.190961 0.437531 0.0454871
0.178102 0.426799 0.0818012
0.136615 0.439733 0.0282669
0.130751 0.431501 0.0448259
0.178102 0.437531 0.0818012
0.136109 0.439118 0.0272068
0.184531 0.437531 0.0636445
0.123969 0.439118 0.0614882
0.17694 0.439733 0.0793656
0.125029 0.439733 0.0609828
0.131444 0.433093 0.0428694
0.130618 0.431665 0.0452005
0.130894 0.431445 0.0444237
0.177446 0.439118 0.0804256
0.189586 0.439118 0.0461436
0.130751 0.434686 0.0448259
0.131425 0.43352 0.0429227
0.131425 0.432666 0.0429227
0.139311 0.431501 0.047857
0.131036 0.431501 0.0440215
0.139453 0.431445 0.0474548
0.136845 0.440609 0.0287486
0.125511 0.440609 0.0607527
0.183516 0.439118 0.0632843
0.17671 0.440609 0.0788832
0.130618 0.434521 0.0452005
0.130894 0.434742 0.0444237
0.13137 0.433918 0.0430778
0.140003 0.433093 0.0459005
0.13137 0.432269 0.0430778
0.139985 0.432666 0.0459537
0.130504 0.431928 0.0455226
0.139178 0.431665 0.0482322
0.131168 0.431665 0.0436462
0.139595 0.431501 0.0470526
0.188043 0.440609 0.0468791
0.130504 0.434259 0.0455226
0.139311 0.434686 0.047857
0.139453 0.434742 0.0474548
0.131036 0.434686 0.0440215
0.131283 0.434259 0.0433249
0.139985 0.43352 0.0459537
0.131283 0.431928 0.0433249
0.13993 0.432269 0.0461088
0.130417 0.432269 0.0457697
0.139453 0.427856 0.0474548
0.139728 0.431665 0.0466779
0.139905 0.428035 0.0461772
0.137654 0.441991 0.0304462
0.127209 0.441991 0.0599431
0.1759 0.441991 0.0771856
0.182377 0.440609 0.0628814
0.130417 0.433918 0.0457697
0.139178 0.434521 0.0482322
0.139595 0.434686 0.0470526
0.131168 0.434521 0.0436462
0.13993 0.433918 0.0461088
0.140327 0.437629 0.0449863
0.140327 0.428558 0.0449863
0.139842 0.431928 0.0463559
0.139064 0.431928 0.0485536
0.138977 0.432269 0.0488007
0.130362 0.432666 0.0459248
0.139728 0.434521 0.0466779
0.186346 0.441991 0.0476887
0.130362 0.43352 0.0459248
0.139064 0.434259 0.0485536
0.139453 0.43833 0.0474548
0.139842 0.434259 0.0463559
0.138922 0.432666 0.0489558
0.130343 0.433093 0.045978
0.139 0.428035 0.0487324
0.178294 0.428035 0.0597715
0.138532 0.443256 0.032287
0.12905 0.443256 0.059065
0.181123 0.441991 0.0624372
0.138977 0.433918 0.0488007
0.139905 0.438152 0.0461772
0.140689 0.436796 0.0439643
0.178716 0.428558 0.0585807
0.138902 0.433093 0.0490091
0.177842 0.427856 0.0610491
0.184505 0.443256 0.0485668
0.175022 0.443256 0.0753448
0.138922 0.43352 0.0489558
0.139 0.438152 0.0487324
0.178294 0.438152 0.0597715
0.178716 0.437629 0.0585807
0.179078 0.436796 0.057558
0.140689 0.42939 0.0439643
0.179078 0.42939 0.057558
0.177389 0.428035 0.0623268
0.177842 0.43833 0.0610491
0.139473 0.444395 0.034258
0.179764 0.443256 0.0619561
0.131021 0.444395 0.0581252
0.179356 0.435712 0.056774
0.140967 0.430475 0.0431796
0.138579 0.428558 0.0499232
0.182534 0.444395 0.0495072
0.174082 0.444395 0.0733738
0.177389 0.438152 0.0623268
0.140967 0.435712 0.0431796
0.179356 0.430475 0.056774
0.176968 0.428558 0.0635176
0.140468 0.445399 0.0363446
0.178308 0.444395 0.0614402
0.133108 0.445399 0.0571295
0.138579 0.437629 0.0499232
0.17953 0.434449 0.0562804
0.141142 0.434449 0.0426861
0.138217 0.42939 0.0509452
0.180447 0.445399 0.0505022
0.173087 0.445399 0.0712871
0.176968 0.437629 0.0635176
0.17953 0.431738 0.0562804
0.141142 0.431738 0.0426861
0.138217 0.436796 0.0509452
0.176606 0.42939 0.0645396
0.141512 0.446261 0.0385325
0.176767 0.445399 0.0608947
0.135296 0.446261 0.0560859
0.17959 0.433093 0.0561122
0.141201 0.433093 0.0425185
0.176606 0.436796 0.0645396
0.176328 0.430475 0.0653243
0.137939 0.430475 0.0517299
0.178259 0.446261 0.0515459
0.172044 0.446261 0.0690993
0.137939 0.435712 0.0517299
0.142596 0.446975 0.0408058
0.175151 0.446261 0.0603223
0.137568 0.446975 0.0550022
0.176328 0.435712 0.0653243
0.176153 0.431738 0.0658172
0.137765 0.434449 0.0522235
0.175986 0.446975 0.0526303
0.170959 0.446975 0.066826
0.176153 0.434449 0.0658172
0.137765 0.431738 0.0522235
0.143713 0.447535 0.0431474
0.173473 0.446975 0.0597281
0.139911 0.447535 0.0538849
0.176094 0.433093 0.0659854
0.137705 0.433093 0.0523917
0.173645 0.447535 0.0537469
0.169842 0.447535 0.0644844
0.144855 0.447939 0.0455416
0.171743 0.447535 0.0591156
0.142304 0.447939 0.0527433
0.17125 0.447939 0.0548891
0.1687 0.447939 0.0620902
0.146013 0.448181 0.0479707
0.169975 0.447939 0.0584893
0.144734 0.448181 0.0515847
0.168821 0.448181 0.0560478
0.167542 0.448181 0.0596611
0.145007 0.448181 0.0508105
0.14718 0.448263 0.0504175
0.168181 0.448181 0.0578544
0.166374 0.448263 0.0572143
-0.0686856 0.180836 -0.0242888
-0.188118 0.180836 -0.0818012
-0.190961 0.180836 -0.0749373
-0.0658425 0.180836 -0.0311527
-0.190961 0.179736 -0.0749373
-0.0677379 0.179736 -0.0265766
-0.0658425 0.179736 -0.0311527
-0.190014 0.179736 -0.077225
-0.0686856 0.179736 -0.0242888
-0.0669098 0.179736 -0.0285758
-0.188118 0.179736 -0.0818012
-0.189186 0.179736 -0.0792243
-0.0676781 0.179736 -0.0265522
-0.190014 0.0982863 -0.077225
-0.06685 0.179736 -0.0285508
-0.189186 0.0982863 -0.0792243
-0.0676781 0.0982587 -0.0265522
-0.0686856 0.0982863 -0.0242888
-0.190014 0.0982587 -0.077225
-0.06685 0.0982587 -0.0285508
-0.190961 0.0982863 -0.0749373
-0.188118 0.0982863 -0.0818012
-0.189186 0.0982587 -0.0792243
-0.190961 0.0971855 -0.0749373
-0.0658425 0.0982863 -0.0311527
-0.188118 0.0971855 -0.0818012
-0.0686856 0.0971855 -0.0242888
-0.0658425 0.0971855 -0.0311527
-0.0128353 -0.454799 -0.0444612
-0.108468 -0.454799 -0.00484856
-0.0804582 -0.454799 -0.0724714
-0.0408455 -0.454799 0.0231617
-0.0804582 -0.446037 -0.0724714
-0.0408455 -0.446037 0.0231617
-0.108468 -0.446037 -0.00484856
-0.0128353 -0.446037 -0.0444612
-0.0991203 -0.446037 -0.00872084
-0.0765859 -0.446037 -0.0631239
-0.0472869 -0.446037 0.0204934
-0.0474551 -0.446037 0.0204238
-0.0221828 -0.446037 -0.0405896
-0.0447172 -0.446037 0.0138142
-0.0765859 -0.438333 -0.0631239
-0.0445489 -0.438333 0.0138839
-0.0991203 -0.438333 -0.00872084
-0.0221828 -0.438333 -0.0405896
-0.0447172 -0.438333 0.0138142
-0.0445489 -0.446037 0.0138839
-0.0904918 -0.438333 -0.0122947
-0.073012 -0.438333 -0.0544955
-0.0421902 -0.438333 0.00771268
-0.0308113 -0.438333 -0.037015
-0.0482911 -0.438333 0.00518571
-0.0876086 -0.431749 -0.0192552
-0.0667297 -0.431926 -0.0518929
-0.0420213 -0.438333 0.00778234
-0.0837179 -0.431487 -0.00948846
-0.0876086 -0.390199 -0.0192552
-0.075815 -0.431749 -0.0477282
-0.073012 -0.382749 -0.0544955
-0.0380025 -0.431926 -0.0399941
-0.0461052 -0.433045 -9.16813e-05
-0.0904918 -0.382749 -0.0122947
-0.0560074 -0.431487 0.00198904
-0.0850665 -0.431749 -0.0182024
-0.0667297 -0.391476 -0.0518929
-0.0308113 -0.382749 -0.037015
-0.038845 -0.431926 -0.0379601
-0.0482911 -0.382749 0.00518571
-0.0335742 -0.433045 -0.0303443
-0.0837179 -0.389112 -0.00948846
-0.0552706 -0.431487 0.000209321
-0.0850665 -0.390199 -0.0182024
-0.0732729 -0.431749 -0.0466747
-0.075815 -0.390199 -0.0477282
-0.0380025 -0.391476 -0.0399941
-0.0675716 -0.391476 -0.0498595
-0.0335742 -0.390395 -0.0303443
-0.0675716 -0.431926 -0.0498595
-0.0461052 -0.390395 -9.16813e-05
-0.0356082 -0.433045 -0.0311869
-0.0560074 -0.389112 0.00198904
-0.0829805 -0.389112 -0.0112682
-0.0829805 -0.431487 -0.0112682
-0.0993588 -0.377138 -0.00862226
-0.0732729 -0.390199 -0.0466747
-0.0850665 -0.390199 -0.0182024
-0.0850665 -0.431749 -0.0182024
-0.038845 -0.391476 -0.0379601
-0.0481393 -0.390395 -0.000934223
-0.0481393 -0.433045 -0.000934223
-0.0552706 -0.389112 0.000209321
-0.0766851 -0.377138 -0.0633625
-0.0446186 -0.377138 0.0140521
-0.0219442 -0.377138 -0.0406881
-0.0356082 -0.390395 -0.0311869
-0.0766851 -0.3674 -0.0633625
-0.0446186 -0.3674 0.0140521
-0.0993588 -0.3674 -0.00862226
-0.0791398 -0.3674 -0.0325105
-0.0219442 -0.3674 -0.0406881
-0.0682689 -0.3674 -0.0062655
-0.0791398 -0.3674 -0.0171364
-0.0682689 -0.3674 -0.043382
-0.0528948 -0.3674 -0.0433814
-0.0528948 -0.3674 -0.0062655
-0.0420239 -0.3674 -0.0171364
-0.0791398 -0.36052 -0.0325105
-0.0682689 -0.36052 -0.043382
-0.0420239 -0.3674 -0.0325105
-0.0682689 -0.36052 -0.0062655
-0.0528948 -0.36052 -0.0062655
-0.0791398 -0.36052 -0.0171364
-0.0528948 -0.36052 -0.0433814
-0.0420239 -0.36052 -0.0171364
-0.0738013 -0.36052 -0.030299
-0.0738013 -0.351715 -0.0193479
-0.0738013 -0.351715 -0.030299
-0.0420239 -0.36052 -0.0325105
-0.0738013 -0.36052 -0.0193479
-0.0660574 -0.36052 -0.011604
-0.0660574 -0.351715 -0.011604
-0.0660574 -0.36052 -0.0380429
-0.0660574 -0.351715 -0.0380429
-0.0551063 -0.351715 -0.0380429
-0.0473624 -0.36052 -0.030299
-0.0473624 -0.351715 -0.030299
-0.0551063 -0.36052 -0.011604
-0.0551063 -0.351715 -0.011604
-0.0473624 -0.36052 -0.0193479
-0.0664287 0.451773 -0.0224177
-0.0664287 0.451773 -0.0272614
-0.0551063 -0.36052 -0.0380429
-0.063004 0.451773 -0.018993
-0.0581597 0.451773 -0.018993
-0.0473624 -0.351715 -0.0193479
-0.063004 0.451773 -0.0306867
-0.0581597 0.451773 -0.0306867
-0.054735 0.451773 -0.0224177
-0.0647482 0.454799 -0.0231137
-0.0623074 0.454799 -0.0206735
-0.0623074 0.454799 -0.0290063
-0.054735 0.451773 -0.027262
-0.0588564 0.454799 -0.0206735
-0.0647482 0.454799 -0.0265654
-0.0588564 0.454799 -0.0290063
-0.0564155 0.454799 -0.0231137
-0.0564155 0.454799 -0.0265654
3 3 5 0
3 4 0 8
3 8 0 5
3 11 4 8
3 10 4 11
3 16 10 11
3 15 10 16
3 20 15 16
3 19 15 20
3 24 19 20
3 23 19 24
3 28 23 24
3 27 23 28
3 32 27 28
3 31 27 32
3 36 31 32
3 35 31 36
3 40 35 36
3 41 35 40
3 44 41 40
3 45 41 44
3 48 45 44
3 0 1 2
3 1 0 3
3 2 1 0
3 3 0 1
3 2 4 0
3 0 4 2
3 3 6 1
3 1 6 3
3 4 2 7
3 7 2 4
3 9 3 5
3 5 3 9
3 6 3 9
3 9 3 6
3 7 10 4
3 4 10 7
3 8 9 5
3 5 9 8
3 9 12 6
3 6 12 9
3 10 7 13
3 13 7 10
3 14 8 11
3 11 8 14
3 12 9 8
3 8 9 12
3 13 15 10
3 10 15 13
3 8 14 12
3 12 14 8
3 16 14 11
3 11 14 16
3 15 13 17
3 17 13 15
3 14 16 18
3 18 16 14
3 17 19 15
3 15 19 17
3 20 18 16
3 16 18 20
3 19 17 21
3 21 17 19
3 18 20 22
3 22 20 18
3 21 23 19
3 19 23 21
3 24 22 20
3 20 22 24
3 23 21 25
3 25 21 23
3 22 24 26
3 26 24 22
3 25 27 23
3 23 27 25
3 28 26 24
3 24 26 28
3 27 25 29
3 29 25 27
3 26 28 30
3 30 28 26
3 29 31 27
3 27 31 29
3 32 30 28
3 28 30 32
3 31 29 33
3 33 29 31
3 30 32 34
3 34 32 30
3 33 35 31
3 31 35 33
3 36 34 32
3 32 34 36
3 35 33 37
3 37 33 35
3 34 36 38
3 38 36 34
3 39 35 37
3 37 35 39
3 40 38 36
3 36 38 40
3 35 39 41
3 41 39 35
3 38 40 42
3 42 40 38
3 43 41 39
3 39 41 43
3 44 42 40
3 40 42 44
3 41 43 45
3 45 43 41
3 42 44 46
3 46 44 42
3 47 45 43
3 43 45 47
3 48 46 44
3 44 46 48
3 45 47 48
3 48 47 45
3 46 48 47
3 47 48 46
3 0 5 3
3 8 0 4
3 5 0 8
3 8 4 11
3 11 4 10
3 11 10 16
3 16 10 15
3 16 15 20
3 20 15 19
3 20 19 24
3 24 19 23
3 24 23 28
3 28 23 27
3 28 27 32
3 32 27 31
3 32 31 36
3 36 31 35
3 36 35 40
3 40 35 41
3 40 41 44
3 44 41 45
3 44 45 48
3 51 50 49
3 52 49 50
3 51 53 50
3 51 49 54
3 55 49 52
3 52 50 56
3 57 50 53
3 53 51 58
3 59 54 49
3 54 58 51
3 60 49 55
3 52 56 55
3 61 56 50
3 50 57 62
3 60 57 53
3 58 63 53
3 54 59 64
3 59 49 65
3 58 54 66
3 60 63 49
3 55 57 60
3 67 55 56
3 61 68 56
3 50 69 61
3 62 57 70
3 71 50 62
3 60 53 63
3 63 58 72
3 73 64 59
3 64 66 54
3 65 49 63
3 59 65 73
3 66 72 58
3 57 55 68
3 67 68 55
3 67 56 68
3 61 74 68
3 69 75 61
3 69 50 76
3 68 70 57
3 78 50 71
3 63 72 65
3 64 73 80
3 66 64 81
3 73 65 82
3 72 66 83
3 84 68 74
3 85 74 61
3 75 86 61
3 76 50 88
3 90 70 68
3 92 50 78
3 82 65 72
3 94 80 73
3 80 81 64
3 81 83 66
3 73 82 94
3 72 83 82
3 95 68 84
3 98 85 61
3 86 99 61
3 88 50 101
3 103 90 68
3 77 91 96
3 77 91 104
3 79 77 97
3 79 77 104
3 101 50 92
3 93 79 97
3 93 79 106
3 80 94 107
3 81 80 108
3 83 81 109
3 94 82 110
3 110 82 83
3 111 68 95
3 114 98 61
3 99 114 61
3 87 89 100
3 87 116 100
3 87 89 117
3 89 102 115
3 89 102 117
3 121 103 68
3 96 91 112
3 97 77 96
3 91 119 104
3 106 79 104
3 105 93 122
3 105 93 106
3 113 93 97
3 123 107 94
3 107 108 80
3 108 109 81
3 83 109 110
3 94 110 123
3 124 68 111
3 96 126 112
3 97 126 96
3 113 126 97
3 100 89 115
3 100 116 115
3 116 87 117
3 102 118 127
3 102 118 106
3 115 102 127
3 117 102 106
3 91 119 125
3 129 121 68
3 112 91 125
3 104 119 130
3 118 105 127
3 118 105 106
3 122 93 113
3 127 105 122
3 107 123 132
3 107 132 108
3 108 133 109
3 134 110 109
3 123 110 134
3 129 68 124
3 112 126 125
3 136 126 113
3 122 136 113
3 115 136 127
3 116 136 115
3 137 116 117
3 125 119 135
3 119 120 135
3 119 120 130
3 120 128 135
3 120 128 130
3 127 136 122
3 141 132 123
3 133 108 132
3 142 109 133
3 109 142 134
3 134 142 123
3 125 144 135
3 126 144 125
3 148 137 117
3 135 128 143
3 128 139 130
3 139 143 128
3 132 141 152
3 141 123 153
3 132 152 133
3 133 154 142
3 142 153 123
3 135 144 143
3 156 137 148
3 157 130 139
3 143 144 139
3 158 152 141
3 153 159 141
3 154 133 152
3 159 142 154
3 142 159 153
3 161 137 156
3 139 144 157
3 152 158 164
3 158 141 165
3 159 165 141
3 152 164 154
3 154 166 159
3 169 161 156
3 144 167 157
3 171 164 158
3 165 172 158
3 159 172 165
3 166 154 164
3 172 159 166
3 175 169 156
3 167 176 157
3 157 176 170
3 164 171 178
3 171 158 179
3 172 179 158
3 164 178 166
3 166 180 172
3 182 169 175
3 170 176 185
3 186 178 171
3 179 187 171
3 172 187 179
3 180 166 178
3 187 172 180
3 176 188 185
3 178 186 189
3 186 171 190
3 187 190 171
3 178 189 180
3 180 191 187
3 188 194 185
3 195 189 186
3 190 196 186
3 187 196 190
3 191 180 189
3 196 187 191
3 185 194 198
3 189 195 199
3 195 186 200
3 196 200 186
3 189 199 191
3 191 201 196
3 203 198 194
3 204 199 195
3 200 205 195
3 196 205 200
3 201 191 199
3 205 196 201
3 199 204 206
3 204 195 207
3 205 207 195
3 199 206 201
3 201 208 205
3 209 206 204
3 207 210 204
3 205 210 207
3 208 201 206
3 210 205 208
3 206 209 211
3 209 204 212
3 210 212 204
3 206 211 208
3 208 213 210
3 214 211 209
3 212 215 209
3 210 215 212
3 216 208 211
3 215 210 213
3 213 208 216
3 211 214 217
3 214 209 218
3 215 218 209
3 211 217 216
3 213 217 215
3 213 216 217
3 219 217 214
3 214 218 219
3 215 219 218
3 219 215 217
3 62 70 77
3 71 62 79
3 69 87 75
3 76 89 69
3 91 77 70
3 77 79 62
3 78 71 93
3 79 93 71
3 74 96 84
3 85 97 74
3 75 100 86
3 100 75 87
3 87 69 89
3 88 102 76
3 89 76 102
3 70 90 91
3 92 78 105
3 93 105 78
3 84 112 95
3 112 84 96
3 96 74 97
3 97 85 113
3 98 113 85
3 86 115 99
3 115 86 100
3 101 118 88
3 102 88 118
3 119 91 90
3 103 120 90
3 101 92 118
3 105 118 92
3 95 125 111
3 125 95 112
3 113 98 122
3 114 122 98
3 99 127 114
3 127 99 115
3 119 90 120
3 120 103 128
3 121 128 103
3 111 135 124
3 135 111 125
3 122 114 127
3 128 121 139
3 129 139 121
3 124 143 129
3 143 124 135
3 139 129 143
3 49 50 51
3 50 49 52
3 50 53 51
3 54 49 51
3 52 49 55
3 56 50 52
3 53 50 57
3 58 51 53
3 49 54 59
3 51 58 54
3 55 49 60
3 55 56 52
3 50 56 61
3 62 57 50
3 53 57 60
3 53 63 58
3 64 59 54
3 65 49 59
3 66 54 58
3 49 63 60
3 60 57 55
3 56 55 67
3 56 68 61
3 61 69 50
3 70 57 62
3 62 50 71
3 63 53 60
3 72 58 63
3 59 64 73
3 54 66 64
3 63 49 65
3 73 65 59
3 58 72 66
3 68 55 57
3 55 68 67
3 68 56 67
3 68 74 61
3 61 75 69
3 76 50 69
3 57 70 68
3 71 50 78
3 65 72 63
3 80 73 64
3 81 64 66
3 82 65 73
3 83 66 72
3 74 68 84
3 61 74 85
3 61 86 75
3 88 50 76
3 68 70 90
3 78 50 92
3 72 65 82
3 73 80 94
3 64 81 80
3 66 83 81
3 94 82 73
3 82 83 72
3 84 68 95
3 61 85 98
3 61 99 86
3 101 50 88
3 68 90 103
3 96 91 77
3 97 77 79
3 92 50 101
3 97 79 93
3 107 94 80
3 108 80 81
3 109 81 83
3 110 82 94
3 83 82 110
3 95 68 111
3 61 98 114
3 61 114 99
3 100 89 87
3 115 102 89
3 68 103 121
3 112 91 96
3 96 77 97
3 122 93 105
3 97 93 113
3 94 107 123
3 80 108 107
3 81 109 108
3 110 109 83
3 123 110 94
3 111 68 124
3 115 89 100
3 127 118 102
3 127 102 115
3 125 119 91
3 68 121 129
3 125 91 112
3 127 105 118
3 113 93 122
3 122 105 127
3 132 123 107
3 108 132 107
3 109 133 108
3 109 110 134
3 134 110 123
3 124 68 129
3 135 119 125
3 135 120 119
3 135 128 120
3 123 132 141
3 132 108 133
3 133 109 142
3 134 142 109
3 123 142 134
3 143 128 135
3 128 143 139
3 152 141 132
3 153 123 141
3 133 152 132
3 142 154 133
3 123 153 142
3 141 152 158
3 141 159 153
3 152 133 154
3 154 142 159
3 153 159 142
3 164 158 152
3 165 141 158
3 141 165 159
3 154 164 152
3 159 166 154
3 158 164 171
3 158 172 165
3 165 172 159
3 164 154 166
3 166 159 172
3 178 171 164
3 179 158 171
3 158 179 172
3 166 178 164
3 172 180 166
3 171 178 186
3 171 187 179
3 179 187 172
3 178 166 180
3 180 172 187
3 189 186 178
3 190 171 186
3 171 190 187
3 180 189 178
3 187 191 180
3 186 189 195
3 186 196 190
3 190 196 187
3 189 180 191
3 191 187 196
3 199 195 189
3 200 186 195
3 186 200 196
3 191 199 189
3 196 201 191
3 195 199 204
3 195 205 200
3 200 205 196
3 199 191 201
3 201 196 205
3 206 204 199
3 207 195 204
3 195 207 205
3 201 206 199
3 205 208 201
3 204 206 209
3 204 210 207
3 207 210 205
3 206 201 208
3 208 205 210
3 211 209 206
3 212 204 209
3 204 212 210
3 208 211 206
3 210 213 208
3 209 211 214
3 209 215 212
3 212 215 210
3 211 208 216
3 213 210 215
3 216 208 213
3 217 214 211
3 218 209 214
3 209 218 215
3 216 217 211
3 215 217 213
3 217 216 213
3 214 217 219
3 219 218 214
3 218 219 215
3 217 215 219
3 77 70 62
3 79 62 71
3 75 87 69
3 69 89 76
3 70 77 91
3 62 79 77
3 93 71 78
3 71 93 79
3 84 96 74
3 74 97 85
3 86 100 75
3 87 75 100
3 89 69 87
3 76 102 88
3 102 76 89
3 91 90 70
3 105 78 92
3 78 105 93
3 95 112 84
3 96 84 112
3 97 74 96
3 113 85 97
3 85 113 98
3 99 115 86
3 100 86 115
3 88 118 101
3 118 88 102
3 90 91 119
3 90 120 103
3 118 92 101
3 92 118 105
3 111 125 95
3 112 95 125
3 122 98 113
3 98 122 114
3 114 127 99
3 115 99 127
3 120 90 119
3 128 103 120
3 103 128 121
3 124 135 111
3 125 111 135
3 127 114 122
3 139 121 128
3 121 139 129
3 129 143 124
3 135 124 143
3 143 129 139
3 104 91 77
3 104 77 79
3 106 79 93
3 100 116 87
3 117 89 87
3 117 102 89
3 104 119 91
3 104 79 106
3 106 93 105
3 112 126 96
3 96 126 97
3 97 126 113
3 115 116 100
3 117 87 116
3 106 118 102
3 106 102 117
3 130 119 104
3 106 105 118
3 125 126 112
3 113 126 136
3 113 136 122
3 127 136 115
3 115 136 116
3 117 116 137
3 130 120 119
3 130 128 120
3 122 136 127
3 135 144 125
3 125 144 126
3 117 137 148
3 130 139 128
3 143 144 135
3 148 137 156
3 139 130 157
3 139 144 143
3 156 137 161
3 157 144 139
3 156 161 169
3 157 167 144
3 156 169 175
3 157 176 167
3 170 176 157
3 175 169 182
3 185 176 170
3 185 188 176
3 185 194 188
3 198 194 185
3 194 198 203
3 151 140 131
3 131 140 151
3 146 131 138
3 138 131 146
3 147 138 149
3 149 138 147
3 151 150 140
3 140 150 151
3 151 131 145
3 145 131 151
3 145 131 146
3 146 131 145
3 146 138 147
3 147 138 146
3 147 162 155
3 155 162 147
3 147 149 162
3 162 149 147
3 160 150 151
3 151 150 160
3 155 162 168
3 168 162 155
3 160 163 150
3 150 163 160
3 168 162 174
3 174 162 168
3 173 163 160
3 160 163 173
3 168 174 181
3 181 174 168
3 183 163 173
3 173 163 183
3 183 177 163
3 163 177 183
3 183 184 177
3 177 184 183
3 192 184 183
3 183 184 192
3 197 184 192
3 192 184 197
3 197 193 184
3 184 193 197
3 193 197 202
3 202 197 193
3 131 104 106
3 106 104 131
3 138 106 117
3 117 106 138
3 140 130 104
3 104 130 140
3 104 131 140
3 140 131 104
3 106 138 131
3 131 138 106
3 126 145 136
3 136 145 126
3 136 146 116
3 116 146 136
3 116 147 137
3 137 147 116
3 117 149 138
3 138 149 117
3 130 140 150
3 150 140 130
3 144 151 126
3 126 151 144
3 145 126 151
3 151 126 145
3 146 136 145
3 145 136 146
3 147 116 146
3 146 116 147
3 155 137 147
3 147 137 155
3 149 117 148
3 148 117 149
3 150 157 130
3 130 157 150
3 151 144 160
3 160 144 151
3 137 155 161
3 161 155 137
3 156 149 148
3 148 149 156
3 157 150 163
3 163 150 157
3 167 160 144
3 144 160 167
3 168 161 155
3 155 161 168
3 149 156 162
3 162 156 149
3 163 170 157
3 157 170 163
3 160 167 173
3 173 167 160
3 161 168 169
3 169 168 161
3 175 162 156
3 156 162 175
3 170 163 177
3 177 163 170
3 176 173 167
3 167 173 176
3 181 169 168
3 168 169 181
3 162 175 174
3 174 175 162
3 184 170 177
3 177 170 184
3 173 176 183
3 183 176 173
3 169 181 182
3 182 181 169
3 182 174 175
3 175 174 182
3 174 182 181
3 181 182 174
3 170 184 185
3 185 184 170
3 188 183 176
3 176 183 188
3 193 185 184
3 184 185 193
3 183 188 192
3 192 188 183
3 185 193 198
3 198 193 185
3 194 192 188
3 188 192 194
3 192 194 197
3 197 194 192
3 202 198 193
3 193 198 202
3 203 197 194
3 194 197 203
3 198 202 203
3 203 202 198
3 197 203 202
3 202 203 197
3 220 221 222
3 221 220 223
3 221 224 222
3 224 220 222
3 226 221 223
3 224 221 227
3 220 224 228
3 221 226 230
3 227 221 231
3 225 224 227
3 224 225 228
3 226 231 230
3 231 221 230
3 231 226 229
3 233 237 235
3 235 238 233
3 237 233 240
3 235 237 241
3 238 235 242
3 243 233 238
3 233 243 240
3 243 237 240
3 241 237 244
3 241 242 235
3 245 238 242
3 243 238 245
3 237 243 246
3 247 241 244
3 245 242 241
3 247 243 245
3 243 247 246
3 241 247 245
3 222 221 220
3 223 220 221
3 222 224 221
3 222 220 224
3 220 225 223
3 223 225 220
3 223 221 226
3 227 221 224
3 228 224 220
3 225 220 228
3 228 220 225
3 223 225 229
3 229 225 223
3 230 226 221
3 223 229 226
3 226 229 223
3 231 221 227
3 227 224 225
3 228 225 224
3 230 231 226
3 230 221 231
3 229 226 231
3 231 233 227
3 233 231 235
3 235 237 233
3 233 238 235
3 240 233 237
3 241 237 235
3 242 235 238
3 238 233 243
3 240 243 233
3 240 237 243
3 244 237 241
3 235 242 241
3 242 238 245
3 245 238 243
3 246 243 237
3 237 247 244
3 244 247 237
3 244 241 247
3 241 242 245
3 245 243 247
3 246 247 243
3 247 237 246
3 246 237 247
3 245 247 241
3 231 225 229
3 229 225 231
3 232 229 225
3 225 229 232
3 225 231 227
3 227 231 225
3 227 233 231
3 227 232 225
3 225 232 227
3 234 231 229
3 229 231 234
3 229 232 234
3 234 232 229
3 235 231 233
3 233 232 227
3 227 232 233
3 234 235 231
3 231 235 234
3 236 234 232
3 232 234 236
3 238 232 233
3 233 232 238
3 239 235 234
3 234 235 239
3 234 236 239
3 239 236 234
3 232 238 236
3 236 238 232
3 235 239 242
3 242 239 235
3 238 239 236
3 236 239 238
3 239 238 242
3 242 238 239
3 248 249 250
3 249 248 251
3 250 249 248
3 251 248 249
3 249 252 250
3 250 252 249
3 252 248 250
3 250 248 252
3 248 253 251
3 251 253 248
3 253 249 251
3 251 249 253
3 252 249 254
3 254 249 252
3 248 252 255
3 255 252 248
3 253 248 255
3 255 248 253
3 249 253 254
3 254 253 249
3 254 256 252
3 252 256 254
3 252 257 255
3 255 257 252
3 255 258 253
3 253 258 255
3 254 253 258
3 258 253 254
3 256 254 259
3 259 254 256
3 257 252 256
3 256 252 257
3 255 257 260
3 260 257 255
3 255 260 258
3 258 260 255
3 254 258 259
3 259 258 254
3 256 259 261
3 261 259 256
3 256 262 257
3 257 262 256
3 262 260 257
3 257 260 262
3 261 258 260
3 260 258 261
3 261 259 258
3 258 259 261
3 261 263 256
3 256 263 261
3 262 256 264
3 264 256 262
3 260 262 265
3 265 262 260
3 260 266 261
3 261 266 260
3 263 261 267
3 267 261 263
3 256 263 264
3 264 263 256
3 264 268 262
3 262 268 264
3 262 269 265
3 265 269 262
3 270 260 265
3 265 260 270
3 266 260 270
3 270 260 266
3 264 263 266
3 266 263 264
3 268 264 266
3 266 264 268
3 269 262 268
3 268 262 269
3 265 269 271
3 271 269 265
3 265 266 270
3 270 266 265
3 263 270 266
3 266 270 263
3 268 266 272
3 272 266 268
3 268 273 269
3 269 273 268
3 269 274 271
3 271 274 269
3 265 271 266
3 266 271 265
3 270 263 275
3 275 263 270
3 272 266 271
3 271 266 272
3 268 276 272
3 272 276 268
3 273 268 277
3 277 268 273
3 269 273 278
3 278 273 269
3 274 269 279
3 279 269 274
3 280 271 274
3 274 271 280
3 281 272 271
3 271 272 281
3 276 268 282
3 282 268 276
3 283 272 276
3 276 272 283
3 282 277 268
3 268 277 282
3 277 284 273
3 273 284 277
3 284 278 273
3 273 278 284
3 269 278 279
3 279 278 269
3 274 279 285
3 285 279 274
3 271 280 286
3 286 280 271
3 274 287 280
3 280 287 274
3 272 281 288
3 288 281 272
3 281 271 289
3 289 271 281
3 276 282 290
3 290 282 276
3 272 283 288
3 288 283 272
3 276 291 283
3 283 291 276
3 277 282 279
3 279 282 277
3 284 277 292
3 292 277 284
3 278 284 293
3 293 284 278
3 294 279 278
3 278 279 294
3 285 279 295
3 295 279 285
3 296 274 285
3 285 274 296
3 286 280 295
3 295 280 286
3 286 297 271
3 271 297 286
3 287 274 298
3 298 274 287
3 287 295 280
3 280 295 287
3 299 288 281
3 281 288 299
3 289 271 297
3 297 271 289
3 300 281 289
3 289 281 300
3 290 282 301
3 301 282 290
3 302 276 290
3 290 276 302
3 288 283 301
3 301 283 288
3 291 276 303
3 303 276 291
3 291 301 283
3 283 301 291
3 304 279 282
3 282 279 304
3 277 279 294
3 294 279 277
3 277 305 292
3 292 305 277
3 305 284 292
3 292 284 305
3 284 305 293
3 293 305 284
3 305 278 293
3 293 278 305
3 278 305 294
3 294 305 278
3 286 295 279
3 279 295 286
3 295 296 285
3 285 296 295
3 274 296 298
3 298 296 274
3 286 299 297
3 297 299 286
3 296 287 298
3 298 287 296
3 295 287 308
3 308 287 295
3 288 299 286
3 286 299 288
3 281 309 299
3 299 309 281
3 297 300 289
3 289 300 297
3 281 300 310
3 310 300 281
3 288 301 282
3 282 301 288
3 301 302 290
3 290 302 301
3 276 302 303
3 303 302 276
3 302 291 303
3 303 291 302
3 301 291 311
3 311 291 301
3 279 304 312
3 312 304 279
3 313 282 304
3 304 282 313
3 305 277 294
3 294 277 305
3 279 314 286
3 286 314 279
3 296 295 308
3 308 295 296
3 309 297 299
3 299 297 309
3 287 296 308
3 308 296 287
3 314 288 286
3 286 288 314
3 309 281 310
3 310 281 309
3 300 297 315
3 315 297 300
3 300 309 310
3 310 309 300
3 282 313 288
3 288 313 282
3 302 301 311
3 311 301 302
3 291 302 311
3 311 302 291
3 304 316 312
3 312 316 304
3 314 279 312
3 312 279 314
3 317 304 313
3 313 304 317
3 297 309 315
3 315 309 297
3 288 314 313
3 313 314 288
3 309 300 315
3 315 300 309
3 316 304 318
3 318 304 316
3 316 314 312
3 312 314 316
3 304 317 318
3 318 317 304
3 314 317 313
3 313 317 314
3 318 319 316
3 316 319 318
3 314 316 320
3 320 316 314
3 321 318 317
3 317 318 321
3 317 314 320
3 320 314 317
3 319 318 322
3 322 318 319
3 323 316 319
3 319 316 323
3 316 324 320
3 320 324 316
3 322 318 321
3 321 318 322
3 321 317 325
3 325 317 321
3 320 326 317
3 317 326 320
3 322 327 319
3 319 327 322
3 324 316 323
3 323 316 324
3 319 328 323
3 323 328 319
3 320 324 329
3 329 324 320
3 330 322 321
3 321 322 330
3 325 317 326
3 326 317 325
3 331 321 325
3 325 321 331
3 320 329 326
3 326 329 320
3 327 322 332
3 332 322 327
3 328 319 327
3 327 319 328
3 328 324 323
3 323 324 328
3 333 329 324
3 324 329 333
3 322 330 332
3 332 330 322
3 321 331 330
3 330 331 321
3 326 331 325
3 325 331 326
3 329 334 326
3 326 334 329
3 332 335 327
3 327 335 332
3 327 336 332
3 332 336 327
3 335 328 327
3 327 328 335
3 328 337 327
3 327 337 328
3 324 328 333
3 333 328 324
3 329 333 338
3 338 333 329
3 339 332 330
3 330 332 339
3 336 330 332
3 332 330 336
3 340 330 331
3 331 330 340
3 341 331 330
3 330 331 341
3 331 326 334
3 334 326 331
3 334 329 338
3 338 329 334
3 335 332 339
3 339 332 335
3 336 327 337
3 337 327 336
3 328 335 342
3 342 335 328
3 337 328 343
3 343 328 337
3 328 342 333
3 333 342 328
3 344 328 333
3 333 328 344
3 333 345 338
3 338 345 333
3 346 333 338
3 338 333 346
3 339 330 340
3 340 330 339
3 330 336 341
3 341 336 330
3 340 331 347
3 347 331 340
3 331 341 348
3 348 341 331
3 349 331 334
3 334 331 349
3 348 334 331
3 331 334 348
3 338 349 334
3 334 349 338
3 334 346 338
3 338 346 334
3 339 337 335
3 335 337 339
3 337 339 336
3 336 339 337
3 336 343 337
3 337 343 336
3 350 337 336
3 336 337 350
3 335 343 342
3 342 343 335
3 328 344 343
3 343 344 328
3 343 335 337
3 337 335 343
3 351 343 337
3 337 343 351
3 333 342 352
3 352 342 333
3 333 346 344
3 344 346 333
3 333 352 345
3 345 352 333
3 338 345 349
3 349 345 338
3 341 339 340
3 340 339 341
3 339 341 336
3 336 341 339
3 343 336 341
3 341 336 343
3 353 336 341
3 341 336 353
3 347 331 349
3 349 331 347
3 348 340 347
3 347 340 348
3 340 348 341
3 341 348 340
3 344 341 348
3 348 341 344
3 354 341 348
3 348 341 354
3 334 348 355
3 355 348 334
3 346 334 355
3 355 334 346
3 337 350 351
3 351 350 337
3 336 353 350
3 350 353 336
3 343 352 342
3 342 352 343
3 352 343 344
3 344 343 352
3 343 341 344
3 344 341 343
3 356 344 343
3 343 344 356
3 343 351 356
3 356 351 343
3 345 344 346
3 346 344 345
3 344 348 346
3 346 348 344
3 357 346 344
3 344 346 357
3 344 345 352
3 352 345 344
3 345 355 349
3 349 355 345
3 341 354 353
3 353 354 341
3 349 348 347
3 347 348 349
3 355 354 348
3 348 354 355
3 348 349 355
3 355 349 348
3 346 348 355
3 355 348 346
3 355 345 346
3 346 345 355
3 346 358 355
3 355 358 346
3 359 351 350
3 350 351 359
3 360 350 353
3 353 350 360
3 344 356 357
3 357 356 344
3 351 361 356
3 356 361 351
3 346 357 362
3 362 357 346
3 363 353 354
3 354 353 363
3 354 355 358
3 358 355 354
3 358 346 362
3 362 346 358
3 351 359 364
3 364 359 351
3 350 360 359
3 359 360 350
3 353 363 360
3 360 363 353
3 361 357 356
3 356 357 361
3 361 351 364
3 364 351 361
3 365 362 357
3 357 362 365
3 358 363 354
3 354 363 358
3 362 366 358
3 358 366 362
3 359 361 364
3 364 361 359
3 361 359 360
3 360 359 361
3 365 360 363
3 363 360 365
3 357 361 365
3 365 361 357
3 362 365 367
3 367 365 362
3 363 358 366
3 366 358 363
3 366 362 367
3 367 362 366
3 361 360 365
3 365 360 361
3 365 363 367
3 367 363 365
3 367 363 366
3 366 363 367
3 306 305 307
3 306 307 305
3 293 307 305
3 293 305 307
3 287 298 308
3 287 308 298
3 303 291 302
3 303 302 291
3 296 308 298
3 296 298 308
3 310 300 309
3 310 309 300
3 311 302 291
3 311 291 302
3 315 309 300
3 315 300 309
