ply
format ascii 1.0
comment Generated by PyMesh
element vertex 184
property double x
property double y
property double z
element face 780
property list uchar int vertex_indices
end_header
-0.0800609 -0.39365 -0.0540651
-0.0741191 -0.39365 -0.060756
-0.0767078 -0.39365 -0.0545063
-0.0782373 -0.39365 -0.0661227
-0.0720463 -0.39365 -0.0610291
-0.0798249 -0.39365 -0.0522699
-0.0834147 -0.39365 -0.0536233
-0.0774369 -0.39365 -0.0680541
-0.0754348 -0.39365 -0.052848
-0.0842145 -0.39365 -0.0516919
-0.0875323 -0.39365 -0.0589899
-0.0849436 -0.39365 -0.0652396
-0.0774369 0.433702 -0.0680541
-0.0720463 0.433702 -0.0610291
-0.0798249 0.433702 -0.0522699
-0.0862166 -0.39365 -0.0668985
-0.0862166 0.433702 -0.0668985
-0.0754348 0.433702 -0.052848
-0.0842145 0.433702 -0.0516919
-0.0896057 -0.39365 -0.0587174
-0.0896057 0.433702 -0.0587174
-0.0835914 -0.343299 -0.0614429
-0.0838382 -0.353233 -0.0633185
-0.0840919 -0.347728 -0.0652453
-0.0830903 -0.35437 -0.0576406
-0.08284 -0.344407 -0.0557394
-0.0825898 -0.349942 -0.0538382
-0.150041 -0.384069 0.0999969
-0.0782692 -0.384069 -0.0588138
-0.144928 -0.384069 0.102115
-0.080826 -0.384069 -0.059873
-0.142371 -0.379276 0.103174
-0.0833827 -0.384069 -0.0609322
-0.0859395 -0.379276 -0.0619914
-0.0757124 -0.379276 -0.0577551
-0.152598 -0.379276 0.0989377
-0.144928 -0.374482 0.102115
-0.0833827 -0.374482 -0.0609322
-0.0782692 -0.374482 -0.0588138
-0.150041 -0.374482 0.0999969
-0.080826 -0.374482 -0.059873
-0.144014 -0.352038 0.107985
-0.141425 -0.406513 0.101735
-0.141425 -0.352038 0.101735
-0.144014 -0.406513 0.107985
-0.145543 -0.352038 0.0963684
-0.150721 -0.406513 0.108868
-0.145543 -0.406513 0.0963684
-0.150721 -0.352038 0.108868
-0.15225 -0.352038 0.0972515
-0.154838 -0.406513 0.103501
-0.15225 -0.406513 0.0972515
-0.154838 -0.352038 0.103501
-0.158487 -0.433702 0.127617
-0.107422 -0.406643 0.126803
-0.115188 -0.406643 0.145552
-0.144471 -0.429796 0.111457
-0.115188 -0.352527 0.145552
-0.201786 -0.406643 0.109682
-0.150721 -0.433702 0.108868
-0.194019 -0.406643 0.0909328
-0.107422 -0.352527 0.126803
-0.194019 -0.352527 0.0909328
-0.158487 -0.325468 0.127617
-0.201786 -0.352527 0.109682
-0.150721 -0.325468 0.108868
0.0973056 0.327782 -0.0895646
0.10264 0.337486 -0.0840224
0.096605 0.324548 -0.0832271
0.0988146 0.331017 -0.0897636
0.0989218 0.327783 -0.0772875
-0.0826804 0.413205 -0.0658741
0.100324 0.334252 -0.0899619
0.100431 0.331017 -0.0774859
-0.083381 0.409971 -0.0595372
-0.0796625 0.419674 -0.066272
0.10194 0.334252 -0.0776849
-0.0810637 0.413205 -0.053597
-0.0773451 0.422909 -0.0603319
-0.0780457 0.419675 -0.0539949
0.123336 0.338206 -0.114437
0.112382 0.315626 -0.11774
0.190649 0.32658 -0.131257
0.112146 0.315407 -0.118849
0.109072 0.317173 -0.117342
0.122772 0.336019 -0.11062
0.173622 0.293542 -0.144406
0.201303 0.340264 -0.0958508
0.123483 0.338775 -0.11543
0.105381 0.296717 -0.102435
0.120027 0.339753 -0.114039
0.102071 0.298264 -0.102037
0.130125 0.347297 -0.0933231
0.113286 0.316466 -0.113481
0.173484 0.293542 -0.145552
0.199343 0.32658 -0.0589295
0.131827 0.351231 -0.0944609
0.190893 0.32732 -0.132108
0.104901 0.295838 -0.10301
0.107224 0.300093 -0.100228
0.119463 0.337566 -0.110223
0.128518 0.352778 -0.094063
0.103914 0.30164 -0.0998305
0.130581 0.345496 -0.0825219
0.126815 0.348844 -0.0929252
0.123321 0.331576 -0.0887751
0.160195 0.260504 -0.127596
0.159756 0.259764 -0.128366
0.185916 0.293542 -0.0421198
0.201786 0.341311 -0.0959089
0.199781 0.32732 -0.0581599
0.13227 0.352255 -0.0947568
0.105907 0.294637 -0.0899614
0.102598 0.296184 -0.0895635
0.10768 0.298291 -0.0894266
0.109977 0.318013 -0.113083
0.104371 0.299839 -0.0890293
0.132354 0.34915 -0.0819872
0.131037 0.343695 -0.0717208
0.127271 0.347043 -0.082124
0.13288 0.34707 -0.0695135
0.114592 0.313584 -0.0914071
0.120518 0.327277 -0.0953685
0.124975 0.327321 -0.0584677
0.106434 0.292556 -0.0774876
0.168888 0.260504 -0.0552691
0.186054 0.293542 -0.0409734
0.129044 0.350698 -0.0815893
0.13336 0.347949 -0.0689388
0.157752 0.245772 -0.0906164
0.105991 0.291533 -0.0771918
0.108136 0.29649 -0.0786255
0.104827 0.298038 -0.0782281
0.129571 0.348618 -0.0691155
0.116903 0.319825 -0.0964585
0.114766 0.312897 -0.08729
0.123495 0.33089 -0.0846586
0.108858 0.332729 -0.0939667
0.158234 0.24682 -0.0906745
0.125879 0.328162 -0.0542087
0.126115 0.32838 -0.0530999
0.103124 0.294104 -0.0770903
0.115489 0.307769 -0.0613284
0.127728 0.345242 -0.0713229
0.117742 0.31651 -0.0765801
0.102932 0.319036 -0.0900058
0.11494 0.312211 -0.0831735
0.123669 0.330203 -0.0805415
0.111661 0.337028 -0.0873738
0.105243 0.325277 -0.0950572
0.121358 0.323962 -0.0754901
0.114925 0.305581 -0.0575117
0.168644 0.259764 -0.0544174
0.12257 0.329709 -0.0538108
0.114778 0.305012 -0.0565181
0.111615 0.307129 -0.0571138
0.121665 0.328869 -0.0580704
0.103106 0.318349 -0.0858888
0.111834 0.336341 -0.0832568
0.109151 0.333863 -0.0959454
0.109698 0.329414 -0.0740883
0.104774 0.324841 -0.0972651
0.112179 0.309316 -0.0609304
0.106082 0.321961 -0.0751788
0.103279 0.317662 -0.0817717
0.101976 0.317286 -0.09115
0.112008 0.335655 -0.0791397
0.112543 0.339068 -0.0879638
0.112964 0.337405 -0.0779956
0.112754 0.338236 -0.0829797
0.101302 0.337533 -0.0950019
0.0969248 0.32851 -0.0963217
0.110167 0.32985 -0.0718804
0.10579 0.320827 -0.0732001
0.0941275 0.320956 -0.0902065
0.102187 0.316454 -0.0861658
0.104695 0.342737 -0.0870204
0.102397 0.315623 -0.0811817
0.102318 0.33352 -0.0709369
0.104905 0.341906 -0.0820362
0.0979412 0.324498 -0.0722566
0.0945487 0.319293 -0.0802388
0.0943378 0.320125 -0.0852224
0.105116 0.341075 -0.0770521
3 0 1 2
3 1 0 3
3 2 1 0
3 3 0 1
3 1 4 2
3 2 4 1
3 2 5 0
3 0 5 2
3 3 0 6
3 6 0 3
3 7 1 3
3 3 1 7
3 4 1 7
3 7 1 4
3 8 2 4
3 4 2 8
3 2 8 5
3 5 8 2
3 0 5 9
3 9 5 0
3 0 9 6
3 6 9 0
3 3 6 10
3 10 6 3
3 7 3 11
3 11 3 7
3 6 9 10
3 10 9 6
3 3 10 11
3 11 10 3
3 7 11 15
3 15 11 7
3 10 9 19
3 19 9 10
3 10 19 11
3 11 19 10
3 15 11 19
3 19 11 15
3 12 17 13
3 13 17 12
3 18 12 16
3 16 12 18
3 17 12 14
3 14 12 17
3 14 12 18
3 18 12 14
3 18 16 20
3 20 16 18
3 12 4 7
3 7 4 12
3 13 8 4
3 4 8 13
3 8 14 5
3 5 14 8
3 14 9 5
3 5 9 14
3 4 12 13
3 13 12 4
3 7 16 12
3 12 16 7
3 8 13 17
3 17 13 8
3 14 8 17
3 17 8 14
3 9 14 18
3 18 14 9
3 16 7 15
3 15 7 16
3 18 19 9
3 9 19 18
3 19 16 15
3 15 16 19
3 19 18 20
3 20 18 19
3 16 19 20
3 20 19 16
3 21 22 23
3 22 21 24
3 23 22 21
3 24 21 22
3 24 21 25
3 25 21 24
3 24 25 26
3 26 25 24
3 31 27 29
3 29 27 31
3 30 33 28
3 28 33 30
3 27 31 35
3 35 31 27
3 33 30 32
3 32 30 33
3 28 33 34
3 34 33 28
3 35 31 36
3 36 31 35
3 34 33 37
3 37 33 34
3 35 36 39
3 39 36 35
3 34 37 38
3 38 37 34
3 38 37 40
3 40 37 38
3 27 28 29
3 28 27 30
3 29 28 27
3 30 27 28
3 28 31 29
3 29 31 28
3 30 27 32
3 32 27 30
3 31 28 34
3 34 28 31
3 27 33 32
3 32 33 27
3 34 36 31
3 31 36 34
3 33 27 35
3 35 27 33
3 36 34 38
3 38 34 36
3 35 37 33
3 33 37 35
3 40 36 38
3 38 36 40
3 36 40 39
3 39 40 36
3 37 35 39
3 39 35 37
3 39 40 37
3 37 40 39
3 45 41 43
3 43 41 45
3 46 42 44
3 44 42 46
3 41 45 48
3 48 45 41
3 42 46 47
3 47 46 42
3 48 45 49
3 49 45 48
3 47 46 50
3 50 46 47
3 48 49 52
3 52 49 48
3 47 50 51
3 51 50 47
3 41 42 43
3 42 41 44
3 43 42 41
3 44 41 42
3 42 45 43
3 43 45 42
3 41 46 44
3 44 46 41
3 45 42 47
3 47 42 45
3 46 41 48
3 48 41 46
3 47 49 45
3 45 49 47
3 48 50 46
3 46 50 48
3 49 47 51
3 51 47 49
3 50 48 52
3 52 48 50
3 50 49 51
3 51 49 50
3 49 50 52
3 52 50 49
3 55 58 53
3 53 58 55
3 56 60 54
3 54 60 56
3 58 55 57
3 57 55 58
3 60 56 59
3 59 56 60
3 54 60 62
3 62 60 54
3 54 62 61
3 61 62 54
3 58 57 64
3 64 57 58
3 61 62 65
3 65 62 61
3 64 57 63
3 63 57 64
3 53 54 55
3 54 53 56
3 55 54 53
3 56 53 54
3 54 57 55
3 55 57 54
3 56 53 59
3 59 53 56
3 57 54 61
3 61 54 57
3 58 59 53
3 53 59 58
3 61 63 57
3 57 63 61
3 59 58 60
3 60 58 59
3 58 62 60
3 60 62 58
3 63 61 65
3 65 61 63
3 62 58 64
3 64 58 62
3 64 65 62
3 62 65 64
3 65 64 63
3 63 64 65
3 66 67 68
3 67 66 69
3 68 67 66
3 69 66 67
3 67 70 68
3 68 70 67
3 67 69 72
3 72 69 67
3 70 67 73
3 73 67 70
3 73 67 76
3 76 67 73
3 77 71 74
3 74 71 77
3 71 77 75
3 75 77 71
3 75 77 79
3 79 77 75
3 75 79 78
3 78 79 75
3 68 71 66
3 66 71 68
3 71 69 66
3 66 69 71
3 70 74 68
3 68 74 70
3 71 68 74
3 74 68 71
3 75 69 71
3 71 69 75
3 69 75 72
3 72 75 69
3 75 67 72
3 72 67 75
3 73 77 70
3 70 77 73
3 74 70 77
3 77 70 74
3 67 75 78
3 78 75 67
3 78 76 67
3 67 76 78
3 79 73 76
3 76 73 79
3 77 73 79
3 79 73 77
3 76 78 79
3 79 78 76
3 80 83 81
3 80 88 83
3 81 83 89
3 94 82 86
3 97 87 82
3 96 88 80
3 89 83 98
3 97 82 94
3 94 86 107
3 87 97 109
3 87 110 95
3 88 96 111
3 98 112 89
3 107 86 106
3 95 126 108
3 110 87 109
3 95 110 126
3 96 128 111
3 112 98 130
3 128 96 117
3 107 106 138
3 108 126 125
3 107 138 129
3 112 130 124
3 128 117 120
3 125 152 138
3 125 126 152
3 140 120 139
3 138 152 129
3 154 124 130
3 128 120 140
3 137 158 148
3 160 137 149
3 154 151 124
3 140 139 154
3 154 139 151
3 163 149 145
3 164 145 157
3 158 137 166
3 166 137 160
3 160 149 163
3 163 145 164
3 80 81 82
3 81 86 82
3 87 80 82
3 81 89 86
3 87 96 80
3 83 88 94
3 89 106 86
3 95 96 87
3 88 97 94
3 83 94 107
3 83 107 98
3 89 124 106
3 120 95 108
3 95 117 96
3 109 97 111
3 111 97 88
3 129 98 107
3 124 89 112
3 124 138 106
3 117 95 120
3 120 108 139
3 139 108 125
3 128 109 111
3 110 109 128
3 140 126 110
3 130 98 129
3 151 138 124
3 125 138 151
3 151 139 125
3 140 110 128
3 154 126 140
3 152 130 129
3 154 152 126
3 152 154 130
3 81 83 80
3 85 80 81
3 83 88 80
3 89 83 81
3 92 80 85
3 85 81 93
3 86 82 94
3 82 87 97
3 80 88 96
3 98 83 89
3 99 81 89
3 92 96 80
3 93 81 99
3 94 82 97
3 107 86 94
3 109 97 87
3 95 110 87
3 111 96 88
3 89 112 98
3 99 89 114
3 96 92 117
3 120 92 103
3 106 86 107
3 108 126 95
3 109 87 110
3 126 110 95
3 111 128 96
3 130 98 112
3 131 89 112
3 114 89 131
3 92 120 117
3 117 96 128
3 120 103 118
3 122 136 105
3 138 106 107
3 125 126 108
3 129 138 107
3 124 130 112
3 124 131 112
3 120 117 128
3 120 118 139
3 139 118 123
3 144 134 121
3 146 121 135
3 136 122 147
3 150 122 134
3 138 152 125
3 152 126 125
3 139 120 140
3 129 152 138
3 130 124 154
3 151 131 124
3 151 142 131
3 140 120 128
3 139 123 151
3 150 134 144
3 144 121 146
3 147 122 150
3 137 148 159
3 149 137 161
3 124 151 154
3 154 139 140
3 151 139 154
3 151 123 142
3 145 149 161
3 157 145 165
3 158 166 148
3 159 148 167
3 161 137 159
3 165 145 161
3 164 157 165
3 148 166 168
3 169 167 148
3 160 172 166
3 163 173 160
3 164 173 163
3 165 175 164
3 172 168 166
3 168 169 148
3 173 172 160
3 177 173 164
3 175 177 164
3 176 179 170
3 171 170 178
3 174 171 180
3 183 170 179
3 178 170 183
3 180 171 178
3 182 174 180
3 181 182 180
3 82 81 80
3 82 86 81
3 82 80 87
3 86 89 81
3 80 96 87
3 94 88 83
3 86 106 89
3 87 96 95
3 94 97 88
3 107 94 83
3 98 107 83
3 106 124 89
3 108 95 120
3 96 117 95
3 111 97 109
3 88 97 111
3 107 98 129
3 112 89 124
3 106 138 124
3 120 95 117
3 139 108 120
3 125 108 139
3 111 109 128
3 128 109 110
3 110 126 140
3 129 98 130
3 124 138 151
3 151 138 125
3 125 139 151
3 128 110 140
3 140 126 154
3 129 130 152
3 126 152 154
3 130 154 152
3 159 167 170
3 161 159 171
3 165 161 174
3 167 169 176
3 176 170 167
3 170 171 159
3 171 174 161
3 165 174 175
3 172 178 168
3 169 168 179
3 179 176 169
3 172 173 178
3 177 181 173
3 182 175 174
3 177 175 181
3 183 168 178
3 183 179 168
3 180 178 173
3 180 173 181
3 182 181 175
3 81 80 85
3 85 80 92
3 93 81 85
3 89 81 99
3 100 90 84
3 84 90 100
3 102 84 91
3 91 84 102
3 80 96 92
3 103 85 92
3 92 85 103
3 99 81 93
3 105 93 85
3 85 93 105
3 114 89 99
3 104 90 100
3 100 90 104
3 100 84 115
3 115 84 100
3 104 101 90
3 90 101 104
3 115 84 102
3 102 84 115
3 102 91 116
3 116 91 102
3 117 92 96
3 85 103 118
3 118 103 85
3 103 92 120
3 93 121 99
3 99 121 93
3 93 105 122
3 122 105 93
3 85 123 105
3 105 123 85
3 112 89 131
3 132 91 113
3 113 91 132
3 131 89 114
3 99 131 114
3 114 131 99
3 101 104 127
3 127 104 101
3 116 91 132
3 132 91 116
3 117 120 92
3 118 103 120
3 85 118 123
3 123 118 85
3 133 104 119
3 119 104 133
3 93 134 121
3 121 134 93
3 99 121 135
3 135 121 99
3 105 136 122
3 93 122 134
3 134 122 93
3 105 123 136
3 136 123 105
3 112 131 124
3 141 132 113
3 113 132 141
3 99 142 131
3 131 142 99
3 104 133 127
3 127 133 104
3 139 118 120
3 123 118 139
3 133 119 143
3 143 119 133
3 121 134 144
3 135 121 146
3 99 135 146
3 146 135 99
3 147 122 136
3 134 122 150
3 136 123 147
3 147 123 136
3 124 131 151
3 155 132 141
3 141 132 155
3 99 146 142
3 142 146 99
3 131 142 151
3 151 123 139
3 133 143 153
3 153 143 133
3 144 134 150
3 146 121 144
3 150 122 147
3 148 158 137
3 159 148 137
3 149 137 160
3 161 137 149
3 147 123 150
3 150 123 147
3 155 162 132
3 132 162 155
3 144 142 146
3 146 142 144
3 142 123 151
3 153 143 156
3 156 143 153
3 150 142 144
3 144 142 150
3 145 149 163
3 161 149 145
3 157 145 164
3 165 145 157
3 148 166 158
3 166 137 158
3 167 148 159
3 159 137 161
3 160 137 166
3 163 149 160
3 150 123 142
3 142 123 150
3 155 156 162
3 162 156 155
3 153 156 155
3 155 156 153
3 164 145 163
3 161 145 165
3 165 157 164
3 168 166 148
3 148 167 169
3 166 172 160
3 160 173 163
3 163 173 164
3 164 175 165
3 166 168 172
3 148 169 168
3 160 172 173
3 164 173 177
3 164 177 175
3 170 179 176
3 178 170 171
3 180 171 174
3 179 170 183
3 183 170 178
3 178 171 180
3 180 174 182
3 180 182 181
3 84 80 81
3 81 80 84
3 80 84 90
3 90 84 80
3 81 91 84
3 84 91 81
3 91 81 89
3 89 81 91
3 101 80 90
3 90 80 101
3 104 85 92
3 92 85 104
3 100 93 85
3 85 93 100
3 80 101 96
3 96 101 80
3 89 113 91
3 91 113 89
3 119 92 103
3 103 92 119
3 85 104 100
3 100 104 85
3 92 119 104
3 104 119 92
3 93 102 99
3 99 102 93
3 93 100 115
3 115 100 93
3 127 96 101
3 101 96 127
3 113 89 112
3 112 89 113
3 99 116 114
3 114 116 99
3 102 93 115
3 115 93 102
3 116 99 102
3 102 99 116
3 96 127 117
3 117 127 96
3 118 119 103
3 103 119 118
3 137 105 122
3 122 105 137
3 124 113 112
3 112 113 124
3 114 132 131
3 131 132 114
3 132 114 116
3 116 114 132
3 117 133 120
3 120 133 117
3 133 117 127
3 127 117 133
3 119 118 143
3 143 118 119
3 123 143 118
3 118 143 123
3 145 134 121
3 121 134 145
3 135 145 121
3 121 145 135
3 148 136 105
3 105 136 148
3 105 137 148
3 148 137 105
3 122 149 137
3 137 149 122
3 149 122 134
3 134 122 149
3 120 153 139
3 139 153 120
3 113 124 141
3 141 124 113
3 132 142 131
3 131 142 132
3 153 120 133
3 133 120 153
3 143 123 156
3 156 123 143
3 134 145 149
3 149 145 134
3 146 157 135
3 135 157 146
3 145 135 157
3 157 135 145
3 158 147 136
3 136 147 158
3 136 148 158
3 158 148 136
3 155 124 151
3 151 124 155
3 153 151 139
3 139 151 153
3 124 155 141
3 141 155 124
3 142 132 162
3 162 132 142
3 142 156 123
3 123 156 142
3 150 163 144
3 144 163 150
3 144 164 146
3 146 164 144
3 157 146 164
3 164 146 157
3 166 150 147
3 147 150 166
3 147 158 166
3 166 158 147
3 151 153 155
3 155 153 151
3 156 142 162
3 162 142 156
3 163 150 160
3 160 150 163
3 164 144 163
3 163 144 164
3 150 166 160
3 160 166 150
3 170 167 159
3 171 159 161
3 174 161 165
3 176 169 167
3 167 170 176
3 159 171 170
3 161 174 171
3 175 174 165
3 168 178 172
3 179 168 169
3 169 176 179
3 178 173 172
3 173 181 177
3 174 175 182
3 181 175 177
3 178 168 183
3 168 179 183
3 173 178 180
3 181 173 180
3 175 181 182
3 82 95 86
3 86 95 82
3 95 82 87
3 87 82 95
3 86 95 108
3 108 95 86
3 86 125 106
3 106 125 86
3 86 108 125
3 125 108 86
3 106 125 138
3 138 125 106
