ply
format ascii 1.0
comment Generated by PyMesh
element vertex 368
property double x
property double y
property double z
element face 1464
property list uchar int vertex_indices
end_header
-0.234597 0.165836 -0.347851
-0.18606 0.165836 0.34785
-0.18606 0.165836 -0.347851
-0.234597 0.165836 0.34785
-0.18606 0.165836 0.396388
-0.18606 0.133477 -0.347851
-0.234597 0.133477 0.34785
-0.18606 0.165836 -0.396388
-0.18606 0.133477 0.396388
-0.234597 0.133477 -0.347851
-0.18606 0.133477 0.34785
0.18606 0.165836 0.396388
-0.18606 0.133477 -0.396388
0.18606 0.165836 0.34785
0.18606 0.133477 0.396388
0.18606 0.133477 -0.396388
0.18606 0.165836 -0.347851
0.18606 0.133477 0.34785
0.18606 0.165836 -0.396388
0.234597 0.165836 0.34785
0.18606 0.133477 -0.347851
0.234597 0.165836 -0.347851
0.234597 0.133477 0.34785
0.234597 0.133477 -0.347851
-0.242686 -0.165836 0.404477
-0.242686 0.165836 0.35594
-0.242686 -0.165836 0.35594
-0.242686 0.165836 0.404477
-0.194149 -0.165836 0.35594
-0.194149 0.165836 0.404477
-0.194149 0.165836 0.35594
-0.194149 -0.165836 0.404477
-0.194149 0.101119 0.36403
-0.194149 0.068761 0.36403
-0.194149 0.068761 0.396388
-0.194149 0.101119 0.396388
-0.0161791 0.068761 0.36403
0.194149 0.101119 0.396388
-0.124488 0.101119 0.38164
-0.0161791 0.101119 0.36403
0.0161791 0.068761 0.36403
0.194149 0.068761 0.396388
0.113254 0.101119 0.391534
-0.123735 0.101119 0.384499
-0.124476 0.101119 0.378683
-0.111728 0.101119 0.368986
-0.0161791 0.101119 -0.36403
0.194149 0.068761 0.36403
0.0161791 0.068761 -0.36403
0.194149 -0.165836 0.404477
0.116185 0.101119 0.391148
0.110322 0.101119 0.391148
-0.122268 0.101119 0.387065
-0.124488 0.133477 0.38164
-0.123699 0.101119 0.37583
-0.124476 0.133477 0.378683
-0.108876 0.101119 0.369763
-0.114684 0.101119 0.368974
-0.0161791 0.068761 -0.36403
-0.011325 0.101119 -0.266955
0.0161791 0.101119 0.36403
0.194149 0.165836 0.404477
0.118916 0.101119 0.390016
0.116185 0.133477 0.391148
0.113254 0.133477 0.391534
0.107591 0.101119 0.390016
-0.120186 0.101119 0.389165
-0.123735 0.133477 0.384499
-0.122209 0.101119 0.373277
-0.123699 0.133477 0.37583
-0.106321 0.101119 0.371253
-0.111728 0.133477 0.368986
-0.117543 0.101119 0.369727
-0.114684 0.133477 0.368974
-0.194149 0.068761 -0.36403
-0.0112345 0.101119 0.268387
-0.0109392 0.101119 -0.269887
-0.108963 0.101119 0.39069
0.0104454 0.101119 0.271332
0.194149 0.101119 0.36403
-0.194149 0.068761 -0.396388
0.0161791 0.101119 -0.36403
0.194149 -0.165836 0.35594
0.242686 0.165836 0.404477
0.121262 0.101119 0.388216
0.118916 0.133477 0.390016
0.110322 0.133477 0.391148
0.105245 0.101119 0.388216
-0.117632 0.101119 0.390653
-0.122268 0.133477 0.387065
-0.12011 0.101119 0.371194
-0.122209 0.133477 0.373277
-0.10424 0.101119 0.373352
-0.108876 0.133477 0.369763
-0.117543 0.133477 0.369727
-0.194149 0.101119 -0.36403
-0.0104814 0.101119 0.271246
-0.0112226 0.101119 0.26543
-0.00980782 0.101119 -0.272618
-0.0109392 0.133477 -0.269887
-0.111822 0.101119 0.391443
-0.106397 0.101119 0.389222
0.011222 0.101119 0.268479
0.00895603 0.101119 0.273886
0.113254 0.101119 0.368883
0.194149 0.165836 0.35594
0.194149 0.068761 -0.396388
0.194149 0.101119 -0.36403
0.0113256 0.101119 -0.266955
0.242686 -0.165836 0.35594
0.116185 0.101119 0.369269
0.242686 -0.165836 0.404477
0.123062 0.101119 0.385871
0.121262 0.133477 0.388216
0.113254 0.133477 0.368883
0.116185 0.133477 0.369269
0.110322 0.133477 0.369269
0.107591 0.133477 0.390016
0.103446 0.101119 0.385871
-0.114779 0.101119 0.39143
-0.117632 0.133477 0.390653
-0.120186 0.133477 0.389165
-0.102772 0.101119 0.375919
-0.10424 0.133477 0.373352
-0.106321 0.133477 0.371253
-0.108963 0.133477 0.39069
-0.111822 0.133477 0.391443
-0.12011 0.133477 0.371194
-0.114779 0.133477 0.39143
-0.110323 0.101119 -0.391148
0.0109397 0.101119 -0.269887
-0.113253 0.101119 -0.368884
-0.194149 0.165836 -0.35594
-0.194149 -0.165836 -0.35594
-0.00901325 0.101119 0.273812
-0.0112345 0.133477 0.268387
-0.0109392 0.101119 -0.264024
-0.0112226 0.133477 0.26543
-0.00800833 0.101119 -0.274964
-0.00980782 0.133477 -0.272618
-0.011325 0.133477 -0.266955
0.101928 0.101119 0.380209
-0.104297 0.101119 0.387141
-0.106397 0.133477 0.389222
0.011234 0.101119 0.265523
0.0104454 0.133477 0.271332
0.00895603 0.133477 0.273886
0.00685681 0.101119 0.275968
0.110322 0.101119 0.369269
0.194149 0.068761 -0.36403
-0.194149 0.101119 -0.396388
0.113254 0.101119 -0.368884
0.118916 0.101119 0.3704
0.242686 0.165836 0.35594
0.124193 0.101119 0.383139
0.118916 0.133477 0.3704
0.107591 0.133477 0.3704
0.105245 0.133477 0.388216
0.103446 0.133477 0.385871
0.102314 0.101119 0.383139
-0.102019 0.101119 0.378778
-0.102772 0.133477 0.375919
0.101928 0.101119 -0.380209
-0.107591 0.101119 -0.390018
0.00980782 0.101119 -0.272618
-0.110323 0.101119 -0.369269
-0.116185 0.101119 -0.369269
-0.194149 -0.165836 -0.404477
-0.00693201 0.101119 0.275911
-0.0104814 0.133477 0.271246
-0.0104449 0.101119 0.262577
-0.0104449 0.133477 0.262577
-0.00566278 0.101119 -0.276764
-0.00800833 0.133477 -0.274964
-0.0109392 0.133477 -0.264024
-0.00980782 0.133477 -0.261292
0.102314 0.101119 0.377277
-0.102809 0.101119 0.384586
-0.104297 0.133477 0.387141
0.011222 0.133477 0.268479
0.00429054 0.101119 0.277436
0.107591 0.101119 0.3704
0.194149 -0.165836 -0.35594
0.194149 0.101119 -0.396388
0.116185 0.101119 -0.369269
0.110322 0.101119 -0.369269
0.0113256 0.133477 -0.266955
0.0109397 0.101119 -0.264024
0.121262 0.101119 0.3722
0.124579 0.101119 0.380209
0.123062 0.133477 0.385871
0.121262 0.133477 0.3722
0.105245 0.133477 0.3722
0.102314 0.133477 0.383139
-0.102019 0.133477 0.378778
-0.102032 0.101119 0.381734
-0.102809 0.133477 0.384586
-0.113253 0.101119 -0.391534
0.102314 0.101119 -0.377278
-0.110323 0.133477 -0.391148
-0.105246 0.101119 -0.388217
0.00800778 0.101119 -0.274964
0.0109397 0.133477 -0.269887
-0.107591 0.101119 -0.370401
-0.110323 0.133477 -0.369269
-0.113253 0.133477 -0.368884
-0.118916 0.101119 -0.370401
-0.194149 0.165836 -0.404477
-0.124579 0.101119 -0.380209
-0.242686 -0.165836 -0.35594
-0.0043772 0.101119 0.2774
-0.00901325 0.133477 0.273812
-0.00980782 0.101119 -0.261292
-0.00293139 0.101119 -0.277894
-0.00800833 0.133477 -0.258947
0.103446 0.101119 0.374546
0.102314 0.133477 0.377277
0.011234 0.133477 0.265523
0.0104809 0.133477 0.262664
0.00901325 0.133477 0.260097
0.00685681 0.133477 0.275968
0.00143218 0.101119 0.278189
0.105245 0.101119 0.3722
0.194149 -0.165836 -0.404477
0.113254 0.101119 -0.391534
0.194149 0.165836 -0.404477
0.194149 0.165836 -0.35594
0.118916 0.101119 -0.370401
0.116185 0.133477 -0.369269
0.113254 0.133477 -0.368884
0.107591 0.101119 -0.370401
0.0109397 0.133477 -0.264024
0.0104809 0.101119 0.262664
0.123062 0.101119 0.374546
0.124193 0.101119 0.377277
0.124193 0.133477 0.383139
0.103446 0.133477 0.374546
0.101928 0.133477 0.380209
-0.102032 0.133477 0.381734
-0.113253 0.133477 -0.391534
0.103446 0.101119 -0.374546
0.101928 0.133477 -0.380209
-0.107591 0.133477 -0.390018
-0.103446 0.101119 -0.385871
0.00566278 0.101119 -0.276764
0.00980782 0.133477 -0.272618
-0.105246 0.101119 -0.372201
-0.107591 0.133477 -0.370401
-0.116185 0.133477 -0.369269
-0.121262 0.101119 -0.372201
-0.242686 0.165836 -0.404477
-0.124193 0.101119 -0.377278
-0.124193 0.101119 -0.383141
-0.242686 0.165836 -0.35594
-0.242686 -0.165836 -0.404477
-0.00152482 0.101119 0.278177
-0.0043772 0.133477 0.2774
-0.00693201 0.133477 0.275911
-0.00895657 0.101119 0.260023
-0.00895657 0.133477 0.260023
0 0.101119 -0.27828
-0.00566278 0.133477 -0.276764
-0.00566278 0.133477 -0.257147
-0.00800833 0.101119 -0.258947
0.00693147 0.133477 0.257998
0.00429054 0.133477 0.277436
0.242686 -0.165836 -0.404477
0.116185 0.101119 -0.391148
0.110322 0.101119 -0.391148
0.242686 0.165836 -0.35594
0.121262 0.101119 -0.372201
0.118916 0.133477 -0.370401
0.110322 0.133477 -0.369269
0.105245 0.101119 -0.372201
0.00980782 0.101119 -0.261292
0.00980782 0.133477 -0.261292
0.123062 0.133477 0.374546
0.124579 0.133477 0.380209
0.102314 0.101119 -0.383141
-0.116185 0.101119 -0.391148
-0.116185 0.133477 -0.391148
0.102314 0.133477 -0.377278
0.102314 0.133477 -0.383141
-0.105246 0.133477 -0.388217
-0.103446 0.133477 -0.385871
-0.102314 0.101119 -0.383141
0.00293085 0.101119 -0.277894
0.00566278 0.133477 -0.276764
0.00800778 0.133477 -0.274964
-0.103446 0.101119 -0.374546
-0.105246 0.133477 -0.372201
-0.118916 0.133477 -0.370401
-0.123062 0.101119 -0.374546
-0.124579 0.133477 -0.380209
-0.123062 0.101119 -0.385871
-0.124193 0.133477 -0.383141
-0.00152482 0.133477 0.278177
-0.00293139 0.133477 -0.277894
0.00901325 0.101119 0.260097
0.00693147 0.101119 0.257998
0.0043772 0.133477 0.25651
0.00143218 0.133477 0.278189
0.242686 -0.165836 -0.35594
0.113254 0.133477 -0.391534
0.107591 0.101119 -0.390018
0.110322 0.133477 -0.391148
0.123062 0.101119 -0.374546
0.121262 0.133477 -0.372201
0.116185 0.133477 -0.391148
0.107591 0.133477 -0.370401
0.124193 0.133477 0.377277
0.103446 0.101119 -0.385871
-0.118916 0.101119 -0.390018
0.103446 0.133477 -0.374546
-0.102314 0.133477 -0.383141
-0.101928 0.101119 -0.380209
0.00293085 0.133477 -0.277894
-0.102314 0.101119 -0.377278
-0.118916 0.133477 -0.390018
-0.121262 0.133477 -0.372201
-0.123062 0.133477 -0.374546
-0.124193 0.133477 -0.377278
-0.121262 0.101119 -0.388217
-0.123062 0.133477 -0.385871
-0.00685735 0.133477 0.257941
-0.00429054 0.133477 0.256473
-0.00685735 0.101119 0.257941
0 0.133477 -0.27828
-0.00293139 0.133477 -0.256016
-0.00566278 0.101119 -0.257147
0.00152482 0.133477 0.255732
0.242686 0.165836 -0.404477
0.118916 0.101119 -0.390018
0.105245 0.101119 -0.388217
0.107591 0.133477 -0.390018
0.124193 0.101119 -0.377278
0.118916 0.133477 -0.390018
0.105245 0.133477 -0.372201
0.00800778 0.133477 -0.258947
0.00800778 0.101119 -0.258947
0.103446 0.133477 -0.385871
-0.103446 0.133477 -0.374546
-0.102314 0.133477 -0.377278
-0.101928 0.133477 -0.380209
0.00566278 0.133477 -0.257147
-0.121262 0.133477 -0.388217
-0.00143163 0.133477 0.25572
0 0.133477 -0.25563
0.0043772 0.101119 0.25651
0.121262 0.101119 -0.388217
0.105245 0.133477 -0.388217
0.124579 0.101119 -0.380209
0.123062 0.133477 -0.374546
0.121262 0.133477 -0.388217
0.00293085 0.133477 -0.256016
-0.00429054 0.101119 0.256473
-0.00143163 0.101119 0.25572
-0.00293139 0.101119 -0.256016
0.00566278 0.101119 -0.257147
0.00152482 0.101119 0.255732
0.123062 0.101119 -0.385871
0.124193 0.101119 -0.383141
0.124193 0.133477 -0.377278
0.00293085 0.101119 -0.256016
0 0.101119 -0.25563
0.123062 0.133477 -0.385871
0.124579 0.133477 -0.380209
0.124193 0.133477 -0.383141
3 0 1 2
3 1 0 3
3 2 1 0
3 3 0 1
3 4 2 1
3 1 2 4
3 5 0 2
3 2 0 5
3 0 6 3
3 3 6 0
3 6 1 3
3 3 1 6
3 4 7 2
3 2 7 4
3 1 8 4
3 4 8 1
3 0 5 9
3 9 5 0
3 7 5 2
3 2 5 7
3 6 0 9
3 9 0 6
3 1 6 10
3 10 6 1
3 11 7 4
3 4 7 11
3 8 1 10
3 10 1 8
3 8 11 4
3 4 11 8
3 5 6 9
3 9 6 5
3 5 7 12
3 12 7 5
3 6 5 10
3 10 5 6
3 13 7 11
3 11 7 13
3 12 8 10
3 10 8 12
3 11 8 14
3 14 8 11
3 7 15 12
3 12 15 7
3 12 10 5
3 5 10 12
3 16 7 13
3 13 7 16
3 11 17 13
3 13 17 11
3 15 8 12
3 12 8 15
3 8 17 14
3 14 17 8
3 17 11 14
3 14 11 17
3 15 7 18
3 18 7 15
3 7 16 18
3 18 16 7
3 19 16 13
3 13 16 19
3 17 19 13
3 13 19 17
3 20 8 15
3 15 8 20
3 17 8 20
3 20 8 17
3 16 15 18
3 18 15 16
3 16 19 21
3 21 19 16
3 19 17 22
3 22 17 19
3 15 16 20
3 20 16 15
3 23 17 20
3 20 17 23
3 19 23 21
3 21 23 19
3 23 16 21
3 21 16 23
3 17 23 22
3 22 23 17
3 23 19 22
3 22 19 23
3 16 23 20
3 20 23 16
3 24 25 26
3 25 24 27
3 26 25 24
3 27 24 25
3 25 28 26
3 26 28 25
3 28 24 26
3 26 24 28
3 24 29 27
3 27 29 24
3 29 25 27
3 27 25 29
3 28 25 30
3 30 25 28
3 24 28 31
3 31 28 24
3 29 24 31
3 31 24 29
3 25 29 30
3 30 29 25
3 30 32 28
3 28 32 30
3 28 33 31
3 31 33 28
3 31 34 29
3 29 34 31
3 32 30 29
3 29 30 32
3 33 28 32
3 32 28 33
3 31 33 34
3 34 33 31
3 35 29 34
3 34 29 35
3 32 29 35
3 35 29 32
3 32 36 33
3 33 36 32
3 36 34 33
3 33 34 36
3 34 37 35
3 35 37 34
3 35 38 32
3 32 38 35
3 36 32 39
3 39 32 36
3 40 34 36
3 36 34 40
3 37 34 41
3 41 34 37
3 37 42 35
3 35 42 37
3 35 43 38
3 38 43 35
3 44 32 38
3 38 32 44
3 45 39 32
3 32 39 45
3 46 36 39
3 39 36 46
3 39 40 36
3 36 40 39
3 47 34 40
3 40 34 47
3 36 48 40
3 40 48 36
3 34 47 41
3 41 47 34
3 41 49 37
3 37 49 41
3 42 37 50
3 50 37 42
3 35 42 51
3 51 42 35
3 35 52 43
3 43 52 35
3 54 32 44
3 44 32 54
3 56 39 45
3 45 39 56
3 45 32 57
3 57 32 45
3 36 46 58
3 58 46 36
3 39 59 46
3 46 59 39
3 40 39 60
3 60 39 40
3 60 47 40
3 40 47 60
3 48 36 58
3 58 36 48
3 48 60 40
3 40 60 48
3 47 49 41
3 41 49 47
3 61 37 49
3 49 37 61
3 50 37 62
3 62 37 50
3 35 51 65
3 65 51 35
3 35 66 52
3 52 66 35
3 68 32 54
3 54 32 68
3 70 39 56
3 56 39 70
3 57 32 72
3 72 32 57
3 46 48 58
3 58 48 46
3 46 74 58
3 58 74 46
3 39 75 59
3 59 75 39
3 76 46 59
3 59 46 76
3 77 60 39
3 39 60 77
3 60 78 39
3 39 78 60
3 47 60 79
3 79 60 47
3 80 48 58
3 58 48 80
3 60 48 81
3 81 48 60
3 47 82 49
3 49 82 47
3 61 79 37
3 37 79 61
3 49 83 61
3 61 83 49
3 62 37 84
3 84 37 62
3 35 65 87
3 87 65 35
3 35 88 66
3 66 88 35
3 67 55 53
3 53 55 67
3 90 32 68
3 68 32 90
3 67 69 55
3 55 69 67
3 92 39 70
3 70 39 92
3 72 32 90
3 90 32 72
3 48 46 81
3 81 46 48
3 74 46 95
3 95 46 74
3 80 58 74
3 74 58 80
3 39 96 75
3 75 96 39
3 97 59 75
3 75 59 97
3 98 46 76
3 76 46 98
3 100 60 77
3 77 60 100
3 77 39 101
3 101 39 77
3 78 60 102
3 102 60 78
3 39 78 103
3 103 78 39
3 104 79 60
3 60 79 104
3 79 105 47
3 47 105 79
3 106 48 80
3 80 48 106
3 48 107 81
3 81 107 48
3 81 108 60
3 60 108 81
3 82 47 105
3 105 47 82
3 109 49 82
3 82 49 109
3 105 79 61
3 61 79 105
3 79 110 37
3 37 110 79
3 83 49 111
3 111 49 83
3 83 105 61
3 61 105 83
3 84 37 112
3 112 37 84
3 63 114 64
3 64 114 63
3 85 115 63
3 63 115 85
3 64 116 86
3 86 116 64
3 35 87 118
3 118 87 35
3 35 119 88
3 88 119 35
3 89 69 67
3 67 69 89
3 89 91 69
3 69 91 89
3 122 39 92
3 92 39 122
3 125 93 71
3 71 93 125
3 126 71 73
3 73 71 126
3 128 73 94
3 94 73 128
3 81 129 46
3 46 129 81
3 130 81 46
3 46 81 130
3 46 131 95
3 95 131 46
3 95 132 74
3 74 132 95
3 133 80 74
3 74 80 133
3 39 134 96
3 96 134 39
3 97 136 59
3 59 136 97
3 138 46 98
3 98 46 138
3 100 141 60
3 60 141 100
3 101 39 142
3 142 39 101
3 102 60 144
3 144 60 102
3 39 103 147
3 147 103 39
3 110 79 104
3 104 79 110
3 104 60 148
3 148 60 104
3 48 106 149
3 149 106 48
3 150 106 80
3 80 106 150
3 107 48 149
3 149 48 107
3 107 151 81
3 81 151 107
3 108 81 130
3 130 81 108
3 144 60 108
3 108 60 144
3 105 109 82
3 82 109 105
3 49 109 111
3 111 109 49
3 37 110 152
3 152 110 37
3 109 83 111
3 111 83 109
3 105 83 153
3 153 83 105
3 112 37 154
3 154 37 112
3 113 155 85
3 85 155 113
3 63 115 114
3 114 115 63
3 64 114 116
3 116 114 64
3 85 155 115
3 115 155 85
3 86 116 156
3 156 116 86
3 86 156 117
3 117 156 86
3 35 118 159
3 159 118 35
3 35 100 119
3 119 100 35
3 121 91 89
3 89 91 121
3 39 122 160
3 160 122 39
3 143 124 93
3 93 124 143
3 143 93 125
3 125 93 143
3 125 71 126
3 126 71 125
3 126 73 128
3 128 73 126
3 120 94 127
3 127 94 120
3 128 94 120
3 120 94 128
3 162 129 81
3 81 129 162
3 46 129 163
3 163 129 46
3 130 46 164
3 164 46 130
3 131 46 165
3 165 46 131
3 95 131 166
3 166 131 95
3 150 132 95
3 95 132 150
3 133 74 132
3 132 74 133
3 167 80 133
3 133 80 167
3 39 168 134
3 134 168 39
3 170 136 97
3 97 136 170
3 172 46 138
3 138 46 172
3 174 99 140
3 140 99 174
3 175 139 99
3 99 139 175
3 35 141 100
3 100 141 35
3 176 60 141
3 141 60 176
3 142 39 177
3 177 39 142
3 39 147 180
3 180 147 39
3 148 60 181
3 181 60 148
3 106 182 149
3 149 182 106
3 106 150 183
3 183 150 106
3 80 167 150
3 150 167 80
3 149 182 107
3 107 182 149
3 151 107 184
3 184 107 151
3 81 151 185
3 185 151 81
3 187 144 108
3 108 144 187
3 109 105 153
3 153 105 109
3 37 152 188
3 188 152 37
3 83 109 153
3 153 109 83
3 154 37 189
3 189 37 154
3 113 191 155
3 155 191 113
3 117 156 192
3 192 156 117
3 117 192 157
3 157 192 117
3 35 159 141
3 141 159 35
3 120 127 121
3 121 127 120
3 121 127 91
3 91 127 121
3 195 39 160
3 160 39 195
3 178 123 124
3 124 123 178
3 196 161 123
3 123 161 196
3 178 124 143
3 143 124 178
3 162 197 129
3 129 197 162
3 81 198 162
3 162 198 81
3 46 163 200
3 200 163 46
3 164 46 201
3 201 46 164
3 165 46 203
3 203 46 165
3 95 166 206
3 206 166 95
3 150 207 132
3 132 207 150
3 95 208 150
3 150 208 95
3 132 209 133
3 133 209 132
3 209 167 133
3 133 167 209
3 39 210 168
3 168 210 39
3 169 137 135
3 135 137 169
3 170 212 136
3 136 212 170
3 169 171 137
3 137 171 169
3 213 46 172
3 172 46 213
3 214 173 139
3 139 173 214
3 175 99 174
3 174 99 175
3 214 139 175
3 175 139 214
3 215 60 176
3 176 60 215
3 177 39 195
3 195 39 177
3 179 218 145
3 145 218 179
3 145 219 146
3 146 219 145
3 39 180 221
3 221 180 39
3 181 60 222
3 222 60 181
3 106 223 182
3 182 223 106
3 224 183 150
3 150 183 224
3 183 225 106
3 106 225 183
3 207 150 167
3 167 150 207
3 226 107 182
3 182 107 226
3 184 107 227
3 227 107 184
3 81 185 230
3 230 185 81
3 144 187 232
3 232 187 144
3 37 188 233
3 233 188 37
3 37 234 189
3 189 234 37
3 190 191 113
3 113 191 190
3 157 192 236
3 236 192 157
3 157 236 158
3 158 236 157
3 158 216 193
3 193 216 158
3 161 238 194
3 194 238 161
3 196 123 178
3 178 123 196
3 238 161 196
3 196 161 238
3 162 150 197
3 197 150 162
3 81 240 198
3 198 240 81
3 46 200 243
3 243 200 46
3 201 46 244
3 244 46 201
3 203 46 246
3 246 46 203
3 95 206 249
3 249 206 95
3 250 132 207
3 207 132 250
3 95 251 208
3 208 251 95
3 252 150 208
3 208 150 252
3 209 132 253
3 253 132 209
3 167 209 254
3 254 209 167
3 39 255 210
3 210 255 39
3 211 171 169
3 169 171 211
3 258 212 170
3 170 212 258
3 260 46 213
3 213 46 260
3 262 173 214
3 214 173 262
3 222 60 215
3 215 60 222
3 218 179 217
3 217 179 218
3 145 218 219
3 219 218 145
3 146 219 264
3 264 219 146
3 146 264 220
3 220 264 146
3 39 221 255
3 255 221 39
3 223 106 225
3 225 106 223
3 266 182 223
3 223 182 266
3 267 183 224
3 224 183 267
3 224 150 268
3 268 150 224
3 225 183 226
3 226 183 225
3 167 250 207
3 207 250 167
3 226 183 107
3 107 183 226
3 182 269 226
3 226 269 182
3 227 107 270
3 270 107 227
3 81 230 273
3 273 230 81
3 202 231 186
3 186 231 202
3 232 187 274
3 274 187 232
3 37 233 234
3 234 233 37
3 235 276 190
3 190 276 235
3 190 276 191
3 191 276 190
3 158 236 216
3 216 236 158
3 193 216 237
3 237 216 193
3 278 150 162
3 162 150 278
3 197 150 279
3 279 150 197
3 81 273 240
3 240 273 81
3 247 242 199
3 199 242 247
3 204 199 239
3 239 199 204
3 46 243 285
3 285 243 46
3 244 46 286
3 286 46 244
3 231 202 245
3 245 202 231
3 246 46 289
3 289 46 246
3 204 239 205
3 205 239 204
3 247 199 204
3 204 199 247
3 205 280 248
3 248 280 205
3 95 249 292
3 292 249 95
3 132 250 253
3 253 250 132
3 95 292 251
3 251 292 95
3 294 150 252
3 252 150 294
3 250 209 253
3 253 209 250
3 209 250 254
3 254 250 209
3 250 167 254
3 254 167 250
3 257 259 211
3 211 259 257
3 211 259 171
3 171 259 211
3 258 263 212
3 212 263 258
3 286 46 260
3 260 46 286
3 262 261 173
3 173 261 262
3 220 264 300
3 300 264 220
3 220 300 265
3 265 300 220
3 225 266 223
3 223 266 225
3 182 266 302
3 302 266 182
3 183 267 107
3 107 267 183
3 268 150 304
3 304 150 268
3 269 225 226
3 226 225 269
3 269 182 302
3 302 182 269
3 270 107 306
3 306 107 270
3 228 303 229
3 229 303 228
3 271 308 228
3 228 308 271
3 229 305 272
3 272 305 229
3 232 274 298
3 298 274 232
3 231 245 275
3 275 245 231
3 310 235 277
3 277 235 310
3 235 310 276
3 276 310 235
3 311 150 278
3 278 150 311
3 279 150 312
3 312 150 279
3 205 239 280
3 280 239 205
3 281 282 241
3 241 282 281
3 290 242 247
3 247 242 290
3 290 283 242
3 242 283 290
3 46 285 315
3 315 285 46
3 275 245 288
3 288 245 275
3 289 46 317
3 317 46 289
3 248 280 318
3 318 280 248
3 248 318 291
3 291 318 248
3 322 150 294
3 294 150 322
3 256 324 257
3 257 324 256
3 296 325 256
3 256 325 296
3 257 324 259
3 259 324 257
3 326 263 258
3 258 263 326
3 328 297 261
3 261 297 328
3 328 261 262
3 262 261 328
3 265 300 330
3 330 300 265
3 265 330 301
3 301 330 265
3 266 225 331
3 331 225 266
3 266 269 302
3 302 269 266
3 107 267 332
3 332 267 107
3 304 150 333
3 333 150 304
3 225 269 331
3 331 269 225
3 306 107 335
3 335 107 306
3 307 336 271
3 271 336 307
3 228 308 303
3 303 308 228
3 229 303 305
3 305 303 229
3 271 336 308
3 308 336 271
3 272 305 334
3 334 305 272
3 272 334 309
3 309 334 272
3 298 274 339
3 339 274 298
3 333 150 311
3 311 150 333
3 312 150 322
3 322 150 312
3 313 282 281
3 281 282 313
3 341 283 290
3 290 283 341
3 341 284 283
3 283 284 341
3 342 314 284
3 284 314 342
3 317 46 315
3 315 46 317
3 338 288 287
3 287 288 338
3 344 287 316
3 316 287 344
3 275 288 338
3 338 288 275
3 291 318 345
3 345 318 291
3 291 345 319
3 319 345 291
3 321 295 293
3 293 295 321
3 320 323 295
3 295 323 320
3 301 346 296
3 296 346 301
3 256 325 324
3 324 325 256
3 296 346 325
3 325 346 296
3 326 329 263
3 263 329 326
3 347 327 297
3 297 327 347
3 347 297 328
3 328 297 347
3 298 339 299
3 299 339 298
3 301 330 346
3 346 330 301
3 269 266 331
3 331 266 269
3 107 332 349
3 349 332 107
3 335 107 351
3 351 107 335
3 307 353 336
3 336 353 307
3 309 334 350
3 350 334 309
3 309 350 337
3 337 350 309
3 313 340 282
3 282 340 313
3 337 340 313
3 313 340 337
3 342 284 341
3 341 284 342
3 314 342 343
3 343 342 314
3 354 316 327
3 327 316 354
3 338 287 344
3 344 287 338
3 344 316 354
3 354 316 344
3 319 345 323
3 323 345 319
3 319 323 320
3 320 323 319
3 320 295 321
3 321 295 320
3 355 329 326
3 326 329 355
3 354 327 347
3 347 327 354
3 299 339 358
3 358 339 299
3 299 358 348
3 348 358 299
3 107 349 360
3 360 349 107
3 107 361 351
3 351 361 107
3 352 353 307
3 307 353 352
3 337 350 340
3 340 350 337
3 355 357 329
3 329 357 355
3 348 358 363
3 363 358 348
3 348 363 359
3 359 363 348
3 107 360 361
3 361 360 107
3 362 365 352
3 352 365 362
3 352 365 353
3 353 365 352
3 356 357 355
3 355 357 356
3 359 364 356
3 356 364 359
3 356 364 357
3 357 364 356
3 359 363 364
3 364 363 359
3 367 362 366
3 366 362 367
3 362 367 365
3 365 367 362
3 43 53 38
3 38 53 43
3 38 55 44
3 44 55 38
3 63 42 50
3 50 42 63
3 64 51 42
3 42 51 64
3 52 67 43
3 43 67 52
3 53 43 67
3 67 43 53
3 55 38 53
3 53 38 55
3 44 69 54
3 54 69 44
3 69 44 55
3 55 44 69
3 71 56 45
3 45 56 71
3 73 45 57
3 57 45 73
3 85 50 62
3 62 50 85
3 42 63 64
3 64 63 42
3 50 85 63
3 63 85 50
3 51 64 86
3 86 64 51
3 86 65 51
3 51 65 86
3 66 89 52
3 52 89 66
3 67 52 89
3 89 52 67
3 54 91 68
3 68 91 54
3 91 54 69
3 69 54 91
3 93 70 56
3 56 70 93
3 56 71 93
3 93 71 56
3 45 73 71
3 71 73 45
3 94 57 72
3 72 57 94
3 57 94 73
3 73 94 57
3 59 99 76
3 76 99 59
3 113 62 84
3 84 62 113
3 62 113 85
3 85 113 62
3 65 86 117
3 117 86 65
3 117 87 65
3 65 87 117
3 120 66 88
3 88 66 120
3 89 66 121
3 121 66 89
3 91 90 68
3 68 90 91
3 70 123 92
3 92 123 70
3 70 93 124
3 124 93 70
3 127 72 90
3 90 72 127
3 72 127 94
3 94 127 72
3 96 135 75
3 75 135 96
3 75 137 97
3 97 137 75
3 76 139 98
3 98 139 76
3 99 59 140
3 140 59 99
3 139 76 99
3 99 76 139
3 125 100 77
3 77 100 125
3 143 77 101
3 101 77 143
3 102 145 78
3 78 145 102
3 78 146 103
3 103 146 78
3 112 113 84
3 84 113 112
3 87 117 157
3 157 117 87
3 87 158 118
3 118 158 87
3 128 88 119
3 119 88 128
3 66 120 121
3 121 120 66
3 88 128 120
3 120 128 88
3 90 91 127
3 127 91 90
3 92 161 122
3 122 161 92
3 123 70 124
3 124 70 123
3 161 92 123
3 123 92 161
3 134 169 96
3 96 169 134
3 135 96 169
3 169 96 135
3 137 75 135
3 135 75 137
3 136 140 59
3 59 140 136
3 171 97 137
3 137 97 171
3 98 173 138
3 138 173 98
3 173 98 139
3 139 98 173
3 100 125 126
3 126 125 100
3 77 143 125
3 125 143 77
3 178 101 142
3 142 101 178
3 101 178 143
3 143 178 101
3 144 179 102
3 102 179 144
3 145 102 179
3 179 102 145
3 146 78 145
3 145 78 146
3 146 147 103
3 103 147 146
3 114 110 104
3 104 110 114
3 116 104 148
3 148 104 116
3 130 186 108
3 108 186 130
3 115 152 110
3 110 152 115
3 154 190 112
3 112 190 154
3 113 112 190
3 190 112 113
3 110 114 115
3 115 114 110
3 104 116 114
3 114 116 104
3 152 115 155
3 155 115 152
3 148 156 116
3 116 156 148
3 158 87 157
3 157 87 158
3 193 118 158
3 158 118 193
3 118 193 159
3 159 193 118
3 126 119 100
3 100 119 126
3 119 126 128
3 128 126 119
3 122 194 160
3 160 194 122
3 194 122 161
3 161 122 194
3 199 163 129
3 129 163 199
3 164 202 130
3 130 202 164
3 204 131 165
3 165 131 204
3 205 166 131
3 131 166 205
3 168 211 134
3 134 211 168
3 169 134 211
3 211 134 169
3 97 171 170
3 170 171 97
3 140 136 174
3 174 136 140
3 173 172 138
3 138 172 173
3 141 216 176
3 176 216 141
3 177 178 142
3 142 178 177
3 179 144 217
3 217 144 179
3 147 146 220
3 220 146 147
3 220 180 147
3 147 180 220
3 156 148 181
3 181 148 156
3 228 151 184
3 184 151 228
3 229 185 151
3 151 185 229
3 186 130 202
3 202 130 186
3 231 108 186
3 186 108 231
3 108 231 187
3 187 231 108
3 155 188 152
3 152 188 155
3 189 235 154
3 154 235 189
3 190 154 235
3 235 154 190
3 188 155 191
3 191 155 188
3 181 192 156
3 156 192 181
3 237 159 193
3 193 159 237
3 159 237 141
3 141 237 159
3 238 160 194
3 194 160 238
3 160 238 195
3 195 238 160
3 239 129 197
3 197 129 239
3 198 241 162
3 162 241 198
3 163 199 242
3 242 199 163
3 129 239 199
3 199 239 129
3 242 200 163
3 163 200 242
3 201 245 164
3 164 245 201
3 202 164 245
3 245 164 202
3 247 165 203
3 203 165 247
3 131 204 205
3 205 204 131
3 165 247 204
3 204 247 165
3 166 205 248
3 248 205 166
3 248 206 166
3 166 206 248
3 256 168 210
3 210 168 256
3 211 168 257
3 257 168 211
3 212 174 136
3 136 174 212
3 259 170 171
3 171 170 259
3 261 213 172
3 172 213 261
3 172 173 261
3 261 173 172
3 174 212 175
3 175 212 174
3 175 263 214
3 214 263 175
3 176 236 215
3 215 236 176
3 216 141 237
3 237 141 216
3 236 176 216
3 216 176 236
3 195 196 177
3 177 196 195
3 178 177 196
3 196 177 178
3 232 217 144
3 144 217 232
3 180 220 265
3 265 220 180
3 265 221 180
3 180 221 265
3 192 181 222
3 222 181 192
3 271 184 227
3 227 184 271
3 151 228 229
3 229 228 151
3 184 271 228
3 228 271 184
3 185 229 272
3 272 229 185
3 272 230 185
3 185 230 272
3 275 187 231
3 231 187 275
3 188 276 233
3 233 276 188
3 234 277 189
3 189 277 234
3 235 189 277
3 277 189 235
3 276 188 191
3 191 188 276
3 192 215 236
3 236 215 192
3 196 195 238
3 238 195 196
3 197 280 239
3 239 280 197
3 240 281 198
3 198 281 240
3 241 198 281
3 281 198 241
3 282 162 241
3 241 162 282
3 200 242 283
3 283 242 200
3 200 284 243
3 243 284 200
3 287 201 244
3 244 201 287
3 245 201 288
3 288 201 245
3 290 203 246
3 246 203 290
3 203 290 247
3 247 290 203
3 206 248 291
3 291 248 206
3 291 249 206
3 206 249 291
3 251 293 208
3 208 293 251
3 208 295 252
3 252 295 208
3 296 210 255
3 255 210 296
3 168 256 257
3 257 256 168
3 210 296 256
3 256 296 210
3 170 259 258
3 258 259 170
3 297 260 213
3 213 260 297
3 213 261 297
3 297 261 213
3 263 262 214
3 214 262 263
3 263 175 212
3 212 175 263
3 215 192 222
3 222 192 215
3 217 232 218
3 218 232 217
3 218 298 219
3 219 298 218
3 219 299 264
3 264 299 219
3 221 265 301
3 301 265 221
3 301 255 221
3 221 255 301
3 303 267 224
3 224 267 303
3 305 224 268
3 268 224 305
3 307 227 270
3 270 227 307
3 227 307 271
3 271 307 227
3 230 272 309
3 309 272 230
3 309 273 230
3 230 273 309
3 187 275 274
3 274 275 187
3 310 233 276
3 276 233 310
3 233 310 234
3 234 310 233
3 277 234 310
3 310 234 277
3 162 282 278
3 278 282 162
3 280 197 279
3 279 197 280
3 273 313 240
3 240 313 273
3 281 240 313
3 313 240 281
3 284 200 283
3 283 200 284
3 314 243 284
3 284 243 314
3 243 314 285
3 285 314 243
3 316 244 286
3 286 244 316
3 201 287 288
3 288 287 201
3 244 316 287
3 287 316 244
3 289 290 246
3 246 290 289
3 249 291 319
3 319 291 249
3 249 320 292
3 292 320 249
3 292 321 251
3 251 321 292
3 293 251 321
3 321 251 293
3 295 208 293
3 293 208 295
3 252 323 294
3 294 323 252
3 323 252 295
3 295 252 323
3 255 301 296
3 296 301 255
3 259 326 258
3 258 326 259
3 327 286 260
3 260 286 327
3 260 297 327
3 327 297 260
3 262 263 329
3 329 263 262
3 298 218 232
3 232 218 298
3 299 219 298
3 298 219 299
3 299 300 264
3 264 300 299
3 267 303 308
3 308 303 267
3 224 305 303
3 303 305 224
3 334 268 304
3 304 268 334
3 268 334 305
3 305 334 268
3 306 307 270
3 270 307 306
3 273 309 337
3 337 309 273
3 338 274 275
3 275 274 338
3 278 340 311
3 311 340 278
3 340 278 282
3 282 278 340
3 318 279 312
3 312 279 318
3 279 318 280
3 280 318 279
3 313 273 337
3 337 273 313
3 343 285 314
3 314 285 343
3 285 343 315
3 315 343 285
3 286 327 316
3 316 327 286
3 317 341 289
3 289 341 317
3 290 289 341
3 341 289 290
3 320 249 319
3 319 249 320
3 321 292 320
3 320 292 321
3 294 345 322
3 322 345 294
3 345 294 323
3 323 294 345
3 326 259 324
3 324 259 326
3 329 328 262
3 262 328 329
3 300 299 348
3 348 299 300
3 348 330 300
3 300 330 348
3 308 332 267
3 267 332 308
3 350 304 333
3 333 304 350
3 304 350 334
3 334 350 304
3 335 352 306
3 306 352 335
3 307 306 352
3 352 306 307
3 332 308 336
3 336 308 332
3 274 338 339
3 339 338 274
3 311 350 333
3 333 350 311
3 350 311 340
3 340 311 350
3 345 312 322
3 322 312 345
3 312 345 318
3 318 345 312
3 342 315 343
3 343 315 342
3 315 342 317
3 317 342 315
3 341 317 342
3 342 317 341
3 355 324 325
3 325 324 355
3 356 325 346
3 346 325 356
3 324 355 326
3 326 355 324
3 357 347 328
3 328 347 357
3 328 329 357
3 357 329 328
3 330 348 359
3 359 348 330
3 359 346 330
3 330 346 359
3 336 349 332
3 332 349 336
3 351 362 335
3 335 362 351
3 352 335 362
3 362 335 352
3 349 336 353
3 353 336 349
3 338 358 339
3 339 358 338
3 358 338 344
3 344 338 358
3 363 344 354
3 354 344 363
3 325 356 355
3 355 356 325
3 346 359 356
3 356 359 346
3 364 354 347
3 347 354 364
3 347 357 364
3 364 357 347
3 349 365 360
3 360 365 349
3 361 366 351
3 351 366 361
3 362 351 366
3 366 351 362
3 365 349 353
3 353 349 365
3 344 363 358
3 358 363 344
3 354 364 363
3 363 364 354
3 367 360 365
3 365 360 367
3 360 367 361
3 361 367 360
3 366 361 367
3 367 361 366
