ply
format ascii 1.0
comment Generated by PyMesh
element vertex 76
property double x
property double y
property double z
element face 368
property list uchar int vertex_indices
end_header
0.220951 0.26291 -0.352162
0.203955 0.26291 -0.342643
-0.220951 0.26291 -0.352162
0.220951 0.26291 0.352162
-0.203954 0.26291 -0.342643
0.220951 0.277782 -0.352162
0.203955 0.26291 0.342644
-0.220951 0.26291 0.352162
-0.169962 0.215108 -0.342643
-0.220951 0.277782 -0.352162
0.220951 0.277782 0.352162
-0.203954 0.26291 0.342644
0.203955 0.232105 0.323608
-0.220951 0.277782 0.352162
-0.203954 -0.277782 -0.342643
0.169963 0.215108 -0.342643
-0.169962 0.215108 0.342644
0.203955 -0.277782 0.342644
0.203955 0.232105 -0.323608
-0.203954 0.232105 -0.323608
-0.169962 -0.277782 -0.342643
0.169963 -0.199549 -0.342643
0.169963 0.215108 -0.323608
-0.169962 -0.277782 0.342644
0.169963 0.215108 0.342644
0.203955 -0.277782 0.323608
0.203955 -0.277782 -0.323608
0.169963 0.232105 -0.323608
-0.203954 0.232105 0.323608
-0.169962 -0.199549 -0.342643
-0.169962 -0.277782 -0.323608
-0.203954 -0.277782 -0.323608
0.169963 -0.277782 -0.342643
-0.169962 0.215108 -0.323608
-0.203954 -0.277782 0.342644
-0.169962 -0.212296 0.342644
-0.169962 0.215108 0.323608
0.169963 -0.277782 0.323608
0.169963 -0.212296 0.342644
0.203955 -0.277782 -0.342643
0.169963 0.232105 0.323608
-0.203954 -0.277782 0.323608
-0.169962 0.232105 0.323608
-0.169962 -0.199549 -0.323608
0.169963 -0.277782 -0.323608
0.169963 -0.199549 -0.323608
0.0169963 0.215108 -0.323608
-0.169962 -0.212296 0.323608
0.169963 -0.277782 0.342644
-0.0169963 0.215108 0.323608
0.169963 -0.212296 0.323608
0.169963 0.215108 0.323608
0.0169963 0.232105 -0.323608
-0.169962 0.232105 -0.323608
-0.0169963 -0.24204 -0.323608
-0.0169963 0.215108 -0.323608
-0.169962 -0.277782 0.323608
0.0169963 0.215108 0.323608
-0.0169963 0.232105 0.323608
0.0169963 -0.254787 0.323608
-0.0169963 0.232105 -0.323608
0.0169963 -0.24204 -0.323608
0.0169963 -0.225043 -0.323608
-0.0169963 -0.225043 -0.323608
0.0169963 0.00038782 -0.00444991
-0.0169963 -0.00799324 -0.0163153
-0.0169963 -0.23779 0.323608
0.0169963 0.232105 0.323608
-0.0169963 -0.00822713 0.00741651
-0.0169963 0.00038782 -0.00444991
-0.0169963 -0.254787 0.323608
0.0169963 -0.23779 0.323608
-0.0169963 -0.0166087 -0.00444991
0.0169963 -0.00799324 -0.0163153
0.0169963 -0.00822713 0.00741651
0.0169963 -0.0166087 -0.00444991
3 0 1 2
3 1 0 3
3 4 2 1
3 1 3 6
3 2 4 7
3 6 3 11
3 7 4 11
3 7 11 3
3 2 1 0
3 3 0 1
3 1 2 4
3 0 5 2
3 0 3 5
3 6 3 1
3 7 4 2
3 1 4 8
3 9 2 5
3 10 5 3
3 11 3 6
3 1 12 6
3 11 4 7
3 7 2 13
3 14 8 4
3 15 1 8
3 9 13 2
3 10 3 13
3 3 11 7
3 6 16 11
3 6 12 17
3 12 1 18
3 11 19 4
3 7 13 3
3 14 20 8
3 4 19 14
3 21 1 15
3 15 8 22
3 16 23 11
3 24 16 6
3 25 17 12
3 17 24 6
3 18 1 26
3 18 27 12
3 19 11 28
3 29 8 20
3 20 14 30
3 31 14 19
3 32 1 21
3 15 22 21
3 33 22 8
3 34 11 23
3 35 23 16
3 16 24 36
3 25 37 17
3 25 12 37
3 24 17 38
3 39 26 1
3 18 26 27
3 40 12 27
3 28 11 41
3 28 42 19
3 29 43 8
3 29 30 20
3 20 30 29
3 29 20 21
3 31 30 14
3 30 44 20
3 31 19 30
3 39 1 32
3 32 45 21
3 21 45 32
3 32 21 20
3 45 21 22
3 46 22 33
3 33 8 43
3 34 41 11
3 34 23 41
3 23 47 35
3 35 47 23
3 23 35 48
3 16 36 35
3 36 24 49
3 48 17 37
3 37 12 50
3 48 38 17
3 38 50 24
3 39 32 26
3 27 26 22
3 40 51 12
3 27 52 40
3 28 41 42
3 53 19 42
3 30 29 43
3 43 29 30
3 29 21 43
3 32 20 44
3 44 30 54
3 53 30 19
3 45 32 44
3 44 32 45
3 45 43 21
3 22 26 45
3 46 52 22
3 55 46 33
3 33 43 53
3 56 41 23
3 47 23 56
3 56 23 47
3 47 50 35
3 47 35 36
3 38 48 35
3 23 48 56
3 49 24 57
3 49 58 36
3 37 56 48
3 38 37 48
3 48 37 38
3 50 12 51
3 37 38 50
3 50 38 37
3 50 59 37
3 51 24 50
3 38 35 50
3 44 26 32
3 27 22 52
3 51 40 57
3 60 40 52
3 56 42 41
3 42 40 53
3 43 54 30
3 43 30 53
3 61 44 54
3 44 62 45
3 44 45 26
3 45 63 43
3 52 46 60
3 46 64 52
3 55 60 46
3 65 46 55
3 33 53 55
3 56 66 47
3 47 36 56
3 50 47 66
3 51 57 24
3 57 67 49
3 57 68 49
3 42 36 58
3 58 49 67
3 49 69 58
3 37 70 56
3 59 70 37
3 59 50 71
3 67 57 40
3 53 40 60
3 64 60 52
3 36 42 56
3 67 40 42
3 54 43 63
3 62 44 61
3 54 63 61
3 72 61 54
3 62 63 45
3 64 46 73
3 60 55 53
3 69 55 60
3 46 65 73
3 55 69 65
3 66 56 70
3 71 50 66
3 64 57 67
3 68 57 74
3 68 65 49
3 58 67 42
3 69 67 58
3 49 65 69
3 59 71 70
3 59 72 70
3 71 75 59
3 60 64 69
3 63 72 54
3 62 61 63
3 75 62 61
3 61 72 75
3 73 63 62
3 73 57 64
3 63 73 65
3 66 70 71
3 72 66 70
3 68 71 66
3 67 69 64
3 73 74 57
3 71 68 74
3 72 65 68
3 72 59 75
3 75 71 74
3 72 63 65
3 62 75 73
3 66 72 68
3 73 75 74
3 2 5 0
3 5 3 0
3 5 2 9
3 3 5 10
3 13 2 7
3 2 13 9
3 13 5 9
3 5 13 10
3 13 3 10
3 3 13 7
3 8 4 1
3 6 12 1
3 4 8 14
3 8 1 15
3 11 16 6
3 17 12 6
3 18 1 12
3 4 19 11
3 8 20 14
3 14 19 4
3 15 1 21
3 22 8 15
3 11 23 16
3 6 16 24
3 12 17 25
3 6 24 17
3 26 1 18
3 12 27 18
3 28 11 19
3 20 8 29
3 30 14 20
3 19 14 31
3 21 1 32
3 21 22 15
3 8 22 33
3 23 11 34
3 16 23 35
3 36 24 16
3 17 37 25
3 37 12 25
3 38 17 24
3 1 26 39
3 27 26 18
3 27 12 40
3 41 11 28
3 19 42 28
3 8 43 29
3 21 20 29
3 14 30 31
3 20 44 30
3 30 19 31
3 32 1 39
3 20 21 32
3 22 21 45
3 33 22 46
3 43 8 33
3 11 41 34
3 41 23 34
3 48 35 23
3 35 36 16
3 49 24 36
3 37 17 48
3 50 12 37
3 17 38 48
3 24 50 38
3 26 32 39
3 22 26 27
3 12 51 40
3 40 52 27
3 42 41 28
3 42 19 53
3 43 21 29
3 44 20 32
3 54 30 44
3 19 30 53
3 21 43 45
3 45 26 22
3 33 46 55
3 53 43 33
3 23 41 56
3 35 50 47
3 36 35 47
3 35 48 38
3 56 48 23
3 57 24 49
3 36 58 49
3 48 56 37
3 51 12 50
3 37 59 50
3 50 24 51
3 50 35 38
3 32 26 44
3 57 40 51
3 52 40 60
3 41 42 56
3 53 40 42
3 30 54 43
3 53 30 43
3 54 44 61
3 45 62 44
3 26 45 44
3 43 63 45
3 52 64 46
3 55 46 65
3 47 66 56
3 56 36 47
3 66 47 50
3 24 57 51
3 49 68 57
3 58 36 42
3 58 69 49
3 56 70 37
3 37 70 59
3 71 50 59
3 40 57 67
3 60 40 53
3 52 60 64
3 56 42 36
3 42 40 67
3 63 43 54
3 61 44 62
3 54 61 72
3 45 63 62
3 73 46 64
3 60 55 69
3 73 65 46
3 65 69 55
3 70 56 66
3 66 50 71
3 67 57 64
3 74 57 68
3 49 65 68
3 42 67 58
3 58 67 69
3 69 65 49
3 70 72 59
3 59 75 71
3 69 64 60
3 54 72 63
3 61 62 75
3 75 72 61
3 62 63 73
3 64 57 73
3 65 73 63
3 70 66 72
3 66 71 68
3 64 69 67
3 57 74 73
3 74 68 71
3 68 65 72
3 75 59 72
3 74 71 75
3 65 63 72
3 73 75 62
3 68 72 66
3 74 75 73
3 9 5 13
3 10 13 5
3 22 52 46
3 52 22 27
3 60 46 52
3 46 60 55
3 55 53 33
3 49 67 57
3 67 49 58
3 53 55 60
3 61 63 54
3 70 71 59
3 63 61 62
3 71 70 66
