ply
format ascii 1.0
comment Generated by PyMesh
element vertex 146
property double x
property double y
property double z
element face 536
property list uchar int vertex_indices
end_header
0.235218 -0.146999 0.242685
0.253886 -0.146999 0.253886
0.250153 -0.146999 0.25762
0.242685 -0.146999 0.235218
0.253886 0.138551 0.253886
0.235218 0.138551 0.242685
0.235218 0.113206 0.242685
0.25762 -0.146999 0.250153
0.250153 0.138551 0.25762
0.25762 0.138551 0.250153
0.235218 0.130102 0.242685
0.242685 0.113206 0.235218
0.242685 0.138551 0.235218
0.242685 0.130102 0.235218
0.00737776 0.113206 -8.95288e-05
-8.95441e-05 0.130102 0.00737777
0.00737776 0.130102 -8.95288e-05
-8.95441e-05 0.113206 0.00737777
-0.235218 -0.146999 -0.242685
-0.253886 -0.146999 -0.253886
-0.250153 -0.146999 -0.25762
-0.242685 -0.146999 -0.235218
-0.253886 0.138551 -0.253886
-0.235218 0.138551 -0.242685
-0.235218 0.113206 -0.242685
-0.25762 -0.146999 -0.250153
-0.250153 0.138551 -0.25762
-0.25762 0.138551 -0.250153
-0.235218 0.130102 -0.242685
-0.242685 0.113206 -0.235218
-0.242685 0.138551 -0.235218
-0.242685 0.130102 -0.235218
-0.00737777 0.113206 8.95441e-05
8.95288e-05 0.130102 -0.00737776
-0.00737777 0.130102 8.95441e-05
8.95288e-05 0.113206 -0.00737776
0.242685 -0.146999 -0.235218
0.253886 -0.146999 -0.253886
0.25762 -0.146999 -0.250153
0.235218 -0.146999 -0.242685
0.253886 0.138551 -0.253886
0.242685 0.138551 -0.235218
0.242685 0.113206 -0.235218
0.250153 -0.146999 -0.25762
0.25762 0.138551 -0.250153
0.250153 0.138551 -0.25762
0.242685 0.130102 -0.235218
0.235218 0.113206 -0.242685
0.235218 0.138551 -0.242685
0.235218 0.130102 -0.242685
-8.95441e-05 0.113206 -0.00737776
0.00737776 0.130102 8.95441e-05
-8.95441e-05 0.130102 -0.00737776
0.00737776 0.113206 8.95441e-05
0.242685 -0.146999 -0.235218
0.253886 -0.146999 -0.253886
0.25762 -0.146999 -0.250153
0.235218 -0.146999 -0.242685
0.253886 0.138551 -0.253886
0.242685 0.138551 -0.235218
0.242685 0.113206 -0.235218
0.250153 -0.146999 -0.25762
0.25762 0.138551 -0.250153
0.250153 0.138551 -0.25762
0.242685 0.130102 -0.235218
0.235218 0.113206 -0.242685
0.235218 0.138551 -0.242685
0.235218 0.130102 -0.242685
-8.95441e-05 0.113206 -0.00737776
0.00737776 0.130102 8.95441e-05
-8.95441e-05 0.130102 -0.00737776
0.00737776 0.113206 8.95441e-05
-0.242685 -0.146999 0.235218
-0.253886 -0.146999 0.253886
-0.25762 -0.146999 0.250153
-0.235218 -0.146999 0.242685
-0.253886 0.138551 0.253886
-0.242685 0.138551 0.235218
-0.242685 0.113206 0.235218
-0.250153 -0.146999 0.25762
-0.25762 0.138551 0.250153
-0.250153 0.138551 0.25762
-0.242685 0.130102 0.235218
-0.235218 0.113206 0.242685
-0.235218 0.138551 0.242685
-0.235218 0.130102 0.242685
8.95288e-05 0.113206 0.00737777
-0.00737777 0.130102 -8.95288e-05
8.95288e-05 0.130102 0.00737777
-0.00737777 0.113206 -8.95288e-05
-0.337928 0.130102 -0.00528037
-0.325047 0.146999 -0.0925628
-0.325047 0.130102 -0.0925628
-0.337928 0.146999 -0.00528037
-0.290015 0.146999 -0.173537
-0.082362 0.130102 -0.327781
-0.327781 0.146999 0.082362
-0.082362 0.146999 -0.327781
-0.290015 0.130102 -0.173537
-0.164392 0.146999 -0.295295
0.00528037 0.130102 -0.337928
-0.164392 0.130102 -0.295295
-0.327781 0.130102 0.082362
0.00528037 0.146999 -0.337928
-0.238519 0.146999 -0.238519
-0.295295 0.146999 0.164392
0.0925628 0.146999 -0.325047
-0.238519 0.130102 -0.238519
-0.235218 0.146999 -0.242685
0.0925628 0.130102 -0.325047
-0.295295 0.130102 0.164392
-0.235218 0.130102 -0.242685
-0.242685 0.146999 0.235218
0.173537 0.146999 -0.290015
0.173537 0.130102 -0.290015
-0.242685 0.130102 0.235218
-0.238519 0.146999 0.238519
0.238519 0.130102 -0.238519
-0.238519 0.130102 0.238519
0.238519 0.146999 -0.238519
-0.173537 0.146999 0.290015
0.242685 0.146999 -0.235218
0.242685 0.130102 -0.235218
-0.173537 0.130102 0.290015
-0.0925628 0.146999 0.325047
0.295295 0.146999 -0.164392
0.295295 0.130102 -0.164392
-0.0925628 0.130102 0.325047
-0.00528039 0.146999 0.337928
0.327781 0.146999 -0.082362
0.327781 0.130102 -0.082362
-0.00528039 0.130102 0.337928
0.082362 0.130102 0.327781
0.337928 0.146999 0.00528039
0.337928 0.130102 0.00528039
0.082362 0.146999 0.327781
0.164392 0.130102 0.295295
0.325047 0.130102 0.0925628
0.325047 0.146999 0.0925628
0.164392 0.146999 0.295295
0.235218 0.130102 0.242685
0.290015 0.130102 0.173537
0.290015 0.146999 0.173537
0.235218 0.146999 0.242685
0.238519 0.130102 0.238519
0.238519 0.146999 0.238519
3 2 1 0
3 3 0 1
3 1 2 4
3 0 5 2
3 0 3 6
3 7 3 1
3 8 4 2
3 4 9 1
3 8 2 5
3 10 5 0
3 11 6 3
3 6 10 0
3 7 9 3
3 7 1 9
3 8 5 4
3 9 4 12
3 10 13 5
3 11 14 6
3 11 3 12
3 10 6 15
3 12 3 9
3 12 4 5
3 12 5 13
3 13 10 16
3 17 6 14
3 11 13 14
3 13 11 12
3 17 15 6
3 15 16 10
3 16 14 13
3 17 14 15
3 16 15 14
3 0 1 2
3 1 0 3
3 4 2 1
3 2 5 0
3 6 3 0
3 1 3 7
3 2 4 8
3 1 9 4
3 5 2 8
3 0 5 10
3 3 6 11
3 0 10 6
3 3 9 7
3 9 1 7
3 4 5 8
3 12 4 9
3 5 13 10
3 6 14 11
3 12 3 11
3 15 6 10
3 9 3 12
3 5 4 12
3 13 5 12
3 16 10 13
3 14 6 17
3 14 13 11
3 12 11 13
3 6 15 17
3 10 16 15
3 13 14 16
3 15 14 17
3 14 15 16
3 20 19 18
3 21 18 19
3 19 20 22
3 18 23 20
3 18 21 24
3 25 21 19
3 26 22 20
3 22 27 19
3 26 20 23
3 28 23 18
3 29 24 21
3 24 28 18
3 25 27 21
3 25 19 27
3 26 23 22
3 27 22 30
3 28 31 23
3 29 32 24
3 29 21 30
3 28 24 33
3 30 21 27
3 30 22 23
3 30 23 31
3 31 28 34
3 35 24 32
3 29 31 32
3 31 29 30
3 35 33 24
3 33 34 28
3 34 32 31
3 35 32 33
3 34 33 32
3 18 19 20
3 19 18 21
3 22 20 19
3 20 23 18
3 24 21 18
3 19 21 25
3 20 22 26
3 19 27 22
3 23 20 26
3 18 23 28
3 21 24 29
3 18 28 24
3 21 27 25
3 27 19 25
3 22 23 26
3 30 22 27
3 23 31 28
3 24 32 29
3 30 21 29
3 33 24 28
3 27 21 30
3 23 22 30
3 31 23 30
3 34 28 31
3 32 24 35
3 32 31 29
3 30 29 31
3 24 33 35
3 28 34 33
3 31 32 34
3 33 32 35
3 32 33 34
3 38 37 36
3 39 36 37
3 37 38 40
3 36 41 38
3 36 39 42
3 43 39 37
3 44 40 38
3 40 45 37
3 44 38 41
3 46 41 36
3 47 42 39
3 42 46 36
3 43 45 39
3 43 37 45
3 44 41 40
3 45 40 48
3 46 49 41
3 47 50 42
3 47 39 48
3 46 42 51
3 48 39 45
3 48 40 41
3 48 41 49
3 49 46 52
3 53 42 50
3 47 49 50
3 49 47 48
3 53 51 42
3 51 52 46
3 52 50 49
3 53 50 51
3 52 51 50
3 36 37 38
3 37 36 39
3 40 38 37
3 38 41 36
3 42 39 36
3 37 39 43
3 38 40 44
3 37 45 40
3 41 38 44
3 36 41 46
3 39 42 47
3 36 46 42
3 39 45 43
3 45 37 43
3 40 41 44
3 48 40 45
3 41 49 46
3 42 50 47
3 48 39 47
3 51 42 46
3 45 39 48
3 41 40 48
3 49 41 48
3 52 46 49
3 50 42 53
3 50 49 47
3 48 47 49
3 42 51 53
3 46 52 51
3 49 50 52
3 51 50 53
3 50 51 52
3 56 55 54
3 57 54 55
3 55 56 58
3 54 59 56
3 54 57 60
3 61 57 55
3 62 58 56
3 58 63 55
3 62 56 59
3 64 59 54
3 65 60 57
3 60 64 54
3 61 63 57
3 61 55 63
3 62 59 58
3 63 58 66
3 64 67 59
3 65 68 60
3 65 57 66
3 64 60 69
3 66 57 63
3 66 58 59
3 66 59 67
3 67 64 70
3 71 60 68
3 65 67 68
3 67 65 66
3 71 69 60
3 69 70 64
3 70 68 67
3 71 68 69
3 70 69 68
3 54 55 56
3 55 54 57
3 58 56 55
3 56 59 54
3 60 57 54
3 55 57 61
3 56 58 62
3 55 63 58
3 59 56 62
3 54 59 64
3 57 60 65
3 54 64 60
3 57 63 61
3 63 55 61
3 58 59 62
3 66 58 63
3 59 67 64
3 60 68 65
3 66 57 65
3 69 60 64
3 63 57 66
3 59 58 66
3 67 59 66
3 70 64 67
3 68 60 71
3 68 67 65
3 66 65 67
3 60 69 71
3 64 70 69
3 67 68 70
3 69 68 71
3 68 69 70
3 74 73 72
3 75 72 73
3 73 74 76
3 72 77 74
3 72 75 78
3 79 75 73
3 80 76 74
3 76 81 73
3 80 74 77
3 82 77 72
3 83 78 75
3 78 82 72
3 79 81 75
3 79 73 81
3 80 77 76
3 81 76 84
3 82 85 77
3 83 86 78
3 83 75 84
3 82 78 87
3 84 75 81
3 84 76 77
3 84 77 85
3 85 82 88
3 89 78 86
3 83 85 86
3 85 83 84
3 89 87 78
3 87 88 82
3 88 86 85
3 89 86 87
3 88 87 86
3 72 73 74
3 73 72 75
3 76 74 73
3 74 77 72
3 78 75 72
3 73 75 79
3 74 76 80
3 73 81 76
3 77 74 80
3 72 77 82
3 75 78 83
3 72 82 78
3 75 81 79
3 81 73 79
3 76 77 80
3 84 76 81
3 77 85 82
3 78 86 83
3 84 75 83
3 87 78 82
3 81 75 84
3 77 76 84
3 85 77 84
3 88 82 85
3 86 78 89
3 86 85 83
3 84 83 85
3 78 87 89
3 82 88 87
3 85 86 88
3 87 86 89
3 86 87 88
3 95 90 92
3 93 97 91
3 91 99 94
3 100 90 95
3 95 92 101
3 96 103 93
3 93 103 97
3 91 97 99
3 101 92 98
3 94 99 104
3 100 102 90
3 96 106 103
3 101 98 107
3 104 99 108
3 109 102 100
3 105 106 96
3 101 107 111
3 109 110 102
3 105 113 106
3 114 110 109
3 112 113 105
3 114 115 110
3 116 113 112
3 117 115 114
3 116 119 113
3 117 118 115
3 116 121 119
3 122 118 117
3 120 121 116
3 122 123 118
3 120 125 121
3 126 123 122
3 124 125 120
3 126 127 123
3 124 129 125
3 130 127 126
3 128 129 124
3 130 131 127
3 128 133 129
3 134 131 130
3 134 132 131
3 135 133 128
3 137 132 134
3 135 138 133
3 137 136 132
3 139 138 135
3 141 136 137
3 139 142 138
3 136 144 140
3 144 136 141
3 139 145 142
3 145 139 143
3 90 91 92
3 91 90 93
3 94 92 91
3 90 96 93
3 92 94 98
3 96 90 102
3 104 98 94
3 95 103 100
3 101 97 95
3 102 105 96
3 103 95 97
3 97 101 99
3 98 104 107
3 103 109 100
3 105 102 110
3 109 103 106
3 111 99 101
3 108 107 104
3 99 111 108
3 110 112 105
3 106 114 109
3 107 108 111
3 112 110 115
3 114 106 113
3 115 116 112
3 113 117 114
3 116 115 118
3 117 113 119
3 118 120 116
3 119 122 117
3 120 118 123
3 122 119 121
3 123 124 120
3 121 126 122
3 124 123 127
3 126 121 125
3 127 128 124
3 125 130 126
3 128 127 131
3 130 125 129
3 132 128 131
3 129 134 130
3 128 132 135
3 134 129 133
3 136 135 132
3 138 134 133
3 135 136 139
3 134 138 137
3 140 139 136
3 142 137 138
3 139 140 143
3 137 142 141
3 144 143 140
3 141 145 144
3 145 141 142
3 143 144 145
3 92 90 95
3 91 97 93
3 94 99 91
3 95 90 100
3 101 92 95
3 93 103 96
3 97 103 93
3 99 97 91
3 98 92 101
3 104 99 94
3 90 102 100
3 103 106 96
3 107 98 101
3 108 99 104
3 100 102 109
3 96 106 105
3 111 107 101
3 102 110 109
3 106 113 105
3 109 110 114
3 105 113 112
3 110 115 114
3 112 113 116
3 114 115 117
3 113 119 116
3 115 118 117
3 119 121 116
3 117 118 122
3 116 121 120
3 118 123 122
3 121 125 120
3 122 123 126
3 120 125 124
3 123 127 126
3 125 129 124
3 126 127 130
3 124 129 128
3 127 131 130
3 129 133 128
3 130 131 134
3 131 132 134
3 128 133 135
3 134 132 137
3 133 138 135
3 132 136 137
3 135 138 139
3 137 136 141
3 138 142 139
3 140 144 136
3 141 136 144
3 142 145 139
3 143 139 145
3 92 91 90
3 93 90 91
3 91 92 94
3 93 96 90
3 98 94 92
3 102 90 96
3 94 98 104
3 100 103 95
3 95 97 101
3 96 105 102
3 97 95 103
3 99 101 97
3 107 104 98
3 100 109 103
3 110 102 105
3 106 103 109
3 101 99 111
3 104 107 108
3 108 111 99
3 105 112 110
3 109 114 106
3 111 108 107
3 115 110 112
3 113 106 114
3 112 116 115
3 114 117 113
3 118 115 116
3 119 113 117
3 116 120 118
3 117 122 119
3 123 118 120
3 121 119 122
3 120 124 123
3 122 126 121
3 127 123 124
3 125 121 126
3 124 128 127
3 126 130 125
3 131 127 128
3 129 125 130
3 131 128 132
3 130 134 129
3 135 132 128
3 133 129 134
3 132 135 136
3 133 134 138
3 139 136 135
3 137 138 134
3 136 139 140
3 138 137 142
3 143 140 139
3 141 142 137
3 140 143 144
3 144 145 141
3 142 141 145
3 145 144 143
