ply
format ascii 1.0
comment Generated by PyMesh
element vertex 311
property double x
property double y
property double z
element face 1372
property list uchar int vertex_indices
end_header
-0.130582 -0.047378 0.166115
-0.10919 -0.0656616 0.166115
-0.130582 -0.0710669 0.166115
-0.0875775 -0.0612235 0.166115
-0.130582 -0.0710669 0.130582
-0.166115 0.177667 0.166115
-0.130582 -0.047378 0.163154
-0.0657871 -0.0577627 0.166115
-0.10919 -0.0656616 0.130582
-0.130582 -0.213201 0.166115
-0.130582 -0.047378 0.130582
-0.130582 0.177667 0.166115
0.131 -0.047378 0.163154
-0.130582 0.177667 0.163154
-0.0438628 -0.0552848 0.166115
-0.0875775 -0.0612235 0.130582
-0.130582 -0.213201 0.130582
-0.166115 -0.0710669 0.130582
-0.130582 -0.0656616 0.109191
-0.166115 -0.213201 0.166115
-0.284268 0.177667 0.319801
-0.163154 0.177667 0.130582
0.131 -0.047378 0.166115
-0.130582 0.177667 0.130582
0.131 -0.047378 0.130582
-0.0218495 -0.053797 0.166115
-0.0657871 -0.0577627 0.130582
-0.166115 -0.213201 0.130582
-0.166115 -0.047378 0.130582
-0.166115 -0.0656616 0.109191
-0.130582 -0.0612235 0.087578
0.131 0.177667 0.166115
-0.284268 0.177667 -0.319801
-0.166115 0.177667 0.130582
0.000208744 -0.0533005 0.166115
-0.163154 -0.047378 0.130582
0.000208744 -0.0533005 0.130582
0.131 -0.047378 -0.131
0.131 -0.0710669 0.166115
0.131 0.177667 0.163154
0.131 -0.0710669 0.130582
-0.130582 0.177667 -0.131
-0.0438628 -0.0552848 0.130582
-0.130582 -0.0577627 0.0657871
-0.166115 -0.0612235 0.087578
0.166533 0.177667 0.166115
-0.284268 0.177667 -0.284268
-0.166115 0.177667 -0.131
0.0222669 -0.053797 0.166115
-0.130582 -0.047378 -0.131
-0.0218495 -0.053797 0.130582
0.0222669 -0.053797 0.130582
0.163572 -0.047378 -0.131
0.131 -0.053797 -0.0222675
0.109608 -0.0656616 0.166115
0.130815 0.177667 -0.163572
0.131 0.177667 0.130582
0.166533 -0.047378 0.130582
0.109608 -0.0656616 0.130582
0.131 -0.0656616 0.109191
-0.130582 0.177667 -0.166533
-0.163154 0.177667 -0.131
-0.166115 -0.047378 -0.131
-0.130582 -0.0552848 0.0438628
-0.166115 -0.0577627 0.0657871
0.284268 0.177667 0.319801
0.163572 0.177667 0.130582
-0.319801 0.177667 -0.319801
-0.284268 0.177667 0.284268
0.0442803 -0.0552848 0.166115
-0.163154 -0.047378 -0.131
-0.130582 -0.053797 -0.0222675
0.0442803 -0.0552848 0.130582
0.131 -0.047378 -0.166533
0.000208744 -0.0533005 -0.131
0.163572 -0.047378 0.130582
0.131 0.177667 -0.131
0.166533 -0.047378 -0.131
0.131 -0.0552848 -0.0442809
0.131 -0.0533005 -0.000208744
0.131 -0.213201 0.130582
0.0879955 -0.0612235 0.166115
0.166533 -0.213201 0.166115
0.130815 0.177667 -0.166533
-0.130397 0.177667 -0.163572
0.166533 -0.0710669 0.130582
0.0879955 -0.0612235 0.130582
0.131 -0.0612235 0.087578
-0.166115 0.177667 -0.166533
-0.166115 -0.053797 -0.0222675
-0.130582 -0.053797 0.0218495
-0.166115 -0.0552848 0.0438628
0.166533 0.177667 -0.166533
0.284268 0.213201 0.319801
0.166533 0.177667 0.130582
-0.319801 0.177667 -0.284268
-0.319801 0.213201 -0.319801
-0.319801 0.177667 0.284268
-0.166115 -0.213201 -0.131
0.0662052 -0.0577627 0.166115
-0.130582 -0.0552848 -0.0442809
-0.130582 -0.0533005 -0.000208744
0.0662052 -0.0577627 0.130582
-0.130582 -0.047378 -0.166533
0.131 -0.0710669 -0.166533
0.0222669 -0.053797 -0.131
-0.0218495 -0.053797 -0.131
0.163572 0.177667 -0.131
0.166533 -0.0710669 -0.131
0.131 -0.0577627 -0.0662046
0.166533 -0.053797 -0.0222675
0.131 -0.053797 0.0218495
0.166533 -0.0533005 -0.000208744
0.131 -0.213201 0.166115
-0.130397 0.177667 -0.166533
0.130815 -0.0471931 -0.163572
0.166533 -0.0656616 0.109191
0.131 -0.0577627 0.0657871
-0.166115 -0.0552848 -0.0442809
-0.166115 -0.0533005 -0.000208744
-0.166115 -0.053797 0.0218495
0.284268 0.177667 0.284268
0.166533 0.177667 -0.131
-0.284268 0.213201 0.319801
0.319801 0.213201 0.319801
-0.166115 -0.213201 -0.166533
-0.284268 0.213201 -0.319801
-0.319801 0.177667 0.319801
-0.166115 -0.0710669 -0.131
-0.130582 -0.0710669 -0.131
-0.130582 -0.0577627 -0.0662046
0.000208744 -0.0533005 -0.166533
0.131 -0.0710669 -0.131
0.109608 -0.0656616 -0.166533
0.131 0.177667 -0.166533
0.0442803 -0.0552848 -0.131
-0.0438628 -0.0552848 -0.131
-0.0218495 -0.053797 -0.166533
0.166533 -0.0656616 -0.109608
0.131 -0.0612235 -0.0879955
0.166533 -0.0552848 -0.0442809
0.131 -0.0552848 0.0438628
0.166533 -0.053797 0.0218495
0.166533 -0.213201 0.130582
-0.106893 0.0726499 -0.166533
0.130815 -0.0471931 -0.166533
-0.130397 -0.0471931 -0.166533
-0.130397 -0.0471931 -0.163572
0.166533 -0.0612235 0.087578
-0.130582 -0.0710669 -0.166533
-0.166115 -0.0577627 -0.0662046
0.284268 0.177667 -0.284268
0.319801 0.177667 0.319801
0.0707228 0.213201 0.0710669
0.284649 0.213201 0.284268
-0.319801 0.213201 -0.284268
-0.284268 0.213201 -0.284649
0.284268 0.177667 -0.319801
-0.319801 0.213201 0.284268
-0.130582 -0.213201 -0.131
-0.166115 -0.0656616 -0.109608
-0.130582 -0.0656616 -0.109608
-0.10919 -0.0656616 -0.131
-0.130582 -0.0612235 -0.0879955
0.0222669 -0.053797 -0.166533
0.131 -0.0656616 -0.109608
0.109608 -0.0656616 -0.131
0.131 -0.213201 -0.166533
0.0879955 -0.0612235 -0.166533
0.0662052 -0.0577627 -0.131
-0.0657871 -0.0577627 -0.131
-0.0438628 -0.0552848 -0.166533
0.166533 -0.213201 -0.131
0.166533 -0.0612235 -0.0879955
0.166533 -0.0577627 -0.0662046
0.166533 -0.0552848 0.0438628
-0.108835 0.0723938 -0.166533
-0.10495 0.0723938 -0.166533
-0.10314 0.0586453 -0.166533
-0.114142 0.0632022 -0.166533
0.166533 -0.0577627 0.0657871
-0.10919 -0.0656616 -0.166533
-0.166115 -0.0612235 -0.0879955
0.319801 0.177667 0.284268
0.284268 0.213201 0.284596
-0.0707004 0.213201 0.0710669
-0.319801 0.213201 0.319801
0.319801 0.213201 0.284268
0.284268 0.213201 0.284268
-0.130582 -0.213201 -0.166533
-0.284672 0.213201 -0.284268
-0.284268 0.213201 -0.284268
-0.0706858 0.213201 -0.0710669
0.284268 0.213201 -0.319801
-0.0875775 -0.0612235 -0.131
0.0442803 -0.0552848 -0.166533
0.0879955 -0.0612235 -0.131
0.131 -0.213201 -0.131
0.166533 -0.213201 -0.166533
0.0662052 -0.0577627 -0.166533
-0.0657871 -0.0577627 -0.166533
-0.110645 0.0716441 -0.166533
-0.106893 0.0726499 -0.178377
-0.10314 0.0716441 -0.166533
-0.10495 0.0723938 -0.178377
-0.10495 0.0578955 -0.166533
-0.101585 0.0598377 -0.166533
-0.110645 0.0586453 -0.166533
-0.113392 0.0613922 -0.166533
-0.114398 0.0651444 -0.166533
-0.0875775 -0.0612235 -0.166533
0.319801 0.177667 -0.284268
0.0710669 0.213201 0.0706853
0.0706735 0.213201 -0.0710669
-0.284268 0.213201 0.284625
-0.284638 0.213201 0.284268
0.284649 0.213201 -0.284268
-0.284638 0.213201 -0.284268
-0.0710669 0.213201 -0.0707122
-0.0710669 0.213201 -0.0710669
0.284268 0.213201 -0.284675
0.319801 0.177667 -0.319801
-0.1122 0.0704516 -0.166533
-0.108835 0.0723938 -0.178377
-0.101585 0.0704516 -0.166533
-0.10314 0.0716441 -0.178377
-0.106893 0.0576394 -0.166533
-0.10495 0.0578955 -0.178377
-0.100394 0.0613922 -0.166533
-0.10314 0.0586453 -0.178377
-0.1122 0.0598377 -0.166533
-0.108835 0.0578955 -0.166533
-0.113392 0.0613922 -0.178377
-0.114142 0.0632022 -0.178377
-0.114142 0.0670872 -0.166533
0.0710669 0.213201 -0.0706942
-0.0710669 0.213201 0.070683
0.319801 0.213201 -0.284268
0.284268 0.213201 -0.284268
0.319801 0.213201 -0.319801
-0.113392 0.0688971 -0.166533
-0.110645 0.0716441 -0.178377
-0.115268 0.0735202 -0.178377
-0.0985175 0.0735202 -0.178377
-0.100394 0.0688971 -0.166533
-0.101585 0.0704516 -0.178377
-0.106893 0.0576394 -0.178377
-0.0996432 0.0632022 -0.166533
-0.100394 0.0613922 -0.178377
-0.101585 0.0598377 -0.178377
-0.1122 0.0598377 -0.178377
-0.110645 0.0586453 -0.178377
-0.114398 0.0651444 -0.178377
0.0710669 0.213201 -0.0710669
-0.284268 0.213201 0.284268
-0.113392 0.0688971 -0.178377
-0.1122 0.0704516 -0.178377
-0.0996432 0.0670872 -0.166533
-0.0966352 0.0710669 -0.178377
-0.108835 0.0578955 -0.178377
-0.0966352 0.0592224 -0.178377
-0.0985175 0.0567692 -0.178377
-0.0993877 0.0651444 -0.166533
-0.0996432 0.0632022 -0.178377
-0.118334 0.0620792 -0.178377
-0.118737 0.0651444 -0.178377
-0.114142 0.0670872 -0.178377
-0.117151 0.0710669 -0.178377
-0.100971 0.0754024 -0.178377
-0.100394 0.0688971 -0.178377
-0.0966352 0.0710669 -0.181339
-0.115268 0.0567692 -0.178377
-0.0993877 0.0651444 -0.178377
-0.0954517 0.0620792 -0.178377
-0.117151 0.0592224 -0.178377
-0.118334 0.0682101 -0.178377
-0.115268 0.0735202 -0.181339
-0.100971 0.0754024 -0.181339
-0.112815 0.0754024 -0.178377
-0.0996432 0.0670872 -0.178377
-0.0954517 0.0682101 -0.178377
-0.0985175 0.0735202 -0.181339
-0.0954517 0.0682101 -0.181339
-0.0985175 0.0567692 -0.181339
-0.112815 0.0548869 -0.178377
-0.0950483 0.0651444 -0.178377
-0.0966352 0.0592224 -0.181339
-0.118737 0.0651444 -0.181339
-0.118334 0.0620792 -0.181339
-0.117151 0.0710669 -0.181339
-0.103827 0.0765859 -0.181339
-0.103827 0.0765859 -0.178377
-0.117151 0.0592224 -0.181339
-0.100971 0.0548869 -0.178377
-0.112815 0.0548869 -0.181339
-0.0954517 0.0620792 -0.181339
-0.118334 0.0682101 -0.181339
-0.112815 0.0754024 -0.181339
-0.109958 0.0765859 -0.181339
-0.109958 0.0765859 -0.178377
-0.0950483 0.0651444 -0.181339
-0.115268 0.0567692 -0.181339
-0.100971 0.0548869 -0.181339
-0.109958 0.0537034 -0.178377
-0.109958 0.0537034 -0.181339
-0.106893 0.0769894 -0.181339
-0.106893 0.0769894 -0.178377
-0.103827 0.0537034 -0.178377
-0.103827 0.0537034 -0.181339
-0.106893 0.0533 -0.178377
-0.106893 0.0533 -0.181339
3 0 1 2
3 1 0 3
3 2 5 0
3 6 2 0
3 0 2 6
3 3 0 7
3 4 9 2
3 2 10 4
3 4 10 2
3 9 5 2
3 0 5 11
3 10 2 6
3 6 2 10
3 12 0 6
3 6 0 12
3 0 13 6
3 6 13 0
3 7 0 14
3 8 10 4
3 9 4 16
3 10 17 4
3 4 17 10
3 10 18 4
3 5 9 19
3 20 11 5
3 11 21 5
3 13 0 11
3 11 0 13
3 11 22 0
3 6 23 10
3 24 6 10
3 0 12 22
3 22 12 0
3 6 12 13
3 6 24 12
3 23 6 13
3 14 0 25
3 10 8 15
3 4 27 16
3 27 9 16
3 17 10 28
3 28 10 17
3 27 4 17
3 10 30 18
3 9 27 19
3 27 5 19
3 20 31 11
3 20 5 32
3 13 21 11
3 5 21 33
3 31 13 11
3 22 11 31
3 22 34 0
3 23 35 10
3 10 36 24
3 38 12 22
3 22 12 38
3 12 31 22
3 22 31 12
3 39 13 12
3 24 39 12
3 12 40 24
3 24 40 12
3 13 41 23
3 21 13 23
3 25 0 34
3 10 15 26
3 28 10 35
3 35 10 28
3 28 5 17
3 29 28 17
3 17 5 27
3 10 43 30
3 20 45 31
3 33 32 5
3 20 32 46
3 28 21 33
3 33 21 28
3 21 47 33
3 5 28 33
3 13 31 39
3 45 22 31
3 22 48 34
3 35 23 21
3 35 49 10
3 10 50 36
3 51 24 36
3 52 24 37
3 53 37 24
3 40 12 38
3 38 12 40
3 54 22 38
3 45 38 22
3 31 12 39
3 39 12 31
3 39 55 13
3 39 24 56
3 40 57 24
3 24 57 40
3 24 58 40
3 59 24 40
3 13 60 41
3 61 23 41
3 23 61 21
3 10 26 42
3 21 28 35
3 35 28 21
3 35 62 28
3 28 62 35
3 44 28 29
3 10 63 43
3 65 45 20
3 45 66 31
3 47 32 33
3 67 46 32
3 20 46 68
3 62 33 28
3 47 21 61
3 33 62 47
3 31 56 39
3 22 69 48
3 35 21 70
3 49 35 70
3 49 71 10
3 10 42 50
3 72 24 51
3 49 73 37
3 37 74 49
3 24 52 75
3 76 52 37
3 77 37 52
3 52 37 77
3 78 37 53
3 53 24 79
3 38 80 40
3 22 54 81
3 82 38 45
3 55 39 83
3 13 55 84
3 75 56 24
3 56 83 39
3 57 40 85
3 85 40 57
3 24 57 75
3 75 57 24
3 58 24 86
3 87 24 59
3 13 84 60
3 88 41 60
3 60 49 41
3 41 88 61
3 41 70 61
3 61 70 21
3 62 35 70
3 70 35 62
3 89 62 28
3 64 28 44
3 10 90 63
3 45 65 92
3 65 20 93
3 66 45 94
3 31 66 56
3 88 32 47
3 46 67 95
3 67 32 96
3 95 68 46
3 97 20 68
3 61 88 47
3 70 47 61
3 61 47 70
3 98 47 62
3 47 70 62
3 62 70 47
3 22 99 69
3 49 62 70
3 70 62 49
3 70 41 49
3 49 100 71
3 10 71 101
3 102 24 72
3 73 49 103
3 37 104 73
3 73 104 37
3 73 76 37
3 37 105 74
3 106 49 74
3 75 52 66
3 77 75 52
3 52 75 77
3 52 76 107
3 108 37 77
3 77 37 108
3 107 77 52
3 52 77 107
3 109 37 78
3 79 24 111
3 80 38 113
3 80 85 40
3 22 81 99
3 38 82 113
3 94 82 45
3 114 55 83
3 83 115 55
3 55 115 83
3 55 114 84
3 115 84 55
3 56 75 66
3 76 83 56
3 85 82 57
3 57 116 85
3 75 77 57
3 57 77 75
3 94 75 57
3 57 75 94
3 86 24 102
3 117 24 87
3 114 60 84
3 88 103 60
3 60 32 88
3 49 60 103
3 118 62 89
3 89 28 119
3 91 28 64
3 10 101 90
3 121 92 65
3 45 92 122
3 123 93 20
3 93 124 65
3 45 122 94
3 75 94 66
3 66 94 75
3 94 107 66
3 66 76 56
3 47 125 88
3 67 96 95
3 126 96 32
3 68 95 97
3 20 97 127
3 125 47 98
3 98 62 128
3 129 62 49
3 49 62 129
3 49 130 100
3 103 129 49
3 49 129 103
3 103 131 73
3 104 37 132
3 132 37 104
3 104 92 73
3 73 133 104
3 76 73 134
3 37 135 105
3 136 49 106
3 107 66 52
3 76 66 107
3 107 134 76
3 37 108 132
3 132 108 37
3 122 108 77
3 138 77 108
3 77 107 122
3 122 107 77
3 139 37 109
3 111 24 141
3 82 80 113
3 85 80 143
3 57 82 94
3 83 32 114
3 114 144 83
3 115 83 145
3 145 83 115
3 84 146 114
3 114 146 84
3 84 115 147
3 134 83 76
3 82 85 143
3 57 148 116
3 77 110 57
3 94 77 57
3 141 24 117
3 114 32 60
3 88 149 103
3 150 62 118
3 119 28 120
3 120 28 91
3 151 92 121
3 152 121 65
3 108 122 92
3 134 122 92
3 123 153 93
3 20 127 123
3 152 65 124
3 93 154 124
3 107 94 122
3 77 94 122
3 125 149 88
3 155 95 96
3 126 156 96
3 32 157 126
3 95 155 97
3 97 158 127
3 159 125 98
3 62 160 128
3 62 129 128
3 128 129 62
3 129 98 128
3 161 49 129
3 49 162 129
3 49 163 130
3 129 103 149
3 149 103 129
3 103 137 131
3 164 73 131
3 37 165 132
3 166 37 132
3 132 167 104
3 167 92 104
3 73 92 134
3 133 73 168
3 37 169 135
3 170 49 136
3 122 134 107
3 172 132 108
3 77 138 173
3 165 37 139
3 77 140 110
3 57 110 112
3 57 112 142
3 80 82 143
3 134 32 83
3 114 176 144
3 177 83 144
3 178 145 83
3 146 115 145
3 145 115 146
3 146 84 147
3 147 84 146
3 146 179 114
3 115 146 147
3 147 146 115
3 57 180 148
3 181 103 149
3 182 62 150
3 151 32 92
3 183 151 121
3 121 152 183
3 92 172 108
3 92 32 134
3 184 93 153
3 185 153 123
3 186 123 127
3 152 124 183
3 187 124 154
3 188 154 93
3 149 125 189
3 155 96 190
3 191 96 156
3 156 126 192
3 193 126 157
3 32 151 157
3 158 97 155
3 186 127 158
3 125 159 189
3 98 129 159
3 160 62 182
3 49 161 163
3 162 49 194
3 149 159 129
3 103 171 137
3 195 73 164
3 37 166 196
3 167 132 197
3 92 167 198
3 168 73 199
3 37 196 169
3 194 49 170
3 132 172 197
3 77 173 174
3 77 174 140
3 57 142 175
3 114 201 176
3 203 83 177
3 205 145 178
3 178 83 206
3 207 146 145
3 179 146 208
3 114 179 209
3 57 175 180
3 103 181 210
3 151 183 211
3 172 92 198
3 184 188 93
3 153 212 184
3 185 213 153
3 214 185 123
3 186 215 123
3 187 183 124
3 154 216 187
3 154 188 212
3 159 149 189
3 190 96 217
3 155 190 158
3 217 96 191
3 191 156 218
3 192 126 213
3 192 219 156
3 193 220 126
3 157 221 193
3 211 157 151
3 158 215 186
3 103 200 171
3 199 73 195
3 172 167 197
3 167 172 198
3 114 222 201
3 224 83 203
3 145 205 226
3 206 83 228
3 230 146 207
3 207 145 231
3 208 146 230
3 114 209 234
3 103 210 200
3 183 187 211
3 184 212 188
3 235 212 153
3 153 213 235
3 192 213 185
3 214 236 185
3 123 215 214
3 237 187 216
3 235 216 154
3 212 235 154
3 190 217 215
3 158 190 215
3 217 191 218
3 218 156 219
3 213 126 220
3 219 192 185
3 220 193 238
3 239 193 221
3 157 211 221
3 114 240 222
3 242 223 202
3 202 223 242
3 204 243 202
3 202 243 204
3 244 83 224
3 225 243 204
3 204 243 225
3 231 145 226
3 228 83 247
3 114 234 240
3 237 211 187
3 253 235 213
3 236 219 185
3 254 236 214
3 254 214 215
3 216 193 237
3 216 235 238
3 215 217 236
3 218 236 217
3 218 219 236
3 220 238 213
3 238 193 216
3 239 237 193
3 239 221 237
3 211 237 221
3 242 241 223
3 223 241 242
3 242 202 243
3 243 202 242
3 257 83 244
3 245 258 225
3 225 258 245
3 225 258 243
3 243 258 225
3 227 260 229
3 229 260 227
3 246 261 227
3 227 261 246
3 247 83 262
3 229 260 249
3 249 260 229
3 264 232 233
3 233 232 264
3 264 250 232
3 232 250 264
3 265 233 252
3 252 233 265
3 253 238 235
3 253 213 238
3 236 254 215
3 267 256 241
3 241 256 267
3 267 241 242
3 242 241 267
3 242 243 268
3 268 243 242
3 262 83 257
3 269 258 245
3 245 258 269
3 259 271 246
3 246 271 259
3 227 261 260
3 260 261 227
3 271 261 246
3 246 261 271
3 249 273 248
3 248 273 249
3 248 273 263
3 263 273 248
3 249 260 273
3 273 260 249
3 274 251 250
3 250 251 274
3 274 259 251
3 251 259 274
3 264 233 265
3 265 233 264
3 274 250 264
3 264 250 274
3 265 252 266
3 266 252 265
3 267 255 256
3 256 255 267
3 275 266 255
3 255 266 275
3 242 268 278
3 278 268 242
3 269 280 258
3 258 280 269
3 271 259 274
3 274 259 271
3 284 261 271
3 271 261 284
3 263 285 272
3 272 285 263
3 263 273 285
3 285 273 263
3 265 266 275
3 275 266 265
3 275 255 267
3 267 255 275
3 278 268 291
3 291 268 278
3 279 280 269
3 269 280 279
3 281 276 270
3 270 289 282
3 284 293 261
3 261 293 284
3 272 280 279
3 279 280 272
3 272 285 280
3 280 285 272
3 276 289 270
3 277 297 281
3 290 298 277
3 278 291 299
3 299 291 278
3 297 276 281
3 289 296 282
3 286 292 283
3 303 293 284
3 284 293 303
3 295 288 286
3 287 288 295
3 296 287 300
3 288 292 286
3 298 297 277
3 305 298 290
3 299 291 306
3 306 291 299
3 282 296 300
3 292 301 283
3 283 301 302
3 303 307 293
3 293 307 303
3 301 294 302
3 294 304 308
3 300 287 295
3 307 303 309
3 309 303 307
3 302 294 308
3 310 308 304
3 1 4 2
3 3 8 1
3 4 1 8
3 7 15 3
3 8 3 15
3 14 26 7
3 15 7 26
3 4 29 17
3 29 4 18
3 25 42 14
3 26 14 42
3 44 18 30
3 18 44 29
3 34 50 25
3 42 25 50
3 64 30 43
3 30 64 44
3 48 36 34
3 50 34 36
3 36 48 51
3 58 38 40
3 38 58 54
3 85 59 40
3 91 43 63
3 43 91 64
3 69 51 48
3 51 69 72
3 110 78 53
3 112 53 79
3 54 86 81
3 86 54 58
3 116 87 59
3 59 85 116
3 120 63 90
3 63 120 91
3 99 72 69
3 118 71 100
3 89 101 71
3 72 99 102
3 105 131 74
3 74 137 106
3 140 109 78
3 78 110 140
3 53 112 110
3 142 79 111
3 79 142 112
3 102 81 86
3 81 102 99
3 148 117 87
3 87 116 148
3 71 118 89
3 101 89 119
3 119 90 101
3 90 119 120
3 150 100 130
3 100 150 118
3 133 132 104
3 135 164 105
3 131 105 164
3 137 74 131
3 106 171 136
3 171 106 137
3 132 138 108
3 174 139 109
3 109 140 174
3 175 111 141
3 111 175 142
3 180 141 117
3 117 148 180
3 161 128 160
3 128 161 129
3 162 149 129
3 182 130 163
3 130 182 150
3 138 132 165
3 132 133 166
3 168 166 133
3 169 195 135
3 164 135 195
3 136 200 170
3 200 136 171
3 165 173 138
3 173 165 139
3 139 174 173
3 141 180 175
3 176 202 144
3 144 204 177
3 149 162 181
3 163 160 182
3 160 163 161
3 194 181 162
3 166 168 196
3 199 196 168
3 196 199 169
3 195 169 199
3 170 210 194
3 210 170 200
3 201 223 176
3 202 176 223
3 204 144 202
3 177 225 203
3 225 177 204
3 178 227 205
3 206 229 178
3 232 179 208
3 233 209 179
3 181 194 210
3 222 241 201
3 223 201 241
3 203 245 224
3 245 203 225
3 205 246 226
3 227 178 229
3 246 205 227
3 248 206 228
3 229 206 249
3 207 250 230
3 231 251 207
3 250 208 230
3 179 232 233
3 208 250 232
3 209 233 252
3 252 234 209
3 255 222 240
3 241 222 256
3 245 244 224
3 259 226 246
3 226 259 231
3 263 228 247
3 206 248 249
3 228 263 248
3 250 207 251
3 251 231 259
3 234 252 266
3 266 240 234
3 222 255 256
3 240 266 255
3 269 257 244
3 244 245 269
3 258 243 270
3 272 247 262
3 247 272 263
3 242 267 276
3 268 277 243
3 279 262 257
3 257 269 279
3 281 270 243
3 270 282 258
3 261 260 283
3 262 279 272
3 260 273 286
3 265 264 287
3 264 274 288
3 289 276 267
3 242 276 278
3 281 243 277
3 277 268 290
3 280 258 282
3 274 271 292
3 286 283 260
3 261 283 293
3 284 294 271
3 273 285 295
3 295 286 273
3 288 287 264
3 287 296 265
3 292 288 274
3 275 265 296
3 267 275 289
3 297 278 276
3 291 290 268
3 282 300 280
3 301 292 271
3 302 293 283
3 301 271 294
3 294 284 304
3 285 280 300
3 300 295 285
3 296 289 275
3 278 297 299
3 290 291 305
3 293 302 307
3 303 304 284
3 298 299 297
3 306 305 291
3 305 306 298
3 299 298 306
3 308 307 302
3 304 303 310
3 307 308 309
3 309 310 303
3 310 309 308
3 2 1 0
3 3 0 1
3 0 5 2
3 7 0 3
3 2 9 4
3 2 5 9
3 11 5 0
3 14 0 7
3 4 10 8
3 16 4 9
3 4 18 10
3 19 9 5
3 10 23 6
3 10 6 24
3 12 24 6
3 13 6 23
3 25 0 14
3 15 8 10
3 16 27 4
3 16 9 27
3 17 4 27
3 18 30 10
3 19 27 9
3 19 5 27
3 0 34 22
3 10 35 23
3 24 36 10
3 12 39 24
3 34 0 25
3 26 15 10
3 17 5 28
3 17 28 29
3 27 5 17
3 30 43 10
3 33 28 5
3 31 22 45
3 34 48 22
3 21 23 35
3 10 49 35
3 36 50 10
3 36 24 51
3 37 24 52
3 24 37 53
3 38 22 54
3 22 38 45
3 56 24 39
3 40 58 24
3 40 24 59
3 42 26 10
3 29 28 44
3 43 63 10
3 48 69 22
3 70 35 49
3 10 71 49
3 50 42 10
3 51 24 72
3 37 73 49
3 49 74 37
3 75 52 24
3 37 52 76
3 53 37 78
3 79 24 53
3 40 80 38
3 81 54 22
3 45 38 82
3 24 56 75
3 86 24 58
3 59 24 87
3 41 49 60
3 61 70 41
3 28 62 89
3 44 28 64
3 63 90 10
3 62 47 98
3 69 99 22
3 49 41 70
3 71 100 49
3 101 71 10
3 72 24 102
3 103 49 73
3 37 76 73
3 74 105 37
3 74 49 106
3 107 76 52
3 78 37 109
3 111 24 79
3 113 38 80
3 40 85 80
3 99 81 22
3 113 82 38
3 45 82 94
3 66 75 56
3 57 82 85
3 85 116 57
3 102 24 86
3 87 24 117
3 60 103 88
3 103 60 49
3 89 62 118
3 119 28 89
3 64 28 91
3 90 101 10
3 88 125 47
3 98 47 125
3 128 62 98
3 100 130 49
3 73 131 103
3 73 92 104
3 104 133 73
3 134 73 76
3 105 135 37
3 106 49 136
3 77 108 122
3 108 77 138
3 109 37 139
3 141 24 111
3 113 80 82
3 143 80 85
3 94 82 57
3 143 85 82
3 116 148 57
3 57 110 77
3 117 24 141
3 103 149 88
3 118 62 150
3 120 28 119
3 91 28 120
3 92 122 108
3 88 149 125
3 96 156 126
3 98 125 159
3 128 160 62
3 128 98 129
3 129 49 161
3 129 162 49
3 130 163 49
3 131 137 103
3 131 73 164
3 132 165 37
3 132 37 166
3 104 167 132
3 104 92 167
3 134 92 73
3 168 73 133
3 135 169 37
3 136 49 170
3 108 132 172
3 173 138 77
3 139 37 165
3 110 140 77
3 112 110 57
3 142 112 57
3 143 82 80
3 148 180 57
3 149 103 181
3 150 62 182
3 108 172 92
3 189 125 149
3 190 96 155
3 156 96 191
3 189 159 125
3 159 129 98
3 182 62 160
3 163 161 49
3 194 49 162
3 129 159 149
3 137 171 103
3 164 73 195
3 196 166 37
3 197 132 167
3 198 167 92
3 199 73 168
3 169 196 37
3 170 49 194
3 197 172 132
3 174 173 77
3 140 174 77
3 175 142 57
3 180 175 57
3 210 181 103
3 198 92 172
3 189 149 159
3 217 96 190
3 191 96 217
3 218 156 191
3 156 219 192
3 171 200 103
3 195 73 199
3 197 167 172
3 198 172 167
3 200 210 103
3 218 191 217
3 219 156 218
3 270 276 281
3 282 289 270
3 270 289 276
3 281 297 277
3 277 298 290
3 281 276 297
3 282 296 289
3 283 292 286
3 286 288 295
3 295 288 287
3 300 287 296
3 286 292 288
3 277 297 298
3 290 298 305
3 300 296 282
3 283 301 292
3 302 301 283
3 302 294 301
3 308 304 294
3 295 287 300
3 308 294 302
3 304 308 310
3 2 4 1
3 1 8 3
3 8 1 4
3 3 15 7
3 15 3 8
3 7 26 14
3 26 7 15
3 17 29 4
3 18 4 29
3 14 42 25
3 42 14 26
3 30 18 44
3 29 44 18
3 25 50 34
3 50 25 42
3 43 30 64
3 44 64 30
3 34 36 48
3 36 34 50
3 51 48 36
3 40 38 58
3 54 58 38
3 40 59 85
3 63 43 91
3 64 91 43
3 48 51 69
3 72 69 51
3 53 78 110
3 79 53 112
3 81 86 54
3 58 54 86
3 59 87 116
3 116 85 59
3 90 63 120
3 91 120 63
3 69 72 99
3 100 71 118
3 71 101 89
3 102 99 72
3 74 131 105
3 106 137 74
3 78 109 140
3 140 110 78
3 110 112 53
3 111 79 142
3 112 142 79
3 86 81 102
3 99 102 81
3 87 117 148
3 148 116 87
3 89 118 71
3 119 89 101
3 101 90 119
3 120 119 90
3 130 100 150
3 118 150 100
3 104 132 133
3 105 164 135
3 164 105 131
3 131 74 137
3 136 171 106
3 137 106 171
3 108 138 132
3 109 139 174
3 174 140 109
3 141 111 175
3 142 175 111
3 117 141 180
3 180 148 117
3 160 128 161
3 129 161 128
3 129 149 162
3 163 130 182
3 150 182 130
3 165 132 138
3 166 133 132
3 133 166 168
3 135 195 169
3 195 135 164
3 170 200 136
3 171 136 200
3 138 173 165
3 139 165 173
3 173 174 139
3 175 180 141
3 181 162 149
3 182 160 163
3 161 163 160
3 162 181 194
3 196 168 166
3 168 196 199
3 169 199 196
3 199 169 195
3 194 210 170
3 200 170 210
3 210 194 181
3 270 243 258
3 276 267 242
3 243 277 268
3 243 270 281
3 258 282 270
3 283 260 261
3 286 273 260
3 287 264 265
3 288 274 264
3 267 276 289
3 278 276 242
3 277 243 281
3 290 268 277
3 282 258 280
3 292 271 274
3 260 283 286
3 293 283 261
3 271 294 284
3 295 285 273
3 273 286 295
3 264 287 288
3 265 296 287
3 274 288 292
3 296 265 275
3 289 275 267
3 276 278 297
3 268 290 291
3 280 300 282
3 271 292 301
3 283 293 302
3 294 271 301
3 304 284 294
3 300 280 285
3 285 295 300
3 275 289 296
3 299 297 278
3 305 291 290
3 307 302 293
3 284 304 303
3 297 299 298
3 291 305 306
3 298 306 305
3 306 298 299
3 302 307 308
3 310 303 304
3 309 308 307
3 303 310 309
3 308 309 310
3 5 11 20
3 5 21 11
3 11 31 20
3 32 5 20
3 11 21 13
3 33 21 5
3 11 13 31
3 23 41 13
3 23 13 21
3 31 45 20
3 5 32 33
3 46 32 20
3 33 47 21
3 39 31 13
3 13 55 39
3 41 60 13
3 41 23 61
3 21 61 23
3 20 45 65
3 31 66 45
3 33 32 47
3 68 46 20
3 61 21 47
3 39 56 31
3 83 39 55
3 84 55 13
3 39 83 56
3 60 84 13
3 60 41 88
3 61 88 41
3 92 65 45
3 93 20 65
3 94 45 66
3 56 66 31
3 47 32 88
3 46 68 95
3 47 88 61
3 83 55 114
3 84 114 55
3 56 83 76
3 84 60 114
3 88 32 60
3 65 92 121
3 122 92 45
3 20 93 123
3 94 122 45
3 66 107 94
3 56 76 66
3 97 95 68
3 107 66 76
3 76 134 107
3 114 32 83
3 76 83 134
3 60 32 114
3 121 92 151
3 92 122 134
3 93 153 123
3 122 94 107
3 126 157 32
3 97 155 95
3 107 134 122
3 83 32 134
3 92 32 151
3 121 151 183
3 134 32 92
3 153 93 184
3 123 153 185
3 192 126 156
3 157 126 193
3 157 151 32
3 155 97 158
3 211 183 151
3 123 185 214
3 187 216 154
3 158 190 155
3 213 126 192
3 126 220 193
3 211 187 183
3 216 187 237
3 154 216 235
3 154 235 212
3 215 217 190
3 215 190 158
3 220 126 213
3 187 211 237
3 236 217 215
3 217 236 218
3 0 22 11
3 13 12 6
3 31 11 22
3 10 37 24
3 24 37 10
3 12 13 39
3 37 10 49
3 49 10 37
3 28 33 62
3 47 62 33
3 70 21 35
3 21 70 61
3 66 52 75
3 55 84 115
3 52 66 107
3 83 144 114
3 147 115 84
3 57 77 94
3 122 94 77
3 144 176 114
3 144 83 177
3 83 145 178
3 114 179 146
3 176 201 114
3 177 83 203
3 178 145 205
3 206 83 178
3 145 146 207
3 208 146 179
3 209 179 114
3 201 222 114
3 203 83 224
3 226 205 145
3 228 83 206
3 207 146 230
3 231 145 207
3 230 146 208
3 234 209 114
3 222 240 114
3 224 83 244
3 226 145 231
3 247 83 228
3 240 234 114
3 244 83 257
3 262 83 247
3 257 83 262
3 144 202 176
3 177 204 144
3 176 223 201
3 223 176 202
3 202 144 204
3 203 225 177
3 204 177 225
3 205 227 178
3 178 229 206
3 208 179 232
3 179 209 233
3 201 241 222
3 241 201 223
3 224 245 203
3 225 203 245
3 226 246 205
3 229 178 227
3 227 205 246
3 228 206 248
3 249 206 229
3 230 250 207
3 207 251 231
3 230 208 250
3 233 232 179
3 232 250 208
3 252 233 209
3 209 234 252
3 240 222 255
3 256 222 241
3 224 244 245
3 246 226 259
3 231 259 226
3 247 228 263
3 249 248 206
3 248 263 228
3 251 207 250
3 259 231 251
3 266 252 234
3 234 240 266
3 256 255 222
3 255 266 240
3 244 257 269
3 269 245 244
3 262 247 272
3 263 272 247
3 257 262 279
3 279 269 257
3 272 279 262
3 32 46 67
3 95 67 46
3 96 32 67
3 68 20 97
3 65 124 93
3 95 96 67
3 32 96 126
3 127 97 20
3 65 121 152
3 123 127 20
3 124 65 152
3 124 154 93
3 96 95 155
3 127 158 97
3 183 152 121
3 127 123 186
3 183 124 152
3 154 124 187
3 93 154 188
3 158 127 186
3 93 188 184
3 184 212 153
3 153 213 185
3 123 215 186
3 124 183 187
3 212 188 154
3 193 221 157
3 151 157 211
3 186 215 158
3 188 212 184
3 153 212 235
3 235 213 153
3 185 213 192
3 185 236 214
3 214 215 123
3 185 192 219
3 238 193 220
3 221 193 239
3 221 211 157
3 213 235 253
3 185 219 236
3 214 236 254
3 215 214 254
3 237 193 216
3 238 235 216
3 236 219 218
3 213 238 220
3 216 193 238
3 193 237 239
3 237 221 239
3 221 237 211
3 235 238 253
3 238 213 253
3 215 254 236
