ply
format ascii 1.0
comment Generated by PyMesh
element vertex 462
property double x
property double y
property double z
element face 1900
property list uchar int vertex_indices
end_header
-0.135062 -0.142484 0.332461
0.15881 -0.100926 0.332461
0.15881 -0.142484 0.332461
-0.135062 -0.100926 0.332461
0.15881 -0.100926 0.341367
-0.135062 -0.142484 0.341367
0.15881 -0.142484 0.341367
-0.135062 -0.100926 0.341367
-0.135062 -0.142484 -0.332461
-0.135062 -0.100926 -0.341367
-0.135062 -0.142484 -0.341367
-0.135062 -0.100926 -0.332461
0.15881 -0.100926 -0.341367
0.15881 -0.142484 -0.341367
0.15881 -0.100926 -0.332461
0.15881 -0.142484 -0.332461
-0.117252 -0.100926 0.341367
0.140999 -0.100926 -0.341367
0.140999 -0.100926 0.341367
-0.117252 -0.100926 -0.341367
0.140999 -0.0964732 -0.341367
0.140999 -0.0964732 0.341367
-0.117252 -0.0964732 -0.341367
-0.117252 -0.0964732 0.341367
-0.152873 0.106862 -0.403703
-0.135062 0.106862 0.403703
-0.135062 0.106862 -0.403703
-0.152873 0.106862 0.403703
-0.135062 0.118736 -0.115768
-0.152873 0.13061 -0.42745
-0.152873 0.118736 -0.115768
-0.135062 0.13061 0.42745
-0.135062 0.160294 -0.115768
-0.135062 0.118736 -0.0979575
-0.135062 0.13061 -0.42745
-0.152873 0.172168 -0.42745
-0.152873 0.118736 -0.0979575
-0.152873 0.13061 -0.115768
-0.152873 0.13061 0.42745
-0.135062 0.172168 0.42745
-0.135062 0.14842 -0.115768
-0.135062 0.118736 0.0979575
-0.152873 0.160294 -0.115768
-0.152873 0.118736 0.0979575
-0.152873 0.172168 0.42745
-0.135062 0.118736 0.115768
-0.135062 0.172168 -0.42745
-0.135062 0.13061 -0.115768
-0.135062 0.160294 0.0979575
-0.152873 0.118736 0.115768
-0.152873 0.13061 -0.0979575
-0.152873 0.14842 -0.115768
-0.152873 0.160294 0.115768
-0.135062 0.13061 0.115768
-0.135062 0.160294 -0.0979575
-0.135062 0.14842 -0.0979575
-0.135062 0.13061 -0.0979575
-0.135062 0.14842 0.0979575
-0.152873 0.160294 -0.0979575
-0.152873 0.13061 0.115768
-0.152873 0.14842 -0.0979575
-0.152873 0.160294 0.0979575
-0.152873 0.14842 0.115768
-0.135062 0.14842 0.115768
-0.135062 0.13061 0.0979575
-0.152873 0.13061 0.0979575
-0.135062 0.160294 0.115768
-0.152873 0.14842 0.0979575
0.15881 0.106862 -0.403703
0.17662 0.106862 0.403703
0.17662 0.106862 -0.403703
0.15881 0.106862 0.403703
0.17662 0.118736 -0.115768
0.15881 0.13061 -0.42745
0.15881 0.118736 -0.115768
0.17662 0.13061 0.42745
0.17662 0.160294 -0.115768
0.17662 0.118736 -0.0979575
0.17662 0.13061 -0.42745
0.15881 0.172168 -0.42745
0.15881 0.118736 -0.0979575
0.15881 0.13061 -0.115768
0.15881 0.13061 0.42745
0.17662 0.172168 0.42745
0.17662 0.14842 -0.115768
0.17662 0.118736 0.0979575
0.15881 0.160294 -0.115768
0.15881 0.118736 0.0979575
0.15881 0.172168 0.42745
0.17662 0.118736 0.115768
0.17662 0.172168 -0.42745
0.17662 0.13061 -0.115768
0.17662 0.160294 0.0979575
0.15881 0.118736 0.115768
0.15881 0.13061 -0.0979575
0.15881 0.14842 -0.115768
0.15881 0.160294 0.115768
0.17662 0.13061 0.115768
0.17662 0.160294 -0.0979575
0.17662 0.14842 -0.0979575
0.17662 0.13061 -0.0979575
0.17662 0.14842 0.0979575
0.15881 0.160294 -0.0979575
0.15881 0.13061 0.115768
0.15881 0.14842 -0.0979575
0.15881 0.160294 0.0979575
0.15881 0.14842 0.115768
0.17662 0.14842 0.115768
0.17662 0.13061 0.0979575
0.15881 0.13061 0.0979575
0.17662 0.160294 0.115768
0.15881 0.14842 0.0979575
0.132094 -0.135063 0.111315
0.132094 -0.142484 0.10241
0.132094 -0.135063 0.10241
0.132094 -0.142484 0.111315
-0.108346 -0.135063 0.10241
0.140999 -0.135063 0.10241
-0.108346 -0.135063 0.111315
-0.108346 -0.142484 0.111315
-0.108346 -0.142484 0.10241
0.140999 -0.135063 0.111315
0.140999 -0.126158 0.111315
0.140999 -0.126158 0.10241
-0.117252 -0.135063 0.111315
0.132094 -0.126158 0.10241
0.132094 -0.126158 0.111315
-0.117252 -0.126158 0.10241
-0.117252 -0.135063 0.10241
-0.117252 -0.126158 0.111315
-0.108346 -0.126158 0.10241
0.132094 -0.117252 0.111315
-0.108346 -0.126158 0.111315
0.132094 -0.117252 0.10241
-0.108346 -0.117252 0.10241
0.140999 -0.117252 0.10241
-0.108346 -0.117252 0.111315
0.140999 -0.117252 0.111315
0.140999 -0.108347 0.111315
-0.117252 -0.117252 0.111315
0.140999 -0.108347 0.10241
-0.117252 -0.117252 0.10241
0.132094 -0.108347 0.10241
0.132094 -0.108347 0.111315
-0.117252 -0.108347 0.10241
-0.117252 -0.108347 0.111315
-0.108346 -0.108347 0.10241
0.132094 -0.100926 0.111315
-0.108346 -0.108347 0.111315
0.132094 -0.100926 0.10241
-0.108346 -0.100926 0.10241
-0.108346 -0.100926 0.111315
-0.117252 -0.142484 -0.332461
-0.117252 -0.135063 -0.111315
-0.117252 -0.100926 -0.332461
-0.117252 -0.142484 0.332461
-0.117252 -0.108347 -0.111315
-0.108346 -0.142484 -0.332461
-0.117252 -0.135063 -0.10241
-0.117252 -0.100926 0.332461
-0.117252 -0.126158 -0.111315
-0.108346 -0.100926 -0.332461
-0.108346 -0.142484 0.332461
-0.117252 -0.135063 0.10241
-0.108346 -0.135063 -0.111315
-0.117252 -0.108347 -0.10241
-0.117252 -0.117252 -0.111315
-0.117252 -0.135063 0.111315
-0.117252 -0.126158 -0.10241
-0.108346 -0.135063 -0.10241
-0.108346 -0.108347 -0.10241
-0.117252 -0.108347 0.10241
-0.108346 -0.100926 0.332461
-0.108346 -0.126158 -0.111315
-0.108346 -0.117252 -0.111315
-0.108346 -0.108347 -0.111315
-0.117252 -0.108347 0.111315
-0.117252 -0.126158 0.111315
-0.108346 -0.135063 0.10241
-0.117252 -0.117252 -0.10241
-0.108346 -0.117252 -0.10241
-0.108346 -0.126158 -0.10241
-0.108346 -0.135063 0.111315
-0.117252 -0.117252 0.111315
-0.117252 -0.126158 0.10241
-0.108346 -0.108347 0.10241
-0.108346 -0.126158 0.111315
-0.108346 -0.117252 0.111315
-0.117252 -0.117252 0.10241
-0.108346 -0.126158 0.10241
-0.108346 -0.108347 0.111315
-0.108346 -0.117252 0.10241
0.132094 -0.142484 -0.332461
0.132094 -0.135063 -0.111315
0.132094 -0.100926 -0.332461
0.132094 -0.142484 0.332461
0.132094 -0.108347 -0.111315
0.140999 -0.142484 -0.332461
0.132094 -0.135063 -0.10241
0.132094 -0.100926 0.332461
0.132094 -0.126158 -0.111315
0.140999 -0.100926 -0.332461
0.140999 -0.142484 0.332461
0.132094 -0.135063 0.10241
0.140999 -0.135063 -0.111315
0.132094 -0.108347 -0.10241
0.132094 -0.117252 -0.111315
0.132094 -0.135063 0.111315
0.132094 -0.126158 -0.10241
0.140999 -0.135063 -0.10241
0.140999 -0.108347 -0.10241
0.132094 -0.108347 0.10241
0.140999 -0.100926 0.332461
0.140999 -0.126158 -0.111315
0.140999 -0.117252 -0.111315
0.140999 -0.108347 -0.111315
0.132094 -0.108347 0.111315
0.132094 -0.126158 0.111315
0.140999 -0.135063 0.10241
0.132094 -0.117252 -0.10241
0.140999 -0.117252 -0.10241
0.140999 -0.126158 -0.10241
0.140999 -0.135063 0.111315
0.132094 -0.117252 0.111315
0.132094 -0.126158 0.10241
0.140999 -0.108347 0.10241
0.140999 -0.126158 0.111315
0.140999 -0.117252 0.111315
0.132094 -0.117252 0.10241
0.140999 -0.126158 0.10241
0.140999 -0.108347 0.111315
0.140999 -0.117252 0.10241
0.132094 -0.135063 -0.10241
0.132094 -0.142484 -0.111315
0.132094 -0.135063 -0.111315
0.132094 -0.142484 -0.10241
-0.108346 -0.135063 -0.111315
0.140999 -0.135063 -0.111315
-0.108346 -0.135063 -0.10241
-0.108346 -0.142484 -0.10241
-0.108346 -0.142484 -0.111315
0.140999 -0.135063 -0.10241
0.140999 -0.126158 -0.10241
0.140999 -0.126158 -0.111315
-0.117252 -0.135063 -0.10241
0.132094 -0.126158 -0.111315
0.132094 -0.126158 -0.10241
-0.117252 -0.126158 -0.111315
-0.117252 -0.135063 -0.111315
-0.117252 -0.126158 -0.10241
-0.108346 -0.126158 -0.111315
0.132094 -0.117252 -0.10241
-0.108346 -0.126158 -0.10241
0.132094 -0.117252 -0.111315
-0.108346 -0.117252 -0.111315
0.140999 -0.117252 -0.111315
-0.108346 -0.117252 -0.10241
0.140999 -0.117252 -0.10241
0.140999 -0.108347 -0.10241
-0.117252 -0.117252 -0.10241
0.140999 -0.108347 -0.111315
-0.117252 -0.117252 -0.111315
0.132094 -0.108347 -0.111315
0.132094 -0.108347 -0.10241
-0.117252 -0.108347 -0.111315
-0.117252 -0.108347 -0.10241
-0.108346 -0.108347 -0.111315
0.132094 -0.100926 -0.10241
-0.108346 -0.108347 -0.10241
0.132094 -0.100926 -0.111315
-0.108346 -0.100926 -0.111315
-0.108346 -0.100926 -0.10241
-0.152873 0.14842 -0.0979575
-0.152873 0.160294 -0.115768
-0.152873 0.14842 -0.115768
-0.152873 0.160294 -0.0979575
-0.135062 0.14842 -0.115768
-0.135062 0.14842 -0.0979575
0.17662 0.160294 -0.0979575
-0.135062 0.160294 -0.0979575
0.15881 0.14842 -0.115768
0.15881 0.160294 -0.0979575
-0.135062 0.160294 -0.115768
0.17662 0.14842 -0.115768
0.15881 0.13061 -0.115768
-0.135062 0.13061 -0.0979575
0.15881 0.14842 -0.0979575
-0.135062 0.172168 -0.0979575
0.0786631 0.163262 -0.0979575
0.17662 0.160294 -0.115768
0.17662 0.14842 -0.0979575
-0.135062 0.13061 -0.115768
0.15881 0.160294 -0.115768
-0.135062 0.172168 -0.115768
-0.0549152 0.163262 -0.0979575
0.15881 0.172168 -0.0979575
0.17662 0.13061 -0.115768
0.15881 0.13061 -0.0979575
-0.152873 0.13061 -0.115768
0.15881 0.160294 -0.115768
-0.0549152 0.163262 -0.115768
-0.0549152 0.172168 -0.0979575
0.0786631 0.172168 -0.0979575
0.0786631 0.163262 -0.115768
0.17662 0.13061 -0.0979575
-0.152873 0.13061 -0.0979575
0.15881 0.172168 -0.115768
-0.0549152 0.172168 -0.115768
0.0786631 0.172168 -0.115768
0.17662 0.118736 -0.115768
-0.152873 0.118736 -0.0979575
0.15881 0.118736 -0.115768
0.17662 0.118736 -0.0979575
-0.152873 0.118736 -0.115768
-0.135062 0.118736 -0.115768
0.15881 0.118736 -0.0979575
-0.135062 0.118736 -0.0979575
0.15881 0.106862 -0.115768
-0.135062 0.106862 -0.115768
0.15881 0.106862 -0.0979575
-0.135062 0.106862 -0.0979575
-0.152873 0.14842 0.115768
-0.152873 0.160294 0.0979575
-0.152873 0.14842 0.0979575
-0.152873 0.160294 0.115768
-0.135062 0.14842 0.0979575
-0.135062 0.14842 0.115768
0.17662 0.160294 0.115768
-0.135062 0.160294 0.115768
0.15881 0.14842 0.0979575
0.15881 0.160294 0.115768
-0.135062 0.160294 0.0979575
0.17662 0.14842 0.0979575
0.15881 0.13061 0.0979575
-0.135062 0.13061 0.115768
0.15881 0.14842 0.115768
-0.135062 0.172168 0.115768
0.0786631 0.163262 0.115768
0.17662 0.160294 0.0979575
0.17662 0.14842 0.115768
-0.135062 0.13061 0.0979575
0.15881 0.160294 0.0979575
-0.135062 0.172168 0.0979575
-0.0549152 0.163262 0.115768
0.15881 0.172168 0.115768
0.17662 0.13061 0.0979575
0.15881 0.13061 0.115768
-0.152873 0.13061 0.0979575
0.15881 0.160294 0.0979575
-0.0549152 0.163262 0.0979575
-0.0549152 0.172168 0.115768
0.0786631 0.172168 0.115768
0.0786631 0.163262 0.0979575
0.17662 0.13061 0.115768
-0.152873 0.13061 0.115768
0.15881 0.172168 0.0979575
-0.0549152 0.172168 0.0979575
0.0786631 0.172168 0.0979575
0.17662 0.118736 0.0979575
-0.152873 0.118736 0.115768
0.15881 0.118736 0.0979575
0.17662 0.118736 0.115768
-0.152873 0.118736 0.0979575
-0.135062 0.118736 0.0979575
0.15881 0.118736 0.115768
-0.135062 0.118736 0.115768
0.15881 0.106862 0.0979575
-0.135062 0.106862 0.0979575
0.15881 0.106862 0.115768
-0.135062 0.106862 0.115768
0.15881 0.172168 -0.314651
0.15881 0.106862 -0.332461
0.15881 0.172168 -0.332461
0.15881 0.106862 -0.314651
0.0786631 0.163262 -0.332461
0.0786631 0.172168 -0.332461
0.15881 -0.189978 -0.267157
0.140999 0.106862 -0.314651
0.15881 -0.189978 -0.332461
-0.0549152 0.163262 -0.332461
0.140999 0.172168 -0.314651
0.15881 0.172168 -0.267157
0.140999 0.106862 -0.332461
-0.135062 0.172168 -0.332461
0.0786631 0.163262 -0.314651
0.0786631 0.172168 -0.314651
0.140999 -0.189978 -0.267157
-0.117252 0.106862 -0.314651
0.140999 -0.189978 -0.332461
-0.0549152 0.172168 -0.332461
-0.0549152 0.163262 -0.314651
0.140999 0.172168 -0.267157
-0.117252 0.106862 -0.332461
-0.0549152 0.172168 -0.314651
-0.135062 0.106862 -0.332461
-0.135062 0.106862 -0.314651
-0.117252 -0.189978 -0.332461
-0.117252 0.172168 -0.314651
-0.117252 -0.189978 -0.267157
-0.135062 0.172168 -0.314651
-0.135062 -0.189978 -0.332461
-0.135062 -0.189978 -0.267157
-0.117252 0.172168 -0.267157
-0.135062 0.172168 -0.267157
-0.135062 0.172168 0.267157
-0.117252 0.172168 0.314651
-0.117252 0.172168 0.267157
-0.135062 0.172168 0.314651
-0.117252 -0.189978 0.267157
-0.135062 0.106862 0.314651
-0.117252 0.106862 0.314651
-0.135062 0.172168 0.332461
-0.135062 -0.189978 0.267157
-0.135062 -0.189978 0.332461
0.140999 0.106862 0.314651
-0.0549152 0.172168 0.332461
-0.117252 -0.189978 0.332461
-0.135062 0.106862 0.332461
-0.0549152 0.163262 0.314651
-0.117252 0.106862 0.332461
-0.0549152 0.172168 0.314651
-0.0549152 0.163262 0.332461
0.0786631 0.163262 0.314651
0.140999 0.106862 0.332461
0.15881 0.172168 0.332461
0.0786631 0.163262 0.332461
0.140999 0.172168 0.314651
0.15881 0.106862 0.314651
0.140999 -0.189978 0.332461
0.0786631 0.172168 0.314651
0.140999 0.172168 0.267157
0.15881 0.106862 0.332461
0.0786631 0.172168 0.332461
0.15881 0.172168 0.314651
0.15881 -0.189978 0.332461
0.140999 -0.189978 0.267157
0.15881 -0.189978 0.267157
0.15881 0.172168 0.267157
0.17662 0.189978 0.42745
0.0786631 0.172168 0.42745
0.17662 0.172168 0.42745
0.0667891 0.172168 0.42745
0.17662 0.172168 -0.42745
0.0667891 0.189978 0.42745
-0.0549152 0.172168 0.42745
0.0786631 0.172168 -0.42745
0.17662 0.189978 -0.42745
0.0667891 0.189978 -0.42745
-0.0549152 0.163262 0.42745
-0.0430418 0.172168 0.42745
0.0667891 0.172168 -0.42745
0.0786631 0.163262 -0.42745
0.0786631 0.163262 0.42745
-0.0549152 0.172168 -0.42745
-0.0430418 0.172168 -0.42745
-0.0430418 0.189978 0.42745
-0.0549152 0.163262 -0.42745
-0.17662 0.172168 0.42745
-0.17662 0.172168 -0.42745
-0.17662 0.189978 -0.42745
-0.0430418 0.189978 -0.42745
-0.17662 0.189978 0.42745
3 0 1 2
3 1 0 3
3 2 1 0
3 3 0 1
3 4 2 1
3 1 2 4
3 2 5 0
3 0 5 2
3 5 3 0
3 0 3 5
3 3 4 1
3 1 4 3
3 2 4 6
3 6 4 2
3 5 2 6
3 6 2 5
3 3 5 7
3 7 5 3
3 4 3 7
3 7 3 4
3 4 5 6
3 6 5 4
3 5 4 7
3 7 4 5
3 8 9 10
3 9 8 11
3 10 9 8
3 11 8 9
3 12 10 9
3 9 10 12
3 13 8 10
3 10 8 13
3 8 14 11
3 11 14 8
3 14 9 11
3 11 9 14
3 10 12 13
3 13 12 10
3 9 14 12
3 12 14 9
3 8 13 15
3 15 13 8
3 14 8 15
3 15 8 14
3 14 13 12
3 12 13 14
3 13 14 15
3 15 14 13
3 16 17 18
3 17 16 19
3 18 17 16
3 19 16 17
3 20 18 17
3 17 18 20
3 21 16 18
3 18 16 21
3 16 22 19
3 19 22 16
3 22 17 19
3 19 17 22
3 18 20 21
3 21 20 18
3 17 22 20
3 20 22 17
3 16 21 23
3 23 21 16
3 22 16 23
3 23 16 22
3 22 21 20
3 20 21 22
3 21 22 23
3 23 22 21
3 24 25 26
3 25 24 27
3 26 25 24
3 27 24 25
3 26 28 25
3 25 28 26
3 29 26 24
3 24 26 29
3 27 30 24
3 24 30 27
3 31 27 25
3 25 27 31
3 28 26 32
3 32 26 28
3 25 28 33
3 33 28 25
3 26 29 34
3 34 29 26
3 24 35 29
3 29 35 24
3 30 27 36
3 36 27 30
3 37 24 30
3 30 24 37
3 27 31 38
3 38 31 27
3 25 39 31
3 31 39 25
3 34 32 26
3 26 32 34
3 28 32 40
3 40 32 28
3 33 30 28
3 28 30 33
3 25 33 41
3 41 33 25
3 35 34 29
3 29 34 35
3 35 24 42
3 42 24 35
3 36 27 43
3 43 27 36
3 30 33 36
3 36 33 30
3 42 24 37
3 37 24 42
3 37 28 30
3 30 28 37
3 39 38 31
3 31 38 39
3 44 27 38
3 38 27 44
3 45 39 25
3 25 39 45
3 46 32 34
3 34 32 46
3 40 42 32
3 32 42 40
3 28 40 47
3 47 40 28
3 41 33 48
3 48 33 41
3 25 41 45
3 45 41 25
3 34 35 46
3 46 35 34
3 35 42 44
3 44 42 35
3 43 27 49
3 49 27 43
3 36 43 50
3 50 43 36
3 33 50 36
3 36 50 33
3 42 37 51
3 51 37 42
3 28 37 47
3 47 37 28
3 38 39 44
3 44 39 38
3 44 52 27
3 27 52 44
3 53 39 45
3 45 39 53
3 32 46 39
3 39 46 32
3 42 40 51
3 51 40 42
3 42 54 32
3 32 54 42
3 55 47 40
3 40 47 55
3 56 48 33
3 33 48 56
3 41 48 57
3 57 48 41
3 45 43 41
3 41 43 45
3 35 39 46
3 46 39 35
3 44 42 58
3 58 42 44
3 39 35 44
3 44 35 39
3 49 27 59
3 59 27 49
3 43 45 49
3 49 45 43
3 50 43 60
3 60 43 50
3 50 33 56
3 56 33 50
3 50 51 37
3 37 51 50
3 37 56 47
3 47 56 37
3 44 61 52
3 52 61 44
3 62 27 52
3 52 27 62
3 63 39 53
3 53 39 63
3 59 45 53
3 53 45 59
3 32 39 54
3 54 39 32
3 55 51 40
3 40 51 55
3 54 42 58
3 58 42 54
3 47 55 56
3 56 55 47
3 55 48 56
3 56 48 55
3 57 61 48
3 48 61 57
3 41 57 64
3 64 57 41
3 65 41 43
3 43 41 65
3 44 58 61
3 61 58 44
3 59 27 62
3 62 27 59
3 45 59 49
3 49 59 45
3 60 43 58
3 58 43 60
3 51 50 60
3 60 50 51
3 56 37 50
3 50 37 56
3 66 61 52
3 52 61 66
3 63 52 62
3 62 52 63
3 66 39 63
3 63 39 66
3 64 63 53
3 53 63 64
3 53 65 59
3 59 65 53
3 54 39 48
3 48 39 54
3 51 55 60
3 60 55 51
3 58 55 54
3 54 55 58
3 54 48 55
3 55 48 54
3 61 57 67
3 67 57 61
3 61 66 48
3 48 66 61
3 63 64 57
3 57 64 63
3 41 65 64
3 64 65 41
3 61 43 65
3 65 43 61
3 61 58 43
3 43 58 61
3 67 59 62
3 62 59 67
3 55 58 60
3 60 58 55
3 52 63 66
3 66 63 52
3 67 63 62
3 62 63 67
3 48 39 66
3 66 39 48
3 65 53 64
3 64 53 65
3 59 67 65
3 65 67 59
3 63 67 57
3 57 67 63
3 61 65 67
3 67 65 61
3 68 69 70
3 69 68 71
3 70 69 68
3 71 68 69
3 70 72 69
3 69 72 70
3 73 70 68
3 68 70 73
3 71 74 68
3 68 74 71
3 75 71 69
3 69 71 75
3 72 70 76
3 76 70 72
3 69 72 77
3 77 72 69
3 70 73 78
3 78 73 70
3 68 79 73
3 73 79 68
3 74 71 80
3 80 71 74
3 81 68 74
3 74 68 81
3 71 75 82
3 82 75 71
3 69 83 75
3 75 83 69
3 78 76 70
3 70 76 78
3 72 76 84
3 84 76 72
3 77 74 72
3 72 74 77
3 69 77 85
3 85 77 69
3 79 78 73
3 73 78 79
3 79 68 86
3 86 68 79
3 80 71 87
3 87 71 80
3 74 77 80
3 80 77 74
3 86 68 81
3 81 68 86
3 81 72 74
3 74 72 81
3 83 82 75
3 75 82 83
3 88 71 82
3 82 71 88
3 89 83 69
3 69 83 89
3 90 76 78
3 78 76 90
3 84 86 76
3 76 86 84
3 72 84 91
3 91 84 72
3 85 77 92
3 92 77 85
3 69 85 89
3 89 85 69
3 78 79 90
3 90 79 78
3 79 86 88
3 88 86 79
3 87 71 93
3 93 71 87
3 80 87 94
3 94 87 80
3 77 94 80
3 80 94 77
3 86 81 95
3 95 81 86
3 72 81 91
3 91 81 72
3 82 83 88
3 88 83 82
3 88 96 71
3 71 96 88
3 97 83 89
3 89 83 97
3 76 90 83
3 83 90 76
3 86 84 95
3 95 84 86
3 86 98 76
3 76 98 86
3 99 91 84
3 84 91 99
3 100 92 77
3 77 92 100
3 85 92 101
3 101 92 85
3 89 87 85
3 85 87 89
3 79 83 90
3 90 83 79
3 88 86 102
3 102 86 88
3 83 79 88
3 88 79 83
3 93 71 103
3 103 71 93
3 87 89 93
3 93 89 87
3 94 87 104
3 104 87 94
3 94 77 100
3 100 77 94
3 94 95 81
3 81 95 94
3 81 100 91
3 91 100 81
3 88 105 96
3 96 105 88
3 106 71 96
3 96 71 106
3 107 83 97
3 97 83 107
3 103 89 97
3 97 89 103
3 76 83 98
3 98 83 76
3 99 95 84
3 84 95 99
3 98 86 102
3 102 86 98
3 91 99 100
3 100 99 91
3 99 92 100
3 100 92 99
3 101 105 92
3 92 105 101
3 85 101 108
3 108 101 85
3 109 85 87
3 87 85 109
3 88 102 105
3 105 102 88
3 103 71 106
3 106 71 103
3 89 103 93
3 93 103 89
3 104 87 102
3 102 87 104
3 95 94 104
3 104 94 95
3 100 81 94
3 94 81 100
3 110 105 96
3 96 105 110
3 107 96 106
3 106 96 107
3 110 83 107
3 107 83 110
3 108 107 97
3 97 107 108
3 97 109 103
3 103 109 97
3 98 83 92
3 92 83 98
3 95 99 104
3 104 99 95
3 102 99 98
3 98 99 102
3 98 92 99
3 99 92 98
3 105 101 111
3 111 101 105
3 105 110 92
3 92 110 105
3 107 108 101
3 101 108 107
3 85 109 108
3 108 109 85
3 105 87 109
3 109 87 105
3 105 102 87
3 87 102 105
3 111 103 106
3 106 103 111
3 99 102 104
3 104 102 99
3 96 107 110
3 110 107 96
3 111 107 106
3 106 107 111
3 92 83 110
3 110 83 92
3 109 97 108
3 108 97 109
3 103 111 109
3 109 111 103
3 107 111 101
3 101 111 107
3 105 109 111
3 111 109 105
3 112 113 114
3 113 112 115
3 114 113 112
3 115 112 113
3 113 116 114
3 114 116 113
3 117 112 114
3 114 112 117
3 118 115 112
3 112 115 118
3 119 113 115
3 115 113 119
3 116 113 120
3 120 113 116
3 114 116 117
3 117 116 114
3 112 117 121
3 121 117 112
3 115 118 119
3 119 118 115
3 112 122 118
3 118 122 112
3 113 119 120
3 120 119 113
3 119 116 120
3 120 116 119
3 117 116 123
3 123 116 117
3 117 122 121
3 121 122 117
3 122 112 121
3 121 112 122
3 116 119 118
3 118 119 116
3 118 122 124
3 124 122 118
3 123 116 125
3 125 116 123
3 122 117 123
3 123 117 122
3 124 116 118
3 118 116 124
3 124 122 126
3 126 122 124
3 116 127 125
3 125 127 116
3 125 122 123
3 123 122 125
3 116 124 128
3 128 124 116
3 122 125 126
3 126 125 122
3 124 126 129
3 129 126 124
3 127 116 128
3 128 116 127
3 125 127 130
3 130 127 125
3 124 127 128
3 128 127 124
3 125 131 126
3 126 131 125
3 129 126 132
3 132 126 129
3 127 124 129
3 129 124 127
3 127 132 130
3 130 132 127
3 125 130 133
3 133 130 125
3 131 125 133
3 133 125 131
3 131 132 126
3 126 132 131
3 132 127 129
3 129 127 132
3 132 134 130
3 130 134 132
3 133 130 134
3 134 130 133
3 135 131 133
3 133 131 135
3 132 131 136
3 136 131 132
3 134 132 136
3 136 132 134
3 133 134 135
3 135 134 133
3 131 135 137
3 137 135 131
3 131 138 136
3 136 138 131
3 139 134 136
3 136 134 139
3 135 134 140
3 140 134 135
3 135 138 137
3 137 138 135
3 138 131 137
3 137 131 138
3 136 138 139
3 139 138 136
3 134 139 141
3 141 139 134
3 140 134 142
3 142 134 140
3 138 135 140
3 140 135 138
3 139 138 143
3 143 138 139
3 139 144 141
3 141 144 139
3 144 134 141
3 141 134 144
3 134 144 142
3 142 144 134
3 142 138 140
3 140 138 142
3 138 142 143
3 143 142 138
3 139 143 145
3 145 143 139
3 144 139 145
3 145 139 144
3 142 144 146
3 146 144 142
3 142 147 143
3 143 147 142
3 145 143 148
3 148 143 145
3 148 144 145
3 145 144 148
3 144 148 146
3 146 148 144
3 142 146 149
3 149 146 142
3 147 142 149
3 149 142 147
3 147 148 143
3 143 148 147
3 148 150 146
3 146 150 148
3 149 146 150
3 150 146 149
3 150 147 149
3 149 147 150
3 148 147 151
3 151 147 148
3 150 148 151
3 151 148 150
3 147 150 151
3 151 150 147
3 152 153 154
3 153 152 155
3 154 153 152
3 155 152 153
3 156 154 153
3 153 154 156
3 154 157 152
3 152 157 154
3 157 155 152
3 152 155 157
3 153 155 158
3 158 155 153
3 154 156 159
3 159 156 154
3 156 153 160
3 160 153 156
3 157 154 161
3 161 154 157
3 155 157 162
3 162 157 155
3 158 155 163
3 163 155 158
3 164 158 153
3 153 158 164
3 159 156 165
3 165 156 159
3 159 161 154
3 154 161 159
3 160 164 153
3 153 164 160
3 156 160 166
3 166 160 156
3 164 157 161
3 161 157 164
3 157 164 162
3 162 164 157
3 162 159 155
3 155 159 162
3 163 155 167
3 167 155 163
3 158 163 168
3 168 163 158
3 158 164 169
3 169 164 158
3 170 156 165
3 165 156 170
3 159 165 171
3 171 165 159
3 161 159 172
3 172 159 161
3 164 160 173
3 173 160 164
3 168 166 160
3 160 166 168
3 156 174 166
3 166 174 156
3 164 161 175
3 175 161 164
3 162 164 169
3 169 164 162
3 159 162 172
3 172 162 159
3 159 176 155
3 155 176 159
3 167 155 177
3 177 155 167
3 178 167 163
3 163 167 178
3 168 163 179
3 179 163 168
3 169 168 158
3 158 168 169
3 156 170 175
3 175 170 156
3 165 180 170
3 170 180 165
3 171 165 163
3 163 165 171
3 159 171 176
3 176 171 159
3 172 175 161
3 161 175 172
3 160 181 173
3 173 181 160
3 164 174 173
3 173 174 164
3 166 168 179
3 179 168 166
3 181 160 168
3 168 160 181
3 174 156 175
3 175 156 174
3 174 179 166
3 166 179 174
3 164 175 174
3 174 175 164
3 162 169 178
3 178 169 162
3 182 172 162
3 162 172 182
3 183 155 176
3 176 155 183
3 177 155 183
3 183 155 177
3 182 177 167
3 167 177 182
3 167 178 182
3 182 178 167
3 184 178 163
3 163 178 184
3 179 163 165
3 165 163 179
3 168 169 181
3 181 169 168
3 175 172 170
3 170 172 175
3 180 165 179
3 179 165 180
3 170 185 180
3 180 185 170
3 171 163 184
3 184 163 171
3 185 176 171
3 171 176 185
3 173 180 181
3 181 180 173
3 180 173 174
3 174 173 180
3 179 174 180
3 180 174 179
3 178 169 185
3 185 169 178
3 162 178 182
3 182 178 162
3 186 172 182
3 182 172 186
3 176 187 183
3 183 187 176
3 188 177 183
3 183 177 188
3 177 182 186
3 186 182 177
3 178 184 189
3 189 184 178
3 181 185 169
3 169 185 181
3 170 172 185
3 185 172 170
3 180 185 181
3 181 185 180
3 171 184 188
3 188 184 171
3 176 185 190
3 190 185 176
3 171 191 185
3 185 191 171
3 178 185 191
3 191 185 178
3 187 172 186
3 186 172 187
3 187 176 190
3 190 176 187
3 187 188 183
3 183 188 187
3 177 188 184
3 184 188 177
3 189 177 186
3 186 177 189
3 177 189 184
3 184 189 177
3 178 191 189
3 189 191 178
3 185 172 190
3 190 172 185
3 191 171 188
3 188 171 191
3 190 172 187
3 187 172 190
3 189 187 186
3 186 187 189
3 188 187 191
3 191 187 188
3 187 189 191
3 191 189 187
3 192 193 194
3 193 192 195
3 194 193 192
3 195 192 193
3 196 194 193
3 193 194 196
3 194 197 192
3 192 197 194
3 197 195 192
3 192 195 197
3 193 195 198
3 198 195 193
3 194 196 199
3 199 196 194
3 196 193 200
3 200 193 196
3 197 194 201
3 201 194 197
3 195 197 202
3 202 197 195
3 198 195 203
3 203 195 198
3 204 198 193
3 193 198 204
3 199 196 205
3 205 196 199
3 199 201 194
3 194 201 199
3 200 204 193
3 193 204 200
3 196 200 206
3 206 200 196
3 204 197 201
3 201 197 204
3 197 204 202
3 202 204 197
3 202 199 195
3 195 199 202
3 203 195 207
3 207 195 203
3 198 203 208
3 208 203 198
3 198 204 209
3 209 204 198
3 210 196 205
3 205 196 210
3 199 205 211
3 211 205 199
3 201 199 212
3 212 199 201
3 204 200 213
3 213 200 204
3 208 206 200
3 200 206 208
3 196 214 206
3 206 214 196
3 204 201 215
3 215 201 204
3 202 204 209
3 209 204 202
3 199 202 212
3 212 202 199
3 199 216 195
3 195 216 199
3 207 195 217
3 217 195 207
3 218 207 203
3 203 207 218
3 208 203 219
3 219 203 208
3 209 208 198
3 198 208 209
3 196 210 215
3 215 210 196
3 205 220 210
3 210 220 205
3 211 205 203
3 203 205 211
3 199 211 216
3 216 211 199
3 212 215 201
3 201 215 212
3 200 221 213
3 213 221 200
3 204 214 213
3 213 214 204
3 206 208 219
3 219 208 206
3 221 200 208
3 208 200 221
3 214 196 215
3 215 196 214
3 214 219 206
3 206 219 214
3 204 215 214
3 214 215 204
3 202 209 218
3 218 209 202
3 222 212 202
3 202 212 222
3 223 195 216
3 216 195 223
3 217 195 223
3 223 195 217
3 222 217 207
3 207 217 222
3 207 218 222
3 222 218 207
3 224 218 203
3 203 218 224
3 219 203 205
3 205 203 219
3 208 209 221
3 221 209 208
3 215 212 210
3 210 212 215
3 220 205 219
3 219 205 220
3 210 225 220
3 220 225 210
3 211 203 224
3 224 203 211
3 225 216 211
3 211 216 225
3 213 220 221
3 221 220 213
3 220 213 214
3 214 213 220
3 219 214 220
3 220 214 219
3 218 209 225
3 225 209 218
3 202 218 222
3 222 218 202
3 226 212 222
3 222 212 226
3 216 227 223
3 223 227 216
3 228 217 223
3 223 217 228
3 217 222 226
3 226 222 217
3 218 224 229
3 229 224 218
3 221 225 209
3 209 225 221
3 210 212 225
3 225 212 210
3 220 225 221
3 221 225 220
3 211 224 228
3 228 224 211
3 216 225 230
3 230 225 216
3 211 231 225
3 225 231 211
3 218 225 231
3 231 225 218
3 227 212 226
3 226 212 227
3 227 216 230
3 230 216 227
3 227 228 223
3 223 228 227
3 217 228 224
3 224 228 217
3 229 217 226
3 226 217 229
3 217 229 224
3 224 229 217
3 218 231 229
3 229 231 218
3 225 212 230
3 230 212 225
3 231 211 228
3 228 211 231
3 230 212 227
3 227 212 230
3 229 227 226
3 226 227 229
3 228 227 231
3 231 227 228
3 227 229 231
3 231 229 227
3 232 233 234
3 233 232 235
3 234 233 232
3 235 232 233
3 233 236 234
3 234 236 233
3 237 232 234
3 234 232 237
3 238 235 232
3 232 235 238
3 239 233 235
3 235 233 239
3 236 233 240
3 240 233 236
3 234 236 237
3 237 236 234
3 232 237 241
3 241 237 232
3 235 238 239
3 239 238 235
3 232 242 238
3 238 242 232
3 233 239 240
3 240 239 233
3 239 236 240
3 240 236 239
3 237 236 243
3 243 236 237
3 237 242 241
3 241 242 237
3 242 232 241
3 241 232 242
3 236 239 238
3 238 239 236
3 238 242 244
3 244 242 238
3 243 236 245
3 245 236 243
3 242 237 243
3 243 237 242
3 244 236 238
3 238 236 244
3 244 242 246
3 246 242 244
3 236 247 245
3 245 247 236
3 245 242 243
3 243 242 245
3 236 244 248
3 248 244 236
3 242 245 246
3 246 245 242
3 244 246 249
3 249 246 244
3 247 236 248
3 248 236 247
3 245 247 250
3 250 247 245
3 244 247 248
3 248 247 244
3 245 251 246
3 246 251 245
3 249 246 252
3 252 246 249
3 247 244 249
3 249 244 247
3 247 252 250
3 250 252 247
3 245 250 253
3 253 250 245
3 251 245 253
3 253 245 251
3 251 252 246
3 246 252 251
3 252 247 249
3 249 247 252
3 252 254 250
3 250 254 252
3 253 250 254
3 254 250 253
3 255 251 253
3 253 251 255
3 252 251 256
3 256 251 252
3 254 252 256
3 256 252 254
3 253 254 255
3 255 254 253
3 251 255 257
3 257 255 251
3 251 258 256
3 256 258 251
3 259 254 256
3 256 254 259
3 255 254 260
3 260 254 255
3 255 258 257
3 257 258 255
3 258 251 257
3 257 251 258
3 256 258 259
3 259 258 256
3 254 259 261
3 261 259 254
3 260 254 262
3 262 254 260
3 258 255 260
3 260 255 258
3 259 258 263
3 263 258 259
3 259 264 261
3 261 264 259
3 264 254 261
3 261 254 264
3 254 264 262
3 262 264 254
3 262 258 260
3 260 258 262
3 258 262 263
3 263 262 258
3 259 263 265
3 265 263 259
3 264 259 265
3 265 259 264
3 262 264 266
3 266 264 262
3 262 267 263
3 263 267 262
3 265 263 268
3 268 263 265
3 268 264 265
3 265 264 268
3 264 268 266
3 266 268 264
3 262 266 269
3 269 266 262
3 267 262 269
3 269 262 267
3 267 268 263
3 263 268 267
3 268 270 266
3 266 270 268
3 269 266 270
3 270 266 269
3 270 267 269
3 269 267 270
3 268 267 271
3 271 267 268
3 270 268 271
3 271 268 270
3 267 270 271
3 271 270 267
3 272 273 274
3 273 272 275
3 274 273 272
3 275 272 273
3 273 276 274
3 274 276 273
3 274 277 272
3 272 277 274
3 272 278 275
3 275 278 272
3 279 273 275
3 275 273 279
3 276 273 280
3 280 273 276
3 277 274 276
3 276 274 277
3 277 278 272
3 272 278 277
3 275 278 281
3 281 278 275
3 273 279 282
3 282 279 273
3 275 281 279
3 279 281 275
3 280 273 283
3 283 273 280
3 284 276 280
3 280 276 284
3 276 285 277
3 277 285 276
3 286 278 277
3 277 278 286
3 278 282 281
3 281 282 278
3 281 282 279
3 279 282 281
3 287 282 279
3 279 282 287
3 281 282 279
3 279 282 281
3 281 288 279
3 279 288 281
3 283 273 289
3 289 273 283
3 290 280 283
3 283 280 290
3 276 284 291
3 291 284 276
3 286 284 280
3 280 284 286
3 285 276 291
3 291 276 285
3 285 286 277
3 277 286 285
3 278 286 290
3 290 286 278
3 282 278 289
3 289 278 282
3 282 281 292
3 292 281 282
3 282 287 293
3 293 287 282
3 279 294 287
3 287 294 279
3 288 281 295
3 295 281 288
3 294 279 288
3 288 279 294
3 278 283 289
3 289 283 278
3 280 290 286
3 286 290 280
3 283 278 290
3 290 278 283
3 296 291 284
3 284 291 296
3 284 286 297
3 297 286 284
3 298 285 291
3 291 285 298
3 286 285 297
3 297 285 286
3 299 295 281
3 281 295 299
3 282 300 299
3 299 300 282
3 301 293 287
3 287 293 301
3 300 282 293
3 293 282 300
3 287 294 301
3 301 294 287
3 288 295 302
3 302 295 288
3 303 294 288
3 288 294 303
3 296 298 291
3 291 298 296
3 284 304 296
3 296 304 284
3 304 284 297
3 297 284 304
3 285 298 305
3 305 298 285
3 305 297 285
3 285 297 305
3 295 299 306
3 306 299 295
3 303 299 300
3 300 299 303
3 293 301 307
3 307 301 293
3 300 293 307
3 307 293 300
3 300 301 294
3 294 301 300
3 306 302 295
3 295 302 306
3 308 288 302
3 302 288 308
3 294 303 300
3 300 303 294
3 288 308 303
3 303 308 288
3 309 298 296
3 296 298 309
3 304 309 296
3 296 309 304
3 305 304 297
3 297 304 305
3 298 310 305
3 305 310 298
3 299 303 306
3 306 303 299
3 301 300 307
3 307 300 301
3 302 306 308
3 308 306 302
3 306 303 308
3 308 303 306
3 311 298 309
3 309 298 311
3 309 304 312
3 312 304 309
3 310 304 305
3 305 304 310
3 310 298 313
3 313 298 310
3 314 298 311
3 311 298 314
3 312 311 309
3 309 311 312
3 304 315 312
3 312 315 304
3 316 304 310
3 310 304 316
3 298 314 313
3 313 314 298
3 313 316 310
3 310 316 313
3 317 314 311
3 311 314 317
3 311 312 315
3 315 312 311
3 315 304 316
3 316 304 315
3 316 313 314
3 314 313 316
3 314 317 318
3 318 317 314
3 311 319 317
3 317 319 311
3 319 311 315
3 315 311 319
3 320 315 316
3 316 315 320
3 314 320 316
3 316 320 314
3 317 320 318
3 318 320 317
3 320 314 318
3 318 314 320
3 320 317 319
3 319 317 320
3 315 320 319
3 319 320 315
3 321 322 323
3 322 321 324
3 323 322 321
3 324 321 322
3 322 325 323
3 323 325 322
3 323 326 321
3 321 326 323
3 321 327 324
3 324 327 321
3 328 322 324
3 324 322 328
3 325 322 329
3 329 322 325
3 326 323 325
3 325 323 326
3 326 327 321
3 321 327 326
3 324 327 330
3 330 327 324
3 322 328 331
3 331 328 322
3 324 330 328
3 328 330 324
3 329 322 332
3 332 322 329
3 333 325 329
3 329 325 333
3 325 334 326
3 326 334 325
3 335 327 326
3 326 327 335
3 327 331 330
3 330 331 327
3 330 331 328
3 328 331 330
3 336 331 328
3 328 331 336
3 330 331 328
3 328 331 330
3 330 337 328
3 328 337 330
3 332 322 338
3 338 322 332
3 339 329 332
3 332 329 339
3 325 333 340
3 340 333 325
3 335 333 329
3 329 333 335
3 334 325 340
3 340 325 334
3 334 335 326
3 326 335 334
3 327 335 339
3 339 335 327
3 331 327 338
3 338 327 331
3 331 330 341
3 341 330 331
3 331 336 342
3 342 336 331
3 328 343 336
3 336 343 328
3 337 330 344
3 344 330 337
3 343 328 337
3 337 328 343
3 327 332 338
3 338 332 327
3 329 339 335
3 335 339 329
3 332 327 339
3 339 327 332
3 345 340 333
3 333 340 345
3 333 335 346
3 346 335 333
3 347 334 340
3 340 334 347
3 335 334 346
3 346 334 335
3 348 344 330
3 330 344 348
3 331 349 348
3 348 349 331
3 350 342 336
3 336 342 350
3 349 331 342
3 342 331 349
3 336 343 350
3 350 343 336
3 337 344 351
3 351 344 337
3 352 343 337
3 337 343 352
3 345 347 340
3 340 347 345
3 333 353 345
3 345 353 333
3 353 333 346
3 346 333 353
3 334 347 354
3 354 347 334
3 354 346 334
3 334 346 354
3 344 348 355
3 355 348 344
3 352 348 349
3 349 348 352
3 342 350 356
3 356 350 342
3 349 342 356
3 356 342 349
3 349 350 343
3 343 350 349
3 355 351 344
3 344 351 355
3 357 337 351
3 351 337 357
3 343 352 349
3 349 352 343
3 337 357 352
3 352 357 337
3 358 347 345
3 345 347 358
3 353 358 345
3 345 358 353
3 354 353 346
3 346 353 354
3 347 359 354
3 354 359 347
3 348 352 355
3 355 352 348
3 350 349 356
3 356 349 350
3 351 355 357
3 357 355 351
3 355 352 357
3 357 352 355
3 360 347 358
3 358 347 360
3 358 353 361
3 361 353 358
3 359 353 354
3 354 353 359
3 359 347 362
3 362 347 359
3 363 347 360
3 360 347 363
3 361 360 358
3 358 360 361
3 353 364 361
3 361 364 353
3 365 353 359
3 359 353 365
3 347 363 362
3 362 363 347
3 362 365 359
3 359 365 362
3 366 363 360
3 360 363 366
3 360 361 364
3 364 361 360
3 364 353 365
3 365 353 364
3 365 362 363
3 363 362 365
3 363 366 367
3 367 366 363
3 360 368 366
3 366 368 360
3 368 360 364
3 364 360 368
3 369 364 365
3 365 364 369
3 363 369 365
3 365 369 363
3 366 369 367
3 367 369 366
3 369 363 367
3 367 363 369
3 369 366 368
3 368 366 369
3 364 369 368
3 368 369 364
3 370 371 372
3 371 370 373
3 372 371 370
3 373 370 371
3 371 374 372
3 372 374 371
3 375 370 372
3 372 370 375
3 376 373 370
3 370 373 376
3 370 377 373
3 373 377 370
3 373 378 371
3 371 378 373
3 377 371 373
3 373 371 377
3 374 371 379
3 379 371 374
3 372 374 375
3 375 374 372
3 370 375 380
3 380 375 370
3 378 373 376
3 376 373 378
3 376 370 381
3 381 370 376
3 377 370 380
3 380 370 377
3 378 382 371
3 371 382 378
3 371 377 382
3 382 377 371
3 371 383 379
3 379 383 371
3 379 384 374
3 374 384 379
3 384 375 374
3 374 375 384
3 380 375 385
3 385 375 380
3 380 381 370
3 370 381 380
3 386 378 376
3 376 378 386
3 381 386 376
3 376 386 381
3 377 386 380
3 380 386 377
3 380 387 377
3 377 387 380
3 382 378 388
3 388 378 382
3 382 383 371
3 371 383 382
3 382 386 377
3 377 386 382
3 387 382 377
3 377 382 387
3 379 383 389
3 389 383 379
3 384 379 390
3 390 379 384
3 375 384 385
3 385 384 375
3 384 380 385
3 385 380 384
3 381 380 391
3 391 380 381
3 378 386 388
3 388 386 378
3 386 381 391
3 391 381 386
3 380 386 391
3 391 386 380
3 387 380 384
3 384 380 387
3 386 382 388
3 388 382 386
3 392 383 382
3 382 383 392
3 382 387 392
3 392 387 382
3 383 393 389
3 389 393 383
3 393 379 389
3 389 379 393
3 379 393 390
3 390 393 379
3 390 387 384
3 384 387 390
3 383 392 394
3 394 392 383
3 395 392 387
3 387 392 395
3 387 396 392
3 392 396 387
3 393 383 397
3 397 383 393
3 397 390 393
3 393 390 397
3 387 390 397
3 397 390 387
3 396 394 392
3 392 394 396
3 392 395 394
3 394 395 392
3 395 383 394
3 394 383 395
3 397 395 387
3 387 395 397
3 396 387 398
3 398 387 396
3 397 383 399
3 399 383 397
3 398 387 397
3 397 387 398
3 394 396 400
3 400 396 394
3 394 401 395
3 395 401 394
3 383 395 399
3 399 395 383
3 395 397 399
3 399 397 395
3 401 396 398
3 398 396 401
3 399 402 397
3 397 402 399
3 398 397 402
3 402 397 398
3 396 401 400
3 400 401 396
3 401 394 400
3 400 394 401
3 395 401 399
3 399 401 395
3 402 401 398
3 398 401 402
3 402 399 403
3 403 399 402
3 399 401 403
3 403 401 399
3 401 402 403
3 403 402 401
3 404 405 406
3 405 404 407
3 406 405 404
3 407 404 405
3 405 408 406
3 406 408 405
3 408 404 406
3 406 404 408
3 404 409 407
3 407 409 404
3 410 407 405
3 405 407 410
3 411 405 407
3 407 405 411
3 408 405 410
3 410 405 408
3 404 408 412
3 412 408 404
3 404 413 409
3 409 413 404
3 407 410 409
3 409 410 407
3 409 411 407
3 407 411 409
3 405 414 410
3 410 414 405
3 415 405 411
3 411 405 415
3 408 410 416
3 416 410 408
3 416 412 408
3 408 412 416
3 413 404 412
3 412 404 413
3 409 413 417
3 417 413 409
3 410 417 409
3 409 417 410
3 411 409 417
3 417 409 411
3 414 405 418
3 418 405 414
3 414 419 410
3 410 419 414
3 405 415 420
3 420 415 405
3 411 421 415
3 415 421 411
3 416 410 419
3 419 410 416
3 412 416 413
3 413 416 412
3 413 419 417
3 417 419 413
3 417 410 419
3 419 410 417
3 417 421 411
3 411 421 417
3 418 405 420
3 420 405 418
3 422 414 418
3 418 414 422
3 419 414 423
3 423 414 419
3 415 418 420
3 420 418 415
3 418 415 421
3 421 415 418
3 419 413 416
3 416 413 419
3 419 424 417
3 417 424 419
3 421 417 425
3 425 417 421
3 414 422 426
3 426 422 414
3 418 425 422
3 422 425 418
3 427 423 414
3 414 423 427
3 414 428 423
3 423 428 414
3 423 424 419
3 419 424 423
3 425 418 421
3 421 418 425
3 417 424 425
3 425 424 417
3 426 422 429
3 429 422 426
3 426 427 414
3 414 427 426
3 430 414 426
3 426 414 430
3 425 429 422
3 422 429 425
3 423 427 431
3 431 427 423
3 430 428 414
3 414 428 430
3 428 431 423
3 423 431 428
3 424 423 431
3 431 423 424
3 425 424 432
3 432 424 425
3 432 426 429
3 429 426 432
3 427 426 433
3 433 426 427
3 424 430 426
3 426 430 424
3 429 425 432
3 432 425 429
3 434 427 431
3 431 427 434
3 427 424 431
3 431 424 427
3 428 430 435
3 435 430 428
3 431 428 434
3 434 428 431
3 424 426 432
3 432 426 424
3 436 433 427
3 427 433 436
3 424 427 433
3 433 427 424
3 433 430 424
3 424 430 433
3 436 427 434
3 434 427 436
3 430 436 435
3 435 436 430
3 435 434 428
3 428 434 435
3 433 436 437
3 437 436 433
3 430 433 437
3 437 433 430
3 434 435 436
3 436 435 434
3 436 430 437
3 437 430 436
3 438 439 440
3 439 438 441
3 440 439 438
3 441 438 439
3 439 442 440
3 440 442 439
3 442 438 440
3 440 438 442
3 441 438 443
3 443 438 441
3 444 439 441
3 441 439 444
3 441 445 439
3 439 445 441
3 442 439 445
3 445 439 442
3 438 442 446
3 446 442 438
3 438 447 443
3 443 447 438
3 447 441 443
3 443 441 447
3 448 439 444
3 444 439 448
3 444 441 449
3 449 441 444
3 445 441 450
3 450 441 445
3 439 451 445
3 445 451 439
3 445 447 442
3 442 447 445
3 442 447 446
3 446 447 442
3 447 438 446
3 446 438 447
3 441 447 450
3 450 447 441
3 439 448 452
3 452 448 439
3 453 448 444
3 444 448 453
3 441 454 449
3 449 454 441
3 455 444 449
3 449 444 455
3 444 454 449
3 449 454 444
3 454 441 450
3 450 441 454
3 447 445 450
3 450 445 447
3 445 454 450
3 450 454 445
3 451 439 452
3 452 439 451
3 451 453 445
3 445 453 451
3 448 451 452
3 452 451 448
3 448 453 456
3 456 453 448
3 457 453 444
3 444 453 457
3 454 444 453
3 453 444 454
3 454 455 449
3 449 455 454
3 444 455 457
3 457 455 444
3 445 453 454
3 454 453 445
3 453 451 456
3 456 451 453
3 451 448 456
3 456 448 451
3 453 457 458
3 458 457 453
3 453 459 454
3 454 459 453
3 455 454 460
3 460 454 455
3 457 455 461
3 461 455 457
3 457 459 458
3 458 459 457
3 459 453 458
3 458 453 459
3 454 459 460
3 460 459 454
3 459 455 460
3 460 455 459
3 455 459 461
3 461 459 455
3 459 457 461
3 461 457 459
