ply
format ascii 1.0
comment Generated by PyMesh
element vertex 555
property double x
property double y
property double z
element face 2188
property list uchar int vertex_indices
end_header
-0.047729 0.0565398 -0.334599
-0.0466464 0.0565398 -0.360462
-0.04889 0.0565398 -0.347602
-0.0432417 0.0565398 -0.32234
-0.04889 -0.0595818 -0.347602
-0.047729 -0.0595818 -0.334599
-0.0432417 -0.0595818 -0.32234
-0.0411508 0.0565398 -0.372304
-0.0466464 -0.0595818 -0.360462
-0.0357346 -0.0595818 -0.31166
-0.0357346 0.0565398 -0.31166
-0.0411508 -0.0595818 -0.372304
-0.0327777 0.0565398 -0.382319
-0.0257188 0.0565398 -0.303287
-0.0327777 -0.0595818 -0.382319
-0.0257188 -0.0595818 -0.303287
-0.0220974 0.0565398 -0.389827
-0.0138775 0.0565398 -0.297791
-0.0220974 -0.0595818 -0.389827
-0.0138775 -0.0595818 -0.297791
-0.00983848 0.0565398 -0.394314
-0.00983848 -0.0595818 -0.394314
-0.00101715 0.0565398 -0.295547
-0.00101715 -0.0595818 -0.295547
0.00316423 0.0565398 -0.395475
0.00316423 -0.0595818 -0.395475
0.0119861 0.0565398 -0.296709
0.0119861 -0.0595818 -0.296709
0.0160246 0.0565398 -0.393232
0.0160246 -0.0595818 -0.393232
0.024245 0.0565398 -0.301196
0.024245 -0.0595818 -0.301196
0.0278663 0.0565398 -0.387736
0.0278663 -0.0595818 -0.387736
0.0349253 0.0565398 -0.308703
0.0349253 -0.0595818 -0.308703
0.0378817 0.0565398 -0.379363
0.0378817 -0.0595818 -0.379363
0.0432984 -0.0595818 -0.318719
0.0432984 0.0565398 -0.318719
0.0453888 0.0565398 -0.368682
0.0487939 -0.0595818 -0.33056
0.0453888 -0.0595818 -0.368682
0.0487939 0.0565398 -0.33056
0.0498761 0.0565398 -0.356423
0.0510376 -0.0595818 -0.343421
0.0498761 -0.0595818 -0.356423
0.0510376 0.0565398 -0.343421
-0.047729 0.0565398 0.00907427
-0.0466464 0.0565398 -0.0167888
-0.04889 0.0565398 -0.00392845
-0.0432417 0.0565398 0.0213332
-0.04889 -0.0595818 -0.00392845
-0.047729 -0.0595818 0.00907427
-0.0432417 -0.0595818 0.0213332
-0.0411508 0.0565398 -0.0286306
-0.0466464 -0.0595818 -0.0167888
-0.0357346 -0.0595818 0.0320135
-0.0357346 0.0565398 0.0320135
-0.0411508 -0.0595818 -0.0286306
-0.0327777 0.0565398 -0.0386464
-0.0257188 0.0565398 0.0403866
-0.0327777 -0.0595818 -0.0386464
-0.0257188 -0.0595818 0.0403866
-0.0220974 0.0565398 -0.0461535
-0.0138775 0.0565398 0.0458821
-0.0220974 -0.0595818 -0.0461535
-0.0138775 -0.0595818 0.0458821
-0.00983848 0.0565398 -0.0506403
-0.00983848 -0.0595818 -0.0506403
-0.00101715 0.0565398 0.0481258
-0.00101715 -0.0595818 0.0481258
0.00316423 0.0565398 -0.0518018
0.00316423 -0.0595818 -0.0518018
0.0119861 0.0565398 0.0469648
0.0119861 -0.0595818 0.0469648
0.0160246 0.0565398 -0.0495581
0.0160246 -0.0595818 -0.0495581
0.024245 0.0565398 0.0424775
0.024245 -0.0595818 0.0424775
0.0278663 0.0565398 -0.0440626
0.0278663 -0.0595818 -0.0440626
0.0349253 0.0565398 0.0349704
0.0349253 -0.0595818 0.0349704
0.0378817 0.0565398 -0.0356895
0.0378817 -0.0595818 -0.0356895
0.0432984 -0.0595818 0.0249546
0.0432984 0.0565398 0.0249546
0.0453888 0.0565398 -0.0250092
0.0487939 -0.0595818 0.0131128
0.0453888 -0.0595818 -0.0250092
0.0487939 0.0565398 0.0131128
0.0498761 0.0565398 -0.0127503
0.0510376 -0.0595818 0.000252931
0.0498761 -0.0595818 -0.0127503
0.0510376 0.0565398 0.000252931
-0.0162266 0.0534972 0.486797
-0.0958004 0.0534972 0.421492
-0.0973593 0.0534972 0.405664
-0.0472744 0.0534972 0.480621
-0.0958004 0.0542577 0.421492
-0.00811303 0.0534972 0.486797
-0.0320546 0.0534972 0.485238
-0.0911831 0.0534972 0.436712
-0.0911831 0.0542577 0.436712
-0.0973593 0.0542577 0.405664
-0.0162266 0.0542577 0.486797
-4.58736e-10 0.0534972 0.486797
-0.0320546 0.0542577 0.485238
-0.0836862 0.0534972 0.450739
-0.0958004 0.0550182 0.421492
-0.0973593 0.0550182 0.405664
-0.0973593 0.0534972 0.337564
-0.00811303 0.0550182 0.486797
-4.58736e-10 0.0550182 0.486797
0.0973593 0.0534972 0.405664
-0.0472744 0.0542577 0.480621
-0.0613011 0.0534972 0.473123
-0.0836862 0.0542577 0.450739
-0.0911831 0.0550182 0.436712
-0.0973593 0.0550182 0.337564
0.0973593 0.0534972 0.339032
-0.0973593 0.0542577 0.337564
-0.0162266 0.0550182 0.486797
0.00811352 0.0550182 0.486797
0.00811352 0.0534972 0.486797
-0.0320546 0.0550182 0.485238
-0.0472744 0.0550182 0.480621
-0.0735955 0.0534972 0.463034
-0.0735955 0.0542577 0.463034
-0.0958004 0.0557787 0.421492
-0.0973593 0.0557787 0.405664
-0.0973593 0.0557787 0.337564
0.0973593 0.0534972 0.2724
-0.0973593 0.0534972 0.269464
-0.0162266 0.0557787 0.486797
-0.00811303 0.0565398 0.486797
-4.58736e-10 0.0565398 0.486797
0.0162266 0.0534972 0.486797
0.0973593 0.0542577 0.405664
-0.0613011 0.0542577 0.473123
-0.0613011 0.0550182 0.473123
-0.0836862 0.0550182 0.450739
-0.0911831 0.0557787 0.436712
-0.0973593 0.0550182 0.269464
-0.0973593 0.0557787 0.269464
0.0973593 0.0550182 0.2724
-0.0973593 0.0542577 0.269464
-0.0320546 0.0557787 0.485238
0.0162266 0.0542577 0.486797
0.00811352 0.0565398 0.486797
0.0958008 0.0534972 0.421492
0.0973593 0.0550182 0.339032
-0.0472744 0.0557787 0.480621
-0.0613011 0.0557787 0.473123
-0.0735955 0.0550182 0.463034
-0.0958004 0.0565398 0.421492
-0.0973593 0.0565398 0.405664
-0.0973593 0.0565398 0.337564
-0.0973593 0.0565398 0.269464
0.0973593 0.0534972 0.139135
-0.0973593 0.0534972 0.133264
-0.0320546 0.0565398 0.485238
-0.0162266 0.0565398 0.486797
-0.00811303 0.0580608 0.486797
0.0162266 0.0550182 0.486797
0.0162266 0.0557787 0.486797
-4.58736e-10 0.0580608 0.486797
0.0911835 0.0534972 0.436712
0.0320551 0.0542577 0.485238
0.0973593 0.0550182 0.405664
0.0958008 0.0542577 0.421492
-0.0735955 0.0557787 0.463034
-0.0836862 0.0557787 0.450739
-0.0911831 0.0565398 0.436712
-0.0973593 0.0550182 0.133264
-0.0973593 0.0565398 0.133264
0.0973593 0.0565398 0.339032
0.0973593 0.0565398 0.2724
-0.0472744 0.0565398 0.480621
-0.0162266 0.0573003 0.486797
0.0162266 0.0565398 0.486797
0.00811352 0.0580608 0.486797
0.0320551 0.0534972 0.485238
0.0973593 0.0557787 0.405664
0.0958008 0.0550182 0.421492
-0.0613011 0.0565398 0.473123
-0.0735955 0.0565398 0.463034
-0.0958004 0.0573003 0.421492
-0.0973593 0.0573003 0.405664
-0.0973593 0.0573003 0.337564
-0.0973593 0.0573003 0.269464
0.0973593 0.0534972 -0.133264
0.0973593 0.0595818 0.139135
-0.0973593 0.0534972 -0.139135
-0.0472744 0.0573003 0.480621
-0.0320546 0.0573003 0.485238
-0.0162266 0.0580608 0.486797
-4.58736e-10 0.0595818 0.486797
0.0320551 0.0550182 0.485238
0.0320551 0.0557787 0.485238
0.0162266 0.0573003 0.486797
0.00811352 0.0595818 0.486797
0.0911835 0.0542577 0.436712
0.0472749 0.0534972 0.480621
0.0472749 0.0542577 0.480621
0.0958008 0.0557787 0.421492
0.0911835 0.0550182 0.436712
-0.0836862 0.0565398 0.450739
-0.0911831 0.0573003 0.436712
-0.0973593 0.0580608 0.133264
0.0973593 0.0550182 -0.133264
0.0973593 0.0580608 0.339032
0.0973593 0.0565398 0.405664
0.0973593 0.0580608 0.2724
0.0973593 0.0565398 -0.133264
-0.0613011 0.0573003 0.473123
-0.0320546 0.0580608 0.485238
-0.0162266 0.0588213 0.486797
-0.00811303 0.0595818 0.486797
0.0320551 0.0565398 0.485238
0.0162266 0.0580608 0.486797
0.0162266 0.0588213 0.486797
0.0836862 0.0534972 0.450739
0.0958008 0.0565398 0.421492
0.0911835 0.0557787 0.436712
-0.0735955 0.0573003 0.463034
-0.0836862 0.0573003 0.450739
-0.0958004 0.0580608 0.421492
-0.0973593 0.0580608 0.405664
-0.0973593 0.0580608 0.337564
-0.0973593 0.0580608 0.269464
-0.0973593 0.0595818 -0.139135
0.0973593 0.0534972 -0.269464
0.0973593 0.0573003 0.405664
0.0973593 0.0595818 0.2724
0.0973593 0.0580608 -0.133264
-0.0613011 0.0580608 0.473123
-0.0472744 0.0580608 0.480621
-0.0320546 0.0588213 0.485238
-0.0973593 0.0595818 0.405664
0.0973593 0.0595818 0.405664
0.0472749 0.0550182 0.480621
0.0472749 0.0557787 0.480621
0.0320551 0.0573003 0.485238
0.0162266 0.0595818 0.486797
0.0836862 0.0550182 0.450739
0.0836862 0.0542577 0.450739
0.0613016 0.0534972 0.473123
0.0613016 0.0542577 0.473123
0.0911835 0.0565398 0.436712
0.0836862 0.0557787 0.450739
-0.0911831 0.0580608 0.436712
-0.0973593 0.0565398 -0.2724
-0.0973593 0.0588213 0.269464
-0.0973593 0.0595818 0.133264
-0.0973593 0.0534972 -0.2724
0.0973593 0.0550182 -0.269464
0.0973593 0.0580608 0.405664
0.0958008 0.0573003 0.421492
-0.0973593 0.0595818 0.269464
0.0973593 0.0595818 -0.133264
0.0973593 0.0565398 -0.269464
-0.0735955 0.0580608 0.463034
-0.0472744 0.0588213 0.480621
-0.0162266 0.0595818 0.486797
0.0472749 0.0565398 0.480621
0.0320551 0.0580608 0.485238
0.0320551 0.0595818 0.485238
0.0735965 0.0534972 0.463034
0.0911835 0.0573003 0.436712
0.0836862 0.0565398 0.450739
-0.0836862 0.0580608 0.450739
-0.0958004 0.0588213 0.421492
-0.0973593 0.0588213 0.405664
-0.0973593 0.0588213 0.337564
-0.0973593 0.0550182 -0.2724
-0.0973593 0.0580608 -0.2724
-0.0973593 0.0534972 -0.339032
0.0973593 0.0542577 -0.405664
0.0973593 0.0595818 0.339032
0.0973593 0.0588213 0.405664
0.0958008 0.0580608 0.421492
-0.0973593 0.0595818 0.337564
0.0973593 0.0580608 -0.269464
-0.0735955 0.0588213 0.463034
-0.0613011 0.0588213 0.473123
-0.0320546 0.0595818 0.485238
-0.0958004 0.0595818 0.421492
0.0958008 0.0595818 0.421492
0.0613016 0.0550182 0.473123
0.0613016 0.0557787 0.473123
0.0472749 0.0573003 0.480621
0.0320551 0.0588213 0.485238
0.0911835 0.0595818 0.436712
0.0735965 0.0557787 0.463034
0.0735965 0.0550182 0.463034
0.0735965 0.0542577 0.463034
0.0836862 0.0573003 0.450739
0.0735965 0.0565398 0.463034
-0.0911831 0.0588213 0.436712
-0.0973593 0.0565398 -0.339032
-0.0973593 0.0595818 -0.2724
-0.0973593 0.0580608 -0.339032
0.0973593 0.0595818 -0.269464
0.0973593 0.0534972 -0.405664
0.0973593 0.0557787 -0.405664
0.0973593 0.0550182 -0.405664
0.0958008 0.0588213 0.421492
0.0911835 0.0580608 0.436712
0.0973593 0.0573003 -0.405664
-0.0836862 0.0588213 0.450739
-0.0472744 0.0595818 0.480621
0.0613016 0.0565398 0.473123
0.0472749 0.0580608 0.480621
0.0472749 0.0595818 0.480621
0.0836862 0.0580608 0.450739
0.0735965 0.0573003 0.463034
-0.0911831 0.0595818 0.436712
-0.0973593 0.0550182 -0.339032
-0.0973593 0.0534972 -0.405664
0.0973593 0.0565398 -0.405664
0.0958008 0.0542577 -0.421492
0.0958008 0.0534972 -0.421492
0.0911835 0.0588213 0.436712
0.0973593 0.0588213 -0.405664
0.0973593 0.0580608 -0.405664
-0.0735955 0.0595818 0.463034
-0.0613011 0.0595818 0.473123
0.0613016 0.0573003 0.473123
0.0472749 0.0588213 0.480621
0.0836862 0.0595818 0.450739
0.0735965 0.0580608 0.463034
-0.0836862 0.0595818 0.450739
-0.0973593 0.0557787 -0.405664
-0.0973593 0.0573003 -0.405664
-0.0973593 0.0595818 -0.339032
-0.0973593 0.0542577 -0.405664
-4.58736e-10 0.0534972 -0.486797
0.0958008 0.0557787 -0.421492
0.0958008 0.0550182 -0.421492
0.0162266 0.0534972 -0.486797
0.0836862 0.0588213 0.450739
0.0973593 0.0595818 -0.405664
0.0958008 0.0573003 -0.421492
0.0958008 0.0565398 -0.421492
0.0613016 0.0580608 0.473123
0.0613016 0.0595818 0.473123
0.0735965 0.0588213 0.463034
-0.0973593 0.0550182 -0.405664
-0.0973593 0.0565398 -0.405664
-0.0973593 0.0580608 -0.405664
-0.0973593 0.0588213 -0.405664
-0.0958004 0.0542577 -0.421492
-0.00811303 0.0534972 -0.486797
0.00811352 0.0534972 -0.486797
0.0911835 0.0542577 -0.436712
0.0472749 0.0534972 -0.480621
0.0958008 0.0588213 -0.421492
0.0958008 0.0580608 -0.421492
0.0613016 0.0588213 0.473123
0.0735965 0.0595818 0.463034
-0.0958004 0.0557787 -0.421492
-0.0958004 0.0565398 -0.421492
-0.0958004 0.0573003 -0.421492
-0.0958004 0.0580608 -0.421492
-0.0973593 0.0595818 -0.405664
-0.0958004 0.0550182 -0.421492
-0.0958004 0.0534972 -0.421492
-0.0162266 0.0534972 -0.486797
-0.00811303 0.0550182 -0.486797
-4.58736e-10 0.0550182 -0.486797
0.0911835 0.0557787 -0.436712
0.0911835 0.0550182 -0.436712
0.0911835 0.0534972 -0.436712
0.0162266 0.0542577 -0.486797
0.0320551 0.0534972 -0.485238
0.0836862 0.0534972 -0.450739
0.0958008 0.0595818 -0.421492
0.0911835 0.0573003 -0.436712
0.0911835 0.0565398 -0.436712
-0.0958004 0.0588213 -0.421492
-4.58736e-10 0.0595818 -0.486797
-0.0958004 0.0595818 -0.421492
-0.0911831 0.0542577 -0.436712
-0.0911831 0.0550182 -0.436712
-0.0162266 0.0542577 -0.486797
0.00811352 0.0550182 -0.486797
0.0836862 0.0542577 -0.450739
0.0320551 0.0542577 -0.485238
0.0735965 0.0534972 -0.463034
0.0162266 0.0595818 -0.486797
0.0911835 0.0595818 -0.436712
0.0911835 0.0580608 -0.436712
-0.0911831 0.0557787 -0.436712
-0.0911831 0.0565398 -0.436712
-0.0911831 0.0573003 -0.436712
-0.0911831 0.0580608 -0.436712
-0.0911831 0.0588213 -0.436712
0.00811352 0.0595818 -0.486797
-0.00811303 0.0595818 -0.486797
-0.0162266 0.0595818 -0.486797
-0.0836862 0.0534972 -0.450739
-0.0911831 0.0534972 -0.436712
-0.0320546 0.0534972 -0.485238
-4.58736e-10 0.0565398 -0.486797
-0.0162266 0.0550182 -0.486797
0.00811352 0.0565398 -0.486797
0.0836862 0.0557787 -0.450739
0.0836862 0.0550182 -0.450739
0.0320551 0.0550182 -0.485238
0.0162266 0.0550182 -0.486797
0.0472749 0.0542577 -0.480621
0.0613016 0.0534972 -0.473123
0.0472749 0.0595818 -0.480621
0.0836862 0.0595818 -0.450739
0.0911835 0.0588213 -0.436712
0.0836862 0.0573003 -0.450739
0.0836862 0.0565398 -0.450739
-0.0911831 0.0595818 -0.436712
0.00811352 0.0580608 -0.486797
-4.58736e-10 0.0580608 -0.486797
-0.0836862 0.0595818 -0.450739
-0.0735955 0.0534972 -0.463034
-0.0836862 0.0542577 -0.450739
-0.0836862 0.0550182 -0.450739
-0.0836862 0.0557787 -0.450739
-0.0613011 0.0534972 -0.473123
-0.0320546 0.0542577 -0.485238
-0.00811303 0.0565398 -0.486797
-0.0162266 0.0557787 -0.486797
0.0162266 0.0557787 -0.486797
0.0735965 0.0542577 -0.463034
0.0472749 0.0550182 -0.480621
0.0320551 0.0595818 -0.485238
0.0162266 0.0588213 -0.486797
0.0836862 0.0580608 -0.450739
-0.0836862 0.0565398 -0.450739
-0.0836862 0.0573003 -0.450739
-0.0836862 0.0580608 -0.450739
-0.0836862 0.0588213 -0.450739
-0.00811303 0.0580608 -0.486797
-0.0162266 0.0588213 -0.486797
-0.0735955 0.0595818 -0.463034
-0.0735955 0.0542577 -0.463034
-0.0472744 0.0534972 -0.480621
-0.0320546 0.0550182 -0.485238
0.0162266 0.0565398 -0.486797
0.0735965 0.0557787 -0.463034
0.0735965 0.0550182 -0.463034
0.0472749 0.0557787 -0.480621
0.0320551 0.0557787 -0.485238
0.0613016 0.0542577 -0.473123
0.0613016 0.0550182 -0.473123
0.0735965 0.0595818 -0.463034
0.0472749 0.0588213 -0.480621
0.0836862 0.0588213 -0.450739
0.0735965 0.0573003 -0.463034
0.0735965 0.0565398 -0.463034
0.0162266 0.0580608 -0.486797
-0.0320546 0.0588213 -0.485238
-0.0613011 0.0595818 -0.473123
-0.0613011 0.0542577 -0.473123
-0.0735955 0.0550182 -0.463034
-0.0735955 0.0557787 -0.463034
-0.0735955 0.0565398 -0.463034
-0.0472744 0.0542577 -0.480621
0.0162266 0.0573003 -0.486797
-0.0162266 0.0565398 -0.486797
-0.0320546 0.0557787 -0.485238
0.0320551 0.0565398 -0.485238
0.0613016 0.0557787 -0.473123
0.0735965 0.0588213 -0.463034
0.0613016 0.0595818 -0.473123
0.0613016 0.0588213 -0.473123
0.0320551 0.0588213 -0.485238
0.0735965 0.0580608 -0.463034
-0.0735955 0.0573003 -0.463034
-0.0735955 0.0580608 -0.463034
-0.0735955 0.0588213 -0.463034
-0.0162266 0.0573003 -0.486797
-0.0162266 0.0580608 -0.486797
-0.0320546 0.0580608 -0.485238
-0.0320546 0.0595818 -0.485238
-0.0613011 0.0550182 -0.473123
-0.0472744 0.0550182 -0.480621
0.0320551 0.0573003 -0.485238
0.0613016 0.0565398 -0.473123
0.0472749 0.0565398 -0.480621
0.0472749 0.0580608 -0.480621
0.0320551 0.0580608 -0.485238
0.0613016 0.0573003 -0.473123
-0.0472744 0.0580608 -0.480621
-0.0472744 0.0588213 -0.480621
-0.0472744 0.0595818 -0.480621
-0.0613011 0.0588213 -0.473123
-0.0613011 0.0557787 -0.473123
-0.0613011 0.0565398 -0.473123
-0.0613011 0.0573003 -0.473123
-0.0320546 0.0565398 -0.485238
-0.0472744 0.0557787 -0.480621
0.0472749 0.0573003 -0.480621
0.0613016 0.0580608 -0.473123
-0.0613011 0.0580608 -0.473123
-0.0320546 0.0573003 -0.485238
-0.0472744 0.0573003 -0.480621
-0.0472744 0.0565398 -0.480621
-0.047729 0.0565398 0.33145
-0.0466464 0.0565398 0.305587
-0.04889 0.0565398 0.318447
-0.0432417 0.0565398 0.343709
-0.04889 -0.0595818 0.318447
-0.047729 -0.0595818 0.33145
-0.0432417 -0.0595818 0.343709
-0.0411508 0.0565398 0.293746
-0.0466464 -0.0595818 0.305587
-0.0357346 -0.0595818 0.35439
-0.0357346 0.0565398 0.35439
-0.0411508 -0.0595818 0.293746
-0.0327777 0.0565398 0.28373
-0.0257188 0.0565398 0.362763
-0.0327777 -0.0595818 0.28373
-0.0257188 -0.0595818 0.362763
-0.0220974 0.0565398 0.276223
-0.0138775 0.0565398 0.368258
-0.0220974 -0.0595818 0.276223
-0.0138775 -0.0595818 0.368258
-0.00983848 0.0565398 0.271735
-0.00983848 -0.0595818 0.271735
-0.00101715 0.0565398 0.370502
-0.00101715 -0.0595818 0.370502
0.00316423 0.0565398 0.270574
0.00316423 -0.0595818 0.270574
0.0119861 0.0565398 0.36934
0.0119861 -0.0595818 0.36934
0.0160246 0.0565398 0.272818
0.0160246 -0.0595818 0.272818
0.024245 0.0565398 0.364853
0.024245 -0.0595818 0.364853
0.0278663 0.0565398 0.278313
0.0278663 -0.0595818 0.278313
0.0349253 0.0565398 0.357346
0.0349253 -0.0595818 0.357346
0.0378817 0.0565398 0.286687
0.0378817 -0.0595818 0.286687
0.0432984 -0.0595818 0.347331
0.0432984 0.0565398 0.347331
0.0453888 0.0565398 0.297367
0.0487939 -0.0595818 0.335489
0.0453888 -0.0595818 0.297367
0.0487939 0.0565398 0.335489
0.0498761 0.0565398 0.309626
0.0510376 -0.0595818 0.322629
0.0498761 -0.0595818 0.309626
0.0510376 0.0565398 0.322629
3 0 1 2
3 1 0 3
3 1 3 7
3 7 3 10
3 8 5 4
3 5 8 6
3 6 11 9
3 7 10 12
3 6 8 11
3 9 11 14
3 12 10 13
3 9 14 15
3 12 13 16
3 15 14 18
3 16 13 17
3 15 18 19
3 16 17 20
3 19 18 21
3 20 17 22
3 19 21 23
3 20 22 24
3 23 21 25
3 24 22 26
3 23 25 27
3 24 26 28
3 27 25 29
3 28 26 30
3 27 29 31
3 28 30 32
3 31 29 33
3 32 30 34
3 31 33 35
3 32 34 36
3 35 33 37
3 36 34 39
3 35 37 38
3 36 39 40
3 38 37 42
3 40 39 43
3 38 42 41
3 40 43 44
3 41 42 46
3 44 43 47
3 41 46 45
3 1 4 2
3 2 5 0
3 0 6 3
3 4 1 8
3 5 2 4
3 6 0 5
3 9 3 6
3 7 8 1
3 3 9 10
3 8 7 11
3 9 13 10
3 12 11 7
3 13 9 15
3 11 12 14
3 15 17 13
3 12 18 14
3 18 12 16
3 17 15 19
3 16 21 18
3 19 22 17
3 21 16 20
3 22 19 23
3 20 25 21
3 23 26 22
3 25 20 24
3 26 23 27
3 24 29 25
3 27 30 26
3 29 24 28
3 30 27 31
3 28 33 29
3 31 34 30
3 33 28 32
3 34 31 35
3 32 37 33
3 38 34 35
3 37 32 36
3 34 38 39
3 40 37 36
3 41 39 38
3 37 40 42
3 39 41 43
3 44 42 40
3 45 43 41
3 42 44 46
3 43 45 47
3 47 46 44
3 46 47 45
3 2 1 0
3 3 0 1
3 7 3 1
3 10 3 7
3 4 5 8
3 6 8 5
3 9 11 6
3 12 10 7
3 11 8 6
3 14 11 9
3 13 10 12
3 15 14 9
3 16 13 12
3 18 14 15
3 17 13 16
3 19 18 15
3 20 17 16
3 21 18 19
3 22 17 20
3 23 21 19
3 24 22 20
3 25 21 23
3 26 22 24
3 27 25 23
3 28 26 24
3 29 25 27
3 30 26 28
3 31 29 27
3 32 30 28
3 33 29 31
3 34 30 32
3 35 33 31
3 36 34 32
3 37 33 35
3 39 34 36
3 38 37 35
3 40 39 36
3 42 37 38
3 43 39 40
3 41 42 38
3 44 43 40
3 46 42 41
3 47 43 44
3 45 46 41
3 2 4 1
3 0 5 2
3 3 6 0
3 8 1 4
3 4 2 5
3 5 0 6
3 6 3 9
3 1 8 7
3 10 9 3
3 11 7 8
3 10 13 9
3 7 11 12
3 15 9 13
3 14 12 11
3 13 17 15
3 14 18 12
3 16 12 18
3 19 15 17
3 18 21 16
3 17 22 19
3 20 16 21
3 23 19 22
3 21 25 20
3 22 26 23
3 24 20 25
3 27 23 26
3 25 29 24
3 26 30 27
3 28 24 29
3 31 27 30
3 29 33 28
3 30 34 31
3 32 28 33
3 35 31 34
3 33 37 32
3 35 34 38
3 36 32 37
3 39 38 34
3 36 37 40
3 38 39 41
3 42 40 37
3 43 41 39
3 40 42 44
3 41 43 45
3 46 44 42
3 47 45 43
3 44 46 47
3 45 47 46
3 48 49 50
3 49 48 51
3 49 51 55
3 55 51 58
3 56 53 52
3 53 56 54
3 54 59 57
3 55 58 60
3 54 56 59
3 57 59 62
3 60 58 61
3 57 62 63
3 60 61 64
3 63 62 66
3 64 61 65
3 63 66 67
3 64 65 68
3 67 66 69
3 68 65 70
3 67 69 71
3 68 70 72
3 71 69 73
3 72 70 74
3 71 73 75
3 72 74 76
3 75 73 77
3 76 74 78
3 75 77 79
3 76 78 80
3 79 77 81
3 80 78 82
3 79 81 83
3 80 82 84
3 83 81 85
3 84 82 87
3 83 85 86
3 84 87 88
3 86 85 90
3 88 87 91
3 86 90 89
3 88 91 92
3 89 90 94
3 92 91 95
3 89 94 93
3 49 52 50
3 50 53 48
3 48 54 51
3 52 49 56
3 53 50 52
3 54 48 53
3 57 51 54
3 55 56 49
3 51 57 58
3 56 55 59
3 57 61 58
3 60 59 55
3 61 57 63
3 59 60 62
3 63 65 61
3 60 66 62
3 66 60 64
3 65 63 67
3 64 69 66
3 67 70 65
3 69 64 68
3 70 67 71
3 68 73 69
3 71 74 70
3 73 68 72
3 74 71 75
3 72 77 73
3 75 78 74
3 77 72 76
3 78 75 79
3 76 81 77
3 79 82 78
3 81 76 80
3 82 79 83
3 80 85 81
3 86 82 83
3 85 80 84
3 82 86 87
3 88 85 84
3 89 87 86
3 85 88 90
3 87 89 91
3 92 90 88
3 93 91 89
3 90 92 94
3 91 93 95
3 95 94 92
3 94 95 93
3 50 49 48
3 51 48 49
3 55 51 49
3 58 51 55
3 52 53 56
3 54 56 53
3 57 59 54
3 60 58 55
3 59 56 54
3 62 59 57
3 61 58 60
3 63 62 57
3 64 61 60
3 66 62 63
3 65 61 64
3 67 66 63
3 68 65 64
3 69 66 67
3 70 65 68
3 71 69 67
3 72 70 68
3 73 69 71
3 74 70 72
3 75 73 71
3 76 74 72
3 77 73 75
3 78 74 76
3 79 77 75
3 80 78 76
3 81 77 79
3 82 78 80
3 83 81 79
3 84 82 80
3 85 81 83
3 87 82 84
3 86 85 83
3 88 87 84
3 90 85 86
3 91 87 88
3 89 90 86
3 92 91 88
3 94 90 89
3 95 91 92
3 93 94 89
3 50 52 49
3 48 53 50
3 51 54 48
3 56 49 52
3 52 50 53
3 53 48 54
3 54 51 57
3 49 56 55
3 58 57 51
3 59 55 56
3 58 61 57
3 55 59 60
3 63 57 61
3 62 60 59
3 61 65 63
3 62 66 60
3 64 60 66
3 67 63 65
3 66 69 64
3 65 70 67
3 68 64 69
3 71 67 70
3 69 73 68
3 70 74 71
3 72 68 73
3 75 71 74
3 73 77 72
3 74 78 75
3 76 72 77
3 79 75 78
3 77 81 76
3 78 82 79
3 80 76 81
3 83 79 82
3 81 85 80
3 83 82 86
3 84 80 85
3 87 86 82
3 84 85 88
3 86 87 89
3 90 88 85
3 91 89 87
3 88 90 92
3 89 91 93
3 94 92 90
3 95 93 91
3 92 94 95
3 93 95 94
3 96 97 98
3 96 99 97
3 101 96 98
3 96 102 99
3 99 103 97
3 107 101 98
3 99 109 103
3 114 101 107
3 115 107 98
3 99 117 109
3 121 98 112
3 113 101 114
3 114 107 124
3 115 125 107
3 115 98 121
3 117 128 109
3 121 112 133
3 134 112 122
3 136 113 114
3 124 107 125
3 137 114 124
3 115 138 125
3 144 122 120
3 145 120 132
3 133 112 134
3 146 121 133
3 134 122 147
3 136 114 137
3 137 124 150
3 115 151 138
3 147 122 144
3 144 120 145
3 145 132 159
3 133 134 160
3 146 152 121
3 160 146 133
3 161 134 147
3 164 136 137
3 167 137 150
3 151 168 138
3 159 132 158
3 175 147 144
3 175 144 145
3 176 145 159
3 160 134 161
3 146 177 152
3 160 178 146
3 161 147 175
3 164 137 167
3 167 150 182
3 168 183 138
3 159 158 191
3 175 145 176
3 176 159 191
3 160 161 192
3 178 177 146
3 193 178 160
3 194 161 175
3 198 164 167
3 202 167 182
3 168 204 183
3 191 158 190
3 194 175 176
3 176 191 210
3 192 161 194
3 211 160 192
3 178 212 177
3 193 214 178
3 215 193 160
3 219 164 198
3 198 167 202
3 168 223 204
3 191 190 231
3 194 176 232
3 210 191 231
3 232 176 210
3 192 194 233
3 215 160 211
3 233 211 192
3 214 212 178
3 193 235 214
3 236 193 215
3 198 240 219
3 241 198 202
3 223 248 204
3 231 190 230
3 253 194 232
3 210 231 254
3 232 210 255
3 233 194 256
3 257 215 211
3 257 211 233
3 235 212 214
3 193 260 235
3 261 193 236
3 262 236 215
3 241 240 198
3 219 240 265
3 241 202 245
3 223 269 248
3 231 230 254
3 276 194 253
3 253 232 277
3 210 254 255
3 261 232 255
3 256 194 276
3 233 256 278
3 262 215 257
3 235 280 212
3 193 255 260
3 235 260 283
3 261 255 193
3 284 261 236
3 284 236 262
3 280 240 241
3 265 240 288
3 241 245 289
3 294 245 268
3 254 230 275
3 301 276 253
3 277 232 302
3 303 253 277
3 255 254 260
3 304 232 261
3 278 256 276
3 233 278 305
3 235 283 280
3 254 283 260
3 304 261 284
3 265 312 287
3 280 283 240
3 265 288 312
3 289 245 294
3 294 268 315
3 254 275 283
3 319 276 301
3 301 253 303
3 304 302 232
3 303 277 302
3 278 276 319
3 305 278 320
3 312 288 318
3 294 315 331
3 304 336 302
3 303 302 336
3 305 320 338
3 305 341 323
3 312 333 328
3 312 318 333
3 331 315 347
3 343 336 304
3 338 320 354
3 305 338 355
3 305 355 341
3 323 341 357
3 328 333 327
3 331 347 361
3 343 366 336
3 354 320 369
3 370 338 354
3 371 355 338
3 357 341 376
3 323 357 377
3 343 382 366
3 369 320 368
3 371 338 370
3 387 355 371
3 323 377 374
3 377 357 390
3 343 378 391
3 343 399 382
3 382 400 366
3 401 383 366
3 369 368 402
3 405 371 370
3 407 387 371
3 390 357 413
3 378 414 391
3 343 391 399
3 378 392 415
3 399 420 382
3 382 421 400
3 400 401 366
3 401 422 383
3 402 368 403
3 369 402 423
3 369 427 404
3 407 371 405
3 405 370 429
3 378 415 414
3 414 434 391
3 422 419 383
3 382 420 421
3 400 421 441
3 401 443 422
3 369 423 427
3 404 427 445
3 420 407 405
3 421 405 429
3 415 454 414
3 420 405 421
3 421 429 441
3 401 461 443
3 454 473 414
3 401 483 461
3 483 494 461
3 98 97 100
3 97 104 100
3 98 100 105
3 106 96 101
3 106 102 96
3 108 99 102
3 97 103 104
3 100 104 110
3 105 100 111
3 112 98 105
3 113 106 101
3 108 102 106
3 116 99 108
3 103 109 118
3 103 118 104
3 110 104 119
3 111 100 110
3 120 105 111
3 112 105 122
3 123 106 113
3 126 108 106
3 116 117 99
3 127 116 108
3 109 129 118
3 104 118 119
3 110 119 130
3 111 110 131
3 122 105 120
3 120 111 132
3 126 106 123
3 135 123 113
3 121 139 115
3 127 108 126
3 140 117 116
3 141 116 127
3 140 128 117
3 109 128 129
3 118 129 142
3 119 118 142
3 130 119 143
3 131 110 130
3 132 111 131
3 148 126 123
3 148 123 135
3 136 135 113
3 124 125 149
3 149 125 138
3 152 139 121
3 139 151 115
3 153 127 126
3 141 140 116
3 154 141 127
3 129 128 140
3 142 129 155
3 119 142 143
3 130 143 156
3 131 130 157
3 132 131 158
3 153 126 148
3 162 148 135
3 163 135 136
3 124 149 165
3 150 124 166
3 149 138 169
3 152 170 139
3 139 171 151
3 154 127 153
3 155 140 141
3 172 141 154
3 155 129 140
3 142 155 173
3 143 142 173
3 156 143 174
3 157 130 156
3 158 131 157
3 179 153 148
3 179 148 162
3 162 135 163
3 180 163 136
3 164 180 136
3 165 149 169
3 166 124 165
3 150 166 181
3 171 168 151
3 169 138 183
3 152 184 170
3 170 185 139
3 139 185 171
3 186 154 153
3 172 155 141
3 187 172 154
3 173 155 172
3 143 173 174
3 156 174 188
3 157 156 189
3 158 157 190
3 177 184 152
3 186 153 179
3 195 179 162
3 196 162 163
3 196 163 180
3 197 180 164
3 165 169 199
3 166 165 199
3 181 166 200
3 201 150 181
3 182 150 201
3 171 203 168
3 169 183 205
3 184 206 170
3 170 206 185
3 185 207 171
3 187 154 186
3 208 172 187
3 173 172 208
3 174 173 208
3 188 174 209
3 189 156 188
3 190 157 189
3 177 213 184
3 216 186 179
3 216 179 195
3 195 162 196
3 217 196 180
3 217 180 197
3 218 197 164
3 199 169 205
3 166 199 200
3 181 200 220
3 201 181 220
3 182 201 221
3 202 182 222
3 171 207 203
3 203 223 168
3 205 183 204
3 184 224 206
3 206 225 185
3 185 225 207
3 226 187 186
3 208 187 227
3 174 208 209
3 188 209 228
3 189 188 229
3 190 189 230
3 212 234 177
3 177 234 213
3 213 224 184
3 226 186 216
3 237 216 195
3 238 195 196
3 238 196 217
3 239 217 197
3 239 197 218
3 219 218 164
3 199 205 242
3 200 199 242
3 220 200 243
3 201 220 244
3 221 201 244
3 222 182 221
3 202 222 245
3 207 246 203
3 203 247 223
3 205 204 249
3 224 250 206
3 206 250 225
3 225 251 207
3 227 187 226
3 209 208 227
3 228 209 252
3 229 188 228
3 230 189 229
3 212 258 234
3 234 259 213
3 213 259 224
3 263 226 216
3 263 216 237
3 237 195 238
3 264 238 217
3 264 217 239
3 265 239 218
3 265 218 219
3 242 205 249
3 200 242 243
3 220 243 266
3 244 220 266
3 221 244 267
3 222 221 267
3 245 222 268
3 207 251 246
3 203 246 247
3 247 269 223
3 249 204 248
3 224 270 250
3 250 271 225
3 225 271 251
3 227 226 272
3 209 227 252
3 228 252 273
3 229 228 274
3 230 229 275
3 279 257 233
3 212 281 258
3 258 282 234
3 234 282 259
3 259 270 224
3 272 226 263
3 285 263 237
3 286 237 238
3 286 238 264
3 287 264 239
3 287 239 265
3 242 249 290
3 243 242 290
3 266 243 291
3 244 266 292
3 267 244 292
3 222 267 293
3 268 222 293
3 251 295 246
3 246 296 247
3 247 297 269
3 297 248 269
3 249 248 297
3 270 298 250
3 250 298 271
3 271 299 251
3 252 227 272
3 273 252 300
3 274 228 273
3 275 229 274
3 306 262 257
3 307 257 279
3 279 233 305
3 280 281 212
3 281 308 258
3 258 308 282
3 282 309 259
3 259 309 270
3 310 284 262
3 272 263 311
3 311 263 285
3 285 237 286
3 312 286 264
3 312 264 287
3 280 241 281
3 274 288 240
3 241 289 308
3 290 249 297
3 243 290 291
3 266 291 313
3 292 266 313
3 267 292 314
3 293 267 314
3 268 293 315
3 251 299 295
3 246 295 296
3 247 296 297
3 270 316 298
3 298 317 271
3 271 317 299
3 252 272 300
3 273 300 318
3 274 273 288
3 275 274 240
3 321 262 306
3 306 257 307
3 322 307 279
3 323 279 305
3 241 308 281
3 308 324 282
3 282 324 309
3 309 316 270
3 325 304 284
3 326 284 310
3 310 262 321
3 300 272 311
3 311 285 327
3 328 285 286
3 328 286 312
3 275 240 283
3 289 294 324
3 289 324 308
3 290 297 296
3 291 290 296
3 313 291 295
3 292 313 329
3 314 292 329
3 293 314 330
3 315 293 330
3 313 295 299
3 291 296 295
3 316 332 298
3 298 332 317
3 329 299 317
3 300 333 318
3 273 318 288
3 334 319 301
3 335 301 303
3 337 278 319
3 320 278 337
3 339 321 306
3 340 306 307
3 340 307 322
3 322 279 323
3 324 342 309
3 309 342 316
3 343 304 325
3 325 284 326
3 344 326 310
3 345 310 321
3 300 311 333
3 327 285 328
3 311 327 333
3 294 342 324
3 329 313 299
3 314 329 346
3 330 314 346
3 315 330 347
3 294 331 342
3 316 348 332
3 346 317 332
3 346 329 317
3 349 319 334
3 334 301 350
3 350 301 335
3 335 303 351
3 352 303 336
3 337 319 349
3 353 320 337
3 345 321 339
3 339 306 340
3 356 340 322
3 356 322 323
3 342 348 316
3 358 343 325
3 359 325 326
3 359 326 344
3 344 310 345
3 330 346 360
3 347 330 360
3 331 348 342
3 360 332 348
3 360 346 332
3 362 349 334
3 363 334 350
3 364 350 335
3 351 303 352
3 365 335 351
3 352 336 366
3 367 337 349
3 368 320 353
3 353 337 367
3 372 345 339
3 373 339 340
3 373 340 356
3 356 323 374
3 375 341 355
3 378 343 358
3 358 325 359
3 379 359 344
3 380 344 345
3 347 360 361
3 331 361 348
3 361 360 348
3 367 349 362
3 362 334 363
3 363 350 364
3 364 335 365
3 381 351 352
3 365 351 381
3 383 352 366
3 384 368 353
3 385 353 367
3 386 354 369
3 370 354 386
3 380 345 372
3 372 339 373
3 388 373 356
3 388 356 374
3 389 341 375
3 387 375 355
3 389 376 341
3 389 357 376
3 392 378 358
3 393 358 359
3 393 359 379
3 379 344 380
3 394 367 362
3 395 362 363
3 396 363 364
3 397 364 365
3 381 352 383
3 398 365 381
3 403 368 384
3 384 353 385
3 385 367 394
3 386 369 404
3 370 386 406
3 408 380 372
3 409 372 373
3 409 373 388
3 388 374 377
3 410 389 375
3 411 375 387
3 412 357 389
3 390 388 377
3 392 358 416
3 416 358 393
3 417 393 379
3 418 379 380
3 394 362 395
3 395 363 396
3 396 364 397
3 397 365 398
3 419 381 383
3 398 381 419
3 424 403 384
3 425 384 385
3 426 385 394
3 386 404 428
3 406 386 428
3 430 370 406
3 407 431 387
3 418 380 408
3 408 372 409
3 432 409 388
3 433 389 410
3 410 375 411
3 431 411 387
3 412 413 357
3 433 412 389
3 432 390 413
3 432 388 390
3 391 435 399
3 415 392 416
3 436 416 393
3 436 393 417
3 417 379 418
3 437 394 395
3 438 395 396
3 439 396 397
3 440 397 398
3 422 398 419
3 399 435 420
3 400 442 401
3 402 403 424
3 423 402 444
3 424 384 425
3 425 385 426
3 426 394 437
3 428 404 445
3 429 370 430
3 406 428 446
3 430 406 446
3 447 431 407
3 448 418 408
3 449 408 409
3 449 409 432
3 450 433 410
3 451 410 411
3 451 411 431
3 452 413 412
3 453 412 433
3 432 413 452
3 414 455 434
3 434 435 391
3 415 416 456
3 456 416 436
3 457 436 417
3 458 417 418
3 437 395 438
3 438 396 439
3 439 397 440
3 440 398 422
3 435 459 420
3 400 441 442
3 401 442 460
3 443 440 422
3 444 402 424
3 462 423 444
3 462 427 423
3 463 424 425
3 464 425 426
3 465 426 437
3 466 445 427
3 428 445 466
3 420 467 407
3 429 430 468
3 446 428 466
3 430 446 469
3 470 431 447
3 467 447 407
3 458 418 448
3 448 408 449
3 449 432 452
3 471 433 450
3 450 410 451
3 470 451 431
3 453 452 412
3 471 453 433
3 454 415 472
3 414 474 455
3 434 455 475
3 434 475 435
3 472 415 456
3 476 456 436
3 476 436 457
3 457 417 458
3 477 437 438
3 478 438 439
3 479 439 440
3 475 459 435
3 459 467 420
3 441 429 480
3 442 441 481
3 442 482 460
3 401 460 483
3 461 479 443
3 479 440 443
3 444 424 463
3 484 462 444
3 466 427 462
3 463 425 464
3 464 426 465
3 465 437 477
3 468 430 469
3 480 429 468
3 446 466 485
3 469 446 485
3 486 470 447
3 486 447 467
3 458 448 471
3 448 449 453
3 449 452 453
3 487 471 450
3 488 450 451
3 488 451 470
3 448 453 471
3 454 472 474
3 454 474 473
3 473 474 414
3 474 489 455
3 455 490 475
3 472 456 476
3 476 457 491
3 457 458 487
3 477 438 478
3 478 439 479
3 475 490 459
3 490 467 459
3 441 480 481
3 442 481 482
3 460 482 492
3 483 460 493
3 461 495 479
3 484 444 463
3 485 462 484
3 485 466 462
3 496 463 464
3 497 464 465
3 498 465 477
3 468 469 499
3 480 468 499
3 469 485 500
3 501 470 486
3 490 486 467
3 458 471 487
3 487 450 488
3 501 488 470
3 472 502 474
3 474 502 489
3 455 489 490
3 472 476 502
3 457 487 491
3 476 491 502
3 503 477 478
3 495 478 479
3 481 480 504
3 481 504 482
3 482 505 492
3 460 492 493
3 483 493 494
3 494 495 461
3 496 484 463
3 500 485 484
3 497 496 464
3 498 497 465
3 503 498 477
3 499 469 500
3 480 499 504
3 489 501 486
3 489 486 490
3 491 487 488
3 491 488 501
3 502 501 489
3 502 491 501
3 495 503 478
3 482 504 505
3 492 505 498
3 493 492 503
3 494 493 495
3 500 484 496
3 506 496 497
3 505 497 498
3 492 498 503
3 499 500 506
3 504 499 506
3 493 503 495
3 504 506 505
3 506 500 496
3 505 506 497
3 98 97 96
3 97 99 96
3 98 96 101
3 99 102 96
3 97 103 99
3 98 101 107
3 103 109 99
3 107 101 114
3 98 107 115
3 109 117 99
3 112 98 121
3 114 101 113
3 124 107 114
3 107 125 115
3 121 98 115
3 109 128 117
3 133 112 121
3 122 112 134
3 114 113 136
3 125 107 124
3 124 114 137
3 125 138 115
3 120 122 144
3 132 120 145
3 134 112 133
3 133 121 146
3 147 122 134
3 137 114 136
3 150 124 137
3 138 151 115
3 144 122 147
3 145 120 144
3 159 132 145
3 160 134 133
3 121 152 146
3 133 146 160
3 147 134 161
3 137 136 164
3 150 137 167
3 138 168 151
3 158 132 159
3 144 147 175
3 145 144 175
3 159 145 176
3 161 134 160
3 152 177 146
3 146 178 160
3 175 147 161
3 167 137 164
3 182 150 167
3 138 183 168
3 191 158 159
3 176 145 175
3 191 159 176
3 192 161 160
3 146 177 178
3 160 178 193
3 175 161 194
3 167 164 198
3 182 167 202
3 183 204 168
3 190 158 191
3 176 175 194
3 210 191 176
3 194 161 192
3 192 160 211
3 177 212 178
3 178 214 193
3 160 193 215
3 198 164 219
3 202 167 198
3 204 223 168
3 231 190 191
3 232 176 194
3 231 191 210
3 210 176 232
3 233 194 192
3 211 160 215
3 192 211 233
3 178 212 214
3 214 235 193
3 215 193 236
3 219 240 198
3 202 198 241
3 204 248 223
3 230 190 231
3 232 194 253
3 254 231 210
3 255 210 232
3 256 194 233
3 211 215 257
3 233 211 257
3 214 212 235
3 235 260 193
3 236 193 261
3 215 236 262
3 198 240 241
3 265 240 219
3 245 202 241
3 248 269 223
3 254 230 231
3 253 194 276
3 277 232 253
3 255 254 210
3 255 232 261
3 276 194 256
3 278 256 233
3 257 215 262
3 212 280 235
3 260 255 193
3 283 260 235
3 193 255 261
3 236 261 284
3 262 236 284
3 241 240 280
3 288 240 265
3 289 245 241
3 268 245 294
3 275 230 254
3 253 276 301
3 302 232 277
3 277 253 303
3 260 254 255
3 261 232 304
3 276 256 278
3 305 278 233
3 280 283 235
3 260 283 254
3 284 261 304
3 287 312 265
3 240 283 280
3 312 288 265
3 294 245 289
3 315 268 294
3 283 275 254
3 301 276 319
3 303 253 301
3 232 302 304
3 302 277 303
3 319 276 278
3 320 278 305
3 318 288 312
3 331 315 294
3 302 336 304
3 336 302 303
3 338 320 305
3 323 341 305
3 328 333 312
3 333 318 312
3 347 315 331
3 304 336 343
3 354 320 338
3 355 338 305
3 341 355 305
3 357 341 323
3 327 333 328
3 361 347 331
3 336 366 343
3 369 320 354
3 354 338 370
3 338 355 371
3 376 341 357
3 377 357 323
3 366 382 343
3 368 320 369
3 370 338 371
3 371 355 387
3 374 377 323
3 390 357 377
3 391 378 343
3 382 399 343
3 366 400 382
3 366 383 401
3 402 368 369
3 370 371 405
3 371 387 407
3 413 357 390
3 391 414 378
3 399 391 343
3 415 392 378
3 382 420 399
3 400 421 382
3 366 401 400
3 383 422 401
3 403 368 402
3 423 402 369
3 404 427 369
3 405 371 407
3 429 370 405
3 414 415 378
3 391 434 414
3 383 419 422
3 421 420 382
3 441 421 400
3 422 443 401
3 427 423 369
3 445 427 404
3 405 407 420
3 429 405 421
3 414 454 415
3 421 405 420
3 441 429 421
3 443 461 401
3 414 473 454
3 461 483 401
3 461 494 483
3 100 97 98
3 100 104 97
3 105 100 98
3 101 96 106
3 96 102 106
3 102 99 108
3 104 103 97
3 110 104 100
3 111 100 105
3 105 98 112
3 101 106 113
3 106 102 108
3 108 99 116
3 118 109 103
3 104 118 103
3 119 104 110
3 110 100 111
3 111 105 120
3 122 105 112
3 113 106 123
3 106 108 126
3 99 117 116
3 108 116 127
3 118 129 109
3 119 118 104
3 130 119 110
3 131 110 111
3 120 105 122
3 132 111 120
3 123 106 126
3 113 123 135
3 115 139 121
3 126 108 127
3 116 117 140
3 127 116 141
3 117 128 140
3 129 128 109
3 142 129 118
3 142 118 119
3 143 119 130
3 130 110 131
3 131 111 132
3 123 126 148
3 135 123 148
3 113 135 136
3 149 125 124
3 138 125 149
3 121 139 152
3 115 151 139
3 126 127 153
3 116 140 141
3 127 141 154
3 140 128 129
3 155 129 142
3 143 142 119
3 156 143 130
3 157 130 131
3 158 131 132
3 148 126 153
3 135 148 162
3 136 135 163
3 165 149 124
3 166 124 150
3 169 138 149
3 139 170 152
3 151 171 139
3 153 127 154
3 141 140 155
3 154 141 172
3 140 129 155
3 173 155 142
3 173 142 143
3 174 143 156
3 156 130 157
3 157 131 158
3 148 153 179
3 162 148 179
3 163 135 162
3 136 163 180
3 136 180 164
3 169 149 165
3 165 124 166
3 181 166 150
3 151 168 171
3 183 138 169
3 170 184 152
3 139 185 170
3 171 185 139
3 153 154 186
3 141 155 172
3 154 172 187
3 172 155 173
3 174 173 143
3 188 174 156
3 189 156 157
3 190 157 158
3 152 184 177
3 179 153 186
3 162 179 195
3 163 162 196
3 180 163 196
3 164 180 197
3 199 169 165
3 199 165 166
3 200 166 181
3 181 150 201
3 201 150 182
3 168 203 171
3 205 183 169
3 170 206 184
3 185 206 170
3 171 207 185
3 186 154 187
3 187 172 208
3 208 172 173
3 208 173 174
3 209 174 188
3 188 156 189
3 189 157 190
3 184 213 177
3 179 186 216
3 195 179 216
3 196 162 195
3 180 196 217
3 197 180 217
3 164 197 218
3 205 169 199
3 200 199 166
3 220 200 181
3 220 181 201
3 221 201 182
3 222 182 202
3 203 207 171
3 168 223 203
3 204 183 205
3 206 224 184
3 185 225 206
3 207 225 185
3 186 187 226
3 227 187 208
3 209 208 174
3 228 209 188
3 229 188 189
3 230 189 190
3 177 234 212
3 213 234 177
3 184 224 213
3 216 186 226
3 195 216 237
3 196 195 238
3 217 196 238
3 197 217 239
3 218 197 239
3 164 218 219
3 242 205 199
3 242 199 200
3 243 200 220
3 244 220 201
3 244 201 221
3 221 182 222
3 245 222 202
3 203 246 207
3 223 247 203
3 249 204 205
3 206 250 224
3 225 250 206
3 207 251 225
3 226 187 227
3 227 208 209
3 252 209 228
3 228 188 229
3 229 189 230
3 234 258 212
3 213 259 234
3 224 259 213
3 216 226 263
3 237 216 263
3 238 195 237
3 217 238 264
3 239 217 264
3 218 239 265
3 219 218 265
3 249 205 242
3 243 242 200
3 266 243 220
3 266 220 244
3 267 244 221
3 267 221 222
3 268 222 245
3 246 251 207
3 247 246 203
3 223 269 247
3 248 204 249
3 250 270 224
3 225 271 250
3 251 271 225
3 272 226 227
3 252 227 209
3 273 252 228
3 274 228 229
3 275 229 230
3 233 257 279
3 258 281 212
3 234 282 258
3 259 282 234
3 224 270 259
3 263 226 272
3 237 263 285
3 238 237 286
3 264 238 286
3 239 264 287
3 265 239 287
3 290 249 242
3 290 242 243
3 291 243 266
3 292 266 244
3 292 244 267
3 293 267 222
3 293 222 268
3 246 295 251
3 247 296 246
3 269 297 247
3 269 248 297
3 297 248 249
3 250 298 270
3 271 298 250
3 251 299 271
3 272 227 252
3 300 252 273
3 273 228 274
3 274 229 275
3 257 262 306
3 279 257 307
3 305 233 279
3 212 281 280
3 258 308 281
3 282 308 258
3 259 309 282
3 270 309 259
3 262 284 310
3 311 263 272
3 285 263 311
3 286 237 285
3 264 286 312
3 287 264 312
3 281 241 280
3 240 288 274
3 308 289 241
3 297 249 290
3 291 290 243
3 313 291 266
3 313 266 292
3 314 292 267
3 314 267 293
3 315 293 268
3 295 299 251
3 296 295 246
3 297 296 247
3 298 316 270
3 271 317 298
3 299 317 271
3 300 272 252
3 318 300 273
3 288 273 274
3 240 274 275
3 306 262 321
3 307 257 306
3 279 307 322
3 305 279 323
3 281 308 241
3 282 324 308
3 309 324 282
3 270 316 309
3 284 304 325
3 310 284 326
3 321 262 310
3 311 272 300
3 327 285 311
3 286 285 328
3 312 286 328
3 283 240 275
3 324 294 289
3 308 324 289
3 296 297 290
3 296 290 291
3 295 291 313
3 329 313 292
3 329 292 314
3 330 314 293
3 330 293 315
3 299 295 313
3 295 296 291
3 298 332 316
3 317 332 298
3 317 299 329
3 318 333 300
3 288 318 273
3 301 319 334
3 303 301 335
3 319 278 337
3 337 278 320
3 306 321 339
3 307 306 340
3 322 307 340
3 323 279 322
3 309 342 324
3 316 342 309
3 325 304 343
3 326 284 325
3 310 326 344
3 321 310 345
3 333 311 300
3 328 285 327
3 333 327 311
3 324 342 294
3 299 313 329
3 346 329 314
3 346 314 330
3 347 330 315
3 342 331 294
3 332 348 316
3 332 317 346
3 317 329 346
3 334 319 349
3 350 301 334
3 335 301 350
3 351 303 335
3 336 303 352
3 349 319 337
3 337 320 353
3 339 321 345
3 340 306 339
3 322 340 356
3 323 322 356
3 316 348 342
3 325 343 358
3 326 325 359
3 344 326 359
3 345 310 344
3 360 346 330
3 360 330 347
3 342 348 331
3 348 332 360
3 332 346 360
3 334 349 362
3 350 334 363
3 335 350 364
3 352 303 351
3 351 335 365
3 366 336 352
3 349 337 367
3 353 320 368
3 367 337 353
3 339 345 372
3 340 339 373
3 356 340 373
3 374 323 356
3 355 341 375
3 358 343 378
3 359 325 358
3 344 359 379
3 345 344 380
3 361 360 347
3 348 361 331
3 348 360 361
3 362 349 367
3 363 334 362
3 364 350 363
3 365 335 364
3 352 351 381
3 381 351 365
3 366 352 383
3 353 368 384
3 367 353 385
3 369 354 386
3 386 354 370
3 372 345 380
3 373 339 372
3 356 373 388
3 374 356 388
3 375 341 389
3 355 375 387
3 341 376 389
3 376 357 389
3 358 378 392
3 359 358 393
3 379 359 393
3 380 344 379
3 362 367 394
3 363 362 395
3 364 363 396
3 365 364 397
3 383 352 381
3 381 365 398
3 384 368 403
3 385 353 384
3 394 367 385
3 404 369 386
3 406 386 370
3 372 380 408
3 373 372 409
3 388 373 409
3 377 374 388
3 375 389 410
3 387 375 411
3 389 357 412
3 377 388 390
3 416 358 392
3 393 358 416
3 379 393 417
3 380 379 418
3 395 362 394
3 396 363 395
3 397 364 396
3 398 365 397
3 383 381 419
3 419 381 398
3 384 403 424
3 385 384 425
3 394 385 426
3 428 404 386
3 428 386 406
3 406 370 430
3 387 431 407
3 408 380 418
3 409 372 408
3 388 409 432
3 410 389 433
3 411 375 410
3 387 411 431
3 357 413 412
3 389 412 433
3 413 390 432
3 390 388 432
3 399 435 391
3 416 392 415
3 393 416 436
3 417 393 436
3 418 379 417
3 395 394 437
3 396 395 438
3 397 396 439
3 398 397 440
3 419 398 422
3 420 435 399
3 401 442 400
3 424 403 402
3 444 402 423
3 425 384 424
3 426 385 425
3 437 394 426
3 445 404 428
3 430 370 429
3 446 428 406
3 446 406 430
3 407 431 447
3 408 418 448
3 409 408 449
3 432 409 449
3 410 433 450
3 411 410 451
3 431 411 451
3 412 413 452
3 433 412 453
3 452 413 432
3 434 455 414
3 391 435 434
3 456 416 415
3 436 416 456
3 417 436 457
3 418 417 458
3 438 395 437
3 439 396 438
3 440 397 439
3 422 398 440
3 420 459 435
3 442 441 400
3 460 442 401
3 422 440 443
3 424 402 444
3 444 423 462
3 423 427 462
3 425 424 463
3 426 425 464
3 437 426 465
3 427 445 466
3 466 445 428
3 407 467 420
3 468 430 429
3 466 428 446
3 469 446 430
3 447 431 470
3 407 447 467
3 448 418 458
3 449 408 448
3 452 432 449
3 450 433 471
3 451 410 450
3 431 451 470
3 412 452 453
3 433 453 471
3 472 415 454
3 455 474 414
3 475 455 434
3 435 475 434
3 456 415 472
3 436 456 476
3 457 436 476
3 458 417 457
3 438 437 477
3 439 438 478
3 440 439 479
3 435 459 475
3 420 467 459
3 480 429 441
3 481 441 442
3 460 482 442
3 483 460 401
3 443 479 461
3 443 440 479
3 463 424 444
3 444 462 484
3 462 427 466
3 464 425 463
3 465 426 464
3 477 437 465
3 469 430 468
3 468 429 480
3 485 466 446
3 485 446 469
3 447 470 486
3 467 447 486
3 471 448 458
3 453 449 448
3 453 452 449
3 450 471 487
3 451 450 488
3 470 451 488
3 471 453 448
3 474 472 454
3 473 474 454
3 414 474 473
3 455 489 474
3 475 490 455
3 476 456 472
3 491 457 476
3 487 458 457
3 478 438 477
3 479 439 478
3 459 490 475
3 459 467 490
3 481 480 441
3 482 481 442
3 492 482 460
3 493 460 483
3 479 495 461
3 463 444 484
3 484 462 485
3 462 466 485
3 464 463 496
3 465 464 497
3 477 465 498
3 499 469 468
3 499 468 480
3 500 485 469
3 486 470 501
3 467 486 490
3 487 471 458
3 488 450 487
3 470 488 501
3 474 502 472
3 489 502 474
3 490 489 455
3 502 476 472
3 491 487 457
3 502 491 476
3 478 477 503
3 479 478 495
3 504 480 481
3 482 504 481
3 492 505 482
3 493 492 460
3 494 493 483
3 461 495 494
3 463 484 496
3 484 485 500
3 464 496 497
3 465 497 498
3 477 498 503
3 500 469 499
3 504 499 480
3 486 501 489
3 490 486 489
3 488 487 491
3 501 488 491
3 489 501 502
3 501 491 502
3 478 503 495
3 505 504 482
3 498 505 492
3 503 492 493
3 495 493 494
3 496 484 500
3 497 496 506
3 498 497 505
3 503 498 492
3 506 500 499
3 506 499 504
3 495 503 493
3 505 506 504
3 496 500 506
3 497 506 505
3 507 508 509
3 508 507 510
3 508 510 514
3 514 510 517
3 515 512 511
3 512 515 513
3 513 518 516
3 514 517 519
3 513 515 518
3 516 518 521
3 519 517 520
3 516 521 522
3 519 520 523
3 522 521 525
3 523 520 524
3 522 525 526
3 523 524 527
3 526 525 528
3 527 524 529
3 526 528 530
3 527 529 531
3 530 528 532
3 531 529 533
3 530 532 534
3 531 533 535
3 534 532 536
3 535 533 537
3 534 536 538
3 535 537 539
3 538 536 540
3 539 537 541
3 538 540 542
3 539 541 543
3 542 540 544
3 543 541 546
3 542 544 545
3 543 546 547
3 545 544 549
3 547 546 550
3 545 549 548
3 547 550 551
3 548 549 553
3 551 550 554
3 548 553 552
3 508 511 509
3 509 512 507
3 507 513 510
3 511 508 515
3 512 509 511
3 513 507 512
3 516 510 513
3 514 515 508
3 510 516 517
3 515 514 518
3 516 520 517
3 519 518 514
3 520 516 522
3 518 519 521
3 522 524 520
3 519 525 521
3 525 519 523
3 524 522 526
3 523 528 525
3 526 529 524
3 528 523 527
3 529 526 530
3 527 532 528
3 530 533 529
3 532 527 531
3 533 530 534
3 531 536 532
3 534 537 533
3 536 531 535
3 537 534 538
3 535 540 536
3 538 541 537
3 540 535 539
3 541 538 542
3 539 544 540
3 545 541 542
3 544 539 543
3 541 545 546
3 547 544 543
3 548 546 545
3 544 547 549
3 546 548 550
3 551 549 547
3 552 550 548
3 549 551 553
3 550 552 554
3 554 553 551
3 553 554 552
3 509 508 507
3 510 507 508
3 514 510 508
3 517 510 514
3 511 512 515
3 513 515 512
3 516 518 513
3 519 517 514
3 518 515 513
3 521 518 516
3 520 517 519
3 522 521 516
3 523 520 519
3 525 521 522
3 524 520 523
3 526 525 522
3 527 524 523
3 528 525 526
3 529 524 527
3 530 528 526
3 531 529 527
3 532 528 530
3 533 529 531
3 534 532 530
3 535 533 531
3 536 532 534
3 537 533 535
3 538 536 534
3 539 537 535
3 540 536 538
3 541 537 539
3 542 540 538
3 543 541 539
3 544 540 542
3 546 541 543
3 545 544 542
3 547 546 543
3 549 544 545
3 550 546 547
3 548 549 545
3 551 550 547
3 553 549 548
3 554 550 551
3 552 553 548
3 509 511 508
3 507 512 509
3 510 513 507
3 515 508 511
3 511 509 512
3 512 507 513
3 513 510 516
3 508 515 514
3 517 516 510
3 518 514 515
3 517 520 516
3 514 518 519
3 522 516 520
3 521 519 518
3 520 524 522
3 521 525 519
3 523 519 525
3 526 522 524
3 525 528 523
3 524 529 526
3 527 523 528
3 530 526 529
3 528 532 527
3 529 533 530
3 531 527 532
3 534 530 533
3 532 536 531
3 533 537 534
3 535 531 536
3 538 534 537
3 536 540 535
3 537 541 538
3 539 535 540
3 542 538 541
3 540 544 539
3 542 541 545
3 543 539 544
3 546 545 541
3 543 544 547
3 545 546 548
3 549 547 544
3 550 548 546
3 547 549 551
3 548 550 552
3 553 551 549
3 554 552 550
3 551 553 554
3 552 554 553
