ply
format ascii 1.0
comment Generated by PyMesh
element vertex 630
property double x
property double y
property double z
element face 2296
property list uchar int vertex_indices
end_header
-0.0793049 -0.0785376 -0.197053
0.0793044 -0.0785376 -0.211665
-0.0793049 -0.0785376 -0.211665
0.0793044 -0.0785376 -0.197053
-0.0793049 -0.0968025 -0.211665
0.0793044 -0.0968025 -0.197053
0.0793044 -0.0968025 -0.211665
-0.0793049 -0.0968025 -0.197053
-0.0793049 -0.0785376 -0.16783
0.0793044 -0.0785376 -0.182441
-0.0793049 -0.0785376 -0.182441
0.0793044 -0.0785376 -0.16783
-0.0793049 -0.0968025 -0.182441
0.0793044 -0.0968025 -0.16783
0.0793044 -0.0968025 -0.182441
-0.0793049 -0.0968025 -0.16783
-0.0793049 -0.0785376 0.00750978
0.0793044 -0.0785376 -0.00710189
-0.0793049 -0.0785376 -0.00710189
0.0793044 -0.0785376 0.00750978
-0.0793049 -0.0968025 -0.00710189
0.0793044 -0.0968025 0.00750978
0.0793044 -0.0968025 -0.00710189
-0.0793049 -0.0968025 0.00750978
-0.0793049 -0.0785376 0.27052
0.0793044 -0.0785376 0.255908
-0.0793049 -0.0785376 0.255908
0.0793044 -0.0785376 0.27052
-0.0793049 -0.0968025 0.255908
0.0793044 -0.0968025 0.27052
0.0793044 -0.0968025 0.255908
-0.0793049 -0.0968025 0.27052
-0.0793049 -0.0785376 0.241297
0.0793044 -0.0785376 0.226685
-0.0793049 -0.0785376 0.226685
0.0793044 -0.0785376 0.241297
-0.0793049 -0.0968025 0.226685
0.0793044 -0.0968025 0.241297
0.0793044 -0.0968025 0.226685
-0.0793049 -0.0968025 0.241297
-0.0793049 -0.0785376 0.212073
0.0793044 -0.0785376 0.197462
-0.0793049 -0.0785376 0.197462
0.0793044 -0.0785376 0.212073
-0.0793049 -0.0968025 0.197462
0.0793044 -0.0968025 0.212073
0.0793044 -0.0968025 0.197462
-0.0793049 -0.0968025 0.212073
-0.0793049 -0.0785376 0.18285
0.0793044 -0.0785376 0.168238
-0.0793049 -0.0785376 0.168238
0.0793044 -0.0785376 0.18285
-0.0793049 -0.0968025 0.168238
0.0793044 -0.0968025 0.18285
0.0793044 -0.0968025 0.168238
-0.0793049 -0.0968025 0.18285
-0.0793049 -0.0785376 0.153627
0.0793044 -0.0785376 0.139015
-0.0793049 -0.0785376 0.139015
0.0793044 -0.0785376 0.153627
-0.0793049 -0.0968025 0.139015
0.0793044 -0.0968025 0.153627
0.0793044 -0.0968025 0.139015
-0.0793049 -0.0968025 0.153627
-0.0793049 -0.0785376 0.124403
0.0793044 -0.0785376 0.109791
-0.0793049 -0.0785376 0.109791
0.0793044 -0.0785376 0.124403
-0.0793049 -0.0968025 0.109791
0.0793044 -0.0968025 0.124403
0.0793044 -0.0968025 0.109791
-0.0793049 -0.0968025 0.124403
-0.0793049 -0.0785376 0.0951798
0.0793044 -0.0785376 0.0805682
-0.0793049 -0.0785376 0.0805682
0.0793044 -0.0785376 0.0951798
-0.0793049 -0.0968025 0.0805682
0.0793044 -0.0968025 0.0951798
0.0793044 -0.0968025 0.0805682
-0.0793049 -0.0968025 0.0951798
-0.0793049 -0.0785376 0.0659565
0.0793044 -0.0785376 0.0513448
-0.0793049 -0.0785376 0.0513448
0.0793044 -0.0785376 0.0659565
-0.0793049 -0.0968025 0.0513448
0.0793044 -0.0968025 0.0659565
0.0793044 -0.0968025 0.0513448
-0.0793049 -0.0968025 0.0659565
-0.0793049 -0.0785376 0.0367331
0.0793044 -0.0785376 0.0221215
-0.0793049 -0.0785376 0.0221215
0.0793044 -0.0785376 0.0367331
-0.0793049 -0.0968025 0.0221215
0.0793044 -0.0968025 0.0367331
0.0793044 -0.0968025 0.0221215
-0.0793049 -0.0968025 0.0367331
-0.0793049 -0.0785376 -0.0801598
0.0793044 -0.0785376 -0.0947714
-0.0793049 -0.0785376 -0.0947714
0.0793044 -0.0785376 -0.0801598
-0.0793049 -0.0968025 -0.0947714
0.0793044 -0.0968025 -0.0801598
0.0793044 -0.0968025 -0.0947714
-0.0793049 -0.0968025 -0.0801598
-0.0793049 -0.0785376 0.328967
0.0793044 -0.0785376 0.314355
-0.0793049 -0.0785376 0.314355
0.0793044 -0.0785376 0.328967
-0.0793049 -0.0968025 0.314355
0.0793044 -0.0968025 0.328967
0.0793044 -0.0968025 0.314355
-0.0793049 -0.0968025 0.328967
-0.0793049 -0.0785376 0.299743
0.0793044 -0.0785376 0.285132
-0.0793049 -0.0785376 0.285132
0.0793044 -0.0785376 0.299743
-0.0793049 -0.0968025 0.285132
0.0793044 -0.0968025 0.299743
0.0793044 -0.0968025 0.285132
-0.0793049 -0.0968025 0.299743
-0.0793049 -0.0785376 -0.313947
0.0793044 -0.0785376 -0.328558
-0.0793049 -0.0785376 -0.328558
0.0793044 -0.0785376 -0.313947
-0.0793049 -0.0968025 -0.328558
0.0793044 -0.0968025 -0.313947
0.0793044 -0.0968025 -0.328558
-0.0793049 -0.0968025 -0.313947
0.101368 -0.211869 0.347686
0.101368 -0.211869 0.382781
0.101368 -0.211532 0.346654
0.116893 -0.211869 0.347686
0.101368 -0.211744 0.383732
0.116893 -0.211532 0.346654
0.116893 -0.211869 0.382781
0.101368 -0.211377 0.384619
0.116893 -0.211005 0.345704
0.101368 -0.211005 0.345704
0.116893 -0.211744 0.383732
0.116893 -0.211377 0.384619
0.101368 -0.210793 0.38538
0.116893 -0.210306 0.344871
0.116893 -0.210793 0.38538
0.101368 -0.210306 0.344871
0.101368 -0.210031 0.385963
0.101368 -0.209462 0.344188
0.116893 -0.210031 0.385963
0.116893 -0.209462 0.344188
0.101368 -0.209145 0.386331
0.116893 -0.209145 0.386331
0.101368 -0.208502 0.343678
0.116893 -0.208502 0.343678
0.101368 -0.208194 0.386456
0.116893 -0.208194 0.386456
0.101368 -0.207463 0.34336
0.116893 -0.207463 0.34336
0.101368 -0.191571 0.385655
0.116893 -0.191571 0.385655
0.101368 0.19189 0.350667
0.116893 0.19189 0.350667
0.101368 -0.174945 0.384904
0.116893 -0.174945 0.384904
0.116893 0.191107 0.381217
0.101368 -0.158317 0.384203
0.101368 0.191107 0.381217
0.116893 0.174469 0.380852
0.116893 -0.158317 0.384203
0.101368 -0.141687 0.383554
0.101368 0.174469 0.380852
0.116893 0.157828 0.380538
0.116893 -0.141687 0.383554
0.101368 -0.125055 0.382956
0.101368 0.157828 0.380538
0.116893 0.141188 0.380274
0.116893 -0.125055 0.382956
0.101368 -0.108422 0.382407
0.101368 0.141188 0.380274
0.116893 0.124547 0.380061
0.116893 -0.108422 0.382407
0.101368 -0.0917857 0.38191
0.101368 0.124547 0.380061
0.116893 0.107905 0.379899
0.116893 -0.0917857 0.38191
0.101368 -0.0751494 0.381463
0.101368 0.107905 0.379899
0.116893 0.0912625 0.379787
0.116893 -0.0751494 0.381463
0.101368 -0.0585115 0.381068
0.101368 0.0912625 0.379787
0.116893 0.07462 0.379727
0.116893 -0.0585115 0.381068
0.101368 -0.0418721 0.380723
0.101368 0.07462 0.379727
0.116893 0.0579775 0.379716
0.116893 -0.0418721 0.380723
0.101368 -0.0252322 0.380428
0.101368 0.0579775 0.379716
0.116893 0.0413351 0.379757
0.116893 -0.0252322 0.380428
0.101368 -0.00859129 0.380184
0.101368 0.0413351 0.379757
0.116893 0.0246921 0.379849
0.116893 -0.00859129 0.380184
0.101368 0.00805015 0.379991
0.101368 0.0246921 0.379849
0.116893 0.00805015 0.379991
-0.116893 -0.211869 0.347686
-0.116893 -0.211869 0.382781
-0.116893 -0.211532 0.346654
-0.101368 -0.211869 0.347686
-0.116893 -0.211744 0.383732
-0.101368 -0.211532 0.346654
-0.101368 -0.211869 0.382781
-0.116893 -0.211377 0.384619
-0.101368 -0.211005 0.345704
-0.116893 -0.211005 0.345704
-0.101368 -0.211744 0.383732
-0.101368 -0.211377 0.384619
-0.116893 -0.210793 0.38538
-0.101368 -0.210306 0.344871
-0.101368 -0.210793 0.38538
-0.116893 -0.210306 0.344871
-0.116893 -0.210031 0.385963
-0.116893 -0.209462 0.344188
-0.101368 -0.210031 0.385963
-0.101368 -0.209462 0.344188
-0.116893 -0.209145 0.386331
-0.101368 -0.209145 0.386331
-0.116893 -0.208502 0.343678
-0.101368 -0.208502 0.343678
-0.116893 -0.208194 0.386456
-0.101368 -0.208194 0.386456
-0.116893 -0.207463 0.34336
-0.101368 -0.207463 0.34336
-0.116893 -0.191571 0.385655
-0.101368 -0.191571 0.385655
-0.116893 0.19189 0.350667
-0.101368 0.19189 0.350667
-0.116893 -0.174945 0.384904
-0.101368 -0.174945 0.384904
-0.101368 0.191107 0.381217
-0.116893 -0.158317 0.384203
-0.116893 0.191107 0.381217
-0.101368 0.174469 0.380852
-0.101368 -0.158317 0.384203
-0.116893 -0.141687 0.383554
-0.116893 0.174469 0.380852
-0.101368 0.157828 0.380538
-0.101368 -0.141687 0.383554
-0.116893 -0.125055 0.382956
-0.116893 0.157828 0.380538
-0.101368 0.141188 0.380274
-0.101368 -0.125055 0.382956
-0.116893 -0.108422 0.382407
-0.116893 0.141188 0.380274
-0.101368 0.124547 0.380061
-0.101368 -0.108422 0.382407
-0.116893 -0.0917857 0.38191
-0.116893 0.124547 0.380061
-0.101368 0.107905 0.379899
-0.101368 -0.0917857 0.38191
-0.116893 -0.0751494 0.381463
-0.116893 0.107905 0.379899
-0.101368 0.0912625 0.379787
-0.101368 -0.0751494 0.381463
-0.116893 -0.0585115 0.381068
-0.116893 0.0912625 0.379787
-0.101368 0.07462 0.379727
-0.101368 -0.0585115 0.381068
-0.116893 -0.0418721 0.380723
-0.116893 0.07462 0.379727
-0.101368 0.0579775 0.379716
-0.101368 -0.0418721 0.380723
-0.116893 -0.0252322 0.380428
-0.116893 0.0579775 0.379716
-0.101368 0.0413351 0.379757
-0.101368 -0.0252322 0.380428
-0.116893 -0.00859129 0.380184
-0.116893 0.0413351 0.379757
-0.101368 0.0246921 0.379849
-0.101368 -0.00859129 0.380184
-0.116893 0.00805015 0.379991
-0.116893 0.0246921 0.379849
-0.101368 0.00805015 0.379991
-0.0793049 -0.0785376 -0.0509364
0.0793044 -0.0785376 -0.0655481
-0.0793049 -0.0785376 -0.0655481
0.0793044 -0.0785376 -0.0509364
-0.0793049 -0.0968025 -0.0655481
0.0793044 -0.0968025 -0.0509364
0.0793044 -0.0968025 -0.0655481
-0.0793049 -0.0968025 -0.0509364
-0.0793049 -0.0785376 -0.226276
0.0793054 -0.0785376 -0.240888
-0.0793049 -0.0785376 -0.240888
0.0793054 -0.0785376 -0.226276
-0.0793049 -0.0968025 -0.240888
0.0793054 -0.0968025 -0.226276
0.0793054 -0.0968025 -0.240888
-0.0793049 -0.0968025 -0.226276
-0.0793049 -0.0785376 -0.2555
0.0793054 -0.0785376 -0.270112
-0.0793049 -0.0785376 -0.270112
0.0793054 -0.0785376 -0.2555
-0.0793049 -0.0968025 -0.270112
0.0793054 -0.0968025 -0.2555
0.0793054 -0.0968025 -0.270112
-0.0793049 -0.0968025 -0.2555
0.101368 -0.211532 -0.346654
0.101368 -0.211869 -0.382781
0.101368 -0.211869 -0.347686
0.101368 -0.211744 -0.383732
0.116893 -0.211869 -0.347686
0.116893 -0.211532 -0.346654
0.101368 -0.211377 -0.384619
0.116893 -0.211869 -0.382781
0.116893 -0.211005 -0.345704
0.101368 -0.211005 -0.345704
0.116893 -0.211744 -0.383732
0.116893 -0.211377 -0.384619
0.101368 -0.210793 -0.38538
0.116893 -0.210306 -0.344872
0.116893 -0.210793 -0.38538
0.101368 -0.210306 -0.344872
0.101368 -0.210031 -0.385963
0.101368 -0.209462 -0.344188
0.116893 -0.210031 -0.385963
0.116893 -0.209462 -0.344188
0.101368 -0.209145 -0.386332
0.116893 -0.209145 -0.386332
0.101368 -0.208502 -0.343678
0.116893 -0.208502 -0.343678
0.101368 -0.208194 -0.386456
0.116893 -0.208194 -0.386456
0.101368 -0.207463 -0.34336
0.116893 -0.207463 -0.34336
0.101368 -0.191571 -0.385655
0.116893 -0.191571 -0.385655
0.101368 0.19189 -0.350667
0.116893 0.19189 -0.350667
0.101368 -0.174945 -0.384904
0.116893 -0.174945 -0.384904
0.116893 0.191107 -0.381217
0.101368 -0.158317 -0.384204
0.101368 0.191107 -0.381217
0.116893 0.174469 -0.380852
0.116893 -0.158317 -0.384204
0.101368 -0.141687 -0.383554
0.101368 0.174469 -0.380852
0.116893 0.157828 -0.380538
0.116893 -0.141687 -0.383554
0.101368 -0.125055 -0.382956
0.101368 0.157828 -0.380538
0.116893 0.141188 -0.380274
0.116893 -0.125055 -0.382956
0.101368 -0.108422 -0.382407
0.101368 0.141188 -0.380274
0.116893 0.124547 -0.380061
0.116893 -0.108422 -0.382407
0.101368 -0.0917857 -0.38191
0.101368 0.124547 -0.380061
0.116893 0.107905 -0.379899
0.116893 -0.0917857 -0.38191
0.101368 -0.0751494 -0.381463
0.101368 0.107905 -0.379899
0.116893 0.0912625 -0.379788
0.116893 -0.0751494 -0.381463
0.101368 -0.0585115 -0.381068
0.101368 0.0912625 -0.379788
0.116893 0.07462 -0.379727
0.116893 -0.0585115 -0.381068
0.101368 -0.0418721 -0.380723
0.101368 0.07462 -0.379727
0.116893 0.0579775 -0.379717
0.116893 -0.0418721 -0.380723
0.101368 -0.0252322 -0.380428
0.101368 0.0579775 -0.379717
0.116893 0.0413351 -0.379758
0.116893 -0.0252322 -0.380428
0.101368 -0.00859129 -0.380184
0.101368 0.0413351 -0.379758
0.116893 0.0246921 -0.379849
0.116893 -0.00859129 -0.380184
0.101368 0.00805015 -0.379992
0.101368 0.0246921 -0.379849
0.116893 0.00805015 -0.379992
-0.116893 -0.211532 -0.346654
-0.116893 -0.211869 -0.382781
-0.116893 -0.211869 -0.347686
-0.116893 -0.211744 -0.383732
-0.101368 -0.211869 -0.347686
-0.101368 -0.211532 -0.346654
-0.116893 -0.211377 -0.384619
-0.101368 -0.211869 -0.382781
-0.101368 -0.211005 -0.345704
-0.116893 -0.211005 -0.345704
-0.101368 -0.211744 -0.383732
-0.101368 -0.211377 -0.384619
-0.116893 -0.210793 -0.38538
-0.101368 -0.210306 -0.344872
-0.101368 -0.210793 -0.38538
-0.116893 -0.210306 -0.344872
-0.116893 -0.210031 -0.385963
-0.116893 -0.209462 -0.344188
-0.101368 -0.210031 -0.385963
-0.101368 -0.209462 -0.344188
-0.116893 -0.209145 -0.386332
-0.101368 -0.209145 -0.386332
-0.116893 -0.208502 -0.343678
-0.101368 -0.208502 -0.343678
-0.116893 -0.208194 -0.386456
-0.101368 -0.208194 -0.386456
-0.116893 -0.207463 -0.34336
-0.101368 -0.207463 -0.34336
-0.116893 -0.191571 -0.385655
-0.101368 -0.191571 -0.385655
-0.116893 0.19189 -0.350667
-0.101368 0.19189 -0.350667
-0.116893 -0.174945 -0.384904
-0.101368 -0.174945 -0.384904
-0.101368 0.191107 -0.381217
-0.116893 -0.158317 -0.384204
-0.116893 0.191107 -0.381217
-0.101368 0.174469 -0.380852
-0.101368 -0.158317 -0.384204
-0.116893 -0.141687 -0.383554
-0.116893 0.174469 -0.380852
-0.101368 0.157828 -0.380538
-0.101368 -0.141687 -0.383554
-0.116893 -0.125055 -0.382956
-0.116893 0.157828 -0.380538
-0.101368 0.141188 -0.380274
-0.101368 -0.125055 -0.382956
-0.116893 -0.108422 -0.382407
-0.116893 0.141188 -0.380274
-0.101368 0.124547 -0.380061
-0.101368 -0.108422 -0.382407
-0.116893 -0.0917857 -0.38191
-0.116893 0.124547 -0.380061
-0.101368 0.107905 -0.379899
-0.101368 -0.0917857 -0.38191
-0.116893 -0.0751494 -0.381463
-0.116893 0.107905 -0.379899
-0.101368 0.0912625 -0.379788
-0.101368 -0.0751494 -0.381463
-0.116893 -0.0585115 -0.381068
-0.116893 0.0912625 -0.379788
-0.101368 0.07462 -0.379727
-0.101368 -0.0585115 -0.381068
-0.116893 -0.0418721 -0.380723
-0.116893 0.07462 -0.379727
-0.101368 0.0579775 -0.379717
-0.101368 -0.0418721 -0.380723
-0.116893 -0.0252322 -0.380428
-0.116893 0.0579775 -0.379717
-0.101368 0.0413351 -0.379758
-0.101368 -0.0252322 -0.380428
-0.116893 -0.00859129 -0.380184
-0.116893 0.0413351 -0.379758
-0.101368 0.0246921 -0.379849
-0.101368 -0.00859129 -0.380184
-0.116893 0.00805015 -0.379992
-0.116893 0.0246921 -0.379849
-0.101368 0.00805015 -0.379992
-0.0793049 -0.0785376 -0.284723
0.0793044 -0.0785376 -0.299335
-0.0793049 -0.0785376 -0.299335
0.0793044 -0.0785376 -0.284723
-0.0793049 -0.0968025 -0.299335
0.0793044 -0.0968025 -0.284723
0.0793044 -0.0968025 -0.299335
-0.0793049 -0.0968025 -0.284723
-0.0793049 -0.0785376 -0.109383
0.0793044 -0.0785376 -0.123995
-0.0793049 -0.0785376 -0.123995
0.0793044 -0.0785376 -0.109383
-0.0793049 -0.0968025 -0.123995
0.0793044 -0.0968025 -0.109383
0.0793044 -0.0968025 -0.123995
-0.0793049 -0.0968025 -0.109383
-0.0793049 -0.0785376 -0.0217131
0.0793044 -0.0785376 -0.0363247
-0.0793049 -0.0785376 -0.0363247
0.0793044 -0.0785376 -0.0217131
-0.0793049 -0.0968025 -0.0363247
0.0793044 -0.0968025 -0.0217131
0.0793044 -0.0968025 -0.0363247
-0.0793049 -0.0968025 -0.0217131
-0.0793049 -0.0785376 -0.138606
0.0793044 -0.0785376 -0.153218
-0.0793049 -0.0785376 -0.153218
0.0793044 -0.0785376 -0.138606
-0.0793049 -0.0968025 -0.153218
0.0793044 -0.0968025 -0.138606
0.0793044 -0.0968025 -0.153218
-0.0793049 -0.0968025 -0.138606
-0.101368 -0.0785376 -0.365233
-0.0793049 -0.0785376 -0.34317
0.101368 -0.0785376 -0.365233
-0.101368 -0.0785376 0.365233
0.0793044 -0.0785376 -0.34317
-0.101368 -0.0968025 -0.365233
-0.0793049 -0.0785376 0.34317
0.101368 -0.0785376 0.365233
0.0793044 -0.0968025 -0.34317
0.101368 -0.0968025 -0.365233
-0.101368 -0.0968025 0.365233
0.0793044 -0.0785376 0.34317
-0.0793049 -0.0968025 0.34317
-0.0793049 -0.0968025 -0.34317
0.101368 -0.0968025 0.365233
0.0793044 -0.0968025 0.34317
0.116893 0.210201 -0.43736
-0.116893 0.207123 -0.437547
-0.116893 0.210201 -0.43736
0.116893 0.207123 -0.437547
-0.116893 0.210201 0.43736
0.116893 0.210744 -0.437135
0.116893 0.207123 0.437547
-0.116893 0.204041 -0.437443
-0.116893 0.207123 0.437547
-0.116893 0.210744 0.437135
-0.116893 0.210744 -0.437135
0.116893 0.210201 0.43736
0.116893 0.204041 0.437443
0.116893 0.204041 -0.437443
0.116893 0.21121 -0.436778
0.116893 0.210744 0.437135
-0.116893 0.200982 -0.43705
-0.116893 0.204041 0.437443
-0.116893 0.21121 0.436778
-0.116893 0.21121 -0.436778
0.116893 0.200982 0.437049
0.116893 0.200982 -0.43705
-0.116893 0.211568 -0.436312
0.116893 0.21121 0.436778
-0.116893 0.197974 -0.436371
-0.116893 0.200982 0.437049
-0.116893 0.211568 0.436311
0.116893 0.211568 -0.436312
0.116893 0.197974 0.43637
0.116893 0.197974 -0.436371
0.116893 0.211568 0.436311
-0.116893 0.211793 -0.435769
-0.116893 0.211793 0.435769
-0.116893 0.195044 -0.435411
-0.116893 0.197974 0.43637
0.116893 0.211793 0.435769
0.116893 0.211793 -0.435769
0.116893 0.196344 -2.56644e-07
0.116893 0.195044 -0.435411
-0.116893 0.195234 -0.179
-0.116893 0.196344 -2.56644e-07
-0.116893 0.211869 -0.435186
-0.116893 0.211869 0.435186
0.116893 0.211869 0.435186
0.116893 0.1963 0.035801
0.116893 0.1963 -0.035801
0.116893 0.195044 0.435411
0.116893 0.195234 -0.179
-0.116893 0.192215 -0.434181
-0.116893 0.194746 -0.214798
-0.116893 0.195634 -0.143202
-0.116893 0.1963 -0.035801
-0.116893 0.1963 0.035801
0.116893 0.211869 -0.435186
0.116893 0.196167 0.0716016
0.116893 0.196167 -0.0716017
-0.116893 0.195044 0.435411
0.116893 0.195234 0.179
0.116893 0.194746 -0.214798
0.116893 0.195634 -0.143202
0.116893 0.192215 -0.434181
-0.116893 0.192749 -0.322182
-0.116893 0.194169 -0.250595
-0.116893 0.195945 -0.107402
-0.116893 0.196167 -0.0716017
-0.116893 0.196167 0.0716016
0.116893 0.195945 0.107402
0.116893 0.195945 -0.107402
-0.116893 0.195234 0.179
0.116893 0.192215 0.434181
0.116893 0.194746 0.214798
0.116893 0.195634 0.143202
0.116893 0.194169 -0.250595
0.116893 0.192749 -0.322182
-0.116893 0.191438 -0.433684
-0.116893 0.191905 -0.357973
-0.116893 0.193503 -0.286389
-0.116893 0.195945 0.107402
-0.116893 0.194746 0.214798
-0.116893 0.195634 0.143202
-0.116893 0.192215 0.434181
0.116893 0.192749 0.322182
0.116893 0.194169 0.250594
0.116893 0.193503 -0.286389
0.116893 0.191905 -0.357973
0.116893 0.191438 -0.433684
-0.116893 0.194169 0.250594
-0.116893 0.192749 0.322182
0.116893 0.191438 0.433684
0.116893 0.191905 0.357973
0.116893 0.193503 0.286389
0.116893 0.190786 -0.433031
-0.116893 0.190973 -0.393762
-0.116893 0.193503 0.286389
-0.116893 0.191905 0.357973
-0.116893 0.191438 0.433684
0.116893 0.190973 -0.393762
-0.116893 0.190786 -0.433031
-0.116893 0.190786 0.433031
0.116893 0.190973 0.393762
0.116893 0.190292 -0.432251
-0.116893 0.190292 -0.432251
-0.116893 0.190973 0.393762
0.116893 0.190786 0.433031
-0.116893 0.189952 -0.429548
0.116893 0.18998 -0.431383
-0.116893 0.18998 -0.431383
-0.116893 0.190292 0.432251
0.116893 0.190292 0.432251
0.116893 0.189952 -0.429548
-0.116893 0.189952 -0.431156
0.116893 0.189952 0.429548
-0.116893 0.18998 0.431383
0.116893 0.18998 0.431383
0.116893 0.189952 -0.431156
-0.116893 0.189952 0.429548
0.116893 0.189952 0.431156
-0.116893 0.189952 0.431156
3 0 1 2
3 1 0 3
3 2 1 0
3 3 0 1
3 1 4 2
3 2 4 1
3 4 0 2
3 2 0 4
3 0 5 3
3 3 5 0
3 5 1 3
3 3 1 5
3 4 1 6
3 6 1 4
3 0 4 7
3 7 4 0
3 5 0 7
3 7 0 5
3 1 5 6
3 6 5 1
3 5 4 6
3 6 4 5
3 4 5 7
3 7 5 4
3 8 9 10
3 9 8 11
3 10 9 8
3 11 8 9
3 9 12 10
3 10 12 9
3 12 8 10
3 10 8 12
3 8 13 11
3 11 13 8
3 13 9 11
3 11 9 13
3 12 9 14
3 14 9 12
3 8 12 15
3 15 12 8
3 13 8 15
3 15 8 13
3 9 13 14
3 14 13 9
3 13 12 14
3 14 12 13
3 12 13 15
3 15 13 12
3 16 17 18
3 17 16 19
3 18 17 16
3 19 16 17
3 17 20 18
3 18 20 17
3 20 16 18
3 18 16 20
3 16 21 19
3 19 21 16
3 21 17 19
3 19 17 21
3 20 17 22
3 22 17 20
3 16 20 23
3 23 20 16
3 21 16 23
3 23 16 21
3 17 21 22
3 22 21 17
3 21 20 22
3 22 20 21
3 20 21 23
3 23 21 20
3 24 25 26
3 25 24 27
3 26 25 24
3 27 24 25
3 25 28 26
3 26 28 25
3 28 24 26
3 26 24 28
3 24 29 27
3 27 29 24
3 29 25 27
3 27 25 29
3 28 25 30
3 30 25 28
3 24 28 31
3 31 28 24
3 29 24 31
3 31 24 29
3 25 29 30
3 30 29 25
3 29 28 30
3 30 28 29
3 28 29 31
3 31 29 28
3 32 33 34
3 33 32 35
3 34 33 32
3 35 32 33
3 33 36 34
3 34 36 33
3 36 32 34
3 34 32 36
3 32 37 35
3 35 37 32
3 37 33 35
3 35 33 37
3 36 33 38
3 38 33 36
3 32 36 39
3 39 36 32
3 37 32 39
3 39 32 37
3 33 37 38
3 38 37 33
3 37 36 38
3 38 36 37
3 36 37 39
3 39 37 36
3 40 41 42
3 41 40 43
3 42 41 40
3 43 40 41
3 41 44 42
3 42 44 41
3 44 40 42
3 42 40 44
3 40 45 43
3 43 45 40
3 45 41 43
3 43 41 45
3 44 41 46
3 46 41 44
3 40 44 47
3 47 44 40
3 45 40 47
3 47 40 45
3 41 45 46
3 46 45 41
3 45 44 46
3 46 44 45
3 44 45 47
3 47 45 44
3 48 49 50
3 49 48 51
3 50 49 48
3 51 48 49
3 49 52 50
3 50 52 49
3 52 48 50
3 50 48 52
3 48 53 51
3 51 53 48
3 53 49 51
3 51 49 53
3 52 49 54
3 54 49 52
3 48 52 55
3 55 52 48
3 53 48 55
3 55 48 53
3 49 53 54
3 54 53 49
3 53 52 54
3 54 52 53
3 52 53 55
3 55 53 52
3 56 57 58
3 57 56 59
3 58 57 56
3 59 56 57
3 57 60 58
3 58 60 57
3 60 56 58
3 58 56 60
3 56 61 59
3 59 61 56
3 61 57 59
3 59 57 61
3 60 57 62
3 62 57 60
3 56 60 63
3 63 60 56
3 61 56 63
3 63 56 61
3 57 61 62
3 62 61 57
3 61 60 62
3 62 60 61
3 60 61 63
3 63 61 60
3 64 65 66
3 65 64 67
3 66 65 64
3 67 64 65
3 65 68 66
3 66 68 65
3 68 64 66
3 66 64 68
3 64 69 67
3 67 69 64
3 69 65 67
3 67 65 69
3 68 65 70
3 70 65 68
3 64 68 71
3 71 68 64
3 69 64 71
3 71 64 69
3 65 69 70
3 70 69 65
3 69 68 70
3 70 68 69
3 68 69 71
3 71 69 68
3 72 73 74
3 73 72 75
3 74 73 72
3 75 72 73
3 73 76 74
3 74 76 73
3 76 72 74
3 74 72 76
3 72 77 75
3 75 77 72
3 77 73 75
3 75 73 77
3 76 73 78
3 78 73 76
3 72 76 79
3 79 76 72
3 77 72 79
3 79 72 77
3 73 77 78
3 78 77 73
3 77 76 78
3 78 76 77
3 76 77 79
3 79 77 76
3 80 81 82
3 81 80 83
3 82 81 80
3 83 80 81
3 81 84 82
3 82 84 81
3 84 80 82
3 82 80 84
3 80 85 83
3 83 85 80
3 85 81 83
3 83 81 85
3 84 81 86
3 86 81 84
3 80 84 87
3 87 84 80
3 85 80 87
3 87 80 85
3 81 85 86
3 86 85 81
3 85 84 86
3 86 84 85
3 84 85 87
3 87 85 84
3 88 89 90
3 89 88 91
3 90 89 88
3 91 88 89
3 89 92 90
3 90 92 89
3 92 88 90
3 90 88 92
3 88 93 91
3 91 93 88
3 93 89 91
3 91 89 93
3 92 89 94
3 94 89 92
3 88 92 95
3 95 92 88
3 93 88 95
3 95 88 93
3 89 93 94
3 94 93 89
3 93 92 94
3 94 92 93
3 92 93 95
3 95 93 92
3 96 97 98
3 97 96 99
3 98 97 96
3 99 96 97
3 97 100 98
3 98 100 97
3 100 96 98
3 98 96 100
3 96 101 99
3 99 101 96
3 101 97 99
3 99 97 101
3 100 97 102
3 102 97 100
3 96 100 103
3 103 100 96
3 101 96 103
3 103 96 101
3 97 101 102
3 102 101 97
3 101 100 102
3 102 100 101
3 100 101 103
3 103 101 100
3 104 105 106
3 105 104 107
3 106 105 104
3 107 104 105
3 105 108 106
3 106 108 105
3 108 104 106
3 106 104 108
3 104 109 107
3 107 109 104
3 109 105 107
3 107 105 109
3 108 105 110
3 110 105 108
3 104 108 111
3 111 108 104
3 109 104 111
3 111 104 109
3 105 109 110
3 110 109 105
3 109 108 110
3 110 108 109
3 108 109 111
3 111 109 108
3 112 113 114
3 113 112 115
3 114 113 112
3 115 112 113
3 113 116 114
3 114 116 113
3 116 112 114
3 114 112 116
3 112 117 115
3 115 117 112
3 117 113 115
3 115 113 117
3 116 113 118
3 118 113 116
3 112 116 119
3 119 116 112
3 117 112 119
3 119 112 117
3 113 117 118
3 118 117 113
3 117 116 118
3 118 116 117
3 116 117 119
3 119 117 116
3 120 121 122
3 121 120 123
3 122 121 120
3 123 120 121
3 121 124 122
3 122 124 121
3 124 120 122
3 122 120 124
3 120 125 123
3 123 125 120
3 125 121 123
3 123 121 125
3 124 121 126
3 126 121 124
3 120 124 127
3 127 124 120
3 125 120 127
3 127 120 125
3 121 125 126
3 126 125 121
3 125 124 126
3 126 124 125
3 124 125 127
3 127 125 124
3 128 129 130
3 130 129 128
3 128 131 129
3 129 131 128
3 132 130 129
3 129 130 132
3 134 129 131
3 131 129 134
3 135 130 132
3 132 130 135
3 131 133 134
3 134 133 131
3 137 130 135
3 135 130 137
3 136 139 133
3 133 139 136
3 138 134 133
3 133 134 138
3 140 137 135
3 135 137 140
3 142 139 136
3 136 139 142
3 139 138 133
3 133 138 139
3 143 137 140
3 140 137 143
3 141 142 136
3 136 142 141
3 144 143 140
3 140 143 144
3 146 142 141
3 141 142 146
3 145 143 144
3 144 143 145
3 147 146 141
3 141 146 147
3 148 145 144
3 144 145 148
3 149 146 147
3 147 146 149
3 150 145 148
3 148 145 150
3 151 149 147
3 147 149 151
3 152 150 148
3 148 150 152
3 153 149 151
3 151 149 153
3 154 150 152
3 152 150 154
3 155 153 151
3 151 153 155
3 156 154 152
3 152 154 156
3 153 157 152
3 152 157 153
3 154 158 155
3 155 158 154
3 157 153 155
3 155 153 157
3 158 154 156
3 156 154 158
3 156 152 157
3 157 152 156
3 159 155 158
3 158 155 159
3 159 157 155
3 155 157 159
3 160 158 156
3 156 158 160
3 157 161 156
3 156 161 157
3 159 158 162
3 162 158 159
3 161 157 159
3 159 157 161
3 163 158 160
3 160 158 163
3 160 156 161
3 161 156 160
3 164 162 158
3 158 162 164
3 162 165 159
3 159 165 162
3 166 161 159
3 159 161 166
3 167 158 163
3 163 158 167
3 163 160 166
3 166 160 163
3 161 166 160
3 160 166 161
3 164 168 162
3 162 168 164
3 164 158 168
3 168 158 164
3 165 162 168
3 168 162 165
3 165 169 159
3 159 169 165
3 170 166 159
3 159 166 170
3 171 158 167
3 167 158 171
3 167 163 170
3 170 163 167
3 166 170 163
3 163 170 166
3 168 158 172
3 172 158 168
3 168 172 165
3 165 172 168
3 169 165 172
3 172 165 169
3 169 173 159
3 159 173 169
3 174 170 159
3 159 170 174
3 175 158 171
3 171 158 175
3 171 167 174
3 174 167 171
3 170 174 167
3 167 174 170
3 172 158 176
3 176 158 172
3 172 176 169
3 169 176 172
3 173 169 176
3 176 169 173
3 173 177 159
3 159 177 173
3 178 174 159
3 159 174 178
3 179 158 175
3 175 158 179
3 175 171 178
3 178 171 175
3 174 178 171
3 171 178 174
3 176 158 180
3 180 158 176
3 176 180 173
3 173 180 176
3 177 173 180
3 180 173 177
3 177 181 159
3 159 181 177
3 182 178 159
3 159 178 182
3 183 158 179
3 179 158 183
3 179 175 182
3 182 175 179
3 178 182 175
3 175 182 178
3 180 158 184
3 184 158 180
3 180 184 177
3 177 184 180
3 181 177 184
3 184 177 181
3 181 185 159
3 159 185 181
3 186 182 159
3 159 182 186
3 187 158 183
3 183 158 187
3 183 179 186
3 186 179 183
3 182 186 179
3 179 186 182
3 184 158 188
3 188 158 184
3 184 188 181
3 181 188 184
3 185 181 188
3 188 181 185
3 185 189 159
3 159 189 185
3 190 186 159
3 159 186 190
3 191 158 187
3 187 158 191
3 187 183 190
3 190 183 187
3 186 190 183
3 183 190 186
3 188 158 192
3 192 158 188
3 188 192 185
3 185 192 188
3 189 185 192
3 192 185 189
3 189 193 159
3 159 193 189
3 194 190 159
3 159 190 194
3 195 158 191
3 191 158 195
3 191 187 194
3 194 187 191
3 190 194 187
3 187 194 190
3 192 158 196
3 196 158 192
3 192 196 189
3 189 196 192
3 193 189 196
3 196 189 193
3 193 197 159
3 159 197 193
3 198 194 159
3 159 194 198
3 199 158 195
3 195 158 199
3 195 191 198
3 198 191 195
3 194 198 191
3 191 198 194
3 196 158 200
3 200 158 196
3 196 200 193
3 193 200 196
3 197 193 200
3 200 193 197
3 197 201 159
3 159 201 197
3 202 198 159
3 159 198 202
3 203 158 199
3 199 158 203
3 199 195 202
3 202 195 199
3 198 202 195
3 195 202 198
3 200 158 204
3 204 158 200
3 200 204 197
3 197 204 200
3 201 197 204
3 204 197 201
3 201 205 159
3 159 205 201
3 205 202 159
3 159 202 205
3 204 158 203
3 203 158 204
3 203 199 205
3 205 199 203
3 202 205 199
3 199 205 202
3 204 203 201
3 201 203 204
3 205 201 203
3 203 201 205
3 130 133 128
3 128 133 130
3 131 128 133
3 133 128 131
3 129 134 132
3 132 134 129
3 133 130 136
3 136 130 133
3 132 138 135
3 135 138 132
3 138 132 134
3 134 132 138
3 137 136 130
3 130 136 137
3 139 135 138
3 138 135 139
3 136 137 141
3 141 137 136
3 135 139 140
3 140 139 135
3 143 141 137
3 137 141 143
3 142 140 139
3 139 140 142
3 143 145 141
3 141 145 143
3 142 146 140
3 140 146 142
3 144 140 146
3 146 140 144
3 147 141 145
3 145 141 147
3 146 149 144
3 144 149 146
3 145 150 147
3 147 150 145
3 148 144 149
3 149 144 148
3 151 147 150
3 150 147 151
3 149 153 148
3 148 153 149
3 150 154 151
3 151 154 150
3 152 148 153
3 153 148 152
3 155 151 154
3 154 151 155
3 206 207 208
3 208 207 206
3 206 209 207
3 207 209 206
3 210 208 207
3 207 208 210
3 212 207 209
3 209 207 212
3 213 208 210
3 210 208 213
3 209 211 212
3 212 211 209
3 215 208 213
3 213 208 215
3 214 217 211
3 211 217 214
3 216 212 211
3 211 212 216
3 218 215 213
3 213 215 218
3 220 217 214
3 214 217 220
3 217 216 211
3 211 216 217
3 221 215 218
3 218 215 221
3 219 220 214
3 214 220 219
3 222 221 218
3 218 221 222
3 224 220 219
3 219 220 224
3 223 221 222
3 222 221 223
3 225 224 219
3 219 224 225
3 226 223 222
3 222 223 226
3 227 224 225
3 225 224 227
3 228 223 226
3 226 223 228
3 229 227 225
3 225 227 229
3 230 228 226
3 226 228 230
3 231 227 229
3 229 227 231
3 232 228 230
3 230 228 232
3 233 231 229
3 229 231 233
3 234 232 230
3 230 232 234
3 231 235 230
3 230 235 231
3 232 236 233
3 233 236 232
3 235 231 233
3 233 231 235
3 236 232 234
3 234 232 236
3 234 230 235
3 235 230 234
3 237 233 236
3 236 233 237
3 237 235 233
3 233 235 237
3 238 236 234
3 234 236 238
3 235 239 234
3 234 239 235
3 237 236 240
3 240 236 237
3 239 235 237
3 237 235 239
3 241 236 238
3 238 236 241
3 238 234 239
3 239 234 238
3 242 240 236
3 236 240 242
3 240 243 237
3 237 243 240
3 244 239 237
3 237 239 244
3 245 236 241
3 241 236 245
3 241 238 244
3 244 238 241
3 239 244 238
3 238 244 239
3 242 246 240
3 240 246 242
3 242 236 246
3 246 236 242
3 243 240 246
3 246 240 243
3 243 247 237
3 237 247 243
3 248 244 237
3 237 244 248
3 249 236 245
3 245 236 249
3 245 241 248
3 248 241 245
3 244 248 241
3 241 248 244
3 246 236 250
3 250 236 246
3 246 250 243
3 243 250 246
3 247 243 250
3 250 243 247
3 247 251 237
3 237 251 247
3 252 248 237
3 237 248 252
3 253 236 249
3 249 236 253
3 249 245 252
3 252 245 249
3 248 252 245
3 245 252 248
3 250 236 254
3 254 236 250
3 250 254 247
3 247 254 250
3 251 247 254
3 254 247 251
3 251 255 237
3 237 255 251
3 256 252 237
3 237 252 256
3 257 236 253
3 253 236 257
3 253 249 256
3 256 249 253
3 252 256 249
3 249 256 252
3 254 236 258
3 258 236 254
3 254 258 251
3 251 258 254
3 255 251 258
3 258 251 255
3 255 259 237
3 237 259 255
3 260 256 237
3 237 256 260
3 261 236 257
3 257 236 261
3 257 253 260
3 260 253 257
3 256 260 253
3 253 260 256
3 258 236 262
3 262 236 258
3 258 262 255
3 255 262 258
3 259 255 262
3 262 255 259
3 259 263 237
3 237 263 259
3 264 260 237
3 237 260 264
3 265 236 261
3 261 236 265
3 261 257 264
3 264 257 261
3 260 264 257
3 257 264 260
3 262 236 266
3 266 236 262
3 262 266 259
3 259 266 262
3 263 259 266
3 266 259 263
3 263 267 237
3 237 267 263
3 268 264 237
3 237 264 268
3 269 236 265
3 265 236 269
3 265 261 268
3 268 261 265
3 264 268 261
3 261 268 264
3 266 236 270
3 270 236 266
3 266 270 263
3 263 270 266
3 267 263 270
3 270 263 267
3 267 271 237
3 237 271 267
3 272 268 237
3 237 268 272
3 273 236 269
3 269 236 273
3 269 265 272
3 272 265 269
3 268 272 265
3 265 272 268
3 270 236 274
3 274 236 270
3 270 274 267
3 267 274 270
3 271 267 274
3 274 267 271
3 271 275 237
3 237 275 271
3 276 272 237
3 237 272 276
3 277 236 273
3 273 236 277
3 273 269 276
3 276 269 273
3 272 276 269
3 269 276 272
3 274 236 278
3 278 236 274
3 274 278 271
3 271 278 274
3 275 271 278
3 278 271 275
3 275 279 237
3 237 279 275
3 280 276 237
3 237 276 280
3 281 236 277
3 277 236 281
3 277 273 280
3 280 273 277
3 276 280 273
3 273 280 276
3 278 236 282
3 282 236 278
3 278 282 275
3 275 282 278
3 279 275 282
3 282 275 279
3 279 283 237
3 237 283 279
3 283 280 237
3 237 280 283
3 282 236 281
3 281 236 282
3 281 277 283
3 283 277 281
3 280 283 277
3 277 283 280
3 282 281 279
3 279 281 282
3 283 279 281
3 281 279 283
3 208 211 206
3 206 211 208
3 209 206 211
3 211 206 209
3 207 212 210
3 210 212 207
3 211 208 214
3 214 208 211
3 210 216 213
3 213 216 210
3 216 210 212
3 212 210 216
3 215 214 208
3 208 214 215
3 217 213 216
3 216 213 217
3 214 215 219
3 219 215 214
3 213 217 218
3 218 217 213
3 221 219 215
3 215 219 221
3 220 218 217
3 217 218 220
3 221 223 219
3 219 223 221
3 220 224 218
3 218 224 220
3 222 218 224
3 224 218 222
3 225 219 223
3 223 219 225
3 224 227 222
3 222 227 224
3 223 228 225
3 225 228 223
3 226 222 227
3 227 222 226
3 229 225 228
3 228 225 229
3 227 231 226
3 226 231 227
3 228 232 229
3 229 232 228
3 230 226 231
3 231 226 230
3 233 229 232
3 232 229 233
3 284 285 286
3 285 284 287
3 286 285 284
3 287 284 285
3 285 288 286
3 286 288 285
3 288 284 286
3 286 284 288
3 284 289 287
3 287 289 284
3 289 285 287
3 287 285 289
3 288 285 290
3 290 285 288
3 284 288 291
3 291 288 284
3 289 284 291
3 291 284 289
3 285 289 290
3 290 289 285
3 289 288 290
3 290 288 289
3 288 289 291
3 291 289 288
3 292 293 294
3 293 292 295
3 294 293 292
3 295 292 293
3 293 296 294
3 294 296 293
3 296 292 294
3 294 292 296
3 292 297 295
3 295 297 292
3 297 293 295
3 295 293 297
3 296 293 298
3 298 293 296
3 292 296 299
3 299 296 292
3 297 292 299
3 299 292 297
3 293 297 298
3 298 297 293
3 297 296 298
3 298 296 297
3 296 297 299
3 299 297 296
3 300 301 302
3 301 300 303
3 302 301 300
3 303 300 301
3 301 304 302
3 302 304 301
3 304 300 302
3 302 300 304
3 300 305 303
3 303 305 300
3 305 301 303
3 303 301 305
3 304 301 306
3 306 301 304
3 300 304 307
3 307 304 300
3 305 300 307
3 307 300 305
3 301 305 306
3 306 305 301
3 305 304 306
3 306 304 305
3 304 305 307
3 307 305 304
3 308 309 310
3 309 308 311
3 310 309 308
3 311 308 309
3 309 312 310
3 310 312 309
3 311 308 314
3 314 308 311
3 312 309 315
3 315 309 312
3 314 308 317
3 317 308 314
3 315 313 312
3 312 313 315
3 313 319 316
3 316 319 313
3 314 317 320
3 320 317 314
3 313 315 318
3 318 315 313
3 313 318 319
3 319 318 313
3 316 319 322
3 322 319 316
3 320 317 323
3 323 317 320
3 316 322 321
3 321 322 316
3 320 323 324
3 324 323 320
3 321 322 326
3 326 322 321
3 324 323 325
3 325 323 324
3 321 326 327
3 327 326 321
3 324 325 328
3 328 325 324
3 327 326 329
3 329 326 327
3 328 325 330
3 330 325 328
3 327 329 331
3 331 329 327
3 328 330 332
3 332 330 328
3 331 329 333
3 333 329 331
3 332 330 334
3 334 330 332
3 331 333 335
3 335 333 331
3 332 334 336
3 336 334 332
3 332 337 333
3 333 337 332
3 335 338 334
3 334 338 335
3 335 333 337
3 337 333 335
3 336 334 338
3 338 334 336
3 337 332 336
3 336 332 337
3 338 335 339
3 339 335 338
3 335 337 339
3 339 337 335
3 336 338 340
3 340 338 336
3 336 341 337
3 337 341 336
3 342 338 339
3 339 338 342
3 339 337 341
3 341 337 339
3 340 338 343
3 343 338 340
3 341 336 340
3 340 336 341
3 338 342 344
3 344 342 338
3 339 345 342
3 342 345 339
3 339 341 346
3 346 341 339
3 343 338 347
3 347 338 343
3 346 340 343
3 343 340 346
3 340 346 341
3 341 346 340
3 342 348 344
3 344 348 342
3 348 338 344
3 344 338 348
3 339 349 345
3 345 349 339
3 348 342 345
3 345 342 348
3 339 346 350
3 350 346 339
3 347 338 351
3 351 338 347
3 350 343 347
3 347 343 350
3 343 350 346
3 346 350 343
3 352 338 348
3 348 338 352
3 339 353 349
3 349 353 339
3 352 345 349
3 349 345 352
3 345 352 348
3 348 352 345
3 339 350 354
3 354 350 339
3 351 338 355
3 355 338 351
3 354 347 351
3 351 347 354
3 347 354 350
3 350 354 347
3 356 338 352
3 352 338 356
3 339 357 353
3 353 357 339
3 356 349 353
3 353 349 356
3 349 356 352
3 352 356 349
3 339 354 358
3 358 354 339
3 355 338 359
3 359 338 355
3 358 351 355
3 355 351 358
3 351 358 354
3 354 358 351
3 360 338 356
3 356 338 360
3 339 361 357
3 357 361 339
3 360 353 357
3 357 353 360
3 353 360 356
3 356 360 353
3 339 358 362
3 362 358 339
3 359 338 363
3 363 338 359
3 362 355 359
3 359 355 362
3 355 362 358
3 358 362 355
3 364 338 360
3 360 338 364
3 339 365 361
3 361 365 339
3 364 357 361
3 361 357 364
3 357 364 360
3 360 364 357
3 339 362 366
3 366 362 339
3 363 338 367
3 367 338 363
3 366 359 363
3 363 359 366
3 359 366 362
3 362 366 359
3 368 338 364
3 364 338 368
3 339 369 365
3 365 369 339
3 368 361 365
3 365 361 368
3 361 368 364
3 364 368 361
3 339 366 370
3 370 366 339
3 367 338 371
3 371 338 367
3 370 363 367
3 367 363 370
3 363 370 366
3 366 370 363
3 372 338 368
3 368 338 372
3 339 373 369
3 369 373 339
3 372 365 369
3 369 365 372
3 365 372 368
3 368 372 365
3 339 370 374
3 374 370 339
3 371 338 375
3 375 338 371
3 374 367 371
3 371 367 374
3 367 374 370
3 370 374 367
3 376 338 372
3 372 338 376
3 339 377 373
3 373 377 339
3 376 369 373
3 373 369 376
3 369 376 372
3 372 376 369
3 339 374 378
3 378 374 339
3 375 338 379
3 379 338 375
3 378 371 375
3 375 371 378
3 371 378 374
3 374 378 371
3 380 338 376
3 376 338 380
3 339 381 377
3 377 381 339
3 380 373 377
3 377 373 380
3 373 380 376
3 376 380 373
3 339 378 382
3 382 378 339
3 379 338 383
3 383 338 379
3 382 375 379
3 379 375 382
3 375 382 378
3 378 382 375
3 384 338 380
3 380 338 384
3 339 385 381
3 381 385 339
3 384 377 381
3 381 377 384
3 377 384 380
3 380 384 377
3 339 382 385
3 385 382 339
3 383 338 384
3 384 338 383
3 385 379 383
3 383 379 385
3 379 385 382
3 382 385 379
3 383 381 385
3 385 381 383
3 381 383 384
3 384 383 381
3 310 313 308
3 308 313 310
3 311 315 309
3 309 315 311
3 313 310 312
3 312 310 313
3 316 308 313
3 313 308 316
3 314 318 311
3 311 318 314
3 315 311 318
3 318 311 315
3 308 316 317
3 317 316 308
3 318 314 319
3 319 314 318
3 321 317 316
3 316 317 321
3 320 319 314
3 314 319 320
3 317 321 323
3 323 321 317
3 319 320 322
3 322 320 319
3 321 325 323
3 323 325 321
3 320 326 322
3 322 326 320
3 326 320 324
3 324 320 326
3 325 321 327
3 327 321 325
3 324 329 326
3 326 329 324
3 327 330 325
3 325 330 327
3 329 324 328
3 328 324 329
3 330 327 331
3 331 327 330
3 328 333 329
3 329 333 328
3 331 334 330
3 330 334 331
3 333 328 332
3 332 328 333
3 334 331 335
3 335 331 334
3 386 387 388
3 387 386 389
3 388 387 386
3 389 386 387
3 387 390 388
3 388 390 387
3 389 386 392
3 392 386 389
3 390 387 393
3 393 387 390
3 392 386 395
3 395 386 392
3 393 391 390
3 390 391 393
3 391 397 394
3 394 397 391
3 392 395 398
3 398 395 392
3 391 393 396
3 396 393 391
3 391 396 397
3 397 396 391
3 394 397 400
3 400 397 394
3 398 395 401
3 401 395 398
3 394 400 399
3 399 400 394
3 398 401 402
3 402 401 398
3 399 400 404
3 404 400 399
3 402 401 403
3 403 401 402
3 399 404 405
3 405 404 399
3 402 403 406
3 406 403 402
3 405 404 407
3 407 404 405
3 406 403 408
3 408 403 406
3 405 407 409
3 409 407 405
3 406 408 410
3 410 408 406
3 409 407 411
3 411 407 409
3 410 408 412
3 412 408 410
3 409 411 413
3 413 411 409
3 410 412 414
3 414 412 410
3 410 415 411
3 411 415 410
3 413 416 412
3 412 416 413
3 413 411 415
3 415 411 413
3 414 412 416
3 416 412 414
3 415 410 414
3 414 410 415
3 416 413 417
3 417 413 416
3 413 415 417
3 417 415 413
3 414 416 418
3 418 416 414
3 414 419 415
3 415 419 414
3 420 416 417
3 417 416 420
3 417 415 419
3 419 415 417
3 418 416 421
3 421 416 418
3 419 414 418
3 418 414 419
3 416 420 422
3 422 420 416
3 417 423 420
3 420 423 417
3 417 419 424
3 424 419 417
3 421 416 425
3 425 416 421
3 424 418 421
3 421 418 424
3 418 424 419
3 419 424 418
3 420 426 422
3 422 426 420
3 426 416 422
3 422 416 426
3 417 427 423
3 423 427 417
3 426 420 423
3 423 420 426
3 417 424 428
3 428 424 417
3 425 416 429
3 429 416 425
3 428 421 425
3 425 421 428
3 421 428 424
3 424 428 421
3 430 416 426
3 426 416 430
3 417 431 427
3 427 431 417
3 430 423 427
3 427 423 430
3 423 430 426
3 426 430 423
3 417 428 432
3 432 428 417
3 429 416 433
3 433 416 429
3 432 425 429
3 429 425 432
3 425 432 428
3 428 432 425
3 434 416 430
3 430 416 434
3 417 435 431
3 431 435 417
3 434 427 431
3 431 427 434
3 427 434 430
3 430 434 427
3 417 432 436
3 436 432 417
3 433 416 437
3 437 416 433
3 436 429 433
3 433 429 436
3 429 436 432
3 432 436 429
3 438 416 434
3 434 416 438
3 417 439 435
3 435 439 417
3 438 431 435
3 435 431 438
3 431 438 434
3 434 438 431
3 417 436 440
3 440 436 417
3 437 416 441
3 441 416 437
3 440 433 437
3 437 433 440
3 433 440 436
3 436 440 433
3 442 416 438
3 438 416 442
3 417 443 439
3 439 443 417
3 442 435 439
3 439 435 442
3 435 442 438
3 438 442 435
3 417 440 444
3 444 440 417
3 441 416 445
3 445 416 441
3 444 437 441
3 441 437 444
3 437 444 440
3 440 444 437
3 446 416 442
3 442 416 446
3 417 447 443
3 443 447 417
3 446 439 443
3 443 439 446
3 439 446 442
3 442 446 439
3 417 444 448
3 448 444 417
3 445 416 449
3 449 416 445
3 448 441 445
3 445 441 448
3 441 448 444
3 444 448 441
3 450 416 446
3 446 416 450
3 417 451 447
3 447 451 417
3 450 443 447
3 447 443 450
3 443 450 446
3 446 450 443
3 417 448 452
3 452 448 417
3 449 416 453
3 453 416 449
3 452 445 449
3 449 445 452
3 445 452 448
3 448 452 445
3 454 416 450
3 450 416 454
3 417 455 451
3 451 455 417
3 454 447 451
3 451 447 454
3 447 454 450
3 450 454 447
3 417 452 456
3 456 452 417
3 453 416 457
3 457 416 453
3 456 449 453
3 453 449 456
3 449 456 452
3 452 456 449
3 458 416 454
3 454 416 458
3 417 459 455
3 455 459 417
3 458 451 455
3 455 451 458
3 451 458 454
3 454 458 451
3 417 456 460
3 460 456 417
3 457 416 461
3 461 416 457
3 460 453 457
3 457 453 460
3 453 460 456
3 456 460 453
3 462 416 458
3 458 416 462
3 417 463 459
3 459 463 417
3 462 455 459
3 459 455 462
3 455 462 458
3 458 462 455
3 417 460 463
3 463 460 417
3 461 416 462
3 462 416 461
3 463 457 461
3 461 457 463
3 457 463 460
3 460 463 457
3 461 459 463
3 463 459 461
3 459 461 462
3 462 461 459
3 388 391 386
3 386 391 388
3 389 393 387
3 387 393 389
3 391 388 390
3 390 388 391
3 394 386 391
3 391 386 394
3 392 396 389
3 389 396 392
3 393 389 396
3 396 389 393
3 386 394 395
3 395 394 386
3 396 392 397
3 397 392 396
3 399 395 394
3 394 395 399
3 398 397 392
3 392 397 398
3 395 399 401
3 401 399 395
3 397 398 400
3 400 398 397
3 399 403 401
3 401 403 399
3 398 404 400
3 400 404 398
3 404 398 402
3 402 398 404
3 403 399 405
3 405 399 403
3 402 407 404
3 404 407 402
3 405 408 403
3 403 408 405
3 407 402 406
3 406 402 407
3 408 405 409
3 409 405 408
3 406 411 407
3 407 411 406
3 409 412 408
3 408 412 409
3 411 406 410
3 410 406 411
3 412 409 413
3 413 409 412
3 464 465 466
3 465 464 467
3 466 465 464
3 467 464 465
3 465 468 466
3 466 468 465
3 468 464 466
3 466 464 468
3 464 469 467
3 467 469 464
3 469 465 467
3 467 465 469
3 468 465 470
3 470 465 468
3 464 468 471
3 471 468 464
3 469 464 471
3 471 464 469
3 465 469 470
3 470 469 465
3 469 468 470
3 470 468 469
3 468 469 471
3 471 469 468
3 472 473 474
3 473 472 475
3 474 473 472
3 475 472 473
3 473 476 474
3 474 476 473
3 476 472 474
3 474 472 476
3 472 477 475
3 475 477 472
3 477 473 475
3 475 473 477
3 476 473 478
3 478 473 476
3 472 476 479
3 479 476 472
3 477 472 479
3 479 472 477
3 473 477 478
3 478 477 473
3 477 476 478
3 478 476 477
3 476 477 479
3 479 477 476
3 480 481 482
3 481 480 483
3 482 481 480
3 483 480 481
3 481 484 482
3 482 484 481
3 484 480 482
3 482 480 484
3 480 485 483
3 483 485 480
3 485 481 483
3 483 481 485
3 484 481 486
3 486 481 484
3 480 484 487
3 487 484 480
3 485 480 487
3 487 480 485
3 481 485 486
3 486 485 481
3 485 484 486
3 486 484 485
3 484 485 487
3 487 485 484
3 488 489 490
3 489 488 491
3 490 489 488
3 491 488 489
3 489 492 490
3 490 492 489
3 492 488 490
3 490 488 492
3 488 493 491
3 491 493 488
3 493 489 491
3 491 489 493
3 492 489 494
3 494 489 492
3 488 492 495
3 495 492 488
3 493 488 495
3 495 488 493
3 489 493 494
3 494 493 489
3 493 492 494
3 494 492 493
3 492 493 495
3 495 493 492
3 496 497 498
3 497 496 499
3 498 497 496
3 499 496 497
3 500 498 497
3 497 498 500
3 498 501 496
3 496 501 498
3 501 499 496
3 496 499 501
3 497 499 502
3 502 499 497
3 498 500 503
3 503 500 498
3 497 504 500
3 500 504 497
3 501 498 505
3 505 498 501
3 499 501 506
3 506 501 499
3 502 499 507
3 507 499 502
3 508 497 502
3 502 497 508
3 503 500 507
3 507 500 503
3 503 505 498
3 498 505 503
3 504 497 509
3 509 497 504
3 504 507 500
3 500 507 504
3 505 504 501
3 501 504 505
3 501 509 506
3 506 509 501
3 510 499 506
3 506 499 510
3 503 507 499
3 499 507 503
3 507 508 502
3 502 508 507
3 497 508 509
3 509 508 497
3 505 503 510
3 510 503 505
3 509 501 504
3 504 501 509
3 507 504 511
3 511 504 507
3 504 505 510
3 510 505 504
3 506 509 508
3 508 509 506
3 499 510 503
3 503 510 499
3 506 508 510
3 510 508 506
3 508 507 511
3 511 507 508
3 504 510 511
3 511 510 504
3 511 510 508
3 508 510 511
3 513 516 514
3 514 516 513
3 518 515 512
3 512 515 518
3 513 520 516
3 516 520 513
3 514 516 521
3 521 516 514
3 523 512 517
3 517 512 523
3 524 515 518
3 518 515 524
3 518 512 523
3 523 512 518
3 519 520 513
3 513 520 519
3 514 521 522
3 522 521 514
3 523 517 527
3 527 517 523
3 524 525 515
3 515 525 524
3 519 529 520
3 520 529 519
3 522 521 530
3 530 521 522
3 527 517 526
3 526 517 527
3 532 525 524
3 524 525 532
3 528 529 519
3 519 529 528
3 522 530 531
3 531 530 522
3 527 526 535
3 535 526 527
3 532 533 525
3 525 533 532
3 528 537 529
3 529 537 528
3 531 530 538
3 538 530 531
3 531 538 534
3 534 538 531
3 535 526 539
3 539 526 535
3 540 533 532
3 532 533 540
3 536 537 528
3 528 537 536
3 534 538 544
3 544 538 534
3 535 539 542
3 542 539 535
3 540 541 533
3 533 541 540
3 536 546 537
3 537 546 536
3 534 544 543
3 543 544 534
3 542 539 548
3 548 539 542
3 540 549 541
3 541 549 540
3 545 551 536
3 536 551 545
3 536 552 546
3 546 552 536
3 542 548 547
3 547 548 542
3 543 544 554
3 554 544 543
3 540 556 549
3 549 556 540
3 557 541 549
3 549 541 557
3 559 550 541
3 541 550 559
3 545 561 551
3 551 561 545
3 536 551 562
3 562 551 536
3 536 563 552
3 552 563 536
3 564 546 552
3 552 546 564
3 547 548 565
3 565 548 547
3 543 554 553
3 553 554 543
3 547 565 555
3 555 565 547
3 540 566 556
3 556 566 540
3 556 552 549
3 549 552 556
3 567 541 557
3 557 541 567
3 549 563 557
3 557 563 549
3 558 569 540
3 540 569 558
3 570 550 559
3 559 550 570
3 559 541 571
3 571 541 559
3 560 573 545
3 545 573 560
3 545 574 561
3 561 574 545
3 561 559 551
3 551 559 561
3 551 571 562
3 562 571 551
3 536 562 575
3 575 562 536
3 536 576 563
3 563 576 536
3 563 549 552
3 552 549 563
3 577 546 564
3 564 546 577
3 552 556 564
3 564 556 552
3 540 578 566
3 566 578 540
3 566 564 556
3 556 564 566
3 579 541 567
3 567 541 579
3 557 576 567
3 567 576 557
3 576 557 563
3 563 557 576
3 580 568 546
3 546 568 580
3 558 582 569
3 569 582 558
3 540 569 583
3 583 569 540
3 584 550 570
3 570 550 584
3 559 561 570
3 570 561 559
3 571 541 579
3 579 541 571
3 571 551 559
3 559 551 571
3 585 572 550
3 550 572 585
3 560 587 573
3 573 587 560
3 545 573 588
3 588 573 545
3 545 588 574
3 574 588 545
3 574 570 561
3 561 570 574
3 579 562 571
3 571 562 579
3 562 579 575
3 575 579 562
3 536 575 576
3 576 575 536
3 589 546 577
3 577 546 589
3 564 566 577
3 577 566 564
3 540 583 578
3 578 583 540
3 578 577 566
3 566 577 578
3 567 575 579
3 579 575 567
3 575 567 576
3 576 567 575
3 590 568 580
3 580 568 590
3 580 546 591
3 591 546 580
3 581 593 558
3 558 593 581
3 558 594 582
3 582 594 558
3 582 580 569
3 569 580 582
3 569 591 583
3 583 591 569
3 595 550 584
3 584 550 595
3 570 574 584
3 584 574 570
3 596 572 585
3 585 572 596
3 585 550 595
3 595 550 585
3 586 587 560
3 560 587 586
3 587 585 573
3 573 585 587
3 573 595 588
3 588 595 573
3 588 584 574
3 574 584 588
3 591 546 589
3 589 546 591
3 577 578 589
3 589 578 577
3 583 589 578
3 578 589 583
3 598 568 590
3 590 568 598
3 580 582 590
3 590 582 580
3 591 569 580
3 580 569 591
3 599 592 568
3 568 592 599
3 581 601 593
3 593 601 581
3 558 593 602
3 602 593 558
3 558 602 594
3 594 602 558
3 594 590 582
3 582 590 594
3 589 583 591
3 591 583 589
3 584 588 595
3 595 588 584
3 596 597 572
3 572 597 596
3 585 587 596
3 596 587 585
3 595 573 585
3 585 573 595
3 586 604 587
3 587 604 586
3 605 568 598
3 598 568 605
3 590 594 598
3 598 594 590
3 606 592 599
3 599 592 606
3 599 568 605
3 605 568 599
3 600 601 581
3 581 601 600
3 601 599 593
3 593 599 601
3 593 605 602
3 602 605 593
3 602 598 594
3 594 598 602
3 608 597 596
3 596 597 608
3 604 596 587
3 587 596 604
3 608 603 597
3 597 603 608
3 609 604 586
3 586 604 609
3 598 602 605
3 605 602 598
3 606 607 592
3 592 607 606
3 599 601 606
3 606 601 599
3 605 593 599
3 599 593 605
3 600 611 601
3 601 611 600
3 596 604 608
3 608 604 596
3 608 612 603
3 603 612 608
3 613 604 609
3 609 604 613
3 614 607 606
3 606 607 614
3 611 606 601
3 601 606 611
3 614 610 607
3 607 610 614
3 615 611 600
3 600 611 615
3 616 608 604
3 604 608 616
3 608 617 612
3 612 617 608
3 618 604 613
3 613 604 618
3 606 611 614
3 614 611 606
3 614 619 610
3 610 619 614
3 620 611 615
3 615 611 620
3 608 616 621
3 621 616 608
3 604 622 616
3 616 622 604
3 621 617 608
3 608 617 621
3 622 604 618
3 618 604 622
3 623 614 611
3 611 614 623
3 614 624 619
3 619 624 614
3 625 611 620
3 620 611 625
3 622 621 616
3 616 621 622
3 617 621 626
3 626 621 617
3 614 623 627
3 627 623 614
3 611 628 623
3 623 628 611
3 627 624 614
3 614 624 627
3 628 611 625
3 625 611 628
3 621 622 626
3 626 622 621
3 628 627 623
3 623 627 628
3 624 627 629
3 629 627 624
3 627 628 629
3 629 628 627
3 512 513 514
3 513 512 515
3 514 513 512
3 515 512 513
3 514 517 512
3 512 517 514
3 515 519 513
3 513 519 515
3 517 514 522
3 522 514 517
3 519 515 525
3 525 515 519
3 518 516 520
3 520 516 518
3 523 521 516
3 516 521 523
3 522 526 517
3 517 526 522
3 520 524 518
3 518 524 520
3 516 518 523
3 523 518 516
3 525 528 519
3 519 528 525
3 521 523 527
3 527 523 521
3 526 522 531
3 531 522 526
3 524 520 529
3 529 520 524
3 528 525 533
3 533 525 528
3 527 530 521
3 521 530 527
3 534 526 531
3 531 526 534
3 529 532 524
3 524 532 529
3 533 536 528
3 528 536 533
3 530 527 535
3 535 527 530
3 526 534 539
3 539 534 526
3 532 529 537
3 537 529 532
3 536 533 541
3 541 533 536
3 542 530 535
3 535 530 542
3 530 542 538
3 538 542 530
3 543 539 534
3 534 539 543
3 537 540 532
3 532 540 537
3 541 545 536
3 536 545 541
3 547 538 542
3 542 538 547
3 539 543 548
3 548 543 539
3 538 547 544
3 544 547 538
3 540 537 546
3 546 537 540
3 545 541 550
3 550 541 545
3 553 548 543
3 543 548 553
3 555 544 547
3 547 544 555
3 546 558 540
3 540 558 546
3 550 560 545
3 545 560 550
3 548 553 565
3 565 553 548
3 544 555 554
3 554 555 544
3 558 546 568
3 568 546 558
3 560 550 572
3 572 550 560
3 554 565 553
3 553 565 554
3 565 554 555
3 555 554 565
3 568 581 558
3 558 581 568
3 572 586 560
3 560 586 572
3 581 568 592
3 592 568 581
3 586 572 597
3 597 572 586
3 592 600 581
3 581 600 592
3 603 586 597
3 597 586 603
3 600 592 607
3 607 592 600
3 586 603 609
3 609 603 586
3 610 600 607
3 607 600 610
3 612 609 603
3 603 609 612
3 600 610 615
3 615 610 600
3 609 612 613
3 613 612 609
3 619 615 610
3 610 615 619
3 617 613 612
3 612 613 617
3 613 617 618
3 618 617 613
3 615 619 620
3 620 619 615
3 618 626 622
3 622 626 618
3 626 618 617
3 617 618 626
3 624 620 619
3 619 620 624
3 620 624 625
3 625 624 620
3 625 629 628
3 628 629 625
3 629 625 624
3 624 625 629
