ply
format ascii 1.0
comment Generated by PyMesh
element vertex 80
property double x
property double y
property double z
element face 396
property list uchar int vertex_indices
end_header
-0.179056 0.219233 0.321415
-0.179056 -0.236316 0.353051
-0.179056 -0.236316 0.321415
-0.179056 0.165453 0.33407
-0.213855 -0.236316 0.321415
-0.179056 0.219233 0.33407
-0.179056 0.165453 0.346723
-0.213855 -0.236316 0.353051
-0.194874 0.165453 0.321415
0.179056 0.219233 0.318252
0.179056 0.219233 0.33407
-0.179056 0.219233 0.353051
0.179056 0.165453 0.346723
-0.213855 0.219233 0.353051
-0.207528 0.165453 0.321415
-0.194874 0.219233 0.321415
-0.194874 0.219233 -0.318252
0.179056 0.165453 0.33407
-0.179056 0.219233 0.346723
0.179056 0.219233 0.346723
-0.213855 0.219233 0.321415
-0.207528 0.219233 0.321415
-0.207528 0.165453 -0.318252
0.213855 0.219233 0.318252
0.194874 0.219233 0.318252
0.179056 0.219233 0.353051
0.179056 -0.236316 0.318252
-0.232837 0.219233 -0.372032
-0.194874 0.165453 -0.318252
-0.207528 0.219233 -0.318252
0.194874 0.219233 -0.318252
0.232836 0.219233 0.372032
0.213855 0.219233 0.353051
-0.232837 0.219233 0.372032
-0.213855 -0.236316 -0.318252
-0.213855 0.219233 -0.353051
-0.179056 -0.236316 -0.318252
0.207528 0.219233 0.318252
-0.179056 0.219233 -0.318252
0.194874 0.165453 -0.318252
0.194874 0.165453 0.318252
0.179056 -0.236316 0.353051
0.213855 -0.236316 0.353051
-0.234102 0.221764 0.373298
-0.213855 0.219233 -0.318252
0.232836 0.219233 -0.372032
0.207528 0.165453 0.318252
0.207528 0.219233 -0.318252
0.179056 0.219233 -0.318252
0.207528 0.165453 -0.318252
-0.234102 0.221764 -0.373298
-0.213855 -0.236316 -0.353051
-0.179056 0.219233 -0.33407
-0.179056 0.165453 -0.33407
0.213855 0.219233 -0.318252
0.213855 -0.236316 0.318252
0.179056 0.219233 -0.33407
0.179056 -0.236316 -0.318252
0.234102 0.221764 0.373298
0.234102 0.221764 -0.373298
-0.234102 0.234418 0.373298
-0.179056 0.219233 -0.353051
-0.179056 -0.236316 -0.353051
-0.179056 0.219233 -0.346723
-0.179056 0.165453 -0.346723
0.213855 0.219233 -0.353051
0.213855 -0.236316 -0.318252
0.179056 0.165453 -0.33407
0.179056 -0.236316 -0.353051
-0.234102 0.234418 -0.373298
0.179056 0.219233 -0.353051
0.179056 0.165453 -0.346723
0.234102 0.234418 -0.373298
0.234102 0.234418 0.373298
-0.232837 0.236316 0.372032
0.179056 0.219233 -0.346723
0.213855 -0.236316 -0.353051
0.232836 0.236316 0.372032
-0.232837 0.236316 -0.372032
0.232836 0.236316 -0.372032
3 0 1 2
3 1 0 3
3 1 4 2
3 4 0 2
3 3 0 5
3 6 1 3
3 4 1 7
3 0 4 8
3 9 5 0
3 10 3 5
3 1 6 11
3 3 12 6
3 1 13 7
3 13 4 7
3 8 4 14
3 15 0 8
3 5 9 10
3 0 16 9
3 3 10 17
3 11 6 18
3 13 1 11
3 12 3 17
3 19 6 12
3 4 13 20
3 14 4 21
3 22 8 14
3 16 0 15
3 8 16 15
3 9 17 10
3 23 10 9
3 9 16 24
3 6 19 18
3 19 11 18
3 11 25 13
3 17 26 12
3 12 25 19
3 13 27 20
3 21 4 20
3 21 22 14
3 8 22 28
3 16 8 28
3 26 17 9
3 23 19 10
3 23 9 24
3 24 16 30
3 24 26 9
3 25 11 19
3 31 13 25
3 26 25 12
3 19 32 25
3 13 33 27
3 20 27 21
3 22 21 29
3 34 28 22
3 29 35 16
3 36 16 28
3 32 19 23
3 23 24 37
3 30 16 38
3 39 24 30
3 40 26 24
3 33 13 31
3 32 31 25
3 25 26 41
3 25 42 32
3 43 27 33
3 21 27 44
3 29 21 44
3 44 22 29
3 36 28 34
3 34 22 44
3 35 29 44
3 16 35 38
3 16 36 38
3 45 32 23
3 42 23 32
3 37 23 46
3 47 23 37
3 30 38 48
3 24 39 40
3 48 39 30
3 46 26 40
3 31 43 33
3 31 32 45
3 26 42 41
3 42 25 41
3 27 43 50
3 44 27 35
3 51 36 34
3 44 51 34
3 51 44 35
3 38 35 52
3 36 53 38
3 45 23 54
3 23 42 55
3 23 26 46
3 46 47 37
3 54 23 47
3 52 48 38
3 56 30 48
3 39 46 40
3 57 39 48
3 57 49 39
3 46 39 49
3 30 56 47
3 43 31 58
3 59 31 45
3 42 26 55
3 60 50 43
3 50 45 27
3 35 27 61
3 36 51 62
3 61 51 35
3 52 35 63
3 38 53 52
3 53 36 64
3 45 54 65
3 26 23 55
3 47 46 49
3 47 66 54
3 47 56 54
3 48 52 56
3 67 48 56
3 48 68 57
3 66 47 49
3 66 49 57
3 31 59 58
3 58 60 43
3 45 50 59
3 50 60 69
3 45 65 27
3 61 27 70
3 63 35 61
3 51 61 62
3 61 36 62
3 67 52 53
3 36 61 64
3 64 67 53
3 66 65 54
3 54 56 65
3 52 67 56
3 68 48 67
3 68 66 57
3 72 58 59
3 60 58 73
3 50 72 59
3 74 69 60
3 72 50 69
3 70 27 65
3 75 61 70
3 61 75 63
3 64 61 63
3 75 64 63
3 67 64 71
3 65 66 76
3 65 56 75
3 71 68 67
3 66 68 76
3 58 72 73
3 77 60 73
3 69 74 78
3 60 77 74
3 69 79 72
3 65 68 70
3 65 75 70
3 70 71 75
3 64 75 71
3 68 65 76
3 68 71 70
3 79 73 72
3 73 79 77
3 74 79 78
3 79 69 78
3 79 74 77
3 2 1 0
3 3 0 1
3 2 4 1
3 2 0 4
3 5 0 3
3 3 1 6
3 7 1 4
3 8 4 0
3 0 5 9
3 5 3 10
3 5 6 3
3 3 6 5
3 11 6 1
3 6 12 3
3 7 13 1
3 7 4 13
3 14 4 8
3 8 0 15
3 10 9 5
3 9 16 0
3 17 10 3
3 10 18 5
3 5 18 10
3 6 5 18
3 18 5 6
3 18 6 11
3 11 1 13
3 17 3 12
3 12 6 19
3 20 13 4
3 21 4 14
3 14 15 8
3 8 15 14
3 14 8 22
3 15 0 16
3 15 16 8
3 10 17 9
3 9 10 23
3 24 16 9
3 17 19 10
3 10 19 17
3 18 10 19
3 19 10 18
3 18 19 6
3 18 11 19
3 13 25 11
3 12 26 17
3 19 17 12
3 12 17 19
3 19 25 12
3 20 27 13
3 20 4 21
3 15 14 21
3 21 14 15
3 14 22 21
3 28 22 8
3 15 29 16
3 16 29 15
3 28 8 16
3 9 17 26
3 10 19 23
3 24 9 23
3 30 16 24
3 9 26 24
3 19 11 25
3 25 13 31
3 12 25 26
3 25 32 19
3 27 33 13
3 21 27 20
3 29 15 21
3 21 15 29
3 29 21 22
3 22 28 34
3 28 29 22
3 22 29 28
3 29 28 16
3 16 28 29
3 16 35 29
3 28 16 36
3 23 19 32
3 37 24 23
3 38 16 30
3 30 24 39
3 30 37 24
3 24 37 30
3 24 26 40
3 31 13 33
3 25 31 32
3 41 26 25
3 32 42 25
3 33 27 43
3 44 27 21
3 44 21 29
3 29 22 44
3 34 28 36
3 44 22 34
3 44 29 35
3 38 35 16
3 38 36 16
3 23 32 45
3 32 23 42
3 37 40 24
3 24 40 37
3 46 23 37
3 37 23 47
3 48 38 30
3 40 39 24
3 30 39 48
3 49 30 39
3 39 30 49
3 37 30 47
3 47 30 37
3 40 26 46
3 33 43 31
3 45 32 31
3 41 42 26
3 41 25 42
3 50 43 27
3 35 27 44
3 34 36 51
3 34 51 44
3 35 44 51
3 52 35 38
3 38 53 36
3 54 23 45
3 55 42 23
3 40 37 46
3 46 37 40
3 46 26 23
3 37 47 46
3 47 23 54
3 38 48 52
3 48 30 56
3 40 46 39
3 48 39 57
3 30 49 47
3 47 49 30
3 39 49 57
3 49 39 46
3 47 56 30
3 58 31 43
3 45 31 59
3 55 26 42
3 43 50 60
3 27 45 50
3 61 27 35
3 62 51 36
3 35 51 61
3 63 35 52
3 52 53 38
3 64 36 53
3 65 54 45
3 55 23 26
3 49 46 47
3 54 66 47
3 54 56 47
3 56 52 48
3 56 48 67
3 57 68 48
3 49 47 66
3 57 49 66
3 58 59 31
3 43 60 58
3 59 50 45
3 69 60 50
3 27 65 45
3 70 27 61
3 61 35 63
3 62 61 51
3 62 36 61
3 63 56 52
3 52 56 63
3 53 63 52
3 52 63 53
3 53 52 67
3 64 61 36
3 63 53 64
3 64 53 63
3 53 67 64
3 54 65 66
3 65 56 54
3 56 67 52
3 67 48 68
3 56 71 67
3 67 71 56
3 57 66 68
3 59 58 72
3 73 58 60
3 59 72 50
3 60 69 74
3 69 50 72
3 65 27 70
3 70 61 75
3 63 75 61
3 63 61 64
3 56 63 75
3 75 63 56
3 63 64 75
3 71 64 67
3 76 66 65
3 75 56 65
3 67 68 71
3 71 56 75
3 75 56 71
3 76 68 66
3 73 72 58
3 73 60 77
3 78 74 69
3 74 77 60
3 72 79 69
3 70 68 65
3 70 75 65
3 75 71 70
3 71 75 64
3 76 65 68
3 70 71 68
3 72 73 79
3 77 79 73
3 78 79 74
3 78 69 79
3 77 74 79
