ply
format ascii 1.0
comment Generated by PyMesh
element vertex 429
property double x
property double y
property double z
element face 1836
property list uchar int vertex_indices
end_header
-0.144473 0.13451 -0.239129
0.214219 0.141704 -0.239129
0.214219 0.13451 -0.239129
0.155518 0.141704 -0.239129
0.214219 0.13451 0.239129
-0.144473 0.141704 -0.239129
0.214219 0.141704 0.239129
-0.144473 0.13451 0.239129
-0.144473 0.141704 0.239129
-0.14248 0.1427 -0.237136
0.212227 0.1427 0.237136
-0.14248 0.1427 0.237136
0.155518 0.1427 -0.237136
0.212227 0.1427 -0.237136
-0.141709 0.144366 -0.236365
-0.141709 0.144366 0.236365
0.211456 0.144366 -0.236365
0.211456 0.144366 0.236365
0.195374 0.144366 -0.236365
0.195374 0.145954 -0.235443
-0.140788 0.145954 0.235443
0.210534 0.145954 0.235443
0.210534 0.145954 -0.235443
-0.140788 0.145954 -0.235443
0.209469 0.14745 -0.234378
0.195374 0.14745 -0.234378
-0.139723 0.14745 0.234378
0.209469 0.14745 0.234378
-0.139723 0.14745 -0.234378
0.208271 0.148841 -0.23318
0.195374 0.148841 -0.23318
-0.138524 0.148841 0.233179
0.208271 0.148841 0.233179
-0.138524 0.148841 -0.23318
-0.137201 0.150114 0.231856
0.206947 0.150114 0.231856
-0.137201 0.150114 -0.231857
0.206947 0.150114 -0.231857
0.195374 0.150114 -0.231857
-0.135766 0.151259 0.230421
0.205512 0.151259 0.230421
-0.135766 0.151259 -0.230421
0.205512 0.151259 -0.230421
-0.134231 0.152267 0.228886
0.203977 0.152267 0.228886
0.195374 0.151259 -0.230421
-0.134231 0.152267 -0.228886
0.203977 0.152267 -0.228886
-0.13261 0.153128 0.227265
0.202356 0.153128 0.227265
0.195374 0.152267 -0.228886
-0.13261 0.153128 -0.227265
0.202356 0.153128 -0.227265
-0.130915 0.153835 0.22557
0.200661 0.153835 0.22557
0.195374 0.153128 -0.227265
-0.130915 0.153835 -0.225571
0.200661 0.153835 -0.225571
-0.129162 0.154383 0.223817
0.198908 0.154383 0.223817
0.195374 0.153835 -0.225571
-0.129162 0.154383 -0.223818
0.198908 0.154383 -0.223818
-0.127366 0.154764 0.222021
0.197112 0.154764 0.222021
0.195374 0.154383 -0.223818
-0.127366 0.154764 -0.222022
0.197112 0.154764 -0.222022
-0.125543 0.154978 0.220197
0.195289 0.154978 0.220197
0.195374 0.154764 -0.222022
-0.125543 0.154978 -0.220198
0.195289 0.154978 -0.220198
-0.124546 0.159419 0.219201
0.194293 0.159419 0.219201
0.155518 0.154978 -0.220198
0.194293 0.159419 -0.219202
-0.124546 0.159419 -0.219202
0.155518 0.159419 -0.219202
0.164401 -0.298911 -0.219202
0.194293 0.13451 -0.219202
0.194293 -0.298911 -0.219202
0.164401 0.13451 -0.219202
0.194293 -0.298911 -0.18931
0.164401 -0.298911 -0.18931
0.164401 -0.229165 -0.219202
-0.124546 0.13451 -0.219202
0.194293 0.099637 -0.18931
0.164401 -0.229165 -0.18931
0.164401 -0.199274 -0.219202
-0.124546 0.13451 -0.18931
-0.0946552 0.13451 -0.219202
0.194293 0.13451 -0.18931
0.164401 0.099637 -0.18931
-0.0946552 -0.229165 -0.219202
0.164401 0.099637 -0.219202
-0.124546 0.099637 -0.18931
-0.0946552 0.099637 -0.219202
-0.124546 -0.298911 -0.219202
0.194293 0.099637 0.18931
0.164401 -0.199274 -0.18931
-0.0946552 -0.229165 -0.18931
-0.0946552 -0.199274 -0.219202
-0.0946552 0.13451 -0.18931
-0.124546 -0.199274 -0.18931
-0.124546 0.13451 0.18931
-0.124546 -0.229165 -0.18931
0.194293 0.13451 0.18931
0.164401 0.099637 0.18931
-0.0946552 -0.199274 -0.18931
-0.0946552 -0.298911 -0.219202
0.164401 0.13451 -0.18931
-0.124546 0.099637 0.18931
-0.124546 -0.298911 -0.18931
0.164401 0.13451 0.18931
0.194293 0.13451 0.219201
0.164401 -0.298911 0.18931
-0.0946552 -0.229165 0.18931
-0.0946552 -0.298911 -0.18931
-0.0946552 0.099637 -0.18931
-0.0946552 0.13451 0.18931
-0.124546 -0.199274 0.18931
-0.0946552 0.099637 0.18931
-0.124546 0.13451 0.219201
0.194293 -0.298911 0.219201
0.164401 0.13451 0.219201
0.194293 -0.298911 0.18931
0.164401 -0.229165 0.18931
-0.0946552 -0.199274 0.18931
-0.124546 -0.229165 0.18931
-0.0946552 0.13451 0.219201
0.164401 -0.229165 0.219201
0.164401 -0.199274 0.18931
-0.0946552 -0.229165 0.219201
0.164401 -0.298911 0.219201
0.164401 0.099637 0.219201
0.164401 -0.199274 0.219201
-0.124546 -0.298911 0.18931
-0.0946552 -0.199274 0.219201
-0.0946552 -0.298911 0.219201
-0.0946552 0.099637 0.219201
-0.0946552 -0.298911 0.18931
-0.124546 -0.298911 0.219201
-0.179346 0.204256 -0.288948
0.199274 0.21145 -0.288948
0.199274 0.204256 -0.288948
0.140573 0.21145 -0.288948
0.199274 0.204256 0.288947
-0.179346 0.21145 -0.288948
0.199274 0.21145 0.288947
-0.179346 0.204256 0.288947
-0.179346 0.21145 0.288947
-0.177354 0.212446 -0.286955
0.197281 0.212446 0.286954
-0.177354 0.212446 0.286954
0.140573 0.212446 -0.286955
0.197281 0.212446 -0.286955
-0.176583 0.214112 -0.286183
-0.176583 0.214112 0.286183
0.19651 0.214112 -0.286183
0.19651 0.214112 0.286183
0.1605 0.214112 -0.286183
0.1605 0.2157 -0.285262
-0.175661 0.2157 0.285261
0.195589 0.2157 0.285261
0.195589 0.2157 -0.285262
-0.175661 0.2157 -0.285262
0.194524 0.217195 -0.284197
0.1605 0.217195 -0.284197
-0.174596 0.217195 0.284196
0.194524 0.217195 0.284196
-0.174596 0.217195 -0.284197
0.193325 0.218586 -0.282998
0.1605 0.218586 -0.282998
-0.173397 0.218586 0.282998
0.193325 0.218586 0.282998
-0.173397 0.218586 -0.282998
-0.172074 0.21986 0.281674
0.192002 0.21986 0.281674
-0.172074 0.21986 -0.281675
0.192002 0.21986 -0.281675
0.1605 0.21986 -0.281675
-0.170639 0.221005 0.28024
0.190567 0.221005 0.28024
-0.170639 0.221005 -0.28024
0.190567 0.221005 -0.28024
-0.169104 0.222013 0.278704
0.189032 0.222013 0.278704
0.1605 0.221005 -0.28024
-0.169104 0.222013 -0.278705
0.189032 0.222013 -0.278705
-0.167483 0.222874 0.277083
0.18741 0.222874 0.277083
0.1605 0.222013 -0.278705
-0.167483 0.222874 -0.277084
0.18741 0.222874 -0.277084
-0.165788 0.223581 0.275389
0.185715 0.223581 0.275389
0.1605 0.222874 -0.277084
-0.165788 0.223581 -0.275389
0.185715 0.223581 -0.275389
-0.164035 0.224128 0.273636
0.183963 0.224128 0.273636
0.1605 0.223581 -0.275389
-0.164035 0.224128 -0.273637
0.183963 0.224128 -0.273637
-0.162239 0.22451 0.27184
0.182166 0.22451 0.27184
0.1605 0.224128 -0.273637
-0.162239 0.22451 -0.27184
0.182166 0.22451 -0.27184
-0.160415 0.224724 0.270016
0.180343 0.224724 0.270016
0.1605 0.22451 -0.27184
-0.160415 0.224724 -0.270017
0.180343 0.224724 -0.270017
-0.159419 0.229165 0.26902
0.179347 0.229165 0.26902
0.140573 0.224724 -0.270017
0.179347 0.229165 -0.26902
-0.159419 0.229165 -0.26902
0.140573 0.229165 -0.26902
0.149455 -0.298911 -0.26902
0.179347 0.204256 -0.26902
0.179347 -0.298911 -0.26902
0.149455 0.204256 -0.26902
0.179347 -0.298911 -0.239129
0.149455 -0.298911 -0.239129
0.149455 -0.229165 -0.26902
-0.159419 0.204256 -0.26902
0.179347 0.169383 -0.239129
0.149455 -0.229165 -0.239129
0.149455 -0.199274 -0.26902
-0.159419 0.204256 -0.239129
-0.129528 0.204256 -0.26902
0.179347 0.204256 -0.239129
0.149455 0.169383 -0.239129
-0.129528 -0.229165 -0.26902
0.149455 0.169383 -0.26902
-0.159419 0.169383 -0.239129
-0.129528 0.169383 -0.26902
-0.159419 -0.298911 -0.26902
0.179347 0.169383 0.239129
0.149455 -0.199274 -0.239129
-0.129528 -0.229165 -0.239129
-0.129528 -0.199274 -0.26902
-0.129528 0.204256 -0.239129
-0.159419 -0.199274 -0.239129
-0.159419 0.204256 0.239129
-0.159419 -0.229165 -0.239129
0.179347 0.204256 0.239129
0.149455 0.169383 0.239129
-0.129528 -0.199274 -0.239129
-0.129528 -0.298911 -0.26902
0.149455 0.204256 -0.239129
-0.129528 0.169383 -0.239129
-0.159419 0.169383 0.239129
-0.159419 -0.298911 -0.239129
0.149455 0.204256 0.239129
0.179347 0.204256 0.26902
0.149455 -0.298911 0.239129
-0.129528 -0.229165 0.239129
-0.129528 -0.298911 -0.239129
-0.129528 0.204256 0.239129
-0.159419 -0.199274 0.239129
-0.129528 0.169383 0.239129
-0.159419 0.204256 0.26902
0.179347 -0.298911 0.26902
0.149455 0.204256 0.26902
0.179347 -0.298911 0.239129
0.149455 -0.229165 0.239129
-0.129528 -0.199274 0.239129
-0.159419 -0.229165 0.239129
-0.129528 0.204256 0.26902
0.149455 -0.229165 0.26902
0.149455 -0.199274 0.239129
-0.129528 -0.229165 0.26902
0.149455 -0.298911 0.26902
0.149455 0.169383 0.26902
0.149455 -0.199274 0.26902
-0.159419 -0.298911 0.239129
-0.129528 -0.199274 0.26902
-0.129528 -0.298911 0.26902
-0.129528 0.169383 0.26902
-0.129528 -0.298911 0.239129
-0.159419 -0.298911 0.26902
-0.214219 0.274002 -0.338766
0.184328 0.281195 -0.338766
0.184328 0.274002 -0.338766
0.125627 0.281195 -0.338766
0.184328 0.274002 0.338766
-0.214219 0.281195 -0.338766
0.184328 0.281195 0.338766
-0.214219 0.274002 0.338766
-0.214219 0.281195 0.338766
-0.212227 0.282192 -0.336773
0.182336 0.282192 0.336773
-0.212227 0.282192 0.336773
0.125627 0.282192 -0.336773
0.182336 0.282192 -0.336773
0.125627 0.283858 -0.336002
-0.211456 0.283858 0.336001
0.181565 0.283858 -0.336002
0.181565 0.283858 0.336001
-0.211456 0.283858 -0.336002
0.180643 0.285446 -0.335081
0.125627 0.285446 -0.335081
-0.210534 0.285446 0.33508
0.180643 0.285446 0.33508
-0.210534 0.285446 -0.335081
0.179578 0.286942 -0.334015
0.125627 0.286942 -0.334015
-0.209469 0.286942 0.334015
0.179578 0.286942 0.334015
-0.209469 0.286942 -0.334015
0.17838 0.288333 -0.332817
0.125627 0.288333 -0.332817
-0.20827 0.288333 0.332816
0.17838 0.288333 0.332816
-0.20827 0.288333 -0.332817
-0.206947 0.289606 0.331493
0.177056 0.289606 0.331493
-0.206947 0.289606 -0.331493
0.177056 0.289606 -0.331493
0.125627 0.289606 -0.331493
-0.205512 0.290751 0.330058
0.175621 0.290751 0.330058
-0.205512 0.290751 -0.330059
0.175621 0.290751 -0.330059
-0.203977 0.291759 0.328523
0.174086 0.291759 0.328523
0.125627 0.290751 -0.330059
-0.203977 0.291759 -0.328524
0.174086 0.291759 -0.328524
-0.202356 0.29262 0.326901
0.172465 0.29262 0.326901
0.125627 0.291759 -0.328524
-0.202356 0.29262 -0.326902
0.172465 0.29262 -0.326902
-0.200661 0.293327 0.325207
0.17077 0.293327 0.325207
0.125627 0.29262 -0.326902
-0.200661 0.293327 -0.325207
0.17077 0.293327 -0.325207
-0.198908 0.293874 0.323454
0.169017 0.293874 0.323454
0.125627 0.293327 -0.325207
-0.198908 0.293874 -0.323455
0.169017 0.293874 -0.323455
-0.197112 0.294256 0.321658
0.167221 0.294256 0.321658
0.125627 0.293874 -0.323455
-0.197112 0.294256 -0.321658
0.167221 0.294256 -0.321658
-0.195288 0.29447 0.319835
0.165397 0.29447 0.319835
0.125627 0.294256 -0.321658
-0.195288 0.29447 -0.319835
0.165397 0.29447 -0.319835
-0.194292 0.298911 0.318838
0.164401 0.298911 0.318838
0.125627 0.29447 -0.319835
0.164401 0.298911 -0.318839
-0.194292 0.298911 -0.318839
0.125627 0.298911 -0.318839
0.13451 -0.298911 -0.318839
0.164401 0.274002 -0.318839
0.164401 -0.298911 -0.318839
0.13451 0.274002 -0.318839
0.164401 -0.298911 -0.288948
0.13451 -0.298911 -0.288948
0.13451 -0.229165 -0.318839
-0.194292 0.274002 -0.318839
0.164401 0.239129 -0.288948
0.13451 -0.229165 -0.288948
0.13451 -0.199274 -0.318839
-0.194292 0.274002 -0.288948
-0.164401 0.274002 -0.318839
0.164401 0.274002 -0.288948
0.13451 0.239129 -0.288948
-0.164401 -0.229165 -0.318839
0.13451 0.239129 -0.318839
-0.194292 0.239129 -0.288948
-0.164401 0.239129 -0.318839
-0.194292 -0.298911 -0.318839
0.164401 0.239129 0.288947
0.13451 -0.199274 -0.288948
-0.164401 -0.229165 -0.288948
-0.164401 -0.199274 -0.318839
0.13451 0.274002 -0.288948
-0.194292 -0.199274 -0.288948
-0.194292 0.274002 0.288947
-0.194292 -0.229165 -0.288948
0.164401 0.274002 0.288947
0.13451 0.239129 0.288947
-0.164401 -0.199274 -0.288948
-0.164401 -0.298911 -0.318839
-0.164401 0.274002 -0.288948
0.13451 0.274002 0.288947
-0.164401 0.239129 -0.288948
-0.194292 0.239129 0.288947
-0.194292 -0.298911 -0.288948
0.164401 0.274002 0.318838
0.13451 -0.298911 0.288947
-0.164401 -0.229165 0.288947
-0.164401 -0.298911 -0.288948
-0.194292 -0.199274 0.288947
-0.164401 0.239129 0.288947
-0.194292 0.274002 0.318838
-0.164401 0.274002 0.288947
0.164401 -0.298911 0.318838
0.13451 0.274002 0.318838
0.164401 -0.298911 0.288947
0.13451 -0.229165 0.288947
-0.164401 -0.199274 0.288947
-0.194292 -0.229165 0.288947
-0.164401 0.274002 0.318838
0.13451 -0.229165 0.318838
0.13451 -0.199274 0.288947
-0.164401 -0.229165 0.318838
0.13451 0.239129 0.318838
0.13451 -0.298911 0.318838
0.13451 -0.199274 0.318838
-0.194292 -0.298911 0.288947
-0.164401 -0.199274 0.318838
-0.164401 -0.298911 0.318838
-0.164401 0.239129 0.318838
-0.164401 -0.298911 0.288947
-0.194292 -0.298911 0.318838
3 2 1 0
3 3 0 1
3 2 4 1
3 2 0 4
3 5 0 3
3 3 1 5
3 6 1 4
3 7 4 0
3 5 8 0
3 5 1 9
3 6 10 1
3 6 4 8
3 7 8 4
3 7 0 8
3 8 5 11
3 9 1 12
3 9 11 5
3 13 1 10
3 6 8 10
3 11 10 8
3 13 12 1
3 30 29 33
3 38 37 36
3 45 42 41
3 50 47 46
3 55 52 51
3 60 57 56
3 65 62 61
3 70 67 66
3 68 71 73
3 69 68 74
3 72 69 76
3 77 73 71
3 73 74 68
3 74 76 69
3 72 76 75
3 77 76 73
3 77 71 78
3 74 73 76
3 71 75 78
3 78 75 76
3 78 76 77
3 9 12 14
3 11 9 15
3 13 10 16
3 10 11 17
3 13 16 12
3 14 12 18
3 14 15 9
3 15 17 11
3 17 16 10
3 18 12 16
3 14 18 19
3 15 14 20
3 17 15 21
3 16 17 22
3 16 22 18
3 19 18 22
3 23 14 19
3 23 20 14
3 20 21 15
3 21 22 17
3 22 24 19
3 23 19 25
3 20 23 26
3 21 20 27
3 22 21 24
3 25 19 24
3 28 23 25
3 28 26 23
3 26 27 20
3 27 24 21
3 24 29 25
3 28 25 30
3 26 28 31
3 27 26 32
3 24 27 29
3 30 25 29
3 33 28 30
3 33 31 28
3 31 32 26
3 32 29 27
3 31 33 34
3 32 31 35
3 32 35 29
3 33 29 36
3 36 34 33
3 34 35 31
3 37 29 35
3 36 29 38
3 34 36 39
3 35 34 40
3 37 38 29
3 35 40 37
3 41 39 36
3 39 40 34
3 42 37 40
3 36 37 41
3 39 41 43
3 40 39 44
3 42 45 37
3 40 44 42
3 41 37 45
3 46 43 41
3 43 44 39
3 47 42 44
3 43 46 48
3 41 42 46
3 44 43 49
3 47 50 42
3 44 49 47
3 51 48 46
3 48 49 43
3 46 42 50
3 52 47 49
3 48 51 53
3 46 47 51
3 49 48 54
3 52 55 47
3 49 54 52
3 56 53 51
3 53 54 48
3 51 47 55
3 57 52 54
3 53 56 58
3 51 52 56
3 54 53 59
3 57 60 52
3 54 59 57
3 61 58 56
3 58 59 53
3 56 52 60
3 62 57 59
3 58 61 63
3 56 57 61
3 59 58 64
3 62 65 57
3 59 64 62
3 66 63 61
3 63 64 58
3 61 57 65
3 67 62 64
3 63 66 68
3 61 62 66
3 64 63 69
3 67 70 62
3 64 69 67
3 71 68 66
3 68 69 63
3 66 62 70
3 72 67 69
3 66 67 71
3 72 75 67
3 71 67 75
3 0 1 2
3 1 0 3
3 1 4 2
3 4 0 2
3 3 0 5
3 5 1 3
3 4 1 6
3 0 4 7
3 0 8 5
3 9 1 5
3 1 10 6
3 8 4 6
3 4 8 7
3 8 0 7
3 11 5 8
3 12 1 9
3 5 11 9
3 10 1 13
3 10 8 6
3 8 10 11
3 1 12 13
3 33 29 30
3 36 37 38
3 41 42 45
3 46 47 50
3 51 52 55
3 56 57 60
3 61 62 65
3 66 67 70
3 73 71 68
3 74 68 69
3 76 69 72
3 71 73 77
3 68 74 73
3 69 76 74
3 75 76 72
3 73 76 77
3 78 71 77
3 76 73 74
3 78 75 71
3 76 75 78
3 77 76 78
3 14 12 9
3 15 9 11
3 16 10 13
3 17 11 10
3 12 16 13
3 18 12 14
3 9 15 14
3 11 17 15
3 10 16 17
3 16 12 18
3 19 18 14
3 20 14 15
3 21 15 17
3 22 17 16
3 18 22 16
3 22 18 19
3 19 14 23
3 14 20 23
3 15 21 20
3 17 22 21
3 19 24 22
3 25 19 23
3 26 23 20
3 27 20 21
3 24 21 22
3 24 19 25
3 25 23 28
3 23 26 28
3 20 27 26
3 21 24 27
3 25 29 24
3 30 25 28
3 31 28 26
3 32 26 27
3 29 27 24
3 29 25 30
3 30 28 33
3 28 31 33
3 26 32 31
3 27 29 32
3 34 33 31
3 35 31 32
3 29 35 32
3 36 29 33
3 33 34 36
3 31 35 34
3 35 29 37
3 38 29 36
3 39 36 34
3 40 34 35
3 29 38 37
3 37 40 35
3 36 39 41
3 34 40 39
3 40 37 42
3 41 37 36
3 43 41 39
3 44 39 40
3 37 45 42
3 42 44 40
3 45 37 41
3 41 43 46
3 39 44 43
3 44 42 47
3 48 46 43
3 46 42 41
3 49 43 44
3 42 50 47
3 47 49 44
3 46 48 51
3 43 49 48
3 50 42 46
3 49 47 52
3 53 51 48
3 51 47 46
3 54 48 49
3 47 55 52
3 52 54 49
3 51 53 56
3 48 54 53
3 55 47 51
3 54 52 57
3 58 56 53
3 56 52 51
3 59 53 54
3 52 60 57
3 57 59 54
3 56 58 61
3 53 59 58
3 60 52 56
3 59 57 62
3 63 61 58
3 61 57 56
3 64 58 59
3 57 65 62
3 62 64 59
3 61 63 66
3 58 64 63
3 65 57 61
3 64 62 67
3 68 66 63
3 66 62 61
3 69 63 64
3 62 70 67
3 67 69 64
3 66 68 71
3 63 69 68
3 70 62 66
3 69 67 72
3 71 67 66
3 67 75 72
3 75 67 71
3 79 80 81
3 80 79 82
3 80 83 81
3 81 84 79
3 82 79 85
3 86 80 82
3 83 80 87
3 84 81 83
3 88 79 84
3 79 88 85
3 82 85 89
3 90 80 86
3 86 82 91
3 87 80 92
3 93 83 87
3 83 88 84
3 88 94 85
3 89 88 85
3 94 89 85
3 82 89 95
3 90 92 80
3 86 96 90
3 82 97 91
3 91 98 86
3 92 99 87
3 83 93 100
3 99 93 87
3 88 83 100
3 94 88 101
3 88 89 100
3 89 94 102
3 100 95 89
3 97 82 95
3 90 103 92
3 86 104 96
3 96 105 90
3 97 98 91
3 98 106 86
3 99 92 107
3 95 100 93
3 93 99 108
3 109 88 100
3 88 109 101
3 101 110 94
3 102 101 94
3 89 109 100
3 94 98 102
3 109 89 102
3 93 97 95
3 105 103 90
3 111 92 103
3 86 106 104
3 109 96 104
3 105 96 112
3 102 98 97
3 106 98 113
3 92 114 107
3 115 99 107
3 99 116 108
3 108 111 93
3 109 117 101
3 106 109 101
3 101 102 109
3 110 101 118
3 98 94 110
3 97 109 102
3 97 93 119
3 105 120 103
3 114 92 111
3 103 93 111
3 106 121 104
3 109 106 104
3 96 109 119
3 121 109 104
3 96 122 112
3 112 123 105
3 110 113 98
3 118 106 113
3 105 107 114
3 124 99 115
3 107 125 115
3 116 99 126
3 108 116 127
3 111 108 114
3 117 109 128
3 117 106 101
3 106 118 101
3 113 110 118
3 109 97 119
3 93 103 119
3 105 114 120
3 122 103 120
3 121 106 129
3 122 96 119
3 109 121 128
3 122 121 112
3 121 123 112
3 123 107 105
3 99 124 126
3 125 124 115
3 125 107 130
3 124 116 126
3 116 131 127
3 108 127 132
3 122 114 108
3 129 128 117
3 128 133 117
3 132 117 128
3 106 117 129
3 103 122 119
3 114 122 120
3 128 129 121
3 129 123 121
3 121 122 128
3 130 107 123
3 124 125 134
3 130 135 125
3 116 124 134
3 131 116 134
3 131 117 127
3 136 127 131
3 117 132 127
3 127 136 132
3 132 135 108
3 135 122 108
3 117 137 129
3 133 128 138
3 117 131 133
3 139 117 133
3 138 132 128
3 137 123 129
3 122 138 128
3 123 140 130
3 134 125 135
3 135 130 140
3 134 136 131
3 138 131 136
3 132 138 136
3 135 132 136
3 122 135 140
3 137 117 141
3 131 138 133
3 138 123 133
3 117 139 141
3 133 123 139
3 123 137 142
3 138 122 140
3 140 123 138
3 134 135 136
3 139 137 141
3 139 123 142
3 137 139 142
3 81 80 79
3 82 79 80
3 81 83 80
3 79 84 81
3 85 79 82
3 82 80 86
3 87 80 83
3 83 81 84
3 84 79 88
3 85 88 79
3 89 85 82
3 86 80 90
3 91 82 86
3 92 80 87
3 87 83 93
3 84 88 83
3 85 94 88
3 85 88 89
3 85 89 94
3 95 89 82
3 80 92 90
3 90 96 86
3 91 97 82
3 86 98 91
3 87 99 92
3 100 93 83
3 87 93 99
3 100 83 88
3 101 88 94
3 100 89 88
3 102 94 89
3 89 95 100
3 95 82 97
3 92 103 90
3 96 104 86
3 90 105 96
3 91 98 97
3 86 106 98
3 107 92 99
3 93 100 95
3 108 99 93
3 100 88 109
3 101 109 88
3 94 110 101
3 94 101 102
3 100 109 89
3 102 98 94
3 102 89 109
3 95 97 93
3 90 103 105
3 103 92 111
3 104 106 86
3 104 96 109
3 112 96 105
3 97 98 102
3 113 98 106
3 107 114 92
3 107 99 115
3 108 116 99
3 93 111 108
3 101 117 109
3 101 109 106
3 109 102 101
3 118 101 110
3 110 94 98
3 102 109 97
3 119 93 97
3 103 120 105
3 111 92 114
3 111 93 103
3 104 121 106
3 104 106 109
3 119 109 96
3 104 109 121
3 112 122 96
3 105 123 112
3 98 113 110
3 113 106 118
3 114 107 105
3 115 99 124
3 115 125 107
3 126 99 116
3 127 116 108
3 114 108 111
3 128 109 117
3 101 106 117
3 101 118 106
3 118 110 113
3 119 97 109
3 119 103 93
3 120 114 105
3 120 103 122
3 129 106 121
3 119 96 122
3 128 121 109
3 112 121 122
3 112 123 121
3 105 107 123
3 126 124 99
3 115 124 125
3 130 107 125
3 126 116 124
3 127 131 116
3 132 127 108
3 108 114 122
3 117 128 129
3 117 133 128
3 128 117 132
3 129 117 106
3 119 122 103
3 120 122 114
3 121 129 128
3 121 123 129
3 128 122 121
3 123 107 130
3 134 125 124
3 125 135 130
3 134 124 116
3 134 116 131
3 127 117 131
3 131 127 136
3 127 132 117
3 132 136 127
3 108 135 132
3 108 122 135
3 129 137 117
3 138 128 133
3 133 131 117
3 133 117 139
3 128 132 138
3 129 123 137
3 128 138 122
3 130 140 123
3 135 125 134
3 140 130 135
3 131 136 134
3 136 131 138
3 136 138 132
3 136 132 135
3 140 135 122
3 141 117 137
3 133 138 131
3 133 123 138
3 141 139 117
3 139 123 133
3 142 137 123
3 140 122 138
3 138 123 140
3 136 135 134
3 141 137 139
3 142 123 139
3 142 139 137
3 145 144 143
3 146 143 144
3 145 147 144
3 145 143 147
3 148 143 146
3 146 144 148
3 149 144 147
3 150 147 143
3 148 151 143
3 148 144 152
3 149 153 144
3 149 147 151
3 150 151 147
3 150 143 151
3 151 148 154
3 152 144 155
3 152 154 148
3 156 144 153
3 149 151 153
3 154 153 151
3 156 155 144
3 173 172 176
3 181 180 179
3 188 185 184
3 193 190 189
3 198 195 194
3 203 200 199
3 208 205 204
3 213 210 209
3 211 214 216
3 212 211 217
3 215 212 219
3 220 216 214
3 216 217 211
3 217 219 212
3 215 219 218
3 220 219 216
3 220 214 221
3 217 216 219
3 214 218 221
3 221 218 219
3 221 219 220
3 152 155 157
3 154 152 158
3 156 153 159
3 153 154 160
3 156 159 155
3 157 155 161
3 157 158 152
3 158 160 154
3 160 159 153
3 161 155 159
3 157 161 162
3 158 157 163
3 160 158 164
3 159 160 165
3 159 165 161
3 162 161 165
3 166 157 162
3 166 163 157
3 163 164 158
3 164 165 160
3 165 167 162
3 166 162 168
3 163 166 169
3 164 163 170
3 165 164 167
3 168 162 167
3 171 166 168
3 171 169 166
3 169 170 163
3 170 167 164
3 167 172 168
3 171 168 173
3 169 171 174
3 170 169 175
3 167 170 172
3 173 168 172
3 176 171 173
3 176 174 171
3 174 175 169
3 175 172 170
3 174 176 177
3 175 174 178
3 175 178 172
3 176 172 179
3 179 177 176
3 177 178 174
3 180 172 178
3 179 172 181
3 177 179 182
3 178 177 183
3 180 181 172
3 178 183 180
3 184 182 179
3 182 183 177
3 185 180 183
3 179 180 184
3 182 184 186
3 183 182 187
3 185 188 180
3 183 187 185
3 184 180 188
3 189 186 184
3 186 187 182
3 190 185 187
3 186 189 191
3 184 185 189
3 187 186 192
3 190 193 185
3 187 192 190
3 194 191 189
3 191 192 186
3 189 185 193
3 195 190 192
3 191 194 196
3 189 190 194
3 192 191 197
3 195 198 190
3 192 197 195
3 199 196 194
3 196 197 191
3 194 190 198
3 200 195 197
3 196 199 201
3 194 195 199
3 197 196 202
3 200 203 195
3 197 202 200
3 204 201 199
3 201 202 196
3 199 195 203
3 205 200 202
3 201 204 206
3 199 200 204
3 202 201 207
3 205 208 200
3 202 207 205
3 209 206 204
3 206 207 201
3 204 200 208
3 210 205 207
3 206 209 211
3 204 205 209
3 207 206 212
3 210 213 205
3 207 212 210
3 214 211 209
3 211 212 206
3 209 205 213
3 215 210 212
3 209 210 214
3 215 218 210
3 214 210 218
3 143 144 145
3 144 143 146
3 144 147 145
3 147 143 145
3 146 143 148
3 148 144 146
3 147 144 149
3 143 147 150
3 143 151 148
3 152 144 148
3 144 153 149
3 151 147 149
3 147 151 150
3 151 143 150
3 154 148 151
3 155 144 152
3 148 154 152
3 153 144 156
3 153 151 149
3 151 153 154
3 144 155 156
3 176 172 173
3 179 180 181
3 184 185 188
3 189 190 193
3 194 195 198
3 199 200 203
3 204 205 208
3 209 210 213
3 216 214 211
3 217 211 212
3 219 212 215
3 214 216 220
3 211 217 216
3 212 219 217
3 218 219 215
3 216 219 220
3 221 214 220
3 219 216 217
3 221 218 214
3 219 218 221
3 220 219 221
3 157 155 152
3 158 152 154
3 159 153 156
3 160 154 153
3 155 159 156
3 161 155 157
3 152 158 157
3 154 160 158
3 153 159 160
3 159 155 161
3 162 161 157
3 163 157 158
3 164 158 160
3 165 160 159
3 161 165 159
3 165 161 162
3 162 157 166
3 157 163 166
3 158 164 163
3 160 165 164
3 162 167 165
3 168 162 166
3 169 166 163
3 170 163 164
3 167 164 165
3 167 162 168
3 168 166 171
3 166 169 171
3 163 170 169
3 164 167 170
3 168 172 167
3 173 168 171
3 174 171 169
3 175 169 170
3 172 170 167
3 172 168 173
3 173 171 176
3 171 174 176
3 169 175 174
3 170 172 175
3 177 176 174
3 178 174 175
3 172 178 175
3 179 172 176
3 176 177 179
3 174 178 177
3 178 172 180
3 181 172 179
3 182 179 177
3 183 177 178
3 172 181 180
3 180 183 178
3 179 182 184
3 177 183 182
3 183 180 185
3 184 180 179
3 186 184 182
3 187 182 183
3 180 188 185
3 185 187 183
3 188 180 184
3 184 186 189
3 182 187 186
3 187 185 190
3 191 189 186
3 189 185 184
3 192 186 187
3 185 193 190
3 190 192 187
3 189 191 194
3 186 192 191
3 193 185 189
3 192 190 195
3 196 194 191
3 194 190 189
3 197 191 192
3 190 198 195
3 195 197 192
3 194 196 199
3 191 197 196
3 198 190 194
3 197 195 200
3 201 199 196
3 199 195 194
3 202 196 197
3 195 203 200
3 200 202 197
3 199 201 204
3 196 202 201
3 203 195 199
3 202 200 205
3 206 204 201
3 204 200 199
3 207 201 202
3 200 208 205
3 205 207 202
3 204 206 209
3 201 207 206
3 208 200 204
3 207 205 210
3 211 209 206
3 209 205 204
3 212 206 207
3 205 213 210
3 210 212 207
3 209 211 214
3 206 212 211
3 213 205 209
3 212 210 215
3 214 210 209
3 210 218 215
3 218 210 214
3 222 223 224
3 223 222 225
3 223 226 224
3 224 227 222
3 225 222 228
3 229 223 225
3 226 223 230
3 227 224 226
3 231 222 227
3 222 231 228
3 225 228 232
3 233 223 229
3 229 225 234
3 230 223 235
3 236 226 230
3 226 231 227
3 231 237 228
3 232 231 228
3 237 232 228
3 225 232 238
3 233 235 223
3 229 239 233
3 225 240 234
3 234 241 229
3 235 242 230
3 226 236 243
3 242 236 230
3 231 226 243
3 237 231 244
3 231 232 243
3 232 237 245
3 243 238 232
3 240 225 238
3 233 246 235
3 229 247 239
3 239 248 233
3 240 241 234
3 241 249 229
3 242 235 250
3 238 243 236
3 236 242 251
3 252 231 243
3 231 252 244
3 244 253 237
3 245 244 237
3 232 252 243
3 237 241 245
3 252 232 245
3 236 240 238
3 248 246 233
3 254 235 246
3 229 249 247
3 247 255 239
3 248 239 256
3 245 241 240
3 249 241 257
3 235 258 250
3 259 242 250
3 242 260 251
3 251 254 236
3 252 261 244
3 249 252 244
3 244 245 252
3 253 244 262
3 241 237 253
3 240 252 245
3 240 236 255
3 248 263 246
3 258 235 254
3 246 236 254
3 249 264 247
3 252 249 247
3 255 247 252
3 265 239 255
3 239 265 256
3 256 266 248
3 253 257 241
3 262 249 257
3 248 250 258
3 267 242 259
3 250 268 259
3 260 242 269
3 251 260 270
3 254 251 258
3 261 252 271
3 261 249 244
3 249 262 244
3 257 253 262
3 252 240 255
3 236 246 255
3 248 258 263
3 265 246 263
3 264 249 272
3 264 252 247
3 246 265 255
3 265 264 256
3 264 266 256
3 266 250 248
3 242 267 269
3 268 267 259
3 268 250 273
3 267 260 269
3 260 274 270
3 251 270 275
3 265 258 251
3 252 264 271
3 272 271 261
3 271 276 261
3 275 261 271
3 249 261 272
3 258 265 263
3 271 272 264
3 272 266 264
3 264 265 271
3 273 250 266
3 267 268 277
3 273 278 268
3 260 267 277
3 274 260 277
3 274 261 270
3 279 270 274
3 261 275 270
3 270 279 275
3 275 278 251
3 278 265 251
3 261 280 272
3 276 271 281
3 261 274 276
3 282 261 276
3 281 275 271
3 280 266 272
3 265 281 271
3 266 283 273
3 277 268 278
3 278 273 283
3 277 279 274
3 281 274 279
3 275 281 279
3 278 275 279
3 265 278 283
3 280 261 284
3 274 281 276
3 281 266 276
3 261 282 284
3 276 266 282
3 266 280 285
3 281 265 283
3 283 266 281
3 277 278 279
3 282 280 284
3 282 266 285
3 280 282 285
3 224 223 222
3 225 222 223
3 224 226 223
3 222 227 224
3 228 222 225
3 225 223 229
3 230 223 226
3 226 224 227
3 227 222 231
3 228 231 222
3 232 228 225
3 229 223 233
3 234 225 229
3 235 223 230
3 230 226 236
3 227 231 226
3 228 237 231
3 228 231 232
3 228 232 237
3 238 232 225
3 223 235 233
3 233 239 229
3 234 240 225
3 229 241 234
3 230 242 235
3 243 236 226
3 230 236 242
3 243 226 231
3 244 231 237
3 243 232 231
3 245 237 232
3 232 238 243
3 238 225 240
3 235 246 233
3 239 247 229
3 233 248 239
3 234 241 240
3 229 249 241
3 250 235 242
3 236 243 238
3 251 242 236
3 243 231 252
3 244 252 231
3 237 253 244
3 237 244 245
3 243 252 232
3 245 241 237
3 245 232 252
3 238 240 236
3 233 246 248
3 246 235 254
3 247 249 229
3 239 255 247
3 256 239 248
3 240 241 245
3 257 241 249
3 250 258 235
3 250 242 259
3 251 260 242
3 236 254 251
3 244 261 252
3 244 252 249
3 252 245 244
3 262 244 253
3 253 237 241
3 245 252 240
3 255 236 240
3 246 263 248
3 254 235 258
3 254 236 246
3 247 264 249
3 247 249 252
3 252 247 255
3 255 239 265
3 256 265 239
3 248 266 256
3 241 257 253
3 257 249 262
3 258 250 248
3 259 242 267
3 259 268 250
3 269 242 260
3 270 260 251
3 258 251 254
3 271 252 261
3 244 249 261
3 244 262 249
3 262 253 257
3 255 240 252
3 255 246 236
3 263 258 248
3 263 246 265
3 272 249 264
3 247 252 264
3 255 265 246
3 256 264 265
3 256 266 264
3 248 250 266
3 269 267 242
3 259 267 268
3 273 250 268
3 269 260 267
3 270 274 260
3 275 270 251
3 251 258 265
3 271 264 252
3 261 271 272
3 261 276 271
3 271 261 275
3 272 261 249
3 263 265 258
3 264 272 271
3 264 266 272
3 271 265 264
3 266 250 273
3 277 268 267
3 268 278 273
3 277 267 260
3 277 260 274
3 270 261 274
3 274 270 279
3 270 275 261
3 275 279 270
3 251 278 275
3 251 265 278
3 272 280 261
3 281 271 276
3 276 274 261
3 276 261 282
3 271 275 281
3 272 266 280
3 271 281 265
3 273 283 266
3 278 268 277
3 283 273 278
3 274 279 277
3 279 274 281
3 279 281 275
3 279 275 278
3 283 278 265
3 284 261 280
3 276 281 274
3 276 266 281
3 284 282 261
3 282 266 276
3 285 280 266
3 283 265 281
3 281 266 283
3 279 278 277
3 284 280 282
3 285 266 282
3 285 282 280
3 288 287 286
3 289 286 287
3 288 290 287
3 288 286 290
3 291 286 289
3 289 287 291
3 292 287 290
3 293 290 286
3 291 294 286
3 291 287 295
3 292 296 287
3 292 290 294
3 293 294 290
3 293 286 294
3 294 291 297
3 295 287 298
3 295 297 291
3 299 287 296
3 292 294 296
3 297 296 294
3 299 298 287
3 316 315 319
3 324 323 322
3 331 328 327
3 336 333 332
3 341 338 337
3 346 343 342
3 351 348 347
3 356 353 352
3 354 357 359
3 355 354 360
3 358 355 362
3 363 359 357
3 359 360 354
3 360 362 355
3 358 362 361
3 363 362 359
3 363 357 364
3 360 359 362
3 357 361 364
3 364 361 362
3 364 362 363
3 295 298 300
3 297 295 301
3 299 296 302
3 296 297 303
3 299 302 298
3 300 298 302
3 304 295 300
3 304 301 295
3 301 303 297
3 303 302 296
3 302 305 300
3 304 300 306
3 301 304 307
3 303 301 308
3 302 303 305
3 306 300 305
3 309 304 306
3 309 307 304
3 307 308 301
3 308 305 303
3 305 310 306
3 309 306 311
3 307 309 312
3 308 307 313
3 305 308 310
3 311 306 310
3 314 309 311
3 314 312 309
3 312 313 307
3 313 310 308
3 310 315 311
3 314 311 316
3 312 314 317
3 313 312 318
3 310 313 315
3 316 311 315
3 319 314 316
3 319 317 314
3 317 318 312
3 318 315 313
3 317 319 320
3 318 317 321
3 318 321 315
3 319 315 322
3 322 320 319
3 320 321 317
3 323 315 321
3 322 315 324
3 320 322 325
3 321 320 326
3 323 324 315
3 321 326 323
3 327 325 322
3 325 326 320
3 328 323 326
3 322 323 327
3 325 327 329
3 326 325 330
3 328 331 323
3 326 330 328
3 327 323 331
3 332 329 327
3 329 330 325
3 333 328 330
3 329 332 334
3 327 328 332
3 330 329 335
3 333 336 328
3 330 335 333
3 337 334 332
3 334 335 329
3 332 328 336
3 338 333 335
3 334 337 339
3 332 333 337
3 335 334 340
3 338 341 333
3 335 340 338
3 342 339 337
3 339 340 334
3 337 333 341
3 343 338 340
3 339 342 344
3 337 338 342
3 340 339 345
3 343 346 338
3 340 345 343
3 347 344 342
3 344 345 339
3 342 338 346
3 348 343 345
3 344 347 349
3 342 343 347
3 345 344 350
3 348 351 343
3 345 350 348
3 352 349 347
3 349 350 344
3 347 343 351
3 353 348 350
3 349 352 354
3 347 348 352
3 350 349 355
3 353 356 348
3 350 355 353
3 357 354 352
3 354 355 349
3 352 348 356
3 358 353 355
3 352 353 357
3 358 361 353
3 357 353 361
3 286 287 288
3 287 286 289
3 287 290 288
3 290 286 288
3 289 286 291
3 291 287 289
3 290 287 292
3 286 290 293
3 286 294 291
3 295 287 291
3 287 296 292
3 294 290 292
3 290 294 293
3 294 286 293
3 297 291 294
3 298 287 295
3 291 297 295
3 296 287 299
3 296 294 292
3 294 296 297
3 287 298 299
3 319 315 316
3 322 323 324
3 327 328 331
3 332 333 336
3 337 338 341
3 342 343 346
3 347 348 351
3 352 353 356
3 359 357 354
3 360 354 355
3 362 355 358
3 357 359 363
3 354 360 359
3 355 362 360
3 361 362 358
3 359 362 363
3 364 357 363
3 362 359 360
3 364 361 357
3 362 361 364
3 363 362 364
3 300 298 295
3 301 295 297
3 302 296 299
3 303 297 296
3 298 302 299
3 302 298 300
3 300 295 304
3 295 301 304
3 297 303 301
3 296 302 303
3 300 305 302
3 306 300 304
3 307 304 301
3 308 301 303
3 305 303 302
3 305 300 306
3 306 304 309
3 304 307 309
3 301 308 307
3 303 305 308
3 306 310 305
3 311 306 309
3 312 309 307
3 313 307 308
3 310 308 305
3 310 306 311
3 311 309 314
3 309 312 314
3 307 313 312
3 308 310 313
3 311 315 310
3 316 311 314
3 317 314 312
3 318 312 313
3 315 313 310
3 315 311 316
3 316 314 319
3 314 317 319
3 312 318 317
3 313 315 318
3 320 319 317
3 321 317 318
3 315 321 318
3 322 315 319
3 319 320 322
3 317 321 320
3 321 315 323
3 324 315 322
3 325 322 320
3 326 320 321
3 315 324 323
3 323 326 321
3 322 325 327
3 320 326 325
3 326 323 328
3 327 323 322
3 329 327 325
3 330 325 326
3 323 331 328
3 328 330 326
3 331 323 327
3 327 329 332
3 325 330 329
3 330 328 333
3 334 332 329
3 332 328 327
3 335 329 330
3 328 336 333
3 333 335 330
3 332 334 337
3 329 335 334
3 336 328 332
3 335 333 338
3 339 337 334
3 337 333 332
3 340 334 335
3 333 341 338
3 338 340 335
3 337 339 342
3 334 340 339
3 341 333 337
3 340 338 343
3 344 342 339
3 342 338 337
3 345 339 340
3 338 346 343
3 343 345 340
3 342 344 347
3 339 345 344
3 346 338 342
3 345 343 348
3 349 347 344
3 347 343 342
3 350 344 345
3 343 351 348
3 348 350 345
3 347 349 352
3 344 350 349
3 351 343 347
3 350 348 353
3 354 352 349
3 352 348 347
3 355 349 350
3 348 356 353
3 353 355 350
3 352 354 357
3 349 355 354
3 356 348 352
3 355 353 358
3 357 353 352
3 353 361 358
3 361 353 357
3 365 366 367
3 366 365 368
3 366 369 367
3 367 370 365
3 368 365 371
3 372 366 368
3 369 366 373
3 370 367 369
3 374 365 370
3 365 374 371
3 368 371 375
3 376 366 372
3 372 368 377
3 373 366 378
3 379 369 373
3 369 374 370
3 374 380 371
3 375 374 371
3 380 375 371
3 368 375 381
3 376 378 366
3 372 382 376
3 368 383 377
3 377 384 372
3 378 385 373
3 369 379 386
3 385 379 373
3 374 369 386
3 380 374 387
3 374 375 386
3 375 380 388
3 386 381 375
3 383 368 381
3 376 389 378
3 372 390 382
3 382 391 376
3 383 384 377
3 384 392 372
3 385 378 393
3 381 386 379
3 379 385 394
3 395 374 386
3 374 395 387
3 387 396 380
3 388 387 380
3 375 395 386
3 380 384 388
3 395 375 388
3 379 383 381
3 376 397 389
3 398 378 389
3 372 392 390
3 390 399 382
3 391 382 400
3 391 397 376
3 388 384 383
3 392 384 401
3 378 398 393
3 402 385 393
3 385 403 394
3 394 389 379
3 395 404 387
3 392 395 387
3 387 388 395
3 396 387 405
3 384 380 396
3 383 395 388
3 383 379 399
3 397 379 389
3 389 394 398
3 392 406 390
3 395 392 390
3 399 390 395
3 407 382 399
3 382 407 400
3 400 408 391
3 391 409 397
3 396 401 384
3 405 392 401
3 391 393 398
3 410 385 402
3 393 411 402
3 403 385 412
3 394 403 413
3 404 395 414
3 404 392 387
3 392 405 387
3 401 396 405
3 395 383 399
3 379 397 399
3 407 398 394
3 406 392 415
3 406 395 390
3 397 407 399
3 407 406 400
3 406 408 400
3 408 393 391
3 391 398 409
3 407 397 409
3 385 410 412
3 411 410 402
3 411 393 416
3 410 403 412
3 403 417 413
3 394 413 418
3 395 406 414
3 415 414 404
3 414 419 404
3 418 404 414
3 392 404 415
3 398 407 409
3 420 407 394
3 414 415 406
3 415 408 406
3 406 407 414
3 416 393 408
3 410 411 421
3 416 420 411
3 403 410 421
3 417 403 421
3 417 404 413
3 422 413 417
3 404 418 413
3 413 422 418
3 418 420 394
3 404 423 415
3 419 414 424
3 404 417 419
3 425 404 419
3 424 418 414
3 407 420 426
3 423 408 415
3 407 424 414
3 408 426 416
3 421 411 420
3 420 416 426
3 421 422 417
3 424 417 422
3 418 424 422
3 420 418 422
3 423 404 427
3 417 424 419
3 424 408 419
3 404 425 427
3 419 408 425
3 424 407 426
3 408 423 428
3 426 408 424
3 421 420 422
3 425 423 427
3 425 408 428
3 423 425 428
3 367 366 365
3 368 365 366
3 367 369 366
3 365 370 367
3 371 365 368
3 368 366 372
3 373 366 369
3 369 367 370
3 370 365 374
3 371 374 365
3 375 371 368
3 372 366 376
3 377 368 372
3 378 366 373
3 373 369 379
3 370 374 369
3 371 380 374
3 371 374 375
3 371 375 380
3 381 375 368
3 366 378 376
3 376 382 372
3 377 383 368
3 372 384 377
3 373 385 378
3 386 379 369
3 373 379 385
3 386 369 374
3 387 374 380
3 386 375 374
3 388 380 375
3 375 381 386
3 381 368 383
3 378 389 376
3 382 390 372
3 376 391 382
3 377 384 383
3 372 392 384
3 393 378 385
3 379 386 381
3 394 385 379
3 386 374 395
3 387 395 374
3 380 396 387
3 380 387 388
3 386 395 375
3 388 384 380
3 388 375 395
3 381 383 379
3 389 397 376
3 389 378 398
3 390 392 372
3 382 399 390
3 400 382 391
3 376 397 391
3 383 384 388
3 401 384 392
3 393 398 378
3 393 385 402
3 394 403 385
3 379 389 394
3 387 404 395
3 387 395 392
3 395 388 387
3 405 387 396
3 396 380 384
3 388 395 383
3 399 379 383
3 389 379 397
3 398 394 389
3 390 406 392
3 390 392 395
3 395 390 399
3 399 382 407
3 400 407 382
3 391 408 400
3 397 409 391
3 384 401 396
3 401 392 405
3 398 393 391
3 402 385 410
3 402 411 393
3 412 385 403
3 413 403 394
3 414 395 404
3 387 392 404
3 387 405 392
3 405 396 401
3 399 383 395
3 399 397 379
3 394 398 407
3 415 392 406
3 390 395 406
3 399 407 397
3 400 406 407
3 400 408 406
3 391 393 408
3 409 398 391
3 409 397 407
3 412 410 385
3 402 410 411
3 416 393 411
3 412 403 410
3 413 417 403
3 418 413 394
3 414 406 395
3 404 414 415
3 404 419 414
3 414 404 418
3 415 404 392
3 409 407 398
3 394 407 420
3 406 415 414
3 406 408 415
3 414 407 406
3 408 393 416
3 421 411 410
3 411 420 416
3 421 410 403
3 421 403 417
3 413 404 417
3 417 413 422
3 413 418 404
3 418 422 413
3 394 420 418
3 415 423 404
3 424 414 419
3 419 417 404
3 419 404 425
3 414 418 424
3 426 420 407
3 415 408 423
3 414 424 407
3 416 426 408
3 420 411 421
3 426 416 420
3 417 422 421
3 422 417 424
3 422 424 418
3 422 418 420
3 427 404 423
3 419 424 417
3 419 408 424
3 427 425 404
3 425 408 419
3 426 407 424
3 428 423 408
3 424 408 426
3 422 420 421
3 427 423 425
3 428 408 425
3 428 425 423
