ply
format ascii 1.0
comment Generated by PyMesh
element vertex 380
property double x
property double y
property double z
element face 1592
property list uchar int vertex_indices
end_header
0.20704 0.167603 0.369714
0.172533 0.167603 0.40422
0.20704 0.167603 0.40422
0.172533 0.167603 0.394362
0.20704 0.123578 0.40422
-0.172533 0.167603 0.40422
0.216899 0.167603 -0.41408
0.172533 0.167603 0.379573
0.172533 0.123578 0.394362
-0.172533 0.167603 0.394362
0.172533 0.123578 0.40422
-0.207039 0.167603 0.40422
0.20704 0.123578 0.384046
0.216899 0.167603 0.41408
0.20704 0.167603 -0.369714
0.172533 0.167603 0.369714
0.172533 0.123578 0.379573
-0.172533 0.123578 0.394362
-0.172533 0.123578 0.40422
0.20704 0.123578 0.369714
0.192708 0.123578 0.389889
0.216899 0.177463 -0.41408
0.197181 0.167603 -0.369714
0.20704 0.167603 -0.40422
0.197181 0.167603 0.369714
0.172533 0.123578 0.369714
-0.172533 0.167603 0.379573
-0.172533 0.123578 0.384046
0.186865 0.123578 0.389889
-0.216899 0.167603 0.41408
-0.207039 0.123578 0.40422
-0.207039 0.167603 0.369714
0.197181 0.123578 0.369714
0.192708 0.123578 0.384046
0.216899 0.177463 0.41408
-0.216899 0.167603 -0.41408
0.20704 0.123578 -0.369714
0.182392 0.167603 0.369714
-0.172533 0.123578 0.379573
-0.186865 0.123578 0.389889
0.186865 0.123578 0.384046
-0.192707 0.123578 0.389889
-0.216899 0.177463 0.41408
-0.207039 0.123578 0.369714
0.182392 0.123578 0.369714
0.20704 -0.00814578 0.40422
-0.216899 0.177463 -0.41408
0.182392 0.167603 -0.369714
0.197181 0.123578 -0.369714
0.20704 0.123578 -0.389889
0.172533 0.167603 -0.40422
-0.172533 0.167603 0.369714
-0.186865 0.123578 0.384046
0.172533 -0.00814578 0.369714
0.172533 -0.00814578 0.40422
-0.197181 0.167603 0.369714
0.182392 0.123578 -0.369714
0.20704 -0.00814578 0.369714
0.172533 0.167603 -0.369714
0.172533 0.123578 -0.379573
0.20704 0.123578 -0.40422
0.192708 0.123578 -0.384046
-0.172533 0.167603 -0.40422
0.172533 0.123578 -0.40422
0.172533 0.167603 -0.394362
-0.182392 0.167603 0.369714
-0.172533 0.123578 0.369714
-0.207039 -0.00814578 0.40422
-0.172533 -0.00814578 0.40422
-0.192707 0.123578 0.384046
-0.197181 0.123578 0.369714
-0.207039 0.167603 -0.369714
0.20704 -0.0336297 0.40422
0.172533 0.167603 -0.379573
0.172533 0.123578 -0.394362
0.192708 0.123578 -0.389889
-0.207039 0.167603 -0.40422
-0.182392 0.123578 0.369714
-0.207039 -0.00814578 0.369714
-0.172533 -0.00814578 0.369714
0.172533 -0.0336297 0.369714
-0.197181 0.123578 -0.369714
-0.182392 0.167603 -0.369714
-0.197181 0.167603 -0.369714
0.20704 -0.0336297 0.369714
0.172533 -0.0336297 0.40422
0.172533 0.123578 -0.369714
0.186865 0.123578 -0.384046
0.20704 -0.00814578 -0.369714
-0.172533 0.167603 -0.394362
-0.207039 0.123578 -0.40422
-0.172533 0.167603 -0.379573
-0.172533 -0.0336297 0.40422
-0.207039 -0.0336297 0.369714
0.197989 -0.0615787 0.395169
-0.172533 0.123578 -0.379573
0.172533 -0.00814578 -0.369714
0.186865 0.123578 -0.389889
0.20704 -0.00814578 -0.40422
-0.172533 0.123578 -0.394362
-0.172533 0.123578 -0.40422
-0.182392 0.123578 -0.369714
-0.207039 -0.0336297 0.40422
-0.172533 -0.0336297 0.369714
0.181584 -0.0615787 0.378765
-0.207039 0.123578 -0.369714
0.197989 -0.0615787 0.378765
0.181584 -0.0615787 0.395169
-0.172533 0.123578 -0.389889
0.172533 -0.00814578 -0.40422
0.20704 -0.0336297 -0.369714
-0.172533 0.123578 -0.369714
-0.181584 -0.0615787 0.395169
-0.197989 -0.0615787 0.378765
-0.192707 0.123578 -0.384046
-0.172533 0.167603 -0.369714
0.197989 -0.0855595 0.395169
-0.186865 0.123578 -0.384046
0.172533 -0.0336297 -0.40422
0.20704 -0.0336297 -0.40422
0.172533 -0.0336297 -0.369714
-0.197989 -0.0615787 0.395169
-0.181584 -0.0615787 0.378765
0.181584 -0.0855595 0.378765
0.197989 -0.0855595 0.378765
0.181584 -0.0855595 0.395169
-0.186865 0.123578 -0.389889
0.197989 -0.0615787 -0.378765
-0.181584 -0.0855595 0.395169
-0.197989 -0.0855595 0.378765
-0.192707 0.123578 -0.389889
0.199374 -0.0872624 0.396554
0.1802 -0.0872624 0.396554
-0.207039 -0.00814578 -0.369714
-0.172533 -0.00814578 -0.369714
0.181584 -0.0615787 -0.395169
0.197989 -0.0615787 -0.395169
0.181584 -0.0615787 -0.378765
-0.197989 -0.0855595 0.395169
-0.181584 -0.0855595 0.378765
0.1802 -0.0872624 0.377381
-0.207039 -0.00814578 -0.40422
0.199374 -0.0872624 0.377381
-0.172533 -0.00814578 -0.40422
0.197989 -0.0855595 -0.378765
-0.199373 -0.0872624 0.396554
-0.199373 -0.0872624 0.377381
-0.1802 -0.0872624 0.396554
0.200536 -0.0891231 0.397717
0.179037 -0.0891231 0.397717
0.179037 -0.0891231 0.376217
-0.172533 -0.0336297 -0.369714
-0.207039 -0.0336297 -0.40422
0.181584 -0.0855595 -0.395169
0.197989 -0.0855595 -0.395169
0.181584 -0.0855595 -0.378765
-0.1802 -0.0872624 0.377381
0.200536 -0.0891231 0.376217
-0.207039 -0.0336297 -0.369714
-0.172533 -0.0336297 -0.40422
0.199374 -0.0872624 -0.377381
0.1802 -0.0872624 -0.377381
-0.200536 -0.0891231 0.397717
-0.200536 -0.0891231 0.376217
-0.179036 -0.0891231 0.397717
0.20146 -0.0911133 0.398641
0.178113 -0.0911133 0.398641
0.178113 -0.0911133 0.375294
-0.181584 -0.0615787 -0.378765
-0.197989 -0.0615787 -0.395169
0.1802 -0.0872624 -0.396554
0.199374 -0.0872624 -0.396554
-0.179036 -0.0891231 0.376217
0.20146 -0.0911133 0.375294
-0.197989 -0.0615787 -0.378765
-0.181584 -0.0615787 -0.395169
0.200536 -0.0891231 -0.376217
0.179037 -0.0891231 -0.376217
0.179037 -0.0891231 -0.397717
-0.20146 -0.0911133 0.398641
-0.20146 -0.0911133 0.375294
-0.178113 -0.0911133 0.398641
0.202131 -0.0932034 0.399311
0.177443 -0.0932034 0.399311
0.177443 -0.0932034 0.374623
-0.181584 -0.0855595 -0.378765
-0.197989 -0.0855595 -0.395169
0.200536 -0.0891231 -0.397717
-0.178113 -0.0911133 0.375294
0.202131 -0.0932034 0.374623
-0.197989 -0.0855595 -0.378765
-0.181584 -0.0855595 -0.395169
0.20146 -0.0911133 -0.375294
0.178113 -0.0911133 -0.375294
0.178113 -0.0911133 -0.398641
-0.20213 -0.0932034 0.399311
-0.20213 -0.0932034 0.374623
-0.177443 -0.0932034 0.399311
0.202537 -0.0953597 0.399717
0.177036 -0.0953597 0.399717
0.177036 -0.0953597 0.374217
-0.199373 -0.0872624 -0.377381
-0.199373 -0.0872624 -0.396554
-0.1802 -0.0872624 -0.377381
0.20146 -0.0911133 -0.398641
-0.177443 -0.0932034 0.374623
0.202537 -0.0953597 0.374217
-0.1802 -0.0872624 -0.396554
0.202131 -0.0932034 -0.374624
0.177443 -0.0932034 -0.374624
0.177443 -0.0932034 -0.399311
-0.202536 -0.0953597 0.399717
-0.202536 -0.0953597 0.374217
-0.177036 -0.0953597 0.399717
0.202673 -0.0975502 0.399853
0.1769 -0.0975502 0.399853
0.1769 -0.0975502 0.374081
-0.200536 -0.0891231 -0.376217
-0.200536 -0.0891231 -0.397717
-0.179036 -0.0891231 -0.376217
0.202131 -0.0932034 -0.399311
-0.177036 -0.0953597 0.374217
0.202673 -0.0975502 0.374081
-0.179036 -0.0891231 -0.397717
0.202537 -0.0953597 -0.374217
0.177036 -0.0953597 -0.374217
0.177036 -0.0953597 -0.399717
-0.202672 -0.0975502 0.399853
-0.202672 -0.0975502 0.374081
-0.1769 -0.0975502 0.399853
0.202537 -0.0997406 0.399717
0.177036 -0.0997406 0.374217
-0.20146 -0.0911133 -0.375294
-0.20146 -0.0911133 -0.398641
-0.178113 -0.0911133 -0.375294
0.202537 -0.0953597 -0.399717
-0.1769 -0.0975502 0.374081
0.202537 -0.0997406 0.374217
0.177036 -0.0997406 0.399717
-0.178113 -0.0911133 -0.398641
0.202673 -0.0975502 -0.374081
0.1769 -0.0975502 -0.374081
0.1769 -0.0975502 -0.399853
-0.177036 -0.0997406 0.399717
-0.202536 -0.0997406 0.374217
-0.177036 -0.0997406 0.374217
0.202131 -0.101897 0.399311
0.177443 -0.101897 0.374623
0.202131 -0.101897 0.374623
-0.20213 -0.0932034 -0.374624
-0.20213 -0.0932034 -0.399311
-0.177443 -0.0932034 -0.374624
0.202673 -0.0975502 -0.399853
-0.202536 -0.0997406 0.399717
0.177443 -0.101897 0.399311
-0.177443 -0.0932034 -0.399311
0.202537 -0.0997406 -0.374217
0.177036 -0.0997406 -0.399717
-0.177443 -0.101897 0.399311
-0.20213 -0.101897 0.374623
-0.177443 -0.101897 0.374623
0.20146 -0.103987 0.398641
0.178113 -0.103987 0.375294
0.20146 -0.103987 0.375294
-0.202536 -0.0953597 -0.374217
-0.202536 -0.0953597 -0.399717
-0.177036 -0.0953597 -0.374217
0.202537 -0.0997406 -0.399717
0.177036 -0.0997406 -0.374217
-0.20213 -0.101897 0.399311
0.178113 -0.103987 0.398641
-0.177036 -0.0953597 -0.399717
0.202131 -0.101897 -0.374624
0.177443 -0.101897 -0.399311
0.202131 -0.101897 -0.399311
-0.178113 -0.103987 0.398641
-0.20146 -0.103987 0.375294
-0.178113 -0.103987 0.375294
0.200536 -0.105977 0.397717
0.179037 -0.105977 0.376217
0.200536 -0.105977 0.376217
-0.202672 -0.0975502 -0.374081
-0.202672 -0.0975502 -0.399853
-0.1769 -0.0975502 -0.374081
0.177443 -0.101897 -0.374624
-0.20146 -0.103987 0.398641
0.179037 -0.105977 0.397717
-0.1769 -0.0975502 -0.399853
0.20146 -0.103987 -0.375294
0.178113 -0.103987 -0.398641
0.20146 -0.103987 -0.398641
-0.179036 -0.105977 0.397717
-0.200536 -0.105977 0.376217
-0.179036 -0.105977 0.376217
0.199374 -0.107838 0.396554
0.1802 -0.107838 0.377381
0.199374 -0.107838 0.377381
-0.177036 -0.0997406 -0.374217
-0.202536 -0.0997406 -0.399717
-0.177036 -0.0997406 -0.399717
0.178113 -0.103987 -0.375294
-0.200536 -0.105977 0.397717
0.1802 -0.107838 0.396554
-0.202536 -0.0997406 -0.374217
0.200536 -0.105977 -0.376217
0.179037 -0.105977 -0.397717
0.200536 -0.105977 -0.397717
-0.1802 -0.107838 0.396554
-0.199373 -0.107838 0.377381
-0.1802 -0.107838 0.377381
0.197989 -0.109541 0.395169
0.181584 -0.109541 0.378765
0.197989 -0.109541 0.378765
-0.177443 -0.101897 -0.374624
-0.20213 -0.101897 -0.399311
-0.177443 -0.101897 -0.399311
0.179037 -0.105977 -0.376217
-0.199373 -0.107838 0.396554
0.181584 -0.109541 0.395169
-0.20213 -0.101897 -0.374624
0.199374 -0.107838 -0.377381
0.1802 -0.107838 -0.396554
0.199374 -0.107838 -0.396554
-0.181584 -0.109541 0.395169
-0.197989 -0.109541 0.378765
-0.181584 -0.109541 0.378765
0.20704 -0.145199 0.40422
0.172533 -0.145199 0.40422
0.172533 -0.145199 0.369714
-0.178113 -0.103987 -0.375294
-0.20146 -0.103987 -0.398641
-0.178113 -0.103987 -0.398641
0.1802 -0.107838 -0.377381
-0.197989 -0.109541 0.395169
0.20704 -0.145199 0.369714
-0.20146 -0.103987 -0.375294
0.197989 -0.109541 -0.378765
0.181584 -0.109541 -0.395169
0.197989 -0.109541 -0.395169
-0.207039 -0.145199 0.40422
-0.207039 -0.145199 0.369714
-0.172533 -0.145199 0.40422
0.20704 -0.177463 0.40422
0.172533 -0.177463 0.369714
-0.179036 -0.105977 -0.376217
-0.200536 -0.105977 -0.397717
-0.179036 -0.105977 -0.397717
0.181584 -0.109541 -0.378765
-0.172533 -0.145199 0.369714
0.20704 -0.177463 0.369714
0.172533 -0.177463 0.40422
-0.200536 -0.105977 -0.376217
0.20704 -0.145199 -0.369714
0.172533 -0.145199 -0.369714
0.172533 -0.145199 -0.40422
-0.172533 -0.177463 0.40422
-0.207039 -0.177463 0.369714
-0.1802 -0.107838 -0.377381
-0.199373 -0.107838 -0.396554
-0.1802 -0.107838 -0.396554
0.20704 -0.145199 -0.40422
-0.207039 -0.177463 0.40422
-0.172533 -0.177463 0.369714
-0.199373 -0.107838 -0.377381
0.20704 -0.177463 -0.369714
0.172533 -0.177463 -0.40422
-0.181584 -0.109541 -0.378765
-0.197989 -0.109541 -0.395169
-0.181584 -0.109541 -0.395169
0.20704 -0.177463 -0.40422
0.172533 -0.177463 -0.369714
-0.197989 -0.109541 -0.378765
-0.207039 -0.145199 -0.369714
-0.207039 -0.145199 -0.40422
-0.172533 -0.145199 -0.369714
-0.172533 -0.145199 -0.40422
-0.172533 -0.177463 -0.369714
-0.207039 -0.177463 -0.40422
-0.207039 -0.177463 -0.369714
-0.172533 -0.177463 -0.40422
3 0 1 2
3 1 0 3
3 2 1 0
3 3 0 1
3 2 4 1
3 1 5 2
3 2 0 4
3 0 2 6
3 3 0 7
3 7 0 3
3 3 1 8
3 3 9 1
3 10 1 4
3 5 11 2
3 5 1 9
3 4 0 12
3 6 2 13
3 14 0 6
3 7 0 15
3 15 0 7
3 7 9 3
3 3 9 7
3 16 3 7
3 7 3 16
3 10 8 1
3 8 17 3
3 3 16 8
3 8 16 3
3 9 3 17
3 10 4 8
3 11 13 2
3 5 18 11
3 9 11 5
3 5 11 9
3 5 9 18
3 19 12 0
3 12 20 4
3 22 0 14
3 23 14 6
3 15 0 24
3 24 0 15
3 15 7 25
3 9 7 26
3 26 7 9
3 16 25 7
3 7 26 16
3 17 8 27
3 8 28 16
3 16 27 8
3 17 26 9
3 9 26 17
3 17 18 9
3 20 8 4
3 13 11 29
3 30 11 18
3 11 9 31
3 31 9 11
3 19 16 12
3 19 0 32
3 33 20 12
3 24 0 22
3 23 22 14
3 14 22 23
3 14 36 22
3 14 23 36
3 35 23 6
3 24 32 0
3 15 24 37
3 37 24 15
3 15 25 37
3 31 9 26
3 26 9 31
3 25 16 19
3 38 16 26
3 27 39 17
3 27 26 17
3 17 26 27
3 40 16 28
3 28 8 20
3 38 27 16
3 17 41 18
3 35 29 11
3 30 43 11
3 18 41 30
3 31 11 43
3 31 35 11
3 12 16 33
3 32 44 19
3 20 33 45
3 22 37 24
3 24 37 22
3 24 22 32
3 22 23 47
3 47 23 22
3 48 22 36
3 36 23 49
3 23 35 50
3 44 24 32
3 32 24 44
3 24 44 37
3 37 44 24
3 44 37 25
3 31 26 51
3 51 26 31
3 44 25 19
3 26 27 38
3 38 27 26
3 26 51 38
3 41 17 39
3 52 39 27
3 33 16 40
3 40 28 53
3 28 20 54
3 38 43 27
3 43 30 41
3 31 43 55
3 55 35 31
3 44 32 56
3 57 45 33
3 45 54 20
3 37 22 47
3 47 22 37
3 48 32 22
3 47 23 58
3 58 23 47
3 47 48 22
3 22 48 47
3 36 59 48
3 60 49 23
3 49 61 36
3 50 35 62
3 50 63 23
3 64 23 50
3 50 23 64
3 44 56 37
3 31 51 65
3 65 51 31
3 66 38 51
3 41 39 67
3 39 52 68
3 27 43 52
3 40 53 33
3 54 53 28
3 66 43 38
3 69 43 41
3 70 55 43
3 31 65 55
3 55 65 31
3 71 35 55
3 48 56 32
3 45 57 72
3 57 33 53
3 45 72 54
3 47 37 56
3 58 23 73
3 73 23 58
3 47 56 58
3 48 47 56
3 56 47 48
3 48 59 56
3 61 59 36
3 60 74 49
3 60 23 63
3 75 61 49
3 62 35 76
3 50 62 64
3 50 64 63
3 73 23 64
3 64 23 73
3 65 77 51
3 66 51 77
3 68 67 39
3 67 78 41
3 79 68 52
3 52 43 69
3 53 54 80
3 70 43 66
3 69 41 78
3 65 70 55
3 55 70 65
3 70 81 55
3 82 55 65
3 65 55 82
3 76 35 71
3 71 55 83
3 84 72 57
3 53 80 57
3 85 54 72
3 73 58 59
3 86 58 56
3 86 56 59
3 87 59 61
3 49 74 75
3 63 74 60
3 61 75 88
3 76 89 62
3 62 89 76
3 76 90 62
3 89 64 62
3 74 63 64
3 64 91 73
3 73 91 64
3 74 73 64
3 64 73 74
3 70 65 77
3 77 65 70
3 65 82 77
3 77 70 66
3 68 92 67
3 78 67 93
3 68 79 92
3 79 52 78
3 69 78 52
3 85 80 54
3 83 55 81
3 70 77 81
3 55 82 83
3 83 82 55
3 71 91 76
3 76 91 71
3 76 71 90
3 83 81 71
3 83 91 71
3 71 91 83
3 72 84 94
3 84 57 80
3 72 94 85
3 86 59 58
3 73 74 59
3 59 74 73
3 59 95 73
3 59 87 74
3 87 61 96
3 75 74 97
3 98 88 75
3 88 96 61
3 76 91 89
3 89 91 76
3 89 62 99
3 100 62 90
3 91 64 89
3 89 64 91
3 89 99 64
3 74 64 99
3 91 73 95
3 101 77 82
3 102 67 92
3 102 93 67
3 78 93 79
3 103 92 79
3 80 85 104
3 101 83 81
3 81 83 101
3 101 81 77
3 82 91 83
3 83 91 82
3 83 101 82
3 82 101 83
3 105 90 71
3 105 71 81
3 106 94 84
3 84 80 106
3 107 85 94
3 74 108 59
3 95 59 108
3 97 74 87
3 96 109 87
3 97 109 75
3 88 98 110
3 98 75 109
3 88 110 96
3 95 89 91
3 91 89 95
3 100 99 62
3 89 108 99
3 99 108 89
3 100 90 99
3 99 108 74
3 95 111 91
3 101 82 111
3 92 112 102
3 93 102 113
3 103 79 93
3 92 103 112
3 107 104 85
3 104 106 80
3 101 114 81
3 91 82 115
3 115 82 91
3 105 81 90
3 94 106 116
3 94 116 107
3 108 117 95
3 108 89 95
3 95 89 108
3 97 87 109
3 109 96 118
3 119 110 98
3 109 118 98
3 120 96 110
3 99 90 108
3 115 91 111
3 95 114 111
3 115 111 82
3 111 114 101
3 121 102 112
3 121 113 102
3 113 122 93
3 103 93 122
3 122 112 103
3 104 107 123
3 104 123 106
3 114 90 81
3 124 116 106
3 125 107 116
3 114 95 117
3 126 117 108
3 120 118 96
3 110 119 127
3 119 98 118
3 110 127 120
3 108 90 126
3 112 128 121
3 113 121 129
3 113 129 122
3 112 122 128
3 125 123 107
3 124 106 123
3 130 90 114
3 114 117 133
3 117 126 134
3 118 120 135
3 136 127 119
3 119 118 136
3 137 120 127
3 126 90 130
3 138 121 128
3 138 129 121
3 139 122 129
3 139 128 122
3 130 114 141
3 134 133 117
3 133 141 114
3 143 134 126
3 137 135 120
3 135 136 118
3 127 136 144
3 127 144 137
3 130 141 126
3 134 151 133
3 141 133 152
3 134 143 151
3 143 126 141
3 135 137 153
3 135 153 136
3 154 144 136
3 155 137 144
3 158 133 151
3 158 152 133
3 141 152 143
3 159 151 143
3 155 153 137
3 154 136 153
3 151 168 158
3 152 158 169
3 159 143 152
3 151 159 168
3 174 158 168
3 174 169 158
3 169 175 152
3 159 152 175
3 175 168 159
3 168 185 174
3 169 174 186
3 169 186 175
3 168 175 185
3 190 174 185
3 190 186 174
3 191 175 186
3 191 185 175
3 310 312 326
3 318 310 327
3 311 318 328
3 311 328 312
3 334 326 312
3 326 327 310
3 327 328 318
3 334 312 328
3 333 323 339
3 324 333 340
3 324 340 325
3 323 325 341
3 326 334 342
3 326 342 327
3 328 327 343
3 328 343 334
3 341 339 323
3 339 340 333
3 348 325 340
3 348 341 325
3 349 342 334
3 350 327 342
3 350 343 327
3 349 334 343
3 336 338 352
3 347 336 353
3 337 347 354
3 337 354 338
3 341 355 339
3 340 339 356
3 340 356 348
3 341 348 355
3 349 343 342
3 350 342 343
3 360 352 338
3 352 353 336
3 353 354 347
3 360 338 354
3 361 339 355
3 361 356 339
3 362 348 356
3 362 355 348
3 352 360 364
3 352 364 353
3 354 353 365
3 354 365 360
3 361 355 356
3 362 356 355
3 369 364 360
3 370 353 364
3 370 365 353
3 369 360 365
3 369 365 364
3 370 364 365
3 371 366 372
3 367 371 373
3 367 373 368
3 366 368 374
3 374 372 366
3 372 373 371
3 375 368 373
3 375 374 368
3 374 376 372
3 373 372 377
3 373 377 375
3 374 375 376
3 378 372 376
3 378 377 372
3 379 375 377
3 379 376 375
3 378 376 377
3 379 377 376
3 116 124 131
3 125 116 132
3 123 125 140
3 123 140 124
3 142 131 124
3 131 132 116
3 132 140 125
3 138 128 145
3 129 138 146
3 129 146 139
3 128 139 147
3 142 124 140
3 131 142 148
3 132 131 149
3 140 132 150
3 147 145 128
3 145 146 138
3 156 139 146
3 156 147 139
3 140 150 142
3 157 148 142
3 148 149 131
3 149 150 132
3 144 154 160
3 155 144 161
3 145 147 162
3 146 145 163
3 146 163 156
3 147 156 164
3 157 142 150
3 148 157 165
3 149 148 166
3 150 149 167
3 153 155 170
3 153 170 154
3 171 160 154
3 160 161 144
3 161 170 155
3 164 162 147
3 162 163 145
3 172 156 163
3 172 164 156
3 150 167 157
3 173 165 157
3 165 166 148
3 166 167 149
3 171 154 170
3 160 171 176
3 161 160 177
3 170 161 178
3 162 164 179
3 163 162 180
3 163 180 172
3 164 172 181
3 173 157 167
3 165 173 182
3 166 165 183
3 167 166 184
3 170 178 171
3 187 176 171
3 176 177 160
3 177 178 161
3 181 179 164
3 179 180 162
3 188 172 180
3 188 181 172
3 167 184 173
3 189 182 173
3 182 183 165
3 183 184 166
3 187 171 178
3 176 187 192
3 177 176 193
3 178 177 194
3 179 181 195
3 180 179 196
3 180 196 188
3 181 188 197
3 189 173 184
3 182 189 198
3 183 182 199
3 184 183 200
3 190 185 201
3 186 190 202
3 186 202 191
3 185 191 203
3 178 194 187
3 204 192 187
3 192 193 176
3 193 194 177
3 197 195 181
3 195 196 179
3 205 188 196
3 205 197 188
3 184 200 189
3 206 198 189
3 198 199 182
3 199 200 183
3 203 201 185
3 201 202 190
3 207 191 202
3 207 203 191
3 204 187 194
3 192 204 208
3 193 192 209
3 194 193 210
3 195 197 211
3 196 195 212
3 196 212 205
3 197 205 213
3 206 189 200
3 198 206 214
3 199 198 215
3 200 199 216
3 201 203 217
3 202 201 218
3 202 218 207
3 203 207 219
3 194 210 204
3 220 208 204
3 208 209 192
3 209 210 193
3 213 211 197
3 211 212 195
3 221 205 212
3 221 213 205
3 200 216 206
3 222 214 206
3 214 215 198
3 215 216 199
3 219 217 203
3 217 218 201
3 223 207 218
3 223 219 207
3 220 204 210
3 208 220 224
3 209 208 225
3 210 209 226
3 211 213 227
3 212 211 228
3 212 228 221
3 213 221 229
3 222 206 216
3 214 222 230
3 214 230 215
3 216 215 231
3 217 219 232
3 218 217 233
3 218 233 223
3 219 223 234
3 210 226 220
3 235 224 220
3 224 225 208
3 225 226 209
3 229 227 213
3 227 228 211
3 236 221 228
3 236 229 221
3 222 216 237
3 237 230 222
3 238 215 230
3 238 231 215
3 231 237 216
3 234 232 219
3 232 233 217
3 239 223 233
3 239 234 223
3 235 220 226
3 224 235 240
3 225 224 241
3 226 225 242
3 229 243 227
3 228 227 244
3 236 228 245
3 229 236 243
3 230 237 246
3 230 246 238
3 231 238 247
3 237 231 248
3 232 234 249
3 233 232 250
3 233 250 239
3 234 239 251
3 226 242 235
3 252 240 235
3 240 241 224
3 241 242 225
3 253 227 243
3 253 244 227
3 244 245 228
3 245 243 236
3 248 246 237
3 254 238 246
3 254 247 238
3 247 248 231
3 251 249 234
3 249 250 232
3 255 239 250
3 255 251 239
3 252 235 242
3 240 252 256
3 240 256 241
3 242 241 257
3 243 258 253
3 244 253 259
3 245 244 260
3 243 245 258
3 246 248 261
3 246 261 254
3 247 254 262
3 248 247 263
3 249 251 264
3 250 249 265
3 250 265 255
3 251 255 266
3 252 242 267
3 267 256 252
3 268 241 256
3 268 257 241
3 257 267 242
3 269 253 258
3 269 259 253
3 259 260 244
3 260 258 245
3 263 261 248
3 270 254 261
3 270 262 254
3 262 263 247
3 266 264 251
3 264 265 249
3 271 255 265
3 271 266 255
3 256 267 272
3 256 272 268
3 257 268 273
3 267 257 274
3 258 275 269
3 259 269 276
3 260 259 277
3 258 260 275
3 261 263 278
3 261 278 270
3 262 270 279
3 263 262 280
3 264 266 281
3 265 264 282
3 265 282 271
3 266 271 283
3 274 272 267
3 284 268 272
3 284 273 268
3 273 274 257
3 285 269 275
3 285 276 269
3 276 277 259
3 277 275 260
3 280 278 263
3 286 270 278
3 286 279 270
3 279 280 262
3 283 281 266
3 281 282 264
3 287 271 282
3 287 283 271
3 272 274 288
3 272 288 284
3 273 284 289
3 274 273 290
3 275 291 285
3 276 285 292
3 277 276 293
3 275 277 291
3 278 280 294
3 278 294 286
3 279 286 295
3 280 279 296
3 283 297 281
3 282 281 298
3 287 282 299
3 283 287 297
3 290 288 274
3 300 284 288
3 300 289 284
3 289 290 273
3 301 285 291
3 301 292 285
3 292 293 276
3 293 291 277
3 296 294 280
3 302 286 294
3 302 295 286
3 295 296 279
3 303 281 297
3 303 298 281
3 298 299 282
3 299 297 287
3 288 290 304
3 288 304 300
3 289 300 305
3 290 289 306
3 291 307 301
3 292 301 308
3 293 292 309
3 291 293 307
3 294 296 310
3 294 310 302
3 295 302 311
3 296 295 312
3 297 313 303
3 298 303 314
3 299 298 315
3 297 299 313
3 306 304 290
3 316 300 304
3 316 305 300
3 305 306 289
3 317 301 307
3 317 308 301
3 308 309 292
3 309 307 293
3 312 310 296
3 318 302 310
3 318 311 302
3 311 312 295
3 319 303 313
3 319 314 303
3 314 315 298
3 315 313 299
3 304 306 320
3 304 320 316
3 305 316 321
3 306 305 322
3 307 323 317
3 308 317 324
3 309 308 325
3 307 309 323
3 313 329 319
3 314 319 330
3 315 314 331
3 313 315 329
3 322 320 306
3 332 316 320
3 332 321 316
3 321 322 305
3 333 317 323
3 333 324 317
3 324 325 308
3 325 323 309
3 335 319 329
3 335 330 319
3 330 331 314
3 331 329 315
3 320 322 336
3 320 336 332
3 321 332 337
3 322 321 338
3 329 344 335
3 330 335 345
3 331 330 346
3 329 331 344
3 338 336 322
3 347 332 336
3 347 337 332
3 337 338 321
3 351 335 344
3 351 345 335
3 345 346 330
3 346 344 331
3 344 357 351
3 345 351 358
3 346 345 359
3 344 346 357
3 363 351 357
3 363 358 351
3 358 359 345
3 359 357 346
3 357 366 363
3 358 363 367
3 359 358 368
3 357 359 366
3 371 363 366
3 371 367 363
3 367 368 358
3 368 366 359
3 1 4 2
3 2 5 1
3 4 0 2
3 6 2 0
3 8 1 3
3 1 9 3
3 4 1 10
3 2 11 5
3 9 1 5
3 12 0 4
3 13 2 6
3 6 0 14
3 1 8 10
3 3 17 8
3 17 3 9
3 8 4 10
3 2 13 11
3 11 18 5
3 18 9 5
3 0 12 19
3 4 20 12
3 21 13 6
3 6 13 21
3 14 0 22
3 6 14 23
3 25 7 15
3 7 25 16
3 16 26 7
3 27 8 17
3 16 28 8
3 8 27 16
3 9 18 17
3 4 8 20
3 29 11 13
3 18 11 30
3 12 16 19
3 32 0 19
3 12 20 33
3 13 21 34
3 34 21 13
3 35 21 6
3 6 21 35
3 22 0 24
3 22 36 14
3 36 23 14
3 6 23 35
3 0 32 24
3 37 25 15
3 19 16 25
3 26 16 38
3 17 39 27
3 28 16 40
3 20 8 28
3 16 27 38
3 18 41 17
3 11 29 35
3 13 42 29
3 29 42 13
3 11 43 30
3 30 41 18
3 43 11 31
3 11 35 31
3 33 16 12
3 19 44 32
3 45 33 20
3 21 42 34
3 34 42 21
3 42 13 34
3 34 13 42
3 21 35 46
3 46 35 21
3 32 22 24
3 36 22 48
3 49 23 36
3 50 35 23
3 25 37 44
3 19 25 44
3 38 51 26
3 39 17 41
3 27 39 52
3 40 16 33
3 53 28 40
3 54 20 28
3 27 43 38
3 42 35 29
3 29 35 42
3 41 30 43
3 55 43 31
3 31 35 55
3 56 32 44
3 33 45 57
3 20 54 45
3 42 21 46
3 46 21 42
3 35 42 46
3 46 42 35
3 22 32 48
3 48 59 36
3 23 49 60
3 36 61 49
3 62 35 50
3 23 63 50
3 37 56 44
3 51 38 66
3 67 39 41
3 68 52 39
3 52 43 27
3 33 53 40
3 28 53 54
3 38 43 66
3 41 43 69
3 43 55 70
3 55 35 71
3 32 56 48
3 72 57 45
3 53 33 57
3 54 72 45
3 56 37 47
3 58 56 47
3 56 59 48
3 36 59 61
3 49 74 60
3 63 23 60
3 49 61 75
3 76 35 62
3 64 62 50
3 63 64 50
3 51 77 65
3 77 51 66
3 39 67 68
3 41 78 67
3 52 68 79
3 69 43 52
3 80 54 53
3 66 43 70
3 78 41 69
3 55 81 70
3 71 35 76
3 83 55 71
3 57 72 84
3 57 80 53
3 72 54 85
3 59 58 73
3 56 58 86
3 59 56 86
3 61 59 87
3 75 74 49
3 60 74 63
3 88 75 61
3 62 90 76
3 62 64 89
3 64 63 74
3 77 82 65
3 66 70 77
3 67 92 68
3 93 67 78
3 92 79 68
3 78 52 79
3 52 78 69
3 54 80 85
3 81 55 83
3 81 77 70
3 90 71 76
3 71 81 83
3 94 84 72
3 80 57 84
3 85 94 72
3 58 59 86
3 73 95 59
3 74 87 59
3 96 61 87
3 97 74 75
3 75 88 98
3 61 96 88
3 99 62 89
3 90 62 100
3 64 99 89
3 99 64 74
3 95 73 91
3 82 77 101
3 92 67 102
3 67 93 102
3 79 93 78
3 79 92 103
3 104 85 80
3 77 81 101
3 71 90 105
3 81 71 105
3 84 94 106
3 106 80 84
3 94 85 107
3 59 108 74
3 108 59 95
3 87 74 97
3 87 109 96
3 75 109 97
3 110 98 88
3 109 75 98
3 96 110 88
3 62 99 100
3 99 90 100
3 74 108 99
3 91 111 95
3 111 82 101
3 102 112 92
3 113 102 93
3 93 79 103
3 112 103 92
3 85 104 107
3 80 106 104
3 81 114 101
3 90 81 105
3 116 106 94
3 107 116 94
3 95 117 108
3 109 87 97
3 118 96 109
3 98 110 119
3 98 118 109
3 110 96 120
3 108 90 99
3 111 91 115
3 111 114 95
3 82 111 115
3 101 114 111
3 112 102 121
3 102 113 121
3 93 122 113
3 122 93 103
3 103 112 122
3 123 107 104
3 106 123 104
3 81 90 114
3 106 116 124
3 116 107 125
3 117 95 114
3 108 117 126
3 96 118 120
3 127 119 110
3 118 98 119
3 120 127 110
3 126 90 108
3 121 128 112
3 129 121 113
3 122 129 113
3 128 122 112
3 107 123 125
3 123 106 124
3 114 90 130
3 133 117 114
3 134 126 117
3 135 120 118
3 119 127 136
3 136 118 119
3 127 120 137
3 130 90 126
3 128 121 138
3 121 129 138
3 129 122 139
3 122 128 139
3 141 114 130
3 117 133 134
3 114 141 133
3 126 134 143
3 120 135 137
3 118 136 135
3 144 136 127
3 137 144 127
3 126 141 130
3 133 151 134
3 152 133 141
3 151 143 134
3 141 126 143
3 153 137 135
3 136 153 135
3 136 144 154
3 144 137 155
3 151 133 158
3 133 152 158
3 143 152 141
3 143 151 159
3 137 153 155
3 153 136 154
3 158 168 151
3 169 158 152
3 152 143 159
3 168 159 151
3 168 158 174
3 158 169 174
3 152 175 169
3 175 152 159
3 159 168 175
3 174 185 168
3 186 174 169
3 175 186 169
3 185 175 168
3 185 174 190
3 174 186 190
3 186 175 191
3 175 185 191
3 326 312 310
3 327 310 318
3 328 318 311
3 312 328 311
3 312 326 334
3 310 327 326
3 318 328 327
3 328 312 334
3 339 323 333
3 340 333 324
3 325 340 324
3 341 325 323
3 342 334 326
3 327 342 326
3 343 327 328
3 334 343 328
3 323 339 341
3 333 340 339
3 340 325 348
3 325 341 348
3 334 342 349
3 342 327 350
3 327 343 350
3 343 334 349
3 352 338 336
3 353 336 347
3 354 347 337
3 338 354 337
3 339 355 341
3 356 339 340
3 348 356 340
3 355 348 341
3 342 343 349
3 343 342 350
3 338 352 360
3 336 353 352
3 347 354 353
3 354 338 360
3 355 339 361
3 339 356 361
3 356 348 362
3 348 355 362
3 364 360 352
3 353 364 352
3 365 353 354
3 360 365 354
3 356 355 361
3 355 356 362
3 360 364 369
3 364 353 370
3 353 365 370
3 365 360 369
3 364 365 369
3 365 364 370
3 372 366 371
3 373 371 367
3 368 373 367
3 374 368 366
3 366 372 374
3 371 373 372
3 373 368 375
3 368 374 375
3 372 376 374
3 377 372 373
3 375 377 373
3 376 375 374
3 376 372 378
3 372 377 378
3 377 375 379
3 375 376 379
3 377 376 378
3 376 377 379
3 131 124 116
3 132 116 125
3 140 125 123
3 124 140 123
3 124 131 142
3 116 132 131
3 125 140 132
3 145 128 138
3 146 138 129
3 139 146 129
3 147 139 128
3 140 124 142
3 148 142 131
3 149 131 132
3 150 132 140
3 128 145 147
3 138 146 145
3 146 139 156
3 139 147 156
3 142 150 140
3 142 148 157
3 131 149 148
3 132 150 149
3 160 154 144
3 161 144 155
3 162 147 145
3 163 145 146
3 156 163 146
3 164 156 147
3 150 142 157
3 165 157 148
3 166 148 149
3 167 149 150
3 170 155 153
3 154 170 153
3 154 160 171
3 144 161 160
3 155 170 161
3 147 162 164
3 145 163 162
3 163 156 172
3 156 164 172
3 157 167 150
3 157 165 173
3 148 166 165
3 149 167 166
3 170 154 171
3 176 171 160
3 177 160 161
3 178 161 170
3 179 164 162
3 180 162 163
3 172 180 163
3 181 172 164
3 167 157 173
3 182 173 165
3 183 165 166
3 184 166 167
3 171 178 170
3 171 176 187
3 160 177 176
3 161 178 177
3 164 179 181
3 162 180 179
3 180 172 188
3 172 181 188
3 173 184 167
3 173 182 189
3 165 183 182
3 166 184 183
3 178 171 187
3 192 187 176
3 193 176 177
3 194 177 178
3 195 181 179
3 196 179 180
3 188 196 180
3 197 188 181
3 184 173 189
3 198 189 182
3 199 182 183
3 200 183 184
3 201 185 190
3 202 190 186
3 191 202 186
3 203 191 185
3 187 194 178
3 187 192 204
3 176 193 192
3 177 194 193
3 181 195 197
3 179 196 195
3 196 188 205
3 188 197 205
3 189 200 184
3 189 198 206
3 182 199 198
3 183 200 199
3 185 201 203
3 190 202 201
3 202 191 207
3 191 203 207
3 194 187 204
3 208 204 192
3 209 192 193
3 210 193 194
3 211 197 195
3 212 195 196
3 205 212 196
3 213 205 197
3 200 189 206
3 214 206 198
3 215 198 199
3 216 199 200
3 217 203 201
3 218 201 202
3 207 218 202
3 219 207 203
3 204 210 194
3 204 208 220
3 192 209 208
3 193 210 209
3 197 211 213
3 195 212 211
3 212 205 221
3 205 213 221
3 206 216 200
3 206 214 222
3 198 215 214
3 199 216 215
3 203 217 219
3 201 218 217
3 218 207 223
3 207 219 223
3 210 204 220
3 224 220 208
3 225 208 209
3 226 209 210
3 227 213 211
3 228 211 212
3 221 228 212
3 229 221 213
3 216 206 222
3 230 222 214
3 215 230 214
3 231 215 216
3 232 219 217
3 233 217 218
3 223 233 218
3 234 223 219
3 220 226 210
3 220 224 235
3 208 225 224
3 209 226 225
3 213 227 229
3 211 228 227
3 228 221 236
3 221 229 236
3 237 216 222
3 222 230 237
3 230 215 238
3 215 231 238
3 216 237 231
3 219 232 234
3 217 233 232
3 233 223 239
3 223 234 239
3 226 220 235
3 240 235 224
3 241 224 225
3 242 225 226
3 227 243 229
3 244 227 228
3 245 228 236
3 243 236 229
3 246 237 230
3 238 246 230
3 247 238 231
3 248 231 237
3 249 234 232
3 250 232 233
3 239 250 233
3 251 239 234
3 235 242 226
3 235 240 252
3 224 241 240
3 225 242 241
3 243 227 253
3 227 244 253
3 228 245 244
3 236 243 245
3 237 246 248
3 246 238 254
3 238 247 254
3 231 248 247
3 234 249 251
3 232 250 249
3 250 239 255
3 239 251 255
3 242 235 252
3 256 252 240
3 241 256 240
3 257 241 242
3 253 258 243
3 259 253 244
3 260 244 245
3 258 245 243
3 261 248 246
3 254 261 246
3 262 254 247
3 263 247 248
3 264 251 249
3 265 249 250
3 255 265 250
3 266 255 251
3 267 242 252
3 252 256 267
3 256 241 268
3 241 257 268
3 242 267 257
3 258 253 269
3 253 259 269
3 244 260 259
3 245 258 260
3 248 261 263
3 261 254 270
3 254 262 270
3 247 263 262
3 251 264 266
3 249 265 264
3 265 255 271
3 255 266 271
3 272 267 256
3 268 272 256
3 273 268 257
3 274 257 267
3 269 275 258
3 276 269 259
3 277 259 260
3 275 260 258
3 278 263 261
3 270 278 261
3 279 270 262
3 280 262 263
3 281 266 264
3 282 264 265
3 271 282 265
3 283 271 266
3 267 272 274
3 272 268 284
3 268 273 284
3 257 274 273
3 275 269 285
3 269 276 285
3 259 277 276
3 260 275 277
3 263 278 280
3 278 270 286
3 270 279 286
3 262 280 279
3 266 281 283
3 264 282 281
3 282 271 287
3 271 283 287
3 288 274 272
3 284 288 272
3 289 284 273
3 290 273 274
3 285 291 275
3 292 285 276
3 293 276 277
3 291 277 275
3 294 280 278
3 286 294 278
3 295 286 279
3 296 279 280
3 281 297 283
3 298 281 282
3 299 282 287
3 297 287 283
3 274 288 290
3 288 284 300
3 284 289 300
3 273 290 289
3 291 285 301
3 285 292 301
3 276 293 292
3 277 291 293
3 280 294 296
3 294 286 302
3 286 295 302
3 279 296 295
3 297 281 303
3 281 298 303
3 282 299 298
3 287 297 299
3 304 290 288
3 300 304 288
3 305 300 289
3 306 289 290
3 301 307 291
3 308 301 292
3 309 292 293
3 307 293 291
3 310 296 294
3 302 310 294
3 311 302 295
3 312 295 296
3 303 313 297
3 314 303 298
3 315 298 299
3 313 299 297
3 290 304 306
3 304 300 316
3 300 305 316
3 289 306 305
3 307 301 317
3 301 308 317
3 292 309 308
3 293 307 309
3 296 310 312
3 310 302 318
3 302 311 318
3 295 312 311
3 313 303 319
3 303 314 319
3 298 315 314
3 299 313 315
3 320 306 304
3 316 320 304
3 321 316 305
3 322 305 306
3 317 323 307
3 324 317 308
3 325 308 309
3 323 309 307
3 319 329 313
3 330 319 314
3 331 314 315
3 329 315 313
3 306 320 322
3 320 316 332
3 316 321 332
3 305 322 321
3 323 317 333
3 317 324 333
3 308 325 324
3 309 323 325
3 329 319 335
3 319 330 335
3 314 331 330
3 315 329 331
3 336 322 320
3 332 336 320
3 337 332 321
3 338 321 322
3 335 344 329
3 345 335 330
3 346 330 331
3 344 331 329
3 322 336 338
3 336 332 347
3 332 337 347
3 321 338 337
3 344 335 351
3 335 345 351
3 330 346 345
3 331 344 346
3 351 357 344
3 358 351 345
3 359 345 346
3 357 346 344
3 357 351 363
3 351 358 363
3 345 359 358
3 346 357 359
3 363 366 357
3 367 363 358
3 368 358 359
3 366 359 357
3 366 363 371
3 363 367 371
3 358 368 367
3 359 366 368
