ply
format ascii 1.0
comment Generated by PyMesh
element vertex 156
property double x
property double y
property double z
element face 616
property list uchar int vertex_indices
end_header
-0.0433064 -0.209301 -0.433137
-0.136329 -0.209301 0.433137
-0.136329 -0.209301 -0.433137
-0.0433064 -0.209301 0.433137
-0.136329 0.209301 -0.433137
0.136329 -0.209301 -0.155156
-0.0433064 0.209301 0.433137
-0.136329 0.209301 0.433137
-0.0433064 0.209301 -0.433137
0.0557664 -0.17509 -0.279823
0.136329 -0.209301 0.100657
-0.038957 -0.00311379 0.425088
-0.0318798 -0.0306573 -0.415454
0.0770957 -0.167672 -0.246817
0.0341224 -0.172085 -0.313318
0.136329 -0.180062 -0.0158652
0.00466387 -0.123233 0.34435
-0.0341406 -0.0412525 0.416173
-0.038918 0.0363473 0.425013
0.136329 0.209301 0.100657
-0.030248 0.00922168 -0.41293
-0.0278531 -0.0699554 -0.409224
0.0966563 -0.150334 -0.216548
0.0696904 -0.0813355 -0.258276
0.0136374 -0.158861 -0.345018
0.0511391 -0.0904939 -0.286985
0.136329 -0.171931 0.00376487
0.136329 -0.182835 -0.0369327
-0.0115604 -0.10343 0.37438
0.0227717 -0.133527 0.310835
-0.0247957 -0.0754681 0.398877
-0.0340241 0.0744417 0.415958
0.0230741 0.166209 0.310276
0.136329 0.209301 -0.155156
-0.0230709 0.0469644 -0.401823
-0.0184436 -0.105995 -0.394662
0.113115 -0.12426 -0.191079
0.0869786 -0.0398247 -0.231524
0.0773751 -0.0704711 -0.246385
0.060742 -0.0881648 -0.272124
-0.00429146 -0.136318 -0.372763
0.0325867 -0.0813355 -0.315694
0.0415356 -0.0881648 -0.301846
0.136329 -0.158996 0.0206224
0.136329 -0.0309501 0.00376487
0.136329 -0.180062 -0.0579991
0.136329 -0.0228192 -0.0158652
-0.0113195 0.136419 0.373933
0.0415292 -0.13361 0.276117
0.00689789 -0.037144 0.340216
-0.0246108 0.108574 0.398534
0.00494493 0.156077 0.34383
0.0418317 0.166126 0.275558
0.136329 0.15536 -0.0172908
0.0886403 0.114599 -0.228952
-0.0108364 0.0799987 -0.38289
0.125349 -0.0912265 -0.172147
0.10657 0.0920568 -0.201207
0.0882428 -0.0221305 -0.229567
0.0832725 -0.0563125 -0.23726
0.0773751 0.026209 -0.246385
0.0696904 0.0370735 -0.258276
0.00562245 0.106072 -0.357421
0.0249026 -0.0704711 -0.327585
0.060742 0.0439027 -0.272124
0.0511391 0.0462319 -0.286985
0.136329 -0.142138 0.0335579
0.136329 -0.0438856 0.0206224
0.136329 -0.171931 -0.0776297
0.136329 -0.0200455 -0.0369327
-0.00362515 0.0162988 0.359692
0.0596584 -0.123478 0.242563
0.0230036 -0.0567063 0.310407
0.00118807 -0.0214914 0.350784
0.0143384 -0.0491557 0.326444
0.00689789 0.0697433 0.340216
0.0323019 0.09188 0.293197
0.05994 0.155832 0.242043
0.136329 0.147809 0.000937742
0.136329 0.157934 -0.0368531
0.0681564 0.127823 -0.260652
0.132527 -0.0534837 -0.161039
0.120721 0.0617327 -0.179307
0.0869786 -0.00443679 -0.231524
0.0832725 0.0120509 -0.23726
0.0140344 -0.0221305 -0.344403
0.0415356 0.0439027 -0.301846
0.0190063 -0.0563125 -0.33671
0.0325867 0.0370735 -0.315694
0.136329 -0.122507 0.0416887
0.136329 -0.0607431 0.0335579
0.136329 0.02891 0.0165914
0.136329 0.0168989 0.000937742
0.136329 -0.158996 -0.0944867
0.136329 -0.0228192 -0.0579991
0.136329 0.00934779 -0.0172908
-0.00240101 -0.00326233 0.357426
0.0759228 -0.10382 0.21246
0.0416008 -0.0567063 0.275986
0.0323019 -0.0592817 0.293197
0.00118807 0.0540897 0.350784
0.0143384 0.0817545 0.326444
0.0230036 0.0893056 0.310407
0.0416008 0.0893056 0.275986
0.0502649 0.0817545 0.259949
0.0761649 0.136029 0.212013
0.136329 0.135797 0.0165914
0.136329 0.00677233 -0.0368531
0.136329 0.15536 -0.0564143
0.0465108 0.130829 -0.294147
0.0251815 0.12341 -0.327152
0.134158 -0.0136048 -0.158516
0.130131 0.0256939 -0.164746
0.0152991 -0.00443679 -0.342446
0.0152991 -0.0398247 -0.342446
0.0249026 0.026209 -0.327585
0.136329 -0.0803738 0.0416887
0.136329 0.0445632 0.0286015
0.136329 -0.142138 -0.107422
0.136329 -0.0309501 -0.0776297
0.136329 0.00934779 -0.0564143
-0.00240101 0.0358611 0.357426
0.0892142 -0.0759757 0.187858
0.0634153 -0.0214914 0.235609
0.0502649 -0.0491557 0.259949
0.057706 0.0697433 0.246177
0.0634153 0.0540897 0.235609
0.0893996 0.108066 0.187516
0.136329 0.120144 0.0286015
0.136329 0.147809 -0.0746434
0.0190063 0.0120509 -0.33671
0.136329 -0.101441 0.044463
0.10356 0.0357131 0.161305
0.136329 0.0823534 0.038728
0.136329 0.0627923 0.0361526
0.136329 -0.122507 -0.115553
0.136329 -0.0438856 -0.0944867
0.136329 0.0168989 -0.0746434
0.0986274 -0.0418429 0.170435
0.057706 -0.037144 0.246177
0.0670043 -0.00326233 0.228967
0.0670043 0.0358611 0.228967
0.0987444 0.0738502 0.170221
0.136329 0.101916 0.0361526
0.136329 0.135797 -0.090297
0.136329 -0.101441 -0.118327
0.103521 -0.00374857 0.16138
0.136329 -0.0607431 -0.107422
0.136329 0.02891 -0.090297
0.0682285 0.0162988 0.226701
0.136329 0.120144 -0.102308
0.136329 -0.0803738 -0.115553
0.136329 0.0445632 -0.102308
0.136329 0.101916 -0.109858
0.136329 0.0823534 -0.112434
0.136329 0.0627923 -0.109858
3 0 1 2
3 1 0 3
3 2 1 0
3 3 0 1
3 2 4 1
3 2 0 4
3 3 0 5
3 5 0 3
3 3 1 6
3 7 1 4
3 8 4 0
3 0 5 9
3 3 5 10
3 10 5 3
3 7 6 1
3 6 11 3
3 7 4 6
3 8 6 4
3 0 12 8
3 9 5 13
3 14 0 9
3 5 10 15
3 10 3 16
3 17 3 11
3 11 6 18
3 19 6 8
3 12 20 8
3 12 0 21
3 13 5 22
3 9 13 23
3 24 0 14
3 14 9 25
3 15 10 26
3 27 5 15
3 16 3 28
3 29 10 16
3 30 3 17
3 11 18 17
3 18 6 31
3 19 32 6
3 33 19 8
3 20 34 8
3 12 21 20
3 21 0 35
3 22 5 36
3 13 22 37
3 23 13 38
3 39 9 23
3 40 0 24
3 24 14 41
3 25 9 39
3 42 14 25
3 26 10 43
3 15 26 44
3 45 5 27
3 27 15 46
3 28 3 30
3 16 28 47
3 48 10 29
3 29 16 49
3 30 17 31
3 31 17 18
3 31 6 50
3 51 6 32
3 52 32 19
3 33 53 19
3 8 54 33
3 34 55 8
3 20 21 34
3 35 0 40
3 21 35 34
3 36 5 56
3 22 36 57
3 37 22 58
3 59 13 37
3 38 13 59
3 23 38 60
3 39 23 61
3 40 24 62
3 41 14 42
3 63 24 41
3 25 39 64
3 42 25 65
3 43 10 66
3 26 43 67
3 44 26 67
3 46 15 44
3 68 5 45
3 45 27 69
3 69 27 46
3 28 30 50
3 47 28 50
3 70 16 47
3 71 10 48
3 48 29 72
3 49 16 73
3 74 29 49
3 50 30 31
3 50 6 47
3 47 6 51
3 32 75 51
3 52 76 32
3 77 52 19
3 78 19 53
3 79 53 33
3 57 33 54
3 80 54 8
3 55 62 8
3 34 35 55
3 35 40 55
3 56 5 81
3 36 56 82
3 57 36 82
3 54 22 57
3 58 22 54
3 58 83 37
3 59 37 83
3 38 59 84
3 60 38 84
3 61 23 60
3 64 39 61
3 24 85 62
3 55 40 62
3 41 42 86
3 87 24 63
3 63 41 88
3 65 25 64
3 86 42 65
3 66 10 89
3 43 66 90
3 67 43 90
3 44 67 91
3 46 44 92
3 93 5 68
3 68 45 94
3 94 45 69
3 69 46 95
3 96 16 70
3 47 51 70
3 97 10 71
3 71 48 98
3 72 29 74
3 99 48 72
3 73 16 96
3 49 73 100
3 74 49 75
3 75 100 51
3 101 75 32
3 76 102 32
3 103 76 52
3 77 104 52
3 105 77 19
3 106 19 78
3 53 95 78
3 79 107 53
3 108 79 33
3 82 33 57
3 80 83 54
3 109 80 8
3 62 110 8
3 81 5 111
3 56 81 112
3 82 56 112
3 58 54 83
3 84 59 83
3 60 84 80
3 61 60 80
3 64 61 80
3 85 113 62
3 85 24 114
3 88 41 86
3 114 24 87
3 87 63 115
3 115 63 88
3 65 64 109
3 86 65 109
3 19 89 10
3 66 89 116
3 90 66 116
3 67 90 117
3 91 67 117
3 92 44 91
3 95 46 92
3 118 5 93
3 93 68 119
3 119 68 94
3 94 69 120
3 107 69 95
3 70 121 96
3 121 70 51
3 122 10 97
3 97 71 123
3 98 48 99
3 124 71 98
3 72 74 101
3 99 72 102
3 73 96 121
3 100 73 121
3 75 49 100
3 101 74 75
3 100 121 51
3 102 101 32
3 76 99 102
3 103 98 76
3 104 103 52
3 125 104 77
3 105 126 77
3 127 105 19
3 128 19 106
3 78 92 106
3 95 92 78
3 107 95 53
3 120 107 79
3 108 120 79
3 129 108 33
3 112 33 82
3 84 83 80
3 109 64 80
3 110 109 8
3 62 115 110
3 33 111 5
3 111 112 81
3 113 130 62
3 85 114 113
3 88 86 110
3 114 87 130
3 130 87 115
3 115 88 110
3 110 86 109
3 131 89 19
3 10 132 19
3 131 116 89
3 116 133 90
3 117 90 134
3 91 117 128
3 92 91 106
3 135 5 118
3 118 93 136
3 136 93 119
3 119 94 137
3 120 69 107
3 137 94 120
3 138 10 122
3 122 97 105
3 123 71 139
3 140 97 123
3 98 99 76
3 139 71 124
3 124 98 103
3 102 72 101
3 104 124 103
3 125 139 104
3 126 125 77
3 141 126 105
3 127 122 105
3 142 127 19
3 143 19 128
3 106 91 128
3 137 120 108
3 129 137 108
3 144 129 33
3 111 33 112
3 130 115 62
3 5 145 33
3 113 114 130
3 131 19 133
3 132 142 19
3 132 10 146
3 116 131 133
3 134 90 133
3 117 134 143
3 128 117 143
3 145 5 135
3 135 118 147
3 147 118 136
3 136 119 148
3 148 119 137
3 146 10 138
3 138 122 127
3 97 149 105
3 123 139 125
3 149 97 140
3 140 123 126
3 139 124 104
3 126 123 125
3 141 140 126
3 149 141 105
3 142 138 127
3 133 19 143
3 148 137 129
3 144 148 129
3 150 144 33
3 145 151 33
3 132 146 142
3 133 143 134
3 145 135 151
3 151 135 147
3 147 136 152
3 152 136 148
3 146 138 142
3 149 140 141
3 152 148 144
3 150 152 144
3 153 150 33
3 151 154 33
3 151 147 155
3 155 147 152
3 155 152 150
3 153 155 150
3 154 153 33
3 154 151 155
3 154 155 153
3 1 4 2
3 4 0 2
3 6 1 3
3 4 1 7
3 0 4 8
3 9 5 0
3 1 6 7
3 3 11 6
3 6 4 7
3 4 6 8
3 8 12 0
3 13 5 9
3 9 0 14
3 15 10 5
3 16 3 10
3 11 3 17
3 18 6 11
3 8 6 19
3 8 20 12
3 21 0 12
3 22 5 13
3 14 0 24
3 26 10 15
3 15 5 27
3 28 3 16
3 16 10 29
3 17 3 30
3 31 6 18
3 6 32 19
3 8 19 33
3 8 34 20
3 35 0 21
3 36 5 22
3 24 0 40
3 43 10 26
3 27 5 45
3 30 3 28
3 29 10 48
3 50 6 31
3 32 6 51
3 19 32 52
3 19 53 33
3 33 54 8
3 8 55 34
3 40 0 35
3 56 5 36
3 66 10 43
3 45 5 68
3 48 10 71
3 47 6 50
3 51 6 47
3 19 52 77
3 53 19 78
3 33 53 79
3 54 33 57
3 8 54 80
3 8 62 55
3 81 5 56
3 89 10 66
3 91 67 44
3 92 44 46
3 68 5 93
3 95 46 69
3 71 10 97
3 19 77 105
3 78 19 106
3 33 79 108
3 57 33 82
3 8 80 109
3 8 110 62
3 111 5 81
3 10 89 19
3 117 90 67
3 117 67 91
3 91 44 92
3 92 46 95
3 93 5 118
3 120 69 94
3 95 69 107
3 97 10 122
3 19 105 127
3 106 19 128
3 33 108 129
3 82 33 112
3 8 109 110
3 5 111 33
3 19 89 131
3 19 132 10
3 90 133 116
3 134 90 117
3 118 5 135
3 137 94 119
3 107 69 120
3 120 94 137
3 122 10 138
3 19 127 142
3 128 19 143
3 33 129 144
3 112 33 111
3 33 145 5
3 133 19 131
3 19 142 132
3 146 10 132
3 133 131 116
3 133 90 134
3 135 5 145
3 148 119 136
3 137 119 148
3 138 10 146
3 143 19 133
3 33 144 150
3 33 151 145
3 152 136 147
3 148 136 152
3 33 150 153
3 33 154 151
3 155 147 151
3 152 147 155
3 33 153 154
3 155 151 154
3 23 13 9
3 25 9 14
3 17 18 11
3 20 21 12
3 37 22 13
3 38 13 23
3 23 9 39
3 41 14 24
3 39 9 25
3 25 14 42
3 47 28 16
3 49 16 29
3 31 17 30
3 18 17 31
3 34 21 20
3 34 35 21
3 57 36 22
3 58 22 37
3 37 13 59
3 59 13 38
3 62 24 40
3 42 14 41
3 41 24 63
3 50 30 28
3 50 28 47
3 47 16 70
3 72 29 48
3 73 16 49
3 49 29 74
3 31 30 50
3 51 75 32
3 32 76 52
3 55 35 34
3 55 40 35
3 82 56 36
3 82 36 57
3 57 22 54
3 54 22 58
3 62 85 24
3 62 40 55
3 63 24 87
3 70 16 96
3 70 51 47
3 98 48 71
3 74 29 72
3 72 48 99
3 96 16 73
3 51 100 75
3 32 75 101
3 32 102 76
3 52 76 103
3 52 104 77
3 54 83 80
3 112 81 56
3 112 56 82
3 83 54 58
3 80 84 60
3 80 60 61
3 80 61 64
3 62 113 85
3 114 24 85
3 87 24 114
3 109 64 65
3 109 65 86
3 51 70 121
3 123 71 97
3 99 48 98
3 98 71 124
3 51 121 100
3 32 101 102
3 52 103 104
3 77 104 125
3 77 126 105
3 80 83 84
3 80 64 109
3 110 115 62
3 81 112 111
3 62 130 113
3 110 86 88
3 110 88 115
3 109 86 110
3 105 97 122
3 139 71 123
3 123 97 140
3 124 71 139
3 77 125 126
3 105 126 141
3 105 122 127
3 62 115 130
3 127 122 138
3 105 149 97
3 140 97 149
3 105 141 149
3 127 138 142
3 142 146 132
3 142 138 146
3 44 26 15
3 46 15 27
3 60 38 23
3 61 23 39
3 64 39 25
3 65 25 42
3 67 43 26
3 67 26 44
3 44 15 46
3 69 27 45
3 46 27 69
3 37 83 58
3 83 37 59
3 84 59 38
3 84 38 60
3 60 23 61
3 61 39 64
3 86 42 41
3 88 41 63
3 64 25 65
3 65 42 86
3 90 66 43
3 90 43 67
3 94 45 68
3 69 45 94
3 100 73 49
3 75 49 74
3 78 95 53
3 53 107 79
3 83 59 84
3 86 41 88
3 115 63 87
3 88 63 115
3 116 89 66
3 116 66 90
3 119 68 93
3 94 68 119
3 96 121 70
3 101 74 72
3 102 72 99
3 121 96 73
3 121 73 100
3 100 49 75
3 75 74 101
3 102 99 76
3 76 98 103
3 106 92 78
3 78 92 95
3 53 95 107
3 79 107 120
3 79 120 108
3 113 114 85
3 130 87 114
3 115 87 130
3 89 116 131
3 128 117 91
3 106 91 92
3 136 93 118
3 119 93 136
3 76 99 98
3 103 98 124
3 101 72 102
3 103 124 104
3 104 139 125
3 128 91 106
3 108 120 137
3 108 137 129
3 130 114 113
3 143 134 117
3 143 117 128
3 147 118 135
3 136 118 147
3 125 139 123
3 126 123 140
3 104 124 139
3 125 123 126
3 126 140 141
3 129 137 148
3 129 148 144
3 134 143 133
3 151 135 145
3 147 135 151
3 141 140 149
3 144 148 152
3 144 152 150
3 150 152 155
3 150 155 153
3 153 155 154
