ply
format ascii 1.0
comment Generated by PyMesh
element vertex 468
property double x
property double y
property double z
element face 1856
property list uchar int vertex_indices
end_header
0.0848167 -0.342695 -0.257021
-0.257878 -0.342695 0.118301
-0.257878 -0.342695 -0.128258
0.0848167 -0.342695 0.257021
-0.257878 -0.0741011 0.0381008
-0.257878 0.342695 -0.128258
0.257878 -0.342695 -0.257021
0.0848167 0.342695 0.257021
-0.257878 0.0115729 0.0381008
-0.257878 -0.0741011 -0.0475727
0.0848167 0.342695 -0.257021
0.257878 -0.342695 0.257021
-0.257878 0.342695 0.118301
0.257878 0.342695 0.257021
-0.257878 0.0963056 0.0297938
-0.257878 -0.0223937 0.0283646
-0.257878 -0.0643649 0.00413273
-0.257878 0.0115729 -0.0475727
0.257878 0.342695 -0.257021
0.257878 -0.320119 0.233327
-0.257878 0.02434 0.0297938
-0.257878 -0.0141292 0.0249415
-0.257878 -0.0312641 0.0295336
-0.257878 -0.0609413 0.0123987
-0.257878 -0.0655334 -0.00473621
-0.257878 0.02434 -0.0370332
-0.257878 -0.0312641 -0.0390055
0.257878 0.319621 -0.233437
0.257878 -0.320119 -0.232737
-0.257878 0.0963056 -0.0370332
-0.257878 -0.00703227 0.0194956
-0.256164 -0.0223937 0.0283646
-0.256164 -0.0268279 0.0289491
-0.257878 -0.040133 0.0283646
-0.257878 -0.0554959 0.0194956
-0.240743 -0.0609413 0.0123987
-0.240743 -0.0643649 0.00413273
-0.257878 -0.0643649 -0.0136066
-0.257878 -0.040133 -0.0378385
-0.257878 -0.0223937 -0.0378385
0.257878 0.319621 0.232628
0.232176 -0.320119 -0.232737
-0.257878 0.00183867 0.00413273
-0.257878 -0.00158491 0.0123987
-0.256164 -0.0141292 0.0249415
-0.240743 -0.0312641 0.0295336
-0.257878 -0.048399 0.0249415
-0.240743 -0.040133 0.0283646
-0.240743 -0.0554959 0.0194956
-0.240743 -0.0655334 -0.00473621
-0.257878 -0.0609413 -0.0218706
-0.257878 -0.048399 -0.0344149
-0.240743 -0.0312641 -0.0390055
-0.257878 -0.0141292 -0.0344149
-0.256164 -0.0268279 -0.038421
0.232176 0.319621 0.232628
0.232176 -0.320119 0.233327
-0.257878 0.00300518 -0.00473621
-0.256164 -0.00158491 0.0123987
-0.256164 -0.00703227 0.0194956
-0.256164 -0.0227823 0.0129212
-0.240743 -0.0268279 0.0289491
-0.240743 -0.048399 0.0249415
-0.240743 -0.0268279 -0.038421
-0.240743 -0.0643649 -0.0136066
-0.257878 -0.0554959 -0.028968
-0.240743 -0.040133 -0.0378385
-0.257878 -0.00703227 -0.028968
-0.256164 -0.0141292 -0.0344149
-0.256164 -0.0223937 -0.0378385
0.232176 0.319621 -0.233437
0.232176 -0.300888 0.0002945
-0.256164 0.00183867 0.00413273
-0.257878 0.00183867 -0.0136066
-0.256164 0.00300518 -0.00473621
-0.25405 -0.0268279 -0.022025
-0.254264 -0.0268279 0.0122888
-0.240743 -0.0609413 -0.0218706
-0.240743 -0.048399 -0.0344149
-0.257878 -0.00158491 -0.0218706
-0.256164 -0.00703227 -0.028968
0.232176 0.290709 0.206878
0.232176 -0.0747091 -0.225884
0.232176 -0.0747091 0.226473
0.232176 -0.29318 0.0588336
0.232176 -0.29318 -0.0582446
-0.256164 0.00183867 -0.0136066
-0.256164 -0.0107881 0.0129212
-0.256164 -0.0107881 0.0026405
-0.256164 -0.0227823 0.0026405
-0.254264 -0.0268279 0.00372158
-0.242269 -0.0268279 0.0122888
-0.240743 -0.0554959 -0.028968
-0.242055 -0.0268279 -0.022025
0.232176 0.297856 0.06535
0.232176 -0.01617 -0.218176
0.232176 -0.133248 -0.218176
0.232176 -0.133248 0.218766
0.232176 -0.270585 0.113384
0.233889 -0.300888 0.0002945
0.232176 -0.270585 -0.112795
0.233889 -0.29318 -0.0582446
-0.256164 -0.00158491 -0.0218706
-0.256164 -0.0107881 -0.0127809
-0.257878 -0.0227823 0.0129212
-0.256164 -0.0227823 -0.0127809
-0.25405 -0.0268279 -0.0134578
-0.242055 -0.0268279 -0.0134578
-0.254264 -0.0388222 0.0122888
-0.256164 -0.0227823 -0.0230616
-0.25405 -0.0388222 -0.022025
0.232176 -0.01617 0.218766
0.232176 0.290709 0.138339
0.232176 0.297856 -0.070014
0.232176 0.290709 -0.207783
0.233889 -0.0747091 -0.225884
0.232176 -0.187798 -0.195582
0.233889 -0.133248 -0.218176
0.232176 -0.187798 0.19617
0.233889 -0.0747091 0.226473
0.232176 -0.234641 0.160227
0.233889 -0.29318 0.0588336
0.232176 -0.234641 -0.159637
0.233889 -0.270585 -0.112795
-0.256164 -0.0107881 -0.0230616
-0.257878 -0.0107881 0.0026405
-0.257878 -0.0107881 0.0129212
-0.257878 -0.0227823 0.0026405
-0.242269 -0.0268279 0.00372158
-0.25405 -0.0388222 -0.0134578
-0.254264 -0.0388222 0.00372158
0.233889 -0.01617 0.218766
0.232176 0.117648 0.206878
0.0950979 0.290709 0.206878
0.232176 0.121166 0.113384
0.233889 0.297856 0.06535
0.232176 0.290709 -0.139244
0.232176 0.117648 -0.207783
0.233889 -0.01617 -0.218176
0.233889 -0.187798 -0.195582
0.233889 -0.133248 0.218766
0.233889 -0.270585 0.113384
0.233889 -0.281596 0.0557287
0.233889 -0.288893 0.0002945
0.233889 -0.234641 -0.159637
0.233889 -0.260198 -0.106797
-0.257878 -0.0107881 -0.0230616
-0.257878 -0.0227823 -0.0127809
-0.257878 -0.0158977 0.0110913
-0.257878 -0.0197529 0.00949416
0.233889 0.03838 0.19617
0.232176 0.03838 0.19617
0.0950979 0.290709 0.138339
0.232176 0.117648 0.138339
0.232176 0.162492 0.06535
0.233889 0.297856 -0.070014
0.232176 0.121166 -0.112795
0.0950979 0.290709 -0.139244
0.232176 0.03838 -0.195582
0.0950979 0.117648 -0.207783
0.233889 -0.130143 -0.206592
0.233889 -0.187798 0.19617
0.233889 -0.234641 0.160227
0.233889 -0.260198 0.107387
0.233889 -0.281596 -0.0551412
0.233889 -0.226159 -0.151157
-0.257878 -0.0107881 -0.0127809
-0.257878 -0.0138175 0.00949416
-0.257878 -0.0150719 0.0107486
-0.257878 -0.0167854 0.0112077
-0.257878 -0.0192079 0.0102036
-0.257878 -0.0200941 0.00866836
-0.257878 -0.0167854 0.00435404
-0.257878 -0.0227823 -0.0230616
0.233889 -0.0192748 0.207179
0.0950979 0.117648 0.206878
0.0950979 0.117648 0.138339
0.232176 0.0852231 0.160227
0.232176 0.143762 0.0588336
0.233889 0.290145 -0.00233226
0.233889 0.162492 -0.070014
0.233889 0.162492 0.06535
0.232176 0.162492 -0.070014
0.232176 0.117648 -0.139244
0.0950979 0.290709 -0.207783
0.232176 0.0852231 -0.159637
0.233889 0.03838 -0.195582
0.233889 -0.0747091 -0.213889
0.233889 -0.181801 -0.185194
0.233889 -0.130143 0.207179
0.233889 -0.0747091 0.214479
0.233889 -0.226159 0.151745
0.232176 -0.281596 0.0557287
0.232176 -0.288893 0.0002945
0.232176 -0.281596 -0.0551412
0.232176 -0.260198 -0.106797
0.232176 -0.226159 -0.151157
-0.257878 -0.0138175 -0.0162079
-0.257878 -0.0158977 -0.0146108
-0.257878 -0.0143605 0.0102036
-0.257878 -0.0134748 0.00866836
-0.239029 -0.0158977 0.0110913
-0.239029 -0.0167854 0.0112077
-0.257878 -0.0176712 0.0110913
-0.257878 -0.018499 0.0107486
-0.239029 -0.0192079 0.0102036
-0.239029 -0.0197529 0.00949416
-0.257878 -0.020212 0.00778062
-0.257878 -0.0176712 0.00447044
-0.257878 -0.0158977 0.00447044
-0.257878 -0.0197529 -0.0162079
-0.257878 -0.0167854 -0.021348
0.233889 0.0852231 0.160227
0.233889 0.0323826 0.185783
0.233889 0.121166 0.113384
0.233889 0.288102 0.0131885
0.233889 0.288102 -0.0178545
0.233889 0.230174 -0.0623036
0.233889 0.230174 0.0576396
0.232176 0.143762 -0.0582446
0.0950979 0.117648 -0.139244
0.233889 -0.0192748 -0.206592
0.232176 -0.181801 -0.185194
0.232176 -0.130143 -0.206592
0.233889 -0.181801 0.185783
0.232176 -0.260198 0.107387
-0.257878 -0.0143605 -0.0154985
-0.257878 -0.0134748 -0.0170337
-0.257878 -0.0150719 -0.0149535
-0.257878 -0.0167854 -0.0144944
-0.239029 -0.0138175 0.00949416
-0.257878 -0.0133584 0.00778062
-0.239029 -0.0134748 0.00866836
-0.239029 -0.0150719 0.0107486
-0.239029 -0.0176712 0.0110913
-0.239029 -0.0200941 0.00866836
-0.257878 -0.0200941 0.00689337
-0.257878 -0.018499 0.00481315
-0.239029 -0.0167854 0.00435404
-0.257878 -0.0150719 0.00481315
-0.239029 -0.0158977 0.00447044
-0.257878 -0.0192079 -0.0154985
-0.257878 -0.0200941 -0.0170337
-0.257878 -0.0176712 -0.0212316
-0.257878 -0.0158977 -0.0212316
0.232176 -0.0192748 0.207179
0.232176 0.0323826 0.185783
0.232176 0.151469 0.0002945
0.233889 0.143762 0.0588336
0.233889 0.282111 0.0276537
0.115659 0.241005 0.00197906
0.115659 0.241318 -0.000405903
0.233889 0.282111 -0.0323177
0.233889 0.245695 -0.0602614
0.233889 0.214652 -0.0602614
0.233889 0.170203 -0.00233226
0.233889 0.214652 0.0555953
0.233889 0.245695 0.0555953
0.233889 0.143762 -0.0582446
0.233889 0.121166 -0.112795
0.233889 0.0852231 -0.159637
0.233889 0.0323826 -0.185194
0.232176 -0.0747091 -0.213889
0.232176 -0.0747091 0.214479
0.232176 -0.130143 0.207179
0.232176 -0.181801 0.185783
0.232176 -0.226159 0.151745
0.112232 -0.134595 0.0199038
0.112232 -0.140409 0.00586675
0.112232 -0.142391 -0.00919441
0.112232 -0.134595 -0.0382911
0.112232 -0.125347 -0.0503433
-0.242456 -0.0138175 -0.0162079
-0.257878 -0.0133584 -0.0179215
-0.242456 -0.0134748 -0.0170337
-0.242456 -0.0158977 -0.0146108
-0.242456 -0.0167854 -0.0144944
-0.257878 -0.0176712 -0.0146108
-0.239029 -0.0143605 0.0102036
-0.257878 -0.0134748 0.00689337
-0.239029 -0.0133584 0.00778062
-0.239029 -0.018499 0.0107486
-0.239029 -0.020212 0.00778062
-0.257878 -0.0197529 0.00606758
-0.257878 -0.0192079 0.00535818
-0.239029 -0.0176712 0.00447044
-0.257878 -0.0143605 0.00535818
-0.239029 -0.0150719 0.00481315
-0.257878 -0.018499 -0.0149535
-0.242456 -0.0192079 -0.0154985
-0.242456 -0.0197529 -0.0162079
-0.257878 -0.020212 -0.0179215
-0.257878 -0.018499 -0.0208889
-0.242456 -0.0167854 -0.021348
-0.257878 -0.0150719 -0.0208889
-0.242456 -0.0158977 -0.0212316
0.233889 0.0767413 0.151745
0.232176 0.0767413 0.151745
0.233889 0.110779 0.107387
0.233889 0.272581 0.0400731
0.115659 0.240083 0.00420317
0.115659 0.241005 -0.00279287
0.115659 0.240083 -0.00501547
0.233889 0.272581 -0.0447386
0.233889 0.26016 -0.054269
0.115659 0.2321 -0.00962454
0.233889 0.200188 -0.054269
0.115659 0.229715 -0.00931081
0.233889 0.172245 0.0131885
0.233889 0.172245 -0.0178545
0.233889 0.200188 0.049605
0.115659 0.229715 0.008499
0.233889 0.26016 0.049605
0.115659 0.2321 0.00881224
0.233889 0.151469 0.0002945
0.232176 -0.0192748 -0.206592
0.112232 -0.0992596 -0.065405
0.112232 -0.113295 -0.0595909
0.112232 -0.0841985 -0.0673873
0.112232 -0.125347 0.0319545
0.112232 -0.140409 -0.0242561
-0.242456 -0.0150719 -0.0149535
-0.242456 -0.0143605 -0.0154985
-0.257878 -0.0134748 -0.0188087
-0.242456 -0.0133584 -0.0179215
-0.242456 -0.0176712 -0.0146108
-0.257878 -0.0138175 0.00606758
-0.239029 -0.0134748 0.00689337
-0.239029 -0.0200941 0.00689337
-0.239029 -0.018499 0.00481315
-0.239029 -0.0143605 0.00535818
-0.242456 -0.0200941 -0.0170337
-0.257878 -0.0200941 -0.0188087
-0.257878 -0.0192079 -0.0203439
-0.242456 -0.0176712 -0.0212316
-0.257878 -0.0143605 -0.0203439
-0.242456 -0.0150719 -0.0208889
0.112232 -0.0841985 0.049
0.112232 -0.0691353 0.0470177
0.112232 -0.0551003 0.0412036
0.233889 0.132177 0.0557287
0.115659 0.238618 0.00611204
0.20476 0.234274 0.000986909
0.20476 0.234312 0.000700654
0.115659 0.236709 -0.00839109
0.115659 0.234487 -0.00931081
0.233889 0.187767 -0.0447386
0.115659 0.227491 -0.00839109
0.233889 0.178237 0.0276537
0.115659 0.222882 -0.000405903
0.233889 0.178237 -0.0323177
0.115659 0.223195 -0.00279287
0.233889 0.187767 0.0400731
0.115659 0.227491 0.00757679
0.115659 0.236709 0.00757679
0.115659 0.234487 0.008499
0.233889 0.110779 -0.106797
0.233889 0.132177 -0.0551412
0.233889 0.0767413 -0.151157
0.232176 0.0323826 -0.185194
0.112232 -0.0992596 0.0470177
0.112232 -0.113295 0.0412036
0.134507 -0.123992 -0.00026902
0.134507 -0.113696 0.0175633
0.134507 -0.125347 -0.0105652
0.134507 -0.123992 -0.02086
0.134507 -0.120017 -0.0304538
0.134507 -0.113696 -0.0386918
-0.257878 -0.0138175 -0.0196345
-0.242456 -0.0134748 -0.0188087
-0.242456 -0.018499 -0.0149535
-0.239029 -0.0138175 0.00606758
-0.239029 -0.0197529 0.00606758
-0.239029 -0.0192079 0.00535818
-0.242456 -0.020212 -0.0179215
-0.257878 -0.0197529 -0.0196345
-0.242456 -0.018499 -0.0208889
-0.242456 -0.0143605 -0.0203439
0.112232 -0.0430476 0.0319545
0.232176 0.110779 0.107387
0.20476 0.233988 0.00148199
0.20476 0.234165 0.00125268
0.20476 0.234274 0.000412899
0.115659 0.238618 -0.00692434
0.20476 0.233207 -0.000405903
0.20476 0.232921 -0.000368435
0.115659 0.225582 -0.00692434
0.20476 0.232653 -0.000258529
0.115659 0.223195 0.00197906
0.115659 0.224117 -0.00501547
0.115659 0.225582 0.00611204
0.20476 0.232921 0.00176824
0.20476 0.232653 0.00165884
0.20476 0.233207 0.00180621
0.233889 0.139475 0.0002945
0.112232 -0.0691353 -0.065405
0.134507 -0.105457 -0.0450149
0.134507 -0.0958635 -0.048988
0.134507 -0.105457 0.0238839
0.134507 -0.120017 0.0093248
-0.242456 -0.0138175 -0.0196345
-0.242456 -0.0200941 -0.0188087
-0.242456 -0.0197529 -0.0196345
-0.242456 -0.0192079 -0.0203439
0.134507 -0.0752731 0.0278575
0.134507 -0.0656793 0.0238839
0.232176 0.132177 0.0557287
0.20476 0.2321 0.000700654
0.20476 0.232138 0.000986909
0.20476 0.232138 0.000412899
0.20476 0.234165 0.000147125
0.20476 0.233758 -0.000258529
0.20476 0.233988 -8.2179e-05
0.20476 0.233493 -0.000368435
0.20476 0.232424 -8.2179e-05
0.115659 0.224117 0.00420317
0.20476 0.232249 0.000147125
0.20476 0.232424 0.00148199
0.20476 0.233758 0.00165884
0.20476 0.233493 0.00176824
0.232176 0.132177 -0.0551412
0.232176 0.110779 -0.106797
0.232176 0.139475 0.0002945
0.232176 0.0767413 -0.151157
0.112232 -0.0551003 -0.0595909
0.134507 -0.0752731 -0.048988
0.134507 -0.0855693 -0.0503433
0.134507 -0.0958635 0.0278575
0.148215 -0.0909872 -0.0080344
0.148215 -0.0915682 -0.0094377
0.148215 -0.090062 -0.00682993
0.148215 -0.0888575 -0.00590621
0.148215 -0.091765 -0.0109439
0.148215 -0.0909872 -0.0138534
0.148215 -0.090062 -0.0150579
0.148215 -0.0888575 -0.0159831
0.134507 -0.0855693 0.0292148
0.134507 -0.0574408 0.0175633
0.112232 -0.0337999 0.0199038
0.20476 0.232249 0.00125268
0.134507 -0.0656793 -0.0450149
0.148215 -0.0874542 -0.0165641
0.148215 -0.085948 -0.016763
0.148215 -0.0874542 -0.00532371
0.148215 -0.0915682 -0.0124501
0.148215 -0.085948 -0.00512688
0.148215 -0.0844418 -0.00532371
0.148215 -0.0830385 -0.00590621
0.112232 -0.0279864 0.00586675
0.112232 -0.0337999 -0.0382911
0.112232 -0.0260036 -0.00919441
0.112232 -0.0430476 -0.0503433
0.148215 -0.0844418 -0.0165641
0.148215 -0.0809088 -0.0080344
0.148215 -0.081834 -0.00682993
0.148215 -0.0803278 -0.0094377
0.148215 -0.0801289 -0.0109439
0.148215 -0.0803278 -0.0124501
0.148215 -0.0809088 -0.0138534
0.148215 -0.081834 -0.0150579
0.148215 -0.0830385 -0.0159831
0.134507 -0.0511197 0.0093248
0.112232 -0.0279864 -0.0242561
0.134507 -0.0574408 -0.0386918
0.134507 -0.0471446 -0.00026902
0.134507 -0.0511197 -0.0304538
0.134507 -0.0457892 -0.0105652
0.134507 -0.0471446 -0.02086
3 0 1 2
3 1 0 3
3 2 1 0
3 3 0 1
3 3 0 6
3 6 0 3
3 3 6 11
3 11 6 3
3 6 11 19
3 6 27 18
3 13 19 11
3 28 6 19
3 18 40 13
3 27 40 18
3 27 6 28
3 19 13 40
3 40 27 55
3 28 41 27
3 40 55 19
3 70 55 27
3 70 27 41
3 56 19 55
3 93 110 75
3 108 91 130
3 93 110 107
3 81 112 133
3 94 113 135
3 99 121 142
3 101 99 143
3 123 101 145
3 128 130 91
3 129 107 110
3 81 133 132
3 152 133 112
3 155 135 113
3 94 135 154
3 136 114 157
3 137 159 114
3 115 117 138
3 117 139 160
3 119 131 140
3 121 141 163
3 142 121 163
3 143 99 142
3 164 101 143
3 144 123 165
3 145 101 164
3 165 123 145
3 150 174 131
3 175 132 133
3 152 112 176
3 153 176 112
3 155 179 135
3 155 113 180
3 181 154 135
3 184 157 114
3 136 157 183
3 184 114 159
3 137 183 159
3 117 187 138
3 139 144 188
3 160 139 188
3 187 117 160
3 161 140 189
3 190 140 131
3 141 162 191
3 163 141 191
3 188 144 165
3 190 131 174
3 213 174 150
3 153 132 176
3 175 176 132
3 215 135 179
3 216 179 155
3 182 180 113
3 180 217 155
3 181 180 154
3 135 218 181
3 220 183 157
3 220 159 183
3 138 221 186
3 187 221 138
3 162 161 224
3 189 140 190
3 224 161 189
3 191 162 224
3 212 213 150
3 182 154 180
3 249 135 215
3 252 216 155
3 217 253 155
3 217 180 254
3 180 181 255
3 256 181 218
3 218 135 257
3 221 261 186
3 296 213 212
3 214 296 212
3 248 298 214
3 299 135 249
3 303 252 155
3 253 304 155
3 254 180 306
3 255 181 308
3 309 180 255
3 310 181 256
3 257 135 312
3 186 261 260
3 298 296 214
3 340 298 248
3 312 135 299
3 304 303 155
3 306 180 346
3 308 181 348
3 350 180 309
3 352 181 310
3 259 356 258
3 258 357 314
3 260 358 259
3 261 358 260
3 314 340 248
3 346 180 350
3 348 181 352
3 356 357 258
3 358 356 259
3 357 394 314
3 394 340 314
3 343 407 342
3 342 408 381
3 382 409 343
3 381 439 380
3 407 408 342
3 409 407 343
3 408 439 381
3 416 409 382
3 410 416 382
3 384 385 413
3 385 387 411
3 387 414 412
3 393 419 391
3 392 391 419
3 417 392 418
3 439 417 380
3 380 417 418
3 414 416 410
3 412 414 410
3 413 385 411
3 411 387 412
3 418 392 419
3 71 84 99
3 85 71 101
3 82 115 95
3 96 117 82
3 83 119 97
3 84 98 121
3 121 99 84
3 99 101 71
3 100 85 123
3 101 123 85
3 111 131 83
3 138 95 115
3 115 82 117
3 116 139 96
3 117 96 139
3 97 140 118
3 140 97 119
3 119 83 131
3 98 120 141
3 141 121 98
3 122 100 144
3 123 144 100
3 131 111 150
3 95 138 158
3 122 144 116
3 139 116 144
3 118 161 120
3 161 118 140
3 162 141 120
3 151 150 111
3 186 158 138
3 162 120 161
3 142 163 192
3 143 142 193
3 164 143 194
3 145 164 195
3 165 145 196
3 150 151 212
3 177 134 212
3 134 178 214
3 158 186 185
3 188 222 160
3 160 223 187
3 163 191 225
3 225 192 163
3 192 193 142
3 193 194 143
3 194 195 164
3 165 196 188
3 195 196 145
3 177 212 151
3 174 245 190
3 213 246 174
3 214 212 134
3 248 214 178
3 215 179 250
3 179 216 251
3 219 156 258
3 156 185 259
3 260 185 186
3 187 262 221
3 223 160 222
3 222 188 196
3 262 187 223
3 190 263 189
3 189 264 224
3 224 265 191
3 266 225 191
3 263 190 245
3 245 174 246
3 246 213 297
3 178 247 248
3 249 215 300
3 251 250 179
3 250 300 215
3 301 251 216
3 252 302 216
3 217 305 253
3 254 307 217
3 256 218 311
3 218 257 313
3 247 219 314
3 259 258 156
3 258 314 219
3 260 259 185
3 221 315 261
3 315 221 262
3 264 189 263
3 265 224 264
3 266 191 265
3 296 297 213
3 314 248 247
3 299 249 341
3 300 341 249
3 301 216 302
3 252 303 302
3 304 253 344
3 345 253 305
3 305 217 307
3 306 347 254
3 307 254 347
3 255 308 349
3 309 255 351
3 310 256 353
3 313 311 218
3 311 353 256
3 312 354 257
3 355 313 257
3 359 261 315
3 296 298 297
3 298 340 379
3 299 341 312
3 383 302 303
3 303 304 383
3 345 344 253
3 344 383 304
3 346 386 306
3 347 306 386
3 308 348 388
3 388 349 308
3 349 351 255
3 350 309 389
3 351 389 309
3 352 310 390
3 353 390 310
3 355 257 354
3 354 312 341
3 261 359 358
3 379 297 298
3 406 379 340
3 350 389 346
3 386 346 389
3 348 352 415
3 415 388 348
3 390 415 352
3 357 356 420
3 356 358 421
3 394 357 422
3 423 358 359
3 340 394 406
3 421 420 356
3 420 422 357
3 423 421 358
3 422 406 394
3 1 4 2
3 5 0 2
3 7 1 3
3 4 1 8
3 2 4 9
3 0 5 10
3 2 9 5
3 10 6 0
3 0 6 10
3 1 7 12
3 3 13 7
3 7 13 3
3 1 14 8
3 5 7 10
3 10 7 5
3 17 5 9
3 6 10 18
3 18 10 6
3 19 11 6
3 13 3 11
3 11 3 13
3 7 5 12
3 12 5 7
3 12 14 1
3 10 7 13
3 13 7 10
3 20 8 14
3 25 5 17
3 10 13 18
3 18 13 10
3 18 27 6
3 11 19 13
3 19 6 28
3 14 12 5
3 8 20 17
3 14 20 29
3 29 5 25
3 17 20 25
3 13 40 18
3 18 40 27
3 28 6 27
3 40 13 19
3 41 19 28
3 28 19 41
3 14 5 29
3 25 29 20
3 55 27 40
3 27 41 28
3 19 55 40
3 19 41 56
3 56 41 19
3 27 55 70
3 41 27 70
3 55 19 56
3 71 56 41
3 55 81 70
3 70 82 41
3 56 83 55
3 84 56 71
3 71 41 85
3 81 55 83
3 70 81 94
3 70 95 82
3 96 41 82
3 83 56 97
3 98 56 84
3 85 41 100
3 81 83 111
3 94 81 112
3 70 94 113
3 70 114 95
3 116 41 96
3 97 56 118
3 120 56 98
3 100 41 122
3 81 111 132
3 133 112 81
3 94 112 134
3 70 113 136
3 70 136 114
3 137 95 114
3 122 41 116
3 118 56 120
3 151 132 111
3 132 133 81
3 112 133 152
3 153 134 112
3 94 134 154
3 136 113 156
3 157 114 136
3 137 158 95
3 114 159 137
3 132 151 153
3 133 132 175
3 176 112 152
3 153 177 134
3 112 176 153
3 178 154 134
3 182 156 113
3 136 156 183
3 114 157 184
3 183 157 136
3 137 185 158
3 159 114 184
3 159 183 137
3 153 151 177
3 176 132 153
3 132 176 175
3 154 178 182
3 182 219 156
3 185 183 156
3 157 183 220
3 183 185 137
3 183 159 220
3 182 178 247
3 182 247 219
3 225 267 192
3 192 268 193
3 193 269 194
3 195 194 270
3 196 195 271
3 223 222 316
3 222 196 317
3 262 223 318
3 266 319 225
3 268 192 267
3 267 225 319
3 269 193 268
3 320 194 269
3 320 270 194
3 270 271 195
3 271 317 196
3 263 245 337
3 245 246 338
3 246 297 339
3 262 318 315
3 317 316 222
3 316 318 223
3 263 337 264
3 264 360 265
3 265 361 266
3 319 266 361
3 338 337 245
3 339 338 246
3 378 339 297
3 315 395 359
3 395 315 318
3 360 264 337
3 361 265 360
3 297 379 378
3 424 359 395
3 438 378 379
3 379 406 438
3 359 424 423
3 448 438 406
3 421 449 420
3 422 420 450
3 423 451 421
3 406 422 448
3 451 423 424
3 462 420 449
3 449 421 451
3 462 450 420
3 450 448 422
3 2 4 1
3 2 0 5
3 3 1 7
3 8 1 4
3 9 4 2
3 10 5 0
3 5 9 2
3 12 7 1
3 8 14 1
3 8 15 4
3 4 15 8
3 4 16 9
3 9 16 4
3 9 5 17
3 1 14 12
3 14 8 20
3 15 8 21
3 21 8 15
3 4 15 22
3 22 15 4
3 16 4 23
3 23 4 16
3 9 16 24
3 24 16 9
3 17 5 25
3 9 26 17
3 17 26 9
3 5 12 14
3 17 20 8
3 21 8 30
3 30 8 21
3 33 4 22
3 22 4 33
3 23 4 34
3 34 4 23
3 9 24 37
3 37 24 9
3 25 5 29
3 25 20 17
3 9 38 26
3 26 38 9
3 39 17 26
3 26 17 39
3 29 5 14
3 42 8 17
3 17 8 42
3 30 8 43
3 43 8 30
3 46 4 33
3 33 4 46
3 34 4 46
3 46 4 34
3 9 37 50
3 50 37 9
3 9 51 38
3 38 51 9
3 53 17 39
3 39 17 53
3 43 8 42
3 42 8 43
3 42 17 57
3 57 17 42
3 60 31 44
3 44 31 60
3 31 54 32
3 32 54 31
3 35 63 36
3 36 63 35
3 48 63 35
3 35 63 48
3 36 63 49
3 49 63 36
3 9 50 65
3 65 50 9
3 9 65 51
3 51 65 9
3 67 17 53
3 53 17 67
3 41 56 71
3 57 17 73
3 73 17 57
3 60 44 59
3 59 44 60
3 54 31 60
3 60 31 54
3 54 75 32
3 32 75 54
3 61 47 45
3 45 47 61
3 32 76 61
3 61 76 32
3 47 63 62
3 62 63 47
3 62 63 48
3 48 63 62
3 49 63 64
3 64 63 49
3 66 63 52
3 52 63 66
3 79 17 67
3 67 17 79
3 75 54 63
3 63 54 75
3 54 68 69
3 69 68 54
3 70 81 55
3 41 82 70
3 55 83 56
3 71 56 84
3 85 41 71
3 73 17 79
3 79 17 73
3 58 87 59
3 59 87 58
3 88 58 72
3 72 58 88
3 60 59 87
3 87 59 60
3 54 60 89
3 89 60 54
3 32 75 90
3 90 75 32
3 47 61 63
3 63 61 47
3 76 32 90
3 90 32 76
3 61 76 91
3 91 76 61
3 64 63 77
3 77 63 64
3 78 63 66
3 66 63 78
3 54 80 68
3 68 80 54
3 75 63 93
3 93 63 75
3 83 55 81
3 94 81 70
3 82 95 70
3 82 41 96
3 97 56 83
3 84 56 98
3 100 41 85
3 88 72 74
3 74 72 88
3 86 103 74
3 74 103 86
3 87 58 88
3 88 58 87
3 87 104 60
3 60 104 87
3 104 89 60
3 60 89 104
3 54 89 105
3 105 89 54
3 106 90 75
3 75 90 106
3 61 107 63
3 63 107 61
3 76 108 90
3 91 108 76
3 61 91 107
3 107 91 61
3 77 63 92
3 92 63 77
3 92 63 78
3 78 63 92
3 54 109 80
3 80 109 54
3 93 63 107
3 107 63 93
3 75 110 93
3 111 83 81
3 112 81 94
3 113 94 70
3 95 114 70
3 96 41 116
3 118 56 97
3 98 56 120
3 122 41 100
3 88 74 89
3 89 74 88
3 124 86 102
3 102 86 124
3 103 86 124
3 124 86 103
3 105 74 103
3 103 74 105
3 125 87 88
3 88 87 125
3 104 87 126
3 126 87 104
3 89 104 127
3 127 104 89
3 105 89 74
3 74 89 105
3 54 105 109
3 109 105 54
3 90 106 128
3 128 106 90
3 75 129 106
3 106 129 75
3 130 90 108
3 128 107 91
3 91 107 128
3 124 102 80
3 80 102 124
3 124 80 109
3 109 80 124
3 107 110 93
3 129 75 110
3 110 75 129
3 132 111 81
3 134 112 94
3 135 113 94
3 136 113 70
3 114 136 70
3 114 95 137
3 116 41 122
3 120 56 118
3 142 121 99
3 143 99 101
3 145 101 123
3 89 125 88
3 88 125 89
3 146 103 124
3 124 103 146
3 103 147 105
3 105 147 103
3 87 125 126
3 126 125 87
3 126 148 104
3 104 148 126
3 104 149 127
3 127 149 104
3 125 89 127
3 127 89 125
3 147 109 105
3 105 109 147
3 128 106 107
3 107 106 128
3 90 130 128
3 106 129 107
3 107 129 106
3 109 146 124
3 124 146 109
3 110 107 129
3 111 132 151
3 112 134 153
3 154 134 94
3 113 135 155
3 154 135 94
3 156 113 136
3 95 158 137
3 138 117 115
3 160 139 117
3 140 131 119
3 163 141 121
3 163 121 142
3 142 99 143
3 143 101 164
3 165 123 144
3 164 101 145
3 145 123 165
3 103 146 166
3 166 146 103
3 147 103 166
3 166 103 147
3 167 126 125
3 125 126 167
3 148 126 168
3 168 126 148
3 104 148 169
3 169 148 104
3 149 104 170
3 170 104 149
3 127 149 171
3 171 149 127
3 127 172 125
3 125 172 127
3 109 147 173
3 173 147 109
3 146 109 173
3 173 109 146
3 131 174 150
3 153 151 132
3 134 177 153
3 134 154 178
3 135 179 155
3 180 113 155
3 135 154 181
3 113 156 182
3 183 156 136
3 158 185 137
3 138 187 117
3 188 144 139
3 188 139 160
3 160 117 187
3 189 140 161
3 131 140 190
3 191 162 141
3 191 141 163
3 165 144 188
3 197 166 146
3 146 166 197
3 166 198 147
3 147 198 166
3 199 126 167
3 167 126 199
3 167 125 200
3 200 125 167
3 168 126 199
3 199 126 168
3 203 104 169
3 169 104 203
3 170 104 204
3 204 104 170
3 127 171 207
3 207 171 127
3 127 208 172
3 172 208 127
3 209 125 172
3 172 125 209
3 147 210 173
3 173 210 147
3 173 211 146
3 146 211 173
3 174 131 190
3 150 174 213
3 177 151 153
3 182 178 154
3 179 135 215
3 155 179 216
3 113 180 182
3 155 217 180
3 154 180 181
3 181 218 135
3 156 219 182
3 156 183 185
3 137 185 183
3 186 221 138
3 138 221 187
3 224 161 162
3 190 140 189
3 189 161 224
3 224 162 191
3 226 166 197
3 197 166 226
3 197 146 227
3 227 146 197
3 198 166 228
3 228 166 198
3 147 198 229
3 229 198 147
3 200 125 231
3 231 125 200
3 204 104 203
3 203 104 204
3 127 207 236
3 236 207 127
3 127 237 208
3 208 237 127
3 239 125 209
3 209 125 239
3 210 147 241
3 241 147 210
3 173 210 242
3 242 210 173
3 173 243 211
3 211 243 173
3 244 146 211
3 211 146 244
3 150 213 212
3 247 178 182
3 180 154 182
3 215 135 249
3 155 216 252
3 155 253 217
3 254 180 217
3 255 181 180
3 218 181 256
3 257 135 218
3 219 247 182
3 186 261 221
3 228 166 226
3 226 166 228
3 227 146 273
3 273 146 227
3 277 147 229
3 229 147 277
3 231 125 279
3 279 125 231
3 234 201 233
3 233 201 234
3 201 234 202
3 202 234 201
3 205 230 206
3 206 230 205
3 206 232 235
3 235 232 206
3 127 236 283
3 283 236 127
3 127 284 237
3 237 284 127
3 286 125 239
3 239 125 286
3 241 147 288
3 288 147 241
3 173 242 291
3 291 242 173
3 173 292 243
3 243 292 173
3 294 146 244
3 244 146 294
3 212 213 296
3 212 296 214
3 214 298 248
3 249 135 299
3 155 252 303
3 155 304 253
3 306 180 254
3 308 181 255
3 255 180 309
3 256 181 310
3 312 135 257
3 260 261 186
3 273 146 323
3 323 146 273
3 288 147 277
3 277 147 288
3 205 278 230
3 230 278 205
3 206 230 232
3 232 230 206
3 279 125 326
3 326 125 279
3 235 232 280
3 280 232 235
3 281 233 278
3 278 233 281
3 234 233 281
3 281 233 234
3 281 278 205
3 205 278 281
3 235 280 282
3 282 280 235
3 127 283 284
3 284 283 127
3 285 240 238
3 238 240 285
3 326 125 286
3 286 125 326
3 329 287 240
3 240 287 329
3 173 291 332
3 332 291 173
3 173 333 292
3 292 333 173
3 335 146 294
3 294 146 335
3 214 296 298
3 248 298 340
3 299 135 312
3 155 303 304
3 346 180 306
3 348 181 308
3 309 180 350
3 310 181 352
3 258 356 259
3 314 357 258
3 259 358 260
3 260 358 261
3 289 322 272
3 272 322 289
3 290 272 274
3 274 272 290
3 323 146 368
3 368 146 323
3 331 274 324
3 324 274 331
3 325 275 321
3 321 275 325
3 275 325 276
3 276 325 275
3 282 280 327
3 327 280 282
3 282 327 328
3 328 327 282
3 329 240 285
3 285 240 329
3 373 330 287
3 287 330 373
3 373 287 329
3 329 287 373
3 289 272 290
3 290 272 289
3 290 274 331
3 331 274 290
3 173 332 375
3 375 332 173
3 173 375 333
3 333 375 173
3 334 295 293
3 293 295 334
3 368 146 335
3 335 146 368
3 376 336 295
3 295 336 376
3 248 340 314
3 350 180 346
3 352 181 348
3 258 357 356
3 259 356 358
3 314 394 357
3 370 321 322
3 322 321 370
3 370 322 289
3 289 322 370
3 374 324 369
3 369 324 374
3 331 324 374
3 374 324 331
3 325 321 370
3 370 321 325
3 328 327 371
3 371 327 328
3 328 371 372
3 372 371 328
3 372 330 373
3 373 330 372
3 376 295 334
3 334 295 376
3 403 377 336
3 336 377 403
3 403 336 376
3 376 336 403
3 314 340 394
3 342 407 343
3 381 408 342
3 343 409 382
3 401 369 400
3 400 369 401
3 374 369 401
3 401 369 374
3 372 371 330
3 330 371 372
3 402 377 403
3 403 377 402
3 380 439 381
3 342 408 407
3 343 407 409
3 381 439 408
3 382 409 416
3 382 416 410
3 413 385 384
3 411 387 385
3 412 414 387
3 391 419 393
3 419 391 392
3 418 392 417
3 402 400 377
3 377 400 402
3 401 400 402
3 402 400 401
3 380 417 439
3 418 417 380
3 410 416 414
3 410 414 412
3 411 385 413
3 412 387 411
3 419 392 418
3 453 428 429
3 454 430 428
3 455 429 432
3 447 431 430
3 446 443 431
3 456 432 444
3 457 444 433
3 458 433 434
3 459 434 435
3 460 435 441
3 452 441 442
3 454 428 453
3 453 429 455
3 447 430 454
3 455 432 456
3 446 431 447
3 443 446 445
3 456 444 457
3 457 433 458
3 458 434 459
3 459 435 460
3 460 441 452
3 21 31 15
3 15 31 21
3 32 22 15
3 15 22 32
3 35 16 23
3 23 16 35
3 36 24 16
3 16 24 36
3 30 44 21
3 21 44 30
3 31 21 44
3 44 21 31
3 32 15 31
3 31 15 32
3 22 32 45
3 45 32 22
3 22 47 33
3 33 47 22
3 48 23 34
3 34 23 48
3 16 35 36
3 36 35 16
3 23 48 35
3 35 48 23
3 24 36 49
3 49 36 24
3 49 37 24
3 24 37 49
3 38 52 26
3 26 52 38
3 26 54 39
3 39 54 26
3 58 30 43
3 43 30 58
3 44 30 59
3 59 30 44
3 61 45 32
3 32 45 61
3 47 22 45
3 45 22 47
3 33 62 46
3 46 62 33
3 62 33 47
3 47 33 62
3 46 48 34
3 34 48 46
3 37 49 64
3 64 49 37
3 64 50 37
3 37 50 64
3 51 66 38
3 38 66 51
3 52 38 66
3 66 38 52
3 63 26 52
3 52 26 63
3 39 68 53
3 53 68 39
3 26 63 54
3 54 63 26
3 39 54 69
3 69 54 39
3 72 43 42
3 42 43 72
3 74 42 57
3 57 42 74
3 30 58 59
3 59 58 30
3 43 72 58
3 58 72 43
3 48 46 62
3 62 46 48
3 50 64 77
3 77 64 50
3 77 65 50
3 50 65 77
3 65 78 51
3 51 78 65
3 66 51 78
3 78 51 66
3 53 80 67
3 67 80 53
3 68 39 69
3 69 39 68
3 80 53 68
3 68 53 80
3 42 74 72
3 72 74 42
3 86 57 73
3 73 57 86
3 57 86 74
3 74 86 57
3 65 77 92
3 92 77 65
3 78 65 92
3 92 65 78
3 80 79 67
3 67 79 80
3 99 84 71
3 101 71 85
3 102 73 79
3 79 73 102
3 73 102 86
3 86 102 73
3 79 80 102
3 102 80 79
3 95 115 82
3 82 117 96
3 97 119 83
3 121 98 84
3 84 99 121
3 71 101 99
3 123 85 100
3 85 123 101
3 83 131 111
3 115 95 138
3 117 82 115
3 96 139 116
3 139 96 117
3 118 140 97
3 119 97 140
3 131 83 119
3 141 120 98
3 98 121 141
3 144 100 122
3 100 144 123
3 150 111 131
3 158 138 95
3 116 144 122
3 144 116 139
3 120 161 118
3 140 118 161
3 120 141 162
3 111 150 151
3 138 158 186
3 161 120 162
3 192 163 142
3 193 142 143
3 194 143 164
3 195 164 145
3 196 145 165
3 168 201 148
3 148 201 168
3 148 202 169
3 169 202 148
3 205 149 170
3 170 149 205
3 206 171 149
3 149 171 206
3 212 151 150
3 212 134 177
3 214 178 134
3 185 186 158
3 160 222 188
3 187 223 160
3 225 191 163
3 163 192 225
3 142 193 192
3 143 194 193
3 164 195 194
3 188 196 165
3 145 196 195
3 230 199 167
3 167 199 230
3 232 167 200
3 200 167 232
3 199 233 168
3 168 233 199
3 201 168 233
3 233 168 201
3 202 148 201
3 201 148 202
3 234 169 202
3 202 169 234
3 169 234 203
3 203 234 169
3 204 205 170
3 170 205 204
3 149 205 206
3 206 205 149
3 171 206 235
3 235 206 171
3 235 207 171
3 171 207 235
3 208 238 172
3 172 238 208
3 172 240 209
3 209 240 172
3 151 212 177
3 190 245 174
3 174 246 213
3 134 212 214
3 178 214 248
3 250 179 215
3 251 216 179
3 258 156 219
3 259 185 156
3 186 185 260
3 221 262 187
3 222 160 223
3 196 188 222
3 223 187 262
3 189 263 190
3 224 264 189
3 191 265 224
3 191 225 266
3 192 267 225
3 193 268 192
3 194 269 193
3 270 194 195
3 271 195 196
3 272 226 197
3 197 226 272
3 274 197 227
3 227 197 274
3 228 275 198
3 198 275 228
3 198 276 229
3 229 276 198
3 199 230 278
3 278 230 199
3 167 232 230
3 230 232 167
3 280 200 231
3 231 200 280
3 200 280 232
3 232 280 200
3 233 199 278
3 278 199 233
3 203 281 204
3 204 281 203
3 281 203 234
3 234 203 281
3 205 204 281
3 281 204 205
3 207 235 282
3 282 235 207
3 282 236 207
3 207 236 282
3 237 285 208
3 208 285 237
3 238 208 285
3 285 208 238
3 240 172 238
3 238 172 240
3 209 287 239
3 239 287 209
3 287 209 240
3 240 209 287
3 289 210 241
3 241 210 289
3 290 242 210
3 210 242 290
3 243 293 211
3 211 293 243
3 211 295 244
3 244 295 211
3 245 190 263
3 246 174 245
3 297 213 246
3 248 247 178
3 300 215 249
3 179 250 251
3 215 300 250
3 216 251 301
3 216 302 252
3 253 305 217
3 217 307 254
3 311 218 256
3 313 257 218
3 314 219 247
3 156 258 259
3 219 314 258
3 185 259 260
3 261 315 221
3 262 221 315
3 316 222 223
3 317 196 222
3 318 223 262
3 263 189 264
3 264 224 265
3 265 191 266
3 225 319 266
3 267 192 268
3 319 225 267
3 268 193 269
3 269 194 320
3 194 270 320
3 195 271 270
3 196 317 271
3 226 321 228
3 228 321 226
3 226 272 322
3 322 272 226
3 197 274 272
3 272 274 197
3 324 227 273
3 273 227 324
3 227 324 274
3 274 324 227
3 275 228 321
3 321 228 275
3 276 198 275
3 275 198 276
3 325 229 276
3 276 229 325
3 229 325 277
3 277 325 229
3 327 231 279
3 279 231 327
3 231 327 280
3 280 327 231
3 236 282 328
3 328 282 236
3 328 283 236
3 236 283 328
3 284 329 237
3 237 329 284
3 285 237 329
3 329 237 285
3 239 330 286
3 286 330 239
3 330 239 287
3 287 239 330
3 288 289 241
3 241 289 288
3 210 289 290
3 290 289 210
3 242 290 331
3 331 290 242
3 331 291 242
3 242 291 331
3 292 334 243
3 243 334 292
3 293 243 334
3 334 243 293
3 295 211 293
3 293 211 295
3 244 336 294
3 294 336 244
3 336 244 295
3 295 244 336
3 213 297 296
3 337 245 263
3 338 246 245
3 339 297 246
3 247 248 314
3 341 249 299
3 249 341 300
3 342 251 250
3 250 251 342
3 300 342 250
3 250 342 300
3 343 301 251
3 251 301 343
3 302 216 301
3 302 303 252
3 344 253 304
3 305 253 345
3 307 217 305
3 254 347 306
3 347 254 307
3 349 308 255
3 351 255 309
3 353 256 310
3 218 311 313
3 256 353 311
3 257 354 312
3 257 313 355
3 315 261 359
3 315 318 262
3 222 316 317
3 223 318 316
3 264 337 263
3 265 360 264
3 266 361 265
3 361 266 319
3 362 267 268
3 267 363 319
3 364 268 269
3 365 269 320
3 366 320 270
3 367 270 271
3 317 367 271
3 321 226 322
3 322 226 321
3 369 273 323
3 323 273 369
3 273 369 324
3 324 369 273
3 277 370 288
3 288 370 277
3 370 277 325
3 325 277 370
3 371 279 326
3 326 279 371
3 279 371 327
3 327 371 279
3 283 328 372
3 372 328 283
3 372 284 283
3 283 284 372
3 329 284 373
3 373 284 329
3 330 326 286
3 286 326 330
3 289 288 370
3 370 288 289
3 291 331 374
3 374 331 291
3 374 332 291
3 291 332 374
3 333 376 292
3 292 376 333
3 334 292 376
3 376 292 334
3 294 377 335
3 335 377 294
3 377 294 336
3 336 294 377
3 297 298 296
3 245 337 338
3 246 338 339
3 297 339 378
3 379 340 298
3 312 341 299
3 380 300 341
3 341 300 380
3 251 342 343
3 343 342 251
3 342 300 381
3 381 300 342
3 301 343 382
3 382 343 301
3 382 302 301
3 301 302 382
3 303 302 383
3 383 304 303
3 253 344 345
3 304 383 344
3 345 384 305
3 305 384 345
3 305 385 307
3 307 385 305
3 306 386 346
3 386 306 347
3 307 387 347
3 347 387 307
3 388 348 308
3 308 349 388
3 255 351 349
3 389 309 350
3 309 389 351
3 390 310 352
3 310 390 353
3 391 313 311
3 311 313 391
3 392 311 353
3 353 311 392
3 354 257 355
3 341 312 354
3 393 355 313
3 313 355 393
3 358 359 261
3 359 395 315
3 318 315 395
3 316 396 317
3 318 397 316
3 337 264 360
3 360 265 361
3 319 398 361
3 267 362 399
3 268 364 362
3 363 267 399
3 398 319 363
3 269 365 364
3 320 366 365
3 270 367 366
3 367 317 396
3 400 323 368
3 368 323 400
3 323 400 369
3 369 400 323
3 326 330 371
3 371 330 326
3 284 372 373
3 373 372 284
3 332 374 401
3 401 374 332
3 401 375 332
3 332 375 401
3 402 333 375
3 375 333 402
3 376 333 403
3 403 333 376
3 377 368 335
3 335 368 377
3 298 297 379
3 337 404 338
3 338 405 339
3 405 378 339
3 378 379 297
3 340 379 406
3 300 380 381
3 381 380 300
3 354 380 341
3 341 380 354
3 302 382 410
3 410 382 302
3 410 383 302
3 302 383 410
3 411 345 344
3 344 345 411
3 412 344 383
3 383 344 412
3 384 345 413
3 413 345 384
3 385 305 384
3 384 305 385
3 387 307 385
3 385 307 387
3 346 389 350
3 389 346 386
3 347 414 386
3 386 414 347
3 414 347 387
3 387 347 414
3 415 352 348
3 348 388 415
3 407 388 349
3 349 388 407
3 409 349 351
3 351 349 409
3 416 351 389
3 389 351 416
3 352 415 390
3 417 353 390
3 390 353 417
3 313 391 393
3 393 391 313
3 311 392 391
3 391 392 311
3 353 417 392
3 392 417 353
3 355 418 354
3 354 418 355
3 355 393 419
3 419 393 355
3 420 356 357
3 421 358 356
3 422 357 394
3 359 358 423
3 395 359 424
3 425 318 395
3 396 316 397
3 397 318 426
3 427 337 360
3 398 360 361
3 362 428 399
3 364 429 362
3 399 430 363
3 363 431 398
3 365 432 364
3 433 365 366
3 434 366 367
3 435 367 396
3 368 377 400
3 400 377 368
3 375 401 402
3 402 401 375
3 333 402 403
3 403 402 333
3 404 337 436
3 405 338 404
3 378 405 437
3 379 378 438
3 406 394 340
3 438 406 379
3 380 354 418
3 418 354 380
3 383 410 412
3 412 410 383
3 345 411 413
3 413 411 345
3 344 412 411
3 411 412 344
3 414 389 386
3 386 389 414
3 408 415 388
3 388 415 408
3 388 407 408
3 408 407 388
3 349 409 407
3 407 409 349
3 351 416 409
3 409 416 351
3 389 414 416
3 416 414 389
3 415 417 390
3 390 417 415
3 418 355 419
3 419 355 418
3 356 420 421
3 357 422 420
3 358 421 423
3 394 406 422
3 423 424 359
3 440 395 424
3 318 425 426
3 395 440 425
3 441 396 397
3 442 397 426
3 337 427 436
3 360 398 427
3 428 362 429
3 430 399 428
3 429 364 432
3 431 363 430
3 443 398 431
3 432 365 444
3 365 433 444
3 366 434 433
3 367 435 434
3 396 441 435
3 445 404 436
3 446 405 404
3 447 437 405
3 437 438 378
3 406 438 448
3 415 408 439
3 439 408 415
3 417 415 439
3 439 415 417
3 420 449 421
3 450 420 422
3 421 451 423
3 448 422 406
3 424 423 451
3 451 440 424
3 425 442 426
3 440 452 425
3 397 442 441
3 427 445 436
3 398 443 427
3 404 445 446
3 405 446 447
3 437 447 454
3 438 437 461
3 461 448 438
3 449 420 462
3 451 421 449
3 420 450 462
3 422 448 450
3 440 451 463
3 442 425 452
3 452 440 460
3 445 427 443
3 454 461 437
3 448 461 464
3 462 465 449
3 449 463 451
3 466 462 450
3 464 450 448
3 463 460 440
3 461 454 453
3 464 453 455
3 466 455 456
3 467 456 457
3 458 467 457
3 459 465 458
3 460 463 459
3 453 464 461
3 465 462 467
3 463 449 465
3 462 466 467
3 450 464 466
3 455 466 464
3 456 467 466
3 467 458 465
3 465 459 463
3 29 20 14
3 20 29 25
3 429 428 453
3 428 430 454
3 432 429 455
3 430 431 447
3 431 443 446
3 444 432 456
3 433 444 457
3 434 433 458
3 435 434 459
3 441 435 460
3 442 441 452
3 453 428 454
3 455 429 453
3 454 430 447
3 456 432 455
3 447 431 446
3 445 446 443
3 457 444 456
3 458 433 457
3 459 434 458
3 460 435 459
3 452 441 460
3 268 267 362
3 319 363 267
3 269 268 364
3 320 269 365
3 270 320 366
3 271 270 367
3 271 367 317
3 317 396 316
3 316 397 318
3 361 398 319
3 399 362 267
3 362 364 268
3 399 267 363
3 363 319 398
3 364 365 269
3 365 366 320
3 366 367 270
3 396 317 367
3 338 404 337
3 339 405 338
3 339 378 405
3 395 318 425
3 397 316 396
3 426 318 397
3 360 337 427
3 361 360 398
3 399 428 362
3 362 429 364
3 363 430 399
3 398 431 363
3 364 432 365
3 366 365 433
3 367 366 434
3 396 367 435
3 436 337 404
3 404 338 405
3 437 405 378
3 424 395 440
3 426 425 318
3 425 440 395
3 397 396 441
3 426 397 442
3 436 427 337
3 427 398 360
3 429 362 428
3 428 399 430
3 432 364 429
3 430 363 431
3 431 398 443
3 444 365 432
3 444 433 365
3 433 434 366
3 434 435 367
3 435 441 396
3 436 404 445
3 404 405 446
3 405 437 447
3 378 438 437
3 424 440 451
3 426 442 425
3 425 452 440
3 441 442 397
3 436 445 427
3 427 443 398
3 446 445 404
3 447 446 405
3 454 447 437
3 461 437 438
3 438 448 461
3 463 451 440
3 452 425 442
3 460 440 452
3 443 427 445
3 437 461 454
3 464 461 448
3 449 465 462
3 451 463 449
3 450 462 466
3 448 450 464
3 440 460 463
3 453 454 461
3 455 453 464
3 456 455 466
3 457 456 467
3 457 467 458
3 458 465 459
3 459 463 460
3 461 464 453
3 467 462 465
3 465 449 463
3 467 466 462
3 466 464 450
3 464 466 455
3 466 467 456
3 465 458 467
3 463 459 465
3 90 108 76
3 76 108 91
3 108 90 130
3 130 91 108
3 128 130 90
3 91 130 128
