ply
format ascii 1.0
comment Generated by PyMesh
element vertex 345
property double x
property double y
property double z
element face 1348
property list uchar int vertex_indices
end_header
0.20554 0.0529451 -0.174913
0.20554 -0.0387216 -0.174913
0.20554 0.00711227 -0.181083
0.20554 0.0956561 -0.156822
0.111437 0.00711227 -0.181083
0.111437 0.0529451 -0.174913
0.111437 0.0956561 -0.156822
0.20554 -0.0814311 -0.156822
0.111437 -0.0387216 -0.174913
0.111437 0.132332 -0.128045
0.20554 0.132332 -0.128045
0.111437 -0.0814311 -0.156822
0.20554 -0.118107 -0.128045
0.20554 0.160475 -0.0905414
0.111437 -0.118107 -0.128045
0.111437 0.160475 -0.0905414
0.20554 -0.14625 -0.0905414
0.20554 0.178165 -0.046868
0.111437 -0.14625 -0.0905414
0.111437 0.178165 -0.046868
0.20554 -0.163941 -0.046868
0.111437 -0.163941 -0.046868
0.20554 0.1842 -2.38949e-07
0.111437 0.1842 -2.38949e-07
0.20554 -0.169976 -2.38949e-07
0.111437 -0.169976 -2.38949e-07
0.20554 0.178165 0.046868
0.111437 0.178165 0.046868
0.20554 -0.163941 0.046868
0.111437 -0.163941 0.046868
0.20554 0.160475 0.0905414
0.111437 0.160475 0.0905414
0.20554 -0.14625 0.0905414
0.111437 -0.14625 0.0905414
0.20554 0.132332 0.128045
0.111437 0.132332 0.128045
0.20554 -0.118107 0.128045
0.111437 -0.118107 0.128045
0.111437 0.0956561 0.156823
0.20554 0.0956561 0.156823
0.111437 -0.0814311 0.156823
0.20554 -0.0814311 0.156823
0.111437 0.0529451 0.174913
0.111437 -0.0387216 0.174913
0.20554 0.0529451 0.174913
0.20554 -0.0387216 0.174913
0.111437 0.00711227 0.181083
0.20554 0.00711227 0.181083
-0.116391 0.104439 0.00597037
-0.116391 0.104055 0.00546637
-0.116391 0.103545 0.00499454
0.0197857 -0.0395625 -0.042009
0.0122873 0.0885028 -0.084493
0.0122873 -0.0821502 -0.084493
0.0197857 0.0459171 -0.042009
-0.000179991 -0.12443 -0.126671
0.0122873 -0.0821502 0.0857467
0.0222879 0.0031773 0.000627589
0.0122873 0.0885028 0.0857467
-0.000179991 0.130782 -0.126671
-0.000179991 -0.12443 0.127925
0.0197857 -0.0395625 0.0432623
0.0197857 0.0459171 0.0432623
-0.000179991 0.130782 0.127925
-0.0175725 -0.166251 -0.168391
-0.0175725 -0.166251 0.169644
-0.0175725 0.172605 0.169644
-0.0175725 0.172605 -0.168391
-0.0398272 0.213819 -0.209505
-0.0398272 -0.207464 0.210758
-0.0398272 0.213819 0.210758
-0.0398272 -0.207464 -0.209505
-0.0668613 0.254276 -0.249866
-0.0668613 0.254276 -0.124619
-0.0668613 -0.247924 -0.124619
-0.0668613 -0.247924 0.251119
-0.0668613 0.128727 -0.249866
-0.0668613 0.254276 0.125873
-0.0668613 -0.247924 -0.249866
-0.0668613 -0.247924 0.125873
-0.0668613 0.254276 0.251119
-0.0668613 -0.122372 -0.249866
0.111437 0.128727 -0.124619
-0.116391 0.128727 -0.249866
-0.116391 0.254276 -0.124619
-0.0668613 0.310945 0.309065
-0.116391 0.254276 0.125873
-0.165918 -0.247924 -0.249866
-0.0668613 -0.30459 -0.110193
-0.116391 -0.247924 -0.124619
-0.0668613 -0.122372 0.251119
-0.116391 -0.247924 0.125873
-0.0668613 -0.30459 0.309065
-0.116391 -0.122372 -0.249866
0.111437 -0.122372 -0.124619
0.111437 0.128727 0.125873
-0.165918 0.254276 -0.249866
-0.0668613 0.115016 -0.231118
-0.0668613 -0.30459 -0.307812
-0.0668613 0.236287 -0.110138
-0.0668613 0.310945 -0.307812
-0.165918 0.254276 0.251119
-0.116391 0.2366 0.107956
-0.116391 -0.229838 -0.112685
0.111437 -0.122372 0.125873
-0.116391 -0.122372 0.251119
-0.0668613 0.128727 0.251119
-0.165918 -0.247924 0.251119
-0.0668613 -0.231402 0.125776
-0.116391 -0.111152 -0.231083
-0.116391 0.115016 -0.231118
-0.116391 0.236287 -0.110138
-0.0668613 0.322299 0.322299
-0.165918 0.310945 0.309065
-0.0668613 0.2366 0.107956
-0.116391 0.121485 -0.0317886
-0.0668613 -0.322299 0.322299
-0.165918 -0.30459 -0.307812
-0.0668613 -0.229838 -0.112685
-0.165918 -0.30459 -0.110193
-0.0668613 -0.122687 0.234228
-0.116391 0.128727 0.251119
-0.116391 -0.231402 0.125776
-0.0668613 -0.111152 -0.231083
-0.0668613 0.106516 -0.209379
-0.0668613 -0.322299 -0.322299
-0.176172 0.255242 0.252106
-0.0668613 0.215245 -0.100913
-0.116391 0.215245 -0.100913
-0.0668613 0.322299 -0.322299
-0.165918 0.310945 -0.307812
-0.116391 0.214738 0.0957881
-0.116391 0.10925 -0.0619963
-0.116391 0.125659 0.000627589
-0.116391 -0.209464 -0.105586
-0.165918 -0.30459 0.309065
-0.116391 -0.122687 0.234228
-0.116391 0.111648 0.232605
-0.176172 -0.248888 -0.250852
-0.0668613 -0.215034 0.128065
-0.116391 -0.0285232 0.121606
-0.116391 -0.104716 -0.21008
-0.176172 0.255242 -0.250852
-0.116391 0.106516 -0.209379
-0.116391 0.192586 -0.0975713
-0.204189 0.322299 -0.322299
-0.204189 0.310945 0.309065
-0.176172 0.309979 -0.306824
-0.0668613 0.214738 0.0957881
-0.116391 0.121485 0.0330438
-0.116391 0.0897854 -0.087936
-0.116391 0.0548905 -0.0466985
-0.116391 0.0635731 -0.0206475
-0.204189 -0.322299 0.322299
-0.176172 -0.303625 -0.110193
-0.204189 -0.30459 -0.307812
-0.116391 -0.188015 -0.103748
-0.0668613 -0.209464 -0.105586
-0.176172 -0.303625 0.308079
-0.0668613 -0.12533 0.217551
-0.0668613 0.111648 0.232605
-0.176172 -0.248888 0.252106
-0.116391 -0.215034 0.128065
-0.116391 -0.0580647 0.109093
-0.116391 0.0031773 0.125873
-0.0668613 -0.104716 -0.21008
-0.0668613 0.103809 -0.186133
-0.176172 -0.303625 -0.306824
-0.185728 0.258073 0.255
-0.0668613 0.192586 -0.0975713
-0.204189 0.322299 0.322299
-0.204189 0.310945 -0.307812
-0.176172 0.309979 0.308079
-0.116391 0.190426 0.090335
-0.116391 0.10925 0.0632501
-0.116391 0.0548905 -0.0648067
-0.116391 0.0317291 -0.0248585
-0.116391 0.0478304 -0.0241702
-0.116391 0.0784854 -0.0143942
-0.116391 0.113945 0.0184784
-0.204189 -0.322299 -0.322299
-0.116391 -0.0834308 -0.087936
-0.204189 -0.30459 0.309065
-0.116391 -0.12533 0.217551
-0.116391 0.100293 0.209956
-0.185728 -0.251718 -0.253747
-0.185728 0.258073 -0.253747
-0.0668613 -0.199144 0.132692
-0.116391 -0.0834308 0.0891897
-0.116391 0.0644174 0.109093
-0.116391 0.0348778 0.121606
-0.116391 -0.103449 -0.18811
-0.116391 0.103809 -0.186133
-0.0668613 0.169853 -0.100339
-0.116391 0.169853 -0.100339
-0.185728 0.307148 -0.303931
-0.185728 -0.300794 -0.303931
-0.0668613 0.190426 0.090335
-0.116391 0.0548905 0.0520399
-0.116391 -0.102895 -0.0619963
-0.116391 -0.0252645 -0.0238721
-0.116391 0.0157531 -0.0226894
-0.116391 0.0588039 -0.0166866
-0.116391 0.0921148 -0.00560173
-0.116391 0.104055 0.00546637
-0.185728 -0.300794 0.305184
-0.116391 -0.16677 -0.107279
-0.0668613 -0.188015 -0.103748
-0.0668613 -0.130246 0.201423
-0.0668613 0.100293 0.209956
-0.185728 -0.251718 0.255
-0.116391 -0.199144 0.132692
-0.116391 0.106927 0.135931
-0.116391 -0.102895 0.0632501
-0.116391 0.0897854 0.0891897
-0.0668613 -0.103449 -0.18811
-0.0668613 0.107078 -0.162961
-0.193935 0.262575 0.259606
-0.116391 0.0644174 -0.107839
-0.185728 0.307148 0.305184
-0.116391 0.165592 0.0920303
-0.116391 0.0548905 0.0330438
-0.116391 0.000383758 -0.0177325
-0.116391 0.0468781 -0.0169679
-0.116391 0.0705354 -0.0144772
-0.116391 0.0817777 -0.0103916
-0.116391 -0.115131 -0.0317886
-0.116391 -0.0580647 -0.107839
-0.116391 -0.130246 0.201423
-0.116391 0.095563 0.184969
-0.193935 -0.256222 -0.25835
-0.193935 0.262575 -0.25835
-0.0668613 -0.184052 0.139567
-0.116391 -0.115131 0.0330438
-0.116391 0.122119 0.115771
-0.116391 -0.107428 -0.166479
-0.116391 0.107078 -0.162961
-0.0668613 0.148594 -0.10903
-0.116391 0.148594 -0.10903
-0.193935 0.302645 -0.299325
-0.193935 -0.296292 -0.299325
-0.193935 -0.296292 0.300579
-0.0668613 0.165592 0.0920303
-0.116391 0.116478 0.0219723
-0.116391 -0.00625979 0.00874663
-0.116391 -0.0902049 0.0363936
-0.116391 -0.0902049 -0.0527997
-0.116391 -0.0317612 -0.00864871
-0.116391 0.0350588 -0.0153095
-0.116391 0.0922434 -0.00453759
-0.116391 -0.119305 0.000627589
-0.116391 -0.146995 -0.115968
-0.0668613 -0.16677 -0.107279
-0.0668613 -0.13734 0.186165
-0.116391 -0.13734 0.186165
-0.0668613 0.095563 0.184969
-0.193935 -0.256222 0.259606
-0.116391 -0.184052 0.139567
-0.116391 0.142204 0.10074
-0.0668613 0.106927 0.135931
-0.0668613 -0.107428 -0.166479
-0.0668613 0.1161 -0.141446
-0.200231 0.268444 0.265605
-0.116391 0.0348778 -0.120352
-0.193935 0.302645 0.300579
-0.116391 0.109815 0.0118512
-0.116391 0.0031773 0.000627589
-0.116391 -0.0169338 0.0150643
-0.116391 -0.0529974 0.0215897
-0.116391 -0.0902049 -0.0346901
-0.116391 -0.0139171 -0.0101324
-0.116391 0.0236455 -0.0117586
-0.116391 0.0129274 -0.00640043
-0.116391 0.0993271 0.00108454
-0.116391 -0.110928 -0.0199319
-0.116391 -0.0285232 -0.120352
-0.116391 0.0978348 0.159624
-0.116391 -0.146467 0.172084
-0.200231 -0.262089 0.265605
-0.200231 0.268444 -0.264351
-0.0668613 -0.17006 0.14855
-0.116391 -0.0968537 0.000665028
-0.116391 -0.0902049 0.011041
-0.0668613 0.142204 0.10074
-0.0668613 0.122119 0.115771
-0.0668613 0.0978348 0.159624
-0.116391 -0.116412 -0.146478
-0.116391 0.1161 -0.141446
-0.0668613 0.130261 -0.123051
-0.116391 0.130261 -0.123051
-0.200231 0.296778 -0.293324
-0.200231 -0.290423 -0.293324
-0.116391 0.101669 0.00294018
-0.116391 -0.0290848 0.00193364
-0.116391 -0.0285198 0.0193871
-0.116391 -0.042728 0.00932694
-0.116391 -0.0406641 0.0215845
-0.116391 -0.0651436 0.0194024
-0.116391 -0.026718 -0.000120237
-0.116391 -0.104774 -0.0090039
-0.116391 -0.111372 -0.0247217
-0.116391 0.0031773 -0.124619
-0.0668613 -0.146995 -0.115968
-0.0668613 -0.146467 0.172084
-0.200231 -0.262089 -0.264351
-0.116391 -0.17006 0.14855
-0.116391 -0.0767325 0.0150863
-0.200231 0.296778 0.29458
-0.0668613 -0.116412 -0.146478
-0.204189 0.275277 0.272594
-0.204189 -0.268923 0.272594
-0.200231 -0.290423 0.29458
-0.116391 -0.0315903 0.00380849
-0.116391 -0.0398044 0.00825944
-0.116391 -0.0457193 0.0101765
-0.116391 -0.0761608 0.00630876
-0.116391 -0.106919 -0.0180858
-0.116391 -0.129869 -0.1293
-0.116391 -0.157448 0.159461
-0.0668613 -0.157448 0.159461
-0.204189 0.275277 -0.271339
-0.116391 -0.0961347 -0.00639515
-0.116391 -0.0874118 0.00877735
-0.116391 -0.0860395 0.00958757
-0.204189 0.289944 -0.286337
-0.204189 -0.283589 -0.286337
-0.116391 -0.0342212 0.00549181
-0.116391 -0.0549414 0.011376
-0.116391 -0.0369638 0.00697883
-0.116391 -0.068769 0.00906823
-0.116391 -0.0611371 0.0110343
-0.116391 -0.048763 0.0108024
-0.116391 -0.101823 -0.0119563
-0.0668613 -0.129869 -0.1293
-0.204189 -0.268923 -0.271339
-0.116391 -0.0899174 -0.00146373
-0.116391 -0.0832345 0.00278659
-0.204189 0.289944 0.287591
-0.20554 0.28261 0.280092
-0.20554 -0.276257 0.280092
-0.204189 -0.283589 0.287591
-0.116391 -0.058046 0.0113184
-0.116391 -0.0518421 0.0112032
-0.20554 0.28261 -0.278839
-0.20554 -0.276257 -0.278839
3 2 1 0
3 3 0 1
3 7 3 1
3 10 3 7
3 4 5 8
3 6 8 5
3 9 11 6
3 12 10 7
3 11 8 6
3 14 11 9
3 13 10 12
3 15 14 9
3 16 13 12
3 18 14 15
3 17 13 16
3 19 18 15
3 20 17 16
3 21 18 19
3 22 17 20
3 23 21 19
3 24 22 20
3 25 21 23
3 26 22 24
3 27 25 23
3 28 26 24
3 29 25 27
3 30 26 28
3 31 29 27
3 32 30 28
3 33 29 31
3 34 30 32
3 35 33 31
3 36 34 32
3 37 33 35
3 39 34 36
3 38 40 35
3 40 37 35
3 41 39 36
3 43 40 38
3 44 39 41
3 42 43 38
3 45 44 41
3 46 43 42
3 47 44 45
3 2 4 1
3 0 5 2
3 3 6 0
3 8 1 4
3 4 2 5
3 5 0 6
3 6 3 9
3 1 8 7
3 10 9 3
3 11 7 8
3 10 13 9
3 7 11 12
3 15 9 13
3 14 12 11
3 13 17 15
3 14 18 12
3 16 12 18
3 19 15 17
3 18 21 16
3 17 22 19
3 20 16 21
3 23 19 22
3 21 25 20
3 22 26 23
3 24 20 25
3 27 23 26
3 25 29 24
3 26 30 27
3 28 24 29
3 31 27 30
3 29 33 28
3 30 34 31
3 32 28 33
3 35 31 34
3 33 37 32
3 35 34 38
3 36 32 37
3 39 38 34
3 36 37 41
3 38 39 42
3 40 41 37
3 44 42 39
3 43 45 40
3 41 40 45
3 42 44 46
3 45 43 47
3 47 46 44
3 46 47 43
3 0 1 2
3 1 0 3
3 1 3 7
3 7 3 10
3 8 5 4
3 5 8 6
3 6 11 9
3 7 10 12
3 6 8 11
3 9 11 14
3 12 10 13
3 9 14 15
3 12 13 16
3 15 14 18
3 16 13 17
3 15 18 19
3 16 17 20
3 19 18 21
3 20 17 22
3 19 21 23
3 20 22 24
3 23 21 25
3 24 22 26
3 23 25 27
3 24 26 28
3 27 25 29
3 28 26 30
3 27 29 31
3 28 30 32
3 31 29 33
3 32 30 34
3 31 33 35
3 32 34 36
3 35 33 37
3 36 34 39
3 35 40 38
3 35 37 40
3 36 39 41
3 38 40 43
3 41 39 44
3 38 43 42
3 41 44 45
3 42 43 46
3 45 44 47
3 1 4 2
3 2 5 0
3 0 6 3
3 4 1 8
3 5 2 4
3 6 0 5
3 9 3 6
3 7 8 1
3 3 9 10
3 8 7 11
3 9 13 10
3 12 11 7
3 13 9 15
3 11 12 14
3 15 17 13
3 12 18 14
3 18 12 16
3 17 15 19
3 16 21 18
3 19 22 17
3 21 16 20
3 22 19 23
3 20 25 21
3 23 26 22
3 25 20 24
3 26 23 27
3 24 29 25
3 27 30 26
3 29 24 28
3 30 27 31
3 28 33 29
3 31 34 30
3 33 28 32
3 34 31 35
3 32 37 33
3 38 34 35
3 37 32 36
3 34 38 39
3 41 37 36
3 42 39 38
3 37 41 40
3 39 42 44
3 40 45 43
3 45 40 41
3 46 44 42
3 47 43 45
3 44 46 47
3 43 47 46
3 50 49 48
3 48 49 50
3 82 76 72
3 72 83 76
3 78 72 76
3 80 72 73
3 84 72 73
3 72 85 73
3 80 73 77
3 73 85 77
3 78 79 74
3 87 74 78
3 88 78 74
3 88 74 79
3 80 75 90
3 78 75 79
3 91 75 79
3 92 79 75
3 94 81 76
3 78 76 81
3 94 76 82
3 72 95 82
3 96 83 72
3 78 98 72
3 95 72 80
3 72 84 96
3 72 100 85
3 101 77 80
3 77 85 80
3 77 101 86
3 81 94 78
3 81 87 78
3 74 87 89
3 98 78 88
3 88 79 92
3 104 90 75
3 90 75 105
3 90 85 75
3 80 90 106
3 94 75 78
3 75 91 107
3 92 75 85
3 87 81 93
3 96 93 83
3 109 83 93
3 100 72 98
3 106 95 80
3 96 84 101
3 111 86 84
3 86 101 84
3 100 112 85
3 106 101 80
3 80 85 106
3 86 115 102
3 89 87 91
3 116 98 88
3 91 103 89
3 116 88 92
3 90 104 95
3 75 94 104
3 107 105 75
3 106 85 90
3 90 95 106
3 107 91 87
3 85 112 92
3 87 93 96
3 83 109 110
3 98 125 100
3 86 111 128
3 100 129 112
3 121 101 106
3 86 132 115
3 102 115 133
3 125 98 116
3 103 91 134
3 116 92 112
3 105 107 101
3 121 136 105
3 105 101 121
3 140 91 122
3 110 109 143
3 129 100 125
3 86 128 144
3 145 112 129
3 146 130 113
3 102 149 131
3 86 150 132
3 102 133 149
3 155 119 117
3 134 91 156
3 112 153 116
3 119 155 135
3 137 136 121
3 163 91 140
3 122 164 140
3 135 146 113
3 143 109 141
3 125 145 129
3 130 155 117
3 86 144 150
3 112 145 170
3 130 146 171
3 131 149 174
3 156 91 181
3 153 112 170
3 135 155 182
3 137 183 136
3 164 122 162
3 188 91 163
3 146 135 182
3 143 141 191
3 145 125 180
3 155 130 171
3 194 150 144
3 145 171 170
3 170 171 146
3 131 174 173
3 155 180 153
3 181 91 199
3 181 206 156
3 170 146 153
3 155 153 182
3 184 183 137
3 212 164 162
3 213 91 188
3 212 190 164
3 182 153 146
3 143 191 192
3 180 155 145
3 171 145 155
3 194 218 150
3 173 174 214
3 199 91 226
3 227 206 181
3 184 228 183
3 212 162 211
3 233 91 213
3 220 214 189
3 234 189 190
3 234 190 212
3 192 191 235
3 238 218 194
3 214 220 173
3 226 91 250
3 227 251 206
3 184 254 228
3 229 254 184
3 212 211 257
3 250 91 233
3 220 189 258
3 258 189 234
3 192 235 236
3 238 263 218
3 275 251 227
3 229 277 254
3 212 257 276
3 236 235 286
3 289 263 238
3 301 251 275
3 276 277 229
3 276 257 305
3 236 286 287
3 289 301 263
3 251 301 317
3 276 318 277
3 276 305 318
3 287 286 317
3 289 317 301
3 287 317 289
3 51 52 53
3 52 51 54
3 52 55 53
3 56 51 53
3 57 54 51
3 54 58 52
3 55 52 59
3 60 53 55
3 51 56 61
3 53 60 56
3 62 54 57
3 61 57 51
3 58 54 62
3 63 52 58
3 52 63 59
3 59 64 55
3 55 65 60
3 56 62 61
3 60 58 56
3 62 57 61
3 62 56 58
3 58 60 63
3 66 59 63
3 64 59 67
3 65 55 64
3 65 63 60
3 59 66 67
3 63 65 66
3 68 64 67
3 64 69 65
3 70 67 66
3 69 66 65
3 64 68 71
3 67 70 68
3 69 64 71
3 66 69 70
3 72 71 68
3 73 68 70
3 71 74 69
3 75 70 69
3 76 71 72
3 68 73 72
3 73 70 77
3 74 71 78
3 69 74 79
3 70 75 80
3 69 79 75
3 81 71 76
3 77 70 80
3 71 81 78
3 83 97 76
3 99 84 73
3 102 77 86
3 103 74 89
3 108 91 79
3 81 109 93
3 97 83 110
3 84 99 111
3 77 102 114
3 74 103 118
3 105 120 90
3 91 108 122
3 109 81 123
3 110 124 97
3 127 111 99
3 131 114 102
3 134 118 103
3 120 105 136
3 106 137 121
3 139 122 108
3 123 141 109
3 124 110 143
3 111 127 128
3 114 131 148
3 118 134 157
3 136 159 120
3 137 106 160
3 122 139 162
3 141 123 165
3 143 166 124
3 169 128 127
3 128 169 144
3 173 148 131
3 156 157 134
3 159 136 183
3 160 184 137
3 187 162 139
3 165 191 141
3 166 143 192
3 193 144 169
3 148 173 197
3 157 156 207
3 183 208 159
3 184 160 209
3 162 187 211
3 191 165 215
3 192 216 166
3 144 193 194
3 220 197 173
3 206 207 156
3 208 183 228
3 209 229 184
3 232 211 187
3 215 235 191
3 216 192 236
3 237 194 193
3 197 220 242
3 207 206 252
3 228 253 208
3 229 209 255
3 211 232 257
3 259 234 212
3 235 215 260
3 236 261 216
3 194 237 238
3 258 242 220
3 251 252 206
3 253 228 254
3 255 276 229
3 280 257 232
3 234 283 258
3 234 259 284
3 212 285 259
3 260 286 235
3 261 236 287
3 288 238 237
3 242 258 283
3 252 251 302
3 254 303 253
3 276 255 285
3 303 254 277
3 257 280 305
3 285 212 276
3 283 234 284
3 286 260 308
3 287 288 261
3 238 288 289
3 317 302 251
3 277 319 303
3 319 305 280
3 308 317 286
3 288 287 289
3 302 317 333
3 319 277 318
3 305 319 318
3 317 308 333
3 72 76 82
3 76 83 72
3 76 72 78
3 73 72 80
3 73 72 84
3 73 85 72
3 86 73 77
3 77 73 86
3 77 73 80
3 77 85 73
3 74 79 78
3 78 74 87
3 74 78 88
3 89 79 74
3 74 79 89
3 79 74 88
3 90 75 80
3 79 75 78
3 79 75 91
3 75 79 92
3 76 93 81
3 81 93 76
3 76 81 94
3 81 76 78
3 82 76 94
3 82 95 72
3 72 83 96
3 93 76 83
3 83 76 93
3 72 98 78
3 80 72 95
3 96 84 72
3 73 86 84
3 84 86 73
3 85 100 72
3 80 77 101
3 80 85 77
3 86 101 77
3 78 94 81
3 78 87 81
3 89 87 74
3 88 78 98
3 79 89 91
3 91 89 79
3 92 79 88
3 75 90 104
3 105 75 90
3 75 85 90
3 106 90 80
3 78 75 94
3 107 91 75
3 85 75 92
3 93 81 87
3 95 94 82
3 82 94 95
3 83 93 96
3 93 83 109
3 98 72 100
3 80 95 106
3 101 84 96
3 84 86 111
3 84 101 86
3 85 112 100
3 113 100 85
3 85 100 113
3 80 101 106
3 106 85 80
3 102 115 86
3 91 87 89
3 88 98 116
3 117 88 98
3 98 88 117
3 89 103 91
3 92 88 116
3 119 92 88
3 88 92 119
3 95 104 90
3 104 94 75
3 75 105 107
3 121 90 105
3 105 90 121
3 90 85 106
3 106 95 90
3 90 121 106
3 106 121 90
3 87 91 107
3 92 112 85
3 92 113 85
3 85 113 92
3 96 93 87
3 94 95 104
3 104 95 94
3 110 109 83
3 100 125 98
3 100 117 98
3 98 117 100
3 128 111 86
3 112 129 100
3 100 113 130
3 130 113 100
3 106 101 121
3 115 132 86
3 133 115 102
3 116 98 125
3 88 117 119
3 119 117 88
3 134 91 103
3 112 92 116
3 92 119 135
3 135 119 92
3 101 107 105
3 105 136 121
3 121 101 105
3 122 91 140
3 113 92 135
3 135 92 113
3 143 109 110
3 125 100 129
3 117 100 130
3 130 100 117
3 144 128 86
3 129 112 145
3 113 130 146
3 131 149 102
3 132 150 86
3 115 151 132
3 133 152 115
3 149 133 102
3 153 125 116
3 116 125 153
3 117 119 155
3 156 91 134
3 116 153 112
3 135 155 119
3 121 136 137
3 140 91 163
3 140 164 122
3 113 146 135
3 141 109 143
3 129 145 125
3 117 155 130
3 150 144 86
3 170 145 112
3 171 146 130
3 174 149 131
3 150 132 175
3 151 175 132
3 176 151 115
3 177 115 152
3 178 152 133
3 149 179 133
3 125 153 180
3 180 153 125
3 181 91 156
3 170 112 153
3 182 155 135
3 136 183 137
3 162 122 164
3 163 91 188
3 140 163 189
3 164 140 190
3 182 135 146
3 191 141 143
3 180 125 145
3 171 130 155
3 144 150 194
3 170 171 145
3 146 171 170
3 173 174 131
3 174 198 149
3 175 199 150
3 175 151 200
3 201 151 176
3 176 115 177
3 152 201 177
3 178 202 152
3 203 178 133
3 179 204 133
3 153 180 155
3 199 91 181
3 156 206 181
3 153 146 170
3 182 153 155
3 137 183 184
3 162 164 212
3 188 91 213
3 163 188 214
3 189 163 214
3 190 140 189
3 164 190 212
3 146 153 182
3 192 191 143
3 145 155 180
3 155 145 171
3 150 218 194
3 214 174 173
3 198 221 149
3 213 198 174
3 199 181 150
3 200 199 175
3 222 200 151
3 222 151 201
3 176 177 201
3 222 201 152
3 202 223 152
3 224 202 178
3 203 225 178
3 204 203 133
3 226 91 199
3 181 206 227
3 183 228 184
3 211 162 212
3 213 91 233
3 188 213 174
3 214 188 174
3 189 214 220
3 190 189 234
3 212 190 234
3 235 191 192
3 194 218 238
3 150 181 218
3 173 220 214
3 149 221 243
3 198 244 221
3 198 213 245
3 246 199 200
3 222 247 200
3 223 222 152
3 223 202 248
3 224 248 202
3 225 224 178
3 249 225 203
3 250 91 226
3 199 246 226
3 206 251 227
3 181 227 218
3 228 254 184
3 184 254 229
3 257 211 212
3 233 91 250
3 213 233 245
3 258 189 220
3 234 189 258
3 236 235 192
3 218 263 238
3 243 221 265
3 266 221 244
3 244 198 267
3 245 268 198
3 246 200 269
3 247 269 200
3 270 247 222
3 222 223 270
3 248 270 223
3 271 248 224
3 225 271 224
3 249 272 225
3 273 249 203
3 226 274 250
3 269 226 246
3 227 251 275
3 218 227 263
3 254 277 229
3 276 257 212
3 233 250 281
3 245 233 282
3 286 235 236
3 238 263 289
3 265 221 292
3 221 266 292
3 244 293 266
3 294 267 198
3 267 295 244
3 268 296 198
3 268 245 297
3 247 226 269
3 298 247 270
3 271 270 248
3 272 271 225
3 266 272 249
3 299 250 274
3 226 300 274
3 275 251 301
3 227 275 263
3 229 277 276
3 305 257 276
3 281 250 299
3 282 233 281
3 245 282 306
3 287 286 236
3 263 301 289
3 292 266 249
3 293 298 266
3 312 293 244
3 294 306 267
3 296 294 198
3 295 313 244
3 314 295 267
3 268 297 296
3 297 245 306
3 300 226 247
3 315 247 298
3 298 270 272
3 272 270 271
3 266 298 272
3 299 274 316
3 316 274 300
3 317 301 251
3 301 263 275
3 277 318 276
3 318 305 276
3 281 299 321
3 322 282 281
3 323 306 282
3 317 286 287
3 301 317 289
3 293 315 298
3 312 315 293
3 326 312 244
3 267 306 327
3 297 306 294
3 296 297 294
3 313 328 244
3 295 329 313
3 314 330 295
3 331 314 267
3 316 300 247
3 315 321 247
3 332 299 316
3 321 299 332
3 335 281 321
3 323 282 322
3 322 281 336
3 306 323 330
3 289 317 287
3 326 315 312
3 328 326 244
3 327 306 341
3 327 342 267
3 313 329 328
3 330 329 295
3 331 330 314
3 342 331 267
3 332 316 247
3 321 332 247
3 335 321 315
3 336 281 335
3 323 322 329
3 315 322 336
3 330 323 329
3 341 306 330
3 328 315 326
3 327 341 342
3 329 315 328
3 342 330 331
3 336 335 315
3 329 322 315
3 341 330 342
3 53 52 51
3 54 51 52
3 53 55 52
3 53 51 56
3 51 54 57
3 52 58 54
3 59 52 55
3 55 53 60
3 61 56 51
3 56 60 53
3 57 54 62
3 51 57 61
3 62 54 58
3 58 52 63
3 59 63 52
3 55 64 59
3 60 65 55
3 61 62 56
3 56 58 60
3 61 57 62
3 58 56 62
3 63 60 58
3 63 59 66
3 67 59 64
3 64 55 65
3 60 63 65
3 67 66 59
3 66 65 63
3 67 64 68
3 65 69 64
3 66 67 70
3 65 66 69
3 71 68 64
3 68 70 67
3 71 64 69
3 70 69 66
3 68 71 72
3 70 68 73
3 69 74 71
3 69 70 75
3 72 71 76
3 72 73 68
3 77 70 73
3 78 71 74
3 79 74 69
3 80 75 70
3 75 79 69
3 76 71 81
3 80 70 77
3 78 81 71
3 76 97 83
3 73 84 99
3 86 77 102
3 89 74 103
3 79 91 108
3 93 109 81
3 110 83 97
3 111 99 84
3 114 102 77
3 118 103 74
3 90 120 105
3 122 108 91
3 123 81 109
3 97 124 110
3 101 96 126
3 99 111 127
3 102 114 131
3 103 118 134
3 136 105 120
3 121 137 106
3 87 107 138
3 108 122 139
3 109 141 123
3 96 87 142
3 143 110 124
3 142 126 96
3 101 126 107
3 128 127 111
3 130 113 147
3 148 131 114
3 119 117 154
3 157 134 118
3 135 119 158
3 120 159 136
3 160 106 137
3 161 138 107
3 138 142 87
3 162 139 122
3 135 158 113
3 165 123 141
3 124 166 143
3 117 130 167
3 126 142 168
3 161 107 126
3 127 128 169
3 144 169 128
3 172 147 113
3 147 167 130
3 131 148 173
3 167 154 117
3 154 158 119
3 134 157 156
3 183 136 159
3 137 184 160
3 138 161 185
3 142 138 186
3 139 162 187
3 172 113 158
3 141 191 165
3 192 143 166
3 186 168 142
3 126 168 161
3 169 144 193
3 147 172 195
3 167 147 196
3 197 173 148
3 167 205 154
3 158 154 205
3 207 156 157
3 159 208 183
3 209 160 184
3 210 185 161
3 185 186 138
3 211 187 162
3 158 205 172
3 215 165 191
3 166 216 192
3 168 186 217
3 210 161 168
3 194 193 144
3 219 195 172
3 195 196 147
3 196 205 167
3 173 197 220
3 156 207 206
3 228 183 208
3 184 229 209
3 185 210 230
3 186 185 231
3 187 211 232
3 219 172 205
3 191 235 215
3 236 192 216
3 231 217 186
3 168 217 210
3 193 194 237
3 195 219 239
3 196 195 240
3 205 196 241
3 242 220 197
3 252 206 207
3 208 253 228
3 255 209 229
3 256 230 210
3 230 231 185
3 257 232 211
3 212 234 259
3 205 241 219
3 260 215 235
3 216 261 236
3 217 231 262
3 256 210 217
3 238 237 194
3 264 239 219
3 239 240 195
3 240 241 196
3 220 242 258
3 206 252 251
3 254 228 253
3 229 276 255
3 256 278 230
3 231 230 279
3 232 257 280
3 258 283 234
3 284 259 234
3 259 285 212
3 264 219 241
3 235 286 260
3 287 236 261
3 279 262 231
3 262 278 217
3 256 217 278
3 237 238 288
3 239 264 290
3 240 239 291
3 240 291 241
3 283 258 242
3 302 251 252
3 253 303 254
3 285 255 276
3 277 254 303
3 304 230 278
3 304 279 230
3 305 280 257
3 276 212 285
3 284 234 283
3 264 241 307
3 308 260 286
3 261 288 287
3 262 279 309
3 278 262 310
3 289 288 238
3 307 290 264
3 290 291 239
3 311 241 291
3 251 302 317
3 303 319 277
3 278 310 304
3 279 304 320
3 280 305 319
3 311 307 241
3 286 317 308
3 289 287 288
3 320 309 279
3 309 310 262
3 290 307 324
3 291 290 325
3 291 325 311
3 333 317 302
3 318 277 319
3 334 304 310
3 334 320 304
3 318 319 305
3 307 311 337
3 333 308 317
3 309 320 338
3 310 309 339
3 337 324 307
3 324 325 290
3 340 311 325
3 310 339 334
3 320 334 343
3 340 337 311
3 343 338 320
3 338 339 309
3 324 337 343
3 325 324 344
3 325 344 340
3 344 334 339
3 344 343 334
3 337 340 338
3 338 343 337
3 339 338 340
3 343 344 324
3 339 340 344
3 200 151 175
3 177 201 152
3 152 202 178
3 151 200 222
3 201 177 176
3 152 201 222
3 152 223 202
3 178 202 224
3 178 225 203
3 221 244 198
3 200 247 222
3 152 222 223
3 178 224 225
3 203 225 249
3 244 221 266
3 269 200 246
3 200 269 247
3 222 247 270
3 270 223 222
3 223 270 248
3 203 249 273
3 266 293 244
3 244 295 267
3 297 245 268
3 270 247 298
3 248 270 271
3 274 300 226
3 306 282 245
3 266 298 293
3 244 293 312
3 267 306 294
3 244 313 295
3 267 295 314
3 296 297 268
3 306 245 297
3 298 247 315
3 272 270 298
3 271 270 272
3 272 298 266
3 316 274 299
3 300 274 316
3 321 299 281
3 282 306 323
3 298 315 293
3 293 315 312
3 244 312 326
3 327 306 267
3 294 306 297
3 294 297 296
3 244 328 313
3 313 329 295
3 295 330 314
3 267 314 331
3 316 299 332
3 332 299 321
3 321 281 335
3 336 281 322
3 330 323 306
3 312 315 326
3 244 326 328
3 341 306 327
3 267 342 327
3 328 329 313
3 295 329 330
3 314 330 331
3 267 331 342
3 335 281 336
3 329 322 323
3 336 322 315
3 329 323 330
3 330 306 341
3 326 315 328
3 342 341 327
3 328 315 329
3 331 330 342
3 315 322 329
3 342 330 341
3 126 96 101
3 138 107 87
3 142 87 96
3 96 126 142
3 107 126 101
3 147 113 130
3 154 117 119
3 158 119 135
3 107 138 161
3 87 142 138
3 113 158 135
3 167 130 117
3 168 142 126
3 126 107 161
3 113 147 172
3 130 167 147
3 117 154 167
3 119 158 154
3 185 161 138
3 186 138 142
3 158 113 172
3 142 168 186
3 161 168 126
3 195 172 147
3 196 147 167
3 154 205 167
3 205 154 158
3 161 185 210
3 138 186 185
3 172 205 158
3 217 186 168
3 168 161 210
3 172 195 219
3 147 196 195
3 167 205 196
3 230 210 185
3 231 185 186
3 205 172 219
3 186 217 231
3 210 217 168
3 239 219 195
3 240 195 196
3 241 196 205
3 210 230 256
3 185 231 230
3 219 241 205
3 262 231 217
3 217 210 256
3 219 239 264
3 195 240 239
3 196 241 240
3 230 278 256
3 279 230 231
3 241 219 264
3 231 262 279
3 217 278 262
3 278 217 256
3 290 264 239
3 291 239 240
3 241 291 240
3 278 230 304
3 230 279 304
3 307 241 264
3 309 279 262
3 310 262 278
3 264 290 307
3 239 291 290
3 291 241 311
3 304 310 278
3 320 304 279
3 241 307 311
3 279 309 320
3 262 310 309
3 324 307 290
3 325 290 291
3 311 325 291
3 310 304 334
3 304 320 334
3 337 311 307
3 338 320 309
3 339 309 310
3 307 324 337
3 290 325 324
3 325 311 340
3 334 339 310
3 343 334 320
3 311 337 340
3 320 338 343
3 309 339 338
3 343 337 324
3 344 324 325
3 340 344 325
3 339 334 344
3 334 343 344
3 338 340 337
3 337 343 338
3 340 338 339
3 324 344 343
3 344 340 339
3 132 151 115
3 115 152 133
3 175 132 150
3 132 175 151
3 115 151 176
3 152 115 177
3 133 152 178
3 133 179 149
3 150 199 175
3 176 151 201
3 177 115 176
3 133 178 203
3 133 204 179
3 150 181 199
3 175 199 200
3 201 151 222
3 133 203 204
3 218 181 150
3 200 199 246
3 226 246 199
3 218 227 181
3 246 226 269
3 263 227 218
3 269 226 247
3 263 275 227
3 247 226 300
3 275 263 301
3 247 300 316
3 247 321 315
3 247 316 332
3 247 332 321
3 315 321 335
3 315 335 336
3 189 163 140
3 190 140 164
3 149 198 174
3 214 188 163
3 214 163 189
3 189 140 190
3 149 221 198
3 174 198 213
3 174 213 188
3 174 188 214
3 243 221 149
3 245 213 198
3 248 202 223
3 202 248 224
3 245 233 213
3 265 221 243
3 267 198 244
3 198 268 245
3 224 248 271
3 224 271 225
3 225 272 249
3 250 274 226
3 281 250 233
3 282 233 245
3 292 221 265
3 292 266 221
3 198 267 294
3 198 296 268
3 225 271 272
3 249 272 266
3 274 250 299
3 299 250 281
3 281 233 282
3 249 266 292
3 198 294 296
3 281 282 322
3 322 282 323
