ply
format ascii 1.0
comment Generated by PyMesh
element vertex 456
property double x
property double y
property double z
element face 1848
property list uchar int vertex_indices
end_header
-0.0469115 -0.0551645 -0.478784
-0.0592231 0.0407392 0.478819
-0.0466216 -0.0551645 0.478814
-0.059513 0.0407392 -0.478782
-0.0515909 0.035263 0.478816
-0.0333907 -0.0551645 0.35911
-0.0518808 0.035263 -0.478784
0.0479379 0.0620362 -0.478815
-0.0406409 -0.0483505 0.478812
0.0421459 0.0538582 0.478786
-0.0201234 -0.0551645 0.359106
-0.0333991 -0.0551645 0.329184
-0.0409307 -0.048348 -0.478787
0.0418561 0.0538582 -0.478812
0.0482278 0.0620362 0.478786
0.0519833 -0.0483505 0.478784
-0.0338847 -0.00170423 0.47881
0.000666603 0.0324646 0.478799
0.0329415 -0.0551645 0.359091
-0.0333907 -0.0620362 0.35911
-0.0201318 -0.0551645 0.329182
-0.0335988 -0.0551645 -0.329166
0.0516915 -0.0483266 -0.478815
-0.0340047 -0.00530543 -0.478789
0.00573249 0.0320204 -0.478802
0.0592231 -0.0551645 -0.478817
0.059513 -0.0551645 0.478782
0.00918179 -0.0351345 0.478797
-0.0326651 0.00718199 0.47881
-0.033436 -0.00528003 0.47881
0.00955282 0.031243 0.478797
-0.0033126 0.0319621 0.478801
0.0462088 -0.0551645 0.359086
0.0064093 -0.0551645 0.359099
0.00640034 -0.0551645 0.329174
-0.0333991 -0.0620362 0.329184
0.0460006 -0.0551645 -0.329189
-0.0336078 -0.0551645 -0.359089
0.0123318 -0.0340284 -0.478804
-0.0337258 0.00366047 -0.478789
-0.0319564 -0.0140373 -0.478789
0.0143204 0.0294282 -0.478804
-0.00323092 0.0323017 -0.478797
0.0340929 -0.00743796 -0.47881
0.0174883 -0.0317479 0.478795
0.00426183 -0.035753 0.478799
-0.0291859 0.0154502 0.47881
-0.0338867 -0.00170423 0.475374
-0.0327637 -0.0106034 0.47881
-0.033436 -0.00528003 0.475374
0.0348334 -0.00208671 0.478788
0.017821 0.0277663 0.478795
0.00955083 0.031243 0.475361
0.00066461 0.0324646 0.475363
-0.00823256 0.031344 0.478803
0.032933 -0.0551645 0.329165
0.0462003 -0.0620362 0.329161
0.0327353 -0.0551645 -0.329184
-0.0335988 -0.0620362 -0.329166
-0.0203405 -0.0551645 -0.359093
0.0202369 -0.0297892 -0.478806
0.00399937 -0.0359851 -0.478802
-0.0311336 0.0122484 -0.478791
-0.0337234 0.00366047 -0.475353
-0.0277172 -0.0219424 -0.478791
-0.0340047 -0.00530543 -0.475353
0.0219441 0.0247014 -0.478806
0.00573498 0.0320204 -0.475366
-0.00363034 0.0322071 -0.478797
-0.00323092 0.0323017 -0.475364
0.0315007 -0.0160259 -0.478808
0.0343738 0.00152794 -0.47881
0.0246349 -0.0263275 0.478793
0.0174883 -0.0317479 0.475359
0.000282129 -0.0362555 0.478799
0.00918179 -0.0351345 0.475361
-0.0236862 0.022537 0.478808
-0.0326651 0.00718199 0.475374
-0.0293771 -0.0189099 0.47881
-0.0327657 -0.0106034 0.475374
0.0336138 -0.0109729 0.478791
0.0337124 0.00681295 0.478791
0.0249059 0.0222641 0.478793
0.017819 0.0277663 0.475359
-0.00331459 0.0319621 0.475366
-0.0165391 0.027957 0.478806
0.0462088 -0.0620362 0.359086
0.0462003 -0.0551645 0.329161
0.0459921 -0.0551645 -0.359115
0.00620063 -0.0551645 -0.329176
-0.0336078 -0.0620362 -0.359089
-0.0203315 -0.0551645 -0.329168
0.0267759 -0.0236496 -0.478808
0.0202389 -0.0297892 -0.47537
0.0123343 -0.0340284 -0.475368
0.00359996 -0.0360792 -0.478799
-0.0264069 0.0198716 -0.478791
-0.0311316 0.0122484 -0.475355
-0.0215771 -0.0284794 -0.478793
-0.0319564 -0.0140373 -0.475353
0.0280862 0.0181644 -0.478808
0.0143229 0.0294282 -0.475368
-0.0119652 0.0302529 -0.478795
-0.00362834 0.0322071 -0.475362
0.0315027 -0.0160259 -0.475372
0.0323254 0.0102598 -0.47881
0.0340949 -0.00743796 -0.475374
0.0301346 -0.0192406 0.478791
0.0246329 -0.0263275 0.475357
-0.00860409 -0.0350359 0.478803
0.00426183 -0.035753 0.475363
-0.0291879 0.0154502 0.475374
-0.0239566 -0.026057 0.478808
-0.0293791 -0.0189099 0.475374
0.0348334 -0.00208671 0.475353
0.0303258 0.0151195 0.478791
0.0343847 0.00148909 0.478791
0.0249059 0.0222641 0.475357
0.00574992 0.0303171 0.475363
0.013906 0.0278539 0.475359
-0.00276726 0.0305856 0.475366
-0.00823456 0.031344 0.475368
0.0327248 -0.0551645 -0.35911
0.0460006 -0.0620362 -0.329189
0.00619216 -0.0551645 -0.359102
0.0267759 -0.0236496 -0.475372
0.00399937 -0.0359851 -0.475366
-0.00536595 -0.0357984 -0.478797
-0.0198699 0.0260137 -0.478793
-0.0264069 0.0198716 -0.475355
-0.0324155 -0.00514656 -0.475353
-0.0321496 0.00337012 -0.475353
-0.0139533 -0.0332062 -0.478795
-0.0277172 -0.0219424 -0.475355
0.0280862 0.0181644 -0.475372
0.0219461 0.0247014 -0.47537
0.0134937 0.0278499 -0.475368
0.00533556 0.0303131 -0.475366
-0.0119628 0.0302529 -0.475359
-0.0114777 0.0286338 -0.475359
0.0343763 0.00152794 -0.475374
0.0301346 -0.0192406 0.475355
0.0120101 -0.0324307 0.475361
0.0195197 -0.0284042 0.475359
-0.0168723 -0.0315567 0.478806
0.000282129 -0.0362555 0.475363
0.003714 -0.0343765 0.475363
-0.0165416 0.027957 0.47537
-0.0236862 0.022537 0.475372
-0.029276 0.0115372 0.475374
-0.0320077 -0.0051361 0.475374
-0.0239586 -0.026057 0.475372
-0.0300619 -0.0134317 0.475374
0.0336138 -0.0109729 0.475355
0.0343827 0.00148909 0.475355
0.0303258 0.0151195 0.475355
0.0337124 0.00681295 0.475355
0.0211498 0.0233637 0.475357
-0.0110628 0.0286403 0.475368
0.0459921 -0.0620362 -0.359115
0.0191139 -0.0284062 -0.47537
0.0253267 -0.0225739 -0.475372
0.0116042 -0.0324352 -0.475368
0.00359996 -0.0360792 -0.475364
-0.0296884 0.0115287 -0.475355
-0.0139514 -0.0332062 -0.475359
-0.0215751 -0.0284794 -0.475357
-0.0304703 -0.0134426 -0.475355
0.0323254 0.0102598 -0.475374
0.0207374 0.0233617 -0.47537
-0.00318162 0.0305791 -0.475364
-0.0198679 0.0260137 -0.475357
0.0322781 -0.00717401 -0.475374
0.0298149 -0.0153301 -0.475372
0.0257326 -0.0225714 0.475357
-0.00860409 -0.0350359 0.475368
-0.0247858 0.0187809 0.475372
-0.0317392 0.00338108 0.475374
-0.0168723 -0.0315567 0.47537
-0.0260354 -0.0209418 0.475372
0.0269821 0.0171509 0.475357
0.0057539 0.0303171 0.492543
-0.00276278 0.0305856 0.492545
0.0139125 0.0278539 0.492539
-0.0110588 0.0286403 0.492548
0.00330811 -0.034381 -0.475364
-0.00536345 -0.0357984 -0.475362
-0.0251982 0.0187725 -0.475355
-0.0321561 0.00337012 -0.492533
-0.0296929 0.0115287 -0.492535
-0.0264438 -0.0209523 -0.475355
-0.032422 -0.00514656 -0.492533
0.0265698 0.0171489 -0.475372
0.0305988 0.00964122 -0.475372
0.0134897 0.0278499 -0.492548
0.00533108 0.0303131 -0.492546
-0.0031861 0.0305791 -0.492541
-0.0189874 0.0246048 -0.475357
-0.0114817 0.0286338 -0.492539
0.0325445 0.00134516 -0.475374
0.032686 -0.00717202 0.475355
0.0302227 -0.0153281 0.475355
0.012016 -0.0324307 0.492541
0.00372048 -0.0343765 0.492543
0.0195262 -0.0284042 0.492539
-0.00480318 -0.0341081 0.475366
-0.018573 0.0246133 0.47537
-0.029272 0.0115372 0.492554
-0.0317347 0.00338108 0.492554
-0.0300554 -0.0134317 0.492554
-0.0320012 -0.0051361 0.492554
-0.020203 -0.0271542 0.47537
-0.0260314 -0.0209418 0.492552
0.0329544 0.00134516 0.475355
0.0211538 0.0233637 0.492537
-0.0185685 0.0246133 0.49255
0.0253202 -0.0225739 -0.492552
0.0191094 -0.0284062 -0.49255
0.0115997 -0.0324352 -0.492548
-0.0252022 0.0187725 -0.492535
-0.0206089 -0.0271631 -0.475357
-0.0133652 -0.0316513 -0.475359
-0.0304743 -0.0134426 -0.492535
0.0265658 0.0171489 -0.492552
0.0207309 0.0233617 -0.49255
-0.0189918 0.0246048 -0.492537
0.0322716 -0.00717401 -0.492552
0.0298104 -0.0153301 -0.492552
0.0302292 -0.0153281 0.492535
-0.00479671 -0.0341081 0.492545
0.0257391 -0.0225714 0.492537
-0.0129593 -0.0316449 0.475368
-0.0247814 0.0187809 0.492552
-0.0201966 -0.0271542 0.49255
0.0310086 0.00964122 0.475355
0.0269866 0.0171509 0.492537
0.0132058 0.0262886 0.492541
0.005477 0.0286229 0.492543
-0.00295402 0.0287902 0.492545
0.0200651 0.0220345 0.492539
-0.0175655 0.0232178 0.49255
0.00330363 -0.034381 -0.492544
-0.00520907 -0.0341145 -0.475362
-0.0305903 -0.0049618 -0.492535
-0.0303393 0.00310617 -0.492535
-0.0280046 0.010835 -0.492535
-0.0264477 -0.0209523 -0.492535
0.0305923 0.00964122 -0.492552
0.03254 0.00134516 -0.492554
0.0197643 0.022043 -0.49255
0.012903 0.0262971 -0.492548
0.0051742 0.0286293 -0.492546
-0.00325234 0.0287992 -0.492541
-0.0178683 0.0232218 -0.492537
0.0329589 0.00134516 0.492535
0.0326924 -0.00717202 0.492535
0.0185232 -0.0270083 0.492539
0.0114085 -0.0308246 0.492541
0.00354866 -0.0326673 0.492543
0.0244073 -0.0214827 0.492537
-0.0129548 -0.0316449 0.492548
-0.0277062 0.010831 0.492552
-0.0300385 0.00310169 0.492554
-0.030292 -0.00496628 0.492554
-0.0284493 -0.0128261 0.492552
-0.0246354 -0.0199408 0.492552
0.0310131 0.00964122 0.492535
0.0255926 0.0161504 0.492537
-0.00259096 0.0288763 0.492545
-0.0104508 0.0270337 0.492548
-0.0234521 0.0176923 0.492552
0.024113 -0.0214742 -0.49255
0.0182269 -0.0269998 -0.492548
0.0283651 -0.014611 -0.492552
0.0111141 -0.0308161 -0.492546
-0.0237524 0.0176962 -0.492537
-0.0133717 -0.0316513 -0.492539
-0.00521305 -0.0341145 -0.492541
-0.0206129 -0.0271631 -0.492537
-0.0287476 -0.0128221 -0.492535
0.0252923 0.0161588 -0.49255
0.0291062 0.00904409 -0.492552
-0.00289376 0.0288828 -0.492544
-0.0107541 0.0270381 -0.492539
0.0306974 -0.00688416 -0.492552
0.0286614 -0.0146214 0.492535
0.0309962 -0.00689462 0.492535
0.00391172 -0.0325811 0.492543
-0.0045198 -0.0324138 0.492545
-0.0122486 -0.0300791 0.492548
-0.0191099 -0.025825 0.49255
0.029407 0.00903563 0.492535
0.0200651 0.0220345 0.490821
0.0132038 0.0262886 0.490823
0.005477 0.0286229 0.490825
-0.00259345 0.0288763 0.490828
-0.00295402 0.0287902 0.490828
-0.0104508 0.0270337 0.49083
-0.0175655 0.0232178 0.490832
0.0036129 -0.0325747 -0.492544
-0.0303368 0.00310617 -0.490817
-0.0280046 0.010835 -0.490817
-0.0237524 0.0176962 -0.490819
-0.0249318 -0.0199368 -0.492535
-0.0305903 -0.0049618 -0.490817
0.0309509 0.00118629 -0.492552
0.0252923 0.0161588 -0.490832
0.012903 0.0262971 -0.49083
0.0051742 0.0286293 -0.490828
-0.00289376 0.0288828 -0.490826
-0.00325234 0.0287992 -0.490824
-0.0107541 0.0270381 -0.490821
-0.0178683 0.0232218 -0.490819
0.0312492 0.00117534 0.492535
0.0244073 -0.0214827 0.490819
0.0114085 -0.0308246 0.490823
0.00354866 -0.0326673 0.490825
-0.0045198 -0.0324138 0.490828
0.0286614 -0.0146214 0.490817
-0.0277062 0.010831 0.490834
-0.0300385 0.00310169 0.490836
-0.030294 -0.00496628 0.490836
-0.0284493 -0.0128261 0.490834
-0.0246354 -0.0199408 0.490834
-0.0191099 -0.025825 0.490832
0.0255906 0.0161504 0.490819
-0.0234521 0.0176923 0.490834
0.024113 -0.0214742 -0.490832
0.0182289 -0.0269998 -0.49083
0.0283651 -0.014611 -0.490834
0.0111141 -0.0308161 -0.490828
0.00325433 -0.0326608 -0.492544
-0.0194042 -0.025821 -0.492537
-0.0125425 -0.0300751 -0.492539
-0.0287456 -0.0128221 -0.490817
0.0291062 0.00904409 -0.490834
0.0309509 0.00118629 -0.490834
0.0197643 0.022043 -0.490832
0.0306999 -0.00688416 -0.490834
0.0309962 -0.00689462 0.490817
0.0312492 0.00117534 0.490817
0.0185232 -0.0270083 0.490821
0.00391172 -0.0325811 0.490825
-0.0122486 -0.0300791 0.49083
0.029407 0.00903563 0.490817
0.0197643 0.0053911 0.490821
0.00896266 0.0168934 0.490823
0.00381062 0.0184502 0.490825
-0.00680872 0.0173895 0.490828
-0.0115529 0.0148466 0.49083
-0.018311 0.00658934 0.490832
0.0036129 -0.0325747 -0.490826
-0.00481364 -0.0324073 -0.492541
-0.0249318 -0.0199368 -0.490817
0.019466 0.00539956 -0.490832
0.00866186 0.0169019 -0.490828
0.00350981 0.0184567 -0.490826
-0.00710952 0.0173959 -0.490824
-0.0118512 0.014853 -0.490821
-0.0186094 0.00659382 -0.490819
0.0208231 -0.00522824 0.490819
0.0164315 -0.0149546 0.490821
0.00776442 -0.0211799 0.490823
0.00276676 -0.0223527 0.490825
-0.0200352 -0.00394185 0.490832
-0.0125793 -0.0178491 0.49083
0.0209929 0.000151401 0.490819
0.0172199 0.0101348 0.490821
0.0135365 0.0140587 0.490821
-0.00156902 0.0186196 0.490828
-0.00181156 0.0185618 0.490828
-0.0154738 0.0111637 0.490832
-0.0198679 0.00143779 0.490832
0.0205267 -0.00521778 -0.490832
0.0161352 -0.0149457 -0.49083
0.00747009 -0.0211734 -0.490828
0.00325433 -0.0326608 -0.490826
-0.020334 -0.00393786 -0.490819
-0.0125425 -0.0300751 -0.490821
-0.00481364 -0.0324073 -0.490824
-0.0194042 -0.025821 -0.490819
0.0206946 0.000159868 -0.490832
0.0169211 0.0101437 -0.49083
0.0132362 0.0140671 -0.49083
-0.00186933 0.018626 -0.490826
-0.00210788 0.0185683 -0.490826
-0.0157746 0.0111682 -0.490821
-0.0201642 0.00144178 -0.490819
0.0192682 -0.0103803 0.490821
0.0125081 -0.0186375 0.490823
0.00252423 -0.0224105 0.490825
-0.00800696 -0.0206839 0.49083
-0.0188071 -0.00918204 0.490832
-0.0162642 -0.0139257 0.490832
0.0197623 0.0053911 0.489103
0.0172199 0.0101348 0.489103
0.0135365 0.0140587 0.489103
0.00896266 0.0168934 0.489105
0.00381062 0.0184502 0.489107
-0.00181156 0.0185618 0.489109
-0.00680872 0.0173895 0.489109
-0.0115529 0.0148466 0.489111
-0.018311 0.00658934 0.489114
-0.0198679 0.00143779 0.489114
0.0189699 -0.0103718 -0.490832
0.0122118 -0.018629 -0.49083
0.00246845 -0.0223463 -0.490826
0.0206946 0.000159868 -0.489114
0.019466 0.00539956 -0.489114
0.00866385 0.0169019 -0.48911
0.00350981 0.0184567 -0.489107
-0.00186933 0.018626 -0.489107
-0.00710753 0.0173959 -0.489105
-0.0118512 0.014853 -0.489103
-0.0157746 0.0111682 -0.489103
-0.0186094 0.00659382 -0.489101
0.0209929 0.000151401 0.489101
0.0208231 -0.00522824 0.489101
0.0192663 -0.0103803 0.489103
0.0125081 -0.0186375 0.489105
0.00776442 -0.0211799 0.489105
-0.00285292 -0.0222407 0.490828
0.00252423 -0.0224105 0.489107
-0.0188071 -0.00918204 0.489114
-0.0125813 -0.0178491 0.489111
-0.00156902 0.0186196 0.489109
-0.0154763 0.0111637 0.489114
-0.0200377 -0.00394185 0.489114
0.0205267 -0.00521778 -0.489114
0.0189719 -0.0103718 -0.489114
0.0161352 -0.0149457 -0.489112
0.0122138 -0.018629 -0.489112
0.00747009 -0.0211734 -0.48911
-0.0191034 -0.00917756 -0.490819
-0.0201642 0.00144178 -0.489101
-0.0128756 -0.0178427 -0.490821
-0.00830129 -0.0206799 -0.490824
0.0169211 0.0101437 -0.489112
0.0132382 0.0140671 -0.489112
-0.00210788 0.0185683 -0.489107
0.0164315 -0.0149546 0.489103
0.00276676 -0.0223527 0.489107
-0.00285541 -0.0222407 0.489109
-0.00800696 -0.0206839 0.489111
-0.0162642 -0.0139257 0.489114
0.00247044 -0.0223463 -0.489107
0.0022299 -0.022402 -0.490826
-0.0165605 -0.0139212 -0.490821
-0.020334 -0.00393786 -0.489101
-0.00314925 -0.0222342 -0.490824
-0.00314925 -0.0222342 -0.489105
-0.00830129 -0.0206799 -0.489105
-0.0128756 -0.0178427 -0.489103
-0.0165605 -0.0139212 -0.489103
-0.0191034 -0.00917756 -0.489101
0.0022299 -0.022402 -0.489107
3 0 1 2
3 1 0 3
3 4 2 1
3 2 5 0
3 0 6 3
3 7 1 3
3 8 2 4
3 1 9 4
3 5 2 10
3 0 5 11
3 0 12 6
3 13 3 6
3 1 7 14
3 13 7 3
3 15 2 8
3 4 16 8
3 14 9 1
3 9 17 4
3 10 2 18
3 10 19 5
3 20 5 10
3 10 5 20
3 19 11 5
3 5 20 11
3 11 20 5
3 0 11 21
3 0 22 12
3 23 6 12
3 24 13 6
3 25 14 7
3 22 7 13
3 2 15 26
3 27 15 8
3 4 28 16
3 29 8 16
3 14 15 9
3 17 9 30
3 4 17 31
3 2 32 18
3 10 18 33
3 33 19 10
3 10 34 20
3 20 34 10
3 11 19 35
3 20 36 11
3 35 20 11
3 21 11 36
3 0 21 37
3 22 0 25
3 22 38 12
3 39 6 23
3 12 40 23
3 41 13 24
3 24 6 42
3 14 25 26
3 7 22 25
3 43 22 13
3 15 14 26
3 26 32 2
3 44 15 27
3 27 8 45
3 4 46 28
3 48 8 29
3 15 50 9
3 30 9 51
3 4 31 54
3 32 19 18
3 32 55 18
3 18 55 32
3 18 19 33
3 55 33 18
3 18 33 55
3 34 10 33
3 33 10 34
3 34 36 20
3 35 34 20
3 19 56 35
3 21 36 57
3 58 37 21
3 21 59 37
3 37 59 21
3 0 37 25
3 38 22 60
3 12 38 61
3 62 6 39
3 12 64 40
3 66 13 41
3 42 6 68
3 32 26 25
3 70 22 43
3 43 13 71
3 72 15 44
3 45 8 74
3 4 76 46
3 78 8 48
3 50 15 80
3 81 9 50
3 51 9 82
3 4 54 85
3 19 32 86
3 55 32 87
3 87 32 55
3 33 55 34
3 34 55 33
3 34 25 36
3 35 55 34
3 56 19 86
3 56 55 35
3 88 57 36
3 36 57 88
3 36 58 57
3 21 57 89
3 37 58 90
3 91 58 21
3 59 21 91
3 91 21 59
3 59 25 37
3 90 59 37
3 60 22 92
3 12 61 95
3 96 6 62
3 12 98 64
3 100 13 66
3 68 6 102
3 32 25 87
3 92 22 70
3 13 105 71
3 107 15 72
3 74 8 109
3 4 85 76
3 77 79 47
3 47 79 49
3 112 8 78
3 80 15 107
3 115 9 81
3 81 50 116
3 82 9 115
3 52 118 53
3 83 119 52
3 53 120 84
3 32 56 86
3 56 32 87
3 87 25 55
3 55 56 87
3 55 25 34
3 36 25 88
3 57 88 122
3 122 88 57
3 36 88 123
3 58 36 123
3 57 58 89
3 122 89 57
3 57 89 122
3 21 89 91
3 58 123 90
3 89 58 91
3 91 124 59
3 59 124 91
3 124 25 59
3 90 124 59
3 12 95 127
3 128 6 96
3 65 130 63
3 131 97 63
3 12 132 98
3 99 130 65
3 105 13 100
3 136 101 67
3 137 67 69
3 102 6 128
3 139 69 103
3 142 73 75
3 143 108 73
3 109 8 144
3 146 75 110
3 111 149 77
3 150 79 77
3 144 8 112
3 152 113 79
3 117 157 83
3 52 119 118
3 53 118 120
3 83 157 119
3 84 120 158
3 84 158 121
3 88 25 122
3 122 159 88
3 159 123 88
3 89 122 124
3 124 122 89
3 124 91 89
3 89 91 124
3 159 90 123
3 122 25 124
3 90 122 124
3 93 160 94
3 125 161 93
3 94 162 126
3 12 127 132
3 164 129 97
3 131 63 130
3 164 97 131
3 133 167 99
3 99 167 130
3 169 135 101
3 169 101 136
3 136 67 137
3 137 69 170
3 139 103 138
3 170 69 139
3 106 172 104
3 104 173 125
3 168 106 140
3 174 141 108
3 143 73 142
3 142 75 146
3 174 108 143
3 146 110 145
3 148 176 111
3 111 176 149
3 77 149 177
3 152 79 150
3 77 177 150
3 179 151 113
3 179 113 152
3 153 154 114
3 117 180 157
3 121 158 147
3 159 122 90
3 93 161 160
3 94 160 162
3 125 173 161
3 126 162 185
3 126 185 163
3 187 129 164
3 166 190 133
3 133 190 167
3 192 134 135
3 193 168 134
3 192 135 169
3 197 138 171
3 139 138 197
3 172 106 199
3 104 172 173
3 106 168 199
3 200 153 141
3 201 141 174
3 205 145 175
3 146 145 205
3 147 206 148
3 148 206 176
3 211 178 151
3 211 151 179
3 154 153 156
3 156 213 155
3 155 180 117
3 147 158 206
3 163 185 186
3 187 171 129
3 165 220 166
3 186 221 165
3 166 220 190
3 193 134 192
3 199 168 193
3 197 171 187
3 153 200 213
3 200 141 201
3 231 175 178
3 205 175 231
3 231 178 211
3 156 153 213
3 155 213 234
3 155 234 180
3 183 236 181
3 181 237 182
3 182 238 184
3 214 239 183
3 184 240 215
3 186 185 242
3 191 243 188
3 244 189 188
3 245 219 189
3 165 221 220
3 186 242 221
3 222 243 191
3 249 224 194
3 250 194 195
3 251 195 196
3 252 196 198
3 253 198 225
3 256 204 202
3 257 202 203
3 258 203 229
3 259 230 204
3 232 261 207
3 207 262 208
3 263 210 208
3 263 209 210
3 264 212 209
3 265 233 212
3 235 267 214
3 183 239 236
3 181 236 237
3 182 237 268
3 182 268 238
3 184 238 269
3 214 267 239
3 184 269 240
3 215 240 270
3 216 271 217
3 217 272 218
3 227 273 216
3 218 274 241
3 244 188 243
3 245 189 244
3 275 219 245
3 246 279 222
3 222 279 243
3 280 223 224
3 281 247 223
3 280 224 249
3 249 194 250
3 250 195 251
3 251 196 282
3 282 196 252
3 252 198 283
3 275 225 219
3 283 198 253
3 253 225 275
3 247 226 248
3 226 284 227
3 285 228 230
3 286 255 228
3 259 204 256
3 256 202 257
3 257 203 287
3 287 203 258
3 258 229 288
3 285 230 259
3 289 229 260
3 215 270 232
3 232 270 261
3 207 261 262
3 208 262 263
3 264 209 263
3 265 212 264
3 290 233 265
3 235 291 267
3 216 273 271
3 217 271 272
3 218 272 274
3 227 284 273
3 241 274 299
3 278 303 246
3 246 303 279
3 281 223 280
3 305 247 281
3 226 247 305
3 284 226 305
3 255 266 254
3 286 228 285
3 255 286 313
3 288 229 289
3 290 260 233
3 289 260 290
3 266 291 235
3 241 299 331
3 241 331 277
3 276 332 278
3 277 333 276
3 278 332 303
3 266 255 313
3 266 313 291
3 292 345 293
3 293 346 294
3 294 347 295
3 295 348 296
3 296 348 297
3 325 314 292
3 297 349 298
3 298 350 326
3 277 331 352
3 334 300 304
3 334 301 300
3 353 302 301
3 276 333 332
3 277 352 333
3 327 306 337
3 329 335 306
3 354 337 307
3 355 307 308
3 356 308 309
3 357 309 310
3 357 310 311
3 358 311 312
3 359 312 302
3 360 314 341
3 325 318 314
3 361 341 315
3 362 315 342
3 363 342 316
3 363 316 317
3 344 339 318
3 326 323 319
3 319 322 320
3 320 322 321
3 319 323 322
3 364 324 323
3 365 343 324
3 344 318 325
3 292 366 345
3 293 345 367
3 293 368 346
3 294 346 347
3 295 347 369
3 295 370 348
3 297 348 349
3 292 314 366
3 298 349 371
3 298 371 350
3 326 350 372
3 329 306 327
3 327 373 328
3 328 374 330
3 338 335 329
3 330 375 351
3 353 301 334
3 353 377 302
3 335 338 336
3 327 337 381
3 381 337 354
3 354 307 382
3 383 307 355
3 355 308 356
3 356 309 384
3 385 309 357
3 357 311 358
3 358 312 386
3 386 312 359
3 359 302 387
3 339 344 340
3 314 360 366
3 360 341 388
3 388 341 361
3 361 315 389
3 389 315 362
3 362 342 363
3 363 317 390
3 391 317 343
3 364 323 326
3 392 324 364
3 391 343 365
3 365 324 393
3 293 367 368
3 295 369 370
3 326 372 364
3 373 327 381
3 328 373 404
3 328 404 374
3 330 374 405
3 330 405 375
3 351 375 406
3 351 406 376
3 380 377 353
3 387 302 377
3 382 307 383
3 384 309 385
3 390 317 421
3 421 317 391
3 393 324 392
3 376 406 379
3 380 433 377
3 378 435 380
3 379 436 378
3 416 417 394
3 395 394 418
3 396 395 440
3 397 396 419
3 398 397 420
3 425 398 441
3 400 399 442
3 399 425 442
3 401 400 443
3 426 401 424
3 402 426 444
3 403 402 423
3 427 403 423
3 379 406 446
3 380 447 433
3 378 436 435
3 380 435 447
3 379 449 436
3 407 408 428
3 437 429 408
3 409 431 438
3 410 432 409
3 411 445 410
3 439 450 411
3 412 450 439
3 413 451 412
3 414 452 413
3 415 453 414
3 434 454 415
3 418 394 417
3 440 395 418
3 419 396 440
3 420 397 419
3 441 398 420
3 422 425 441
3 442 425 422
3 423 402 444
3 424 401 443
3 444 426 424
3 443 400 442
3 429 428 408
3 430 429 437
3 431 430 438
3 432 431 409
3 445 432 410
3 379 446 449
3 448 454 434
3 438 430 437
3 455 445 411
3 450 455 411
3 451 450 412
3 452 451 413
3 453 452 414
3 454 453 415
3 28 47 16
3 16 49 29
3 52 17 30
3 53 31 17
3 23 63 39
3 40 65 23
3 67 41 24
3 69 24 42
3 27 73 44
3 45 75 27
3 46 77 28
3 47 28 77
3 49 16 47
3 29 79 48
3 79 29 49
3 83 30 51
3 17 52 53
3 30 83 52
3 31 53 84
3 84 54 31
3 93 38 60
3 94 61 38
3 39 97 62
3 63 23 65
3 97 39 63
3 64 99 40
3 65 40 99
3 101 66 41
3 41 67 101
3 24 69 67
3 103 42 68
3 42 103 69
3 43 104 70
3 71 106 43
3 44 108 72
3 73 27 75
3 108 44 73
3 74 110 45
3 75 45 110
3 76 111 46
3 77 46 111
3 48 113 78
3 113 48 79
3 80 114 50
3 117 51 82
3 51 117 83
3 54 84 121
3 121 85 54
3 125 60 92
3 38 93 94
3 60 125 93
3 61 94 126
3 126 95 61
3 62 129 96
3 129 62 97
3 98 133 64
3 99 64 133
3 66 134 100
3 66 101 135
3 138 68 102
3 68 138 103
3 70 125 92
3 104 43 106
3 125 70 104
3 105 140 71
3 106 71 140
3 72 141 107
3 141 72 108
3 109 145 74
3 110 74 145
3 147 76 85
3 111 76 148
3 78 151 112
3 151 78 113
3 107 153 80
3 114 80 153
3 154 50 114
3 81 155 115
3 50 154 116
3 116 156 81
3 115 117 82
3 85 121 147
3 95 126 163
3 163 127 95
3 129 128 96
3 165 98 132
3 133 98 166
3 100 168 105
3 134 66 135
3 168 100 134
3 171 102 128
3 102 171 138
3 140 105 168
3 153 107 141
3 144 175 109
3 145 109 175
3 76 147 148
3 112 178 144
3 178 112 151
3 155 81 156
3 117 115 155
3 156 116 154
3 119 181 118
3 118 182 120
3 157 183 119
3 120 184 158
3 127 163 186
3 186 132 127
3 128 129 171
3 130 188 131
3 131 189 164
3 98 165 166
3 132 186 165
3 167 191 130
3 194 169 136
3 195 136 137
3 196 137 170
3 198 170 139
3 202 143 142
3 203 142 146
3 204 174 143
3 175 144 178
3 176 207 149
3 149 208 177
3 150 209 152
3 177 210 150
3 152 212 179
3 180 214 157
3 181 119 183
3 182 118 181
3 184 120 182
3 183 157 214
3 215 158 184
3 216 160 161
3 217 162 160
3 173 216 161
3 218 185 162
3 164 219 187
3 188 130 191
3 189 131 188
3 219 164 189
3 190 222 167
3 191 167 222
3 169 223 192
3 169 194 224
3 136 195 194
3 137 196 195
3 170 198 196
3 225 139 197
3 139 225 198
3 199 226 172
3 172 227 173
3 174 228 201
3 143 202 204
3 142 203 202
3 146 229 203
3 174 204 230
3 229 146 205
3 206 232 176
3 207 176 232
3 208 149 207
3 210 177 208
3 209 150 210
3 212 152 209
3 179 233 211
3 233 179 212
3 214 180 235
3 158 215 206
3 160 216 217
3 162 217 218
3 216 173 227
3 185 218 241
3 219 197 187
3 220 246 190
3 222 190 246
3 192 247 193
3 193 248 199
3 223 169 224
3 247 192 223
3 197 219 225
3 226 199 248
3 227 172 226
3 200 254 213
3 201 255 200
3 228 174 230
3 255 201 228
3 260 205 231
3 205 260 229
3 232 206 215
3 233 231 211
3 213 266 234
3 234 235 180
3 241 242 185
3 276 220 221
3 277 221 242
3 246 220 278
3 248 193 247
3 254 200 255
3 266 213 254
3 231 233 260
3 235 234 266
3 292 236 239
3 293 237 236
3 294 268 237
3 295 238 268
3 296 269 238
3 267 292 239
3 297 240 269
3 298 270 240
3 242 241 277
3 243 300 244
3 244 301 245
3 245 302 275
3 220 276 278
3 221 277 276
3 279 304 243
3 249 306 280
3 307 249 250
3 308 250 251
3 309 251 282
3 310 282 252
3 311 252 283
3 312 283 253
3 302 253 275
3 256 314 259
3 315 256 257
3 287 315 257
3 316 287 258
3 317 258 288
3 259 318 285
3 270 319 261
3 261 320 262
3 262 321 263
3 263 322 264
3 264 323 265
3 265 324 290
3 291 325 267
3 236 292 293
3 237 293 294
3 268 294 295
3 238 295 296
3 269 296 297
3 292 267 325
3 240 297 298
3 270 298 326
3 273 327 271
3 327 272 271
3 328 274 272
3 284 329 273
3 330 299 274
3 300 243 304
3 301 244 300
3 302 245 301
3 303 334 279
3 304 279 334
3 280 335 281
3 281 336 305
3 306 249 337
3 335 280 306
3 249 307 337
3 250 308 307
3 251 309 308
3 282 310 309
3 252 311 310
3 283 312 311
3 253 302 312
3 305 338 284
3 285 339 286
3 286 340 313
3 314 256 341
3 318 259 314
3 256 315 341
3 315 287 342
3 287 316 342
3 258 317 316
3 289 317 288
3 339 285 318
3 290 343 289
3 319 270 326
3 320 261 319
3 321 262 320
3 322 263 321
3 323 264 322
3 324 265 323
3 343 290 324
3 325 291 344
3 327 273 329
3 272 327 328
3 274 328 330
3 329 284 338
3 299 330 351
3 351 331 299
3 332 353 303
3 334 303 353
3 336 281 335
3 338 305 336
3 340 286 339
3 344 313 340
3 317 289 343
3 313 344 291
3 331 351 376
3 376 352 331
3 378 332 333
3 379 333 352
3 353 332 380
3 366 394 345
3 345 395 367
3 396 346 368
3 397 347 346
3 398 369 347
3 399 348 370
3 400 349 348
3 401 371 349
3 371 402 350
3 350 403 372
3 352 376 379
3 332 378 380
3 333 379 378
3 354 407 381
3 382 408 354
3 409 383 355
3 410 355 356
3 411 356 384
3 412 385 357
3 413 357 358
3 414 358 386
3 359 414 386
3 387 415 359
3 360 416 366
3 388 417 360
3 361 418 388
3 419 361 389
3 362 419 389
3 363 420 362
3 422 363 390
3 364 423 392
3 424 391 365
3 393 424 365
3 394 366 416
3 395 345 394
3 396 367 395
3 367 396 368
3 346 396 397
3 347 397 398
3 369 398 425
3 425 370 369
3 348 399 400
3 370 425 399
3 349 400 401
3 371 401 426
3 402 371 426
3 403 350 402
3 427 372 403
3 372 427 364
3 381 428 373
3 373 429 404
3 404 430 374
3 430 405 374
3 431 375 405
3 432 406 375
3 377 434 387
3 407 354 408
3 428 381 407
3 383 437 382
3 408 382 437
3 383 409 438
3 355 410 409
3 356 411 410
3 439 384 385
3 384 439 411
3 385 412 439
3 357 413 412
3 358 414 413
3 414 359 415
3 415 387 434
3 416 360 417
3 417 388 418
3 418 361 440
3 361 419 440
3 419 362 420
3 420 363 441
3 442 390 421
3 363 422 441
3 390 442 422
3 443 421 391
3 392 444 393
3 423 364 427
3 444 392 423
3 391 424 443
3 424 393 444
3 429 373 428
3 430 404 429
3 405 430 431
3 375 431 432
3 406 432 445
3 433 448 377
3 434 377 448
3 437 383 438
3 421 443 442
3 445 446 406
3 447 454 433
3 448 433 454
3 451 435 436
3 435 453 447
3 450 436 449
3 446 445 455
3 455 449 446
3 454 447 453
3 435 451 452
3 436 450 451
3 453 435 452
3 449 455 450
3 2 1 0
3 3 0 1
3 1 2 4
3 0 5 2
3 3 6 0
3 3 1 7
3 4 2 8
3 4 9 1
3 10 2 5
3 11 5 0
3 6 12 0
3 6 3 13
3 14 7 1
3 3 7 13
3 8 2 15
3 1 9 14
3 18 2 10
3 5 19 10
3 5 11 19
3 21 11 0
3 12 22 0
3 13 7 22
3 26 15 2
3 9 15 14
3 18 32 2
3 33 18 10
3 10 19 33
3 35 19 11
3 11 36 20
3 11 20 35
3 36 11 21
3 37 21 0
3 25 0 22
3 25 22 7
3 26 14 15
3 2 32 26
3 18 19 32
3 33 19 18
3 20 36 34
3 20 34 35
3 35 56 19
3 57 36 21
3 21 37 58
3 25 37 0
3 25 26 32
3 86 32 19
3 36 25 34
3 34 55 35
3 86 19 56
3 35 55 56
3 57 58 36
3 89 57 21
3 90 58 37
3 21 58 91
3 37 25 59
3 37 59 90
3 87 25 32
3 86 56 32
3 87 32 56
3 55 25 87
3 87 56 55
3 34 25 55
3 88 25 36
3 123 88 36
3 123 36 58
3 89 58 57
3 91 89 21
3 90 123 58
3 91 58 89
3 59 25 124
3 59 124 90
3 122 25 88
3 88 159 122
3 88 123 159
3 123 90 159
3 124 25 122
3 124 122 90
3 90 122 159
3 8 16 4
3 4 17 9
3 12 6 23
3 6 13 24
3 8 15 27
3 16 28 4
3 16 8 29
3 30 9 17
3 31 17 4
3 12 38 22
3 23 6 39
3 23 40 12
3 24 13 41
3 42 6 24
3 13 22 43
3 27 15 44
3 45 8 27
3 28 46 4
3 29 8 48
3 9 50 15
3 51 9 30
3 54 31 4
3 60 22 38
3 61 38 12
3 39 6 62
3 40 64 12
3 41 13 66
3 68 6 42
3 43 22 70
3 71 13 43
3 44 15 72
3 74 8 45
3 46 76 4
3 48 8 78
3 80 15 50
3 50 9 81
3 82 9 51
3 85 54 4
3 92 22 60
3 95 61 12
3 62 6 96
3 64 98 12
3 66 13 100
3 102 6 68
3 70 22 92
3 71 105 13
3 72 15 107
3 109 8 74
3 76 85 4
3 78 8 112
3 107 15 80
3 81 9 115
3 116 50 81
3 115 9 82
3 127 95 12
3 96 6 128
3 98 132 12
3 100 13 105
3 128 6 102
3 144 8 109
3 112 8 144
3 132 127 12
3 181 236 183
3 182 237 181
3 184 238 182
3 183 239 214
3 215 240 184
3 188 243 191
3 188 189 244
3 189 219 245
3 191 243 222
3 194 224 249
3 195 194 250
3 196 195 251
3 198 196 252
3 225 198 253
3 202 204 256
3 203 202 257
3 229 203 258
3 204 230 259
3 207 261 232
3 208 262 207
3 208 210 263
3 210 209 263
3 209 212 264
3 212 233 265
3 214 267 235
3 236 239 183
3 237 236 181
3 268 237 182
3 238 268 182
3 269 238 184
3 239 267 214
3 240 269 184
3 270 240 215
3 217 271 216
3 218 272 217
3 216 273 227
3 241 274 218
3 243 188 244
3 244 189 245
3 245 219 275
3 222 279 246
3 243 279 222
3 224 223 280
3 223 247 281
3 249 224 280
3 250 194 249
3 251 195 250
3 282 196 251
3 252 196 282
3 283 198 252
3 219 225 275
3 253 198 283
3 275 225 253
3 248 226 247
3 227 284 226
3 230 228 285
3 228 255 286
3 256 204 259
3 257 202 256
3 287 203 257
3 258 203 287
3 288 229 258
3 259 230 285
3 260 229 289
3 232 270 215
3 261 270 232
3 262 261 207
3 263 262 208
3 263 209 264
3 264 212 265
3 265 233 290
3 267 291 235
3 271 273 216
3 272 271 217
3 274 272 218
3 273 284 227
3 299 274 241
3 246 303 278
3 279 303 246
3 280 223 281
3 281 247 305
3 305 247 226
3 305 226 284
3 254 266 255
3 285 228 286
3 313 286 255
3 289 229 288
3 233 260 290
3 290 260 289
3 235 291 266
3 331 299 241
3 277 331 241
3 278 332 276
3 276 333 277
3 303 332 278
3 313 255 266
3 291 313 266
3 352 331 277
3 332 333 276
3 333 352 277
3 394 417 416
3 418 394 395
3 440 395 396
3 419 396 397
3 420 397 398
3 441 398 425
3 442 399 400
3 442 425 399
3 443 400 401
3 424 401 426
3 444 426 402
3 423 402 403
3 423 403 427
3 428 408 407
3 408 429 437
3 438 431 409
3 409 432 410
3 410 445 411
3 411 450 439
3 439 450 412
3 412 451 413
3 413 452 414
3 414 453 415
3 415 454 434
3 417 394 418
3 418 395 440
3 440 396 419
3 419 397 420
3 420 398 441
3 441 425 422
3 422 425 442
3 444 402 423
3 443 401 424
3 424 426 444
3 442 400 443
3 408 428 429
3 437 429 430
3 438 430 431
3 409 431 432
3 410 432 445
3 434 454 448
3 437 430 438
3 411 445 455
3 411 455 450
3 412 450 451
3 413 451 452
3 414 452 453
3 415 453 454
3 118 181 119
3 120 182 118
3 119 183 157
3 158 184 120
3 131 188 130
3 164 189 131
3 130 191 167
3 136 169 194
3 137 136 195
3 170 137 196
3 139 170 198
3 142 143 202
3 146 142 203
3 143 174 204
3 149 207 176
3 177 208 149
3 152 209 150
3 150 210 177
3 179 212 152
3 157 214 180
3 183 119 181
3 181 118 182
3 182 120 184
3 214 157 183
3 184 158 215
3 161 160 216
3 160 162 217
3 161 216 173
3 162 185 218
3 187 219 164
3 191 130 188
3 188 131 189
3 189 164 219
3 167 222 190
3 222 167 191
3 192 223 169
3 224 194 169
3 194 195 136
3 195 196 137
3 196 198 170
3 197 139 225
3 198 225 139
3 172 226 199
3 173 227 172
3 201 228 174
3 204 202 143
3 202 203 142
3 203 229 146
3 230 204 174
3 205 146 229
3 176 232 206
3 232 176 207
3 207 149 208
3 208 177 210
3 210 150 209
3 209 152 212
3 211 233 179
3 212 179 233
3 235 180 214
3 206 215 158
3 217 216 160
3 218 217 162
3 227 173 216
3 241 218 185
3 187 197 219
3 190 246 220
3 246 190 222
3 193 247 192
3 199 248 193
3 224 169 223
3 223 192 247
3 225 219 197
3 248 199 226
3 226 172 227
3 213 254 200
3 200 255 201
3 230 174 228
3 228 201 255
3 231 205 260
3 229 260 205
3 215 206 232
3 211 231 233
3 234 266 213
3 180 235 234
3 185 242 241
3 221 220 276
3 242 221 277
3 278 220 246
3 247 193 248
3 255 200 254
3 254 213 266
3 260 233 231
3 266 234 235
3 239 236 292
3 236 237 293
3 237 268 294
3 268 238 295
3 238 269 296
3 239 292 267
3 269 240 297
3 240 270 298
3 277 241 242
3 244 300 243
3 245 301 244
3 275 302 245
3 278 276 220
3 276 277 221
3 243 304 279
3 280 306 249
3 250 249 307
3 251 250 308
3 282 251 309
3 252 282 310
3 283 252 311
3 253 283 312
3 275 253 302
3 259 314 256
3 257 256 315
3 257 315 287
3 258 287 316
3 288 258 317
3 285 318 259
3 261 319 270
3 262 320 261
3 263 321 262
3 264 322 263
3 265 323 264
3 290 324 265
3 267 325 291
3 293 292 236
3 294 293 237
3 295 294 268
3 296 295 238
3 297 296 269
3 325 267 292
3 298 297 240
3 326 298 270
3 271 327 273
3 271 272 327
3 272 274 328
3 273 329 284
3 274 299 330
3 304 243 300
3 300 244 301
3 301 245 302
3 279 334 303
3 334 279 304
3 281 335 280
3 305 336 281
3 337 249 306
3 306 280 335
3 337 307 249
3 307 308 250
3 308 309 251
3 309 310 282
3 310 311 252
3 311 312 283
3 312 302 253
3 284 338 305
3 286 339 285
3 313 340 286
3 341 256 314
3 314 259 318
3 341 315 256
3 342 287 315
3 342 316 287
3 316 317 258
3 288 317 289
3 318 285 339
3 289 343 290
3 326 270 319
3 319 261 320
3 320 262 321
3 321 263 322
3 322 264 323
3 323 265 324
3 324 290 343
3 344 291 325
3 329 273 327
3 328 327 272
3 330 328 274
3 338 284 329
3 351 330 299
3 299 331 351
3 303 353 332
3 353 303 334
3 335 281 336
3 336 305 338
3 339 286 340
3 340 313 344
3 343 289 317
3 291 344 313
3 376 351 331
3 331 352 376
3 333 332 378
3 352 333 379
3 380 332 353
3 379 376 352
3 380 378 332
3 378 379 333
3 7 14 25
3 26 25 14
3 47 79 77
3 49 79 47
3 53 118 52
3 52 119 83
3 84 120 53
3 63 130 65
3 63 97 131
3 65 130 99
3 67 101 136
3 69 67 137
3 103 69 139
3 75 73 142
3 73 108 143
3 110 75 146
3 77 149 111
3 77 79 150
3 79 113 152
3 83 157 117
3 118 119 52
3 120 118 53
3 119 157 83
3 158 120 84
3 121 158 84
3 94 160 93
3 93 161 125
3 126 162 94
3 97 129 164
3 130 63 131
3 131 97 164
3 99 167 133
3 130 167 99
3 101 135 169
3 136 101 169
3 137 67 136
3 170 69 137
3 138 103 139
3 139 69 170
3 104 172 106
3 125 173 104
3 140 106 168
3 108 141 174
3 142 73 143
3 146 75 142
3 143 108 174
3 145 110 146
3 111 176 148
3 149 176 111
3 177 149 77
3 150 79 152
3 150 177 77
3 113 151 179
3 152 113 179
3 114 154 153
3 157 180 117
3 147 158 121
3 160 161 93
3 162 160 94
3 161 173 125
3 185 162 126
3 163 185 126
3 164 129 187
3 133 190 166
3 167 190 133
3 135 134 192
3 134 168 193
3 169 135 192
3 171 138 197
3 197 138 139
3 199 106 172
3 173 172 104
3 199 168 106
3 141 153 200
3 174 141 201
3 175 145 205
3 205 145 146
3 148 206 147
3 176 206 148
3 151 178 211
3 179 151 211
3 156 153 154
3 155 213 156
3 117 180 155
3 206 158 147
3 186 185 163
3 129 171 187
3 166 220 165
3 165 221 186
3 190 220 166
3 192 134 193
3 193 168 199
3 187 171 197
3 213 200 153
3 201 141 200
3 178 175 231
3 231 175 205
3 211 178 231
3 213 153 156
3 234 213 155
3 180 234 155
3 242 185 186
3 220 221 165
3 221 242 186
3 16 47 28
3 29 49 16
3 30 17 52
3 17 31 53
3 39 63 23
3 23 65 40
3 24 41 67
3 42 24 69
3 44 73 27
3 27 75 45
3 28 77 46
3 77 28 47
3 47 16 49
3 48 79 29
3 49 29 79
3 51 30 83
3 53 52 17
3 52 83 30
3 84 53 31
3 31 54 84
3 60 38 93
3 38 61 94
3 62 97 39
3 65 23 63
3 63 39 97
3 40 99 64
3 99 40 65
3 41 66 101
3 101 67 41
3 67 69 24
3 68 42 103
3 69 103 42
3 70 104 43
3 43 106 71
3 72 108 44
3 75 27 73
3 73 44 108
3 45 110 74
3 110 45 75
3 46 111 76
3 111 46 77
3 78 113 48
3 79 48 113
3 50 114 80
3 82 51 117
3 83 117 51
3 121 84 54
3 54 85 121
3 92 60 125
3 94 93 38
3 93 125 60
3 126 94 61
3 61 95 126
3 96 129 62
3 97 62 129
3 64 133 98
3 133 64 99
3 100 134 66
3 135 101 66
3 102 68 138
3 103 138 68
3 92 125 70
3 106 43 104
3 104 70 125
3 71 140 105
3 140 71 106
3 107 141 72
3 108 72 141
3 74 145 109
3 145 74 110
3 85 76 147
3 148 76 111
3 112 151 78
3 113 78 151
3 80 153 107
3 153 80 114
3 114 50 154
3 115 155 81
3 116 154 50
3 81 156 116
3 82 117 115
3 147 121 85
3 163 126 95
3 95 127 163
3 96 128 129
3 132 98 165
3 166 98 133
3 105 168 100
3 135 66 134
3 134 100 168
3 128 102 171
3 138 171 102
3 168 105 140
3 141 107 153
3 109 175 144
3 175 109 145
3 148 147 76
3 144 178 112
3 151 112 178
3 156 81 155
3 155 115 117
3 154 116 156
3 186 163 127
3 127 132 186
3 171 129 128
3 166 165 98
3 165 186 132
3 178 144 175
3 293 345 292
3 294 346 293
3 295 347 294
3 296 348 295
3 297 348 296
3 292 314 325
3 298 349 297
3 326 350 298
3 304 300 334
3 300 301 334
3 301 302 353
3 337 306 327
3 306 335 329
3 307 337 354
3 308 307 355
3 309 308 356
3 310 309 357
3 311 310 357
3 312 311 358
3 302 312 359
3 341 314 360
3 314 318 325
3 315 341 361
3 342 315 362
3 316 342 363
3 317 316 363
3 318 339 344
3 319 323 326
3 320 322 319
3 321 322 320
3 322 323 319
3 323 324 364
3 324 343 365
3 325 318 344
3 345 366 292
3 367 345 293
3 346 368 293
3 347 346 294
3 369 347 295
3 348 370 295
3 349 348 297
3 366 314 292
3 371 349 298
3 350 371 298
3 372 350 326
3 327 306 329
3 328 373 327
3 330 374 328
3 329 335 338
3 351 375 330
3 334 301 353
3 302 377 353
3 336 338 335
3 381 337 327
3 354 337 381
3 382 307 354
3 355 307 383
3 356 308 355
3 384 309 356
3 357 309 385
3 358 311 357
3 386 312 358
3 359 312 386
3 387 302 359
3 340 344 339
3 366 360 314
3 388 341 360
3 361 341 388
3 389 315 361
3 362 315 389
3 363 342 362
3 390 317 363
3 343 317 391
3 326 323 364
3 364 324 392
3 365 343 391
3 393 324 365
3 368 367 293
3 370 369 295
3 364 372 326
3 381 327 373
3 404 373 328
3 374 404 328
3 405 374 330
3 375 405 330
3 406 375 351
3 376 406 351
3 353 377 380
3 377 302 387
3 383 307 382
3 385 309 384
3 421 317 390
3 391 317 421
3 392 324 393
3 379 406 376
3 377 433 380
3 380 435 378
3 378 436 379
3 446 406 379
3 433 447 380
3 435 436 378
3 447 435 380
3 436 449 379
3 449 446 379
3 345 394 366
3 367 395 345
3 368 346 396
3 346 347 397
3 347 369 398
3 370 348 399
3 348 349 400
3 349 371 401
3 350 402 371
3 372 403 350
3 381 407 354
3 354 408 382
3 355 383 409
3 356 355 410
3 384 356 411
3 357 385 412
3 358 357 413
3 386 358 414
3 386 414 359
3 359 415 387
3 366 416 360
3 360 417 388
3 388 418 361
3 389 361 419
3 389 419 362
3 362 420 363
3 390 363 422
3 392 423 364
3 365 391 424
3 365 424 393
3 416 366 394
3 394 345 395
3 395 367 396
3 368 396 367
3 397 396 346
3 398 397 347
3 425 398 369
3 369 370 425
3 400 399 348
3 399 425 370
3 401 400 349
3 426 401 371
3 426 371 402
3 402 350 403
3 403 372 427
3 364 427 372
3 373 428 381
3 404 429 373
3 374 430 404
3 374 405 430
3 405 375 431
3 375 406 432
3 387 434 377
3 408 354 407
3 407 381 428
3 382 437 383
3 437 382 408
3 438 409 383
3 409 410 355
3 410 411 356
3 385 384 439
3 411 439 384
3 439 412 385
3 412 413 357
3 413 414 358
3 415 359 414
3 434 387 415
3 417 360 416
3 418 388 417
3 440 361 418
3 440 419 361
3 420 362 419
3 441 363 420
3 421 390 442
3 441 422 363
3 422 442 390
3 391 421 443
3 393 444 392
3 427 364 423
3 423 392 444
3 443 424 391
3 444 393 424
3 428 373 429
3 429 404 430
3 431 430 405
3 432 431 375
3 445 432 406
3 377 448 433
3 448 377 434
3 438 383 437
3 442 443 421
3 406 446 445
3 433 454 447
3 454 433 448
3 436 435 451
3 447 453 435
3 449 436 450
3 455 445 446
3 446 449 455
3 453 447 454
3 452 451 435
3 451 450 436
3 452 435 453
3 450 455 449
