ply
format ascii 1.0
comment Generated by PyMesh
element vertex 623
property double x
property double y
property double z
element face 2344
property list uchar int vertex_indices
end_header
-0.0357096 0.118578 0.367281
0.00878441 0.118578 0.367281
-0.0357096 0.131785 0.351617
0.00878441 0.131785 0.351617
0.121303 -0.197678 -0.252489
0.0943465 -0.201458 -0.30312
0.0943465 -0.197678 -0.306402
0.0943465 -0.204988 -0.299535
0.0943465 -0.197678 0.19678
0.121303 0.197678 -0.252489
0.0943465 -0.208249 -0.29567
0.121303 -0.197678 0.142868
0.0943465 0.197678 -0.306402
0.121303 0.197678 0.142868
0.0943465 -0.211222 -0.291547
0.0943465 -0.222883 0.142868
0.0943465 -0.201458 0.193499
0.0943465 0.197678 0.19678
0.0943465 0.20172 -0.30312
0.0943465 0.224635 0.142868
0.0943465 -0.213887 -0.287191
0.0943465 -0.222883 -0.252489
0.0943465 -0.222694 0.148071
0.0943465 -0.204988 0.189914
0.0943465 0.205496 -0.299535
0.0943465 0.20172 0.193499
0.0943465 0.224635 -0.252489
0.0943465 0.224433 0.148071
0.0943465 -0.21623 -0.282628
0.0943465 -0.222694 -0.257692
0.0943465 -0.222132 0.153242
0.0943465 -0.208249 0.186048
0.0943465 0.208984 -0.29567
0.0943465 0.205496 0.189914
0.0943465 0.224433 -0.257692
0.0943465 0.223831 0.153242
0.0943465 -0.218237 -0.277884
0.0943465 -0.222132 -0.262864
0.0943465 -0.221197 0.158351
0.0943465 -0.211222 0.181926
0.0943465 0.212163 -0.291547
0.0943465 0.208984 0.186048
0.0943465 0.223831 -0.262864
0.0943465 0.222832 0.158351
0.0943465 -0.219896 -0.272989
0.0943465 -0.221197 -0.267973
0.0943465 -0.219896 0.163367
0.0943465 -0.213887 0.177569
0.0943465 0.215013 -0.287191
0.0943465 0.212163 0.181926
0.0943465 0.222832 -0.267973
0.0943465 0.221441 0.163367
0.0943465 -0.218237 0.168263
0.0943465 -0.21623 0.173007
0.0943465 0.21752 -0.282628
0.0943465 0.215013 0.177569
0.0943465 0.221441 -0.272989
0.0943465 0.219667 0.168263
0.0943465 0.219667 -0.277884
0.0943465 0.21752 0.173007
0.0943465 -0.314489 -0.3693
0.0763757 -0.293867 -0.3693
-0.121303 -0.314489 -0.3693
0.0943465 0.314489 -0.3693
0.0398949 -0.293867 -0.3693
0.0943465 -0.314489 0.2462
0.0763757 0.293867 -0.3693
0.0763757 -0.293867 -0.363245
-0.103332 -0.293867 -0.3693
-0.121303 -0.314489 0.2462
-0.103332 0.293867 -0.3693
0.0763757 0.293867 -0.363245
0.0398949 -0.293867 -0.363245
-0.121303 0.314489 -0.3693
-0.103332 -0.293867 -0.363245
-0.121303 0.314489 0.2462
-0.121303 -0.314489 0.27647
0.0387631 0.180292 -0.363245
-0.121303 0.314489 0.27647
0.0943465 -0.314489 0.27647
0.0943465 0.314489 0.2462
-0.103332 0.293867 -0.363245
0.0387631 0.247682 -0.363245
-0.0654672 0.180292 -0.363245
0.091094 -0.314489 0.286999
0.0943465 -0.106746 0.27647
-0.121303 0.211378 0.27647
-0.0654672 0.247682 -0.363245
0.0943465 0.314489 0.27647
0.0870843 -0.314489 0.297194
0.0926559 -0.106746 0.281949
-0.121303 -0.106746 0.27647
-0.116909 0.211378 0.286339
-0.067385 0.218478 0.27647
-0.121303 0.118578 0.27647
0.0763757 0.314489 0.31683
-0.0142439 0.273151 0.27647
0.082344 -0.314489 0.306984
0.0890096 -0.106746 0.292304
0.091094 -0.106746 0.286999
-0.11805 -0.314489 0.286999
-0.121303 -0.0237211 0.27647
0.0943465 -0.0237211 0.27647
0.0932775 -0.0237211 0.279929
-0.103332 0.314489 0.31683
-0.11805 0.118578 0.286999
-0.0653491 0.204551 0.27647
-0.0657458 0.232456 0.27647
-0.0397678 0.172177 0.27647
-0.121303 0.0549907 0.27647
0.0943465 0.211378 0.27647
-0.000266124 0.271511 0.27647
-0.028171 0.271115 0.27647
0.0769042 -0.314489 0.316306
0.0870843 -0.106746 0.297194
0.091094 -0.0237211 0.286999
-0.119611 -0.106746 0.281949
-0.114041 -0.314489 0.297194
0.0943465 0.0549907 0.27647
-0.112477 0.211378 0.296291
-0.114041 0.118578 0.297194
-0.0597798 0.191626 0.27647
-0.0605452 0.245533 0.27647
-0.0657458 0.232456 0.325816
-0.067385 0.218478 0.0995638
-0.120825 0.0549907 0.278017
0.0943465 0.118578 0.27647
-0.0510533 0.180583 0.27647
-0.0134778 0.282141 0.31683
0.089953 0.211378 0.286339
0.0404287 0.220009 0.27647
0.0128115 0.266311 0.27647
-0.0142439 0.273151 0.325816
-0.0142439 0.273151 0.0995638
-0.0410957 0.265545 0.27647
0.0708011 -0.314489 0.325095
0.082344 -0.106746 0.306984
0.0846191 -0.106746 0.302288
0.0897766 -0.0237211 0.290349
0.0870843 -0.0237211 0.297194
-0.11805 -0.106746 0.286999
-0.1093 -0.314489 0.306984
-0.120234 -0.0237211 0.279929
0.0938688 0.0549907 0.278017
0.091094 0.0549907 0.286999
-0.107906 0.211378 0.306562
-0.117463 0.0549907 0.288496
-0.0653491 0.204551 0.325816
-0.0597798 0.191626 0.0995638
-0.052139 0.256819 0.27647
-0.0605452 0.245533 0.325816
-0.0657458 0.232456 0.0995638
-0.067385 0.218478 0.325816
-0.0653491 0.204551 0.0995638
-0.11805 0.0549907 0.286999
-0.0266901 0.166975 0.27647
-0.0510533 0.180583 0.325816
-0.0510533 0.180583 0.0995638
-0.029758 0.279997 0.31683
0.0028017 0.279997 0.31683
0.0855209 0.211378 0.296291
0.091094 0.118578 0.286999
0.0141395 0.172942 0.27647
0.0387903 0.206032 0.27647
0.0383928 0.233937 0.27647
0.024097 0.257904 0.27647
0.0128115 0.266311 0.325816
0.0128115 0.266311 0.0995638
-0.000266124 0.271511 0.325816
-0.000266124 0.271511 0.0995638
-0.0410957 0.265545 0.325816
-0.028171 0.271115 0.0995638
-0.028171 0.271115 0.325816
0.0640787 -0.314489 0.333291
0.0737288 -0.106746 0.320879
0.0795139 -0.106746 0.311835
0.0855269 -0.0237211 0.300411
0.0905065 0.0549907 0.288496
-0.11805 -0.0237211 0.286999
-0.10386 -0.314489 0.316306
-0.114041 -0.106746 0.297194
-0.115965 -0.106746 0.292304
-0.1093 0.118578 0.306984
-0.103332 0.211378 0.31683
-0.114041 0.0549907 0.297194
-0.0597798 0.191626 0.325816
-0.0663485 0.211378 0.325816
-0.0605452 0.245533 0.0995638
-0.0763757 0.219243 0.325816
-0.0742315 0.235524 0.325816
-0.0397678 0.172177 0.325816
-0.0397678 0.172177 0.0995638
-0.0127123 0.165337 0.27647
-0.0449267 0.273715 0.31683
-0.029758 0.279997 0.325816
0.0179705 0.273715 0.31683
-0.0134778 0.282141 0.325816
0.0809494 0.211378 0.306562
0.0870843 0.118578 0.297194
0.00121479 0.167373 0.27647
0.0251827 0.181669 0.27647
0.033589 0.192954 0.27647
0.0387903 0.206032 0.325816
0.0387903 0.206032 0.0995638
0.0404287 0.220009 0.325816
0.0383928 0.233937 0.0995638
0.0328235 0.246861 0.27647
0.024097 0.257904 0.325816
0.024097 0.257904 0.0995638
0.0179705 0.273715 0.325816
-0.052139 0.256819 0.325816
-0.052139 0.256819 0.0995638
-0.0410957 0.265545 0.0995638
-0.0449267 0.273715 0.325816
0.0567786 -0.314489 0.340841
0.0708011 -0.106746 0.325095
0.0769042 -0.106746 0.316306
0.0805557 -0.0237211 0.310048
0.082344 -0.0237211 0.306984
0.0870843 0.0549907 0.297194
0.0863893 0.0549907 0.298632
-0.0977573 -0.314489 0.325095
-0.1093 -0.106746 0.306984
-0.111575 -0.106746 0.302288
-0.113346 0.0549907 0.298632
-0.10386 0.118578 0.316306
-0.0763757 0.219243 0.31683
-0.116733 -0.0237211 0.290349
-0.0742315 0.202964 0.325816
-0.0753407 0.211378 0.325816
-0.067949 0.250692 0.325816
-0.0266901 0.166975 0.325816
-0.0266901 0.166975 0.0995638
-0.0127123 0.165337 0.325816
-0.0579536 0.174767 0.325816
-0.067949 0.187794 0.325816
-0.0579536 0.263719 0.31683
0.0309981 0.263719 0.31683
0.0028017 0.279997 0.325816
0.0763757 0.211378 0.31683
0.082344 0.118578 0.306984
0.00121479 0.167373 0.325816
0.00121479 0.167373 0.0995638
0.0141395 0.172942 0.325816
0.0141395 0.172942 0.0995638
0.033589 0.192954 0.325816
0.0394172 0.211378 0.325816
0.0404287 0.220009 0.0995638
0.0383928 0.233937 0.325816
0.0328235 0.246861 0.0995638
0.0328235 0.246861 0.325816
0.0309981 0.263719 0.325816
-0.0579536 0.263719 0.325816
0.0489523 -0.314489 0.347696
0.0640787 -0.106746 0.333291
0.067304 -0.106746 0.32936
0.0748986 -0.0237211 0.319193
0.0708011 -0.0237211 0.325095
0.0769042 -0.0237211 0.316306
0.082344 0.0549907 0.306984
-0.0910349 -0.314489 0.333291
-0.10386 -0.106746 0.316306
-0.106469 -0.106746 0.311835
-0.114041 -0.0237211 0.297194
-0.1093 0.0549907 0.306984
-0.108502 0.0549907 0.308354
-0.0977573 0.118578 0.325095
-0.0753407 0.211378 0.31683
-0.0742315 0.235524 0.31683
-0.112482 -0.0237211 0.300411
-0.067949 0.250692 0.31683
-0.0127123 0.165337 0.0995638
0.0409935 0.250692 0.31683
0.0483845 0.211378 0.31683
0.0769042 0.118578 0.316306
0.0251827 0.181669 0.325816
0.0251827 0.181669 0.0995638
0.033589 0.192954 0.0995638
0.0483489 0.211104 0.325816
0.047276 0.202964 0.325816
0.047276 0.235524 0.325816
0.0494194 0.219243 0.325816
0.0409935 0.250692 0.325816
0.0406521 -0.314489 0.353803
0.0567786 -0.106746 0.340841
0.0602795 -0.106746 0.33722
0.0685926 -0.0237211 0.327787
0.081546 0.0549907 0.308354
0.0769042 0.0549907 0.316306
-0.0837348 -0.314489 0.340841
-0.0977573 -0.106746 0.325095
-0.100685 -0.106746 0.320879
-0.1093 -0.0237211 0.306984
-0.10386 0.0549907 0.316306
-0.100175 0.201372 0.319364
-0.102963 0.0549907 0.317596
-0.0753044 0.211104 0.31683
-0.0742315 0.202964 0.31683
-0.067949 0.187794 0.321323
-0.0449267 0.164772 0.325816
-0.0579536 0.174767 0.323314
0.047276 0.235524 0.31683
0.0494194 0.219243 0.31683
0.0483489 0.211104 0.31683
0.047276 0.202964 0.31683
0.0708011 0.118578 0.325095
0.0309981 0.174767 0.325816
0.0179705 0.164772 0.325816
0.0409935 0.187794 0.325816
0.0483845 0.211378 0.325816
0.0319324 -0.314489 0.359126
0.0489523 -0.106746 0.347696
0.0527068 -0.106746 0.344407
0.0616794 -0.0237211 0.335773
0.0640787 -0.0237211 0.333291
0.0760077 0.0549907 0.317596
0.0708011 0.0549907 0.325095
0.0698146 0.0549907 0.326297
-0.0759086 -0.314489 0.347696
-0.0910349 -0.106746 0.333291
-0.0942602 -0.106746 0.32936
-0.10386 -0.0237211 0.316306
-0.107512 -0.0237211 0.310048
-0.0910349 0.118578 0.333291
-0.0977573 0.0549907 0.325095
-0.0449267 0.164772 0.323638
-0.0503507 0.168935 0.322843
0.0732185 0.201372 0.319364
0.0409935 0.187794 0.321323
0.0228554 -0.314489 0.36363
0.0406521 -0.106746 0.353803
0.0446337 -0.106746 0.350872
0.0567786 -0.0237211 0.340841
0.0640787 0.0549907 0.333291
-0.0676076 -0.314489 0.353803
-0.0796623 -0.106746 0.344407
-0.0872357 -0.106746 0.33722
-0.0977573 -0.0237211 0.325095
-0.101855 -0.0237211 0.319193
-0.09658 0.191665 0.322247
-0.0967708 0.0549907 0.326297
-0.067949 0.187794 0.31683
-0.0644035 0.179235 0.323859
-0.0377712 0.161809 0.32378
-0.029758 0.15849 0.325816
-0.0881359 0.173296 0.32902
-0.0579536 0.174767 0.31683
0.0640787 0.118578 0.333291
0.0309981 0.174767 0.323314
0.0134778 -0.314489 0.367281
0.0319324 -0.106746 0.359126
0.0361162 -0.106746 0.356573
0.0462244 -0.0237211 0.349703
0.0542074 -0.0237211 0.343093
0.0630058 0.0549907 0.334401
0.0567786 0.0549907 0.340841
-0.0588886 -0.314489 0.359126
-0.07159 -0.106746 0.350872
-0.0837348 -0.106746 0.340841
-0.0759086 -0.106746 0.347696
-0.0910349 -0.0237211 0.333291
-0.0955488 -0.0237211 0.327787
-0.0837348 0.118578 0.340841
-0.0910349 0.0549907 0.333291
-0.0945714 0.186979 0.323859
-0.0910576 0.179235 0.326677
-0.0833199 0.164704 0.332883
-0.0311003 0.159045 0.323678
-0.0807268 0.16063 0.334963
-0.0449267 0.164772 0.31683
0.0028017 0.15849 0.325816
-0.029758 0.15849 0.323657
-0.0895972 0.176264 0.327849
-0.0857276 0.168999 0.330952
0.0409935 0.187794 0.31683
0.0696245 0.191665 0.322247
0.0233944 0.168935 0.322843
0.0309981 0.174767 0.31683
0.0374472 0.179235 0.323859
-0.040434 -0.314489 0.367281
0.0228554 -0.106746 0.36363
0.0272095 -0.106746 0.36147
0.0406521 -0.0237211 0.353803
0.0489523 -0.0237211 0.347696
-0.0498116 -0.314489 0.36363
-0.0630717 -0.106746 0.356573
-0.0676076 -0.106746 0.353803
-0.0811629 -0.0237211 0.343093
-0.0759086 -0.0237211 0.347696
-0.0837348 -0.0237211 0.340841
-0.0886356 -0.0237211 0.335773
-0.0899621 0.0549907 0.334401
-0.092562 0.182294 0.325471
-0.0750099 0.152229 0.339548
-0.0781314 0.156554 0.337044
-0.0134778 0.156346 0.325816
0.0179705 0.164772 0.323638
-0.029758 0.15849 0.31683
0.0676151 0.186979 0.323859
0.0567786 0.118578 0.340841
0.0611797 0.173296 0.32902
0.0641021 0.179235 0.326677
-0.00643357 -0.241822 0.367281
0.0179765 -0.106746 0.365529
0.0319324 -0.0237211 0.359126
0.0377871 -0.0237211 0.355552
0.0489523 0.0549907 0.347696
0.0556285 0.0549907 0.341848
-0.0541658 -0.106746 0.36147
-0.0588886 -0.106746 0.359126
-0.0731807 -0.0237211 0.349703
-0.0837348 0.0549907 0.340841
-0.0759086 0.118578 0.347696
-0.0753619 0.152717 0.339265
-0.0134778 0.156346 0.322486
0.0028017 0.15849 0.323657
0.010815 0.161809 0.32378
-0.0134778 0.156346 0.31683
0.0179705 0.164772 0.31683
0.0563637 0.164704 0.332883
0.0587721 0.168999 0.330952
0.0626409 0.176264 0.327849
0.0656058 0.182294 0.325471
-0.044932 -0.106746 0.365529
-0.00562119 -0.23957 0.367281
-0.00772748 -0.243756 0.367281
0.0228554 -0.0237211 0.36363
0.0134778 -0.106746 0.367281
0.0289494 -0.0237211 0.360607
0.0406521 0.0549907 0.353803
0.0477341 0.0549907 0.348592
-0.0498116 -0.106746 0.36363
-0.0647434 -0.0237211 0.355552
-0.0588886 -0.0237211 0.359126
-0.0676076 -0.0237211 0.353803
-0.0825848 0.0549907 0.341848
-0.0759086 0.0549907 0.347696
-0.0746904 0.0549907 0.348592
-0.0274465 0.157532 0.323622
-0.0725932 0.148879 0.341486
0.00414406 0.159045 0.323678
0.0028017 0.15849 0.31683
0.0537706 0.16063 0.334963
0.0489523 0.118578 0.347696
-0.040434 -0.106746 0.367281
-0.0205227 -0.241822 0.367281
-0.0192288 -0.243756 0.367281
-0.0094113 -0.245238 0.367281
0.0197731 -0.0237211 0.364831
0.0319324 0.0549907 0.359126
0.0393725 0.0549907 0.354585
-0.0559056 -0.0237211 0.360607
-0.0498116 -0.0237211 0.36363
-0.0676076 0.0549907 0.353803
-0.0676076 0.118578 0.353803
0.0480536 0.152229 0.339548
0.0511752 0.156554 0.337044
-0.0467294 -0.0237211 0.364831
-0.0213351 -0.23957 0.367281
-0.040434 -0.0237211 0.367281
-0.00539102 -0.237561 0.367281
-0.0127804 -0.240143 0.365264
-0.0155825 -0.246171 0.367281
-0.017545 -0.245238 0.367281
0.0228554 0.0549907 0.36363
0.0306006 0.0549907 0.359788
0.0134778 -0.0237211 0.367281
0.0406521 0.118578 0.353803
-0.066328 0.0549907 0.354585
-0.0588886 0.0549907 0.359126
-0.0575569 0.0549907 0.359788
-0.0696586 0.145292 0.34384
0.000490989 0.157532 0.323622
0.0484064 0.152717 0.339265
-0.0215652 -0.237561 0.367281
-0.0215652 -0.0831522 0.367281
-0.00539102 -0.0831522 0.367281
-0.0115713 -0.239342 0.365264
-0.0134778 -0.240249 0.365264
-0.0121301 -0.239835 0.365264
-0.0113737 -0.246171 0.367281
0.0214789 0.0549907 0.364166
0.0319324 0.118578 0.359126
-0.0498116 0.0549907 0.36363
-0.0484352 0.0549907 0.364166
-0.0588886 0.118578 0.359126
-0.0667255 0.141705 0.346193
-0.040434 0.0549907 0.367281
-0.0153849 -0.239342 0.365264
-0.0215652 0.107641 0.367281
-0.0107824 -0.237155 0.365264
-0.0111436 -0.238703 0.365264
-0.010874 -0.237957 0.365264
-0.0141751 -0.240143 0.365264
-0.0148262 -0.239835 0.365264
-0.0158127 -0.238703 0.365264
-0.0134778 -0.246489 0.367281
0.0228554 0.118578 0.36363
0.0134778 0.0549907 0.367281
-0.00539102 0.107641 0.367281
0.0456369 0.148879 0.341486
-0.0498116 0.118578 0.36363
-0.0605505 0.135064 0.351146
-0.0160822 -0.237957 0.365264
-0.0161738 -0.237155 0.365264
-0.0161738 0.107235 0.365264
-0.0107824 0.107235 0.365264
0.0397693 0.141705 0.346193
-0.040434 0.118578 0.367281
-0.0573214 0.132022 0.353735
0.0427023 0.145292 0.34384
-0.0160822 0.108037 0.365264
-0.0213351 0.10965 0.367281
0.0134778 0.118578 0.367281
0.0241599 0.118578 0.362983
0.0287518 0.130502 0.355031
-0.010874 0.108037 0.365264
-0.00562119 0.10965 0.367281
0.0335943 0.135064 0.351146
-0.0511161 0.118578 0.362983
-0.0557073 0.130502 0.355031
-0.0540938 0.12898 0.356325
-0.0158127 0.108783 0.365264
-0.0153849 0.109423 0.365264
-0.0111436 0.108783 0.365264
-0.0148262 0.109915 0.365264
-0.0205227 0.111902 0.367281
0.0216803 0.118578 0.364086
0.0204235 0.123478 0.36171
0.0271376 0.12898 0.356325
-0.0115713 0.109423 0.365264
-0.0121301 0.109915 0.365264
-0.0486358 0.118578 0.364086
-0.0473798 0.123478 0.36171
-0.0524153 0.127605 0.357673
-0.0507368 0.126229 0.359019
-0.0490583 0.124854 0.360364
-0.0141751 0.110224 0.365264
-0.0127804 0.110224 0.365264
0.0146172 0.119382 0.366369
0.0180303 0.12179 0.36363
0.0237806 0.126229 0.359019
0.0303652 0.132022 0.353735
0.0254591 0.127605 0.357673
-0.00643357 0.111902 0.367281
-0.0134778 0.110328 0.365264
-0.0192288 0.113836 0.367281
0.0192273 0.122634 0.362671
0.0157551 0.120183 0.365456
0.022102 0.124854 0.360364
-0.00772748 0.113836 0.367281
-0.0415735 0.119382 0.366369
-0.0427114 0.120183 0.365456
-0.0461828 0.122634 0.362671
-0.0449865 0.12179 0.36363
-0.017545 0.115318 0.367281
-0.0155825 0.116251 0.367281
0.0068144 0.118578 0.367281
-0.0094113 0.115318 0.367281
-0.0113737 0.116251 0.367281
-0.0337707 0.118578 0.367281
-0.0134778 0.116569 0.367281
0.000149531 0.118578 0.367281
-0.027105 0.118578 0.367281
-0.00566586 0.118578 0.367281
-0.0212896 0.118578 0.367281
-0.0134778 0.118578 0.367281
0.0943465 -0.314489 0.2462
0.0943465 0.314489 -0.3693
0.0943465 -0.314489 -0.3693
0.0943465 0.314489 0.2462
-0.0153849 0.109423 0.365264
-0.0158127 0.108783 0.3693
-0.0158127 0.108783 0.365264
-0.0153849 0.109423 0.3693
-0.0160822 0.108037 0.365264
-0.0161738 0.107235 0.3693
-0.0161738 0.107235 0.365264
-0.0148262 0.109915 0.365264
-0.0141751 0.110224 0.3693
-0.0148262 0.109915 0.3693
-0.0160822 0.108037 0.3693
-0.0148262 -0.239835 0.3693
-0.0153849 -0.239342 0.3693
-0.0158127 -0.238703 0.3693
-0.0161738 -0.237155 0.3693
-0.0134778 0.110328 0.3693
-0.0141751 0.110224 0.365264
-0.0134778 0.110328 0.365264
-0.0127804 0.110224 0.3693
-0.0134778 -0.240249 0.3693
-0.0141751 -0.240143 0.3693
-0.0127804 -0.240143 0.3693
-0.0121301 0.109915 0.3693
-0.0160822 -0.237957 0.3693
-0.0161738 -0.237155 0.365264
-0.0127804 0.110224 0.365264
-0.0121301 -0.239835 0.3693
-0.0115713 0.109423 0.3693
-0.0148262 -0.239835 0.365264
-0.0158127 -0.238703 0.365264
-0.0160822 -0.237957 0.365264
-0.0121301 0.109915 0.365264
-0.0134778 -0.240249 0.365264
-0.0121301 -0.239835 0.365264
-0.0141751 -0.240143 0.365264
-0.0115713 -0.239342 0.3693
-0.0111436 0.108783 0.3693
-0.0111436 -0.238703 0.3693
-0.010874 -0.237957 0.3693
-0.010874 0.108037 0.3693
-0.0153849 -0.239342 0.365264
-0.0115713 0.109423 0.365264
-0.0127804 -0.240143 0.365264
-0.0115713 -0.239342 0.365264
-0.0111436 -0.238703 0.365264
-0.0111436 0.108783 0.365264
-0.010874 0.108037 0.365264
-0.0107824 0.107235 0.3693
-0.0107824 -0.237155 0.3693
-0.010874 -0.237957 0.365264
-0.0107824 0.107235 0.365264
-0.0107824 -0.237155 0.365264
3 0 1 2
3 0 2 1
3 3 2 1
3 3 1 2
3 8 12 6
3 12 8 17
3 6 12 8
3 17 8 12
3 6 5 4
3 5 7 4
3 6 8 4
3 4 9 6
3 7 10 4
3 11 4 8
3 12 6 9
3 9 4 13
3 10 14 4
3 11 4 15
3 11 13 4
3 11 16 8
3 8 17 11
3 18 12 9
3 12 9 17
3 13 17 9
3 13 19 9
3 14 20 4
3 21 15 4
3 22 11 15
3 13 11 17
3 11 23 16
3 24 18 9
3 25 13 17
3 26 9 19
3 13 27 19
3 20 28 4
3 21 4 29
3 30 11 22
3 11 31 23
3 32 24 9
3 33 13 25
3 34 9 26
3 27 13 35
3 28 36 4
3 29 4 37
3 38 11 30
3 11 39 31
3 40 32 9
3 41 13 33
3 34 42 9
3 35 13 43
3 36 44 4
3 37 4 45
3 11 38 46
3 11 47 39
3 48 40 9
3 49 13 41
3 42 50 9
3 43 13 51
3 44 45 4
3 11 46 52
3 11 53 47
3 54 48 9
3 55 13 49
3 50 56 9
3 51 13 57
3 11 52 53
3 58 54 9
3 59 13 55
3 56 58 9
3 57 13 59
3 4 5 6
3 4 7 5
3 4 8 6
3 6 9 4
3 4 10 7
3 8 4 11
3 9 6 12
3 13 4 9
3 4 14 10
3 15 4 11
3 4 13 11
3 8 16 11
3 11 17 8
3 9 12 18
3 17 9 12
3 9 17 13
3 9 19 13
3 4 20 14
3 4 15 21
3 15 11 22
3 17 11 13
3 16 23 11
3 9 18 24
3 17 13 25
3 19 9 26
3 19 27 13
3 4 28 20
3 29 4 21
3 22 11 30
3 23 31 11
3 9 24 32
3 25 13 33
3 26 9 34
3 35 13 27
3 4 36 28
3 37 4 29
3 30 11 38
3 31 39 11
3 9 32 40
3 33 13 41
3 9 42 34
3 43 13 35
3 4 44 36
3 45 4 37
3 46 38 11
3 39 47 11
3 9 40 48
3 41 13 49
3 9 50 42
3 51 13 43
3 4 45 44
3 52 46 11
3 47 53 11
3 9 48 54
3 49 13 55
3 9 56 50
3 57 13 51
3 53 52 11
3 9 54 58
3 55 13 59
3 9 58 56
3 59 13 57
3 60 61 62
3 61 60 63
3 62 61 64
3 61 63 66
3 68 62 64
3 66 63 70
3 62 68 73
3 62 75 69
3 73 70 63
3 67 74 72
3 71 77 67
3 73 68 70
3 75 62 73
3 80 73 63
3 74 67 81
3 77 71 82
3 83 67 77
3 73 80 75
3 81 87 71
3 81 67 83
3 82 71 87
3 82 83 77
3 81 83 87
3 83 82 87
3 69 65 76
3 75 69 78
3 79 76 65
3 76 78 69
3 75 78 80
3 79 84 76
3 65 80 79
3 86 78 76
3 88 80 78
3 89 76 84
3 85 79 88
3 90 79 85
3 88 79 80
3 94 86 76
3 88 78 95
3 97 76 89
3 91 101 76
3 102 85 88
3 85 103 90
3 109 94 76
3 104 95 78
3 113 76 97
3 100 76 117
3 101 109 76
3 116 101 91
3 103 85 102
3 118 102 88
3 125 94 109
3 104 128 95
3 110 126 88
3 135 76 113
3 117 76 141
3 142 109 101
3 101 116 142
3 102 143 103
3 143 102 118
3 126 118 88
3 109 142 125
3 104 158 128
3 159 95 128
3 173 76 135
3 141 76 179
3 143 118 126
3 104 193 158
3 195 95 159
3 214 76 173
3 179 76 221
3 104 236 193
3 237 95 195
3 253 76 214
3 221 76 260
3 104 226 268
3 104 270 236
3 272 95 237
3 283 76 253
3 260 76 289
3 104 268 270
3 301 95 272
3 273 95 302
3 310 76 283
3 289 76 318
3 302 95 301
3 329 76 310
3 318 76 334
3 349 76 329
3 334 76 356
3 379 76 349
3 356 76 384
3 384 76 379
3 349 402 379
3 402 349 424
3 379 402 425
3 427 349 403
3 423 379 444
3 424 349 427
3 402 446 425
3 379 425 447
3 448 427 403
3 379 458 444
3 459 423 444
3 424 427 460
3 463 462 447
3 425 463 447
3 446 463 425
3 427 448 466
3 423 459 457
3 458 379 445
3 444 458 474
3 444 475 459
3 460 427 476
3 445 379 446
3 447 462 480
3 463 379 462
3 446 379 463
3 379 447 480
3 481 466 448
3 476 427 466
3 487 457 459
3 444 474 475
3 459 475 489
3 496 480 462
3 462 379 496
3 379 480 496
3 466 481 498
3 476 466 499
3 457 487 484
3 459 489 487
3 499 466 498
3 487 489 508
3 499 498 513
3 508 489 512
3 499 513 517
3 508 512 526
3 517 513 544
3 508 526 546
3 539 540 548
3 544 513 550
3 508 546 555
3 508 555 556
3 550 513 558
3 558 513 559
3 553 552 554
3 551 554 552
3 555 546 550
3 556 555 558
3 508 556 561
3 560 513 557
3 558 555 550
3 559 513 561
3 559 556 558
3 508 561 560
3 561 556 559
3 560 557 562
3 560 561 513
3 560 565 563
3 560 562 564
3 560 566 565
3 560 564 566
3 79 90 84
3 92 78 86
3 84 98 89
3 84 90 99
3 100 91 76
3 78 92 104
3 105 92 86
3 105 86 94
3 95 110 88
3 114 97 89
3 98 84 99
3 114 89 98
3 90 115 99
3 91 100 116
3 115 90 103
3 104 92 119
3 120 92 105
3 125 105 94
3 110 95 129
3 136 113 97
3 97 114 137
3 99 138 98
3 98 139 114
3 138 99 115
3 140 116 100
3 117 140 100
3 103 144 115
3 120 119 92
3 104 119 145
3 146 120 105
3 105 125 154
3 129 95 160
3 161 110 129
3 161 126 110
3 113 174 135
3 113 136 175
3 136 97 137
3 114 176 137
3 139 98 138
3 176 114 139
3 115 177 138
3 178 116 140
3 141 180 117
3 140 117 181
3 142 154 125
3 116 178 142
3 144 103 143
3 161 143 126
3 177 115 144
3 182 119 120
3 182 145 119
3 104 145 183
3 120 146 184
3 146 105 154
3 160 95 197
3 198 129 160
3 198 161 129
3 215 173 135
3 174 113 216
3 215 135 174
3 136 217 175
3 113 175 216
3 137 218 136
3 218 137 176
3 138 219 139
3 139 220 176
3 219 138 177
3 181 178 140
3 179 222 141
3 180 141 223
3 180 181 117
3 154 142 178
3 143 161 144
3 224 182 120
3 225 145 182
3 183 145 225
3 183 226 104
3 227 184 146
3 224 120 184
3 154 227 146
3 197 95 239
3 240 160 197
3 240 198 160
3 198 177 161
3 254 214 173
3 173 215 255
3 216 256 174
3 174 257 215
3 217 136 218
3 258 175 217
3 175 258 216
3 176 259 218
3 220 139 219
3 259 176 220
3 177 198 219
3 178 181 227
3 221 261 179
3 222 179 262
3 222 223 141
3 263 181 180
3 227 154 178
3 177 144 161
3 182 224 264
3 265 225 182
3 266 183 225
3 226 183 267
3 184 227 263
3 184 269 224
3 95 273 239
3 239 274 197
3 274 240 197
3 240 220 198
3 284 253 214
3 214 254 285
3 254 173 255
3 215 286 255
3 256 216 258
3 257 174 256
3 286 215 257
3 218 287 217
3 217 288 258
3 220 219 198
3 220 240 259
3 181 263 227
3 260 290 221
3 261 221 291
3 261 262 179
3 262 292 222
3 292 223 222
3 223 263 180
3 269 264 224
3 265 182 264
3 225 265 293
3 183 266 294
3 295 266 225
3 296 183 297
3 183 296 267
3 269 184 263
3 239 303 304
3 303 239 273
3 305 274 239
3 274 287 240
3 311 283 253
3 253 284 312
3 284 214 285
3 254 313 285
3 255 314 254
3 314 255 286
3 258 315 256
3 256 316 257
3 257 317 286
3 287 218 259
3 288 217 287
3 315 258 288
3 287 259 240
3 289 319 260
3 290 260 320
3 290 291 221
3 291 321 261
3 321 262 261
3 292 262 322
3 223 292 269
3 263 223 269
3 264 269 292
3 264 322 265
3 322 293 265
3 295 225 293
3 323 294 266
3 183 294 297
3 266 295 324
3 239 304 327
3 305 315 274
3 239 327 305
3 287 274 288
3 330 310 283
3 283 311 331
3 311 253 312
3 332 312 284
3 285 332 284
3 313 254 314
3 332 285 313
3 286 333 314
3 316 256 315
3 317 257 316
3 315 288 274
3 335 289 318
3 319 289 336
3 319 320 260
3 320 337 290
3 337 291 290
3 321 291 338
3 262 321 322
3 322 264 292
3 293 322 321
3 293 338 295
3 294 323 339
3 340 323 266
3 297 294 298
3 338 324 295
3 340 266 324
3 298 342 300
3 300 345 326
3 304 328 327
3 315 305 316
3 347 305 327
3 350 329 310
3 310 330 351
3 330 283 331
3 311 352 331
3 353 311 312
3 312 332 353
3 314 354 313
3 313 355 332
3 333 286 317
3 317 316 305
3 357 318 334
3 289 335 358
3 335 318 359
3 358 336 289
3 336 360 319
3 360 320 319
3 337 320 361
3 291 337 338
3 338 293 321
3 362 339 323
3 294 339 298
3 323 340 363
3 324 338 337
3 324 361 340
3 298 364 342
3 365 300 342
3 326 366 325
3 325 368 343
3 372 345 300
3 345 373 326
3 327 328 375
3 347 317 305
3 327 375 347
3 328 348 378
3 380 349 329
3 329 350 381
3 350 310 351
3 382 351 330
3 352 330 331
3 352 311 383
3 311 353 383
3 355 353 332
3 354 314 333
3 355 313 354
3 317 347 333
3 385 334 356
3 318 357 359
3 386 357 334
3 387 358 335
3 388 335 359
3 389 336 358
3 360 336 390
3 320 360 361
3 361 324 337
3 362 364 339
3 391 362 323
3 339 364 298
3 361 363 340
3 364 392 342
3 365 372 300
3 392 365 342
3 373 366 326
3 325 366 368
3 343 393 367
3 343 368 394
3 392 345 372
3 345 366 373
3 375 328 398
3 399 347 375
3 348 376 400
3 378 348 401
3 328 378 398
3 349 380 403
3 380 329 381
3 404 381 350
3 405 350 351
3 351 382 405
3 330 352 382
3 406 352 383
3 407 383 353
3 353 355 407
3 354 333 347
3 354 399 355
3 408 356 384
3 334 385 386
3 385 356 409
3 410 359 357
3 386 410 357
3 358 387 389
3 335 388 387
3 359 410 388
3 336 389 390
3 390 363 360
3 363 361 360
3 364 362 392
3 362 391 411
3 391 323 363
3 363 390 391
3 392 372 365
3 412 368 366
3 393 371 367
3 343 413 393
3 413 343 394
3 368 412 394
3 345 392 412
3 366 345 412
3 398 399 375
3 399 354 347
3 376 396 419
3 400 376 420
3 421 348 400
3 401 348 421
3 422 378 401
3 398 378 422
3 423 384 379
3 426 403 380
3 428 380 381
3 381 404 428
3 350 405 404
3 429 405 382
3 430 382 352
3 352 406 430
3 383 407 406
3 399 407 355
3 399 406 407
3 356 408 409
3 408 384 431
3 432 386 385
3 433 385 409
3 410 386 434
3 435 389 387
3 436 387 388
3 437 388 410
3 411 390 389
3 392 362 412
3 390 411 391
3 362 411 435
3 435 412 362
3 371 393 438
3 413 439 393
3 394 439 413
3 439 394 412
3 396 416 442
3 399 398 422
3 396 442 419
3 420 376 419
3 419 400 420
3 400 401 421
3 401 443 422
3 384 423 431
3 424 445 402
3 403 426 448
3 380 428 426
3 449 428 404
3 450 404 405
3 405 429 450
3 382 430 429
3 443 430 406
3 406 399 443
3 451 409 408
3 452 408 431
3 386 432 434
3 385 433 432
3 409 451 433
3 453 410 434
3 389 435 411
3 387 436 435
3 388 437 436
3 410 453 437
3 412 435 436
3 393 414 438
3 414 393 439
3 439 412 454
3 416 440 455
3 415 455 440
3 416 456 442
3 422 443 399
3 456 419 442
3 400 419 443
3 443 401 400
3 457 431 423
3 445 446 402
3 424 461 445
3 464 448 426
3 465 426 428
3 428 449 465
3 404 450 449
3 467 450 429
3 443 429 430
3 408 452 451
3 431 457 452
3 468 434 432
3 469 432 433
3 470 433 451
3 434 468 453
3 412 436 437
3 454 437 453
3 437 454 412
3 414 439 471
3 454 471 439
3 455 415 472
3 473 416 455
3 416 473 456
3 419 456 443
3 477 424 460
3 445 478 458
3 479 461 424
3 479 424 477
3 448 464 481
3 426 465 464
3 482 465 449
3 467 449 450
3 429 443 467
3 483 451 452
3 484 452 457
3 432 469 468
3 433 470 469
3 451 483 470
3 454 453 468
3 468 485 454
3 414 471 486
3 471 454 486
3 414 455 472
3 455 456 473
3 455 443 456
3 458 488 474
3 460 476 490
3 491 477 460
3 492 491 460
3 478 493 458
3 478 445 461
3 497 481 464
3 482 464 465
3 449 467 482
3 500 467 443
3 452 484 483
3 485 468 469
3 485 469 470
3 501 470 483
3 486 454 485
3 414 486 502
3 414 500 455
3 443 455 500
3 488 495 474
3 458 494 488
3 474 504 475
3 489 475 505
3 506 490 476
3 492 460 490
3 493 494 458
3 497 498 481
3 464 482 497
3 499 506 476
3 507 482 467
3 500 507 467
3 501 483 484
3 508 484 487
3 470 501 485
3 486 485 502
3 502 509 414
3 414 510 500
3 505 475 504
3 474 503 504
3 505 511 489
3 512 489 511
3 495 503 474
3 498 497 513
3 497 482 514
3 515 514 482
3 506 499 516
3 517 516 499
3 507 518 482
3 507 500 510
3 484 508 501
3 485 501 519
3 520 485 519
3 485 509 502
3 520 521 414
3 414 507 510
3 511 522 512
3 522 523 512
3 512 523 525
3 512 525 526
3 513 497 527
3 528 497 514
3 515 529 514
3 518 515 482
3 524 516 517
3 530 524 517
3 530 517 531
3 414 518 507
3 501 508 532
3 533 519 501
3 520 519 521
3 521 519 534
3 509 485 520
3 509 520 414
3 521 534 414
3 535 414 534
3 525 537 526
3 528 527 497
3 527 539 513
3 541 528 514
3 515 518 542
3 543 541 514
3 414 529 515
3 414 515 542
3 414 542 518
3 538 531 544
3 531 517 544
3 533 501 532
3 519 536 535
3 536 519 533
3 534 519 535
3 414 535 536
3 536 533 414
3 540 527 547
3 547 527 528
3 539 527 540
3 539 414 513
3 540 414 548
3 414 528 549
3 528 541 549
3 529 543 514
3 414 543 529
3 537 545 526
3 545 538 544
3 545 544 526
3 551 532 508
3 532 551 552
3 532 553 533
3 533 553 414
3 414 554 508
3 554 414 553
3 526 544 546
3 548 414 539
3 414 557 513
3 414 540 547
3 414 547 528
3 414 541 543
3 541 414 549
3 550 546 544
3 532 552 553
3 508 554 551
3 508 560 414
3 414 562 557
3 560 563 414
3 414 564 562
3 563 565 414
3 566 564 414
3 565 566 414
3 62 61 60
3 63 60 61
3 64 61 62
3 66 63 61
3 61 64 67
3 64 62 68
3 70 63 66
3 66 61 71
3 72 67 64
3 67 71 61
3 73 68 62
3 68 74 64
3 63 70 73
3 66 71 70
3 72 74 67
3 72 64 74
3 67 77 71
3 70 68 73
3 68 70 74
3 81 70 71
3 81 67 74
3 82 71 77
3 77 67 83
3 81 74 70
3 71 87 81
3 83 67 81
3 87 71 82
3 87 83 81
3 62 65 60
3 67 64 61
3 65 62 69
3 71 61 66
3 64 67 72
3 61 71 67
3 64 74 68
3 76 65 69
3 70 71 66
3 74 64 72
3 74 70 68
3 78 69 75
3 65 76 79
3 69 78 76
3 71 70 81
3 70 74 81
3 80 78 75
3 76 84 79
3 76 85 79
3 79 85 76
3 79 80 65
3 76 78 86
3 78 80 88
3 84 76 89
3 85 76 91
3 91 76 85
3 88 79 85
3 85 79 90
3 80 79 88
3 93 86 78
3 78 86 93
3 76 86 94
3 95 78 88
3 88 96 78
3 78 96 88
3 89 76 97
3 76 101 91
3 85 91 101
3 101 91 85
3 88 85 102
3 90 103 85
3 106 86 93
3 93 86 106
3 93 78 107
3 107 78 93
3 108 94 86
3 86 94 108
3 76 94 109
3 78 95 104
3 88 111 96
3 96 111 88
3 112 78 96
3 96 78 112
3 97 76 113
3 117 76 100
3 76 109 101
3 91 101 116
3 85 101 102
3 102 101 85
3 102 85 103
3 88 102 118
3 121 86 106
3 106 86 121
3 107 78 122
3 122 78 107
3 126 94 108
3 108 94 126
3 108 86 127
3 127 86 108
3 109 94 125
3 118 109 94
3 94 109 118
3 95 128 104
3 88 126 110
3 110 130 88
3 88 130 110
3 88 131 111
3 111 131 88
3 134 78 112
3 112 78 134
3 113 76 135
3 141 76 117
3 101 109 142
3 102 101 109
3 109 101 102
3 142 116 101
3 103 143 102
3 102 109 118
3 118 109 102
3 118 102 143
3 88 118 126
3 127 86 121
3 121 86 127
3 122 78 149
3 149 78 122
3 118 94 126
3 126 94 118
3 126 108 155
3 155 108 126
3 125 142 109
3 128 158 104
3 128 95 159
3 126 162 110
3 110 162 126
3 110 163 130
3 130 163 110
3 88 130 164
3 164 130 88
3 88 165 131
3 131 165 88
3 149 78 134
3 134 78 149
3 135 76 173
3 179 76 141
3 126 118 143
3 188 152 123
3 123 152 188
3 189 123 150
3 150 123 189
3 126 155 192
3 192 155 126
3 158 193 104
3 159 95 195
3 162 126 199
3 199 126 162
3 110 162 200
3 200 162 110
3 110 201 163
3 163 201 110
3 88 164 206
3 206 164 88
3 88 206 165
3 165 206 88
3 168 209 132
3 132 209 168
3 213 172 132
3 132 172 213
3 173 76 214
3 221 76 179
3 228 185 147
3 147 185 228
3 229 147 186
3 186 147 229
3 229 152 188
3 188 152 229
3 188 123 189
3 189 123 188
3 189 150 230
3 230 150 189
3 199 126 192
3 192 126 199
3 234 190 156
3 156 190 234
3 235 156 185
3 185 156 235
3 193 236 104
3 195 95 237
3 110 200 201
3 201 200 110
3 166 209 168
3 168 209 166
3 207 251 166
3 166 251 207
3 213 132 209
3 209 132 213
3 213 170 172
3 172 170 213
3 252 210 170
3 170 210 252
3 214 76 253
3 260 76 221
3 268 226 104
3 235 185 228
3 228 185 235
3 228 147 229
3 229 147 228
3 229 186 152
3 152 186 229
3 230 150 210
3 210 150 230
3 234 231 190
3 190 231 234
3 234 156 235
3 235 156 234
3 236 270 104
3 194 238 196
3 196 238 194
3 213 238 194
3 194 238 213
3 237 95 272
3 202 278 246
3 246 278 202
3 245 279 202
3 202 279 245
3 204 280 248
3 248 280 204
3 246 281 204
3 204 281 246
3 250 282 207
3 207 282 250
3 166 251 209
3 209 251 166
3 207 282 251
3 251 282 207
3 213 209 238
3 238 209 213
3 252 170 213
3 213 170 252
3 230 210 252
3 252 210 230
3 253 76 283
3 289 76 260
3 270 268 104
3 299 231 234
3 234 231 299
3 231 299 233
3 233 299 231
3 272 95 301
3 302 95 273
3 241 306 243
3 243 306 241
3 233 307 241
3 241 307 233
3 243 306 275
3 275 306 243
3 275 308 245
3 245 308 275
3 202 279 278
3 278 279 202
3 246 278 309
3 246 309 281
3 309 278 246
3 281 309 246
3 245 308 279
3 279 308 245
3 204 281 280
3 280 281 204
3 248 280 250
3 250 280 248
3 250 280 282
3 282 280 250
3 283 76 310
3 318 76 289
3 296 229 267
3 267 229 296
3 299 307 233
3 233 307 299
3 301 95 302
3 309 303 273
3 273 303 309
3 241 307 306
3 306 307 241
3 275 306 308
3 308 306 275
3 303 309 278
3 278 309 303
3 310 76 329
3 334 76 318
3 344 307 299
3 299 307 344
3 329 76 349
3 356 76 334
3 344 370 307
3 307 370 344
3 349 76 379
3 384 76 356
3 370 344 395
3 395 344 370
3 379 76 384
3 379 402 349
3 424 349 402
3 425 402 379
3 403 349 427
3 417 395 414
3 414 395 417
3 444 379 423
3 427 349 424
3 425 446 402
3 403 427 448
3 444 458 379
3 444 423 459
3 460 427 424
3 447 462 463
3 447 463 425
3 425 463 446
3 447 425 379
3 466 448 427
3 457 459 423
3 445 379 458
3 474 458 444
3 459 475 444
3 476 427 460
3 446 379 445
3 480 462 447
3 462 379 463
3 463 379 446
3 480 447 379
3 448 466 481
3 466 427 476
3 459 457 487
3 475 474 444
3 489 475 459
3 494 493 479
3 477 494 479
3 488 494 477
3 491 488 477
3 495 488 491
3 492 495 491
3 479 493 461
3 462 480 496
3 496 379 462
3 496 480 379
3 498 481 466
3 499 466 476
3 484 487 457
3 487 489 459
3 491 495 492
3 492 503 490
3 490 503 492
3 479 494 477
3 477 494 488
3 477 488 491
3 491 488 495
3 478 461 493
3 503 495 492
3 492 495 503
3 490 503 504
3 490 504 505
3 504 503 490
3 505 504 490
3 461 493 479
3 479 493 494
3 498 466 499
3 508 489 487
3 490 505 506
3 506 505 490
3 493 461 478
3 513 498 499
3 512 489 508
3 511 505 506
3 522 511 516
3 523 522 524
3 506 505 511
3 506 511 516
3 516 511 522
3 516 522 524
3 524 522 523
3 516 511 506
3 524 522 516
3 517 513 499
3 526 512 508
3 531 525 537
3 531 537 538
3 530 523 524
3 525 523 530
3 531 525 530
3 537 525 531
3 524 523 530
3 530 523 525
3 530 525 531
3 544 513 517
3 538 537 545
3 538 537 531
3 545 537 538
3 546 526 508
3 548 540 539
3 550 513 544
3 555 546 508
3 556 555 508
3 558 513 550
3 559 513 558
3 554 552 553
3 552 554 551
3 550 546 555
3 558 555 556
3 561 556 508
3 557 513 560
3 550 555 558
3 561 513 559
3 558 556 559
3 560 561 508
3 559 556 561
3 562 557 560
3 513 561 560
3 563 565 560
3 564 562 560
3 565 566 560
3 566 564 560
3 84 90 79
3 86 78 92
3 89 98 84
3 99 90 84
3 76 91 100
3 104 92 78
3 86 92 105
3 94 86 105
3 88 110 95
3 89 97 114
3 99 84 98
3 98 89 114
3 99 115 90
3 116 100 91
3 103 90 115
3 119 92 104
3 105 92 120
3 123 93 107
3 107 93 123
3 93 107 124
3 94 105 125
3 129 95 110
3 111 132 96
3 96 132 111
3 96 111 133
3 132 112 96
3 96 112 132
3 96 133 112
3 97 113 136
3 137 114 97
3 98 138 99
3 114 139 98
3 115 99 138
3 100 116 140
3 100 140 117
3 115 144 103
3 92 119 120
3 145 119 104
3 105 120 146
3 147 121 106
3 106 121 147
3 121 106 148
3 150 107 122
3 122 107 150
3 107 122 151
3 93 123 152
3 152 123 93
3 107 150 123
3 123 150 107
3 151 124 107
3 124 153 93
3 154 125 105
3 156 108 127
3 127 108 156
3 127 157 108
3 160 95 129
3 129 110 161
3 110 126 161
3 166 111 131
3 131 111 166
3 131 167 111
3 132 111 168
3 168 111 132
3 169 133 111
3 112 170 134
3 134 170 112
3 112 171 134
3 112 132 172
3 172 132 112
3 171 112 133
3 135 174 113
3 175 136 113
3 137 97 136
3 137 176 114
3 138 98 139
3 139 114 176
3 138 177 115
3 140 116 178
3 117 180 141
3 181 117 140
3 125 154 142
3 142 178 116
3 143 103 144
3 126 143 161
3 144 115 177
3 120 119 182
3 119 145 182
3 183 145 104
3 184 146 120
3 154 105 146
3 185 127 121
3 121 127 185
3 127 121 157
3 121 147 185
3 185 147 121
3 147 106 186
3 186 106 147
3 153 148 106
3 148 157 121
3 149 150 122
3 122 150 149
3 122 149 187
3 187 151 122
3 152 106 93
3 93 106 152
3 106 93 153
3 190 155 108
3 108 155 190
3 108 191 155
3 108 156 190
3 190 156 108
3 127 185 156
3 156 185 127
3 191 108 157
3 194 128 158
3 158 128 194
3 196 159 128
3 128 159 196
3 197 95 160
3 160 129 198
3 129 161 198
3 202 130 163
3 163 130 202
3 163 203 130
3 204 164 130
3 130 164 204
3 164 130 205
3 207 131 165
3 165 131 207
3 165 208 131
3 111 166 168
3 168 166 111
3 131 207 166
3 166 207 131
3 169 111 167
3 167 131 208
3 134 210 149
3 149 210 134
3 149 134 211
3 170 112 172
3 172 112 170
3 210 134 170
3 170 134 210
3 212 134 171
3 135 173 215
3 216 113 174
3 174 135 215
3 175 217 136
3 216 175 113
3 136 218 137
3 176 137 218
3 139 219 138
3 176 220 139
3 177 138 219
3 140 178 181
3 141 222 179
3 223 141 180
3 117 181 180
3 178 142 154
3 144 161 143
3 120 182 224
3 182 145 225
3 225 145 183
3 104 226 183
3 146 184 227
3 184 120 224
3 146 227 154
3 106 152 186
3 186 152 106
3 150 149 210
3 210 149 150
3 211 187 149
3 155 190 231
3 231 190 155
3 232 155 191
3 155 233 192
3 192 233 155
3 155 232 192
3 213 158 193
3 193 158 213
3 128 194 196
3 196 194 128
3 158 213 194
3 194 213 158
3 238 195 159
3 159 195 238
3 159 196 238
3 238 196 159
3 239 95 197
3 197 160 240
3 160 198 240
3 161 177 198
3 241 162 199
3 199 162 241
3 199 242 162
3 243 200 162
3 162 200 243
3 162 244 200
3 245 163 201
3 201 163 245
3 163 201 203
3 130 202 246
3 246 202 130
3 163 245 202
3 202 245 163
3 247 130 203
3 164 204 248
3 248 204 164
3 204 130 246
3 246 130 204
3 247 205 130
3 205 249 164
3 164 250 206
3 206 250 164
3 206 164 249
3 250 165 206
3 206 165 250
3 165 206 208
3 165 250 207
3 207 250 165
3 212 211 134
3 173 214 254
3 255 215 173
3 174 256 216
3 215 257 174
3 218 136 217
3 217 175 258
3 216 258 175
3 218 259 176
3 219 139 220
3 220 176 259
3 219 198 177
3 227 181 178
3 179 261 221
3 262 179 222
3 141 223 222
3 180 181 263
3 178 154 227
3 161 144 177
3 264 224 182
3 182 225 265
3 225 183 266
3 267 183 226
3 263 227 184
3 224 269 184
3 226 229 188
3 188 229 226
3 268 188 189
3 189 188 268
3 270 189 230
3 230 189 270
3 233 155 231
3 231 155 233
3 233 199 192
3 192 199 233
3 271 192 232
3 192 271 199
3 252 193 236
3 236 193 252
3 193 252 213
3 213 252 193
3 209 237 195
3 195 237 209
3 195 238 209
3 209 238 195
3 239 273 95
3 197 274 239
3 197 240 274
3 198 220 240
3 162 241 243
3 243 241 162
3 199 233 241
3 241 233 199
3 244 162 242
3 242 199 271
3 200 243 275
3 275 243 200
3 276 200 244
3 275 201 200
3 200 201 275
3 201 200 277
3 201 275 245
3 245 275 201
3 277 203 201
3 250 164 248
3 248 164 250
3 249 208 206
3 214 253 284
3 285 254 214
3 255 173 254
3 255 286 215
3 258 216 256
3 256 174 257
3 257 215 286
3 217 287 218
3 258 288 217
3 259 218 287
3 198 219 220
3 259 240 220
3 227 263 181
3 221 290 260
3 291 221 261
3 179 262 261
3 222 292 262
3 222 223 292
3 180 263 223
3 224 264 269
3 264 182 265
3 293 265 225
3 294 266 183
3 225 266 295
3 297 183 296
3 267 296 183
3 229 226 267
3 267 226 229
3 188 268 226
3 226 268 188
3 263 184 269
3 228 298 235
3 235 298 228
3 229 297 228
3 228 297 229
3 189 270 268
3 268 270 189
3 230 236 270
3 270 236 230
3 235 300 234
3 234 300 235
3 236 230 252
3 252 230 236
3 251 272 237
3 237 272 251
3 237 209 251
3 251 209 237
3 304 303 239
3 273 239 303
3 239 274 305
3 240 287 274
3 276 277 200
3 272 251 282
3 282 251 272
3 253 283 311
3 312 284 253
3 285 214 284
3 285 313 254
3 254 314 255
3 256 315 258
3 257 316 256
3 286 317 257
3 287 217 288
3 288 258 315
3 240 259 287
3 260 319 289
3 320 260 290
3 221 291 290
3 261 321 291
3 261 262 321
3 322 262 292
3 269 292 223
3 269 223 263
3 292 269 264
3 265 322 264
3 265 293 322
3 293 225 295
3 266 294 323
3 297 294 183
3 324 295 266
3 229 296 297
3 297 296 229
3 298 228 297
3 297 228 298
3 300 235 298
3 298 235 300
3 234 325 299
3 299 325 234
3 326 234 300
3 300 234 326
3 282 301 272
3 272 301 282
3 302 309 273
3 273 309 302
3 278 304 303
3 303 304 278
3 327 304 239
3 274 315 305
3 305 327 239
3 288 274 287
3 304 278 279
3 279 278 304
3 309 302 281
3 281 302 309
3 328 279 308
3 308 279 328
3 302 280 281
3 281 280 302
3 301 282 280
3 280 282 301
3 283 310 330
3 331 311 283
3 312 253 311
3 284 312 332
3 284 332 285
3 314 254 313
3 313 285 332
3 286 255 314
3 314 333 286
3 315 256 316
3 316 257 317
3 274 288 315
3 318 289 335
3 336 289 319
3 260 320 319
3 290 337 320
3 290 291 337
3 338 291 321
3 322 321 262
3 292 264 322
3 321 322 293
3 295 338 293
3 339 323 294
3 266 323 340
3 298 294 297
3 295 324 338
3 324 266 340
3 298 297 341
3 341 297 298
3 341 300 298
3 298 300 341
3 300 342 298
3 325 234 326
3 326 234 325
3 343 299 325
3 325 299 343
3 326 345 300
3 346 326 300
3 300 326 346
3 280 302 301
3 301 302 280
3 327 328 304
3 316 305 315
3 327 305 347
3 307 348 306
3 306 348 307
3 348 308 306
3 306 308 348
3 279 328 304
3 304 328 279
3 308 348 328
3 328 348 308
3 310 329 350
3 351 330 310
3 331 283 330
3 331 352 311
3 312 311 353
3 353 332 312
3 313 354 314
3 332 355 313
3 317 286 333
3 305 316 317
3 334 318 357
3 358 335 289
3 359 318 335
3 289 336 358
3 319 360 336
3 319 320 360
3 361 320 337
3 338 337 291
3 321 293 338
3 323 339 362
3 298 339 294
3 363 340 323
3 337 338 324
3 340 361 324
3 300 341 346
3 346 341 300
3 342 364 298
3 342 300 365
3 325 366 326
3 346 325 326
3 326 325 346
3 367 299 343
3 343 299 367
3 343 368 325
3 369 343 325
3 325 343 369
3 299 371 344
3 344 371 299
3 300 345 372
3 326 373 345
3 328 374 304
3 304 374 328
3 375 328 327
3 305 317 347
3 347 375 327
3 348 307 376
3 376 307 348
3 377 328 348
3 348 328 377
3 378 348 328
3 329 349 380
3 381 350 329
3 351 310 350
3 330 351 382
3 331 330 352
3 383 311 352
3 383 353 311
3 332 353 355
3 333 314 354
3 354 313 355
3 333 347 317
3 356 334 385
3 359 357 318
3 334 357 386
3 335 358 387
3 359 335 388
3 358 336 389
3 390 336 360
3 361 360 320
3 337 324 361
3 339 364 362
3 323 362 391
3 298 364 339
3 340 363 361
3 363 323 391
3 342 392 364
3 300 372 365
3 342 365 392
3 326 366 373
3 368 366 325
3 325 346 369
3 369 346 325
3 367 299 371
3 367 393 343
3 369 367 343
3 343 367 369
3 394 368 343
3 370 396 307
3 307 396 370
3 371 299 367
3 397 344 371
3 371 344 397
3 372 345 392
3 373 366 345
3 328 377 374
3 374 377 328
3 398 328 375
3 375 347 399
3 376 307 396
3 396 307 376
3 400 376 348
3 376 377 348
3 348 377 376
3 401 348 378
3 398 378 328
3 403 380 349
3 381 329 380
3 350 381 404
3 351 350 405
3 405 382 351
3 382 352 330
3 383 352 406
3 353 383 407
3 407 355 353
3 347 333 354
3 355 399 354
3 384 356 408
3 386 385 334
3 409 356 385
3 357 359 410
3 357 410 386
3 389 387 358
3 387 388 335
3 388 410 359
3 390 389 336
3 360 363 390
3 360 361 363
3 392 362 364
3 411 391 362
3 391 390 363
3 365 372 392
3 366 368 412
3 369 371 367
3 367 371 369
3 367 371 393
3 393 413 343
3 394 343 413
3 397 369 371
3 394 412 368
3 344 414 395
3 395 414 344
3 395 415 370
3 370 415 395
3 396 370 416
3 416 370 396
3 417 344 397
3 397 344 417
3 371 369 397
3 412 392 345
3 412 345 366
3 375 399 398
3 347 354 399
3 418 376 396
3 396 376 418
3 419 396 376
3 420 376 400
3 400 348 421
3 377 376 418
3 418 376 377
3 421 348 401
3 401 378 422
3 422 378 398
3 379 384 423
3 380 403 426
3 381 380 428
3 428 404 381
3 404 405 350
3 382 405 429
3 352 382 430
3 430 406 352
3 406 407 383
3 355 407 399
3 407 406 399
3 409 408 356
3 431 384 408
3 385 386 432
3 409 385 433
3 434 386 410
3 387 389 435
3 388 387 436
3 410 388 437
3 389 390 411
3 412 362 392
3 391 411 390
3 435 411 362
3 362 412 435
3 438 393 371
3 393 439 413
3 413 439 394
3 412 394 439
3 414 344 417
3 417 344 414
3 417 415 395
3 395 415 417
3 416 370 440
3 415 370 440
3 440 370 416
3 441 396 416
3 416 396 441
3 442 416 396
3 422 398 399
3 396 441 418
3 418 441 396
3 419 442 396
3 419 376 420
3 420 400 419
3 421 401 400
3 422 443 401
3 431 423 384
3 402 445 424
3 448 426 403
3 426 428 380
3 404 428 449
3 405 404 450
3 450 429 405
3 429 430 382
3 406 430 443
3 443 399 406
3 408 409 451
3 431 408 452
3 434 432 386
3 432 433 385
3 433 451 409
3 434 410 453
3 411 435 389
3 435 436 387
3 436 437 388
3 437 453 410
3 436 435 412
3 438 414 393
3 439 393 414
3 454 412 439
3 415 417 441
3 441 417 415
3 441 416 440
3 440 416 441
3 455 440 416
3 440 370 415
3 441 440 415
3 415 440 441
3 440 455 415
3 442 456 416
3 399 443 422
3 442 419 456
3 443 419 400
3 400 401 443
3 423 431 457
3 402 446 445
3 445 461 424
3 426 448 464
3 428 426 465
3 465 449 428
3 449 450 404
3 429 450 467
3 430 429 443
3 451 452 408
3 452 457 431
3 432 434 468
3 433 432 469
3 451 433 470
3 453 468 434
3 437 436 412
3 453 437 454
3 412 454 437
3 471 439 414
3 439 471 454
3 455 416 473
3 456 473 416
3 472 415 455
3 443 456 419
3 460 424 477
3 458 478 445
3 461 445 478
3 424 461 479
3 477 424 479
3 481 464 448
3 464 465 426
3 449 465 482
3 450 449 467
3 467 443 429
3 452 451 483
3 457 452 484
3 468 469 432
3 469 470 433
3 470 483 451
3 468 453 454
3 454 485 468
3 486 471 414
3 486 454 471
3 472 455 414
3 473 456 455
3 456 443 455
3 474 488 458
3 490 476 460
3 460 477 491
3 460 491 492
3 458 493 478
3 464 481 497
3 465 464 482
3 482 467 449
3 443 467 500
3 483 484 452
3 469 468 485
3 470 469 485
3 483 470 501
3 485 454 486
3 502 486 414
3 455 500 414
3 500 455 443
3 474 495 488
3 474 503 495
3 488 494 458
3 475 504 474
3 505 475 489
3 476 490 506
3 490 460 492
3 458 494 493
3 481 498 497
3 497 482 464
3 476 506 499
3 467 482 507
3 467 507 500
3 484 483 501
3 487 484 508
3 485 501 470
3 502 485 486
3 414 509 502
3 500 510 414
3 504 475 505
3 504 503 474
3 489 511 505
3 513 497 498
3 514 482 497
3 482 514 515
3 516 499 506
3 499 516 517
3 482 518 507
3 510 500 507
3 501 508 484
3 519 501 485
3 519 485 520
3 502 509 485
3 414 520 509
3 510 507 414
3 511 489 512
3 512 522 511
3 512 523 522
3 525 523 512
3 526 525 512
3 527 497 513
3 514 497 528
3 514 529 515
3 482 515 518
3 517 516 524
3 517 524 530
3 531 517 530
3 507 518 414
3 501 519 533
3 520 485 509
3 521 519 520
3 414 521 520
3 414 534 521
3 534 519 521
3 536 535 414
3 534 414 535
3 526 537 525
3 497 527 528
3 513 539 527
3 540 527 539
3 514 528 541
3 542 515 414
3 514 543 529
3 514 541 543
3 515 529 414
3 518 542 414
3 542 518 515
3 544 531 538
3 544 538 545
3 544 517 531
3 532 508 501
3 532 501 533
3 535 536 519
3 533 519 536
3 535 519 534
3 414 533 536
3 526 545 537
3 528 527 547
3 513 414 539
3 547 527 540
3 548 414 540
3 549 528 414
3 549 541 528
3 529 543 414
3 526 544 545
3 508 532 551
3 553 552 532
3 533 553 532
3 414 553 533
3 508 554 414
3 553 414 554
3 546 544 526
3 528 547 414
3 539 414 548
3 513 557 414
3 547 540 414
3 543 541 414
3 549 414 541
3 544 546 550
3 552 551 532
3 551 554 508
3 414 560 508
3 557 562 414
3 414 563 560
3 562 564 414
3 414 565 563
3 414 564 566
3 414 566 565
3 60 65 62
3 69 62 65
3 69 75 62
3 73 62 75
3 63 73 80
3 75 80 73
3 124 107 93
3 133 111 96
3 112 133 96
3 148 106 121
3 151 122 107
3 107 124 151
3 93 153 124
3 108 157 127
3 111 167 131
3 111 133 169
3 134 171 112
3 133 112 171
3 157 121 127
3 106 148 153
3 121 157 148
3 187 149 122
3 122 151 187
3 153 93 106
3 155 191 108
3 157 108 191
3 130 203 163
3 205 130 164
3 131 208 165
3 167 111 169
3 208 131 167
3 211 134 149
3 171 134 212
3 149 187 211
3 191 155 232
3 192 232 155
3 162 242 199
3 200 244 162
3 203 201 163
3 203 130 247
3 130 205 247
3 164 249 205
3 249 164 206
3 208 206 165
3 134 211 212
3 232 192 271
3 199 271 192
3 242 162 244
3 271 199 242
3 244 200 276
3 277 200 201
3 201 203 277
3 206 208 249
3 200 277 276
3 77 83 82
3 87 82 83
3 567 568 569
3 568 567 570
3 569 568 567
3 570 567 568
3 579 582 580
3 580 583 574
3 574 583 580
3 572 584 574
3 589 590 586
3 586 591 579
3 589 592 593
3 586 590 589
3 579 591 586
3 580 582 579
3 579 591 582
3 582 591 579
3 580 582 583
3 574 583 584
3 583 582 580
3 584 583 574
3 574 584 572
3 572 584 594
3 572 594 581
3 581 594 585
3 581 585 576
3 594 584 572
3 581 594 572
3 585 594 581
3 576 585 581
3 593 592 589
3 589 592 590
3 586 590 591
3 593 597 598
3 592 597 593
3 590 592 589
3 591 590 586
3 598 597 593
3 593 597 592
3 597 606 598
3 598 606 607
3 608 609 610
3 607 608 610
3 606 608 607
3 609 618 619
3 610 609 608
3 607 608 606
3 619 618 609
3 610 608 607
3 610 609 618
3 618 609 610
3 607 606 598
3 598 606 597
3 571 572 573
3 572 571 574
3 573 572 571
3 574 571 572
3 575 576 577
3 578 579 580
3 571 580 574
3 574 580 571
3 578 571 580
3 580 571 578
3 576 575 581
3 580 579 578
3 577 576 575
3 581 575 576
3 585 577 576
3 576 577 585
3 573 581 575
3 581 573 572
3 575 581 573
3 572 573 581
3 586 587 588
3 579 586 587
3 588 587 586
3 579 578 587
3 587 578 579
3 587 586 579
3 577 585 595
3 595 585 577
3 589 588 596
3 596 588 589
3 588 589 586
3 586 589 588
3 582 583 599
3 583 600 584
3 584 600 583
3 584 601 594
3 594 601 584
3 594 595 585
3 585 595 594
3 595 594 601
3 601 594 595
3 596 593 589
3 593 596 602
3 589 593 596
3 602 596 593
3 603 591 590
3 590 591 603
3 604 592 597
3 605 582 591
3 591 582 605
3 599 583 582
3 593 598 602
3 583 599 611
3 611 599 583
3 599 605 582
3 600 583 611
3 611 583 600
3 601 584 600
3 600 584 601
3 602 598 593
3 598 602 612
3 612 602 598
3 590 613 603
3 592 590 613
3 603 613 590
3 591 603 605
3 605 603 591
3 582 605 599
3 608 614 606
3 614 608 615
3 606 614 608
3 615 608 614
3 613 590 592
3 608 615 609
3 614 597 606
3 597 614 604
3 606 597 614
3 604 614 597
3 598 616 607
3 616 598 612
3 607 616 598
3 612 598 616
3 616 607 617
3 609 615 608
3 619 620 609
3 609 620 619
3 610 621 618
3 618 621 610
3 607 617 610
3 610 617 607
3 597 592 604
3 617 607 616
3 592 604 613
3 615 609 620
3 620 609 615
3 620 619 622
3 622 619 620
3 613 604 592
3 622 618 621
3 621 618 622
3 621 610 617
3 617 610 621
3 618 622 619
3 619 622 618
