ply
format ascii 1.0
comment Generated by PyMesh
element vertex 197
property double x
property double y
property double z
element face 828
property list uchar int vertex_indices
end_header
-0.201136 -0.170679 -0.0457342
-0.201136 -0.170679 0.0457342
-0.201136 -0.176699 1.26494e-06
-0.201136 -0.153026 -0.0883504
0.0243242 -0.170679 0.0457342
0.0243242 -0.176699 1.26494e-06
0.0243242 -0.170679 -0.0457342
-0.201136 -0.153026 0.0883508
0.0243242 -0.153026 0.0883508
0.0243242 -0.153026 -0.0883504
-0.201136 -0.124946 -0.124947
-0.201136 -0.124946 0.124947
0.0243242 -0.124946 0.124947
0.0243242 -0.124946 -0.124947
-0.201136 -0.0883492 -0.153027
0.0243242 -0.0883492 -0.153027
-0.201136 -0.0883492 0.153027
0.0243242 -0.0457329 -0.17068
-0.201136 -0.0457329 -0.17068
0.0243242 -0.0883492 0.153027
-0.201136 -0.0457329 0.17068
0.0243242 -5.37525e-09 -0.1767
0.0243242 -0.0457329 0.17068
-0.201136 -5.37525e-09 -0.1767
-0.201136 -5.37525e-09 0.1767
0.0243242 0.0457329 -0.17068
0.0243242 -5.37525e-09 0.1767
-0.201136 0.0457329 -0.17068
-0.201136 0.0457329 0.17068
0.0243242 0.0883495 -0.153027
0.0243242 0.0457329 0.17068
-0.201136 0.0883495 -0.153027
-0.201136 0.0883495 0.153027
0.0243242 0.124946 -0.124947
0.0243242 0.0883495 0.153027
-0.201136 0.124946 -0.124947
-0.201136 0.124946 0.124947
-0.201136 0.153026 -0.0883504
0.0243242 0.124946 0.124947
0.0243242 0.153026 -0.0883504
-0.201136 0.153026 0.0883508
0.0243242 0.153026 0.0883508
-0.201136 0.170679 -0.0457342
0.0243242 0.170679 -0.0457342
-0.201136 0.170679 0.0457342
0.0243242 0.170679 0.0457342
-0.201136 0.176699 1.26494e-06
0.0243242 0.176699 1.26494e-06
0.201136 -0.29601 0.134664
0.201136 -0.268376 1.26494e-06
0.201136 -0.268492 -0.0344211
0.201136 -0.268252 0.0362424
0.163541 -0.268376 1.26494e-06
0.201136 -0.250434 -0.10274
-0.0657918 -0.268492 -0.0344211
0.201136 -0.264629 -0.189019
0.201136 -0.251071 0.206689
0.163541 -0.268252 0.0362424
-0.0657918 -0.268376 1.26494e-06
0.163541 -0.268492 -0.0344211
-0.0657918 -0.250434 -0.10274
0.201136 -0.304534 -0.114089
0.163541 -0.29601 0.134664
0.201136 -0.249733 0.104436
0.163541 -0.249733 0.104436
-0.0657918 -0.268252 0.0362424
0.163541 -0.304534 -0.114089
0.201136 -0.20669 -0.25107
0.163541 -0.250434 -0.10274
-0.0657918 -0.21531 -0.164056
0.201136 -0.320778 0.0534642
0.163541 -0.264629 -0.189019
0.163541 -0.251071 0.206689
0.163541 -0.320778 0.0534642
0.201136 -0.189021 0.264628
0.201136 -0.21531 -0.164056
0.163541 -0.32261 1.26494e-06
0.163541 -0.20669 -0.25107
-0.0657918 -0.249733 0.104436
0.201136 -0.32261 1.26494e-06
0.163541 -0.189021 0.264628
0.201136 -0.214193 0.165512
0.163541 -0.214193 0.165512
0.163541 -0.323686 -0.0313827
0.201136 -0.165511 -0.214191
0.201136 -0.134665 -0.296012
0.163541 -0.21531 -0.164056
-0.0657918 -0.165511 -0.214191
-0.0657918 -0.214193 0.165512
0.201136 -0.323686 -0.0313827
0.163541 -0.11409 0.304535
0.201136 -0.164057 0.215309
0.163541 -0.134665 -0.296012
0.201136 -0.11409 0.304535
0.163541 -0.164057 0.215309
-0.0657918 -0.164057 0.215309
0.163541 -0.165511 -0.214191
0.201136 -0.104434 -0.249732
0.201136 -0.0534629 -0.320778
-0.0657918 -0.176699 1.26494e-06
0.163541 -0.0313814 0.323684
0.163541 -0.102739 0.250435
0.201136 -0.102739 0.250435
-0.0657918 -0.102739 0.250435
0.163541 -0.104434 -0.249732
-0.0657918 -0.104434 -0.249732
0.163541 -0.0534629 -0.320778
-0.0657918 -0.170679 -0.0457342
0.201136 -0.0313814 0.323684
-0.0657918 -0.153026 0.0883508
-0.0657918 -0.153026 -0.0883504
0.201136 -0.0362411 -0.268251
0.163541 -0.0362411 -0.268251
0.201136 0.0313814 -0.323684
-0.0657918 -0.170679 0.0457342
0.163541 0.0534629 0.320779
0.163541 -0.0344223 0.268493
0.201136 -0.0344223 0.268493
-0.0657918 -0.0344223 0.268493
-0.0657918 -0.124946 0.124947
-0.0657918 -0.124946 -0.124947
-0.0657918 -0.0362411 -0.268251
0.163541 0.0313814 -0.323684
0.201136 0.0534629 0.320779
0.163541 0.0362411 0.268251
0.201136 0.0362411 0.268251
-0.0657918 -0.0883492 0.153027
-0.0657918 -0.0883492 -0.153027
0.201136 0.0344223 -0.268493
0.163541 0.0344223 -0.268493
0.201136 0.11409 -0.304532
0.163541 0.134665 0.296012
0.163541 0.104434 0.249732
-0.0657918 0.0362411 0.268251
-0.0657918 -0.0457329 0.17068
-0.0657918 -0.0457329 -0.17068
-0.0657918 0.0344223 -0.268493
0.163541 0.11409 -0.304532
0.201136 0.104434 0.249732
0.201136 0.134665 0.296012
-0.0657918 -5.37525e-09 0.1767
0.201136 0.102739 -0.250435
-0.0657918 0.104434 0.249732
-0.0657918 -5.37525e-09 -0.1767
0.163541 0.102739 -0.250435
0.201136 0.189021 -0.264628
0.163541 0.20669 0.25107
0.163541 0.165511 0.214192
0.201136 0.165511 0.214192
-0.0657918 0.0457329 0.17068
-0.0657918 0.0457329 -0.17068
-0.0657918 0.102739 -0.250435
0.201136 0.164057 -0.215309
0.163541 0.189021 -0.264628
-0.0657918 0.165511 0.214192
0.201136 0.20669 0.25107
0.163541 0.164057 -0.215309
-0.0657918 0.0883495 0.153027
0.201136 0.251071 -0.206689
0.201136 0.214193 -0.165512
-0.0657918 0.124946 0.124947
0.201136 0.264629 0.189019
0.163541 0.21531 0.164056
0.201136 0.21531 0.164056
-0.0657918 0.0883495 -0.153027
-0.0657918 0.164057 -0.215309
0.163541 0.214193 -0.165512
0.163541 0.251071 -0.206689
-0.0657918 0.153026 0.0883508
0.163541 0.264629 0.189019
-0.0657918 0.21531 0.164056
-0.0657918 0.124946 -0.124947
0.163541 0.29601 -0.134664
0.201136 0.249733 -0.104436
-0.0657918 0.214193 -0.165512
-0.0657918 0.170679 0.0457342
0.201136 0.304534 0.114089
0.201136 0.250434 0.10274
0.163541 0.250434 0.10274
-0.0657918 0.153026 -0.0883504
0.163541 0.249733 -0.104436
0.201136 0.29601 -0.134664
0.163541 0.268253 -0.036242
-0.0657918 0.249733 -0.104436
0.201136 0.268253 -0.036242
-0.0657918 0.170679 -0.0457342
0.163541 0.304534 0.114089
0.201136 0.268492 0.0344211
0.163541 0.268492 0.0344211
-0.0657918 0.250434 0.10274
-0.0657918 0.176699 1.26494e-06
0.163541 0.320778 -0.0534638
-0.0657918 0.268253 -0.036242
0.201136 0.323686 0.0313827
0.201136 0.320778 -0.0534638
-0.0657918 0.268492 0.0344211
0.163541 0.323686 0.0313827
3 0 1 2
3 1 0 3
3 2 1 0
3 3 0 1
3 1 3 7
3 7 3 1
3 7 3 10
3 10 3 7
3 6 4 5
3 5 4 6
3 4 9 8
3 8 9 4
3 4 6 9
3 9 6 4
3 7 10 11
3 11 10 7
3 8 9 13
3 13 9 8
3 11 10 14
3 14 10 11
3 8 13 12
3 12 13 8
3 11 14 16
3 16 14 11
3 12 13 15
3 15 13 12
3 16 14 18
3 18 14 16
3 12 15 19
3 19 15 12
3 19 15 17
3 17 15 19
3 16 18 20
3 20 18 16
3 19 17 22
3 22 17 19
3 20 18 23
3 23 18 20
3 22 17 21
3 21 17 22
3 20 23 24
3 24 23 20
3 22 21 26
3 26 21 22
3 24 23 27
3 27 23 24
3 26 21 25
3 25 21 26
3 24 27 28
3 28 27 24
3 26 25 30
3 30 25 26
3 28 27 31
3 31 27 28
3 30 25 29
3 29 25 30
3 28 31 32
3 32 31 28
3 30 29 34
3 34 29 30
3 32 31 35
3 35 31 32
3 34 29 33
3 33 29 34
3 32 35 36
3 36 35 32
3 34 33 38
3 38 33 34
3 36 35 37
3 37 35 36
3 38 33 39
3 39 33 38
3 36 37 40
3 40 37 36
3 38 39 41
3 41 39 38
3 40 37 42
3 42 37 40
3 41 39 43
3 43 39 41
3 40 42 44
3 44 42 40
3 41 43 45
3 45 43 41
3 44 42 46
3 46 42 44
3 45 43 47
3 47 43 45
3 2 4 1
3 1 4 2
3 0 5 2
3 2 5 0
3 3 6 0
3 0 6 3
3 4 2 5
3 5 2 4
3 8 1 4
3 4 1 8
3 5 0 6
3 6 0 5
3 6 3 9
3 9 3 6
3 1 8 7
3 7 8 1
3 10 9 3
3 3 9 10
3 12 7 8
3 8 7 12
3 9 10 13
3 13 10 9
3 7 12 11
3 11 12 7
3 10 15 13
3 13 15 10
3 15 10 14
3 14 10 15
3 12 16 11
3 11 16 12
3 14 17 15
3 15 17 14
3 16 12 19
3 19 12 16
3 17 14 18
3 18 14 17
3 19 20 16
3 16 20 19
3 18 21 17
3 17 21 18
3 20 19 22
3 22 19 20
3 21 18 23
3 23 18 21
3 22 24 20
3 20 24 22
3 23 25 21
3 21 25 23
3 24 22 26
3 26 22 24
3 25 23 27
3 27 23 25
3 26 28 24
3 24 28 26
3 27 29 25
3 25 29 27
3 28 26 30
3 30 26 28
3 29 27 31
3 31 27 29
3 30 32 28
3 28 32 30
3 31 33 29
3 29 33 31
3 32 30 34
3 34 30 32
3 33 31 35
3 35 31 33
3 34 36 32
3 32 36 34
3 37 33 35
3 35 33 37
3 36 34 38
3 38 34 36
3 33 37 39
3 39 37 33
3 41 36 38
3 38 36 41
3 42 39 37
3 37 39 42
3 36 41 40
3 40 41 36
3 39 42 43
3 43 42 39
3 45 40 41
3 41 40 45
3 46 43 42
3 42 43 46
3 40 45 44
3 44 45 40
3 43 46 47
3 47 46 43
3 44 47 46
3 46 47 44
3 47 44 45
3 45 44 47
3 48 49 50
3 49 48 51
3 50 49 48
3 51 48 49
3 49 53 50
3 50 53 49
3 55 48 50
3 50 48 55
3 51 48 56
3 56 48 51
3 53 49 51
3 51 49 53
3 55 50 53
3 53 50 55
3 61 48 55
3 55 48 61
3 51 56 63
3 63 56 51
3 53 51 63
3 63 51 53
3 66 52 59
3 59 52 66
3 52 62 57
3 57 62 52
3 55 53 67
3 67 53 55
3 58 60 54
3 54 60 58
3 61 70 48
3 48 70 61
3 63 56 74
3 74 56 63
3 57 72 64
3 64 72 57
3 53 63 75
3 75 63 53
3 60 58 65
3 65 58 60
3 66 76 52
3 52 76 66
3 59 71 66
3 66 71 59
3 52 73 62
3 62 73 52
3 57 62 72
3 72 62 57
3 67 53 75
3 75 53 67
3 71 59 68
3 68 59 71
3 60 78 69
3 69 78 60
3 61 79 70
3 70 79 61
3 63 74 81
3 81 74 63
3 64 72 80
3 80 72 64
3 75 63 81
3 81 63 75
3 60 65 78
3 78 65 60
3 76 66 83
3 83 66 76
3 73 52 76
3 76 52 73
3 67 75 84
3 84 75 67
3 71 68 77
3 77 68 71
3 69 78 88
3 88 78 69
3 79 61 89
3 89 61 79
3 81 74 91
3 91 74 81
3 64 80 82
3 82 80 64
3 75 81 84
3 84 81 75
3 67 84 85
3 85 84 67
3 77 68 86
3 86 68 77
3 69 88 87
3 87 88 69
3 94 80 90
3 90 80 94
3 91 74 93
3 93 74 91
3 84 81 91
3 91 81 84
3 82 80 94
3 94 80 82
3 85 84 97
3 97 84 85
3 77 96 92
3 92 96 77
3 77 86 96
3 96 86 77
3 87 88 99
3 99 88 87
3 94 90 101
3 101 90 94
3 91 93 102
3 102 93 91
3 84 91 97
3 97 91 84
3 85 97 98
3 98 97 85
3 92 96 104
3 104 96 92
3 95 99 88
3 88 99 95
3 87 99 107
3 107 99 87
3 101 90 100
3 100 90 101
3 102 93 108
3 108 93 102
3 97 91 102
3 102 91 97
3 109 95 103
3 103 95 109
3 87 110 105
3 105 110 87
3 98 97 111
3 111 97 98
3 92 104 106
3 106 104 92
3 99 95 114
3 114 95 99
3 87 107 110
3 110 107 87
3 101 100 116
3 116 100 101
3 102 108 117
3 117 108 102
3 97 102 111
3 111 102 97
3 114 95 109
3 109 95 114
3 109 103 119
3 119 103 109
3 105 110 120
3 120 110 105
3 106 104 112
3 112 104 106
3 98 111 113
3 113 111 98
3 124 100 115
3 115 100 124
3 116 100 124
3 124 100 116
3 111 102 117
3 117 102 111
3 117 108 125
3 125 108 117
3 126 103 118
3 118 103 126
3 119 103 126
3 126 103 119
3 105 120 127
3 127 120 105
3 105 127 121
3 121 127 105
3 106 112 122
3 122 112 106
3 113 111 128
3 128 111 113
3 125 108 123
3 123 108 125
3 124 115 132
3 132 115 124
3 111 117 128
3 128 117 111
3 128 117 125
3 125 117 128
3 126 118 134
3 134 118 126
3 121 127 135
3 135 127 121
3 122 112 129
3 129 112 122
3 113 128 130
3 130 128 113
3 125 123 138
3 138 123 125
3 132 115 131
3 131 115 132
3 140 118 133
3 133 118 140
3 128 125 141
3 141 125 128
3 134 118 140
3 140 118 134
3 121 135 143
3 143 135 121
3 121 143 136
3 136 143 121
3 122 129 137
3 137 129 122
3 130 128 141
3 141 128 130
3 138 123 139
3 139 123 138
3 141 125 138
3 138 125 141
3 132 131 147
3 147 131 132
3 140 133 149
3 149 133 140
3 149 133 142
3 142 133 149
3 136 143 150
3 150 143 136
3 137 129 144
3 144 129 137
3 130 141 152
3 152 141 130
3 130 152 145
3 145 152 130
3 138 139 148
3 148 139 138
3 141 138 152
3 152 138 141
3 147 131 146
3 146 131 147
3 152 138 148
3 148 138 152
3 149 142 157
3 157 142 149
3 136 150 151
3 151 150 136
3 137 144 156
3 156 144 137
3 137 156 153
3 153 156 137
3 145 152 159
3 159 152 145
3 148 139 155
3 155 139 148
3 160 142 154
3 154 142 160
3 147 146 162
3 162 146 147
3 152 148 159
3 159 148 152
3 157 142 160
3 160 142 157
3 151 150 164
3 164 150 151
3 153 156 166
3 166 156 153
3 145 159 158
3 158 159 145
3 148 155 163
3 163 155 148
3 160 154 168
3 168 154 160
3 163 155 161
3 161 155 163
3 162 146 169
3 169 146 162
3 159 148 163
3 163 148 159
3 151 164 171
3 171 164 151
3 151 171 165
3 165 171 151
3 153 166 167
3 167 166 153
3 158 159 173
3 173 159 158
3 168 154 175
3 175 154 168
3 163 161 177
3 177 161 163
3 162 169 178
3 178 169 162
3 159 163 173
3 173 163 159
3 175 154 170
3 170 154 175
3 165 171 179
3 179 171 165
3 167 166 180
3 180 166 167
3 167 182 172
3 172 182 167
3 158 173 184
3 184 173 158
3 165 185 174
3 174 185 165
3 187 161 176
3 176 161 187
3 177 161 187
3 187 161 177
3 173 163 177
3 177 163 173
3 178 169 188
3 188 169 178
3 175 170 190
3 190 170 175
3 165 179 185
3 185 179 165
3 167 180 182
3 182 180 167
3 158 184 181
3 181 184 158
3 172 182 188
3 188 182 172
3 173 177 184
3 184 177 173
3 174 185 190
3 190 185 174
3 174 170 183
3 183 170 174
3 188 169 186
3 186 169 188
3 187 176 181
3 181 176 187
3 184 177 187
3 187 177 184
3 183 170 189
3 189 170 183
3 190 170 174
3 174 170 190
3 172 186 191
3 191 186 172
3 181 184 187
3 187 184 181
3 188 186 172
3 172 186 188
3 183 189 192
3 192 189 183
3 194 176 193
3 193 176 194
3 181 176 194
3 194 176 181
3 191 186 196
3 196 186 191
3 192 189 195
3 195 189 192
3 50 52 49
3 49 52 50
3 49 54 50
3 50 54 49
3 49 57 51
3 51 57 49
3 51 58 49
3 49 58 51
3 52 50 59
3 59 50 52
3 57 49 52
3 52 49 57
3 53 59 50
3 50 59 53
3 50 60 53
3 53 60 50
3 54 49 58
3 58 49 54
3 60 50 54
3 54 50 60
3 56 62 48
3 48 62 56
3 64 51 57
3 57 51 64
3 58 51 65
3 65 51 58
3 59 53 68
3 68 53 59
3 69 53 60
3 60 53 69
3 61 71 55
3 55 71 61
3 62 56 72
3 72 56 62
3 73 48 62
3 62 48 73
3 51 64 63
3 63 64 51
3 63 65 51
3 51 65 63
3 55 77 67
3 67 77 55
3 75 68 53
3 53 68 75
3 53 69 75
3 75 69 53
3 48 73 70
3 70 73 48
3 71 61 66
3 66 61 71
3 77 55 71
3 71 55 77
3 56 80 72
3 72 80 56
3 80 56 74
3 74 56 80
3 82 63 64
3 64 63 82
3 65 63 78
3 78 63 65
3 77 85 67
3 67 85 77
3 68 75 86
3 86 75 68
3 87 75 69
3 69 75 87
3 70 76 79
3 79 76 70
3 76 70 73
3 73 70 76
3 89 66 61
3 61 66 89
3 74 90 80
3 80 90 74
3 63 82 81
3 81 82 63
3 81 78 63
3 63 78 81
3 66 89 83
3 83 89 66
3 83 79 76
3 76 79 83
3 84 86 75
3 75 86 84
3 75 87 84
3 84 87 75
3 85 77 92
3 92 77 85
3 78 81 88
3 88 81 78
3 79 83 89
3 89 83 79
3 90 74 93
3 93 74 90
3 82 91 81
3 81 91 82
3 95 81 91
3 91 81 95
3 86 84 96
3 96 84 86
3 87 97 84
3 84 97 87
3 92 98 85
3 85 98 92
3 81 95 88
3 88 95 81
3 93 100 90
3 90 100 93
3 91 82 94
3 94 82 91
3 91 103 95
3 95 103 91
3 84 104 96
3 96 104 84
3 97 87 105
3 105 87 97
3 104 84 97
3 97 84 104
3 98 92 106
3 106 92 98
3 100 93 108
3 108 93 100
3 102 94 101
3 101 94 102
3 94 102 91
3 91 102 94
3 103 91 102
3 102 91 103
3 105 111 97
3 97 111 105
3 97 112 104
3 104 112 97
3 106 113 98
3 98 113 106
3 108 115 100
3 100 115 108
3 101 117 102
3 102 117 101
3 102 118 103
3 103 118 102
3 111 105 121
3 121 105 111
3 112 97 111
3 111 97 112
3 113 106 122
3 122 106 113
3 115 108 123
3 123 108 115
3 117 101 116
3 116 101 117
3 118 102 117
3 117 102 118
3 121 128 111
3 111 128 121
3 111 129 112
3 112 129 111
3 122 130 113
3 113 130 122
3 123 131 115
3 115 131 123
3 125 116 124
3 124 116 125
3 116 125 117
3 117 125 116
3 117 133 118
3 118 133 117
3 133 117 125
3 125 117 133
3 128 121 136
3 136 121 128
3 129 111 128
3 128 111 129
3 130 122 137
3 137 122 130
3 131 123 139
3 139 123 131
3 138 124 132
3 132 124 138
3 124 138 125
3 125 138 124
3 125 142 133
3 133 142 125
3 136 141 128
3 128 141 136
3 128 144 129
3 129 144 128
3 137 145 130
3 130 145 137
3 142 125 138
3 138 125 142
3 139 146 131
3 131 146 139
3 132 148 138
3 138 148 132
3 144 128 141
3 141 128 144
3 141 136 151
3 151 136 141
3 145 137 153
3 153 137 145
3 138 154 142
3 142 154 138
3 146 139 155
3 155 139 146
3 148 132 147
3 147 132 148
3 154 138 148
3 148 138 154
3 141 156 144
3 144 156 141
3 151 152 141
3 141 152 151
3 156 141 152
3 152 141 156
3 153 158 145
3 145 158 153
3 161 146 155
3 155 146 161
3 162 148 147
3 147 148 162
3 163 154 148
3 148 154 163
3 152 151 165
3 165 151 152
3 152 166 156
3 156 166 152
3 158 153 167
3 167 153 158
3 166 152 159
3 159 152 166
3 165 159 152
3 152 159 165
3 146 161 169
3 169 161 146
3 148 162 163
3 163 162 148
3 154 163 170
3 170 163 154
3 172 158 167
3 167 158 172
3 173 166 159
3 159 166 173
3 159 165 174
3 174 165 159
3 176 169 161
3 161 169 176
3 178 163 162
3 162 163 178
3 177 170 163
3 163 170 177
3 158 172 181
3 181 172 158
3 159 183 173
3 173 183 159
3 166 173 180
3 180 173 166
3 183 159 174
3 174 159 183
3 169 176 186
3 186 176 169
3 163 178 177
3 177 178 163
3 170 177 189
3 189 177 170
3 191 181 172
3 172 181 191
3 192 173 183
3 183 173 192
3 184 180 173
3 173 180 184
3 173 192 184
3 184 192 173
3 193 186 176
3 176 186 193
3 177 188 187
3 187 188 177
3 187 189 177
3 177 189 187
3 188 177 178
3 178 177 188
3 180 184 182
3 182 184 180
3 181 191 194
3 194 191 181
3 182 187 188
3 188 187 182
3 195 184 192
3 192 184 195
3 186 193 196
3 196 193 186
3 187 182 184
3 184 182 187
3 184 195 187
3 187 195 184
3 189 187 195
3 195 187 189
3 196 194 191
3 191 194 196
3 194 196 193
3 193 196 194
