ply
format ascii 1.0
comment Generated by PyMesh
element vertex 560
property double x
property double y
property double z
element face 2208
property list uchar int vertex_indices
end_header
0.330108 -0.153468 -0.212199
0.330108 -0.153468 -0.220336
0.330629 -0.153348 -0.216267
0.328577 -0.15382 -0.208407
0.352456 -0.148329 -0.25971
0.319183 -0.155981 -0.0440483
0.328577 -0.15382 -0.224128
0.346721 -0.149647 0.0110075
0.332992 -0.152805 -0.0284045
0.326141 -0.154379 -0.205151
0.326141 -0.154379 -0.227385
0.352456 -0.148329 0.257332
0.342385 -0.150644 -0.00962534
0.328253 -0.153895 0.0699182
0.322968 -0.15511 -0.202652
0.322968 -0.15511 -0.229882
0.345705 -0.149881 0.0320895
0.35685 -0.167432 0.257332
0.339406 -0.15133 0.0521834
0.313006 -0.157401 0.0840895
0.319272 -0.155959 -0.201081
0.319272 -0.155959 -0.231454
0.35685 -0.167432 -0.25971
0.184493 -0.186952 0.257332
0.301898 -0.159955 -0.0554927
0.315308 -0.156871 -0.200546
0.184493 -0.186952 -0.25971
0.188886 -0.206054 -0.25971
0.359356 -0.166855 -0.262282
0.188886 -0.206054 0.257332
0.294705 -0.161609 0.0937266
0.315308 -0.156871 -0.231989
0.186379 -0.206631 -0.262282
0.359356 -0.166855 0.259904
0.186379 -0.206631 0.259904
0.274598 -0.166233 0.0981756
0.282314 -0.164458 -0.0619559
0.311341 -0.157782 -0.201081
0.311341 -0.157782 -0.231454
0.180614 -0.181561 -0.262282
0.353592 -0.141785 0.259904
0.254052 -0.170957 0.097134
0.300507 -0.160274 -0.212199
0.307646 -0.158633 -0.202652
0.307646 -0.158633 -0.229882
0.189645 -0.185767 0.0241706
0.353592 -0.141785 -0.262282
0.234469 -0.17546 0.0906708
0.261769 -0.169182 -0.0629975
0.302038 -0.159923 -0.208407
0.299985 -0.160395 -0.216267
0.304472 -0.159362 -0.205151
0.304472 -0.159362 -0.227385
0.190662 -0.185533 0.00308863
0.193982 -0.184769 0.0448035
0.180614 -0.181561 0.259904
0.120506 0.200539 -0.262282
0.240759 0.22819 0.259904
0.217184 -0.179434 0.0792264
0.241661 -0.173806 -0.0585485
0.28051 -0.164873 -0.200751
0.302038 -0.159923 -0.224128
0.295832 -0.161349 -0.216472
0.300507 -0.160274 -0.220336
0.284475 -0.163961 -0.231659
0.196637 -0.184159 -0.216722
0.203375 -0.18261 0.0635827
0.120506 0.200539 0.259904
0.240759 0.22819 -0.262282
0.22336 -0.178014 -0.0489114
0.261306 -0.169289 -0.215988
0.284475 -0.163961 -0.201287
0.276545 -0.165785 -0.201287
0.29531 -0.16147 -0.212403
0.29531 -0.16147 -0.220542
0.291345 -0.162382 -0.22759
0.28817 -0.163111 -0.230088
0.28051 -0.164873 -0.232195
0.19716 -0.184039 -0.220792
0.196961 -0.184085 -0.0170053
0.208114 -0.18152 -0.0347417
0.238323 -0.174574 -0.202372
0.260784 -0.169408 -0.21192
0.265188 -0.168396 -0.216472
0.28817 -0.163111 -0.202857
0.272848 -0.166634 -0.202857
0.293779 -0.161821 -0.208612
0.293779 -0.161821 -0.224334
0.276545 -0.165785 -0.231659
0.19869 -0.183687 -0.224584
0.19716 -0.184039 -0.212653
0.222794 -0.178144 -0.205606
0.242019 -0.173723 -0.200802
0.23515 -0.175303 -0.204871
0.259253 -0.169761 -0.208128
0.260784 -0.169408 -0.220057
0.26571 -0.168277 -0.212403
0.291345 -0.162382 -0.205356
0.269675 -0.167365 -0.205356
0.272848 -0.166634 -0.230088
0.201125 -0.183127 -0.22784
0.19869 -0.183687 -0.208861
0.207994 -0.181547 -0.201536
0.225229 -0.177584 -0.208861
0.219621 -0.178874 -0.203107
0.245984 -0.172811 -0.200267
0.242019 -0.173723 -0.231175
0.232716 -0.175864 -0.208128
0.238323 -0.174574 -0.229604
0.256819 -0.17032 -0.204871
0.259253 -0.169761 -0.223849
0.267241 -0.167924 -0.208612
0.26571 -0.168277 -0.220542
0.269675 -0.167365 -0.22759
0.204299 -0.182397 -0.230338
0.201125 -0.183127 -0.205606
0.21196 -0.180636 -0.201
0.204299 -0.182397 -0.203107
0.22676 -0.177232 -0.212653
0.225229 -0.177584 -0.224584
0.215925 -0.179723 -0.201536
0.222794 -0.178144 -0.22784
0.24995 -0.1719 -0.200802
0.245984 -0.172811 -0.23171
0.231185 -0.176215 -0.21192
0.23515 -0.175303 -0.227105
0.253645 -0.171051 -0.202372
0.256819 -0.17032 -0.227105
0.267241 -0.167924 -0.224334
0.207994 -0.181547 -0.231908
0.21196 -0.180636 -0.232444
0.227282 -0.177112 -0.216722
0.22676 -0.177232 -0.220792
0.219621 -0.178874 -0.230338
0.24995 -0.1719 -0.231175
0.230663 -0.176336 -0.215988
0.232716 -0.175864 -0.223849
0.253645 -0.171051 -0.229604
0.215925 -0.179723 -0.231908
0.231185 -0.176215 -0.220057
-0.0230847 -0.206816 -0.209958
-0.0230847 -0.206816 -0.218096
-0.0225497 -0.20684 -0.214026
-0.0246541 -0.206751 -0.206167
-0.000171929 -0.207777 -0.257469
-0.034285 -0.206347 -0.0418079
-0.0246541 -0.206751 -0.221887
-0.00605213 -0.20753 0.0132484
-0.0201265 -0.206941 -0.0261641
-0.0271503 -0.206647 -0.20291
-0.0271503 -0.206647 -0.225144
-0.000171929 -0.207777 0.259572
-0.0104984 -0.207344 -0.00738439
-0.0249857 -0.206737 0.0721586
-0.0304033 -0.20651 -0.200411
-0.0304033 -0.20651 -0.227643
-0.00709375 -0.207487 0.0343299
-0.000993408 -0.227362 0.259572
-0.0135519 -0.207217 0.0544238
-0.0406155 -0.206082 0.0863288
-0.0341925 -0.206351 -0.198841
-0.0341925 -0.206351 -0.229214
-0.000993408 -0.227362 -0.257469
-0.172369 -0.200561 0.259572
-0.0520059 -0.205605 -0.0532523
-0.0382581 -0.206181 -0.198306
-0.172369 -0.200561 -0.257469
-0.173189 -0.220144 -0.257469
0.00157747 -0.227469 -0.260042
-0.173189 -0.220144 0.259572
-0.059378 -0.205297 0.095967
-0.0382581 -0.206181 -0.229749
-0.175759 -0.220036 -0.260042
0.00157747 -0.227469 0.262145
-0.175759 -0.220036 0.262145
-0.079993 -0.204432 0.100416
-0.072082 -0.204764 -0.0597149
-0.0423237 -0.20601 -0.198841
-0.0423237 -0.20601 -0.229214
-0.174683 -0.194335 -0.260042
0.0026542 -0.201768 0.262145
-0.101057 -0.203548 0.0993744
-0.0534309 -0.205545 -0.209958
-0.0461112 -0.205852 -0.200411
-0.0461112 -0.205852 -0.227643
-0.167085 -0.200782 0.026411
0.0026542 -0.201768 -0.260042
-0.121133 -0.202707 0.0929101
-0.0931439 -0.203881 -0.0607582
-0.0518621 -0.205612 -0.206167
-0.053966 -0.205523 -0.214026
-0.0493653 -0.205716 -0.20291
-0.0493653 -0.205716 -0.225144
-0.166043 -0.200826 0.00532902
-0.16264 -0.200969 0.0470439
-0.174683 -0.194335 0.262145
-0.131498 0.190045 -0.260042
-0.0082145 0.184878 0.262145
-0.138852 -0.201965 0.0814668
-0.113759 -0.203016 -0.0563081
-0.0739311 -0.204685 -0.198511
-0.0518621 -0.205612 -0.221887
-0.0582233 -0.205344 -0.214232
-0.0534309 -0.205545 -0.218096
-0.0698655 -0.204856 -0.229419
-0.159917 -0.201082 -0.214482
-0.15301 -0.201371 0.0658231
-0.131498 0.190045 0.262145
-0.0082145 0.184878 -0.260042
-0.132521 -0.20223 -0.046671
-0.0936187 -0.203861 -0.213749
-0.0698655 -0.204856 -0.199046
-0.0779967 -0.204516 -0.199046
-0.0587583 -0.205322 -0.210164
-0.0587583 -0.205322 -0.218302
-0.0628239 -0.205151 -0.22535
-0.066078 -0.205015 -0.227848
-0.0739311 -0.204685 -0.229954
-0.159382 -0.201105 -0.218551
-0.159585 -0.201096 -0.0147649
-0.148152 -0.201575 -0.0325008
-0.117181 -0.202873 -0.200133
-0.0941538 -0.203838 -0.209679
-0.0896395 -0.204027 -0.214232
-0.066078 -0.205015 -0.200617
-0.0817859 -0.204356 -0.200617
-0.0603288 -0.205257 -0.206371
-0.0603288 -0.205257 -0.222093
-0.0779967 -0.204516 -0.229419
-0.157813 -0.20117 -0.222343
-0.159382 -0.201105 -0.210412
-0.133102 -0.202206 -0.203366
-0.113392 -0.203032 -0.198562
-0.120434 -0.202737 -0.202631
-0.0957232 -0.203772 -0.205887
-0.0941538 -0.203838 -0.217817
-0.0891045 -0.20405 -0.210164
-0.0628239 -0.205151 -0.203116
-0.0850389 -0.20422 -0.203116
-0.0817859 -0.204356 -0.227848
-0.155317 -0.201275 -0.2256
-0.157813 -0.20117 -0.206621
-0.148275 -0.20157 -0.199296
-0.130605 -0.202311 -0.206621
-0.136356 -0.202069 -0.200866
-0.109327 -0.203202 -0.198026
-0.113392 -0.203032 -0.228934
-0.122931 -0.202633 -0.205887
-0.117181 -0.202873 -0.227364
-0.0982193 -0.203668 -0.202631
-0.0957232 -0.203772 -0.221609
-0.0875351 -0.204116 -0.206371
-0.0891045 -0.20405 -0.218302
-0.0850389 -0.20422 -0.22535
-0.152064 -0.201411 -0.228097
-0.155317 -0.201275 -0.203366
-0.144209 -0.20174 -0.198759
-0.152064 -0.201411 -0.200866
-0.129036 -0.202377 -0.210412
-0.130605 -0.202311 -0.222343
-0.140144 -0.201911 -0.199296
-0.133102 -0.202206 -0.2256
-0.105261 -0.203372 -0.198562
-0.109327 -0.203202 -0.229469
-0.1245 -0.202566 -0.209679
-0.120434 -0.202737 -0.224865
-0.101473 -0.203532 -0.200133
-0.0982193 -0.203668 -0.224865
-0.0875351 -0.204116 -0.222093
-0.148275 -0.20157 -0.229667
-0.144209 -0.20174 -0.230204
-0.128501 -0.202399 -0.214482
-0.129036 -0.202377 -0.218551
-0.136356 -0.202069 -0.228097
-0.105261 -0.203372 -0.228934
-0.125035 -0.202544 -0.213749
-0.122931 -0.202633 -0.221609
-0.101473 -0.203532 -0.227364
-0.140144 -0.201911 -0.229667
-0.1245 -0.202566 -0.217817
0.156453 -0.194112 -0.20982
0.156453 -0.194112 -0.217958
0.156986 -0.194062 -0.21389
0.154889 -0.194264 -0.206029
0.17928 -0.191915 -0.257332
0.145294 -0.195187 -0.0416702
0.154889 -0.194264 -0.221751
0.173422 -0.192478 0.0133861
0.1594 -0.193829 -0.0260265
0.152402 -0.194503 -0.202773
0.152402 -0.194503 -0.225007
0.17928 -0.191915 0.25971
0.168994 -0.192905 -0.0072484
0.154559 -0.194295 0.0722962
0.149162 -0.194814 -0.200275
0.149162 -0.194814 -0.227506
0.172384 -0.192579 0.0344675
0.181159 -0.211425 0.25971
0.165951 -0.193197 0.0545603
0.138987 -0.195794 0.0864665
0.145387 -0.195178 -0.198703
0.145387 -0.195178 -0.229076
0.181159 -0.211425 -0.257332
0.00772686 -0.208433 0.25971
0.12764 -0.196887 -0.0531147
0.141337 -0.195568 -0.198168
0.00772686 -0.208433 -0.257332
0.00960445 -0.227945 -0.257332
0.183719 -0.21118 -0.259904
0.00960445 -0.227945 0.25971
0.120295 -0.197593 0.0961046
0.141337 -0.195568 -0.229611
0.00704471 -0.22819 -0.259904
0.183719 -0.21118 0.262282
0.00704471 -0.22819 0.262282
0.0997575 -0.199572 0.100554
0.107639 -0.198813 -0.0595773
0.137287 -0.195958 -0.198703
0.137287 -0.195958 -0.229076
0.00457916 -0.202585 -0.259904
0.181253 -0.185574 0.262282
0.0787725 -0.201592 0.099512
0.12622 -0.197024 -0.20982
0.133512 -0.196322 -0.200275
0.133512 -0.196322 -0.227506
0.0129896 -0.207927 0.0265487
0.181253 -0.185574 -0.259904
0.0587711 -0.203518 0.0930478
0.0866551 -0.200833 -0.0606205
0.127783 -0.196873 -0.206029
0.125686 -0.197075 -0.21389
0.13027 -0.196634 -0.202773
0.13027 -0.196634 -0.225007
0.0140278 -0.207826 0.00546668
0.0174191 -0.2075 0.0471815
0.00457916 -0.202585 0.262282
-0.00547866 0.184083 -0.259904
0.117346 0.195909 0.262282
0.0411171 -0.205218 0.0816045
0.0661165 -0.20281 -0.0561704
0.105796 -0.19899 -0.198374
0.127783 -0.196873 -0.221751
0.121445 -0.197483 -0.214094
0.12622 -0.197024 -0.217958
0.109846 -0.198601 -0.229282
0.0201304 -0.207238 -0.214344
0.0270127 -0.206576 0.0659596
-0.00547866 0.184083 0.262282
0.117346 0.195909 -0.259904
0.0474242 -0.204611 -0.0465334
0.086182 -0.200878 -0.213611
0.109846 -0.198601 -0.198909
0.101746 -0.19938 -0.198909
0.120913 -0.197534 -0.210027
0.120913 -0.197534 -0.218164
0.116861 -0.197924 -0.225212
0.11362 -0.198237 -0.227711
0.105796 -0.19899 -0.229817
0.0206643 -0.207187 -0.218414
0.0204609 -0.207207 -0.0146272
0.0318529 -0.20611 -0.0323631
0.062708 -0.203139 -0.199995
0.0856481 -0.20093 -0.209542
0.0901461 -0.200498 -0.214094
0.11362 -0.198237 -0.200479
0.0979708 -0.199744 -0.200479
0.119349 -0.197685 -0.206235
0.119349 -0.197685 -0.221956
0.101746 -0.19938 -0.229282
0.022227 -0.207037 -0.222205
0.0206643 -0.207187 -0.210276
0.0468457 -0.204666 -0.203228
0.0664815 -0.202775 -0.198424
0.0594666 -0.203451 -0.202493
0.0840854 -0.201081 -0.20575
0.0856481 -0.20093 -0.217679
0.0906795 -0.200446 -0.210027
0.116861 -0.197924 -0.202978
0.09473 -0.200055 -0.202978
0.0979708 -0.199744 -0.227711
0.0247143 -0.206797 -0.225462
0.022227 -0.207037 -0.206483
0.0317303 -0.206122 -0.199158
0.049333 -0.204427 -0.206483
0.0436044 -0.204979 -0.200729
0.0705332 -0.202386 -0.197889
0.0664815 -0.202775 -0.228797
0.0569793 -0.203691 -0.20575
0.062708 -0.203139 -0.227226
0.0815981 -0.20132 -0.202493
0.0840854 -0.201081 -0.221472
0.0922422 -0.200296 -0.206235
0.0906795 -0.200446 -0.218164
0.09473 -0.200055 -0.225212
0.0279556 -0.206485 -0.22796
0.0247143 -0.206797 -0.203228
0.0357809 -0.205732 -0.198623
0.0279556 -0.206485 -0.200729
0.0508968 -0.204277 -0.210276
0.049333 -0.204427 -0.222205
0.0398308 -0.205341 -0.199158
0.0468457 -0.204666 -0.225462
0.0745832 -0.201996 -0.198424
0.0705332 -0.202386 -0.229332
0.0554166 -0.203841 -0.209542
0.0594666 -0.203451 -0.224727
0.0783567 -0.201632 -0.199995
0.0815981 -0.20132 -0.224727
0.0922422 -0.200296 -0.221956
0.0317303 -0.206122 -0.229531
0.0357809 -0.205732 -0.230066
0.0514296 -0.204225 -0.214344
0.0508968 -0.204277 -0.218414
0.0436044 -0.204979 -0.22796
0.0745832 -0.201996 -0.228797
0.0548827 -0.203892 -0.213611
0.0569793 -0.203691 -0.221472
0.0783567 -0.201632 -0.227226
0.0398308 -0.205341 -0.229531
0.0554166 -0.203841 -0.217679
-0.206466 -0.198791 -0.210235
-0.206466 -0.198791 -0.218373
-0.20594 -0.198895 -0.214304
-0.208006 -0.198485 -0.206443
-0.183974 -0.203264 -0.257748
-0.217461 -0.196603 -0.0420854
-0.208006 -0.198485 -0.222165
-0.189746 -0.202117 0.0129703
-0.203562 -0.199368 -0.0264406
-0.210457 -0.197998 -0.203187
-0.210457 -0.197998 -0.225421
-0.183974 -0.203264 0.259295
-0.19411 -0.201249 -0.00766249
-0.208331 -0.198419 0.0718822
-0.213651 -0.197362 -0.200689
-0.213651 -0.197362 -0.22792
-0.190768 -0.201913 0.0340524
-0.187797 -0.222489 0.259295
-0.197108 -0.200652 0.0541463
-0.223675 -0.195367 0.0860518
-0.217369 -0.196621 -0.199118
-0.217369 -0.196621 -0.22949
-0.187797 -0.222489 -0.257748
-0.353009 -0.169641 0.259295
-0.234856 -0.193143 -0.0535287
-0.22136 -0.195827 -0.198582
-0.353009 -0.169641 -0.257748
-0.356833 -0.188865 -0.257748
-0.185275 -0.222992 -0.26032
-0.356833 -0.188865 0.259295
-0.242093 -0.191704 0.0956905
-0.22136 -0.195827 -0.230026
-0.359356 -0.188364 -0.26032
-0.185275 -0.222992 0.261867
-0.359356 -0.188364 0.261867
-0.26233 -0.187678 0.10014
-0.254563 -0.189223 -0.0599919
-0.225351 -0.195034 -0.199118
-0.225351 -0.195034 -0.22949
-0.354338 -0.163134 -0.26032
-0.180257 -0.197762 0.261867
-0.283006 -0.183565 0.0990963
-0.236254 -0.192866 -0.210235
-0.22907 -0.194295 -0.200689
-0.22907 -0.194295 -0.22792
-0.347823 -0.170672 0.0261329
-0.180257 -0.197762 -0.26032
-0.302713 -0.179646 0.0926337
-0.275239 -0.185111 -0.0610346
-0.234715 -0.193172 -0.206443
-0.23678 -0.192762 -0.214304
-0.232263 -0.193659 -0.203187
-0.232263 -0.193659 -0.225421
-0.346801 -0.170876 0.00505148
-0.343459 -0.171541 0.0467674
-0.354338 -0.163134 0.261867
-0.252532 0.210026 -0.26032
-0.131511 0.185954 0.261867
-0.320109 -0.176185 0.0811893
-0.295476 -0.181085 -0.0565856
-0.256379 -0.188861 -0.198788
-0.234715 -0.193172 -0.222165
-0.24096 -0.191929 -0.21451
-0.236254 -0.192866 -0.218373
-0.252389 -0.189657 -0.229696
-0.340787 -0.172072 -0.214759
-0.334007 -0.173421 0.0655455
-0.252532 0.210026 0.261867
-0.131511 0.185954 -0.26032
-0.313894 -0.177423 -0.0469474
-0.275705 -0.185019 -0.214025
-0.252389 -0.189657 -0.199324
-0.26037 -0.188068 -0.199324
-0.241485 -0.191825 -0.210441
-0.241485 -0.191825 -0.218578
-0.245476 -0.191032 -0.225626
-0.24867 -0.190396 -0.228125
-0.256379 -0.188861 -0.230232
-0.340262 -0.172177 -0.218828
-0.340461 -0.172138 -0.0150413
-0.329238 -0.17437 -0.0327772
-0.298836 -0.180417 -0.20041
-0.276231 -0.184913 -0.209956
-0.271799 -0.185796 -0.21451
-0.24867 -0.190396 -0.200894
-0.264089 -0.187328 -0.200894
-0.243026 -0.191519 -0.206649
-0.243026 -0.191519 -0.222371
-0.26037 -0.188068 -0.229696
-0.338721 -0.172484 -0.22262
-0.340262 -0.172177 -0.21069
-0.314464 -0.177308 -0.203642
-0.295116 -0.181158 -0.198839
-0.302029 -0.179782 -0.202909
-0.277772 -0.184607 -0.206164
-0.276231 -0.184913 -0.218095
-0.271274 -0.185899 -0.210441
-0.245476 -0.191032 -0.203392
-0.267283 -0.186693 -0.203392
-0.264089 -0.187328 -0.228125
-0.336271 -0.172971 -0.225876
-0.338721 -0.172484 -0.206898
-0.329357 -0.174346 -0.199572
-0.312014 -0.177795 -0.206898
-0.317657 -0.176674 -0.201144
-0.291125 -0.181951 -0.198303
-0.295116 -0.181158 -0.229211
-0.304479 -0.179295 -0.206164
-0.298836 -0.180417 -0.22764
-0.280222 -0.184119 -0.202909
-0.277772 -0.184607 -0.221886
-0.269733 -0.186206 -0.206649
-0.271274 -0.185899 -0.218578
-0.267283 -0.186693 -0.225626
-0.333077 -0.173606 -0.228375
-0.336271 -0.172971 -0.203642
-0.325367 -0.175139 -0.199037
-0.333077 -0.173606 -0.201144
-0.310473 -0.178103 -0.21069
-0.312014 -0.177795 -0.22262
-0.321376 -0.175933 -0.199572
-0.314464 -0.177308 -0.225876
-0.287134 -0.182744 -0.198839
-0.291125 -0.181951 -0.229747
-0.30602 -0.178988 -0.209956
-0.302029 -0.179782 -0.225143
-0.283415 -0.183484 -0.20041
-0.280222 -0.184119 -0.225143
-0.269733 -0.186206 -0.222371
-0.329357 -0.174346 -0.229945
-0.325367 -0.175139 -0.23048
-0.309948 -0.178207 -0.214759
-0.310473 -0.178103 -0.218828
-0.317657 -0.176674 -0.228375
-0.287134 -0.182744 -0.229211
-0.306545 -0.178883 -0.214025
-0.304479 -0.179295 -0.221886
-0.283415 -0.183484 -0.22764
-0.321376 -0.175933 -0.229945
-0.30602 -0.178988 -0.218095
3 0 1 2
3 1 0 3
3 1 3 6
3 6 3 9
3 8 13 5
3 6 9 10
3 16 12 7
3 12 18 8
3 8 18 13
3 5 13 19
3 10 9 14
3 10 14 15
3 12 16 18
3 5 19 24
3 15 14 20
3 15 20 21
3 24 19 30
3 21 20 25
3 24 30 36
3 21 25 31
3 36 30 35
3 31 25 37
3 31 37 38
3 48 35 41
3 36 35 48
3 38 37 43
3 38 43 44
3 59 41 47
3 48 41 59
3 61 49 42
3 63 42 50
3 44 43 51
3 44 51 52
3 53 54 45
3 69 47 58
3 59 47 69
3 52 51 49
3 52 49 61
3 61 42 63
3 79 54 53
3 79 66 54
3 80 58 66
3 69 58 80
3 64 71 60
3 77 60 72
3 73 74 62
3 76 71 64
3 64 60 77
3 78 90 65
3 80 66 79
3 82 95 70
3 76 84 71
3 88 72 85
3 77 72 88
3 74 73 86
3 74 86 87
3 87 97 75
3 89 90 78
3 106 92 81
3 108 81 93
3 95 82 94
3 112 96 83
3 75 97 84
3 75 84 76
3 99 85 98
3 88 85 99
3 87 86 97
3 100 101 89
3 89 101 90
3 119 103 91
3 121 91 104
3 123 105 92
3 123 92 106
3 106 81 108
3 125 93 107
3 108 93 125
3 110 94 109
3 95 94 110
3 128 111 96
3 128 96 112
3 113 98 111
3 99 98 113
3 114 115 100
3 100 115 101
3 130 116 102
3 129 102 117
3 132 118 103
3 132 103 119
3 119 91 121
3 133 104 120
3 121 104 133
3 134 122 105
3 134 105 123
3 136 107 124
3 125 107 136
3 127 109 126
3 110 109 127
3 113 111 128
3 129 117 114
3 114 117 115
3 138 120 116
3 138 116 130
3 130 102 129
3 118 132 131
3 133 120 138
3 137 126 122
3 137 122 134
3 139 124 135
3 136 124 139
3 127 126 137
3 2 1 0
3 3 0 1
3 2 4 1
3 0 5 2
3 3 5 0
3 6 3 1
3 1 4 6
3 7 4 2
3 8 2 5
3 9 5 3
3 9 3 6
3 6 4 10
3 4 7 11
3 12 7 2
3 8 12 2
3 5 13 8
3 14 5 9
3 10 9 6
3 10 4 15
3 16 11 7
3 11 17 4
3 7 12 16
3 8 18 12
3 13 18 8
3 19 13 5
3 20 5 14
3 14 9 10
3 15 4 21
3 15 14 10
3 18 11 16
3 22 4 17
3 11 23 17
3 18 16 12
3 13 11 18
3 19 23 13
3 24 19 5
3 25 5 20
3 20 14 15
3 26 21 4
3 21 20 15
3 22 27 4
3 17 28 22
3 29 17 23
3 23 11 13
3 30 23 19
3 30 19 24
3 24 5 25
3 25 20 21
3 31 21 26
3 26 4 27
3 27 22 32
3 32 22 28
3 28 17 33
3 29 34 17
3 29 23 27
3 35 23 30
3 36 30 24
3 37 24 25
3 31 25 21
3 38 31 26
3 26 27 23
3 34 27 32
3 32 28 39
3 34 33 17
3 33 40 28
3 27 34 29
3 41 23 35
3 35 30 36
3 36 24 42
3 43 24 37
3 37 25 31
3 38 37 31
3 44 38 26
3 23 45 26
3 32 39 34
3 46 39 28
3 33 34 40
3 46 28 40
3 47 23 41
3 41 35 48
3 48 35 36
3 42 24 49
3 50 36 42
3 51 24 43
3 43 37 38
3 44 43 38
3 52 44 26
3 45 53 26
3 45 23 54
3 55 34 39
3 56 39 46
3 55 40 34
3 40 57 46
3 58 23 47
3 47 41 59
3 59 41 48
3 48 36 60
3 49 24 51
3 42 49 61
3 62 36 50
3 50 42 63
3 51 43 44
3 52 51 44
3 64 52 26
3 53 65 26
3 45 54 53
3 54 23 66
3 55 39 67
3 56 67 39
3 68 56 46
3 57 40 55
3 68 46 57
3 66 23 58
3 58 47 69
3 69 47 59
3 48 70 59
3 60 36 71
3 72 48 60
3 49 51 52
3 61 49 52
3 63 42 61
3 73 36 62
3 62 50 74
3 50 63 75
3 76 52 64
3 77 64 26
3 65 78 26
3 53 79 65
3 53 54 79
3 54 66 79
3 67 57 55
3 67 56 57
3 68 57 56
3 66 58 80
3 80 58 69
3 69 59 81
3 82 59 70
3 48 83 70
3 71 36 84
3 60 71 64
3 85 48 72
3 72 60 77
3 61 52 76
3 63 61 75
3 86 36 73
3 62 74 73
3 74 50 87
3 87 50 75
3 64 71 76
3 77 60 64
3 88 77 26
3 78 89 26
3 65 90 78
3 65 79 90
3 79 66 80
3 80 69 91
3 81 59 92
3 93 69 81
3 94 59 82
3 70 95 82
3 70 83 95
3 83 48 96
3 84 36 97
3 71 84 76
3 98 48 85
3 85 72 88
3 88 72 77
3 75 61 76
3 97 36 86
3 86 73 74
3 87 86 74
3 75 97 87
3 99 88 26
3 89 100 26
3 78 90 89
3 90 79 101
3 79 80 102
3 91 69 103
3 104 80 91
3 92 59 105
3 81 92 106
3 107 69 93
3 93 81 108
3 109 59 94
3 94 82 95
3 95 83 110
3 96 48 111
3 83 96 112
3 84 97 75
3 76 84 75
3 111 48 98
3 98 85 99
3 99 85 88
3 97 86 87
3 113 99 26
3 100 114 26
3 89 101 100
3 90 101 89
3 101 79 115
3 102 80 116
3 117 79 102
3 103 69 118
3 91 103 119
3 120 80 104
3 104 91 121
3 105 59 122
3 92 105 123
3 106 92 123
3 108 81 106
3 124 69 107
3 107 93 125
3 125 93 108
3 126 59 109
3 109 94 110
3 110 94 95
3 110 83 127
3 96 111 128
3 112 96 128
3 83 112 127
3 111 98 113
3 113 98 99
3 128 113 26
3 114 129 26
3 100 115 114
3 101 115 100
3 115 79 117
3 116 80 120
3 102 116 130
3 117 102 129
3 118 69 131
3 103 118 132
3 119 103 132
3 121 91 119
3 120 104 133
3 133 104 121
3 122 59 126
3 105 122 134
3 123 105 134
3 106 123 26
3 108 106 26
3 135 69 124
3 124 107 136
3 136 107 125
3 125 108 26
3 126 109 127
3 127 109 110
3 128 111 113
3 112 128 137
3 127 112 137
3 137 128 26
3 129 130 26
3 114 117 129
3 115 117 114
3 116 120 138
3 130 116 138
3 129 102 130
3 131 69 135
3 131 132 118
3 132 135 119
3 119 139 121
3 138 120 133
3 133 121 26
3 122 126 137
3 134 122 137
3 123 134 26
3 135 124 139
3 139 124 136
3 136 125 26
3 137 126 127
3 134 137 26
3 130 138 26
3 131 135 132
3 135 139 119
3 139 136 121
3 138 133 26
3 121 136 26
3 1 4 2
3 2 5 0
3 0 5 3
3 6 4 1
3 2 4 7
3 5 2 8
3 3 5 9
3 10 4 6
3 11 7 4
3 2 7 12
3 2 12 8
3 9 5 14
3 15 4 10
3 7 11 16
3 14 5 20
3 21 4 15
3 16 11 18
3 18 11 13
3 13 23 19
3 20 5 25
3 4 21 26
3 22 28 17
3 13 11 23
3 19 23 30
3 25 5 24
3 26 21 31
3 32 22 27
3 28 22 32
3 33 17 28
3 17 34 29
3 30 23 35
3 25 24 37
3 26 31 38
3 32 27 34
3 17 33 34
3 29 34 27
3 35 23 41
3 42 24 36
3 37 24 43
3 26 38 44
3 26 45 23
3 41 23 47
3 49 24 42
3 42 36 50
3 43 24 51
3 26 44 52
3 26 53 45
3 54 23 45
3 47 23 58
3 60 36 48
3 51 24 49
3 50 36 62
3 26 52 64
3 26 65 53
3 66 23 54
3 58 23 66
3 59 70 48
3 71 36 60
3 60 48 72
3 62 36 73
3 74 50 62
3 75 63 50
3 64 52 76
3 26 64 77
3 26 78 65
3 65 79 53
3 81 59 69
3 70 59 82
3 70 83 48
3 84 36 71
3 72 48 85
3 76 52 61
3 75 61 63
3 73 36 86
3 87 50 74
3 75 50 87
3 26 77 88
3 26 89 78
3 90 79 65
3 91 69 80
3 92 59 81
3 81 69 93
3 82 59 94
3 95 83 70
3 96 48 83
3 97 36 84
3 85 48 98
3 76 61 75
3 86 36 97
3 26 88 99
3 26 100 89
3 101 79 90
3 102 80 79
3 103 69 91
3 91 80 104
3 105 59 92
3 93 69 107
3 94 59 109
3 110 83 95
3 111 48 96
3 98 48 111
3 26 99 113
3 26 114 100
3 115 79 101
3 116 80 102
3 102 79 117
3 118 69 103
3 104 80 120
3 122 59 105
3 107 69 124
3 109 59 126
3 127 83 110
3 127 112 83
3 26 113 128
3 26 129 114
3 117 79 115
3 120 80 116
3 131 69 118
3 126 59 122
3 26 123 106
3 26 106 108
3 124 69 135
3 26 108 125
3 137 128 112
3 137 112 127
3 26 128 137
3 26 130 129
3 135 69 131
3 119 135 132
3 121 139 119
3 26 121 133
3 26 134 123
3 26 125 136
3 26 137 134
3 26 138 130
3 132 135 131
3 119 139 135
3 121 136 139
3 26 133 138
3 26 136 121
3 4 17 11
3 17 4 22
3 17 23 11
3 4 27 22
3 23 17 29
3 27 4 26
3 27 23 29
3 23 27 26
3 39 28 32
3 28 40 33
3 34 39 32
3 28 39 46
3 40 34 33
3 40 28 46
3 39 34 55
3 46 39 56
3 34 40 55
3 46 57 40
3 67 39 55
3 39 67 56
3 46 56 68
3 55 40 57
3 57 46 68
3 55 57 67
3 57 56 67
3 56 57 68
3 140 141 142
3 141 140 143
3 141 143 146
3 146 143 149
3 148 153 145
3 146 149 150
3 156 152 147
3 152 158 148
3 148 158 153
3 145 153 159
3 150 149 154
3 150 154 155
3 152 156 158
3 145 159 164
3 155 154 160
3 155 160 161
3 164 159 170
3 161 160 165
3 164 170 176
3 161 165 171
3 176 170 175
3 171 165 177
3 171 177 178
3 188 175 181
3 176 175 188
3 178 177 183
3 178 183 184
3 199 181 187
3 188 181 199
3 201 189 182
3 203 182 190
3 184 183 191
3 184 191 192
3 193 194 185
3 209 187 198
3 199 187 209
3 192 191 189
3 192 189 201
3 201 182 203
3 219 194 193
3 219 206 194
3 220 198 206
3 209 198 220
3 204 211 200
3 217 200 212
3 213 214 202
3 216 211 204
3 204 200 217
3 218 230 205
3 220 206 219
3 222 235 210
3 216 224 211
3 228 212 225
3 217 212 228
3 214 213 226
3 214 226 227
3 227 237 215
3 229 230 218
3 246 232 221
3 248 221 233
3 235 222 234
3 252 236 223
3 215 237 224
3 215 224 216
3 239 225 238
3 228 225 239
3 227 226 237
3 240 241 229
3 229 241 230
3 259 243 231
3 261 231 244
3 263 245 232
3 263 232 246
3 246 221 248
3 265 233 247
3 248 233 265
3 250 234 249
3 235 234 250
3 268 251 236
3 268 236 252
3 253 238 251
3 239 238 253
3 254 255 240
3 240 255 241
3 270 256 242
3 269 242 257
3 272 258 243
3 272 243 259
3 259 231 261
3 273 244 260
3 261 244 273
3 274 262 245
3 274 245 263
3 276 247 264
3 265 247 276
3 267 249 266
3 250 249 267
3 253 251 268
3 269 257 254
3 254 257 255
3 278 260 256
3 278 256 270
3 270 242 269
3 258 272 271
3 273 260 278
3 277 266 262
3 277 262 274
3 279 264 275
3 276 264 279
3 267 266 277
3 142 141 140
3 143 140 141
3 142 144 141
3 140 145 142
3 143 145 140
3 146 143 141
3 141 144 146
3 147 144 142
3 148 142 145
3 149 145 143
3 149 143 146
3 146 144 150
3 144 147 151
3 152 147 142
3 148 152 142
3 145 153 148
3 154 145 149
3 150 149 146
3 150 144 155
3 156 151 147
3 151 157 144
3 147 152 156
3 148 158 152
3 153 158 148
3 159 153 145
3 160 145 154
3 154 149 150
3 155 144 161
3 155 154 150
3 158 151 156
3 162 144 157
3 151 163 157
3 158 156 152
3 153 151 158
3 159 163 153
3 164 159 145
3 165 145 160
3 160 154 155
3 166 161 144
3 161 160 155
3 162 167 144
3 157 168 162
3 169 157 163
3 163 151 153
3 170 163 159
3 170 159 164
3 164 145 165
3 165 160 161
3 171 161 166
3 166 144 167
3 167 162 172
3 172 162 168
3 168 157 173
3 169 174 157
3 169 163 167
3 175 163 170
3 176 170 164
3 177 164 165
3 171 165 161
3 178 171 166
3 166 167 163
3 174 167 172
3 172 168 179
3 174 173 157
3 173 180 168
3 167 174 169
3 181 163 175
3 175 170 176
3 176 164 182
3 183 164 177
3 177 165 171
3 178 177 171
3 184 178 166
3 163 185 166
3 172 179 174
3 186 179 168
3 173 174 180
3 186 168 180
3 187 163 181
3 181 175 188
3 188 175 176
3 182 164 189
3 190 176 182
3 191 164 183
3 183 177 178
3 184 183 178
3 192 184 166
3 185 193 166
3 185 163 194
3 195 174 179
3 196 179 186
3 195 180 174
3 180 197 186
3 198 163 187
3 187 181 199
3 199 181 188
3 188 176 200
3 189 164 191
3 182 189 201
3 202 176 190
3 190 182 203
3 191 183 184
3 192 191 184
3 204 192 166
3 193 205 166
3 185 194 193
3 194 163 206
3 195 179 207
3 196 207 179
3 208 196 186
3 197 180 195
3 208 186 197
3 206 163 198
3 198 187 209
3 209 187 199
3 188 210 199
3 200 176 211
3 212 188 200
3 189 191 192
3 201 189 192
3 203 182 201
3 213 176 202
3 202 190 214
3 190 203 215
3 216 192 204
3 217 204 166
3 205 218 166
3 193 219 205
3 193 194 219
3 194 206 219
3 207 197 195
3 207 196 197
3 208 197 196
3 206 198 220
3 220 198 209
3 209 199 221
3 222 199 210
3 188 223 210
3 211 176 224
3 200 211 204
3 225 188 212
3 212 200 217
3 201 192 216
3 203 201 215
3 226 176 213
3 202 214 213
3 214 190 227
3 227 190 215
3 204 211 216
3 217 200 204
3 228 217 166
3 218 229 166
3 205 230 218
3 205 219 230
3 219 206 220
3 220 209 231
3 221 199 232
3 233 209 221
3 234 199 222
3 210 235 222
3 210 223 235
3 223 188 236
3 224 176 237
3 211 224 216
3 238 188 225
3 225 212 228
3 228 212 217
3 215 201 216
3 237 176 226
3 226 213 214
3 227 226 214
3 215 237 227
3 239 228 166
3 229 240 166
3 218 230 229
3 230 219 241
3 219 220 242
3 231 209 243
3 244 220 231
3 232 199 245
3 221 232 246
3 247 209 233
3 233 221 248
3 249 199 234
3 234 222 235
3 235 223 250
3 236 188 251
3 223 236 252
3 224 237 215
3 216 224 215
3 251 188 238
3 238 225 239
3 239 225 228
3 237 226 227
3 253 239 166
3 240 254 166
3 229 241 240
3 230 241 229
3 241 219 255
3 242 220 256
3 257 219 242
3 243 209 258
3 231 243 259
3 260 220 244
3 244 231 261
3 245 199 262
3 232 245 263
3 246 232 263
3 248 221 246
3 264 209 247
3 247 233 265
3 265 233 248
3 266 199 249
3 249 234 250
3 250 234 235
3 250 223 267
3 236 251 268
3 252 236 268
3 223 252 267
3 251 238 253
3 253 238 239
3 268 253 166
3 254 269 166
3 240 255 254
3 241 255 240
3 255 219 257
3 256 220 260
3 242 256 270
3 257 242 269
3 258 209 271
3 243 258 272
3 259 243 272
3 261 231 259
3 260 244 273
3 273 244 261
3 262 199 266
3 245 262 274
3 263 245 274
3 246 263 166
3 248 246 166
3 275 209 264
3 264 247 276
3 276 247 265
3 265 248 166
3 266 249 267
3 267 249 250
3 268 251 253
3 252 268 277
3 267 252 277
3 277 268 166
3 269 270 166
3 254 257 269
3 255 257 254
3 256 260 278
3 270 256 278
3 269 242 270
3 271 209 275
3 271 272 258
3 272 275 259
3 259 279 261
3 278 260 273
3 273 261 166
3 262 266 277
3 274 262 277
3 263 274 166
3 275 264 279
3 279 264 276
3 276 265 166
3 277 266 267
3 274 277 166
3 270 278 166
3 271 275 272
3 275 279 259
3 279 276 261
3 278 273 166
3 261 276 166
3 141 144 142
3 142 145 140
3 140 145 143
3 146 144 141
3 142 144 147
3 145 142 148
3 143 145 149
3 150 144 146
3 151 147 144
3 142 147 152
3 142 152 148
3 149 145 154
3 155 144 150
3 147 151 156
3 154 145 160
3 161 144 155
3 156 151 158
3 158 151 153
3 153 163 159
3 160 145 165
3 144 161 166
3 162 168 157
3 153 151 163
3 159 163 170
3 165 145 164
3 166 161 171
3 172 162 167
3 168 162 172
3 173 157 168
3 157 174 169
3 170 163 175
3 165 164 177
3 166 171 178
3 172 167 174
3 157 173 174
3 169 174 167
3 175 163 181
3 182 164 176
3 177 164 183
3 166 178 184
3 166 185 163
3 181 163 187
3 189 164 182
3 182 176 190
3 183 164 191
3 166 184 192
3 166 193 185
3 194 163 185
3 187 163 198
3 200 176 188
3 191 164 189
3 190 176 202
3 166 192 204
3 166 205 193
3 206 163 194
3 198 163 206
3 199 210 188
3 211 176 200
3 200 188 212
3 202 176 213
3 214 190 202
3 215 203 190
3 204 192 216
3 166 204 217
3 166 218 205
3 205 219 193
3 221 199 209
3 210 199 222
3 210 223 188
3 224 176 211
3 212 188 225
3 216 192 201
3 215 201 203
3 213 176 226
3 227 190 214
3 215 190 227
3 166 217 228
3 166 229 218
3 230 219 205
3 231 209 220
3 232 199 221
3 221 209 233
3 222 199 234
3 235 223 210
3 236 188 223
3 237 176 224
3 225 188 238
3 216 201 215
3 226 176 237
3 166 228 239
3 166 240 229
3 241 219 230
3 242 220 219
3 243 209 231
3 231 220 244
3 245 199 232
3 233 209 247
3 234 199 249
3 250 223 235
3 251 188 236
3 238 188 251
3 166 239 253
3 166 254 240
3 255 219 241
3 256 220 242
3 242 219 257
3 258 209 243
3 244 220 260
3 262 199 245
3 247 209 264
3 249 199 266
3 267 223 250
3 267 252 223
3 166 253 268
3 166 269 254
3 257 219 255
3 260 220 256
3 271 209 258
3 266 199 262
3 166 263 246
3 166 246 248
3 264 209 275
3 166 248 265
3 277 268 252
3 277 252 267
3 166 268 277
3 166 270 269
3 275 209 271
3 259 275 272
3 261 279 259
3 166 261 273
3 166 274 263
3 166 265 276
3 166 277 274
3 166 278 270
3 272 275 271
3 259 279 275
3 261 276 279
3 166 273 278
3 166 276 261
3 144 157 151
3 157 144 162
3 157 163 151
3 144 167 162
3 163 157 169
3 167 144 166
3 167 163 169
3 163 167 166
3 179 168 172
3 168 180 173
3 174 179 172
3 168 179 186
3 180 174 173
3 180 168 186
3 179 174 195
3 186 179 196
3 174 180 195
3 186 197 180
3 207 179 195
3 179 207 196
3 186 196 208
3 195 180 197
3 197 186 208
3 195 197 207
3 197 196 207
3 196 197 208
3 280 281 282
3 281 280 283
3 281 283 286
3 286 283 289
3 288 293 285
3 286 289 290
3 296 292 287
3 292 298 288
3 288 298 293
3 285 293 299
3 290 289 294
3 290 294 295
3 292 296 298
3 285 299 304
3 295 294 300
3 295 300 301
3 304 299 310
3 301 300 305
3 304 310 316
3 301 305 311
3 316 310 315
3 311 305 317
3 311 317 318
3 328 315 321
3 316 315 328
3 318 317 323
3 318 323 324
3 339 321 327
3 328 321 339
3 341 329 322
3 343 322 330
3 324 323 331
3 324 331 332
3 333 334 325
3 349 327 338
3 339 327 349
3 332 331 329
3 332 329 341
3 341 322 343
3 359 334 333
3 359 346 334
3 360 338 346
3 349 338 360
3 344 351 340
3 357 340 352
3 353 354 342
3 356 351 344
3 344 340 357
3 358 370 345
3 360 346 359
3 362 375 350
3 356 364 351
3 368 352 365
3 357 352 368
3 354 353 366
3 354 366 367
3 367 377 355
3 369 370 358
3 386 372 361
3 388 361 373
3 375 362 374
3 392 376 363
3 355 377 364
3 355 364 356
3 379 365 378
3 368 365 379
3 367 366 377
3 380 381 369
3 369 381 370
3 399 383 371
3 401 371 384
3 403 385 372
3 403 372 386
3 386 361 388
3 405 373 387
3 388 373 405
3 390 374 389
3 375 374 390
3 408 391 376
3 408 376 392
3 393 378 391
3 379 378 393
3 394 395 380
3 380 395 381
3 410 396 382
3 409 382 397
3 412 398 383
3 412 383 399
3 399 371 401
3 413 384 400
3 401 384 413
3 414 402 385
3 414 385 403
3 416 387 404
3 405 387 416
3 407 389 406
3 390 389 407
3 393 391 408
3 409 397 394
3 394 397 395
3 418 400 396
3 418 396 410
3 410 382 409
3 398 412 411
3 413 400 418
3 417 406 402
3 417 402 414
3 419 404 415
3 416 404 419
3 407 406 417
3 282 281 280
3 283 280 281
3 282 284 281
3 280 285 282
3 283 285 280
3 286 283 281
3 281 284 286
3 287 284 282
3 288 282 285
3 289 285 283
3 289 283 286
3 286 284 290
3 284 287 291
3 292 287 282
3 288 292 282
3 285 293 288
3 294 285 289
3 290 289 286
3 290 284 295
3 296 291 287
3 291 297 284
3 287 292 296
3 288 298 292
3 293 298 288
3 299 293 285
3 300 285 294
3 294 289 290
3 295 284 301
3 295 294 290
3 298 291 296
3 302 284 297
3 291 303 297
3 298 296 292
3 293 291 298
3 299 303 293
3 304 299 285
3 305 285 300
3 300 294 295
3 306 301 284
3 301 300 295
3 302 307 284
3 297 308 302
3 309 297 303
3 303 291 293
3 310 303 299
3 310 299 304
3 304 285 305
3 305 300 301
3 311 301 306
3 306 284 307
3 307 302 312
3 312 302 308
3 308 297 313
3 309 314 297
3 309 303 307
3 315 303 310
3 316 310 304
3 317 304 305
3 311 305 301
3 318 311 306
3 306 307 303
3 314 307 312
3 312 308 319
3 314 313 297
3 313 320 308
3 307 314 309
3 321 303 315
3 315 310 316
3 316 304 322
3 323 304 317
3 317 305 311
3 318 317 311
3 324 318 306
3 303 325 306
3 312 319 314
3 326 319 308
3 313 314 320
3 326 308 320
3 327 303 321
3 321 315 328
3 328 315 316
3 322 304 329
3 330 316 322
3 331 304 323
3 323 317 318
3 324 323 318
3 332 324 306
3 325 333 306
3 325 303 334
3 335 314 319
3 336 319 326
3 335 320 314
3 320 337 326
3 338 303 327
3 327 321 339
3 339 321 328
3 328 316 340
3 329 304 331
3 322 329 341
3 342 316 330
3 330 322 343
3 331 323 324
3 332 331 324
3 344 332 306
3 333 345 306
3 325 334 333
3 334 303 346
3 335 319 347
3 336 347 319
3 348 336 326
3 337 320 335
3 348 326 337
3 346 303 338
3 338 327 349
3 349 327 339
3 328 350 339
3 340 316 351
3 352 328 340
3 329 331 332
3 341 329 332
3 343 322 341
3 353 316 342
3 342 330 354
3 330 343 355
3 356 332 344
3 357 344 306
3 345 358 306
3 333 359 345
3 333 334 359
3 334 346 359
3 347 337 335
3 347 336 337
3 348 337 336
3 346 338 360
3 360 338 349
3 349 339 361
3 362 339 350
3 328 363 350
3 351 316 364
3 340 351 344
3 365 328 352
3 352 340 357
3 341 332 356
3 343 341 355
3 366 316 353
3 342 354 353
3 354 330 367
3 367 330 355
3 344 351 356
3 357 340 344
3 368 357 306
3 358 369 306
3 345 370 358
3 345 359 370
3 359 346 360
3 360 349 371
3 361 339 372
3 373 349 361
3 374 339 362
3 350 375 362
3 350 363 375
3 363 328 376
3 364 316 377
3 351 364 356
3 378 328 365
3 365 352 368
3 368 352 357
3 355 341 356
3 377 316 366
3 366 353 354
3 367 366 354
3 355 377 367
3 379 368 306
3 369 380 306
3 358 370 369
3 370 359 381
3 359 360 382
3 371 349 383
3 384 360 371
3 372 339 385
3 361 372 386
3 387 349 373
3 373 361 388
3 389 339 374
3 374 362 375
3 375 363 390
3 376 328 391
3 363 376 392
3 364 377 355
3 356 364 355
3 391 328 378
3 378 365 379
3 379 365 368
3 377 366 367
3 393 379 306
3 380 394 306
3 369 381 380
3 370 381 369
3 381 359 395
3 382 360 396
3 397 359 382
3 383 349 398
3 371 383 399
3 400 360 384
3 384 371 401
3 385 339 402
3 372 385 403
3 386 372 403
3 388 361 386
3 404 349 387
3 387 373 405
3 405 373 388
3 406 339 389
3 389 374 390
3 390 374 375
3 390 363 407
3 376 391 408
3 392 376 408
3 363 392 407
3 391 378 393
3 393 378 379
3 408 393 306
3 394 409 306
3 380 395 394
3 381 395 380
3 395 359 397
3 396 360 400
3 382 396 410
3 397 382 409
3 398 349 411
3 383 398 412
3 399 383 412
3 401 371 399
3 400 384 413
3 413 384 401
3 402 339 406
3 385 402 414
3 403 385 414
3 386 403 306
3 388 386 306
3 415 349 404
3 404 387 416
3 416 387 405
3 405 388 306
3 406 389 407
3 407 389 390
3 408 391 393
3 392 408 417
3 407 392 417
3 417 408 306
3 409 410 306
3 394 397 409
3 395 397 394
3 396 400 418
3 410 396 418
3 409 382 410
3 411 349 415
3 411 412 398
3 412 415 399
3 399 419 401
3 418 400 413
3 413 401 306
3 402 406 417
3 414 402 417
3 403 414 306
3 415 404 419
3 419 404 416
3 416 405 306
3 417 406 407
3 414 417 306
3 410 418 306
3 411 415 412
3 415 419 399
3 419 416 401
3 418 413 306
3 401 416 306
3 281 284 282
3 282 285 280
3 280 285 283
3 286 284 281
3 282 284 287
3 285 282 288
3 283 285 289
3 290 284 286
3 291 287 284
3 282 287 292
3 282 292 288
3 289 285 294
3 295 284 290
3 287 291 296
3 294 285 300
3 301 284 295
3 296 291 298
3 298 291 293
3 293 303 299
3 300 285 305
3 284 301 306
3 302 308 297
3 293 291 303
3 299 303 310
3 305 285 304
3 306 301 311
3 312 302 307
3 308 302 312
3 313 297 308
3 297 314 309
3 310 303 315
3 305 304 317
3 306 311 318
3 312 307 314
3 297 313 314
3 309 314 307
3 315 303 321
3 322 304 316
3 317 304 323
3 306 318 324
3 306 325 303
3 321 303 327
3 329 304 322
3 322 316 330
3 323 304 331
3 306 324 332
3 306 333 325
3 334 303 325
3 327 303 338
3 340 316 328
3 331 304 329
3 330 316 342
3 306 332 344
3 306 345 333
3 346 303 334
3 338 303 346
3 339 350 328
3 351 316 340
3 340 328 352
3 342 316 353
3 354 330 342
3 355 343 330
3 344 332 356
3 306 344 357
3 306 358 345
3 345 359 333
3 361 339 349
3 350 339 362
3 350 363 328
3 364 316 351
3 352 328 365
3 356 332 341
3 355 341 343
3 353 316 366
3 367 330 354
3 355 330 367
3 306 357 368
3 306 369 358
3 370 359 345
3 371 349 360
3 372 339 361
3 361 349 373
3 362 339 374
3 375 363 350
3 376 328 363
3 377 316 364
3 365 328 378
3 356 341 355
3 366 316 377
3 306 368 379
3 306 380 369
3 381 359 370
3 382 360 359
3 383 349 371
3 371 360 384
3 385 339 372
3 373 349 387
3 374 339 389
3 390 363 375
3 391 328 376
3 378 328 391
3 306 379 393
3 306 394 380
3 395 359 381
3 396 360 382
3 382 359 397
3 398 349 383
3 384 360 400
3 402 339 385
3 387 349 404
3 389 339 406
3 407 363 390
3 407 392 363
3 306 393 408
3 306 409 394
3 397 359 395
3 400 360 396
3 411 349 398
3 406 339 402
3 306 403 386
3 306 386 388
3 404 349 415
3 306 388 405
3 417 408 392
3 417 392 407
3 306 408 417
3 306 410 409
3 415 349 411
3 399 415 412
3 401 419 399
3 306 401 413
3 306 414 403
3 306 405 416
3 306 417 414
3 306 418 410
3 412 415 411
3 399 419 415
3 401 416 419
3 306 413 418
3 306 416 401
3 284 297 291
3 297 284 302
3 297 303 291
3 284 307 302
3 303 297 309
3 307 284 306
3 307 303 309
3 303 307 306
3 319 308 312
3 308 320 313
3 314 319 312
3 308 319 326
3 320 314 313
3 320 308 326
3 319 314 335
3 326 319 336
3 314 320 335
3 326 337 320
3 347 319 335
3 319 347 336
3 326 336 348
3 335 320 337
3 337 326 348
3 335 337 347
3 337 336 347
3 336 337 348
3 420 421 422
3 421 420 423
3 421 423 426
3 426 423 429
3 428 433 425
3 426 429 430
3 436 432 427
3 432 438 428
3 428 438 433
3 425 433 439
3 430 429 434
3 430 434 435
3 432 436 438
3 425 439 444
3 435 434 440
3 435 440 441
3 444 439 450
3 441 440 445
3 444 450 456
3 441 445 451
3 456 450 455
3 451 445 457
3 451 457 458
3 468 455 461
3 456 455 468
3 458 457 463
3 458 463 464
3 479 461 467
3 468 461 479
3 481 469 462
3 483 462 470
3 464 463 471
3 464 471 472
3 473 474 465
3 489 467 478
3 479 467 489
3 472 471 469
3 472 469 481
3 481 462 483
3 499 474 473
3 499 486 474
3 500 478 486
3 489 478 500
3 484 491 480
3 497 480 492
3 493 494 482
3 496 491 484
3 484 480 497
3 498 510 485
3 500 486 499
3 502 515 490
3 496 504 491
3 508 492 505
3 497 492 508
3 494 493 506
3 494 506 507
3 507 517 495
3 509 510 498
3 526 512 501
3 528 501 513
3 515 502 514
3 532 516 503
3 495 517 504
3 495 504 496
3 519 505 518
3 508 505 519
3 507 506 517
3 520 521 509
3 509 521 510
3 539 523 511
3 541 511 524
3 543 525 512
3 543 512 526
3 526 501 528
3 545 513 527
3 528 513 545
3 530 514 529
3 515 514 530
3 548 531 516
3 548 516 532
3 533 518 531
3 519 518 533
3 534 535 520
3 520 535 521
3 550 536 522
3 549 522 537
3 552 538 523
3 552 523 539
3 539 511 541
3 553 524 540
3 541 524 553
3 554 542 525
3 554 525 543
3 556 527 544
3 545 527 556
3 547 529 546
3 530 529 547
3 533 531 548
3 549 537 534
3 534 537 535
3 558 540 536
3 558 536 550
3 550 522 549
3 538 552 551
3 553 540 558
3 557 546 542
3 557 542 554
3 559 544 555
3 556 544 559
3 547 546 557
3 422 421 420
3 423 420 421
3 422 424 421
3 420 425 422
3 423 425 420
3 426 423 421
3 421 424 426
3 427 424 422
3 428 422 425
3 429 425 423
3 429 423 426
3 426 424 430
3 424 427 431
3 432 427 422
3 428 432 422
3 425 433 428
3 434 425 429
3 430 429 426
3 430 424 435
3 436 431 427
3 431 437 424
3 427 432 436
3 428 438 432
3 433 438 428
3 439 433 425
3 440 425 434
3 434 429 430
3 435 424 441
3 435 434 430
3 438 431 436
3 442 424 437
3 431 443 437
3 438 436 432
3 433 431 438
3 439 443 433
3 444 439 425
3 445 425 440
3 440 434 435
3 446 441 424
3 441 440 435
3 442 447 424
3 437 448 442
3 449 437 443
3 443 431 433
3 450 443 439
3 450 439 444
3 444 425 445
3 445 440 441
3 451 441 446
3 446 424 447
3 447 442 452
3 452 442 448
3 448 437 453
3 449 454 437
3 449 443 447
3 455 443 450
3 456 450 444
3 457 444 445
3 451 445 441
3 458 451 446
3 446 447 443
3 454 447 452
3 452 448 459
3 454 453 437
3 453 460 448
3 447 454 449
3 461 443 455
3 455 450 456
3 456 444 462
3 463 444 457
3 457 445 451
3 458 457 451
3 464 458 446
3 443 465 446
3 452 459 454
3 466 459 448
3 453 454 460
3 466 448 460
3 467 443 461
3 461 455 468
3 468 455 456
3 462 444 469
3 470 456 462
3 471 444 463
3 463 457 458
3 464 463 458
3 472 464 446
3 465 473 446
3 465 443 474
3 475 454 459
3 476 459 466
3 475 460 454
3 460 477 466
3 478 443 467
3 467 461 479
3 479 461 468
3 468 456 480
3 469 444 471
3 462 469 481
3 482 456 470
3 470 462 483
3 471 463 464
3 472 471 464
3 484 472 446
3 473 485 446
3 465 474 473
3 474 443 486
3 475 459 487
3 476 487 459
3 488 476 466
3 477 460 475
3 488 466 477
3 486 443 478
3 478 467 489
3 489 467 479
3 468 490 479
3 480 456 491
3 492 468 480
3 469 471 472
3 481 469 472
3 483 462 481
3 493 456 482
3 482 470 494
3 470 483 495
3 496 472 484
3 497 484 446
3 485 498 446
3 473 499 485
3 473 474 499
3 474 486 499
3 487 477 475
3 487 476 477
3 488 477 476
3 486 478 500
3 500 478 489
3 489 479 501
3 502 479 490
3 468 503 490
3 491 456 504
3 480 491 484
3 505 468 492
3 492 480 497
3 481 472 496
3 483 481 495
3 506 456 493
3 482 494 493
3 494 470 507
3 507 470 495
3 484 491 496
3 497 480 484
3 508 497 446
3 498 509 446
3 485 510 498
3 485 499 510
3 499 486 500
3 500 489 511
3 501 479 512
3 513 489 501
3 514 479 502
3 490 515 502
3 490 503 515
3 503 468 516
3 504 456 517
3 491 504 496
3 518 468 505
3 505 492 508
3 508 492 497
3 495 481 496
3 517 456 506
3 506 493 494
3 507 506 494
3 495 517 507
3 519 508 446
3 509 520 446
3 498 510 509
3 510 499 521
3 499 500 522
3 511 489 523
3 524 500 511
3 512 479 525
3 501 512 526
3 527 489 513
3 513 501 528
3 529 479 514
3 514 502 515
3 515 503 530
3 516 468 531
3 503 516 532
3 504 517 495
3 496 504 495
3 531 468 518
3 518 505 519
3 519 505 508
3 517 506 507
3 533 519 446
3 520 534 446
3 509 521 520
3 510 521 509
3 521 499 535
3 522 500 536
3 537 499 522
3 523 489 538
3 511 523 539
3 540 500 524
3 524 511 541
3 525 479 542
3 512 525 543
3 526 512 543
3 528 501 526
3 544 489 527
3 527 513 545
3 545 513 528
3 546 479 529
3 529 514 530
3 530 514 515
3 530 503 547
3 516 531 548
3 532 516 548
3 503 532 547
3 531 518 533
3 533 518 519
3 548 533 446
3 534 549 446
3 520 535 534
3 521 535 520
3 535 499 537
3 536 500 540
3 522 536 550
3 537 522 549
3 538 489 551
3 523 538 552
3 539 523 552
3 541 511 539
3 540 524 553
3 553 524 541
3 542 479 546
3 525 542 554
3 543 525 554
3 526 543 446
3 528 526 446
3 555 489 544
3 544 527 556
3 556 527 545
3 545 528 446
3 546 529 547
3 547 529 530
3 548 531 533
3 532 548 557
3 547 532 557
3 557 548 446
3 549 550 446
3 534 537 549
3 535 537 534
3 536 540 558
3 550 536 558
3 549 522 550
3 551 489 555
3 551 552 538
3 552 555 539
3 539 559 541
3 558 540 553
3 553 541 446
3 542 546 557
3 554 542 557
3 543 554 446
3 555 544 559
3 559 544 556
3 556 545 446
3 557 546 547
3 554 557 446
3 550 558 446
3 551 555 552
3 555 559 539
3 559 556 541
3 558 553 446
3 541 556 446
3 421 424 422
3 422 425 420
3 420 425 423
3 426 424 421
3 422 424 427
3 425 422 428
3 423 425 429
3 430 424 426
3 431 427 424
3 422 427 432
3 422 432 428
3 429 425 434
3 435 424 430
3 427 431 436
3 434 425 440
3 441 424 435
3 436 431 438
3 438 431 433
3 433 443 439
3 440 425 445
3 424 441 446
3 442 448 437
3 433 431 443
3 439 443 450
3 445 425 444
3 446 441 451
3 452 442 447
3 448 442 452
3 453 437 448
3 437 454 449
3 450 443 455
3 445 444 457
3 446 451 458
3 452 447 454
3 437 453 454
3 449 454 447
3 455 443 461
3 462 444 456
3 457 444 463
3 446 458 464
3 446 465 443
3 461 443 467
3 469 444 462
3 462 456 470
3 463 444 471
3 446 464 472
3 446 473 465
3 474 443 465
3 467 443 478
3 480 456 468
3 471 444 469
3 470 456 482
3 446 472 484
3 446 485 473
3 486 443 474
3 478 443 486
3 479 490 468
3 491 456 480
3 480 468 492
3 482 456 493
3 494 470 482
3 495 483 470
3 484 472 496
3 446 484 497
3 446 498 485
3 485 499 473
3 501 479 489
3 490 479 502
3 490 503 468
3 504 456 491
3 492 468 505
3 496 472 481
3 495 481 483
3 493 456 506
3 507 470 494
3 495 470 507
3 446 497 508
3 446 509 498
3 510 499 485
3 511 489 500
3 512 479 501
3 501 489 513
3 502 479 514
3 515 503 490
3 516 468 503
3 517 456 504
3 505 468 518
3 496 481 495
3 506 456 517
3 446 508 519
3 446 520 509
3 521 499 510
3 522 500 499
3 523 489 511
3 511 500 524
3 525 479 512
3 513 489 527
3 514 479 529
3 530 503 515
3 531 468 516
3 518 468 531
3 446 519 533
3 446 534 520
3 535 499 521
3 536 500 522
3 522 499 537
3 538 489 523
3 524 500 540
3 542 479 525
3 527 489 544
3 529 479 546
3 547 503 530
3 547 532 503
3 446 533 548
3 446 549 534
3 537 499 535
3 540 500 536
3 551 489 538
3 546 479 542
3 446 543 526
3 446 526 528
3 544 489 555
3 446 528 545
3 557 548 532
3 557 532 547
3 446 548 557
3 446 550 549
3 555 489 551
3 539 555 552
3 541 559 539
3 446 541 553
3 446 554 543
3 446 545 556
3 446 557 554
3 446 558 550
3 552 555 551
3 539 559 555
3 541 556 559
3 446 553 558
3 446 556 541
3 424 437 431
3 437 424 442
3 437 443 431
3 424 447 442
3 443 437 449
3 447 424 446
3 447 443 449
3 443 447 446
3 459 448 452
3 448 460 453
3 454 459 452
3 448 459 466
3 460 454 453
3 460 448 466
3 459 454 475
3 466 459 476
3 454 460 475
3 466 477 460
3 487 459 475
3 459 487 476
3 466 476 488
3 475 460 477
3 477 466 488
3 475 477 487
3 477 476 487
3 476 477 488
