ply
format ascii 1.0
comment Generated by PyMesh
element vertex 206
property double x
property double y
property double z
element face 1102
property list uchar int vertex_indices
end_header
0.0710409 -0.00710416 0.269955
0.0795653 -0.00710416 0.38362
0.0795653 -0.00710416 0.269955
0.0710409 -0.00710416 0.38362
0.107982 -0.00710416 0.269955
0.0795653 0.0497285 0.38362
0.0710409 -0.00710416 -0.269955
-0.161973 -0.00710416 0.269955
0.0710409 0.0497285 0.38362
0.0426243 -0.00710416 0.38362
-0.10514 -0.00710416 0.38362
0.107982 -0.00710416 0.38362
0.107982 -0.00710416 -0.269955
0.0795653 -0.00710416 -0.269955
0.107982 0.0497285 0.38362
0.0426243 -0.00710416 0.269955
0.116507 -0.00710416 0.38362
0.116507 -0.00710416 0.269955
0.0795653 0.0497285 -0.38362
0.218806 -0.00710416 -0.269955
0.0710409 -0.00710416 -0.38362
0.0426243 -0.00710416 -0.269955
0.0340993 -0.00710416 0.269955
0.0426243 0.0497285 0.38362
0.0340993 -0.00710416 0.38362
0.107982 -0.00710416 -0.38362
0.116507 -0.00710416 -0.269955
0.144923 -0.00710416 0.269955
0.0795653 -0.00710416 -0.38362
0.107982 0.0497285 -0.38362
0.0710409 0.0497285 -0.38362
0.0340993 -0.00710416 -0.269955
0.00568331 -0.00710416 0.269955
0.0426243 0.0497285 -0.38362
0.00568331 -0.00710416 0.38362
0.144923 -0.00710416 0.38362
0.116507 0.0497285 0.38362
0.144923 -0.00710416 -0.269955
0.153448 -0.00710416 0.269955
0.218806 -0.00710416 -0.38362
0.0426243 -0.00710416 -0.38362
0.0340993 -0.00710416 -0.38362
0.0340993 0.0497285 0.38362
-0.00284167 -0.00710416 0.269955
-0.00284167 -0.00710416 0.38362
0.153448 -0.00710416 0.38362
0.144923 0.0497285 0.38362
0.116507 -0.00710416 -0.38362
0.116507 0.0497285 -0.38362
0.144923 -0.00710416 -0.38362
0.181864 -0.00710416 0.269955
0.00568331 -0.00710416 -0.269955
0.00568331 0.0497285 0.38362
-0.00284167 -0.00710416 -0.269955
-0.0312583 -0.00710416 0.269955
-0.0312583 -0.00710416 0.38362
0.181864 -0.00710416 0.38362
0.153448 -0.00710416 -0.269955
0.190389 -0.00710416 0.269955
0.181864 -0.00710416 -0.269955
0.0340993 0.0497285 -0.38362
0.00568331 -0.00710416 -0.38362
-0.00284167 0.0497285 0.38362
-0.0397827 -0.00710416 0.269955
0.00568331 0.0497285 -0.38362
-0.0397827 -0.00710416 0.38362
0.190389 -0.00710416 0.38362
0.181864 0.0497285 0.38362
0.153448 0.0497285 0.38362
0.144923 0.0497285 -0.38362
0.153448 -0.00710416 -0.38362
0.218806 -0.00710416 0.269955
-0.0312583 -0.00710416 -0.269955
-0.00284167 -0.00710416 -0.38362
-0.0312583 0.0497285 0.38362
-0.0397827 -0.00710416 -0.269955
-0.0681993 -0.00710416 0.269955
-0.0681993 -0.00710416 0.38362
0.218806 -0.00710416 0.38362
0.181864 -0.00710416 -0.38362
0.190389 -0.00710416 -0.269955
0.153448 0.0497285 -0.38362
-0.218806 -0.234435 0.269955
0.190389 0.0497285 0.38362
-0.00284167 0.0497285 -0.38362
-0.0397827 0.0497285 0.38362
-0.0767242 -0.00710416 0.269955
-0.0312583 0.0497285 -0.38362
-0.0767242 -0.00710416 0.38362
-0.218806 -0.234435 0.38362
0.218806 0.0497285 0.38362
0.218806 -0.234435 0.269955
-0.190389 -0.00710416 0.269955
0.181864 0.0497285 -0.38362
-0.0681993 -0.00710416 -0.269955
-0.0397827 -0.00710416 -0.38362
-0.0312583 -0.00710416 -0.38362
-0.0681993 0.0497285 0.38362
-0.0767242 -0.00710416 -0.269955
-0.10514 -0.00710416 0.269955
-0.0767242 0.0497285 0.38362
0.218806 -0.234435 0.38362
-0.190389 0.0497285 0.38362
0.190389 -0.00710416 -0.38362
0.218806 -0.234435 -0.38362
-0.161973 -0.00710416 -0.269955
-0.218806 0.220226 0.269955
0.190389 0.0497285 -0.38362
-0.0397827 0.0497285 -0.38362
-0.0681993 0.0497285 -0.38362
-0.10514 0.0497285 0.38362
-0.119349 0.0497285 0.38362
-0.218806 0.234435 0.38362
0.218806 0.0497285 -0.38362
0.218806 -0.234435 -0.269955
-0.10514 -0.00710416 -0.38362
-0.190389 -0.00710416 -0.269955
-0.190389 0.0497285 0.269955
-0.10514 -0.00710416 -0.269955
-0.0767242 -0.00710416 -0.38362
-0.0681993 -0.00710416 -0.38362
-0.10514 0.0497285 -0.38362
-0.190389 0.0497285 -0.38362
-0.190389 0.0582534 0.38362
-0.218806 0.234435 0.269955
-0.218806 -0.234435 -0.269955
-0.190389 0.0497285 0.269492
-0.190389 0.0582534 0.269955
-0.0767242 0.0497285 -0.38362
-0.119349 0.0497285 -0.38362
-0.190389 0.0497285 -0.269955
-0.190389 0.0866695 0.38362
-0.190389 0.234435 0.38362
-0.218806 -0.234435 -0.38362
-0.218806 0.234435 -0.269955
-0.190389 0.0866695 0.269955
-0.190389 0.0582534 -0.269955
-0.125078 0.0866695 0.38362
-0.190389 0.0951944 0.38362
-0.190389 0.234435 0.269492
-0.190389 0.206018 0.38362
-0.218806 0.234435 -0.38362
-0.218806 0.220226 -0.269955
-0.190389 0.0582534 0.269492
-0.190389 0.0951944 0.269955
-0.190389 0.0582534 -0.38362
-0.119349 0.0582534 0.38362
-0.190389 0.0866695 -0.38362
-0.190389 0.123611 0.38362
-0.190389 0.220226 0.269492
-0.190389 0.234435 -0.269955
-0.190389 0.197494 0.38362
-0.154869 0.234435 0.38362
-0.190389 0.206018 0.269955
-0.190389 0.220226 -0.269955
-0.190389 0.0866695 0.269492
-0.190389 0.0951944 0.269492
-0.190389 0.123611 0.269955
-0.190389 0.0866695 -0.269955
-0.119349 0.0582534 -0.38362
-0.125078 0.0866695 -0.38362
-0.132525 0.123611 0.38362
-0.190389 0.132136 0.38362
-0.190389 0.220226 0.269955
-0.190389 0.169077 0.38362
-0.14914 0.206018 0.38362
-0.190389 0.234435 -0.38362
-0.190389 0.206018 -0.269955
-0.190389 0.132136 0.269955
-0.190389 0.0951944 -0.269955
-0.190389 0.0951944 -0.38362
-0.126797 0.0951944 0.38362
-0.190389 0.123611 -0.38362
-0.190389 0.160552 0.38362
-0.190389 0.206018 0.269492
-0.147421 0.197494 0.38362
-0.190389 0.169077 0.269955
-0.190389 0.197494 0.269955
-0.14914 0.206018 0.269492
-0.190389 0.206018 -0.38362
-0.190389 0.197494 -0.269955
-0.190389 0.123611 0.269492
-0.190389 0.160552 0.269955
-0.190389 0.123611 -0.269955
-0.126797 0.0951944 -0.38362
-0.132525 0.123611 -0.38362
-0.139973 0.160552 0.38362
-0.154869 0.234435 -0.38362
-0.141692 0.169077 0.38362
-0.190389 0.197494 -0.38362
-0.190389 0.169077 -0.38362
-0.190389 0.197494 0.269492
-0.14914 0.206018 -0.38362
-0.190389 0.169077 -0.269955
-0.190389 0.132136 0.269492
-0.190389 0.132136 -0.269955
-0.134244 0.132136 0.38362
-0.190389 0.160552 -0.38362
-0.190389 0.160552 0.269492
-0.141692 0.169077 -0.38362
-0.147421 0.197494 -0.38362
-0.190389 0.169077 0.269492
-0.190389 0.132136 -0.38362
-0.190389 0.160552 -0.269955
-0.134244 0.132136 -0.38362
-0.139973 0.160552 -0.38362
3 0 1 2
3 1 0 3
3 2 1 0
3 3 0 1
3 4 1 2
3 2 1 4
3 5 2 1
3 1 2 5
3 2 6 0
3 0 6 2
3 7 2 0
3 0 2 7
3 0 8 3
3 3 8 0
3 9 0 3
3 3 0 9
3 10 1 3
3 3 1 10
3 1 4 11
3 11 4 1
3 2 12 4
3 4 12 2
3 7 4 2
3 2 4 7
3 5 13 2
3 2 13 5
3 1 14 5
3 5 14 1
3 6 2 13
3 13 2 6
3 6 8 0
3 0 8 6
3 15 6 0
3 0 6 15
3 7 0 15
3 15 0 7
3 8 9 3
3 3 9 8
3 0 9 15
3 15 9 0
3 10 3 9
3 9 3 10
3 10 11 1
3 1 11 10
3 16 4 11
3 11 4 16
3 4 14 11
3 11 14 4
3 14 1 11
3 11 1 14
3 12 2 13
3 13 2 12
3 17 12 4
3 4 12 17
3 12 14 4
3 4 14 12
3 7 17 4
3 4 17 7
3 18 13 5
3 5 13 18
3 14 18 5
3 5 18 14
3 19 6 13
3 13 6 19
3 13 20 6
3 6 20 13
3 20 8 6
3 6 8 20
3 6 15 21
3 21 15 6
3 7 15 22
3 22 15 7
3 9 8 23
3 23 8 9
3 23 15 9
3 9 15 23
3 22 9 15
3 15 9 22
3 10 9 24
3 24 9 10
3 10 16 11
3 11 16 10
3 4 16 17
3 17 16 4
3 19 13 12
3 12 13 19
3 13 25 12
3 12 25 13
3 12 17 26
3 26 17 12
3 25 14 12
3 12 14 25
3 7 27 17
3 17 27 7
3 13 18 28
3 28 18 13
3 18 14 29
3 29 14 18
3 19 21 6
3 6 21 19
3 20 13 28
3 28 13 20
3 21 20 6
3 6 20 21
3 8 20 30
3 30 20 8
3 23 21 15
3 15 21 23
3 31 15 21
3 21 15 31
3 15 31 22
3 22 31 15
3 7 22 32
3 32 22 7
3 8 33 23
3 23 33 8
3 9 22 24
3 24 22 9
3 10 24 34
3 34 24 10
3 10 35 16
3 16 35 10
3 36 17 16
3 16 17 36
3 27 16 17
3 17 16 27
3 19 12 26
3 26 12 19
3 25 13 28
3 28 13 25
3 26 25 12
3 12 25 26
3 36 26 17
3 17 26 36
3 37 17 26
3 26 17 37
3 14 25 29
3 29 25 14
3 7 38 27
3 27 38 7
3 17 37 27
3 27 37 17
3 18 25 28
3 28 25 18
3 25 18 29
3 29 18 25
3 19 31 21
3 21 31 19
3 39 20 28
3 28 20 39
3 20 21 40
3 40 21 20
3 20 33 30
3 30 33 20
3 33 8 30
3 30 8 33
3 33 21 23
3 23 21 33
3 21 41 31
3 31 41 21
3 31 42 22
3 22 42 31
3 32 31 22
3 22 31 32
3 22 34 32
3 32 34 22
3 7 32 43
3 43 32 7
3 22 42 24
3 24 42 22
3 34 22 24
3 24 22 34
3 42 34 24
3 24 34 42
3 10 34 44
3 44 34 10
3 10 45 35
3 35 45 10
3 46 16 35
3 35 16 46
3 16 27 35
3 35 27 16
3 16 46 36
3 36 46 16
3 19 26 37
3 37 26 19
3 39 28 25
3 25 28 39
3 25 26 47
3 47 26 25
3 48 26 36
3 36 26 48
3 26 49 37
3 37 49 26
3 7 50 38
3 38 50 7
3 38 35 27
3 27 35 38
3 38 37 27
3 27 37 38
3 37 46 27
3 27 46 37
3 19 51 31
3 31 51 19
3 39 40 20
3 20 40 39
3 21 33 40
3 40 33 21
3 41 21 40
3 40 21 41
3 33 20 40
3 40 20 33
3 41 42 31
3 31 42 41
3 51 41 31
3 31 41 51
3 31 32 51
3 51 32 31
3 52 32 34
3 34 32 52
3 43 34 32
3 32 34 43
3 32 53 43
3 43 53 32
3 7 43 54
3 54 43 7
3 34 42 52
3 52 42 34
3 34 43 44
3 44 43 34
3 10 44 55
3 55 44 10
3 10 56 45
3 45 56 10
3 35 38 45
3 45 38 35
3 27 46 35
3 35 46 27
3 46 48 36
3 36 48 46
3 19 37 57
3 57 37 19
3 39 25 47
3 47 25 39
3 26 48 47
3 47 48 26
3 49 26 47
3 47 26 49
3 49 46 37
3 37 46 49
3 57 49 37
3 37 49 57
3 7 58 50
3 50 58 7
3 50 45 38
3 38 45 50
3 38 59 50
3 50 59 38
3 37 38 57
3 57 38 37
3 19 53 51
3 51 53 19
3 39 41 40
3 40 41 39
3 42 41 60
3 60 41 42
3 41 51 61
3 61 51 41
3 52 51 32
3 32 51 52
3 53 32 51
3 51 32 53
3 53 62 43
3 43 62 53
3 54 53 43
3 43 53 54
3 43 55 54
3 54 55 43
3 7 54 63
3 63 54 7
3 42 64 52
3 52 64 42
3 43 62 44
3 44 62 43
3 55 43 44
3 44 43 55
3 62 55 44
3 44 55 62
3 10 55 65
3 65 55 10
3 10 66 56
3 56 66 10
3 45 50 56
3 56 50 45
3 67 45 56
3 56 45 67
3 68 38 45
3 45 38 68
3 48 46 69
3 69 46 48
3 19 57 59
3 59 57 19
3 39 47 49
3 49 47 39
3 48 49 47
3 47 49 48
3 46 49 69
3 69 49 46
3 49 57 70
3 70 57 49
3 7 71 58
3 58 71 7
3 58 59 50
3 50 59 58
3 50 66 58
3 58 66 50
3 59 38 57
3 57 38 59
3 59 67 50
3 50 67 59
3 68 57 38
3 38 57 68
3 19 72 53
3 53 72 19
3 51 73 53
3 53 73 51
3 39 61 41
3 41 61 39
3 41 64 60
3 60 64 41
3 64 42 60
3 60 42 64
3 51 64 61
3 61 64 51
3 73 51 61
3 61 51 73
3 64 41 61
3 61 41 64
3 64 51 52
3 52 51 64
3 73 62 53
3 53 62 73
3 53 54 72
3 72 54 53
3 74 54 55
3 55 54 74
3 63 55 54
3 54 55 63
3 54 75 63
3 63 75 54
3 7 63 76
3 76 63 7
3 55 62 74
3 74 62 55
3 55 63 65
3 65 63 55
3 10 65 77
3 77 65 10
3 10 78 66
3 66 78 10
3 66 50 56
3 56 50 66
3 50 67 56
3 56 67 50
3 45 67 68
3 68 67 45
3 49 48 69
3 69 48 49
3 57 79 59
3 59 79 57
3 19 59 80
3 80 59 19
3 39 49 70
3 70 49 39
3 57 81 70
3 70 81 57
3 79 57 70
3 70 57 79
3 82 71 7
3 7 71 82
3 58 19 71
3 71 19 58
3 71 66 58
3 58 66 71
3 59 58 80
3 80 58 59
3 83 58 66
3 66 58 83
3 79 67 59
3 59 67 79
3 81 57 68
3 68 57 81
3 19 75 72
3 72 75 19
3 72 73 53
3 53 73 72
3 39 73 61
3 61 73 39
3 62 73 84
3 84 73 62
3 74 72 54
3 54 72 74
3 75 54 72
3 72 54 75
3 76 75 63
3 63 75 76
3 75 85 63
3 63 85 75
3 63 77 76
3 76 77 63
3 7 76 86
3 86 76 7
3 62 87 74
3 74 87 62
3 77 63 65
3 65 63 77
3 63 85 65
3 65 85 63
3 85 77 65
3 65 77 85
3 10 77 88
3 88 77 10
3 89 78 10
3 10 78 89
3 90 66 78
3 78 66 90
3 66 71 78
3 78 71 66
3 67 81 68
3 68 81 67
3 80 79 59
3 59 79 80
3 80 39 19
3 19 39 80
3 19 58 80
3 80 58 19
3 39 70 79
3 79 70 39
3 81 79 70
3 70 79 81
3 71 82 91
3 91 82 71
3 82 7 92
3 92 7 82
3 19 90 71
3 71 90 19
3 83 80 58
3 58 80 83
3 66 90 83
3 83 90 66
3 67 79 93
3 93 79 67
3 19 94 75
3 75 94 19
3 72 95 75
3 75 95 72
3 73 72 96
3 96 72 73
3 39 96 73
3 73 96 39
3 73 87 84
3 84 87 73
3 87 62 84
3 84 62 87
3 87 72 74
3 74 72 87
3 75 76 94
3 94 76 75
3 95 85 75
3 75 85 95
3 97 76 77
3 77 76 97
3 86 77 76
3 76 77 86
3 76 98 86
3 86 98 76
3 7 86 99
3 99 86 7
3 77 85 97
3 97 85 77
3 77 86 88
3 88 86 77
3 10 86 88
3 88 86 10
3 100 10 88
3 88 10 100
3 78 89 101
3 101 89 78
3 89 10 102
3 102 10 89
3 71 90 78
3 78 90 71
3 78 91 71
3 71 91 78
3 81 67 93
3 93 67 81
3 79 80 103
3 103 80 79
3 39 80 103
3 103 80 39
3 39 90 19
3 19 90 39
3 19 104 39
3 39 104 19
3 39 79 103
3 103 79 39
3 79 81 93
3 93 81 79
3 91 89 82
3 82 89 91
3 7 105 92
3 92 105 7
3 82 92 106
3 106 92 82
3 107 80 83
3 83 80 107
3 90 107 83
3 83 107 90
3 19 98 94
3 94 98 19
3 94 95 75
3 75 95 94
3 95 72 96
3 96 72 95
3 72 87 96
3 96 87 72
3 87 73 96
3 96 73 87
3 39 95 96
3 96 95 39
3 98 76 94
3 94 76 98
3 97 94 76
3 76 94 97
3 85 95 108
3 108 95 85
3 99 98 86
3 86 98 99
3 98 100 86
3 86 100 98
3 86 10 99
3 99 10 86
3 99 105 7
3 7 105 99
3 85 109 97
3 97 109 85
3 86 100 88
3 88 100 86
3 10 100 110
3 110 100 10
3 89 91 101
3 101 91 89
3 91 78 101
3 101 78 91
3 102 10 111
3 111 10 102
3 89 102 112
3 112 102 89
3 80 107 103
3 103 107 80
3 107 39 103
3 103 39 107
3 90 39 113
3 113 39 90
3 104 19 114
3 114 19 104
3 115 39 104
3 104 39 115
3 89 106 82
3 82 106 89
3 92 105 116
3 116 105 92
3 106 92 117
3 117 92 106
3 107 90 113
3 113 90 107
3 19 118 98
3 98 118 19
3 94 119 98
3 98 119 94
3 95 94 120
3 120 94 95
3 39 120 95
3 95 120 39
3 109 94 97
3 97 94 109
3 95 109 108
3 108 109 95
3 109 85 108
3 108 85 109
3 98 99 118
3 118 99 98
3 119 100 98
3 98 100 119
3 110 99 10
3 10 99 110
3 99 111 10
3 10 111 99
3 105 99 118
3 118 99 105
3 100 121 110
3 110 121 100
3 111 122 102
3 102 122 111
3 112 102 123
3 123 102 112
3 124 89 112
3 112 89 124
3 39 107 113
3 113 107 39
3 105 19 114
3 114 19 105
3 125 104 114
3 114 104 125
3 39 115 119
3 119 115 39
3 104 122 115
3 115 122 104
3 106 89 124
3 124 89 106
3 114 116 105
3 105 116 114
3 116 126 92
3 92 126 116
3 92 126 117
3 117 126 92
3 106 117 127
3 127 117 106
3 19 105 118
3 118 105 19
3 119 94 120
3 120 94 119
3 94 109 120
3 120 109 94
3 109 95 120
3 120 95 109
3 39 119 120
3 120 119 39
3 110 118 99
3 99 118 110
3 118 111 99
3 99 111 118
3 100 119 128
3 128 119 100
3 121 100 128
3 128 100 121
3 121 118 110
3 110 118 121
3 122 111 129
3 129 111 122
3 102 122 130
3 130 122 102
3 117 123 102
3 102 123 117
3 112 123 131
3 131 123 112
3 132 124 112
3 112 124 132
3 104 125 133
3 133 125 104
3 125 116 114
3 114 116 125
3 121 119 115
3 115 119 121
3 133 122 104
3 104 122 133
3 129 115 122
3 122 115 129
3 134 106 124
3 124 106 134
3 126 116 130
3 130 116 126
3 126 127 117
3 117 127 126
3 102 126 117
3 117 126 102
3 123 117 127
3 127 117 123
3 106 127 135
3 135 127 106
3 115 111 118
3 118 111 115
3 119 121 128
3 128 121 119
3 118 121 115
3 115 121 118
3 111 115 129
3 129 115 111
3 122 136 130
3 130 136 122
3 102 130 126
3 126 130 102
3 127 131 123
3 123 131 127
3 123 137 131
3 131 137 123
3 112 131 138
3 138 131 112
3 124 132 139
3 139 132 124
3 112 140 132
3 132 140 112
3 125 141 133
3 133 141 125
3 116 125 142
3 142 125 116
3 122 133 141
3 141 133 122
3 106 134 142
3 142 134 106
3 139 134 124
3 124 134 139
3 116 142 130
3 130 142 116
3 127 126 143
3 143 126 127
3 127 143 123
3 123 143 127
3 131 127 135
3 135 127 131
3 143 135 127
3 127 135 143
3 106 135 144
3 144 135 106
3 136 122 145
3 145 122 136
3 130 142 136
3 136 142 130
3 137 123 146
3 146 123 137
3 137 147 131
3 131 147 137
3 144 131 138
3 138 131 144
3 112 138 148
3 148 138 112
3 132 149 139
3 139 149 132
3 132 150 139
3 139 150 132
3 112 151 140
3 140 151 112
3 140 152 132
3 132 152 140
3 153 132 140
3 140 132 153
3 141 125 134
3 134 125 141
3 134 125 142
3 142 125 134
3 122 141 145
3 145 141 122
3 134 154 142
3 142 154 134
3 106 154 142
3 142 154 106
3 134 139 150
3 150 139 134
3 145 123 143
3 143 123 145
3 131 144 135
3 135 144 131
3 131 155 135
3 135 155 131
3 135 143 155
3 155 143 135
3 156 135 144
3 144 135 156
3 106 144 157
3 157 144 106
3 145 143 136
3 136 143 145
3 145 158 136
3 136 158 145
3 136 142 158
3 158 142 136
3 145 146 123
3 123 146 145
3 159 137 146
3 146 137 159
3 147 137 160
3 160 137 147
3 131 147 158
3 158 147 131
3 144 148 138
3 138 148 144
3 144 156 138
3 138 156 144
3 138 161 148
3 148 161 138
3 112 148 162
3 162 148 112
3 149 132 163
3 163 132 149
3 154 139 149
3 149 139 154
3 150 132 152
3 152 132 150
3 139 154 150
3 150 154 139
3 112 164 151
3 151 164 112
3 153 151 140
3 140 151 153
3 152 140 165
3 165 140 152
3 163 132 153
3 153 132 163
3 140 165 153
3 153 165 140
3 134 166 141
3 141 166 134
3 145 141 147
3 147 141 145
3 154 134 150
3 150 134 154
3 167 142 154
3 154 142 167
3 163 154 106
3 106 154 163
3 166 134 150
3 150 134 166
3 131 158 155
3 155 158 131
3 135 156 155
3 155 156 135
3 136 155 143
3 143 155 136
3 156 157 144
3 144 157 156
3 148 144 157
3 157 144 148
3 106 157 168
3 168 157 106
3 158 145 147
3 147 145 158
3 155 136 158
3 158 136 155
3 158 142 169
3 169 142 158
3 146 145 159
3 159 145 146
3 137 159 160
3 160 159 137
3 159 147 160
3 160 147 159
3 147 169 158
3 158 169 147
3 170 138 156
3 156 138 170
3 161 138 171
3 171 138 161
3 161 172 148
3 148 172 161
3 157 162 148
3 148 162 157
3 112 162 173
3 173 162 112
3 163 174 149
3 149 174 163
3 154 163 149
3 149 163 154
3 149 167 154
3 154 167 149
3 152 166 150
3 150 166 152
3 167 150 154
3 154 150 167
3 112 173 164
3 164 173 112
3 164 175 151
3 151 175 164
3 176 151 164
3 164 151 176
3 151 153 177
3 177 153 151
3 178 152 165
3 165 152 178
3 174 163 153
3 153 163 174
3 106 153 163
3 163 153 106
3 165 174 153
3 153 174 165
3 179 141 166
3 166 141 179
3 147 141 170
3 170 141 147
3 147 159 145
3 145 159 147
3 180 142 167
3 167 142 180
3 150 179 166
3 166 179 150
3 157 156 181
3 181 156 157
3 148 181 157
3 157 181 148
3 162 157 168
3 168 157 162
3 181 168 157
3 157 168 181
3 106 168 182
3 182 168 106
3 169 142 183
3 183 142 169
3 169 147 170
3 170 147 169
3 170 171 138
3 138 171 170
3 170 156 169
3 169 156 170
3 184 161 171
3 171 161 184
3 172 161 185
3 185 161 172
3 148 172 183
3 183 172 148
3 168 173 162
3 162 173 168
3 162 186 173
3 173 186 162
3 167 149 174
3 174 149 167
3 166 152 187
3 187 152 166
3 179 150 167
3 167 150 179
3 182 164 173
3 173 164 182
3 175 164 188
3 188 164 175
3 175 189 151
3 151 189 175
3 151 176 177
3 177 176 151
3 164 182 176
3 176 182 164
3 190 164 176
3 176 164 190
3 106 177 153
3 153 177 106
3 174 177 153
3 153 177 174
3 151 191 177
3 177 191 151
3 192 152 178
3 178 152 192
3 174 165 178
3 178 165 174
3 189 141 179
3 179 141 189
3 166 192 179
3 179 192 166
3 170 141 172
3 172 141 170
3 193 142 180
3 180 142 193
3 189 167 180
3 180 167 189
3 169 181 156
3 156 181 169
3 148 183 181
3 181 183 148
3 168 194 162
3 162 194 168
3 168 181 194
3 194 181 168
3 173 168 182
3 182 168 173
3 194 182 168
3 168 182 194
3 106 182 176
3 176 182 106
3 183 142 195
3 195 142 183
3 181 169 183
3 183 169 181
3 170 183 169
3 169 183 170
3 171 170 184
3 184 170 171
3 161 184 185
3 185 184 161
3 184 172 185
3 185 172 184
3 172 195 183
3 183 195 172
3 183 170 172
3 172 170 183
3 186 162 196
3 196 162 186
3 186 197 173
3 173 197 186
3 179 174 167
3 167 174 179
3 152 192 187
3 187 192 152
3 192 166 187
3 187 166 192
3 167 189 179
3 179 189 167
3 173 198 182
3 182 198 173
3 190 188 164
3 164 188 190
3 199 175 188
3 188 175 199
3 189 175 200
3 200 175 189
3 151 189 180
3 180 189 151
3 106 176 177
3 177 176 106
3 201 177 176
3 176 177 201
3 198 176 182
3 182 176 198
3 190 176 201
3 201 176 190
3 177 174 191
3 191 174 177
3 151 180 191
3 191 180 151
3 177 201 191
3 191 201 177
3 174 192 178
3 178 192 174
3 190 141 189
3 189 141 190
3 192 174 179
3 179 174 192
3 172 141 202
3 202 141 172
3 172 184 170
3 170 184 172
3 203 142 193
3 193 142 203
3 191 193 180
3 180 193 191
3 190 180 193
3 193 180 190
3 180 190 189
3 189 190 180
3 202 162 194
3 194 162 202
3 182 194 198
3 198 194 182
3 195 142 203
3 203 142 195
3 195 172 202
3 202 172 195
3 162 204 196
3 196 204 162
3 204 186 196
3 196 186 204
3 197 186 205
3 205 186 197
3 173 197 203
3 203 197 173
3 173 203 198
3 198 203 173
3 188 190 199
3 199 190 188
3 175 199 200
3 200 199 175
3 199 189 200
3 200 189 199
3 176 198 201
3 201 198 176
3 190 201 193
3 193 201 190
3 193 191 201
3 201 191 193
3 197 141 190
3 190 141 197
3 189 199 190
3 190 199 189
3 202 141 197
3 197 141 202
3 197 193 203
3 203 193 197
3 193 197 190
3 190 197 193
3 204 162 202
3 202 162 204
3 202 194 195
3 195 194 202
3 195 198 194
3 194 198 195
3 198 195 203
3 203 195 198
3 202 203 195
3 195 203 202
3 186 204 205
3 205 204 186
3 204 197 205
3 205 197 204
3 203 202 197
3 197 202 203
3 197 204 202
3 202 204 197
