ply
format ascii 1.0
comment Generated by PyMesh
element vertex 28
property double x
property double y
property double z
element face 104
property list uchar int vertex_indices
end_header
0.133332 -0.023777 0.408168
-0.0857783 -0.023777 -0.408168
0.133332 -0.023777 -0.408168
-0.0857783 -0.023777 0.408168
0.133332 0.0664385 -0.408168
0.133332 -0.0713304 -0.40832
-0.0857783 0.0664385 0.408168
-0.0857783 0.0664385 -0.408168
0.133332 0.0664385 -0.455722
0.133332 -0.0713304 0.40832
0.133332 0.0664385 0.408168
-0.0857783 0.0664385 -0.455722
0.133332 -0.156653 -0.455722
0.133332 0.0664385 0.455722
-0.133332 -0.0713304 0.40832
-0.0857783 0.156653 0.455722
0.133332 -0.156653 -0.40832
0.133332 -0.156653 0.40832
-0.133332 -0.0713304 -0.40832
-0.0857783 0.0664385 0.455722
-0.0857783 0.156653 -0.455722
-0.133332 -0.156653 -0.455722
-0.133332 -0.156653 -0.40832
0.133332 -0.156653 0.455722
-0.133332 0.156653 -0.455722
-0.133332 -0.156653 0.40832
-0.133332 -0.156653 0.455722
-0.133332 0.156653 0.455722
3 0 1 2
3 1 0 3
3 1 4 2
3 2 5 0
3 0 6 3
3 6 1 3
3 4 1 7
3 8 2 4
3 8 5 2
3 9 0 5
3 6 0 10
3 1 6 7
3 11 4 7
3 4 11 8
3 12 5 8
3 9 13 0
3 5 14 9
3 0 13 10
3 13 6 10
3 6 15 7
3 7 15 11
3 11 12 8
3 5 12 16
3 17 13 9
3 14 5 18
3 14 17 9
3 6 13 19
3 15 6 19
3 11 15 20
3 11 21 12
3 12 22 16
3 22 5 16
3 13 17 23
3 5 22 18
3 18 24 14
3 17 14 25
3 23 19 13
3 26 15 19
3 15 24 20
3 20 24 11
3 21 11 24
3 22 12 21
3 17 26 23
3 22 24 18
3 27 14 24
3 14 26 25
3 26 17 25
3 26 19 23
3 15 26 27
3 24 15 27
3 24 22 21
3 26 14 27
3 2 1 0
3 3 0 1
3 2 4 1
3 0 5 2
3 3 6 0
3 3 1 6
3 7 1 4
3 4 2 8
3 2 5 8
3 5 0 9
3 10 0 6
3 7 6 1
3 7 4 11
3 8 11 4
3 8 5 12
3 0 13 9
3 9 14 5
3 10 13 0
3 10 6 13
3 7 15 6
3 11 15 7
3 8 12 11
3 16 12 5
3 9 13 17
3 18 5 14
3 9 17 14
3 19 13 6
3 19 6 15
3 20 15 11
3 12 21 11
3 16 22 12
3 16 5 22
3 23 17 13
3 18 22 5
3 14 24 18
3 25 14 17
3 13 19 23
3 19 15 26
3 20 24 15
3 11 24 20
3 24 11 21
3 21 12 22
3 23 26 17
3 18 24 22
3 24 14 27
3 25 26 14
3 25 17 26
3 23 19 26
3 27 26 15
3 27 15 24
3 21 22 24
3 27 14 26
