ply
format ascii 1.0
comment Generated by PyMesh
element vertex 550
property double x
property double y
property double z
element face 2140
property list uchar int vertex_indices
end_header
0.0581979 -0.0700784 0.234798
0.0580981 -0.0761002 0.00547412
0.0580981 -0.0761002 0.234798
0.0581979 -0.0700784 0.00547412
0.0641128 -0.0761995 0.234798
0.0642121 -0.0701777 0.00547412
0.0641128 -0.0761995 0.00547412
0.0642121 -0.0701777 0.234798
-0.0712107 -0.0761929 -0.475745
-0.0651955 -0.113287 -0.475745
-0.0651955 -0.0761929 -0.475745
-0.0712107 -0.113287 -0.475745
-0.0651955 -0.0701777 -0.48176
-0.0651955 -0.0761929 -0.24115
-0.0712107 -0.113287 -0.48176
-0.0651955 -0.113287 -0.48176
-0.0712107 -0.0761929 -0.24115
-0.0712107 -0.0701777 -0.48176
-0.0651955 -0.0701777 -0.24115
-0.0712107 -0.0701777 -0.24115
-0.0651155 -0.0761929 -0.48176
0.0581969 -0.0761929 -0.475745
-0.0651155 -0.0761929 -0.475745
0.0581969 -0.0761929 -0.48176
-0.0651155 -0.0701777 -0.475745
0.0581969 -0.0701777 -0.48176
0.0581969 -0.113287 -0.48176
0.0581969 -0.0701777 -0.475745
-0.0651155 -0.0701777 -0.48176
0.0581969 -0.113287 -0.475745
0.0581969 -0.0701777 -0.24115
0.0642121 -0.0701777 -0.48176
0.0642121 -0.113287 -0.475745
0.0581969 -0.0761929 -0.24115
0.0642121 -0.113287 -0.48176
0.0642121 -0.0761929 -0.475745
0.0642121 -0.0761929 -0.24115
0.0642121 -0.0701777 -0.24115
-0.0651155 -0.0701777 0.00547412
-0.0651155 -0.0761929 0.235135
-0.0651155 -0.0761929 0.00547412
-0.0651155 -0.0701777 0.235135
-0.07123 -0.0761929 0.00547412
-0.07123 -0.0701777 0.235135
-0.07123 -0.0761929 0.235135
-0.07123 -0.0701777 0.00547412
0.0641128 -0.0701777 0.00547412
0.0580976 -0.0701777 -0.000541082
-0.07123 -0.0701777 0.00547412
0.0641128 -0.0701777 -0.241151
-0.0652148 -0.0701777 -0.000541082
0.0580976 -0.0761929 0.00547412
0.0641128 -0.0761929 -0.000541082
0.0580976 -0.0701777 -0.235135
-0.07123 -0.0701777 -0.241151
0.0580976 -0.0761929 -0.000541082
0.0641128 -0.112284 0.00547412
-0.0652148 -0.0761929 0.00547412
0.0641128 -0.0761929 -0.235135
-0.0652148 -0.0701777 -0.235135
0.0580976 -0.0761929 -0.235135
-0.07123 -0.0761929 -0.235135
-0.0652148 -0.0761929 -0.000541082
0.0580976 -0.112284 0.00547412
-0.0652148 -0.112284 0.00547412
0.0641128 -0.112284 -0.000541082
0.0641128 -0.112284 -0.235135
-0.07123 -0.112284 -0.241151
-0.07123 -0.0761929 -0.000541082
0.0580976 -0.112284 -0.000541082
-0.07123 -0.112284 0.00547412
0.0641128 -0.112284 -0.241151
0.0580976 -0.0761929 -0.241151
-0.0652148 -0.0761929 -0.235135
-0.07123 -0.112284 -0.235135
-0.0652148 -0.0761929 -0.241151
-0.07123 -0.112284 -0.000541082
-0.0652148 -0.112284 -0.000541082
0.0580976 -0.112284 -0.235135
0.0580976 -0.112284 -0.241151
-0.0652148 -0.112284 -0.235135
-0.0652148 -0.112284 -0.241151
-0.0566279 0.113287 6.02868e-05
-0.0711307 0.113287 0.240669
-0.0566279 0.113287 0.240669
-0.0711307 0.113287 6.02868e-05
-0.0711307 -0.0701777 0.240669
-0.056369 0.113035 6.02868e-05
-0.0711307 -0.0701777 6.02868e-05
-0.056369 0.113035 0.240669
-0.0561228 0.112771 0.240669
-0.0400515 -0.0701777 0.240669
-0.0561228 0.112771 6.02868e-05
-0.0558913 0.112494 0.240669
0.0642121 -0.0701777 0.240669
-0.0545249 0.109577 0.240669
-0.0558913 0.112494 6.02868e-05
-0.0556739 0.112206 0.240669
0.0642121 -0.0701777 6.02868e-05
0.0633048 -0.0188425 0.240669
-0.0400515 -0.0240608 0.240669
-0.0546075 0.109928 0.240669
-0.0556739 0.112206 6.02868e-05
-0.0554718 0.111906 0.240669
-0.0400515 -0.0701777 6.02868e-05
0.0653242 -0.0668365 6.02868e-05
0.0646159 -0.0192261 0.240669
0.0619536 -0.0186399 0.240669
-0.0388939 -0.0217318 0.240669
0.0605877 -0.0186211 0.240669
-0.0546075 0.109928 6.02868e-05
-0.0547083 0.110275 0.240669
-0.0554718 0.111906 6.02868e-05
-0.0552858 0.111597 0.240669
-0.0400515 -0.0240608 6.02868e-05
0.0633048 -0.0188425 6.02868e-05
0.0653242 -0.0668365 0.240669
0.0646159 -0.0192261 6.02868e-05
-0.0378355 -0.0193557 0.240669
-0.0388939 -0.0217318 6.02868e-05
0.0605877 -0.0186211 6.02868e-05
-0.0545249 0.109577 6.02868e-05
-0.0547083 0.110275 6.02868e-05
-0.0548263 0.110616 0.240669
-0.0552858 0.111597 6.02868e-05
-0.0551156 0.111278 0.240669
0.0619536 -0.0186399 6.02868e-05
0.0663425 -0.0634649 6.02868e-05
0.0658632 -0.0197828 6.02868e-05
0.0658632 -0.0197828 0.240669
-0.036878 -0.0169371 0.240669
-0.0378355 -0.0193557 6.02868e-05
-0.0330342 0.0060152 0.240669
-0.0548263 0.110616 6.02868e-05
-0.0549626 0.110951 0.240669
-0.0551156 0.111278 6.02868e-05
0.0663425 -0.0634649 0.240669
-0.0360238 -0.01448 0.240669
-0.036878 -0.0169371 6.02868e-05
-0.0330342 0.0060152 6.02868e-05
-0.033129 0.000814656 0.240669
-0.0549626 0.110951 6.02868e-05
0.0672661 -0.0600669 6.02868e-05
0.0670239 -0.0205033 6.02868e-05
0.0670239 -0.0205033 0.240669
-0.0352735 -0.0119894 0.240669
-0.0360238 -0.01448 6.02868e-05
-0.0330266 0.00341417 0.240669
-0.033129 0.000814656 6.02868e-05
-0.0333407 -0.00177776 0.240669
0.0672661 -0.0600669 0.240669
-0.0346291 -0.0094694 0.240669
-0.0352735 -0.0119894 6.02868e-05
-0.0330266 0.00341417 6.02868e-05
-0.0333407 -0.00177776 6.02868e-05
-0.0336624 -0.00435904 0.240669
0.0680944 -0.0566436 6.02868e-05
0.0680772 -0.0213736 6.02868e-05
0.0680772 -0.0213736 0.240669
-0.0340921 -0.0069246 0.240669
-0.0346291 -0.0094694 6.02868e-05
-0.0336624 -0.00435904 6.02868e-05
0.0680944 -0.0566436 0.240669
-0.0340921 -0.0069246 6.02868e-05
0.068827 -0.053199 6.02868e-05
0.068827 -0.053199 0.240669
0.0690033 -0.0223783 0.240669
0.0690033 -0.0223783 6.02868e-05
0.0694628 -0.0497352 6.02868e-05
0.0694628 -0.0497352 0.240669
0.069785 -0.0234984 0.240669
0.069785 -0.0234984 6.02868e-05
0.0700019 -0.0462552 6.02868e-05
0.0700019 -0.0462552 0.240669
0.0704082 -0.0247139 0.240669
0.0704082 -0.0247139 6.02868e-05
0.0704437 -0.0427615 6.02868e-05
0.0704437 -0.0427615 0.240669
0.0708621 -0.0260027 0.240669
0.0707877 -0.0392566 6.02868e-05
0.0707877 -0.0392566 0.240669
0.0708621 -0.0260027 6.02868e-05
0.0711377 -0.0273407 0.240669
0.0710334 -0.0357437 0.240669
0.0710334 -0.0357437 6.02868e-05
0.0711377 -0.0273407 6.02868e-05
0.07123 -0.0287036 0.240669
0.0711808 -0.0322246 0.240669
0.0711808 -0.0322246 6.02868e-05
0.07123 -0.0287036 6.02868e-05
0.0641128 -0.0701777 0.48176
0.0580976 -0.0701777 0.475745
-0.07123 -0.0701777 0.48176
0.0641128 -0.0701777 0.235135
-0.0652148 -0.0701777 0.475745
0.0580976 -0.0761929 0.48176
0.0641128 -0.0761929 0.475745
0.0580976 -0.0701777 0.241151
-0.07123 -0.0701777 0.235135
0.0580976 -0.0761929 0.475745
0.0641128 -0.112284 0.48176
-0.0652148 -0.0761929 0.48176
0.0641128 -0.0761929 0.241151
-0.0652148 -0.0701777 0.241151
0.0580976 -0.0761929 0.241151
-0.07123 -0.0761929 0.241151
-0.0652148 -0.0761929 0.475745
0.0580976 -0.112284 0.48176
-0.0652148 -0.112284 0.48176
0.0641128 -0.112284 0.475745
0.0641128 -0.112284 0.241151
-0.07123 -0.112284 0.235135
-0.07123 -0.0761929 0.475745
0.0580976 -0.112284 0.475745
-0.07123 -0.112284 0.48176
0.0641128 -0.112284 0.235135
0.0580976 -0.0761929 0.235135
-0.0652148 -0.0761929 0.241151
-0.07123 -0.112284 0.241151
-0.0652148 -0.0761929 0.235135
-0.07123 -0.112284 0.475745
-0.0652148 -0.112284 0.475745
0.0580976 -0.112284 0.241151
0.0580976 -0.112284 0.235135
-0.0652148 -0.112284 0.241151
-0.0652148 -0.112284 0.235135
-0.0566279 0.113287 0.24083
-0.0711307 0.113287 0.481439
-0.0566279 0.113287 0.481439
-0.0711307 0.113287 0.24083
-0.0711307 -0.0701777 0.481439
-0.056369 0.113035 0.24083
-0.0711307 -0.0701777 0.24083
-0.056369 0.113035 0.481439
-0.0561228 0.112771 0.481439
-0.0400515 -0.0701777 0.481439
-0.0561228 0.112771 0.24083
-0.0558913 0.112494 0.481439
0.0642121 -0.0701777 0.481439
-0.0545249 0.109577 0.481439
-0.0558913 0.112494 0.24083
-0.0556739 0.112206 0.481439
0.0642121 -0.0701777 0.24083
0.0633048 -0.0188425 0.481439
-0.0400515 -0.0240608 0.481439
-0.0546075 0.109928 0.481439
-0.0556739 0.112206 0.24083
-0.0554718 0.111906 0.481439
-0.0400515 -0.0701777 0.24083
0.0653242 -0.0668365 0.24083
0.0646159 -0.0192261 0.481439
0.0619536 -0.0186399 0.481439
-0.0388939 -0.0217318 0.481439
0.0605877 -0.0186211 0.481439
-0.0546075 0.109928 0.24083
-0.0547083 0.110275 0.481439
-0.0554718 0.111906 0.24083
-0.0552858 0.111597 0.481439
-0.0400515 -0.0240608 0.24083
0.0633048 -0.0188425 0.24083
0.0653242 -0.0668365 0.481439
0.0646159 -0.0192261 0.24083
-0.0378355 -0.0193557 0.481439
-0.0388939 -0.0217318 0.24083
0.0605877 -0.0186211 0.24083
-0.0545249 0.109577 0.24083
-0.0547083 0.110275 0.24083
-0.0548263 0.110616 0.481439
-0.0552858 0.111597 0.24083
-0.0551156 0.111278 0.481439
0.0619536 -0.0186399 0.24083
0.0663425 -0.0634649 0.24083
0.0658632 -0.0197828 0.24083
0.0658632 -0.0197828 0.481439
-0.036878 -0.0169371 0.481439
-0.0378355 -0.0193557 0.24083
-0.0330342 0.0060152 0.481439
-0.0548263 0.110616 0.24083
-0.0549626 0.110951 0.481439
-0.0551156 0.111278 0.24083
0.0663425 -0.0634649 0.481439
-0.0360238 -0.01448 0.481439
-0.036878 -0.0169371 0.24083
-0.0330342 0.0060152 0.24083
-0.033129 0.000814656 0.481439
-0.0549626 0.110951 0.24083
0.0672661 -0.0600669 0.24083
0.0670239 -0.0205033 0.24083
0.0670239 -0.0205033 0.481439
-0.0352735 -0.0119894 0.481439
-0.0360238 -0.01448 0.24083
-0.0330266 0.00341417 0.481439
-0.033129 0.000814656 0.24083
-0.0333407 -0.00177776 0.481439
0.0672661 -0.0600669 0.481439
-0.0346291 -0.0094694 0.481439
-0.0352735 -0.0119894 0.24083
-0.0330266 0.00341417 0.24083
-0.0333407 -0.00177776 0.24083
-0.0336624 -0.00435904 0.481439
0.0680944 -0.0566436 0.24083
0.0680772 -0.0213736 0.24083
0.0680772 -0.0213736 0.481439
-0.0340921 -0.0069246 0.481439
-0.0346291 -0.0094694 0.24083
-0.0336624 -0.00435904 0.24083
0.0680944 -0.0566436 0.481439
-0.0340921 -0.0069246 0.24083
0.068827 -0.053199 0.24083
0.068827 -0.053199 0.481439
0.0690033 -0.0223783 0.481439
0.0690033 -0.0223783 0.24083
0.0694628 -0.0497352 0.24083
0.0694628 -0.0497352 0.481439
0.069785 -0.0234984 0.481439
0.069785 -0.0234984 0.24083
0.0700019 -0.0462552 0.24083
0.0700019 -0.0462552 0.481439
0.0704082 -0.0247139 0.481439
0.0704082 -0.0247139 0.24083
0.0704437 -0.0427615 0.24083
0.0704437 -0.0427615 0.481439
0.0708621 -0.0260027 0.481439
0.0707877 -0.0392566 0.24083
0.0707877 -0.0392566 0.481439
0.0708621 -0.0260027 0.24083
0.0711377 -0.0273407 0.481439
0.0710334 -0.0357437 0.481439
0.0710334 -0.0357437 0.24083
0.0711377 -0.0273407 0.24083
0.07123 -0.0287036 0.481439
0.0711808 -0.0322246 0.481439
0.0711808 -0.0322246 0.24083
0.07123 -0.0287036 0.24083
-0.0566279 0.113287 -0.481539
-0.0711307 0.113287 -0.24093
-0.0566279 0.113287 -0.24093
-0.0711307 0.113287 -0.481539
-0.0711307 -0.0701777 -0.24093
-0.056369 0.113035 -0.481539
-0.0711307 -0.0701777 -0.481539
-0.056369 0.113035 -0.24093
-0.0561228 0.112771 -0.24093
-0.0400515 -0.0701777 -0.24093
-0.0561228 0.112771 -0.481539
-0.0558913 0.112494 -0.24093
0.0642121 -0.0701777 -0.24093
-0.0545249 0.109577 -0.24093
-0.0558913 0.112494 -0.481539
-0.0556739 0.112206 -0.24093
0.0642121 -0.0701777 -0.481539
0.0633048 -0.0188425 -0.24093
-0.0400515 -0.0240608 -0.24093
-0.0546075 0.109928 -0.24093
-0.0556739 0.112206 -0.481539
-0.0554718 0.111906 -0.24093
-0.0400515 -0.0701777 -0.481539
0.0653242 -0.0668365 -0.481539
0.0646159 -0.0192261 -0.24093
0.0619536 -0.0186399 -0.24093
-0.0388939 -0.0217318 -0.24093
0.0605877 -0.0186211 -0.24093
-0.0546075 0.109928 -0.481539
-0.0547083 0.110275 -0.24093
-0.0554718 0.111906 -0.481539
-0.0552858 0.111597 -0.24093
-0.0400515 -0.0240608 -0.481539
0.0633048 -0.0188425 -0.481539
0.0653242 -0.0668365 -0.24093
0.0646159 -0.0192261 -0.481539
-0.0378355 -0.0193557 -0.24093
-0.0388939 -0.0217318 -0.481539
0.0605877 -0.0186211 -0.481539
-0.0545249 0.109577 -0.481539
-0.0547083 0.110275 -0.481539
-0.0548263 0.110616 -0.24093
-0.0552858 0.111597 -0.481539
-0.0551156 0.111278 -0.24093
0.0619536 -0.0186399 -0.481539
0.0663425 -0.0634649 -0.481539
0.0658632 -0.0197828 -0.481539
0.0658632 -0.0197828 -0.24093
-0.036878 -0.0169371 -0.24093
-0.0378355 -0.0193557 -0.481539
-0.0330342 0.0060152 -0.24093
-0.0548263 0.110616 -0.481539
-0.0549626 0.110951 -0.24093
-0.0551156 0.111278 -0.481539
0.0663425 -0.0634649 -0.24093
-0.0360238 -0.01448 -0.24093
-0.036878 -0.0169371 -0.481539
-0.0330342 0.0060152 -0.481539
-0.033129 0.000814656 -0.24093
-0.0549626 0.110951 -0.481539
0.0672661 -0.0600669 -0.481539
0.0670239 -0.0205033 -0.481539
0.0670239 -0.0205033 -0.24093
-0.0352735 -0.0119894 -0.24093
-0.0360238 -0.01448 -0.481539
-0.0330266 0.00341417 -0.24093
-0.033129 0.000814656 -0.481539
-0.0333407 -0.00177776 -0.24093
0.0672661 -0.0600669 -0.24093
-0.0346291 -0.0094694 -0.24093
-0.0352735 -0.0119894 -0.481539
-0.0330266 0.00341417 -0.481539
-0.0333407 -0.00177776 -0.481539
-0.0336624 -0.00435904 -0.24093
0.0680944 -0.0566436 -0.481539
0.0680772 -0.0213736 -0.481539
0.0680772 -0.0213736 -0.24093
-0.0340921 -0.0069246 -0.24093
-0.0346291 -0.0094694 -0.481539
-0.0336624 -0.00435904 -0.481539
0.0680944 -0.0566436 -0.24093
-0.0340921 -0.0069246 -0.481539
0.068827 -0.053199 -0.481539
0.068827 -0.053199 -0.24093
0.0690033 -0.0223783 -0.24093
0.0690033 -0.0223783 -0.481539
0.0694628 -0.0497352 -0.481539
0.0694628 -0.0497352 -0.24093
0.069785 -0.0234984 -0.24093
0.069785 -0.0234984 -0.481539
0.0700019 -0.0462552 -0.481539
0.0700019 -0.0462552 -0.24093
0.0704082 -0.0247139 -0.24093
0.0704082 -0.0247139 -0.481539
0.0704437 -0.0427615 -0.481539
0.0704437 -0.0427615 -0.24093
0.0708621 -0.0260027 -0.24093
0.0707877 -0.0392566 -0.481539
0.0707877 -0.0392566 -0.24093
0.0708621 -0.0260027 -0.481539
0.0711377 -0.0273407 -0.24093
0.0710334 -0.0357437 -0.24093
0.0710334 -0.0357437 -0.481539
0.0711377 -0.0273407 -0.481539
0.07123 -0.0287036 -0.24093
0.0711808 -0.0322246 -0.24093
0.0711808 -0.0322246 -0.481539
0.07123 -0.0287036 -0.481539
-0.0566279 0.113287 -0.240869
-0.0711307 0.113287 -0.000260409
-0.0566279 0.113287 -0.000260409
-0.0711307 0.113287 -0.240869
-0.0711307 -0.0701777 -0.000260409
-0.056369 0.113035 -0.240869
-0.0711307 -0.0701777 -0.240869
-0.056369 0.113035 -0.000260409
-0.0561228 0.112771 -0.000260409
-0.0400515 -0.0701777 -0.000260409
-0.0561228 0.112771 -0.240869
-0.0558913 0.112494 -0.000260409
0.0642121 -0.0701777 -0.000260409
-0.0545249 0.109577 -0.000260409
-0.0558913 0.112494 -0.240869
-0.0556739 0.112206 -0.000260409
0.0642121 -0.0701777 -0.240869
0.0633048 -0.0188425 -0.000260409
-0.0400515 -0.0240608 -0.000260409
-0.0546075 0.109928 -0.000260409
-0.0556739 0.112206 -0.240869
-0.0554718 0.111906 -0.000260409
-0.0400515 -0.0701777 -0.240869
0.0653242 -0.0668365 -0.240869
0.0646159 -0.0192261 -0.000260409
0.0619536 -0.0186399 -0.000260409
-0.0388939 -0.0217318 -0.000260409
0.0605877 -0.0186211 -0.000260409
-0.0546075 0.109928 -0.240869
-0.0547083 0.110275 -0.000260409
-0.0554718 0.111906 -0.240869
-0.0552858 0.111597 -0.000260409
-0.0400515 -0.0240608 -0.240869
0.0633048 -0.0188425 -0.240869
0.0653242 -0.0668365 -0.000260409
0.0646159 -0.0192261 -0.240869
-0.0378355 -0.0193557 -0.000260409
-0.0388939 -0.0217318 -0.240869
0.0605877 -0.0186211 -0.240869
-0.0545249 0.109577 -0.240869
-0.0547083 0.110275 -0.240869
-0.0548263 0.110616 -0.000260409
-0.0552858 0.111597 -0.240869
-0.0551156 0.111278 -0.000260409
0.0619536 -0.0186399 -0.240869
0.0663425 -0.0634649 -0.240869
0.0658632 -0.0197828 -0.240869
0.0658632 -0.0197828 -0.000260409
-0.036878 -0.0169371 -0.000260409
-0.0378355 -0.0193557 -0.240869
-0.0330342 0.0060152 -0.000260409
-0.0548263 0.110616 -0.240869
-0.0549626 0.110951 -0.000260409
-0.0551156 0.111278 -0.240869
0.0663425 -0.0634649 -0.000260409
-0.0360238 -0.01448 -0.000260409
-0.036878 -0.0169371 -0.240869
-0.0330342 0.0060152 -0.240869
-0.033129 0.000814656 -0.000260409
-0.0549626 0.110951 -0.240869
0.0672661 -0.0600669 -0.240869
0.0670239 -0.0205033 -0.240869
0.0670239 -0.0205033 -0.000260409
-0.0352735 -0.0119894 -0.000260409
-0.0360238 -0.01448 -0.240869
-0.0330266 0.00341417 -0.000260409
-0.033129 0.000814656 -0.240869
-0.0333407 -0.00177776 -0.000260409
0.0672661 -0.0600669 -0.000260409
-0.0346291 -0.0094694 -0.000260409
-0.0352735 -0.0119894 -0.240869
-0.0330266 0.00341417 -0.240869
-0.0333407 -0.00177776 -0.240869
-0.0336624 -0.00435904 -0.000260409
0.0680944 -0.0566436 -0.240869
0.0680772 -0.0213736 -0.240869
0.0680772 -0.0213736 -0.000260409
-0.0340921 -0.0069246 -0.000260409
-0.0346291 -0.0094694 -0.240869
-0.0336624 -0.00435904 -0.240869
0.0680944 -0.0566436 -0.000260409
-0.0340921 -0.0069246 -0.240869
0.068827 -0.053199 -0.240869
0.068827 -0.053199 -0.000260409
0.0690033 -0.0223783 -0.000260409
0.0690033 -0.0223783 -0.240869
0.0694628 -0.0497352 -0.240869
0.0694628 -0.0497352 -0.000260409
0.069785 -0.0234984 -0.000260409
0.069785 -0.0234984 -0.240869
0.0700019 -0.0462552 -0.240869
0.0700019 -0.0462552 -0.000260409
0.0704082 -0.0247139 -0.000260409
0.0704082 -0.0247139 -0.240869
0.0704437 -0.0427615 -0.240869
0.0704437 -0.0427615 -0.000260409
0.0708621 -0.0260027 -0.000260409
0.0707877 -0.0392566 -0.240869
0.0707877 -0.0392566 -0.000260409
0.0708621 -0.0260027 -0.240869
0.0711377 -0.0273407 -0.000260409
0.0710334 -0.0357437 -0.000260409
0.0710334 -0.0357437 -0.240869
0.0711377 -0.0273407 -0.240869
0.07123 -0.0287036 -0.000260409
0.0711808 -0.0322246 -0.000260409
0.0711808 -0.0322246 -0.240869
0.07123 -0.0287036 -0.240869
3 2 1 0
3 3 0 1
3 2 4 1
3 2 0 4
3 3 5 0
3 1 6 3
3 6 1 4
3 7 4 0
3 7 0 5
3 5 3 6
3 6 4 5
3 7 5 4
3 0 1 2
3 1 0 3
3 1 4 2
3 4 0 2
3 0 5 3
3 3 6 1
3 4 1 6
3 0 4 7
3 5 0 7
3 6 3 5
3 5 4 6
3 4 5 7
3 10 9 8
3 11 8 9
3 10 12 9
3 10 8 13
3 11 14 8
3 11 9 14
3 15 9 12
3 13 12 10
3 16 13 8
3 17 8 14
3 15 14 9
3 15 12 14
3 18 12 13
3 16 19 13
3 16 8 19
3 19 8 17
3 17 14 12
3 18 19 12
3 18 13 19
3 17 12 19
3 8 9 10
3 9 8 11
3 9 12 10
3 13 8 10
3 8 14 11
3 14 9 11
3 12 9 15
3 10 12 13
3 8 13 16
3 14 8 17
3 9 14 15
3 14 12 15
3 13 12 18
3 13 19 16
3 19 8 16
3 17 8 19
3 12 14 17
3 12 19 18
3 19 13 18
3 19 12 17
3 22 21 20
3 23 20 21
3 22 24 21
3 22 20 24
3 23 25 20
3 23 21 26
3 21 23 27
3 27 21 24
3 28 24 20
3 28 20 25
3 23 26 25
3 25 27 23
3 29 26 21
3 27 30 21
3 27 24 25
3 28 25 24
3 25 26 31
3 25 31 27
3 29 32 26
3 29 21 32
3 33 21 30
3 27 31 30
3 34 31 26
3 34 26 32
3 35 32 21
3 33 36 21
3 33 30 36
3 37 30 31
3 34 32 31
3 35 31 32
3 35 21 36
3 37 36 30
3 37 31 36
3 36 31 35
3 20 21 22
3 21 20 23
3 21 24 22
3 24 20 22
3 20 25 23
3 26 21 23
3 27 23 21
3 24 21 27
3 20 24 28
3 25 20 28
3 25 26 23
3 23 27 25
3 21 26 29
3 21 30 27
3 25 24 27
3 24 25 28
3 31 26 25
3 27 31 25
3 26 32 29
3 32 21 29
3 30 21 33
3 30 31 27
3 26 31 34
3 32 26 34
3 21 32 35
3 21 36 33
3 36 30 33
3 31 30 37
3 31 32 34
3 32 31 35
3 36 21 35
3 30 36 37
3 36 31 37
3 35 31 36
3 40 39 38
3 41 38 39
3 40 42 39
3 40 38 42
3 41 43 38
3 41 39 43
3 44 39 42
3 45 42 38
3 45 38 43
3 44 43 39
3 44 42 43
3 45 43 42
3 38 39 40
3 39 38 41
3 39 42 40
3 42 38 40
3 38 43 41
3 43 39 41
3 42 39 44
3 38 42 45
3 43 38 45
3 39 43 44
3 43 42 44
3 42 43 45
3 48 47 46
3 49 46 47
3 47 48 50
3 48 46 51
3 49 52 46
3 53 49 47
3 54 50 48
3 47 50 55
3 56 51 46
3 57 48 51
3 46 52 56
3 52 49 58
3 59 49 53
3 53 47 60
3 59 50 54
3 48 61 54
3 62 55 50
3 55 60 47
3 51 56 63
3 64 48 57
3 57 51 62
3 65 56 52
3 58 49 66
3 58 60 52
3 49 59 54
3 53 60 59
3 50 59 62
3 54 61 67
3 61 48 68
3 55 62 51
3 55 52 60
3 63 56 69
3 63 69 51
3 70 48 64
3 57 62 64
3 65 69 56
3 65 52 69
3 71 66 49
3 58 66 60
3 49 54 72
3 73 59 60
3 73 62 59
3 74 67 61
3 67 75 54
3 68 48 76
3 61 68 73
3 55 51 69
3 55 69 52
3 70 76 48
3 70 64 76
3 77 64 62
3 66 71 78
3 71 49 79
3 78 60 66
3 75 72 54
3 72 79 49
3 73 60 75
3 62 73 68
3 74 80 67
3 74 61 80
3 81 75 67
3 68 76 62
3 73 80 61
3 77 76 64
3 77 62 76
3 79 78 71
3 78 79 60
3 72 75 60
3 72 60 79
3 73 75 80
3 81 67 80
3 81 80 75
3 46 47 48
3 47 46 49
3 50 48 47
3 51 46 48
3 46 52 49
3 47 49 53
3 48 50 54
3 55 50 47
3 46 51 56
3 51 48 57
3 56 52 46
3 58 49 52
3 53 49 59
3 60 47 53
3 54 50 59
3 54 61 48
3 50 55 62
3 47 60 55
3 63 56 51
3 57 48 64
3 62 51 57
3 52 56 65
3 66 49 58
3 52 60 58
3 54 59 49
3 59 60 53
3 62 59 50
3 67 61 54
3 68 48 61
3 51 62 55
3 60 52 55
3 69 56 63
3 51 69 63
3 64 48 70
3 64 62 57
3 56 69 65
3 69 52 65
3 49 66 71
3 60 66 58
3 72 54 49
3 60 59 73
3 59 62 73
3 61 67 74
3 54 75 67
3 76 48 68
3 73 68 61
3 69 51 55
3 52 69 55
3 48 76 70
3 76 64 70
3 62 64 77
3 78 71 66
3 79 49 71
3 66 60 78
3 54 72 75
3 49 79 72
3 75 60 73
3 68 73 62
3 67 80 74
3 80 61 74
3 67 75 81
3 62 76 68
3 61 80 73
3 64 76 77
3 76 62 77
3 71 78 79
3 60 79 78
3 60 75 72
3 79 60 72
3 80 75 73
3 80 67 81
3 75 80 81
3 82 83 84
3 83 82 85
3 86 84 83
3 82 88 85
3 88 83 85
3 86 89 84
3 83 88 86
3 87 88 82
3 86 90 89
3 88 91 86
3 92 88 87
3 86 93 90
3 91 88 94
3 91 95 86
3 96 88 92
3 86 97 93
3 94 88 98
3 94 99 91
3 100 95 91
3 86 95 101
3 102 88 96
3 86 103 97
3 98 88 104
3 94 106 99
3 91 99 107
3 108 95 100
3 91 109 100
3 86 101 111
3 112 88 102
3 86 113 103
3 88 114 104
3 115 98 104
3 117 105 98
3 116 106 94
3 91 107 109
3 118 95 108
3 120 100 109
3 86 111 123
3 124 88 112
3 86 125 113
3 114 88 121
3 120 104 114
3 117 98 115
3 115 104 126
3 128 105 117
3 116 129 106
3 130 95 118
3 100 120 114
3 132 121 95
3 121 88 110
3 110 88 122
3 86 123 134
3 135 88 124
3 86 134 125
3 121 119 114
3 126 104 120
3 128 127 105
3 136 129 116
3 137 95 130
3 121 131 119
3 121 132 139
3 140 132 95
3 122 88 133
3 141 88 135
3 143 127 128
3 136 144 129
3 145 95 137
3 121 138 131
3 139 148 121
3 132 140 147
3 140 95 149
3 133 88 141
3 143 142 127
3 150 144 136
3 151 95 145
3 121 146 138
3 148 139 153
3 121 148 154
3 149 95 155
3 157 142 143
3 150 158 144
3 159 95 151
3 121 152 146
3 121 154 161
3 155 95 159
3 157 156 142
3 162 158 150
3 121 160 152
3 121 161 163
3 157 164 156
3 165 158 162
3 121 163 160
3 167 164 157
3 165 166 158
3 167 168 164
3 169 166 165
3 171 168 167
3 169 170 166
3 171 172 168
3 173 170 169
3 175 172 171
3 173 174 170
3 175 176 172
3 177 174 173
3 175 179 176
3 180 174 177
3 180 178 174
3 181 179 175
3 183 178 180
3 181 184 179
3 183 182 178
3 185 184 181
3 187 182 183
3 185 188 184
3 182 187 186
3 188 185 189
3 84 87 82
3 87 84 89
3 90 87 89
3 87 90 92
3 93 92 90
3 92 93 96
3 97 96 93
3 105 94 98
3 95 110 101
3 96 97 102
3 103 102 97
3 94 105 116
3 117 99 106
3 115 107 99
3 100 119 108
3 110 95 121
3 122 101 110
3 101 122 111
3 102 103 112
3 113 112 103
3 127 116 105
3 99 117 115
3 106 128 117
3 107 115 126
3 126 109 107
3 108 131 118
3 119 100 114
3 131 108 119
3 109 126 120
3 133 111 122
3 111 133 123
3 112 113 124
3 125 124 113
3 116 127 136
3 128 106 129
3 118 138 130
3 138 118 131
3 141 123 133
3 123 141 134
3 124 125 135
3 134 135 125
3 142 136 127
3 129 143 128
3 130 146 137
3 146 130 138
3 147 139 132
3 135 134 141
3 136 142 150
3 143 129 144
3 137 152 145
3 152 137 146
3 139 147 153
3 140 153 147
3 149 148 140
3 156 150 142
3 144 157 143
3 145 160 151
3 160 145 152
3 153 140 148
3 148 149 154
3 155 154 149
3 150 156 162
3 157 144 158
3 151 163 159
3 163 151 160
3 154 155 161
3 159 161 155
3 164 162 156
3 166 157 158
3 161 159 163
3 162 164 165
3 157 166 167
3 168 165 164
3 170 167 166
3 165 168 169
3 167 170 171
3 172 169 168
3 174 171 170
3 169 172 173
3 171 174 175
3 176 173 172
3 178 175 174
3 173 176 177
3 175 178 181
3 179 177 176
3 177 179 180
3 182 181 178
3 184 180 179
3 181 182 185
3 180 184 183
3 186 185 182
3 188 183 184
3 185 186 189
3 183 188 187
3 187 189 186
3 189 187 188
3 84 83 82
3 85 82 83
3 83 84 86
3 85 88 82
3 85 83 88
3 84 89 86
3 86 88 83
3 82 88 87
3 89 90 86
3 86 91 88
3 87 88 92
3 90 93 86
3 94 88 91
3 86 95 91
3 92 88 96
3 93 97 86
3 98 88 94
3 91 99 94
3 91 95 100
3 101 95 86
3 96 88 102
3 97 103 86
3 104 88 98
3 99 106 94
3 107 99 91
3 100 95 108
3 100 109 91
3 111 101 86
3 102 88 112
3 103 113 86
3 104 114 88
3 104 98 115
3 98 105 117
3 94 106 116
3 109 107 91
3 108 95 118
3 109 100 120
3 123 111 86
3 112 88 124
3 113 125 86
3 121 88 114
3 114 104 120
3 115 98 117
3 126 104 115
3 117 105 128
3 106 129 116
3 118 95 130
3 114 120 100
3 95 121 132
3 110 88 121
3 122 88 110
3 134 123 86
3 124 88 135
3 125 134 86
3 114 119 121
3 120 104 126
3 105 127 128
3 116 129 136
3 130 95 137
3 119 131 121
3 139 132 121
3 95 132 140
3 133 88 122
3 135 88 141
3 128 127 143
3 129 144 136
3 137 95 145
3 131 138 121
3 121 148 139
3 147 140 132
3 149 95 140
3 141 88 133
3 127 142 143
3 136 144 150
3 145 95 151
3 138 146 121
3 153 139 148
3 154 148 121
3 155 95 149
3 143 142 157
3 144 158 150
3 151 95 159
3 146 152 121
3 161 154 121
3 159 95 155
3 142 156 157
3 150 158 162
3 152 160 121
3 163 161 121
3 156 164 157
3 162 158 165
3 160 163 121
3 157 164 167
3 158 166 165
3 164 168 167
3 165 166 169
3 167 168 171
3 166 170 169
3 168 172 171
3 169 170 173
3 171 172 175
3 170 174 173
3 172 176 175
3 173 174 177
3 176 179 175
3 177 174 180
3 174 178 180
3 175 179 181
3 180 178 183
3 179 184 181
3 178 182 183
3 181 184 185
3 183 182 187
3 184 188 185
3 186 187 182
3 189 185 188
3 82 87 84
3 89 84 87
3 89 87 90
3 92 90 87
3 90 92 93
3 96 93 92
3 93 96 97
3 98 94 105
3 101 110 95
3 102 97 96
3 97 102 103
3 116 105 94
3 106 99 117
3 99 107 115
3 108 119 100
3 121 95 110
3 110 101 122
3 111 122 101
3 112 103 102
3 103 112 113
3 105 116 127
3 115 117 99
3 117 128 106
3 126 115 107
3 107 109 126
3 118 131 108
3 114 100 119
3 119 108 131
3 120 126 109
3 122 111 133
3 123 133 111
3 124 113 112
3 113 124 125
3 136 127 116
3 129 106 128
3 130 138 118
3 131 118 138
3 133 123 141
3 134 141 123
3 135 125 124
3 125 135 134
3 127 136 142
3 128 143 129
3 137 146 130
3 138 130 146
3 132 139 147
3 141 134 135
3 150 142 136
3 144 129 143
3 145 152 137
3 146 137 152
3 153 147 139
3 147 153 140
3 140 148 149
3 142 150 156
3 143 157 144
3 151 160 145
3 152 145 160
3 148 140 153
3 154 149 148
3 149 154 155
3 162 156 150
3 158 144 157
3 159 163 151
3 160 151 163
3 161 155 154
3 155 161 159
3 156 162 164
3 158 157 166
3 163 159 161
3 165 164 162
3 167 166 157
3 164 165 168
3 166 167 170
3 169 168 165
3 171 170 167
3 168 169 172
3 170 171 174
3 173 172 169
3 175 174 171
3 172 173 176
3 174 175 178
3 177 176 173
3 181 178 175
3 176 177 179
3 180 179 177
3 178 181 182
3 179 180 184
3 185 182 181
3 183 184 180
3 182 185 186
3 184 183 188
3 189 186 185
3 187 188 183
3 186 189 187
3 188 187 189
3 192 191 190
3 193 190 191
3 191 192 194
3 192 190 195
3 193 196 190
3 197 193 191
3 198 194 192
3 191 194 199
3 200 195 190
3 201 192 195
3 190 196 200
3 196 193 202
3 203 193 197
3 197 191 204
3 203 194 198
3 192 205 198
3 206 199 194
3 199 204 191
3 195 200 207
3 208 192 201
3 201 195 206
3 209 200 196
3 202 193 210
3 202 204 196
3 193 203 198
3 197 204 203
3 194 203 206
3 198 205 211
3 205 192 212
3 199 206 195
3 199 196 204
3 207 200 213
3 207 213 195
3 214 192 208
3 201 206 208
3 209 213 200
3 209 196 213
3 215 210 193
3 202 210 204
3 193 198 216
3 217 203 204
3 217 206 203
3 218 211 205
3 211 219 198
3 212 192 220
3 205 212 217
3 199 195 213
3 199 213 196
3 214 220 192
3 214 208 220
3 221 208 206
3 210 215 222
3 215 193 223
3 222 204 210
3 219 216 198
3 216 223 193
3 217 204 219
3 206 217 212
3 218 224 211
3 218 205 224
3 225 219 211
3 212 220 206
3 217 224 205
3 221 220 208
3 221 206 220
3 223 222 215
3 222 223 204
3 216 219 204
3 216 204 223
3 217 219 224
3 225 211 224
3 225 224 219
3 190 191 192
3 191 190 193
3 194 192 191
3 195 190 192
3 190 196 193
3 191 193 197
3 192 194 198
3 199 194 191
3 190 195 200
3 195 192 201
3 200 196 190
3 202 193 196
3 197 193 203
3 204 191 197
3 198 194 203
3 198 205 192
3 194 199 206
3 191 204 199
3 207 200 195
3 201 192 208
3 206 195 201
3 196 200 209
3 210 193 202
3 196 204 202
3 198 203 193
3 203 204 197
3 206 203 194
3 211 205 198
3 212 192 205
3 195 206 199
3 204 196 199
3 213 200 207
3 195 213 207
3 208 192 214
3 208 206 201
3 200 213 209
3 213 196 209
3 193 210 215
3 204 210 202
3 216 198 193
3 204 203 217
3 203 206 217
3 205 211 218
3 198 219 211
3 220 192 212
3 217 212 205
3 213 195 199
3 196 213 199
3 192 220 214
3 220 208 214
3 206 208 221
3 222 215 210
3 223 193 215
3 210 204 222
3 198 216 219
3 193 223 216
3 219 204 217
3 212 217 206
3 211 224 218
3 224 205 218
3 211 219 225
3 206 220 212
3 205 224 217
3 208 220 221
3 220 206 221
3 215 222 223
3 204 223 222
3 204 219 216
3 223 204 216
3 224 219 217
3 224 211 225
3 219 224 225
3 226 227 228
3 227 226 229
3 230 228 227
3 226 232 229
3 232 227 229
3 230 233 228
3 227 232 230
3 231 232 226
3 230 234 233
3 232 235 230
3 236 232 231
3 230 237 234
3 235 232 238
3 235 239 230
3 240 232 236
3 230 241 237
3 238 232 242
3 238 243 235
3 244 239 235
3 230 239 245
3 246 232 240
3 230 247 241
3 242 232 248
3 238 250 243
3 235 243 251
3 252 239 244
3 235 253 244
3 230 245 255
3 256 232 246
3 230 257 247
3 232 258 248
3 259 242 248
3 261 249 242
3 260 250 238
3 235 251 253
3 262 239 252
3 264 244 253
3 230 255 267
3 268 232 256
3 230 269 257
3 258 232 265
3 264 248 258
3 261 242 259
3 259 248 270
3 272 249 261
3 260 273 250
3 274 239 262
3 244 264 258
3 276 265 239
3 265 232 254
3 254 232 266
3 230 267 278
3 279 232 268
3 230 278 269
3 265 263 258
3 270 248 264
3 272 271 249
3 280 273 260
3 281 239 274
3 265 275 263
3 265 276 283
3 284 276 239
3 266 232 277
3 285 232 279
3 287 271 272
3 280 288 273
3 289 239 281
3 265 282 275
3 283 292 265
3 276 284 291
3 284 239 293
3 277 232 285
3 287 286 271
3 294 288 280
3 295 239 289
3 265 290 282
3 292 283 297
3 265 292 298
3 293 239 299
3 301 286 287
3 294 302 288
3 303 239 295
3 265 296 290
3 265 298 305
3 299 239 303
3 301 300 286
3 306 302 294
3 265 304 296
3 265 305 307
3 301 308 300
3 309 302 306
3 265 307 304
3 311 308 301
3 309 310 302
3 311 312 308
3 313 310 309
3 315 312 311
3 313 314 310
3 315 316 312
3 317 314 313
3 319 316 315
3 317 318 314
3 319 320 316
3 321 318 317
3 319 323 320
3 324 318 321
3 324 322 318
3 325 323 319
3 327 322 324
3 325 328 323
3 327 326 322
3 329 328 325
3 331 326 327
3 329 332 328
3 326 331 330
3 332 329 333
3 228 231 226
3 231 228 233
3 234 231 233
3 231 234 236
3 237 236 234
3 236 237 240
3 241 240 237
3 249 238 242
3 239 254 245
3 240 241 246
3 247 246 241
3 238 249 260
3 261 243 250
3 259 251 243
3 244 263 252
3 254 239 265
3 266 245 254
3 245 266 255
3 246 247 256
3 257 256 247
3 271 260 249
3 243 261 259
3 250 272 261
3 251 259 270
3 270 253 251
3 252 275 262
3 263 244 258
3 275 252 263
3 253 270 264
3 277 255 266
3 255 277 267
3 256 257 268
3 269 268 257
3 260 271 280
3 272 250 273
3 262 282 274
3 282 262 275
3 285 267 277
3 267 285 278
3 268 269 279
3 278 279 269
3 286 280 271
3 273 287 272
3 274 290 281
3 290 274 282
3 291 283 276
3 279 278 285
3 280 286 294
3 287 273 288
3 281 296 289
3 296 281 290
3 283 291 297
3 284 297 291
3 293 292 284
3 300 294 286
3 288 301 287
3 289 304 295
3 304 289 296
3 297 284 292
3 292 293 298
3 299 298 293
3 294 300 306
3 301 288 302
3 295 307 303
3 307 295 304
3 298 299 305
3 303 305 299
3 308 306 300
3 310 301 302
3 305 303 307
3 306 308 309
3 301 310 311
3 312 309 308
3 314 311 310
3 309 312 313
3 311 314 315
3 316 313 312
3 318 315 314
3 313 316 317
3 315 318 319
3 320 317 316
3 322 319 318
3 317 320 321
3 319 322 325
3 323 321 320
3 321 323 324
3 326 325 322
3 328 324 323
3 325 326 329
3 324 328 327
3 330 329 326
3 332 327 328
3 329 330 333
3 327 332 331
3 331 333 330
3 333 331 332
3 228 227 226
3 229 226 227
3 227 228 230
3 229 232 226
3 229 227 232
3 228 233 230
3 230 232 227
3 226 232 231
3 233 234 230
3 230 235 232
3 231 232 236
3 234 237 230
3 238 232 235
3 230 239 235
3 236 232 240
3 237 241 230
3 242 232 238
3 235 243 238
3 235 239 244
3 245 239 230
3 240 232 246
3 241 247 230
3 248 232 242
3 243 250 238
3 251 243 235
3 244 239 252
3 244 253 235
3 255 245 230
3 246 232 256
3 247 257 230
3 248 258 232
3 248 242 259
3 242 249 261
3 238 250 260
3 253 251 235
3 252 239 262
3 253 244 264
3 267 255 230
3 256 232 268
3 257 269 230
3 265 232 258
3 258 248 264
3 259 242 261
3 270 248 259
3 261 249 272
3 250 273 260
3 262 239 274
3 258 264 244
3 239 265 276
3 254 232 265
3 266 232 254
3 278 267 230
3 268 232 279
3 269 278 230
3 258 263 265
3 264 248 270
3 249 271 272
3 260 273 280
3 274 239 281
3 263 275 265
3 283 276 265
3 239 276 284
3 277 232 266
3 279 232 285
3 272 271 287
3 273 288 280
3 281 239 289
3 275 282 265
3 265 292 283
3 291 284 276
3 293 239 284
3 285 232 277
3 271 286 287
3 280 288 294
3 289 239 295
3 282 290 265
3 297 283 292
3 298 292 265
3 299 239 293
3 287 286 301
3 288 302 294
3 295 239 303
3 290 296 265
3 305 298 265
3 303 239 299
3 286 300 301
3 294 302 306
3 296 304 265
3 307 305 265
3 300 308 301
3 306 302 309
3 304 307 265
3 301 308 311
3 302 310 309
3 308 312 311
3 309 310 313
3 311 312 315
3 310 314 313
3 312 316 315
3 313 314 317
3 315 316 319
3 314 318 317
3 316 320 319
3 317 318 321
3 320 323 319
3 321 318 324
3 318 322 324
3 319 323 325
3 324 322 327
3 323 328 325
3 322 326 327
3 325 328 329
3 327 326 331
3 328 332 329
3 330 331 326
3 333 329 332
3 226 231 228
3 233 228 231
3 233 231 234
3 236 234 231
3 234 236 237
3 240 237 236
3 237 240 241
3 242 238 249
3 245 254 239
3 246 241 240
3 241 246 247
3 260 249 238
3 250 243 261
3 243 251 259
3 252 263 244
3 265 239 254
3 254 245 266
3 255 266 245
3 256 247 246
3 247 256 257
3 249 260 271
3 259 261 243
3 261 272 250
3 270 259 251
3 251 253 270
3 262 275 252
3 258 244 263
3 263 252 275
3 264 270 253
3 266 255 277
3 267 277 255
3 268 257 256
3 257 268 269
3 280 271 260
3 273 250 272
3 274 282 262
3 275 262 282
3 277 267 285
3 278 285 267
3 279 269 268
3 269 279 278
3 271 280 286
3 272 287 273
3 281 290 274
3 282 274 290
3 276 283 291
3 285 278 279
3 294 286 280
3 288 273 287
3 289 296 281
3 290 281 296
3 297 291 283
3 291 297 284
3 284 292 293
3 286 294 300
3 287 301 288
3 295 304 289
3 296 289 304
3 292 284 297
3 298 293 292
3 293 298 299
3 306 300 294
3 302 288 301
3 303 307 295
3 304 295 307
3 305 299 298
3 299 305 303
3 300 306 308
3 302 301 310
3 307 303 305
3 309 308 306
3 311 310 301
3 308 309 312
3 310 311 314
3 313 312 309
3 315 314 311
3 312 313 316
3 314 315 318
3 317 316 313
3 319 318 315
3 316 317 320
3 318 319 322
3 321 320 317
3 325 322 319
3 320 321 323
3 324 323 321
3 322 325 326
3 323 324 328
3 329 326 325
3 327 328 324
3 326 329 330
3 328 327 332
3 333 330 329
3 331 332 327
3 330 333 331
3 332 331 333
3 334 335 336
3 335 334 337
3 338 336 335
3 334 340 337
3 340 335 337
3 338 341 336
3 335 340 338
3 339 340 334
3 338 342 341
3 340 343 338
3 344 340 339
3 338 345 342
3 343 340 346
3 343 347 338
3 348 340 344
3 338 349 345
3 346 340 350
3 346 351 343
3 352 347 343
3 338 347 353
3 354 340 348
3 338 355 349
3 350 340 356
3 346 358 351
3 343 351 359
3 360 347 352
3 343 361 352
3 338 353 363
3 364 340 354
3 338 365 355
3 340 366 356
3 367 350 356
3 369 357 350
3 368 358 346
3 343 359 361
3 370 347 360
3 372 352 361
3 338 363 375
3 376 340 364
3 338 377 365
3 366 340 373
3 372 356 366
3 369 350 367
3 367 356 378
3 380 357 369
3 368 381 358
3 382 347 370
3 352 372 366
3 384 373 347
3 373 340 362
3 362 340 374
3 338 375 386
3 387 340 376
3 338 386 377
3 373 371 366
3 378 356 372
3 380 379 357
3 388 381 368
3 389 347 382
3 373 383 371
3 373 384 391
3 392 384 347
3 374 340 385
3 393 340 387
3 395 379 380
3 388 396 381
3 397 347 389
3 373 390 383
3 391 400 373
3 384 392 399
3 392 347 401
3 385 340 393
3 395 394 379
3 402 396 388
3 403 347 397
3 373 398 390
3 400 391 405
3 373 400 406
3 401 347 407
3 409 394 395
3 402 410 396
3 411 347 403
3 373 404 398
3 373 406 413
3 407 347 411
3 409 408 394
3 414 410 402
3 373 412 404
3 373 413 415
3 409 416 408
3 417 410 414
3 373 415 412
3 419 416 409
3 417 418 410
3 419 420 416
3 421 418 417
3 423 420 419
3 421 422 418
3 423 424 420
3 425 422 421
3 427 424 423
3 425 426 422
3 427 428 424
3 429 426 425
3 427 431 428
3 432 426 429
3 432 430 426
3 433 431 427
3 435 430 432
3 433 436 431
3 435 434 430
3 437 436 433
3 439 434 435
3 437 440 436
3 434 439 438
3 440 437 441
3 336 339 334
3 339 336 341
3 342 339 341
3 339 342 344
3 345 344 342
3 344 345 348
3 349 348 345
3 357 346 350
3 347 362 353
3 348 349 354
3 355 354 349
3 346 357 368
3 369 351 358
3 367 359 351
3 352 371 360
3 362 347 373
3 374 353 362
3 353 374 363
3 354 355 364
3 365 364 355
3 379 368 357
3 351 369 367
3 358 380 369
3 359 367 378
3 378 361 359
3 360 383 370
3 371 352 366
3 383 360 371
3 361 378 372
3 385 363 374
3 363 385 375
3 364 365 376
3 377 376 365
3 368 379 388
3 380 358 381
3 370 390 382
3 390 370 383
3 393 375 385
3 375 393 386
3 376 377 387
3 386 387 377
3 394 388 379
3 381 395 380
3 382 398 389
3 398 382 390
3 399 391 384
3 387 386 393
3 388 394 402
3 395 381 396
3 389 404 397
3 404 389 398
3 391 399 405
3 392 405 399
3 401 400 392
3 408 402 394
3 396 409 395
3 397 412 403
3 412 397 404
3 405 392 400
3 400 401 406
3 407 406 401
3 402 408 414
3 409 396 410
3 403 415 411
3 415 403 412
3 406 407 413
3 411 413 407
3 416 414 408
3 418 409 410
3 413 411 415
3 414 416 417
3 409 418 419
3 420 417 416
3 422 419 418
3 417 420 421
3 419 422 423
3 424 421 420
3 426 423 422
3 421 424 425
3 423 426 427
3 428 425 424
3 430 427 426
3 425 428 429
3 427 430 433
3 431 429 428
3 429 431 432
3 434 433 430
3 436 432 431
3 433 434 437
3 432 436 435
3 438 437 434
3 440 435 436
3 437 438 441
3 435 440 439
3 439 441 438
3 441 439 440
3 336 335 334
3 337 334 335
3 335 336 338
3 337 340 334
3 337 335 340
3 336 341 338
3 338 340 335
3 334 340 339
3 341 342 338
3 338 343 340
3 339 340 344
3 342 345 338
3 346 340 343
3 338 347 343
3 344 340 348
3 345 349 338
3 350 340 346
3 343 351 346
3 343 347 352
3 353 347 338
3 348 340 354
3 349 355 338
3 356 340 350
3 351 358 346
3 359 351 343
3 352 347 360
3 352 361 343
3 363 353 338
3 354 340 364
3 355 365 338
3 356 366 340
3 356 350 367
3 350 357 369
3 346 358 368
3 361 359 343
3 360 347 370
3 361 352 372
3 375 363 338
3 364 340 376
3 365 377 338
3 373 340 366
3 366 356 372
3 367 350 369
3 378 356 367
3 369 357 380
3 358 381 368
3 370 347 382
3 366 372 352
3 347 373 384
3 362 340 373
3 374 340 362
3 386 375 338
3 376 340 387
3 377 386 338
3 366 371 373
3 372 356 378
3 357 379 380
3 368 381 388
3 382 347 389
3 371 383 373
3 391 384 373
3 347 384 392
3 385 340 374
3 387 340 393
3 380 379 395
3 381 396 388
3 389 347 397
3 383 390 373
3 373 400 391
3 399 392 384
3 401 347 392
3 393 340 385
3 379 394 395
3 388 396 402
3 397 347 403
3 390 398 373
3 405 391 400
3 406 400 373
3 407 347 401
3 395 394 409
3 396 410 402
3 403 347 411
3 398 404 373
3 413 406 373
3 411 347 407
3 394 408 409
3 402 410 414
3 404 412 373
3 415 413 373
3 408 416 409
3 414 410 417
3 412 415 373
3 409 416 419
3 410 418 417
3 416 420 419
3 417 418 421
3 419 420 423
3 418 422 421
3 420 424 423
3 421 422 425
3 423 424 427
3 422 426 425
3 424 428 427
3 425 426 429
3 428 431 427
3 429 426 432
3 426 430 432
3 427 431 433
3 432 430 435
3 431 436 433
3 430 434 435
3 433 436 437
3 435 434 439
3 436 440 437
3 438 439 434
3 441 437 440
3 334 339 336
3 341 336 339
3 341 339 342
3 344 342 339
3 342 344 345
3 348 345 344
3 345 348 349
3 350 346 357
3 353 362 347
3 354 349 348
3 349 354 355
3 368 357 346
3 358 351 369
3 351 359 367
3 360 371 352
3 373 347 362
3 362 353 374
3 363 374 353
3 364 355 354
3 355 364 365
3 357 368 379
3 367 369 351
3 369 380 358
3 378 367 359
3 359 361 378
3 370 383 360
3 366 352 371
3 371 360 383
3 372 378 361
3 374 363 385
3 375 385 363
3 376 365 364
3 365 376 377
3 388 379 368
3 381 358 380
3 382 390 370
3 383 370 390
3 385 375 393
3 386 393 375
3 387 377 376
3 377 387 386
3 379 388 394
3 380 395 381
3 389 398 382
3 390 382 398
3 384 391 399
3 393 386 387
3 402 394 388
3 396 381 395
3 397 404 389
3 398 389 404
3 405 399 391
3 399 405 392
3 392 400 401
3 394 402 408
3 395 409 396
3 403 412 397
3 404 397 412
3 400 392 405
3 406 401 400
3 401 406 407
3 414 408 402
3 410 396 409
3 411 415 403
3 412 403 415
3 413 407 406
3 407 413 411
3 408 414 416
3 410 409 418
3 415 411 413
3 417 416 414
3 419 418 409
3 416 417 420
3 418 419 422
3 421 420 417
3 423 422 419
3 420 421 424
3 422 423 426
3 425 424 421
3 427 426 423
3 424 425 428
3 426 427 430
3 429 428 425
3 433 430 427
3 428 429 431
3 432 431 429
3 430 433 434
3 431 432 436
3 437 434 433
3 435 436 432
3 434 437 438
3 436 435 440
3 441 438 437
3 439 440 435
3 438 441 439
3 440 439 441
3 442 443 444
3 443 442 445
3 446 444 443
3 442 448 445
3 448 443 445
3 446 449 444
3 443 448 446
3 447 448 442
3 446 450 449
3 448 451 446
3 452 448 447
3 446 453 450
3 451 448 454
3 451 455 446
3 456 448 452
3 446 457 453
3 454 448 458
3 454 459 451
3 460 455 451
3 446 455 461
3 462 448 456
3 446 463 457
3 458 448 464
3 454 466 459
3 451 459 467
3 468 455 460
3 451 469 460
3 446 461 471
3 472 448 462
3 446 473 463
3 448 474 464
3 475 458 464
3 477 465 458
3 476 466 454
3 451 467 469
3 478 455 468
3 480 460 469
3 446 471 483
3 484 448 472
3 446 485 473
3 474 448 481
3 480 464 474
3 477 458 475
3 475 464 486
3 488 465 477
3 476 489 466
3 490 455 478
3 460 480 474
3 492 481 455
3 481 448 470
3 470 448 482
3 446 483 494
3 495 448 484
3 446 494 485
3 481 479 474
3 486 464 480
3 488 487 465
3 496 489 476
3 497 455 490
3 481 491 479
3 481 492 499
3 500 492 455
3 482 448 493
3 501 448 495
3 503 487 488
3 496 504 489
3 505 455 497
3 481 498 491
3 499 508 481
3 492 500 507
3 500 455 509
3 493 448 501
3 503 502 487
3 510 504 496
3 511 455 505
3 481 506 498
3 508 499 513
3 481 508 514
3 509 455 515
3 517 502 503
3 510 518 504
3 519 455 511
3 481 512 506
3 481 514 521
3 515 455 519
3 517 516 502
3 522 518 510
3 481 520 512
3 481 521 523
3 517 524 516
3 525 518 522
3 481 523 520
3 527 524 517
3 525 526 518
3 527 528 524
3 529 526 525
3 531 528 527
3 529 530 526
3 531 532 528
3 533 530 529
3 535 532 531
3 533 534 530
3 535 536 532
3 537 534 533
3 535 539 536
3 540 534 537
3 540 538 534
3 541 539 535
3 543 538 540
3 541 544 539
3 543 542 538
3 545 544 541
3 547 542 543
3 545 548 544
3 542 547 546
3 548 545 549
3 444 447 442
3 447 444 449
3 450 447 449
3 447 450 452
3 453 452 450
3 452 453 456
3 457 456 453
3 465 454 458
3 455 470 461
3 456 457 462
3 463 462 457
3 454 465 476
3 477 459 466
3 475 467 459
3 460 479 468
3 470 455 481
3 482 461 470
3 461 482 471
3 462 463 472
3 473 472 463
3 487 476 465
3 459 477 475
3 466 488 477
3 467 475 486
3 486 469 467
3 468 491 478
3 479 460 474
3 491 468 479
3 469 486 480
3 493 471 482
3 471 493 483
3 472 473 484
3 485 484 473
3 476 487 496
3 488 466 489
3 478 498 490
3 498 478 491
3 501 483 493
3 483 501 494
3 484 485 495
3 494 495 485
3 502 496 487
3 489 503 488
3 490 506 497
3 506 490 498
3 507 499 492
3 495 494 501
3 496 502 510
3 503 489 504
3 497 512 505
3 512 497 506
3 499 507 513
3 500 513 507
3 509 508 500
3 516 510 502
3 504 517 503
3 505 520 511
3 520 505 512
3 513 500 508
3 508 509 514
3 515 514 509
3 510 516 522
3 517 504 518
3 511 523 519
3 523 511 520
3 514 515 521
3 519 521 515
3 524 522 516
3 526 517 518
3 521 519 523
3 522 524 525
3 517 526 527
3 528 525 524
3 530 527 526
3 525 528 529
3 527 530 531
3 532 529 528
3 534 531 530
3 529 532 533
3 531 534 535
3 536 533 532
3 538 535 534
3 533 536 537
3 535 538 541
3 539 537 536
3 537 539 540
3 542 541 538
3 544 540 539
3 541 542 545
3 540 544 543
3 546 545 542
3 548 543 544
3 545 546 549
3 543 548 547
3 547 549 546
3 549 547 548
3 444 443 442
3 445 442 443
3 443 444 446
3 445 448 442
3 445 443 448
3 444 449 446
3 446 448 443
3 442 448 447
3 449 450 446
3 446 451 448
3 447 448 452
3 450 453 446
3 454 448 451
3 446 455 451
3 452 448 456
3 453 457 446
3 458 448 454
3 451 459 454
3 451 455 460
3 461 455 446
3 456 448 462
3 457 463 446
3 464 448 458
3 459 466 454
3 467 459 451
3 460 455 468
3 460 469 451
3 471 461 446
3 462 448 472
3 463 473 446
3 464 474 448
3 464 458 475
3 458 465 477
3 454 466 476
3 469 467 451
3 468 455 478
3 469 460 480
3 483 471 446
3 472 448 484
3 473 485 446
3 481 448 474
3 474 464 480
3 475 458 477
3 486 464 475
3 477 465 488
3 466 489 476
3 478 455 490
3 474 480 460
3 455 481 492
3 470 448 481
3 482 448 470
3 494 483 446
3 484 448 495
3 485 494 446
3 474 479 481
3 480 464 486
3 465 487 488
3 476 489 496
3 490 455 497
3 479 491 481
3 499 492 481
3 455 492 500
3 493 448 482
3 495 448 501
3 488 487 503
3 489 504 496
3 497 455 505
3 491 498 481
3 481 508 499
3 507 500 492
3 509 455 500
3 501 448 493
3 487 502 503
3 496 504 510
3 505 455 511
3 498 506 481
3 513 499 508
3 514 508 481
3 515 455 509
3 503 502 517
3 504 518 510
3 511 455 519
3 506 512 481
3 521 514 481
3 519 455 515
3 502 516 517
3 510 518 522
3 512 520 481
3 523 521 481
3 516 524 517
3 522 518 525
3 520 523 481
3 517 524 527
3 518 526 525
3 524 528 527
3 525 526 529
3 527 528 531
3 526 530 529
3 528 532 531
3 529 530 533
3 531 532 535
3 530 534 533
3 532 536 535
3 533 534 537
3 536 539 535
3 537 534 540
3 534 538 540
3 535 539 541
3 540 538 543
3 539 544 541
3 538 542 543
3 541 544 545
3 543 542 547
3 544 548 545
3 546 547 542
3 549 545 548
3 442 447 444
3 449 444 447
3 449 447 450
3 452 450 447
3 450 452 453
3 456 453 452
3 453 456 457
3 458 454 465
3 461 470 455
3 462 457 456
3 457 462 463
3 476 465 454
3 466 459 477
3 459 467 475
3 468 479 460
3 481 455 470
3 470 461 482
3 471 482 461
3 472 463 462
3 463 472 473
3 465 476 487
3 475 477 459
3 477 488 466
3 486 475 467
3 467 469 486
3 478 491 468
3 474 460 479
3 479 468 491
3 480 486 469
3 482 471 493
3 483 493 471
3 484 473 472
3 473 484 485
3 496 487 476
3 489 466 488
3 490 498 478
3 491 478 498
3 493 483 501
3 494 501 483
3 495 485 484
3 485 495 494
3 487 496 502
3 488 503 489
3 497 506 490
3 498 490 506
3 492 499 507
3 501 494 495
3 510 502 496
3 504 489 503
3 505 512 497
3 506 497 512
3 513 507 499
3 507 513 500
3 500 508 509
3 502 510 516
3 503 517 504
3 511 520 505
3 512 505 520
3 508 500 513
3 514 509 508
3 509 514 515
3 522 516 510
3 518 504 517
3 519 523 511
3 520 511 523
3 521 515 514
3 515 521 519
3 516 522 524
3 518 517 526
3 523 519 521
3 525 524 522
3 527 526 517
3 524 525 528
3 526 527 530
3 529 528 525
3 531 530 527
3 528 529 532
3 530 531 534
3 533 532 529
3 535 534 531
3 532 533 536
3 534 535 538
3 537 536 533
3 541 538 535
3 536 537 539
3 540 539 537
3 538 541 542
3 539 540 544
3 545 542 541
3 543 544 540
3 542 545 546
3 544 543 548
3 549 546 545
3 547 548 543
3 546 549 547
3 548 547 549
