ply
format ascii 1.0
comment Generated by PyMesh
element vertex 371
property double x
property double y
property double z
element face 1256
property list uchar int vertex_indices
end_header
0.00691437 -0.185779 0.0847422
0.0686014 -0.185779 0.0847422
0.0377577 -0.185779 0.0901805
-0.0202092 -0.185779 0.0690826
0.0377577 -0.177052 0.0901805
0.00691437 -0.177052 0.0847422
-0.0202092 -0.177052 0.0690826
0.095725 -0.185779 0.0690826
0.0686014 -0.177052 0.0847422
-0.0403409 -0.185779 0.0450904
-0.0403409 -0.177052 0.0450904
0.115857 -0.185779 0.0450904
0.095725 -0.177052 0.0690826
0.115857 -0.177052 0.0450904
-0.051053 -0.185779 0.0156599
0.126569 -0.177052 0.0156599
-0.051053 -0.177052 0.0156599
0.126569 -0.185779 0.0156599
-0.051053 -0.185779 -0.0156599
-0.051053 -0.177052 -0.0156599
0.126569 -0.185779 -0.0156599
0.126569 -0.177052 -0.0156599
-0.0403409 -0.185779 -0.0450904
-0.0403409 -0.177052 -0.0450904
0.115857 -0.185779 -0.0450904
0.115857 -0.177052 -0.0450904
-0.0202092 -0.185779 -0.0690826
-0.0202092 -0.177052 -0.0690826
0.095725 -0.185779 -0.0690826
0.095725 -0.177052 -0.0690826
0.00691437 -0.177052 -0.0847418
0.00691437 -0.185779 -0.0847418
0.0686014 -0.185779 -0.0847418
0.0686014 -0.177052 -0.0847418
0.0377577 -0.177052 -0.090181
0.0377577 -0.185779 -0.090181
0.0377577 -0.0465802 0.329209
0.0470143 -0.0114936 0.427568
0.0377577 -0.0151461 0.428722
0.0470143 -0.0428777 0.328215
0.0377577 0.00979519 0.420842
0.0285015 -0.0114936 0.427568
0.0377577 -0.0706397 0.22088
0.0508483 -0.0339371 0.325816
0.0470143 0.0061427 0.421997
0.0285015 0.0061427 0.421997
0.0285015 -0.0428777 0.328215
0.0470143 -0.066864 0.220213
0.0508483 -0.00267521 0.424782
0.0508483 -0.0577487 0.218603
0.0470143 -0.0249975 0.323416
0.0285015 -0.0249975 0.323416
0.0246675 -0.0339371 0.325816
0.0246675 -0.00267521 0.424782
0.0377577 -0.0851496 0.110863
0.0285015 -0.066864 0.220213
0.0470143 -0.0486334 0.216993
0.0377577 -0.021294 0.322422
0.0246675 -0.0577487 0.218603
0.0470143 -0.0813302 0.110529
0.0508483 -0.0721084 0.10972
0.0470143 -0.0628876 0.108912
0.0285015 -0.0486334 0.216993
0.0377577 -0.089998 -2.51822e-07
0.0285015 -0.0813302 0.110529
0.0246675 -0.0721084 0.10972
0.0377577 -0.0448573 0.216326
0.0285015 -0.0628876 0.108912
0.0470143 -0.0861644 -2.51822e-07
0.0508483 -0.0769073 -2.51822e-07
0.0470143 -0.0676512 -2.51822e-07
0.0377577 -0.0590678 0.108577
0.0377577 -0.0851496 -0.110863
0.0285015 -0.0861644 -2.51822e-07
0.0246675 -0.0769073 -2.51822e-07
0.0285015 -0.0676512 -2.51822e-07
0.0470143 -0.0813302 -0.110529
0.0508483 -0.0721084 -0.10972
0.0377577 -0.0638166 -2.51822e-07
0.0470143 -0.066864 -0.220213
0.0285015 -0.0813302 -0.110529
0.0470143 -0.0628876 -0.108912
0.0246675 -0.0721084 -0.10972
0.0377577 -0.0706397 -0.22088
0.0285015 -0.066864 -0.220213
0.0508483 -0.0577487 -0.218602
0.0285015 -0.0628876 -0.108912
0.0377577 -0.0590678 -0.108577
0.0470143 -0.0428777 -0.328215
0.0470143 -0.0486334 -0.216993
0.0246675 -0.0577487 -0.218602
0.0377577 -0.0448573 -0.216326
0.0285015 -0.0428777 -0.328215
0.0377577 -0.0465802 -0.32921
0.0508483 -0.0339371 -0.325816
0.0285015 -0.0486334 -0.216993
0.0470143 -0.00967497 -0.433326
0.0470143 -0.0249975 -0.323416
0.0377577 -0.021294 -0.322422
0.0246675 -0.0339371 -0.325816
0.0285015 -0.00967497 -0.433326
0.0377577 -0.0133275 -0.43448
0.0508483 -0.00267521 -0.424782
0.0285015 -0.0249975 -0.323416
0.0470143 0.0061427 -0.421997
0.0377577 0.00979519 -0.420843
0.0246675 -0.00267521 -0.424782
0.0508483 -0.00085657 -0.43054
0.0377577 -0.00267521 -0.424782
0.0285015 0.0061427 -0.421997
0.0246675 -0.00085657 -0.43054
-0.0889294 0.0954985 -0.42145
-0.0910435 0.0948522 0.42145
-0.0889294 0.0954985 0.42145
-0.0910435 0.0948522 -0.42145
-0.0838263 0.0788074 0.42145
-0.0838263 0.0788074 -0.42145
-0.0888151 0.0875634 -0.42145
-0.0881688 0.0854494 0.42145
-0.0881688 0.0854494 -0.42145
-0.0888151 0.0875634 0.42145
-0.0859404 0.0781606 0.42145
-0.0859404 0.0781606 -0.42145
-0.0957142 0.0854543 0.42145
-0.0950679 0.0833402 -0.42145
-0.0957142 0.0854543 -0.42145
-0.0950679 0.0833402 0.42145
-0.100836 0.134446 -0.42145
-0.102951 0.1338 0.42145
-0.100836 0.134446 0.42145
-0.102951 0.1338 -0.42145
-0.0957338 0.117755 0.42145
-0.0957338 0.117755 -0.42145
-0.100723 0.126511 -0.42145
-0.100076 0.124397 0.42145
-0.100076 0.124397 -0.42145
-0.100723 0.126511 0.42145
-0.0978479 0.117108 0.42145
-0.0978479 0.117108 -0.42145
-0.107622 0.124402 0.42145
-0.106975 0.122287 -0.42145
-0.107622 0.124402 -0.42145
-0.106975 0.122287 0.42145
-0.112744 0.173393 -0.42145
-0.114858 0.172747 0.42145
-0.112744 0.173393 0.42145
-0.114858 0.172747 -0.42145
-0.10764 0.156702 0.42145
-0.10764 0.156702 -0.42145
-0.11263 0.165458 -0.42145
-0.111983 0.163344 0.42145
-0.111983 0.163344 -0.42145
-0.11263 0.165458 0.42145
-0.109755 0.156055 0.42145
-0.109755 0.156055 -0.42145
-0.119529 0.163349 0.42145
-0.118883 0.161235 -0.42145
-0.119529 0.163349 -0.42145
-0.118883 0.161235 0.42145
-0.0914807 0.103845 -0.42145
-0.0680602 0.0745012 -0.42145
-0.0812745 0.0704611 -0.42145
-0.0782664 0.107885 -0.42145
-0.0812745 0.0704611 0.42145
-0.0782664 0.107885 0.42145
-0.0680602 0.0745012 0.42145
-0.0914807 0.103845 0.42145
-0.103388 0.142792 -0.42145
-0.0799672 0.113449 -0.42145
-0.0931821 0.109409 -0.42145
-0.0901739 0.146832 -0.42145
-0.0931821 0.109409 0.42145
-0.0901739 0.146832 0.42145
-0.0799672 0.113449 0.42145
-0.103388 0.142792 0.42145
-0.115295 0.181739 -0.42145
-0.0918748 0.152396 -0.42145
-0.105089 0.148356 -0.42145
-0.102081 0.185779 -0.42145
-0.105089 0.148356 0.42145
-0.102081 0.185779 0.42145
-0.0918748 0.152396 0.42145
-0.115295 0.181739 0.42145
0.0377577 -0.177052 -0.0610901
0.0470143 -0.0844694 -0.057256
0.0470143 -0.177052 -0.057256
0.0377577 -0.0884718 -0.0610901
0.0508483 -0.177052 -0.0479994
0.0285015 -0.177052 -0.057256
0.0285015 -0.0844694 -0.057256
0.0508483 -0.0748447 -0.0479994
0.0508341 -0.0748447 -0.0480343
0.0470143 -0.177052 -0.0387428
0.024667 -0.177052 -0.0479994
0.024667 -0.0748447 -0.0479994
0.0470143 -0.0836602 -0.0387428
0.0285015 -0.177052 -0.0387428
0.0246817 -0.0748447 -0.0480343
0.0508326 -0.0748447 -0.0479616
0.0377577 -0.0873264 -0.0349087
0.0377577 -0.177052 -0.0349087
0.0285015 -0.0836602 -0.0387428
0.0246832 -0.0748447 -0.0479616
0.0377577 -0.177052 0.0349087
0.0470143 -0.0844694 0.0387428
0.0470143 -0.177052 0.0387428
0.0377577 -0.0884718 0.0349087
0.0508483 -0.177052 0.0479994
0.0285015 -0.177052 0.0387428
0.0285015 -0.0844694 0.0387428
0.0508483 -0.0748447 0.0479994
0.0508341 -0.0748447 0.0479646
0.0470143 -0.177052 0.057256
0.024667 -0.177052 0.0479994
0.024667 -0.0748447 0.0479994
0.0470143 -0.0836602 0.057256
0.0285015 -0.177052 0.057256
0.0246817 -0.0748447 0.0479646
0.0508326 -0.0748447 0.0480372
0.0377577 -0.0873264 0.0610901
0.0377577 -0.177052 0.0610901
0.0285015 -0.0836602 0.057256
0.0246832 -0.0748447 0.0480372
0.101758 0.00840005 -0.421284
0.136666 0.0222185 -0.421284
0.136666 0.00840005 -0.421284
0.101758 0.0222185 -0.421284
0.136666 0.00840005 0.421615
0.101758 0.022218 0.421615
0.136666 0.022218 0.421615
0.101758 0.00840005 0.421615
0.06103 0.00840005 -0.421284
0.095939 0.022218 -0.421284
0.095939 0.00840005 -0.421284
0.06103 0.022218 -0.421284
0.095939 0.00840005 0.421615
0.06103 0.022218 0.421615
0.095939 0.022218 0.421615
0.06103 0.00840005 0.421615
0.0203034 0.00840005 -0.421284
0.0552119 0.022218 -0.421284
0.0552119 0.00840005 -0.421284
0.0203034 0.022218 -0.421284
0.0552119 0.00840005 0.421615
0.0203034 0.022218 0.421615
0.0552119 0.022218 0.421615
0.0203034 0.00840005 0.421615
-0.0204236 0.00840005 -0.421284
0.0144853 0.022218 -0.421284
0.0144853 0.00840005 -0.421284
-0.0204236 0.022218 -0.421284
0.0144853 0.00840005 0.421615
-0.0204236 0.022218 0.421615
0.0144853 0.022218 0.421615
-0.0204236 0.00840005 0.421615
-0.0611502 0.00840005 -0.421284
-0.0262417 0.022218 -0.421284
-0.0262417 0.00840005 -0.421284
-0.0611502 0.022218 -0.421284
-0.0262417 0.00840005 0.421615
-0.0611502 0.022218 0.421615
-0.0262417 0.022218 0.421615
-0.0611502 0.00840005 0.421615
0.0479398 0.00840005 0.39757
0.0479398 -0.0125452 -0.398783
0.0479398 0.00840005 -0.398783
0.0479398 -0.0125452 0.39757
0.0457291 0.00618883 -0.398783
0.0275765 0.00840005 0.39757
0.0457291 0.00618883 0.39757
0.0457291 -0.0125452 0.39757
0.0275765 0.00840005 -0.398783
0.0457291 -0.0125452 -0.398783
0.0275765 0.00618883 0.39757
0.0275765 0.00618883 -0.398783
-0.0189397 0.00840005 -0.421615
-0.0189397 -0.0125452 0.421284
-0.0189397 0.00840005 0.421284
-0.0189397 -0.0125448 -0.421615
-0.016729 0.00618883 0.421284
0.0014236 0.00840005 0.421284
-0.016729 0.00618932 -0.421615
-0.016729 -0.0125448 -0.421615
-0.016729 -0.0125452 0.421284
0.0014236 0.00840005 -0.421615
0.0014236 0.00618932 -0.421615
0.0014236 0.00618883 0.421284
0.0944555 0.00840005 0.421615
0.0944555 -0.0125452 -0.421284
0.0944555 0.00840005 -0.421284
0.0944555 -0.0125452 0.421615
0.0922443 0.00618883 -0.421284
0.0740922 0.00840005 -0.421284
0.0922443 0.00618883 0.421615
0.0922443 -0.0125452 0.421615
0.0922443 -0.0125452 -0.421284
0.0740922 0.00840005 0.421615
0.0740922 0.00618883 0.421615
0.0740922 0.00618883 -0.421284
-0.0342411 0.00840005 0.421615
-0.0342411 -0.0125452 -0.421284
-0.0342411 0.00840005 -0.421284
-0.0342411 -0.0125452 0.421615
-0.0364523 0.00618883 -0.421284
-0.0546044 0.00840005 -0.421284
-0.0364523 0.00618883 0.421615
-0.0364523 -0.0125452 0.421615
-0.0364523 -0.0125452 -0.421284
-0.0546044 0.00840005 0.421615
-0.0546044 0.00618883 0.421615
-0.0546044 0.00618883 -0.421284
0.109757 0.00840005 -0.421615
0.109757 -0.0125452 0.421284
0.109757 0.00840005 0.421284
0.109757 -0.0125448 -0.421615
0.111968 0.00618883 0.421284
0.13012 0.00840005 0.421284
0.111968 0.00618932 -0.421615
0.111968 -0.0125448 -0.421615
0.111968 -0.0125452 0.421284
0.13012 0.00840005 -0.421615
0.13012 0.00618932 -0.421615
0.13012 0.00618883 0.421284
0.131575 -0.0101132 -0.439796
0.131575 -0.0101132 -0.421284
0.131575 -0.0139473 -0.43054
0.131575 -0.00085657 -0.443631
-0.0759992 -0.0101132 -0.421284
-0.0788366 -0.0139473 -0.43054
-0.0691501 -0.00085657 -0.443631
0.131575 -0.00085657 -0.41745
-0.0759992 -0.0101132 -0.439796
-0.0623005 0.00840005 -0.439796
0.131575 0.00840005 -0.421284
-0.136666 0.175206 -0.43054
-0.0691501 -0.00085657 -0.41745
-0.124148 0.179033 -0.443631
0.131575 0.00840005 -0.439796
-0.115295 0.181739 -0.439796
-0.133 0.176326 -0.421284
-0.124148 0.179033 -0.41745
-0.133 0.176326 -0.439796
0.131575 0.0122341 -0.43054
-0.0594636 0.0122341 -0.43054
-0.0623005 0.00840005 -0.421284
-0.115295 0.181739 -0.421284
-0.111629 0.18286 -0.43054
0.131575 -0.0101132 0.421284
0.131575 -0.0101132 0.439797
0.131575 -0.0139473 0.43054
0.131575 -0.00085657 0.41745
-0.0759992 -0.0101132 0.439797
-0.0788366 -0.0139473 0.43054
-0.0691501 -0.00085657 0.41745
0.131575 -0.00085657 0.443631
-0.0759992 -0.0101132 0.421284
-0.0623005 0.00840005 0.421284
0.131575 0.00840005 0.439797
-0.136666 0.175206 0.43054
-0.0691501 -0.00085657 0.443631
-0.124148 0.179033 0.41745
0.131575 0.00840005 0.421284
-0.115295 0.181739 0.421284
-0.133 0.176326 0.439797
-0.124148 0.179033 0.443631
-0.133 0.176326 0.421284
0.131575 0.0122341 0.43054
-0.0594636 0.0122341 0.43054
-0.0623005 0.00840005 0.439797
-0.115295 0.181739 0.439797
-0.111629 0.18286 0.43054
3 0 1 2
3 1 0 3
3 1 3 7
3 7 3 9
3 8 5 4
3 5 8 6
3 7 9 11
3 6 8 12
3 6 13 10
3 11 9 14
3 6 12 13
3 10 13 15
3 11 14 17
3 10 15 16
3 17 14 18
3 16 15 19
3 17 18 20
3 19 15 21
3 20 18 22
3 19 21 23
3 20 22 24
3 23 21 25
3 24 22 26
3 23 25 27
3 24 26 28
3 27 25 29
3 28 26 31
3 27 29 30
3 28 31 32
3 30 29 33
3 32 31 35
3 30 33 34
3 1 4 2
3 2 5 0
3 0 6 3
3 4 1 8
3 5 2 4
3 6 0 5
3 6 9 3
3 7 8 1
3 9 6 10
3 8 7 12
3 10 14 9
3 13 7 11
3 7 13 12
3 14 10 16
3 11 15 13
3 16 18 14
3 15 11 17
3 18 16 19
3 17 21 15
3 19 22 18
3 21 17 20
3 22 19 23
3 20 25 21
3 23 26 22
3 25 20 24
3 26 23 27
3 24 29 25
3 30 26 27
3 29 24 28
3 26 30 31
3 32 29 28
3 34 31 30
3 29 32 33
3 31 34 35
3 35 33 32
3 33 35 34
3 2 1 0
3 3 0 1
3 7 3 1
3 9 3 7
3 4 5 8
3 6 8 5
3 11 9 7
3 12 8 6
3 10 13 6
3 14 9 11
3 13 12 6
3 15 13 10
3 17 14 11
3 16 15 10
3 18 14 17
3 19 15 16
3 20 18 17
3 21 15 19
3 22 18 20
3 23 21 19
3 24 22 20
3 25 21 23
3 26 22 24
3 27 25 23
3 28 26 24
3 29 25 27
3 31 26 28
3 30 29 27
3 32 31 28
3 33 29 30
3 35 31 32
3 34 33 30
3 2 4 1
3 0 5 2
3 3 6 0
3 8 1 4
3 4 2 5
3 5 0 6
3 3 9 6
3 1 8 7
3 10 6 9
3 12 7 8
3 9 14 10
3 11 7 13
3 12 13 7
3 16 10 14
3 13 15 11
3 14 18 16
3 17 11 15
3 19 16 18
3 15 21 17
3 18 22 19
3 20 17 21
3 23 19 22
3 21 25 20
3 22 26 23
3 24 20 25
3 27 23 26
3 25 29 24
3 27 26 30
3 28 24 29
3 31 30 26
3 28 29 32
3 30 31 34
3 33 32 29
3 35 34 31
3 32 33 35
3 34 35 33
3 36 37 38
3 37 36 39
3 41 36 38
3 42 39 36
3 43 37 39
3 36 41 46
3 39 42 47
3 46 42 36
3 37 43 48
3 39 49 43
3 50 40 44
3 40 51 45
3 41 52 46
3 54 47 42
3 49 39 47
3 42 46 55
3 50 48 43
3 56 43 49
3 48 50 44
3 40 50 57
3 51 40 57
3 51 53 45
3 52 41 53
3 58 46 52
3 47 54 59
3 55 54 42
3 47 60 49
3 46 58 55
3 43 56 50
3 49 61 56
3 56 57 50
3 57 62 51
3 53 51 52
3 52 62 58
3 63 59 54
3 60 47 59
3 54 55 64
3 61 49 60
3 65 55 58
3 61 66 56
3 57 56 66
3 62 57 66
3 62 52 51
3 67 58 62
3 59 63 68
3 64 63 54
3 59 69 60
3 55 65 64
3 60 70 61
3 58 67 65
3 66 61 71
3 66 67 62
3 72 68 63
3 69 59 68
3 63 64 73
3 70 60 69
3 74 64 65
3 70 71 61
3 75 65 67
3 67 66 71
3 68 72 76
3 73 72 63
3 76 69 68
3 64 74 73
3 77 70 69
3 65 75 74
3 71 70 78
3 71 75 67
3 72 79 76
3 72 73 80
3 69 76 77
3 74 80 73
3 70 77 81
3 75 82 74
3 81 78 70
3 75 71 78
3 79 72 83
3 79 77 76
3 84 72 80
3 80 74 82
3 85 81 77
3 82 75 86
3 78 81 87
3 78 86 75
3 72 84 83
3 83 88 79
3 77 79 85
3 82 84 80
3 81 85 89
3 86 90 82
3 81 91 87
3 86 78 87
3 92 83 84
3 88 83 93
3 88 85 79
3 84 82 90
3 94 89 85
3 91 81 89
3 90 86 95
3 91 86 87
3 83 92 93
3 90 92 84
3 93 96 88
3 85 88 94
3 89 94 97
3 89 98 91
3 86 91 95
3 95 99 90
3 100 93 92
3 92 90 99
3 96 93 101
3 96 94 88
3 102 97 94
3 98 89 97
3 98 95 91
3 99 95 103
3 93 100 101
3 99 100 92
3 94 96 102
3 97 102 104
3 97 105 98
3 95 98 103
3 103 106 99
3 100 99 106
3 102 96 107
3 105 97 104
3 105 103 98
3 106 103 109
3 100 106 110
3 103 105 109
3 37 40 38
3 38 40 37
3 37 44 40
3 40 44 37
3 38 40 45
3 45 40 38
3 38 45 41
3 41 45 38
3 44 37 48
3 48 37 44
3 41 45 53
3 53 45 41
3 108 104 102
3 102 104 108
3 104 108 105
3 105 108 104
3 105 106 109
3 109 106 105
3 105 108 106
3 106 108 105
3 38 37 36
3 39 36 37
3 38 36 41
3 36 39 42
3 39 37 43
3 46 41 36
3 47 42 39
3 36 42 46
3 48 43 37
3 43 49 39
3 44 40 50
3 45 51 40
3 46 52 41
3 42 47 54
3 47 39 49
3 55 46 42
3 43 48 50
3 49 43 56
3 44 50 48
3 57 50 40
3 57 40 51
3 45 53 51
3 53 41 52
3 52 46 58
3 59 54 47
3 42 54 55
3 49 60 47
3 55 58 46
3 50 56 43
3 56 61 49
3 50 57 56
3 51 62 57
3 52 51 53
3 58 62 52
3 54 59 63
3 59 47 60
3 64 55 54
3 60 49 61
3 58 55 65
3 56 66 61
3 66 56 57
3 66 57 62
3 51 52 62
3 62 58 67
3 68 63 59
3 54 63 64
3 60 69 59
3 64 65 55
3 61 70 60
3 65 67 58
3 71 61 66
3 62 67 66
3 63 68 72
3 68 59 69
3 73 64 63
3 69 60 70
3 65 64 74
3 61 71 70
3 67 65 75
3 71 66 67
3 76 72 68
3 63 72 73
3 68 69 76
3 73 74 64
3 69 70 77
3 74 75 65
3 78 70 71
3 67 75 71
3 76 79 72
3 80 73 72
3 77 76 69
3 73 80 74
3 81 77 70
3 74 82 75
3 70 78 81
3 78 71 75
3 83 72 79
3 76 77 79
3 80 72 84
3 82 74 80
3 77 81 85
3 86 75 82
3 87 81 78
3 75 86 78
3 83 84 72
3 79 88 83
3 85 79 77
3 80 84 82
3 89 85 81
3 82 90 86
3 87 91 81
3 87 78 86
3 84 83 92
3 93 83 88
3 79 85 88
3 90 82 84
3 85 89 94
3 89 81 91
3 95 86 90
3 87 86 91
3 93 92 83
3 84 92 90
3 88 96 93
3 94 88 85
3 97 94 89
3 91 98 89
3 95 91 86
3 90 99 95
3 92 93 100
3 99 90 92
3 101 93 96
3 88 94 96
3 94 97 102
3 97 89 98
3 91 95 98
3 103 95 99
3 101 100 93
3 92 100 99
3 102 96 94
3 104 102 97
3 98 105 97
3 103 98 95
3 99 106 103
3 106 99 100
3 107 96 102
3 104 97 105
3 98 103 105
3 109 103 106
3 110 106 100
3 109 105 103
3 111 112 113
3 112 111 114
3 113 112 111
3 114 111 112
3 112 115 113
3 113 115 112
3 115 111 113
3 113 111 115
3 116 114 111
3 111 114 116
3 117 112 114
3 114 112 117
3 115 112 118
3 118 112 115
3 111 115 116
3 116 115 111
3 114 116 119
3 119 116 114
3 112 117 120
3 120 117 112
3 114 119 117
3 117 119 114
3 118 112 120
3 120 112 118
3 115 118 121
3 121 118 115
3 115 122 116
3 116 122 115
3 122 119 116
3 116 119 122
3 117 123 120
3 120 123 117
3 124 117 119
3 119 117 124
3 123 118 120
3 120 118 123
3 118 122 121
3 121 122 118
3 122 115 121
3 121 115 122
3 122 118 119
3 119 118 122
3 123 117 125
3 125 117 123
3 117 124 125
3 125 124 117
3 118 124 119
3 119 124 118
3 118 123 126
3 126 123 118
3 124 123 125
3 125 123 124
3 124 118 126
3 126 118 124
3 123 124 126
3 126 124 123
3 127 128 129
3 128 127 130
3 129 128 127
3 130 127 128
3 128 131 129
3 129 131 128
3 131 127 129
3 129 127 131
3 132 130 127
3 127 130 132
3 133 128 130
3 130 128 133
3 131 128 134
3 134 128 131
3 127 131 132
3 132 131 127
3 130 132 135
3 135 132 130
3 128 133 136
3 136 133 128
3 130 135 133
3 133 135 130
3 134 128 136
3 136 128 134
3 131 134 137
3 137 134 131
3 131 138 132
3 132 138 131
3 138 135 132
3 132 135 138
3 133 139 136
3 136 139 133
3 140 133 135
3 135 133 140
3 139 134 136
3 136 134 139
3 134 138 137
3 137 138 134
3 138 131 137
3 137 131 138
3 138 134 135
3 135 134 138
3 139 133 141
3 141 133 139
3 133 140 141
3 141 140 133
3 134 140 135
3 135 140 134
3 134 139 142
3 142 139 134
3 140 139 141
3 141 139 140
3 140 134 142
3 142 134 140
3 139 140 142
3 142 140 139
3 143 144 145
3 144 143 146
3 145 144 143
3 146 143 144
3 144 147 145
3 145 147 144
3 147 143 145
3 145 143 147
3 148 146 143
3 143 146 148
3 149 144 146
3 146 144 149
3 147 144 150
3 150 144 147
3 143 147 148
3 148 147 143
3 146 148 151
3 151 148 146
3 144 149 152
3 152 149 144
3 146 151 149
3 149 151 146
3 150 144 152
3 152 144 150
3 147 150 153
3 153 150 147
3 147 154 148
3 148 154 147
3 154 151 148
3 148 151 154
3 149 155 152
3 152 155 149
3 156 149 151
3 151 149 156
3 155 150 152
3 152 150 155
3 150 154 153
3 153 154 150
3 154 147 153
3 153 147 154
3 154 150 151
3 151 150 154
3 155 149 157
3 157 149 155
3 149 156 157
3 157 156 149
3 150 156 151
3 151 156 150
3 150 155 158
3 158 155 150
3 156 155 157
3 157 155 156
3 156 150 158
3 158 150 156
3 155 156 158
3 158 156 155
3 159 160 161
3 160 159 162
3 161 160 159
3 162 159 160
3 160 163 161
3 161 163 160
3 163 159 161
3 161 159 163
3 159 164 162
3 162 164 159
3 164 160 162
3 162 160 164
3 163 160 165
3 165 160 163
3 159 163 166
3 166 163 159
3 164 159 166
3 166 159 164
3 160 164 165
3 165 164 160
3 164 163 165
3 165 163 164
3 163 164 166
3 166 164 163
3 167 168 169
3 168 167 170
3 169 168 167
3 170 167 168
3 168 171 169
3 169 171 168
3 171 167 169
3 169 167 171
3 167 172 170
3 170 172 167
3 172 168 170
3 170 168 172
3 171 168 173
3 173 168 171
3 167 171 174
3 174 171 167
3 172 167 174
3 174 167 172
3 168 172 173
3 173 172 168
3 172 171 173
3 173 171 172
3 171 172 174
3 174 172 171
3 175 176 177
3 176 175 178
3 177 176 175
3 178 175 176
3 176 179 177
3 177 179 176
3 179 175 177
3 177 175 179
3 175 180 178
3 178 180 175
3 180 176 178
3 178 176 180
3 179 176 181
3 181 176 179
3 175 179 182
3 182 179 175
3 180 175 182
3 182 175 180
3 176 180 181
3 181 180 176
3 180 179 181
3 181 179 180
3 179 180 182
3 182 180 179
3 185 188 183
3 183 188 185
3 187 188 185
3 185 188 187
3 187 193 188
3 188 193 187
3 192 196 187
3 187 196 192
3 187 196 193
3 193 196 187
3 196 192 200
3 200 192 196
3 183 184 185
3 184 183 186
3 185 184 183
3 186 183 184
3 184 187 185
3 185 187 184
3 183 189 186
3 186 189 183
3 187 184 190
3 190 184 187
3 189 183 188
3 188 183 189
3 190 184 191
3 191 184 190
3 190 192 187
3 187 192 190
3 188 194 189
3 189 194 188
3 192 190 195
3 195 190 192
3 194 188 193
3 193 188 194
3 189 194 197
3 197 194 189
3 195 190 198
3 198 190 195
3 199 192 195
3 195 192 199
3 201 193 196
3 196 193 201
3 193 201 194
3 194 201 193
3 192 199 200
3 200 199 192
3 200 201 196
3 196 201 200
3 194 201 202
3 202 201 194
3 201 200 199
3 199 200 201
3 205 208 203
3 203 208 205
3 207 208 205
3 205 208 207
3 207 213 208
3 208 213 207
3 212 216 207
3 207 216 212
3 207 216 213
3 213 216 207
3 216 212 220
3 220 212 216
3 203 204 205
3 204 203 206
3 205 204 203
3 206 203 204
3 204 207 205
3 205 207 204
3 203 209 206
3 206 209 203
3 207 204 210
3 210 204 207
3 209 203 208
3 208 203 209
3 210 204 211
3 211 204 210
3 210 212 207
3 207 212 210
3 208 214 209
3 209 214 208
3 212 210 215
3 215 210 212
3 214 208 213
3 213 208 214
3 209 214 217
3 217 214 209
3 215 210 218
3 218 210 215
3 219 212 215
3 215 212 219
3 221 213 216
3 216 213 221
3 213 221 214
3 214 221 213
3 212 219 220
3 220 219 212
3 220 221 216
3 216 221 220
3 214 221 222
3 222 221 214
3 221 220 219
3 219 220 221
3 223 224 225
3 224 223 226
3 225 224 223
3 226 223 224
3 224 227 225
3 225 227 224
3 227 223 225
3 225 223 227
3 223 228 226
3 226 228 223
3 228 224 226
3 226 224 228
3 227 224 229
3 229 224 227
3 223 227 230
3 230 227 223
3 228 223 230
3 230 223 228
3 224 228 229
3 229 228 224
3 228 227 229
3 229 227 228
3 227 228 230
3 230 228 227
3 231 232 233
3 232 231 234
3 233 232 231
3 234 231 232
3 232 235 233
3 233 235 232
3 235 231 233
3 233 231 235
3 231 236 234
3 234 236 231
3 236 232 234
3 234 232 236
3 235 232 237
3 237 232 235
3 231 235 238
3 238 235 231
3 236 231 238
3 238 231 236
3 232 236 237
3 237 236 232
3 236 235 237
3 237 235 236
3 235 236 238
3 238 236 235
3 239 240 241
3 240 239 242
3 241 240 239
3 242 239 240
3 240 243 241
3 241 243 240
3 243 239 241
3 241 239 243
3 239 244 242
3 242 244 239
3 244 240 242
3 242 240 244
3 243 240 245
3 245 240 243
3 239 243 246
3 246 243 239
3 244 239 246
3 246 239 244
3 240 244 245
3 245 244 240
3 244 243 245
3 245 243 244
3 243 244 246
3 246 244 243
3 247 248 249
3 248 247 250
3 249 248 247
3 250 247 248
3 248 251 249
3 249 251 248
3 251 247 249
3 249 247 251
3 247 252 250
3 250 252 247
3 252 248 250
3 250 248 252
3 251 248 253
3 253 248 251
3 247 251 254
3 254 251 247
3 252 247 254
3 254 247 252
3 248 252 253
3 253 252 248
3 252 251 253
3 253 251 252
3 251 252 254
3 254 252 251
3 255 256 257
3 256 255 258
3 257 256 255
3 258 255 256
3 256 259 257
3 257 259 256
3 259 255 257
3 257 255 259
3 255 260 258
3 258 260 255
3 260 256 258
3 258 256 260
3 259 256 261
3 261 256 259
3 255 259 262
3 262 259 255
3 260 255 262
3 262 255 260
3 256 260 261
3 261 260 256
3 260 259 261
3 261 259 260
3 259 260 262
3 262 260 259
3 263 264 265
3 264 263 266
3 265 264 263
3 266 263 264
3 267 265 264
3 264 265 267
3 265 268 263
3 263 268 265
3 263 269 266
3 266 269 263
3 270 264 266
3 266 264 270
3 265 267 271
3 271 267 265
3 267 264 272
3 272 264 267
3 268 265 271
3 271 265 268
3 273 263 268
3 268 263 273
3 263 273 269
3 269 273 263
3 266 269 270
3 270 269 266
3 264 270 272
3 272 270 264
3 274 271 267
3 267 271 274
3 270 267 272
3 272 267 270
3 271 273 268
3 268 273 271
3 273 267 269
3 269 267 273
3 267 270 269
3 269 270 267
3 273 271 274
3 274 271 273
3 267 273 274
3 274 273 267
3 275 276 277
3 276 275 278
3 277 276 275
3 278 275 276
3 279 277 276
3 276 277 279
3 280 275 277
3 277 275 280
3 275 281 278
3 278 281 275
3 282 276 278
3 278 276 282
3 277 279 280
3 280 279 277
3 279 276 283
3 283 276 279
3 275 280 284
3 284 280 275
3 275 285 281
3 281 285 275
3 278 281 282
3 282 281 278
3 276 282 283
3 283 282 276
3 286 280 279
3 279 280 286
3 282 279 283
3 283 279 282
3 280 285 284
3 284 285 280
3 285 275 284
3 284 275 285
3 285 279 281
3 281 279 285
3 279 282 281
3 281 282 279
3 285 280 286
3 286 280 285
3 279 285 286
3 286 285 279
3 287 288 289
3 288 287 290
3 289 288 287
3 290 287 288
3 291 289 288
3 288 289 291
3 292 287 289
3 289 287 292
3 287 293 290
3 290 293 287
3 294 288 290
3 290 288 294
3 289 291 292
3 292 291 289
3 291 288 295
3 295 288 291
3 287 292 296
3 296 292 287
3 287 297 293
3 293 297 287
3 290 293 294
3 294 293 290
3 288 294 295
3 295 294 288
3 298 292 291
3 291 292 298
3 294 291 295
3 295 291 294
3 292 297 296
3 296 297 292
3 297 287 296
3 296 287 297
3 297 291 293
3 293 291 297
3 291 294 293
3 293 294 291
3 297 292 298
3 298 292 297
3 291 297 298
3 298 297 291
3 299 300 301
3 300 299 302
3 301 300 299
3 302 299 300
3 303 301 300
3 300 301 303
3 304 299 301
3 301 299 304
3 299 305 302
3 302 305 299
3 306 300 302
3 302 300 306
3 301 303 304
3 304 303 301
3 303 300 307
3 307 300 303
3 299 304 308
3 308 304 299
3 299 309 305
3 305 309 299
3 302 305 306
3 306 305 302
3 300 306 307
3 307 306 300
3 310 304 303
3 303 304 310
3 306 303 307
3 307 303 306
3 304 309 308
3 308 309 304
3 309 299 308
3 308 299 309
3 309 303 305
3 305 303 309
3 303 306 305
3 305 306 303
3 309 304 310
3 310 304 309
3 303 309 310
3 310 309 303
3 311 312 313
3 312 311 314
3 313 312 311
3 314 311 312
3 315 313 312
3 312 313 315
3 316 311 313
3 313 311 316
3 311 317 314
3 314 317 311
3 318 312 314
3 314 312 318
3 313 315 316
3 316 315 313
3 315 312 319
3 319 312 315
3 311 316 320
3 320 316 311
3 311 321 317
3 317 321 311
3 314 317 318
3 318 317 314
3 312 318 319
3 319 318 312
3 322 316 315
3 315 316 322
3 318 315 319
3 319 315 318
3 316 321 320
3 320 321 316
3 321 311 320
3 320 311 321
3 321 315 317
3 317 315 321
3 315 318 317
3 317 318 315
3 321 316 322
3 322 316 321
3 315 321 322
3 322 321 315
3 323 324 325
3 324 323 326
3 325 324 323
3 326 323 324
3 324 326 330
3 330 326 324
3 330 326 333
3 333 326 330
3 333 326 337
3 337 326 333
3 333 337 342
3 342 337 333
3 345 339 334
3 334 339 345
3 346 334 341
3 341 334 346
3 338 341 336
3 336 341 338
3 339 345 340
3 340 345 339
3 345 334 346
3 346 334 345
3 346 341 338
3 338 341 346
3 325 327 324
3 324 327 325
3 323 328 325
3 325 328 323
3 329 323 326
3 326 323 329
3 327 325 328
3 328 325 327
3 327 330 324
3 324 330 327
3 328 323 331
3 331 323 328
3 323 329 331
3 331 329 323
3 326 332 329
3 329 332 326
3 334 327 328
3 328 327 334
3 330 327 335
3 335 327 330
3 331 334 328
3 328 334 331
3 336 331 329
3 329 331 336
3 332 326 337
3 337 326 332
3 338 329 332
3 332 329 338
3 335 333 330
3 330 333 335
3 327 334 339
3 339 334 327
3 327 340 335
3 335 340 327
3 334 331 341
3 341 331 334
3 331 336 341
3 341 336 331
3 329 338 336
3 336 338 329
3 342 332 337
3 337 332 342
3 343 338 332
3 332 338 343
3 333 335 344
3 344 335 333
3 340 327 339
3 339 327 340
3 345 335 340
3 340 335 345
3 332 342 343
3 343 342 332
3 338 343 346
3 346 343 338
3 333 343 342
3 342 343 333
3 335 345 344
3 344 345 335
3 343 333 344
3 344 333 343
3 343 345 346
3 346 345 343
3 345 343 344
3 344 343 345
3 347 348 349
3 348 347 350
3 349 348 347
3 350 347 348
3 348 350 354
3 354 350 348
3 354 350 357
3 357 350 354
3 357 350 361
3 361 350 357
3 357 361 366
3 366 361 357
3 369 363 358
3 358 363 369
3 370 358 365
3 365 358 370
3 362 365 360
3 360 365 362
3 363 369 364
3 364 369 363
3 369 358 370
3 370 358 369
3 370 365 362
3 362 365 370
3 349 351 348
3 348 351 349
3 347 352 349
3 349 352 347
3 353 347 350
3 350 347 353
3 351 349 352
3 352 349 351
3 351 354 348
3 348 354 351
3 352 347 355
3 355 347 352
3 347 353 355
3 355 353 347
3 350 356 353
3 353 356 350
3 358 351 352
3 352 351 358
3 354 351 359
3 359 351 354
3 355 358 352
3 352 358 355
3 360 355 353
3 353 355 360
3 356 350 361
3 361 350 356
3 362 353 356
3 356 353 362
3 359 357 354
3 354 357 359
3 351 358 363
3 363 358 351
3 351 364 359
3 359 364 351
3 358 355 365
3 365 355 358
3 355 360 365
3 365 360 355
3 353 362 360
3 360 362 353
3 366 356 361
3 361 356 366
3 367 362 356
3 356 362 367
3 357 359 368
3 368 359 357
3 364 351 363
3 363 351 364
3 369 359 364
3 364 359 369
3 356 366 367
3 367 366 356
3 362 367 370
3 370 367 362
3 357 367 366
3 366 367 357
3 359 369 368
3 368 369 359
3 367 357 368
3 368 357 367
3 367 369 370
3 370 369 367
3 369 367 368
3 368 367 369
