ply
format ascii 1.0
comment Generated by PyMesh
element vertex 88
property double x
property double y
property double z
element face 352
property list uchar int vertex_indices
end_header
0.111779 -0.139724 -0.442459
-0.111779 -0.139724 -0.461089
0.111779 -0.139724 -0.461089
-0.111779 -0.139724 -0.442459
0.111779 -0.135067 -0.461089
-0.111779 -0.135067 -0.442459
-0.111779 -0.135067 -0.461089
0.111779 -0.135067 -0.442459
-0.116437 -0.135067 -0.465746
0.116437 -0.135067 -0.437802
-0.116437 -0.135067 -0.437802
0.116437 -0.135067 -0.465746
-0.116437 -0.116437 -0.437802
0.116437 0.0698619 -0.465746
-0.116437 0.0698619 -0.465746
0.116437 -0.116437 -0.437802
-0.116437 -0.0884917 -0.437802
0.116437 0.0879434 -0.463366
0.116437 -0.0884917 -0.437802
0.116437 -0.116437 0.437802
-0.116437 -0.0884917 0.437802
-0.116437 0.06803 -0.437802
-0.116437 0.0879434 -0.463366
0.116437 0.0806486 -0.43614
0.116437 0.06803 -0.437802
-0.116437 -0.116437 0.437802
-0.116437 0.0806486 -0.43614
0.116437 0.104793 -0.456387
0.116437 0.0906999 -0.431977
0.116437 -0.0884917 0.437802
-0.116437 -0.135067 0.437802
-0.116437 0.0698619 0.465746
-0.116437 0.0906999 -0.431977
-0.116437 0.104793 -0.456387
0.116437 0.0698619 0.465746
0.116437 -0.135067 0.437802
-0.116437 0.06803 0.437802
0.116437 0.06803 0.437802
0.116437 0.119262 -0.445284
0.116437 0.0993313 -0.425354
-0.116437 0.0993313 -0.425354
0.116437 -0.135067 0.465746
0.111779 -0.135067 0.442459
-0.116437 -0.135067 0.465746
-0.116437 0.0806486 0.43614
-0.116437 0.119262 -0.445284
0.116437 0.105954 -0.416722
0.116437 0.0806486 0.43614
-0.111779 -0.135067 0.442459
-0.116437 0.0879434 0.463366
-0.116437 0.105954 -0.416722
-0.116437 0.130364 -0.430816
0.116437 0.110118 -0.406671
0.116437 0.0879434 0.463366
0.111779 -0.135067 0.461089
-0.111779 -0.139724 0.442459
-0.111779 -0.135067 0.461089
-0.116437 0.0906999 0.431977
0.116437 0.0906999 0.431977
-0.116437 0.110118 -0.406671
0.116437 0.130364 -0.430816
-0.116437 0.130364 0.430816
0.116437 0.111779 -0.394053
0.111779 -0.139724 0.461089
0.111779 -0.139724 0.442459
-0.116437 0.104793 0.456387
-0.116437 0.111779 -0.394053
-0.116437 0.137343 -0.413966
0.116437 0.119262 0.445284
-0.116437 0.119262 0.445284
0.116437 0.111779 0.394053
0.116437 0.104793 0.456387
-0.111779 -0.139724 0.461089
-0.116437 0.0993313 0.425354
0.116437 0.0993313 0.425354
-0.116437 0.111779 0.394053
0.116437 0.137343 -0.413966
0.116437 0.130364 0.430816
-0.116437 0.137343 0.413966
-0.116437 0.105954 0.416722
-0.116437 0.139724 -0.395884
0.116437 0.110118 0.406671
-0.116437 0.110118 0.406671
0.116437 0.137343 0.413966
-0.116437 0.139724 0.395884
0.116437 0.105954 0.416722
0.116437 0.139724 -0.395884
0.116437 0.139724 0.395884
3 0 1 2
3 1 0 3
3 2 1 0
3 3 0 1
3 1 4 2
3 2 4 1
3 4 0 2
3 2 0 4
3 0 5 3
3 3 5 0
3 5 1 3
3 3 1 5
3 4 1 6
3 6 1 4
3 0 4 7
3 7 4 0
3 5 0 7
3 7 0 5
3 1 5 6
3 6 5 1
3 6 8 4
3 4 8 6
3 4 9 7
3 7 9 4
3 7 9 5
3 5 9 7
3 10 6 5
3 5 6 10
3 8 6 10
3 10 6 8
3 11 4 8
3 8 4 11
3 4 11 9
3 9 11 4
3 10 5 9
3 9 5 10
3 12 8 10
3 10 8 12
3 8 13 11
3 11 13 8
3 13 9 11
3 11 9 13
3 9 12 10
3 10 12 9
3 8 12 14
3 14 12 8
3 13 8 14
3 14 8 13
3 9 13 15
3 15 13 9
3 12 9 15
3 15 9 12
3 14 12 16
3 16 12 14
3 15 13 18
3 18 13 15
3 19 12 15
3 15 12 19
3 16 12 20
3 20 12 16
3 14 16 21
3 21 16 14
3 23 13 17
3 17 13 23
3 18 13 24
3 24 13 18
3 15 18 19
3 19 18 15
3 12 19 25
3 25 19 12
3 25 20 12
3 12 20 25
3 20 18 16
3 16 18 20
3 18 21 16
3 16 21 18
3 14 21 26
3 26 21 14
3 14 26 22
3 22 26 14
3 24 13 23
3 23 13 24
3 23 17 28
3 28 17 23
3 21 18 24
3 24 18 21
3 29 19 18
3 18 19 29
3 19 30 25
3 25 30 19
3 25 31 20
3 20 31 25
3 18 20 29
3 29 20 18
3 22 26 32
3 32 26 22
3 28 17 27
3 27 17 28
3 34 19 29
3 29 19 34
3 30 19 35
3 35 19 30
3 30 31 25
3 25 31 30
3 20 31 36
3 36 31 20
3 20 37 29
3 29 37 20
3 22 32 33
3 33 32 22
3 28 27 39
3 39 27 28
3 41 19 34
3 34 19 41
3 34 29 37
3 37 29 34
3 19 41 35
3 35 41 19
3 35 42 30
3 30 42 35
3 31 30 43
3 43 30 31
3 36 31 44
3 44 31 36
3 37 20 36
3 36 20 37
3 33 32 40
3 40 32 33
3 46 27 38
3 38 27 46
3 39 27 46
3 46 27 39
3 31 41 34
3 34 41 31
3 34 37 47
3 47 37 34
3 42 35 41
3 41 35 42
3 48 30 42
3 42 30 48
3 30 48 43
3 43 48 30
3 41 31 43
3 43 31 41
3 44 31 49
3 49 31 44
3 33 40 50
3 50 40 33
3 33 50 45
3 45 50 33
3 46 38 52
3 52 38 46
3 34 47 53
3 53 47 34
3 42 41 54
3 54 41 42
3 42 55 48
3 48 55 42
3 43 48 56
3 56 48 43
3 43 56 41
3 41 56 43
3 44 49 57
3 57 49 44
3 45 50 59
3 59 50 45
3 45 61 51
3 51 61 45
3 52 38 62
3 62 38 52
3 53 47 58
3 58 47 53
3 54 41 56
3 56 41 54
3 63 42 54
3 54 42 63
3 55 42 64
3 64 42 55
3 55 56 48
3 48 56 55
3 57 49 65
3 65 49 57
3 45 59 66
3 66 59 45
3 68 38 60
3 60 38 68
3 45 69 61
3 61 69 45
3 51 61 67
3 67 61 51
3 62 38 70
3 70 38 62
3 53 58 71
3 71 58 53
3 56 63 54
3 54 63 56
3 42 63 64
3 64 63 42
3 63 55 64
3 64 55 63
3 56 55 72
3 72 55 56
3 57 65 73
3 73 65 57
3 45 66 75
3 75 66 45
3 68 70 38
3 38 70 68
3 68 60 77
3 77 60 68
3 45 75 69
3 69 75 45
3 67 61 78
3 78 61 67
3 70 66 62
3 62 66 70
3 71 58 74
3 74 58 71
3 63 56 72
3 72 56 63
3 55 63 72
3 72 63 55
3 73 65 79
3 79 65 73
3 66 70 75
3 75 70 66
3 77 60 76
3 76 60 77
3 68 81 70
3 70 81 68
3 82 69 75
3 75 69 82
3 67 78 84
3 84 78 67
3 71 74 85
3 85 74 71
3 79 65 69
3 69 65 79
3 67 84 80
3 80 84 67
3 77 76 83
3 83 76 77
3 68 85 81
3 81 85 68
3 79 69 82
3 82 69 79
3 71 85 68
3 68 85 71
3 84 86 80
3 80 86 84
3 83 76 86
3 86 76 83
3 83 86 87
3 87 86 83
3 86 84 87
3 87 84 86
3 14 17 13
3 13 17 14
3 17 14 22
3 22 14 17
3 22 27 17
3 17 27 22
3 24 26 21
3 21 26 24
3 27 22 33
3 33 22 27
3 26 24 23
3 23 24 26
3 32 23 28
3 28 23 32
3 23 32 26
3 26 32 23
3 33 38 27
3 27 38 33
3 28 40 32
3 32 40 28
3 38 33 45
3 45 33 38
3 40 28 39
3 39 28 40
3 47 36 44
3 44 36 47
3 36 47 37
3 37 47 36
3 51 38 45
3 45 38 51
3 46 40 39
3 39 40 46
3 34 49 31
3 31 49 34
3 44 58 47
3 47 58 44
3 40 46 50
3 50 46 40
3 38 51 60
3 60 51 38
3 52 50 46
3 46 50 52
3 49 34 53
3 53 34 49
3 58 44 57
3 57 44 58
3 50 52 59
3 59 52 50
3 67 60 51
3 51 60 67
3 62 59 52
3 52 59 62
3 53 65 49
3 49 65 53
3 57 74 58
3 58 74 57
3 59 62 66
3 66 62 59
3 60 67 76
3 76 67 60
3 69 77 61
3 61 77 69
3 65 53 71
3 71 53 65
3 74 57 73
3 73 57 74
3 80 76 67
3 67 76 80
3 77 69 68
3 68 69 77
3 83 61 77
3 77 61 83
3 61 83 78
3 78 83 61
3 71 69 65
3 65 69 71
3 79 74 73
3 73 74 79
3 81 75 70
3 70 75 81
3 76 80 86
3 86 80 76
3 69 71 68
3 68 71 69
3 75 81 82
3 82 81 75
3 87 78 83
3 83 78 87
3 78 87 84
3 84 87 78
3 74 79 85
3 85 79 74
3 85 82 81
3 81 82 85
3 82 85 79
3 79 85 82
