ply
format ascii 1.0
comment Generated by PyMesh
element vertex 358
property double x
property double y
property double z
element face 821
property list uchar int vertex_indices
end_header
-0.0885803 0.0083098 -0.193627
-0.177723 0.0382864 -0.193627
-0.146912 -0.0216674 -0.193627
-0.0818758 0.0376041 -0.193627
-0.146912 -0.0216674 0.169892
-0.179636 0.0382864 -0.193627
-0.0321089 -0.0216674 -0.193627
-0.0818758 0.0376041 0.169892
-0.0818086 0.0382864 -0.193627
-0.296298 0.269022 -0.193627
-0.0909549 -0.130552 0.269828
-0.179636 -0.0216674 -0.193627
-0.0885803 0.0083098 0.169892
-0.0326063 -0.0208819 -0.193627
-0.146912 -0.0216674 -0.269828
-0.0818086 0.0382864 0.169892
-0.078943 0.067512 -0.193627
-0.296298 0.269022 0.169892
-0.0909549 -0.130552 -0.193627
-0.146912 -0.0216674 0.269828
-0.179636 -0.0216674 -0.269828
-0.0756687 0.00661861 0.169892
-0.177723 0.0382864 0.169892
-0.0326063 -0.0208819 0.169892
-0.0413835 -0.0112624 -0.193627
-0.0321089 -0.0216674 -0.269828
-0.078943 0.067512 0.169892
-0.237967 0.298998 0.169892
-0.0798273 0.0975504 -0.193627
-0.0909549 -0.130552 -0.269828
-0.0909549 -0.195511 0.269828
-0.0292949 -0.106474 0.269828
-0.179636 0.0382864 0.269828
-0.177723 0.0382864 0.269828
-0.0321089 -0.0216674 0.269828
-0.179636 -0.298998 -0.269828
-0.0909549 -0.195511 -0.193627
-0.0756687 0.00661861 -0.193627
-0.0632491 0.00270224 0.169892
-0.0321089 -0.0216674 0.169892
-0.0413835 -0.0112624 0.169892
-0.0517031 -0.00331897 -0.193627
-0.0256407 -0.0318843 -0.193627
-0.0263079 -0.0216674 -0.200643
-0.0256407 -0.0318843 -0.269828
-0.0798273 0.0975504 0.169892
-0.179636 0.0420104 0.169892
-0.237967 0.298998 -0.193627
-0.18422 0.27237 0.169892
-0.0845157 0.127235 -0.193627
-0.0292949 -0.106474 -0.269828
-0.0909549 -0.195511 -0.269828
0.262524 -0.193994 0.269828
-0.0232006 -0.0949663 0.269828
-0.0292949 -0.106474 -0.193627
0.289556 -0.128734 0.269828
-0.0256407 -0.0318843 0.269828
-0.179636 -0.298998 -0.193627
-0.0632491 0.00270224 -0.193627
-0.0517031 -0.00331897 0.169892
-0.179636 0.0382864 0.169892
0.0577006 -0.0216674 -0.193627
0.0498932 -0.0216674 -0.200643
-0.0263079 -0.0216674 -0.260605
-0.0206998 -0.0439337 -0.269828
0.296298 -0.0216674 -0.269828
-0.210246 0.287395 0.169892
-0.18422 0.27237 -0.193627
-0.160312 0.254163 0.169892
-0.0845157 0.127235 0.169892
-0.0929335 0.156083 -0.193627
0.289556 -0.128734 -0.269828
0.251002 -0.195511 -0.269828
-0.023827 -0.195511 -0.0576722
0.0826848 -0.195511 0.269828
0.273261 -0.189546 0.269828
-0.179636 -0.298998 0.269828
0.0826848 -0.0216674 0.269828
-0.0192053 -0.082572 0.269828
0.0826848 -0.106474 0.269828
0.294003 -0.13947 0.269828
0.282481 -0.119514 0.269828
-0.0206998 -0.0439337 0.269828
-0.179636 -0.298998 0.169892
0.296298 -0.298998 -0.269828
0.251002 -0.195511 -0.193627
0.0577006 -0.0373253 -0.193627
-0.0162027 -0.0216674 -0.20181
0.0498932 -0.0216674 -0.260605
-0.0249477 -0.0216674 -0.228459
-0.0206998 -0.0439337 -0.193627
-0.0179353 -0.0566584 -0.269828
0.0577006 -0.0216674 -0.269828
-0.0232006 -0.0949663 -0.269828
-0.210246 0.287395 -0.193627
-0.160312 0.254163 -0.193627
-0.138906 0.23307 0.169892
-0.0929335 0.156083 0.169892
-0.104942 0.183631 -0.193627
-0.0232006 -0.0949663 -0.193627
0.251002 -0.106474 -0.193627
0.294003 -0.13947 -0.269828
0.282481 -0.119514 -0.269828
0.262524 -0.193994 -0.269828
0.199781 -0.195511 -0.0576722
-0.023827 -0.195511 0.0759931
0.251002 -0.195511 0.269828
0.0826848 -0.195511 0.169892
0.0826848 -0.298998 0.269828
0.273261 -0.189546 0.169892
0.282481 -0.182472 0.269828
-0.0174324 -0.0696716 0.269828
0.0826848 -0.106474 0.169892
0.251002 -0.106474 0.269828
0.29552 -0.150993 0.269828
0.296298 -0.0216674 0.269828
0.289556 -0.128734 0.169892
0.273261 -0.112438 0.269828
0.0826848 -0.0216674 0.169892
-0.0179353 -0.0566584 0.269828
0.0826848 -0.298998 0.169892
0.262524 -0.193994 -0.193627
0.296298 -0.0216674 -0.193627
-0.0142628 -0.0216674 -0.202066
-0.0181432 -0.0216674 -0.202066
0.0093966 -0.0216674 -0.255338
-0.024649 -0.0216674 -0.226196
-0.024649 -0.0216674 -0.230723
-0.0174324 -0.0696716 -0.269828
-0.0179353 -0.0566584 -0.193627
-0.0192053 -0.082572 -0.269828
0.251002 -0.106474 -0.269828
-0.138906 0.23307 -0.193627
-0.12035 0.209433 0.169892
-0.104942 0.183631 0.169892
-0.12035 0.209433 -0.193627
0.296298 -0.0373253 -0.193627
0.251002 -0.106474 0.169892
0.29552 -0.150993 -0.269828
0.294003 -0.13947 -0.193627
0.273261 -0.112438 -0.269828
0.282481 -0.119514 -0.193627
0.273261 -0.189546 -0.269828
0.199781 -0.247978 -0.0576722
-0.023827 -0.198942 -0.052619
0.251002 -0.195511 0.169892
0.296298 -0.298998 0.269828
0.262524 -0.193994 0.169892
0.282481 -0.182472 0.169892
0.289556 -0.173252 0.269828
-0.0192053 -0.082572 -0.193627
0.262524 -0.107991 0.269828
0.294003 -0.162515 0.269828
0.29552 -0.150993 0.256421
0.294003 -0.13947 0.169892
0.282481 -0.119514 0.169892
0.273261 -0.112438 0.169892
0.296298 -0.298998 -0.193627
0.0384793 -0.0216674 -0.244536
0.0348697 -0.0216674 -0.209594
-0.0162027 -0.0216674 -0.2168
-0.0181432 -0.0216674 -0.216545
-0.0199504 -0.0216674 -0.202814
0.0336389 -0.0216674 -0.249376
0.00777955 -0.0216674 -0.255551
-0.023776 -0.0216674 -0.224087
-0.023776 -0.0216674 -0.232831
-0.0174324 -0.0696716 -0.193627
0.262524 -0.107991 -0.269828
0.262524 -0.107991 -0.193627
0.262524 -0.107991 0.169892
0.294003 -0.162515 -0.269828
0.29552 -0.150993 -0.193627
0.289556 -0.128734 -0.193627
0.273261 -0.112438 -0.193627
0.282481 -0.182472 -0.269828
0.273261 -0.189546 -0.193627
-0.023827 -0.247978 -0.0576722
0.199781 -0.198942 -0.052619
0.199781 -0.195511 0.0759931
-0.023827 -0.243914 -0.052619
-0.023827 -0.198942 0.0723003
0.296298 -0.298998 0.169892
0.289556 -0.173252 0.169892
0.29552 -0.150993 0.24268
0.296298 -0.0216674 0.169892
0.29552 -0.150993 0.169892
0.0377954 -0.0216674 -0.246187
0.0387119 -0.0216674 -0.242764
0.0369116 -0.0216674 -0.210439
0.0326783 -0.0216674 -0.209305
-0.0142628 -0.0216674 -0.216545
-0.0199504 -0.0216674 -0.215796
-0.021503 -0.0216674 -0.204006
0.0352898 -0.0216674 -0.248692
0.0318676 -0.0216674 -0.249609
0.00616358 -0.0216674 -0.255338
0.0093966 -0.0216674 -0.243272
-0.0236981 -0.0216674 -0.209305
-0.022449 -0.0216674 -0.249609
0.289556 -0.173252 -0.269828
0.294003 -0.162515 -0.193627
0.282481 -0.182472 -0.193627
-0.023827 -0.247978 0.0759931
0.199781 -0.243914 -0.052619
0.296298 -0.271278 0.24268
0.289556 -0.173252 -0.193627
0.294003 -0.162515 0.169892
0.296298 -0.271278 0.256421
0.29552 -0.117625 0.256421
0.29552 -0.271278 0.24268
0.036707 -0.0216674 -0.247605
0.0384793 -0.0216674 -0.240992
0.0411444 -0.0216674 -0.217772
0.0386646 -0.0216674 -0.211785
0.0348697 -0.0216674 -0.225949
0.0326783 -0.0216674 -0.226237
0.0304875 -0.0216674 -0.209594
-0.0124556 -0.0216674 -0.202814
-0.0162027 -0.0216674 -0.219715
-0.0184655 -0.0216674 -0.220013
-0.021503 -0.0216674 -0.214605
-0.022694 -0.0216674 -0.205558
0.0352898 -0.0216674 -0.236837
0.0300953 -0.0216674 -0.249376
0.0336389 -0.0216674 -0.236153
0.0046572 -0.0216674 -0.254714
0.00777955 -0.0216674 -0.243059
0.010903 -0.0216674 -0.243896
-0.0234429 -0.0216674 -0.207366
-0.0234429 -0.0216674 -0.211245
-0.0222357 -0.0216674 -0.251226
-0.0223862 -0.0216674 -0.234643
-0.0223862 -0.0216674 -0.222277
0.199781 -0.247978 0.0759931
0.199781 -0.198942 0.0723003
-0.023827 -0.243914 0.0723003
0.296298 -0.117625 0.24268
0.296298 -0.117625 0.256421
0.29552 -0.117625 0.24268
0.29552 -0.271278 0.256421
0.0377954 -0.0216674 -0.239341
0.0386646 -0.0216674 -0.223757
0.0408554 -0.0216674 -0.219962
0.0408554 -0.0216674 -0.21558
0.0400104 -0.0216674 -0.213538
0.0369116 -0.0216674 -0.225103
0.0304875 -0.0216674 -0.225949
0.0284455 -0.0216674 -0.210439
-0.0124556 -0.0216674 -0.215796
0.0242127 -0.0216674 -0.217772
-0.0139394 -0.0216674 -0.220013
-0.0205752 -0.0216674 -0.220887
-0.022694 -0.0216674 -0.213053
0.036707 -0.0216674 -0.237924
0.0284444 -0.0216674 -0.248692
0.0318676 -0.0216674 -0.235919
0.00336356 -0.0216674 -0.253722
0.00616358 -0.0216674 -0.243272
0.010903 -0.0216674 -0.254714
0.00989031 -0.0216674 -0.236526
0.00698016 -0.0216674 -0.236143
-0.0216126 -0.0216674 -0.252732
-0.0222357 -0.0216674 -0.247993
0.199781 -0.243914 0.0723003
0.0400104 -0.0216674 -0.222004
0.0284455 -0.0216674 -0.225103
0.026692 -0.0216674 -0.211785
-0.010903 -0.0216674 -0.204006
0.0245007 -0.0216674 -0.21558
0.0155118 -0.0216674 -0.215547
-0.0162027 -0.0216674 -0.237204
-0.0184655 -0.0216674 -0.236906
-0.0205752 -0.0216674 -0.236032
0.0300953 -0.0216674 -0.236153
0.00237077 -0.0216674 -0.252429
0.0046572 -0.0216674 -0.243896
0.0121966 -0.0216674 -0.244888
-0.0206192 -0.0216674 -0.254026
-0.0216126 -0.0216674 -0.246486
0.026692 -0.0216674 -0.223757
0.0253463 -0.0216674 -0.213538
-0.010903 -0.0216674 -0.214605
0.00426879 -0.0216674 -0.215547
-0.0118308 -0.0216674 -0.220887
0.0245007 -0.0216674 -0.219962
0.0178402 -0.0216674 -0.217333
0.0127999 -0.0216674 -0.214423
-0.0139394 -0.0216674 -0.236906
0.0270272 -0.0216674 -0.247605
0.0284444 -0.0216674 -0.236837
0.00174652 -0.0216674 -0.250922
0.00336356 -0.0216674 -0.244888
0.00426879 -0.0216674 -0.23502
0.0121966 -0.0216674 -0.253722
0.0127999 -0.0216674 -0.236143
0.00989031 -0.0216674 -0.21404
-0.0193256 -0.0216674 -0.255018
-0.0206192 -0.0216674 -0.245193
0.0253463 -0.0216674 -0.222004
-0.00971249 -0.0216674 -0.205558
0.00698016 -0.0216674 -0.214423
0.00193992 -0.0216674 -0.217333
0.0138131 -0.0216674 -0.250922
0.0196264 -0.0216674 -0.219662
0.0155118 -0.0216674 -0.23502
-0.0145862 -0.0216674 -0.243576
-0.0178197 -0.0216674 -0.243576
-0.0193256 -0.0216674 -0.2442
0.0259388 -0.0216674 -0.246187
0.00153431 -0.0216674 -0.249305
0.00237077 -0.0216674 -0.246182
0.0131889 -0.0216674 -0.246182
0.0252555 -0.0216674 -0.244536
-0.0178197 -0.0216674 -0.255642
0.0270272 -0.0216674 -0.237924
0.0259388 -0.0216674 -0.239341
-0.00971249 -0.0216674 -0.213053
-0.0100198 -0.0216674 -0.222277
0.00193992 -0.0216674 -0.233234
-0.0118308 -0.0216674 -0.236032
0.0250223 -0.0216674 -0.242764
0.0207503 -0.0216674 -0.228193
0.0207503 -0.0216674 -0.222373
0.0196264 -0.0216674 -0.230905
0.0178402 -0.0216674 -0.233234
-0.0130804 -0.0216674 -0.2442
-0.0162027 -0.0216674 -0.243363
-0.0130804 -0.0216674 -0.255018
0.00174652 -0.0216674 -0.247689
0.0131889 -0.0216674 -0.252429
0.0138131 -0.0216674 -0.247689
-0.0162027 -0.0216674 -0.255855
0.0252555 -0.0216674 -0.240992
-0.00896306 -0.0216674 -0.207366
0.000153645 -0.0216674 -0.219662
0.000153645 -0.0216674 -0.230905
0.0211334 -0.0216674 -0.225283
0.0140264 -0.0216674 -0.249305
-0.0145862 -0.0216674 -0.255642
-0.0117867 -0.0216674 -0.254026
-0.00896306 -0.0216674 -0.211245
-0.00135327 -0.0216674 -0.225283
-0.000969691 -0.0216674 -0.222373
-0.0100198 -0.0216674 -0.234643
-0.0117867 -0.0216674 -0.245193
-0.0107934 -0.0216674 -0.252732
-0.00870734 -0.0216674 -0.209305
-0.00863052 -0.0216674 -0.224087
-0.0101697 -0.0216674 -0.247993
-0.0107934 -0.0216674 -0.246486
-0.0101697 -0.0216674 -0.251226
-0.000969691 -0.0216674 -0.228193
-0.00745883 -0.0216674 -0.228459
-0.00863052 -0.0216674 -0.232831
-0.00995692 -0.0216674 -0.249609
-0.00775699 -0.0216674 -0.226196
-0.00775699 -0.0216674 -0.230723
3 0 1 2
3 1 0 3
3 0 6 2
3 1 3 8
3 6 0 13
3 1 8 16
3 1 16 9
3 12 22 4
3 4 23 12
3 13 0 24
3 22 12 7
3 22 7 15
3 9 16 28
3 12 38 21
3 23 4 39
3 12 23 40
3 24 0 41
3 22 15 26
3 17 48 27
3 9 28 49
3 58 0 37
3 12 59 38
3 12 40 59
3 41 0 58
3 22 26 46
3 17 26 45
3 46 26 17
3 9 67 47
3 17 68 48
3 27 48 66
3 9 49 70
3 79 54 31
3 56 39 34
3 42 39 56
3 17 45 69
3 9 95 67
3 47 67 94
3 17 96 68
3 9 70 98
3 112 54 79
3 17 69 97
3 9 132 95
3 17 133 96
3 9 98 135
3 54 137 100
3 137 54 112
3 17 97 134
3 9 135 132
3 17 134 133
3 296 260 261
3 286 305 270
3 270 295 287
3 301 261 293
3 287 295 260
3 287 260 296
3 296 261 301
3 301 293 283
3 283 319 302
3 304 324 286
3 286 325 305
3 270 305 295
3 283 293 319
3 302 319 336
3 323 324 304
3 286 324 325
3 302 336 335
3 323 322 324
3 322 323 337
3 335 336 343
3 343 352 342
3 343 336 352
3 7 0 3
3 0 7 12
3 3 15 7
3 15 3 8
3 21 0 12
3 23 6 13
3 8 26 15
3 26 8 16
3 0 21 37
3 40 13 24
3 6 23 42
3 13 40 23
3 16 45 26
3 45 16 28
3 38 37 21
3 42 23 39
3 41 40 24
3 66 47 27
3 28 69 45
3 69 28 49
3 54 53 31
3 37 38 58
3 59 58 38
3 40 41 59
3 58 59 41
3 47 66 94
3 68 67 48
3 48 94 66
3 49 97 69
3 97 49 70
3 53 54 99
3 99 78 53
3 90 56 82
3 56 90 42
3 67 68 95
3 94 48 67
3 96 95 68
3 70 134 97
3 134 70 98
3 78 99 150
3 150 111 78
3 129 82 119
3 82 129 90
3 147 85 121
3 95 96 132
3 135 96 133
3 98 133 134
3 133 98 135
3 170 100 137
3 121 109 147
3 176 148 109
3 111 150 167
3 167 119 111
3 139 116 154
3 173 155 116
3 119 167 129
3 85 147 145
3 96 135 132
3 100 170 169
3 116 139 173
3 154 172 139
3 155 173 141
3 174 155 141
3 109 121 176
3 148 176 202
3 148 206 183
3 172 154 186
3 155 174 156
3 156 169 170
3 169 156 174
3 186 201 172
3 206 148 202
3 206 207 183
3 207 206 201
3 201 186 207
3 4 1 2
3 0 4 2
3 1 4 9
3 2 10 4
3 4 0 12
3 9 4 17
3 10 2 18
3 4 10 19
3 11 18 2
3 14 18 2
3 17 4 22
3 27 9 17
3 29 10 18
3 18 30 10
3 11 35 20
3 11 36 18
3 25 42 6
3 18 14 29
3 17 22 46
3 9 27 47
3 50 10 29
3 18 51 29
3 30 18 36
3 10 54 31
3 35 11 57
3 57 36 11
3 51 18 36
3 60 33 22
3 42 61 6
3 42 25 44
3 46 60 22
3 54 10 50
3 36 73 30
3 33 60 32
3 35 83 57
3 36 57 85
3 85 51 36
3 60 83 22
3 42 86 61
3 100 50 54
3 51 85 72
3 36 104 73
3 105 30 73
3 30 107 74
3 83 32 76
3 32 83 60
3 35 120 83
3 84 120 35
3 57 121 85
3 85 104 36
3 90 86 42
3 54 136 99
3 50 100 131
3 100 136 54
3 143 73 104
3 104 105 73
3 107 30 105
3 73 144 105
3 106 107 74
3 107 108 74
3 76 120 108
3 120 76 83
3 118 79 77
3 79 118 112
3 137 79 112
3 79 137 113
3 157 120 84
3 157 121 57
3 104 85 145
3 90 136 86
3 129 136 90
3 99 136 150
3 169 136 100
3 73 143 177
3 104 178 143
3 105 104 179
3 179 107 105
3 144 73 180
3 105 144 181
3 107 106 145
3 108 107 120
3 108 182 146
3 182 108 120
3 120 157 182
3 121 157 176
3 104 145 179
3 167 136 129
3 150 136 167
3 174 136 169
3 139 136 173
3 172 136 139
3 173 136 141
3 141 136 174
3 143 203 177
3 177 180 73
3 178 104 179
3 204 143 178
3 203 179 105
3 107 179 145
3 180 178 144
3 178 181 144
3 105 181 203
3 176 157 202
3 172 157 136
3 201 157 172
3 203 143 234
3 180 177 203
3 178 179 235
3 143 204 234
3 178 180 204
3 179 203 234
3 181 178 235
3 236 203 181
3 238 153 209
3 210 237 184
3 202 157 206
3 206 157 201
3 180 203 236
3 235 179 264
3 234 204 264
3 180 264 204
3 234 264 179
3 264 181 235
3 181 264 236
3 237 210 205
3 210 208 205
3 208 153 238
3 184 237 239
3 237 209 239
3 209 237 238
3 153 208 240
3 208 210 240
3 264 180 236
3 44 90 42
3 90 44 64
3 50 99 54
3 52 109 75
3 116 80 55
3 116 81 55
3 129 64 91
3 64 129 90
3 99 50 93
3 139 71 101
3 71 141 102
3 72 121 103
3 121 72 85
3 52 145 106
3 109 52 147
3 148 75 109
3 75 148 110
3 153 80 114
3 80 116 154
3 81 116 155
3 81 156 117
3 167 91 128
3 91 167 129
3 150 93 130
3 93 150 99
3 169 131 100
3 172 101 138
3 71 139 173
3 101 172 139
3 102 174 140
3 141 71 173
3 174 102 141
3 103 176 142
3 176 103 121
3 145 52 147
3 183 110 148
3 110 183 149
3 113 170 151
3 170 113 137
3 153 152 114
3 184 80 153
3 80 186 154
3 156 81 155
3 170 117 156
3 117 170 151
3 150 128 130
3 128 150 167
3 131 169 168
3 201 138 171
3 138 201 172
3 168 174 140
3 142 202 175
3 202 142 176
3 149 207 183
3 207 149 152
3 184 152 153
3 186 80 184
3 174 168 169
3 206 171 200
3 171 206 201
3 202 200 175
3 152 186 207
3 186 152 184
3 200 202 206
3 2 5 1
3 5 2 11
3 6 14 2
3 14 6 25
3 31 19 10
3 32 10 19
3 4 33 19
3 34 4 19
3 33 4 22
3 44 14 25
3 29 20 14
3 30 52 10
3 32 30 10
3 19 31 53
3 10 55 31
3 32 19 33
3 4 34 39
3 19 56 34
3 51 35 20
3 64 14 44
3 65 44 25
3 51 20 29
3 14 50 29
3 71 29 50
3 29 72 51
3 74 52 30
3 10 52 75
3 76 30 32
3 31 77 53
3 19 53 78
3 10 80 55
3 31 55 81
3 77 39 34
3 19 82 56
3 56 77 34
3 35 51 84
3 91 14 64
3 65 64 44
3 65 25 92
3 50 14 93
3 101 29 71
3 71 50 102
3 72 29 103
3 72 84 51
3 52 74 106
3 30 108 74
3 108 75 52
3 10 75 110
3 30 76 108
3 77 31 79
3 53 77 78
3 19 78 111
3 31 113 79
3 10 114 80
3 80 115 55
3 55 115 81
3 31 81 117
3 39 77 118
3 19 119 82
3 82 77 56
3 86 122 61
3 128 14 91
3 65 91 64
3 93 14 130
3 93 131 50
3 138 29 101
3 65 101 71
3 102 50 140
3 65 71 102
3 103 29 142
3 103 84 72
3 74 108 106
3 108 52 106
3 146 75 108
3 75 146 110
3 10 110 149
3 79 115 77
3 78 77 111
3 19 111 119
3 31 151 113
3 113 115 79
3 10 152 114
3 114 115 80
3 81 115 117
3 31 117 151
3 115 118 77
3 119 77 82
3 122 86 136
3 130 14 128
3 65 128 91
3 122 84 65
3 65 93 130
3 65 131 93
3 168 50 131
3 171 29 138
3 65 138 101
3 140 50 168
3 65 102 140
3 142 29 175
3 142 84 103
3 182 147 109
3 182 109 148
3 110 146 149
3 10 149 152
3 111 77 119
3 118 137 112
3 151 115 113
3 152 146 114
3 114 146 115
3 185 154 116
3 117 115 151
3 185 116 155
3 118 115 185
3 84 122 157
3 157 122 136
3 65 130 128
3 84 138 65
3 65 168 131
3 185 170 137
3 200 29 171
3 138 84 171
3 65 140 168
3 175 29 200
3 175 84 142
3 182 107 145
3 182 145 147
3 107 182 120
3 182 205 146
3 182 148 183
3 149 146 152
3 185 137 118
3 146 208 115
3 185 186 154
3 185 155 156
3 185 156 170
3 115 182 185
3 171 84 200
3 200 84 175
3 205 182 237
3 146 205 208
3 182 183 207
3 238 115 208
3 182 186 185
3 182 115 237
3 182 207 186
3 237 115 238
3 2 20 11
3 20 2 14
3 212 158 187
3 158 212 188
3 223 194 163
3 225 163 195
3 241 187 211
3 212 187 241
3 254 211 194
3 254 194 223
3 223 163 225
3 256 195 224
3 225 195 256
3 241 211 254
3 274 224 255
3 256 224 274
3 274 255 290
3 290 255 289
3 315 289 309
3 290 289 315
3 316 309 313
3 315 309 316
3 333 313 321
3 316 313 333
3 6 43 25
3 6 62 43
3 63 25 43
3 61 62 6
3 62 87 43
3 88 25 63
3 43 89 63
3 62 61 88
3 87 62 123
3 43 87 124
3 88 92 25
3 125 88 63
3 43 126 89
3 127 63 89
3 92 122 65
3 122 92 61
3 92 88 61
3 88 158 62
3 123 62 159
3 43 124 162
3 163 88 125
3 125 63 164
3 43 165 126
3 166 63 127
3 158 88 187
3 62 158 188
3 159 62 189
3 123 159 190
3 43 162 193
3 194 88 163
3 163 125 195
3 164 63 196
3 43 198 165
3 199 63 166
3 187 88 211
3 62 188 213
3 189 62 214
3 123 190 217
3 191 219 160
3 160 220 161
3 161 220 192
3 43 193 222
3 211 88 194
3 195 125 224
3 196 63 226
3 43 229 198
3 230 165 198
3 231 63 199
3 232 199 166
3 242 188 212
3 213 188 243
3 244 62 213
3 214 62 245
3 123 217 248
3 123 250 218
3 191 251 219
3 160 219 220
3 192 220 252
3 192 252 221
3 43 222 229
3 224 125 255
3 226 63 257
3 260 228 197
3 261 197 227
3 253 165 230
3 262 63 231
3 232 263 199
3 253 233 165
3 246 212 241
3 188 242 265
3 242 212 246
3 243 188 265
3 245 62 244
3 246 254 215
3 215 225 216
3 216 256 247
3 123 248 267
3 249 251 191
3 123 269 250
3 218 250 270
3 221 252 233
3 221 233 253
3 215 254 223
3 215 223 225
3 255 125 259
3 216 225 256
3 257 63 275
3 261 227 258
3 260 277 228
3 260 197 261
3 278 63 262
3 232 279 263
3 246 241 254
3 247 256 274
3 247 274 266
3 123 267 281
3 218 283 268
3 249 284 251
3 123 281 269
3 270 250 286
3 218 270 287
3 255 259 289
3 275 63 291
3 293 258 276
3 261 258 293
3 295 277 260
3 297 63 278
3 232 298 279
3 266 274 290
3 266 290 280
3 282 284 249
3 218 301 283
3 268 283 302
3 285 303 250
3 286 250 304
3 218 287 296
3 288 306 271
3 271 307 272
3 272 308 273
3 273 298 232
3 289 259 309
3 291 63 310
3 293 276 292
3 313 259 294
3 295 312 277
3 314 63 297
3 280 290 315
3 280 316 299
3 268 302 300
3 282 318 284
3 218 296 301
3 321 303 285
3 250 303 322
3 304 250 323
3 288 326 306
3 271 306 327
3 271 327 307
3 272 307 308
3 273 308 298
3 309 259 313
3 310 63 328
3 319 292 311
3 293 292 319
3 313 294 321
3 295 331 312
3 332 63 314
3 280 315 316
3 299 316 333
3 299 333 285
3 317 318 282
3 300 302 335
3 320 326 288
3 321 330 303
3 285 333 321
3 322 303 324
3 250 322 337
3 323 250 337
3 325 338 305
3 338 295 305
3 328 63 339
3 310 328 340
3 336 329 310
3 319 311 329
3 321 294 330
3 295 338 331
3 339 63 332
3 300 342 334
3 341 318 317
3 300 335 343
3 319 329 336
3 320 345 326
3 324 303 325
3 325 303 338
3 310 340 346
3 310 346 336
3 300 343 342
3 334 342 347
3 347 318 341
3 344 349 320
3 320 350 345
3 336 346 351
3 347 342 353
3 318 347 348
3 344 355 349
3 320 349 350
3 336 351 352
3 352 351 342
3 342 355 353
3 347 353 356
3 347 356 348
3 355 344 354
3 342 351 355
3 353 355 357
3 357 355 354
3 123 160 87
3 87 161 124
3 123 191 160
3 87 160 161
3 124 161 192
3 124 192 162
3 218 191 123
3 162 192 221
3 162 221 193
3 218 249 191
3 193 221 253
3 193 253 222
3 229 230 198
3 268 249 218
3 222 253 230
3 222 230 229
3 268 282 249
3 300 282 268
3 300 317 282
3 334 317 300
3 334 341 317
3 341 334 347
3 126 127 89
3 165 127 126
3 165 166 127
3 233 166 165
3 233 232 166
3 251 271 219
3 219 272 220
3 220 273 252
3 252 232 233
3 251 288 271
3 219 271 272
3 220 272 273
3 252 273 232
3 284 288 251
3 284 320 288
3 318 320 284
3 318 344 320
3 348 344 318
3 348 354 344
3 356 354 348
3 357 356 353
3 356 357 354
3 197 125 164
3 227 164 196
3 228 125 197
3 197 164 227
3 258 196 226
3 227 196 258
3 228 259 125
3 276 226 257
3 258 226 276
3 277 259 228
3 292 257 275
3 276 257 292
3 277 294 259
3 311 275 291
3 292 275 311
3 312 294 277
3 329 291 310
3 311 291 329
3 312 330 294
3 331 330 312
3 331 303 330
3 303 331 338
3 184 209 153
3 153 210 184
3 209 184 239
3 210 153 240
3 189 215 159
3 159 216 190
3 214 246 189
3 189 246 215
3 159 215 216
3 190 216 247
3 190 247 217
3 243 244 213
3 245 242 214
3 214 242 246
3 217 247 266
3 217 266 248
3 245 265 242
3 244 243 265
3 244 265 245
3 248 266 280
3 248 280 267
3 269 285 250
3 267 280 299
3 267 299 281
3 281 285 269
3 281 299 285
3 263 231 199
3 279 262 231
3 279 231 263
3 298 278 262
3 298 262 279
3 308 297 278
3 308 278 298
3 307 314 297
3 307 297 308
3 326 339 306
3 306 332 327
3 327 314 307
3 327 332 314
3 326 328 339
3 306 339 332
3 345 340 328
3 345 328 326
3 350 340 345
3 350 346 340
3 349 346 350
3 349 351 346
3 351 349 355
