ply
format ascii 1.0
comment Generated by PyMesh
element vertex 562
property double x
property double y
property double z
element face 1664
property list uchar int vertex_indices
end_header
-0.0804762 0.250709 0.419856
-0.0782822 -0.186974 0.419856
-0.0782822 0.250709 0.419856
-0.0804762 -0.186974 0.419856
-0.0782822 0.250709 0.196333
-0.0782822 -0.186974 0.196333
-0.0804762 -0.186974 0.196333
-0.0804762 0.250709 0.196333
-0.0863776 0.188229 -0.419856
-0.0863776 -0.0261729 -0.11612
-0.0863776 0.188229 -0.11612
-0.0863776 -0.0261729 -0.419856
-0.0847027 0.188229 -0.11612
-0.0847027 -0.0261729 -0.419856
-0.0847027 -0.0261729 -0.11612
-0.0847027 0.188229 -0.419856
0.0745494 -0.250709 -0.0363723
-0.104241 0.0855462 -0.0454756
0.0745494 -0.250709 -0.0454756
-0.104241 0.0855462 -0.0363723
-0.0845215 0.0960311 -0.0454756
0.0993494 -0.249779 -0.0363723
-0.0319119 -0.0313083 -0.0363723
-0.104031 0.0879574 -0.0454756
0.0993494 -0.249779 -0.0454756
-0.0866377 0.097206 -0.0454756
-0.0240242 -0.0271142 -0.0363723
-0.039021 -0.0179382 -0.0363723
-0.104031 0.0879574 -0.0363723
-0.103437 0.0902537 -0.0454756
-0.0888735 0.0979973 -0.0454756
-0.0866377 0.097206 -0.0363723
-0.0845215 0.0960311 -0.0363723
-0.088213 0.0735894 -0.0363723
-0.103437 0.0902537 -0.0363723
-0.102474 0.0923693 -0.0454756
-0.0911655 0.0983819 -0.0454756
-0.0888735 0.0979973 -0.0363723
-0.0311333 -0.0137446 -0.0363723
-0.0803253 0.077783 -0.0363723
-0.0953221 0.0869589 -0.0363723
-0.102474 0.0923693 -0.0363723
-0.101172 0.0942407 -0.0454756
-0.0934454 0.098349 -0.0454756
-0.0874343 0.0911531 -0.0363723
-0.0956478 0.0978999 -0.0363723
-0.101172 0.0942407 -0.0363723
-0.0995681 0.0958155 -0.0454756
-0.0956478 0.0978999 -0.0454756
-0.0934454 0.098349 -0.0363723
-0.0911655 0.0983819 -0.0363723
-0.0977089 0.097047 -0.0363723
-0.0995681 0.0958155 -0.0363723
-0.0977089 0.097047 -0.0454756
0.0231841 -0.130187 0.125051
0.021978 -0.130563 0.125051
0.0231841 -0.130187 -0.0233427
0.0170343 -0.126631 0.125051
0.021978 -0.130563 -0.0233427
0.0242912 -0.129512 -0.0233427
0.0171291 -0.125371 0.125051
0.0207544 -0.130615 0.125051
0.0170343 -0.126631 -0.0233427
0.0171291 -0.125371 -0.0233427
0.0242912 -0.129512 0.125051
0.0172589 -0.127834 0.125051
0.0172589 -0.127834 -0.0233427
0.0207544 -0.130615 -0.0233427
0.017538 -0.12414 -0.0233427
0.0252234 -0.128584 -0.0233427
0.017538 -0.12414 0.125051
0.0177881 -0.128899 0.125051
0.0195975 -0.130339 0.125051
0.0182319 -0.123023 -0.0233427
0.0252234 -0.128584 0.125051
0.0182319 -0.123023 0.125051
0.0177881 -0.128899 -0.0233427
0.0195975 -0.130339 -0.0233427
0.0191642 -0.122095 -0.0233427
0.0259173 -0.127467 -0.0233427
0.0185858 -0.129754 0.125051
0.0185858 -0.129754 -0.0233427
0.0191642 -0.122095 0.125051
0.0259173 -0.127467 0.125051
0.0202713 -0.121421 0.125051
0.0263263 -0.126237 -0.0233427
0.0202713 -0.121421 -0.0233427
0.0263263 -0.126237 0.125051
0.0214779 -0.121044 0.125051
0.0264216 -0.124976 -0.0233427
0.0214779 -0.121044 -0.0233427
0.0264216 -0.124976 0.125051
0.022701 -0.120993 -0.0233427
0.0261965 -0.123773 -0.0233427
0.0261965 -0.123773 0.125051
0.022701 -0.120993 0.125051
0.0238579 -0.121269 -0.0233427
0.0256673 -0.122708 0.125051
0.0238579 -0.121269 0.125051
0.0256673 -0.122708 -0.0233427
0.0248696 -0.121853 -0.0233427
0.0248696 -0.121853 0.125051
-0.0549353 -0.227089 0.120785
-0.0561414 -0.227465 0.120785
-0.0549353 -0.227089 -0.0276089
-0.061085 -0.223533 0.120785
-0.0561414 -0.227465 -0.0276089
-0.0538282 -0.226414 -0.0276089
-0.0609897 -0.222273 0.120785
-0.057365 -0.227518 0.120785
-0.061085 -0.223533 -0.0276089
-0.0609897 -0.222273 -0.0276089
-0.0538282 -0.226414 0.120785
-0.0608605 -0.224737 0.120785
-0.0608605 -0.224737 -0.0276089
-0.057365 -0.227518 -0.0276089
-0.0605818 -0.221042 -0.0276089
-0.0528959 -0.225487 -0.0276089
-0.0605818 -0.221042 0.120785
-0.0603313 -0.225802 0.120785
-0.0585218 -0.227241 0.120785
-0.0598874 -0.219925 -0.0276089
-0.0528959 -0.225487 0.120785
-0.0598874 -0.219925 0.120785
-0.0603313 -0.225802 -0.0276089
-0.0585218 -0.227241 -0.0276089
-0.0589551 -0.218998 -0.0276089
-0.052202 -0.22437 -0.0276089
-0.0595341 -0.226656 0.120785
-0.0595341 -0.226656 -0.0276089
-0.0589551 -0.218998 0.120785
-0.052202 -0.22437 0.120785
-0.0578481 -0.218323 0.120785
-0.0517936 -0.223139 -0.0276089
-0.0578481 -0.218323 -0.0276089
-0.0517936 -0.223139 0.120785
-0.0566419 -0.217946 0.120785
-0.0516983 -0.221879 -0.0276089
-0.0566419 -0.217946 -0.0276089
-0.0516983 -0.221879 0.120785
-0.0554183 -0.217895 -0.0276089
-0.0519229 -0.220675 -0.0276089
-0.0519229 -0.220675 0.120785
-0.0554183 -0.217895 0.120785
-0.0542615 -0.21817 -0.0276089
-0.052452 -0.21961 0.120785
-0.0542615 -0.21817 0.120785
-0.052452 -0.21961 -0.0276089
-0.0532498 -0.218756 -0.0276089
-0.0532498 -0.218756 0.120785
-0.0884842 -0.245329 0.125252
0.0470274 -0.0749671 0.116149
-0.0884842 -0.245329 0.116149
0.0470274 -0.0749671 0.125252
-0.0599467 -0.245329 0.116149
-0.0599467 -0.245329 0.125252
0.0755649 -0.0749671 0.116149
0.0755649 -0.0749671 0.125252
0.0960319 -0.0683597 0.112378
0.0960319 -0.0728261 0.112378
0.0960319 -0.0683597 -0.0274892
0.0960319 -0.0728261 -0.0274892
0.102007 -0.0662753 -0.033327
-0.0148101 -0.0662753 -0.0255415
0.102007 -0.0662753 -0.0255415
-0.0299526 -0.0662753 -0.033327
-0.0148101 -0.0747436 -0.0255415
0.102007 -0.0747436 -0.033327
-0.0148101 -0.0662753 -0.033327
-0.0299526 -0.0662753 0.125252
-0.0148101 -0.0747436 0.114335
0.102007 -0.0747436 -0.0255415
-0.0148101 -0.0747436 -0.033327
0.0890981 -0.0662753 -0.033327
-0.0148101 -0.0662753 0.114407
-0.0299526 -0.0747436 0.125252
0.0890981 -0.0752086 -0.033327
-0.0299526 -0.0747436 -0.033327
-0.0148101 -0.0662753 0.125252
0.102007 -0.0747436 0.114335
-0.0148101 -0.0747436 0.125252
0.102007 -0.0662753 0.125252
0.102007 -0.0662753 0.114407
0.102007 -0.0747436 0.125252
0.0890981 -0.0662753 0.125252
0.0890981 -0.0662753 -0.033327
0.0890981 -0.0752086 0.125252
0.104241 -0.0662753 0.125252
0.0890981 -0.0752086 -0.033327
0.104241 -0.0662753 -0.033327
0.104241 -0.0752086 0.125252
0.104241 -0.0752086 -0.033327
0.0937086 -0.0683597 0.00841054
0.0937086 -0.0683597 0.00629122
0.0937086 -0.0728261 0.00841054
0.0937086 -0.0728261 0.00629122
-0.0148101 -0.0683597 0.0212128
0.0991931 -0.0683597 0.0212128
-0.0148101 -0.0683597 0.00841054
-0.0148101 -0.0728261 0.0212128
0.0991931 -0.0683597 0.00841054
0.0991931 -0.0728261 0.0212128
0.0991931 -0.0728261 0.00841054
-0.0148101 -0.0728261 0.00841054
0.0937086 -0.0683597 -0.0212584
0.0937086 -0.0683597 -0.0233772
0.0937086 -0.0728261 -0.0212584
0.0937086 -0.0728261 -0.0233772
-0.0148101 -0.0683597 -0.00845664
0.0991931 -0.0683597 -0.00845664
-0.0148101 -0.0683597 -0.0212584
-0.0148101 -0.0728261 -0.00845664
0.0991931 -0.0683597 -0.0212584
0.0991931 -0.0728261 -0.00845664
0.0991931 -0.0728261 -0.0212584
-0.0148101 -0.0728261 -0.0212584
0.0937086 -0.0683597 -0.00642365
0.0937086 -0.0683597 -0.00854298
0.0937086 -0.0728261 -0.00642365
0.0937086 -0.0728261 -0.00854298
-0.0148101 -0.0683597 0.00637809
0.0991931 -0.0683597 0.00637809
-0.0148101 -0.0683597 -0.00642365
-0.0148101 -0.0728261 0.00637809
0.0991931 -0.0683597 -0.00642365
0.0991931 -0.0728261 0.00637809
0.0991931 -0.0728261 -0.00642365
-0.0148101 -0.0728261 -0.00642365
0.0937086 -0.0683597 0.0380795
0.0937086 -0.0683597 0.0359601
0.0937086 -0.0728261 0.0380795
0.0937086 -0.0728261 0.0359601
-0.0148101 -0.0683597 0.0508817
0.0991931 -0.0683597 0.0508817
-0.0148101 -0.0683597 0.0380795
-0.0148101 -0.0728261 0.0508817
0.0991931 -0.0683597 0.0380795
0.0991931 -0.0728261 0.0508817
0.0991931 -0.0728261 0.0380795
-0.0148101 -0.0728261 0.0380795
0.0937086 -0.0683597 0.0232447
0.0937086 -0.0683597 0.0211259
0.0937086 -0.0728261 0.0232447
0.0937086 -0.0728261 0.0211259
-0.0148101 -0.0683597 0.036047
0.0991931 -0.0683597 0.036047
-0.0148101 -0.0683597 0.0232447
-0.0148101 -0.0728261 0.036047
0.0991931 -0.0683597 0.0232447
0.0991931 -0.0728261 0.036047
0.0991931 -0.0728261 0.0232447
-0.0148101 -0.0728261 0.0232447
0.0937086 -0.0683597 0.0529137
0.0937086 -0.0683597 0.0507949
0.0937086 -0.0728261 0.0529137
0.0937086 -0.0728261 0.0507949
-0.0148101 -0.0683597 0.0657159
0.0991931 -0.0683597 0.0657159
-0.0148101 -0.0683597 0.0529137
-0.0148101 -0.0728261 0.0657159
0.0991931 -0.0683597 0.0529137
0.0991931 -0.0728261 0.0657159
0.0991931 -0.0728261 0.0529137
-0.0148101 -0.0728261 0.0529137
0.0937086 -0.0683597 0.0974168
0.0937086 -0.0683597 0.095298
0.0937086 -0.0728261 0.0974168
0.0937086 -0.0728261 0.095298
-0.0148101 -0.0683597 0.110219
0.0991931 -0.0683597 0.110219
-0.0148101 -0.0683597 0.0974168
-0.0148101 -0.0728261 0.110219
0.0991931 -0.0683597 0.0974168
0.0991931 -0.0728261 0.110219
0.0991931 -0.0728261 0.0974168
-0.0148101 -0.0728261 0.0974168
0.0937086 -0.0683597 0.0825826
0.0937086 -0.0683597 0.0804632
0.0937086 -0.0728261 0.0825826
0.0937086 -0.0728261 0.0804632
-0.0148101 -0.0683597 0.0953848
0.0991931 -0.0683597 0.0953848
-0.0148101 -0.0683597 0.0825826
-0.0148101 -0.0728261 0.0953848
0.0991931 -0.0683597 0.0825826
0.0991931 -0.0728261 0.0953848
0.0991931 -0.0728261 0.0825826
-0.0148101 -0.0728261 0.0825826
0.0937086 -0.0683597 0.0677478
0.0937086 -0.0683597 0.0656291
0.0937086 -0.0728261 0.0677478
0.0937086 -0.0728261 0.0656291
-0.0148101 -0.0683597 0.0805501
0.0991931 -0.0683597 0.0805501
-0.0148101 -0.0683597 0.0677478
-0.0148101 -0.0728261 0.0805501
0.0991931 -0.0683597 0.0677478
0.0991931 -0.0728261 0.0805501
0.0991931 -0.0728261 0.0677478
-0.0148101 -0.0728261 0.0677478
-0.0934681 -0.24667 -0.0227712
0.0420435 -0.0763083 -0.0318741
-0.0934681 -0.24667 -0.0318741
0.0420435 -0.0763083 -0.0227712
-0.0649307 -0.24667 -0.0318741
-0.0649307 -0.24667 -0.0227712
0.0705804 -0.0763083 -0.0318741
0.0705804 -0.0763083 -0.0227712
0.0618738 -0.206503 -0.0392072
0.0629914 -0.207093 0.131647
0.0618738 -0.206503 0.131647
0.0629914 -0.207093 -0.0392072
0.0687048 -0.202871 0.131647
0.0609081 -0.205638 -0.0392072
0.0685686 -0.204127 -0.0392072
0.0641848 -0.207367 0.131647
0.0685273 -0.201587 0.131647
0.0685686 -0.204127 0.131647
0.0609081 -0.205638 0.131647
0.0687048 -0.202871 -0.0392072
0.0681284 -0.20527 -0.0392072
0.0641848 -0.207367 -0.0392072
0.0601602 -0.204556 -0.0392072
0.0685273 -0.201587 -0.0392072
0.065373 -0.207306 0.131647
0.0681284 -0.20527 0.131647
0.0680485 -0.200362 0.131647
0.0601602 -0.204556 0.131647
0.0674139 -0.20622 -0.0392072
0.065373 -0.207306 -0.0392072
0.0596819 -0.203331 -0.0392072
0.0680485 -0.200362 -0.0392072
0.0664742 -0.206915 0.131647
0.0674139 -0.20622 0.131647
0.0673011 -0.19928 0.131647
0.0596819 -0.203331 0.131647
0.0664742 -0.206915 -0.0392072
0.0595039 -0.202046 -0.0392072
0.0673011 -0.19928 -0.0392072
0.0663349 -0.198414 0.131647
0.0595039 -0.202046 0.131647
0.05964 -0.20079 -0.0392072
0.0663349 -0.198414 -0.0392072
0.0652177 -0.197825 0.131647
0.05964 -0.20079 0.131647
0.0600802 -0.199648 0.131647
0.0652177 -0.197825 -0.0392072
0.0640243 -0.19755 0.131647
0.0600802 -0.199648 -0.0392072
0.0640243 -0.19755 -0.0392072
0.0607948 -0.198697 0.131647
0.0628362 -0.197611 0.131647
0.0628362 -0.197611 -0.0392072
0.0607948 -0.198697 -0.0392072
0.061735 -0.198002 0.131647
0.061735 -0.198002 -0.0392072
-0.00640802 -0.084784 -0.0392072
-0.00529036 -0.0853736 0.131647
-0.00640802 -0.084784 0.131647
-0.00529036 -0.0853736 -0.0392072
0.000422962 -0.0811519 0.131647
-0.00737313 -0.0839185 -0.0392072
0.000286831 -0.0824078 -0.0392072
-0.00409695 -0.0856474 0.131647
0.000245514 -0.0798673 0.131647
0.000286831 -0.0824078 0.131647
-0.00737313 -0.0839185 0.131647
0.000422962 -0.0811519 -0.0392072
-0.000152819 -0.0835503 -0.0392072
-0.00409695 -0.0856474 -0.0392072
-0.00812107 -0.0828363 -0.0392072
0.000245514 -0.0798673 -0.0392072
-0.00290884 -0.085587 0.131647
-0.000152819 -0.0835503 0.131647
-0.000233333 -0.0786422 0.131647
-0.00812107 -0.0828363 0.131647
-0.000867911 -0.0845017 -0.0392072
-0.00290884 -0.085587 -0.0392072
-0.00859991 -0.0816116 -0.0392072
-0.000233333 -0.0786422 -0.0392072
-0.0018076 -0.0851961 0.131647
-0.000867911 -0.0845017 0.131647
-0.000981266 -0.0775605 0.131647
-0.00859991 -0.0816116 0.131647
-0.0018076 -0.0851961 -0.0392072
-0.00877789 -0.0803271 -0.0392072
-0.000981266 -0.0775605 -0.0392072
-0.00194638 -0.076695 0.131647
-0.00877789 -0.0803271 0.131647
-0.00864176 -0.0790712 -0.0392072
-0.00194638 -0.076695 -0.0392072
-0.00306404 -0.0761054 0.131647
-0.00864176 -0.0790712 0.131647
-0.00820105 -0.0779286 0.131647
-0.00306404 -0.0761054 -0.0392072
-0.00425745 -0.0758316 0.131647
-0.00820105 -0.0779286 -0.0392072
-0.00425745 -0.0758316 -0.0392072
-0.00748702 -0.0769773 0.131647
-0.00544503 -0.075892 0.131647
-0.00544503 -0.075892 -0.0392072
-0.00748702 -0.0769773 -0.0392072
-0.0065468 -0.0762829 0.131647
-0.0065468 -0.0762829 -0.0392072
0.0747645 -0.24931 0.127095
-0.104026 0.0869452 0.136199
-0.104026 0.0869452 0.127095
0.0747645 -0.24931 0.136199
-0.103816 0.0893564 0.136199
-0.103816 0.0893564 0.127095
0.0995639 -0.24838 0.136199
-0.103222 0.0916531 0.127095
0.0995639 -0.24838 0.127095
-0.0864226 0.0986044 0.136199
-0.103222 0.0916531 0.136199
-0.10226 0.0937677 0.127095
-0.0864226 0.0986044 0.127095
-0.0843065 0.09743 0.136199
-0.088659 0.0993957 0.136199
-0.10226 0.0937677 0.136199
-0.100958 0.0956402 0.127095
-0.0843065 0.09743 0.127095
-0.088659 0.0993957 0.127095
-0.0909505 0.0997808 0.136199
-0.100958 0.0956402 0.136199
-0.0993531 0.0972144 0.127095
-0.0909505 0.0997808 0.127095
-0.0932308 0.0997485 0.136199
-0.0993531 0.0972144 0.136199
-0.0974938 0.098446 0.127095
-0.0932308 0.0997485 0.127095
-0.0954333 0.0992988 0.136199
-0.0974938 0.098446 0.136199
-0.0954333 0.0992988 0.127095
-0.085421 0.0829269 -0.0301038
-0.0893646 0.0808298 0.120097
-0.085421 0.0829269 0.120097
-0.0893646 0.0808298 -0.0301038
-0.0319119 -0.0313083 0.133922
-0.0240242 -0.0271142 -0.0363723
-0.0240242 -0.0271142 0.133922
-0.0319119 -0.0313083 -0.0363723
-0.0311333 -0.0137446 0.133922
-0.039021 -0.0179382 -0.0363723
-0.0311333 -0.0137446 -0.0363723
-0.039021 -0.0179382 0.133922
-0.0882739 0.0787778 0.00621547
-0.0843298 0.0808754 0.00393936
-0.0843298 0.0808754 0.00621547
-0.0882739 0.0787778 0.00393936
-0.0333834 -0.0149412 0.00621547
-0.0869046 0.0857173 0.0199633
-0.0333834 -0.0149412 0.0199633
-0.0869046 0.0857173 0.00621547
-0.0373276 -0.0170383 0.0199633
-0.0908488 0.0836208 0.00621547
-0.0908488 0.0836208 0.0199633
-0.0373276 -0.0170383 0.00621547
-0.0882739 0.0787778 -0.0256453
-0.0843298 0.0808754 -0.0279209
-0.0843298 0.0808754 -0.0256453
-0.0882739 0.0787778 -0.0279209
-0.0333834 -0.0149412 -0.0256453
-0.0869046 0.0857173 -0.0118976
-0.0333834 -0.0149412 -0.0118976
-0.0869046 0.0857173 -0.0256453
-0.0373276 -0.0170383 -0.0118976
-0.0908488 0.0836208 -0.0256453
-0.0908488 0.0836208 -0.0118976
-0.0373276 -0.0170383 -0.0256453
-0.0882739 0.0787778 -0.00971467
-0.0843298 0.0808754 -0.0119908
-0.0843298 0.0808754 -0.00971467
-0.0882739 0.0787778 -0.0119908
-0.0333834 -0.0149412 -0.00971467
-0.0869046 0.0857173 0.00403259
-0.0333834 -0.0149412 0.00403259
-0.0869046 0.0857173 -0.00971467
-0.0373276 -0.0170383 0.00403259
-0.0908488 0.0836208 -0.00971467
-0.0908488 0.0836208 0.00403259
-0.0373276 -0.0170383 -0.00971467
-0.0882739 0.0787778 0.0380763
-0.0843298 0.0808754 0.0358007
-0.0843298 0.0808754 0.0380763
-0.0882739 0.0787778 0.0358007
-0.0333834 -0.0149412 0.0380763
-0.0869046 0.0857173 0.0518241
-0.0333834 -0.0149412 0.0518241
-0.0869046 0.0857173 0.0380763
-0.0373276 -0.0170383 0.0518241
-0.0908488 0.0836208 0.0380763
-0.0908488 0.0836208 0.0518241
-0.0373276 -0.0170383 0.0380763
-0.0882739 0.0787778 0.0221456
-0.0843298 0.0808754 0.01987
-0.0843298 0.0808754 0.0221456
-0.0882739 0.0787778 0.01987
-0.0333834 -0.0149412 0.0221456
-0.0869046 0.0857173 0.0358939
-0.0333834 -0.0149412 0.0358939
-0.0869046 0.0857173 0.0221456
-0.0373276 -0.0170383 0.0358939
-0.0908488 0.0836208 0.0221456
-0.0908488 0.0836208 0.0358939
-0.0373276 -0.0170383 0.0221456
-0.0882739 0.0787778 0.0540069
-0.0843298 0.0808754 0.0517308
-0.0843298 0.0808754 0.0540069
-0.0882739 0.0787778 0.0517308
-0.0333834 -0.0149412 0.0540069
-0.0869046 0.0857173 0.0677547
-0.0333834 -0.0149412 0.0677547
-0.0869046 0.0857173 0.0540069
-0.0373276 -0.0170383 0.0677547
-0.0908488 0.0836208 0.0540069
-0.0908488 0.0836208 0.0677547
-0.0373276 -0.0170383 0.0540069
-0.0882739 0.0787778 0.101798
-0.0843298 0.0808754 0.0995223
-0.0843298 0.0808754 0.101798
-0.0882739 0.0787778 0.0995223
-0.0333834 -0.0149412 0.101798
-0.0869046 0.0857173 0.115546
-0.0333834 -0.0149412 0.115546
-0.0869046 0.0857173 0.101798
-0.0373276 -0.0170383 0.115546
-0.0908488 0.0836208 0.101798
-0.0908488 0.0836208 0.115546
-0.0373276 -0.0170383 0.101798
-0.0882739 0.0787778 0.0858672
-0.0843298 0.0808754 0.0835916
-0.0843298 0.0808754 0.0858672
-0.0882739 0.0787778 0.0835916
-0.0333834 -0.0149412 0.0858672
-0.0869046 0.0857173 0.0996155
-0.0333834 -0.0149412 0.0996155
-0.0869046 0.0857173 0.0858672
-0.0373276 -0.0170383 0.0996155
-0.0908488 0.0836208 0.0858672
-0.0908488 0.0836208 0.0996155
-0.0373276 -0.0170383 0.0858672
-0.0882739 0.0787778 0.0699371
-0.0843298 0.0808754 0.067661
-0.0843298 0.0808754 0.0699371
-0.0882739 0.0787778 0.067661
-0.0333834 -0.0149412 0.0699371
-0.0869046 0.0857173 0.0836849
-0.0333834 -0.0149412 0.0836849
-0.0869046 0.0857173 0.0699371
-0.0373276 -0.0170383 0.0836849
-0.0908488 0.0836208 0.0699371
-0.0908488 0.0836208 0.0836849
-0.0373276 -0.0170383 0.0699371
-0.088213 0.0735894 0.133922
-0.0803253 0.077783 -0.0363723
-0.0803253 0.077783 0.133922
-0.088213 0.0735894 -0.0363723
-0.0874343 0.0911531 0.133922
-0.0953221 0.0869589 -0.0363723
-0.0874343 0.0911531 -0.0363723
-0.0953221 0.0869589 0.133922
3 0 1 2
3 1 0 3
3 2 1 0
3 3 0 1
3 1 4 2
3 2 4 1
3 4 0 2
3 2 0 4
3 0 6 3
3 3 6 0
3 6 1 3
3 3 1 6
3 4 1 5
3 5 1 4
3 1 6 5
3 5 6 1
3 0 4 7
3 7 4 0
3 6 0 7
3 7 0 6
3 6 4 5
3 5 4 6
3 4 6 7
3 7 6 4
3 1 5 2
3 1 2 5
3 4 2 5
3 4 5 2
3 8 9 10
3 9 8 11
3 10 9 8
3 11 8 9
3 9 12 10
3 10 12 9
3 12 8 10
3 10 8 12
3 8 13 11
3 11 13 8
3 13 9 11
3 11 9 13
3 12 9 14
3 14 9 12
3 8 12 15
3 15 12 8
3 13 8 15
3 15 8 13
3 9 13 14
3 14 13 9
3 13 12 14
3 14 12 13
3 12 13 15
3 15 13 12
3 14 13 12
3 14 12 13
3 15 12 13
3 15 13 12
3 16 17 18
3 17 16 19
3 20 18 17
3 18 21 16
3 16 22 19
3 18 20 24
3 20 17 25
3 21 18 24
3 21 26 16
3 22 16 26
3 19 22 27
3 29 17 23
3 20 21 24
3 25 17 30
3 26 21 32
3 19 27 33
3 19 34 28
3 35 17 29
3 21 20 32
3 30 17 36
3 26 32 38
3 33 27 39
3 19 33 40
3 19 41 34
3 42 17 35
3 36 17 43
3 44 32 31
3 44 31 37
3 38 32 27
3 27 32 39
3 19 40 45
3 19 46 41
3 47 17 42
3 43 17 48
3 39 32 44
3 44 37 40
3 40 49 45
3 19 45 51
3 19 52 46
3 53 17 47
3 48 17 53
3 40 37 50
3 40 50 49
3 19 51 52
3 19 23 17
3 23 19 28
3 31 20 25
3 28 29 23
3 37 25 30
3 20 31 32
3 25 37 31
3 29 28 34
3 34 35 29
3 36 37 30
3 35 34 41
3 41 42 35
3 49 36 43
3 37 36 50
3 42 41 46
3 46 47 42
3 45 43 48
3 36 49 50
3 43 45 49
3 45 53 51
3 47 46 52
3 47 51 53
3 53 45 48
3 51 47 52
3 18 17 16
3 19 16 17
3 17 18 20
3 16 21 18
3 19 22 16
3 24 20 18
3 25 17 20
3 24 18 21
3 16 26 21
3 26 16 22
3 27 22 19
3 23 17 29
3 24 21 20
3 30 17 25
3 32 21 26
3 33 27 19
3 28 34 19
3 29 17 35
3 32 20 21
3 36 17 30
3 38 32 26
3 39 27 33
3 40 33 19
3 34 41 19
3 35 17 42
3 43 17 36
3 31 32 44
3 37 31 44
3 27 32 38
3 39 32 27
3 45 40 19
3 41 46 19
3 42 17 47
3 48 17 43
3 44 32 39
3 40 37 44
3 45 49 40
3 51 45 19
3 46 52 19
3 47 17 53
3 53 17 48
3 50 37 40
3 49 50 40
3 52 51 19
3 17 23 19
3 28 19 23
3 25 20 31
3 23 29 28
3 30 25 37
3 32 31 20
3 31 37 25
3 34 28 29
3 29 35 34
3 30 37 36
3 41 34 35
3 35 42 41
3 43 36 49
3 50 36 37
3 46 41 42
3 42 47 46
3 48 43 45
3 50 49 36
3 49 45 43
3 51 53 45
3 52 46 47
3 53 51 47
3 48 45 53
3 52 47 51
3 55 54 57
3 57 54 60
3 61 55 57
3 58 62 56
3 56 63 59
3 54 64 60
3 65 61 57
3 66 62 58
3 62 63 56
3 63 68 59
3 60 64 70
3 71 61 65
3 67 66 58
3 68 73 59
3 59 73 69
3 70 64 75
3 72 61 71
3 76 66 67
3 73 78 69
3 64 74 75
3 80 72 71
3 77 76 67
3 69 78 79
3 75 74 82
3 81 76 77
3 79 78 85
3 74 83 82
3 82 83 84
3 78 86 85
3 83 87 84
3 85 86 89
3 84 87 88
3 86 90 89
3 87 91 88
3 89 90 93
3 88 91 95
3 90 92 93
3 91 94 95
3 92 96 93
3 94 97 95
3 93 96 99
3 95 97 98
3 100 99 96
3 101 98 97
3 54 55 56
3 58 56 55
3 56 59 54
3 55 61 58
3 64 54 59
3 60 63 57
3 67 58 61
3 59 69 64
3 60 70 63
3 62 57 63
3 65 57 66
3 62 66 57
3 61 72 67
3 68 63 70
3 74 64 69
3 71 65 76
3 66 76 65
3 77 67 72
3 70 75 68
3 73 68 75
3 69 79 74
3 76 81 71
3 72 80 77
3 75 82 73
3 78 73 82
3 83 74 79
3 80 71 81
3 81 77 80
3 82 84 78
3 79 85 83
3 86 78 84
3 87 83 85
3 84 88 86
3 85 89 87
3 90 86 88
3 91 87 89
3 90 88 92
3 91 89 94
3 95 92 88
3 93 94 89
3 92 95 96
3 94 93 97
3 98 96 95
3 99 97 93
3 96 98 100
3 97 99 101
3 101 100 98
3 100 101 99
3 57 54 55
3 60 54 57
3 57 55 61
3 56 62 58
3 59 63 56
3 60 64 54
3 57 61 65
3 58 62 66
3 56 63 62
3 59 68 63
3 70 64 60
3 65 61 71
3 58 66 67
3 59 73 68
3 69 73 59
3 75 64 70
3 71 61 72
3 67 66 76
3 69 78 73
3 75 74 64
3 71 72 80
3 67 76 77
3 79 78 69
3 82 74 75
3 77 76 81
3 85 78 79
3 82 83 74
3 84 83 82
3 85 86 78
3 84 87 83
3 89 86 85
3 88 87 84
3 89 90 86
3 88 91 87
3 93 90 89
3 95 91 88
3 93 92 90
3 95 94 91
3 93 96 92
3 95 97 94
3 99 96 93
3 98 97 95
3 96 99 100
3 97 98 101
3 56 55 54
3 55 56 58
3 54 59 56
3 58 61 55
3 59 54 64
3 57 63 60
3 61 58 67
3 64 69 59
3 63 70 60
3 63 57 62
3 66 57 65
3 57 66 62
3 67 72 61
3 70 63 68
3 69 64 74
3 76 65 71
3 65 76 66
3 72 67 77
3 68 75 70
3 75 68 73
3 74 79 69
3 71 81 76
3 77 80 72
3 73 82 75
3 82 73 78
3 79 74 83
3 81 71 80
3 80 77 81
3 78 84 82
3 83 85 79
3 84 78 86
3 85 83 87
3 86 88 84
3 87 89 85
3 88 86 90
3 89 87 91
3 92 88 90
3 94 89 91
3 88 92 95
3 89 94 93
3 96 95 92
3 97 93 94
3 95 96 98
3 93 97 99
3 100 98 96
3 101 99 97
3 98 100 101
3 99 101 100
3 103 102 105
3 105 102 108
3 109 103 105
3 106 110 104
3 104 111 107
3 102 112 108
3 113 109 105
3 114 110 106
3 110 111 104
3 111 116 107
3 108 112 118
3 119 109 113
3 115 114 106
3 116 121 107
3 107 121 117
3 118 112 123
3 120 109 119
3 124 114 115
3 121 126 117
3 112 122 123
3 128 120 119
3 125 124 115
3 117 126 127
3 123 122 130
3 129 124 125
3 127 126 133
3 122 131 130
3 130 131 132
3 126 134 133
3 131 135 132
3 133 134 137
3 132 135 136
3 134 138 137
3 135 139 136
3 137 138 141
3 136 139 143
3 138 140 141
3 139 142 143
3 140 144 141
3 142 145 143
3 141 144 147
3 143 145 146
3 148 147 144
3 149 146 145
3 102 103 104
3 106 104 103
3 104 107 102
3 103 109 106
3 112 102 107
3 108 111 105
3 115 106 109
3 107 117 112
3 108 118 111
3 110 105 111
3 113 105 114
3 110 114 105
3 109 120 115
3 116 111 118
3 122 112 117
3 119 113 124
3 114 124 113
3 125 115 120
3 118 123 116
3 121 116 123
3 117 127 122
3 124 129 119
3 120 128 125
3 123 130 121
3 126 121 130
3 131 122 127
3 128 119 129
3 129 125 128
3 130 132 126
3 127 133 131
3 134 126 132
3 135 131 133
3 132 136 134
3 133 137 135
3 138 134 136
3 139 135 137
3 138 136 140
3 139 137 142
3 143 140 136
3 141 142 137
3 140 143 144
3 142 141 145
3 146 144 143
3 147 145 141
3 144 146 148
3 145 147 149
3 149 148 146
3 148 149 147
3 105 102 103
3 108 102 105
3 105 103 109
3 104 110 106
3 107 111 104
3 108 112 102
3 105 109 113
3 106 110 114
3 104 111 110
3 107 116 111
3 118 112 108
3 113 109 119
3 106 114 115
3 107 121 116
3 117 121 107
3 123 112 118
3 119 109 120
3 115 114 124
3 117 126 121
3 123 122 112
3 119 120 128
3 115 124 125
3 127 126 117
3 130 122 123
3 125 124 129
3 133 126 127
3 130 131 122
3 132 131 130
3 133 134 126
3 132 135 131
3 137 134 133
3 136 135 132
3 137 138 134
3 136 139 135
3 141 138 137
3 143 139 136
3 141 140 138
3 143 142 139
3 141 144 140
3 143 145 142
3 147 144 141
3 146 145 143
3 144 147 148
3 145 146 149
3 104 103 102
3 103 104 106
3 102 107 104
3 106 109 103
3 107 102 112
3 105 111 108
3 109 106 115
3 112 117 107
3 111 118 108
3 111 105 110
3 114 105 113
3 105 114 110
3 115 120 109
3 118 111 116
3 117 112 122
3 124 113 119
3 113 124 114
3 120 115 125
3 116 123 118
3 123 116 121
3 122 127 117
3 119 129 124
3 125 128 120
3 121 130 123
3 130 121 126
3 127 122 131
3 129 119 128
3 128 125 129
3 126 132 130
3 131 133 127
3 132 126 134
3 133 131 135
3 134 136 132
3 135 137 133
3 136 134 138
3 137 135 139
3 140 136 138
3 142 137 139
3 136 140 143
3 137 142 141
3 144 143 140
3 145 141 142
3 143 144 146
3 141 145 147
3 148 146 144
3 149 147 145
3 146 148 149
3 147 149 148
3 150 151 152
3 151 150 153
3 151 154 152
3 154 150 152
3 155 153 150
3 153 156 151
3 154 151 156
3 150 154 155
3 153 155 157
3 156 153 157
3 156 155 154
3 155 156 157
3 152 151 150
3 153 150 151
3 152 154 151
3 152 150 154
3 150 153 155
3 151 156 153
3 156 151 154
3 155 154 150
3 157 155 153
3 157 153 156
3 154 155 156
3 157 156 155
3 158 159 160
3 161 160 159
3 160 159 158
3 159 160 161
3 162 163 164
3 163 162 165
3 164 163 162
3 165 162 163
3 163 166 164
3 162 164 167
3 168 165 162
3 162 165 168
3 169 163 165
3 165 163 169
3 166 163 170
3 171 164 166
3 171 167 164
3 168 172 165
3 168 162 173
3 174 163 169
3 169 163 174
3 169 165 175
3 174 170 163
3 170 175 166
3 166 167 171
3 172 168 176
3 177 165 172
3 162 173 162
3 173 176 168
3 178 174 169
3 169 174 178
3 177 175 165
3 169 175 178
3 170 174 179
3 180 175 170
3 175 177 166
3 166 177 167
3 172 167 177
3 181 174 178
3 178 174 181
3 180 178 175
3 182 179 174
3 170 179 183
3 183 180 170
3 182 174 181
3 181 174 182
3 178 180 181
3 182 181 179
3 183 179 181
3 183 181 180
3 164 166 163
3 167 164 162
3 170 163 166
3 166 164 171
3 164 167 171
3 165 172 168
3 173 162 168
3 175 165 169
3 163 170 174
3 166 175 170
3 171 167 166
3 176 168 172
3 172 165 177
3 162 173 162
3 168 176 173
3 165 175 177
3 178 175 169
3 179 174 170
3 170 175 180
3 166 177 175
3 167 177 166
3 177 167 172
3 175 178 180
3 174 179 182
3 183 179 170
3 170 180 183
3 181 180 178
3 179 181 182
3 181 179 183
3 180 181 183
3 184 185 186
3 184 187 185
3 188 186 185
3 184 186 187
3 189 185 187
3 186 188 190
3 185 189 188
3 190 187 186
3 187 190 189
3 191 190 188
3 191 188 189
3 191 189 190
3 186 185 184
3 185 187 184
3 185 186 188
3 187 186 184
3 187 185 189
3 190 188 186
3 188 189 185
3 186 187 190
3 189 190 187
3 188 190 191
3 189 188 191
3 190 189 191
3 192 193 194
3 195 194 193
3 194 193 192
3 193 194 195
3 196 197 198
3 196 199 197
3 200 198 197
3 201 197 199
3 200 202 198
3 200 197 202
3 201 202 197
3 201 199 202
3 203 198 202
3 203 202 199
3 198 197 196
3 197 199 196
3 197 198 200
3 199 197 201
3 198 202 200
3 202 197 200
3 197 202 201
3 202 199 201
3 202 198 203
3 199 202 203
3 204 205 206
3 207 206 205
3 206 205 204
3 205 206 207
3 208 209 210
3 208 211 209
3 212 210 209
3 213 209 211
3 212 214 210
3 212 209 214
3 213 214 209
3 213 211 214
3 215 210 214
3 215 214 211
3 210 209 208
3 209 211 208
3 209 210 212
3 211 209 213
3 210 214 212
3 214 209 212
3 209 214 213
3 214 211 213
3 214 210 215
3 211 214 215
3 216 217 218
3 219 218 217
3 218 217 216
3 217 218 219
3 220 221 222
3 220 223 221
3 224 222 221
3 225 221 223
3 224 226 222
3 224 221 226
3 225 226 221
3 225 223 226
3 227 222 226
3 227 226 223
3 222 221 220
3 221 223 220
3 221 222 224
3 223 221 225
3 222 226 224
3 226 221 224
3 221 226 225
3 226 223 225
3 226 222 227
3 223 226 227
3 228 229 230
3 231 230 229
3 230 229 228
3 229 230 231
3 232 233 234
3 232 235 233
3 236 234 233
3 237 233 235
3 236 238 234
3 236 233 238
3 237 238 233
3 237 235 238
3 239 234 238
3 239 238 235
3 234 233 232
3 233 235 232
3 233 234 236
3 235 233 237
3 234 238 236
3 238 233 236
3 233 238 237
3 238 235 237
3 238 234 239
3 235 238 239
3 240 241 242
3 243 242 241
3 242 241 240
3 241 242 243
3 244 245 246
3 244 247 245
3 248 246 245
3 249 245 247
3 248 250 246
3 248 245 250
3 249 250 245
3 249 247 250
3 251 246 250
3 251 250 247
3 246 245 244
3 245 247 244
3 245 246 248
3 247 245 249
3 246 250 248
3 250 245 248
3 245 250 249
3 250 247 249
3 250 246 251
3 247 250 251
3 252 253 254
3 255 254 253
3 254 253 252
3 253 254 255
3 256 257 258
3 256 259 257
3 260 258 257
3 261 257 259
3 260 262 258
3 260 257 262
3 261 262 257
3 261 259 262
3 263 258 262
3 263 262 259
3 258 257 256
3 257 259 256
3 257 258 260
3 259 257 261
3 258 262 260
3 262 257 260
3 257 262 261
3 262 259 261
3 262 258 263
3 259 262 263
3 264 265 266
3 267 266 265
3 266 265 264
3 265 266 267
3 268 269 270
3 268 271 269
3 272 270 269
3 273 269 271
3 272 274 270
3 272 269 274
3 273 274 269
3 273 271 274
3 275 270 274
3 275 274 271
3 270 269 268
3 269 271 268
3 269 270 272
3 271 269 273
3 270 274 272
3 274 269 272
3 269 274 273
3 274 271 273
3 274 270 275
3 271 274 275
3 276 277 278
3 279 278 277
3 278 277 276
3 277 278 279
3 280 281 282
3 280 283 281
3 284 282 281
3 285 281 283
3 284 286 282
3 284 281 286
3 285 286 281
3 285 283 286
3 287 282 286
3 287 286 283
3 282 281 280
3 281 283 280
3 281 282 284
3 283 281 285
3 282 286 284
3 286 281 284
3 281 286 285
3 286 283 285
3 286 282 287
3 283 286 287
3 288 289 290
3 291 290 289
3 290 289 288
3 289 290 291
3 292 293 294
3 292 295 293
3 296 294 293
3 297 293 295
3 296 298 294
3 296 293 298
3 297 298 293
3 297 295 298
3 299 294 298
3 299 298 295
3 294 293 292
3 293 295 292
3 293 294 296
3 295 293 297
3 294 298 296
3 298 293 296
3 293 298 297
3 298 295 297
3 298 294 299
3 295 298 299
3 300 301 302
3 301 300 303
3 301 304 302
3 304 300 302
3 305 303 300
3 303 306 301
3 304 301 306
3 300 304 305
3 303 305 307
3 306 303 307
3 306 305 304
3 305 306 307
3 302 301 300
3 303 300 301
3 302 304 301
3 302 300 304
3 300 303 305
3 301 306 303
3 306 301 304
3 305 304 300
3 307 305 303
3 307 303 306
3 304 305 306
3 307 306 305
3 312 310 309
3 308 314 311
3 316 310 312
3 312 309 317
3 313 319 308
3 308 319 314
3 311 314 320
3 317 309 315
3 316 318 310
3 313 323 319
3 311 320 321
3 317 315 325
3 326 318 316
3 322 323 313
3 321 320 328
3 325 315 324
3 326 327 318
3 322 331 323
3 321 328 329
3 325 324 333
3 334 327 326
3 330 331 322
3 329 328 336
3 333 324 332
3 334 335 327
3 330 338 331
3 339 335 334
3 337 338 330
3 339 340 335
3 337 342 338
3 343 340 339
3 341 342 337
3 343 344 340
3 341 346 342
3 347 344 343
3 347 345 344
3 348 346 341
3 351 345 347
3 348 349 346
3 351 350 345
3 353 349 348
3 353 352 349
3 350 351 354
3 352 353 355
3 308 309 310
3 309 308 311
3 310 313 308
3 311 315 309
3 313 310 318
3 315 311 321
3 319 316 312
3 314 312 317
3 318 322 313
3 312 314 319
3 317 320 314
3 321 324 315
3 316 319 323
3 322 318 327
3 320 317 325
3 324 321 329
3 323 326 316
3 327 330 322
3 325 328 320
3 329 332 324
3 326 323 331
3 330 327 335
3 328 325 333
3 332 329 336
3 331 334 326
3 335 337 330
3 333 336 328
3 336 333 332
3 334 331 338
3 337 335 340
3 338 339 334
3 340 341 337
3 339 338 342
3 341 340 344
3 342 343 339
3 345 341 344
3 343 342 346
3 341 345 348
3 343 349 347
3 349 343 346
3 350 348 345
3 352 347 349
3 348 350 353
3 347 352 351
3 354 353 350
3 355 351 352
3 353 354 355
3 351 355 354
3 309 310 312
3 311 314 308
3 312 310 316
3 317 309 312
3 308 319 313
3 314 319 308
3 320 314 311
3 315 309 317
3 310 318 316
3 319 323 313
3 321 320 311
3 325 315 317
3 316 318 326
3 313 323 322
3 328 320 321
3 324 315 325
3 318 327 326
3 323 331 322
3 329 328 321
3 333 324 325
3 326 327 334
3 322 331 330
3 336 328 329
3 332 324 333
3 327 335 334
3 331 338 330
3 334 335 339
3 330 338 337
3 335 340 339
3 338 342 337
3 339 340 343
3 337 342 341
3 340 344 343
3 342 346 341
3 343 344 347
3 344 345 347
3 341 346 348
3 347 345 351
3 346 349 348
3 345 350 351
3 348 349 353
3 349 352 353
3 354 351 350
3 355 353 352
3 310 309 308
3 311 308 309
3 308 313 310
3 309 315 311
3 318 310 313
3 321 311 315
3 312 316 319
3 317 312 314
3 313 322 318
3 319 314 312
3 314 320 317
3 315 324 321
3 323 319 316
3 327 318 322
3 325 317 320
3 329 321 324
3 316 326 323
3 322 330 327
3 320 328 325
3 324 332 329
3 331 323 326
3 335 327 330
3 333 325 328
3 336 329 332
3 326 334 331
3 330 337 335
3 328 336 333
3 332 333 336
3 338 331 334
3 340 335 337
3 334 339 338
3 337 341 340
3 342 338 339
3 344 340 341
3 339 343 342
3 344 341 345
3 346 342 343
3 348 345 341
3 347 349 343
3 346 343 349
3 345 348 350
3 349 347 352
3 353 350 348
3 351 352 347
3 350 353 354
3 352 351 355
3 355 354 353
3 354 355 351
3 360 358 357
3 356 362 359
3 364 358 360
3 360 357 365
3 361 367 356
3 356 367 362
3 359 362 368
3 365 357 363
3 364 366 358
3 361 371 367
3 359 368 369
3 365 363 373
3 374 366 364
3 370 371 361
3 369 368 376
3 373 363 372
3 374 375 366
3 370 379 371
3 369 376 377
3 373 372 381
3 382 375 374
3 378 379 370
3 377 376 384
3 381 372 380
3 382 383 375
3 378 386 379
3 387 383 382
3 385 386 378
3 387 388 383
3 385 390 386
3 391 388 387
3 389 390 385
3 391 392 388
3 389 394 390
3 395 392 391
3 395 393 392
3 396 394 389
3 399 393 395
3 396 397 394
3 399 398 393
3 401 397 396
3 401 400 397
3 398 399 402
3 400 401 403
3 356 357 358
3 357 356 359
3 358 361 356
3 359 363 357
3 361 358 366
3 363 359 369
3 367 364 360
3 362 360 365
3 366 370 361
3 360 362 367
3 365 368 362
3 369 372 363
3 364 367 371
3 370 366 375
3 368 365 373
3 372 369 377
3 371 374 364
3 375 378 370
3 373 376 368
3 377 380 372
3 374 371 379
3 378 375 383
3 376 373 381
3 380 377 384
3 379 382 374
3 383 385 378
3 381 384 376
3 384 381 380
3 382 379 386
3 385 383 388
3 386 387 382
3 388 389 385
3 387 386 390
3 389 388 392
3 390 391 387
3 393 389 392
3 391 390 394
3 389 393 396
3 391 397 395
3 397 391 394
3 398 396 393
3 400 395 397
3 396 398 401
3 395 400 399
3 402 401 398
3 403 399 400
3 401 402 403
3 399 403 402
3 357 358 360
3 359 362 356
3 360 358 364
3 365 357 360
3 356 367 361
3 362 367 356
3 368 362 359
3 363 357 365
3 358 366 364
3 367 371 361
3 369 368 359
3 373 363 365
3 364 366 374
3 361 371 370
3 376 368 369
3 372 363 373
3 366 375 374
3 371 379 370
3 377 376 369
3 381 372 373
3 374 375 382
3 370 379 378
3 384 376 377
3 380 372 381
3 375 383 382
3 379 386 378
3 382 383 387
3 378 386 385
3 383 388 387
3 386 390 385
3 387 388 391
3 385 390 389
3 388 392 391
3 390 394 389
3 391 392 395
3 392 393 395
3 389 394 396
3 395 393 399
3 394 397 396
3 393 398 399
3 396 397 401
3 397 400 401
3 402 399 398
3 403 401 400
3 358 357 356
3 359 356 357
3 356 361 358
3 357 363 359
3 366 358 361
3 369 359 363
3 360 364 367
3 365 360 362
3 361 370 366
3 367 362 360
3 362 368 365
3 363 372 369
3 371 367 364
3 375 366 370
3 373 365 368
3 377 369 372
3 364 374 371
3 370 378 375
3 368 376 373
3 372 380 377
3 379 371 374
3 383 375 378
3 381 373 376
3 384 377 380
3 374 382 379
3 378 385 383
3 376 384 381
3 380 381 384
3 386 379 382
3 388 383 385
3 382 387 386
3 385 389 388
3 390 386 387
3 392 388 389
3 387 391 390
3 392 389 393
3 394 390 391
3 396 393 389
3 395 397 391
3 394 391 397
3 393 396 398
3 397 395 400
3 401 398 396
3 399 400 395
3 398 401 402
3 400 399 403
3 403 402 401
3 402 403 399
3 404 405 406
3 405 404 407
3 409 404 406
3 404 410 407
3 407 408 405
3 411 404 409
3 410 404 412
3 410 413 407
3 407 414 408
3 415 404 411
3 416 412 404
3 412 417 410
3 413 410 417
3 407 413 418
3 407 419 414
3 420 404 415
3 412 416 421
3 416 404 422
3 417 412 421
3 407 418 423
3 407 424 419
3 425 404 420
3 422 404 426
3 407 423 427
3 407 428 424
3 429 404 425
3 426 404 430
3 407 427 431
3 407 432 428
3 433 404 429
3 430 404 433
3 407 431 432
3 408 406 405
3 406 408 409
3 414 409 408
3 409 414 411
3 414 415 411
3 421 413 417
3 413 422 418
3 415 414 419
3 415 424 420
3 413 421 416
3 422 413 416
3 422 423 418
3 424 415 419
3 424 425 420
3 423 422 426
3 426 427 423
3 425 424 428
3 425 432 429
3 427 426 430
3 427 433 431
3 432 425 428
3 432 433 429
3 433 427 430
3 433 432 431
3 406 405 404
3 407 404 405
3 406 404 409
3 407 410 404
3 405 408 407
3 409 404 411
3 412 404 410
3 407 413 410
3 408 414 407
3 411 404 415
3 404 412 416
3 410 417 412
3 417 410 413
3 418 413 407
3 414 419 407
3 415 404 420
3 421 416 412
3 422 404 416
3 421 412 417
3 423 418 407
3 419 424 407
3 420 404 425
3 426 404 422
3 427 423 407
3 424 428 407
3 425 404 429
3 430 404 426
3 431 427 407
3 428 432 407
3 429 404 433
3 433 404 430
3 432 431 407
3 405 406 408
3 409 408 406
3 408 409 414
3 411 414 409
3 411 415 414
3 417 413 421
3 418 422 413
3 419 414 415
3 420 424 415
3 416 421 413
3 416 413 422
3 418 423 422
3 419 415 424
3 420 425 424
3 426 422 423
3 423 427 426
3 428 424 425
3 429 432 425
3 430 426 427
3 431 433 427
3 428 425 432
3 429 433 432
3 430 427 433
3 431 432 433
3 434 435 436
3 435 434 437
3 436 435 434
3 437 434 435
3 438 439 440
3 439 438 441
3 439 442 440
3 438 443 441
3 442 439 444
3 443 438 445
3 444 445 442
3 445 444 443
3 440 439 438
3 441 438 439
3 440 442 439
3 441 443 438
3 444 439 442
3 445 438 443
3 442 445 444
3 443 444 445
3 446 447 448
3 447 446 449
3 448 447 446
3 449 446 447
3 450 451 452
3 451 450 453
3 451 454 452
3 450 455 453
3 455 451 453
3 454 451 456
3 455 450 457
3 451 455 456
3 455 454 456
3 454 455 457
3 452 451 450
3 453 450 451
3 452 454 451
3 453 455 450
3 453 451 455
3 456 451 454
3 457 450 455
3 456 455 451
3 456 454 455
3 457 455 454
3 458 459 460
3 459 458 461
3 460 459 458
3 461 458 459
3 462 463 464
3 463 462 465
3 463 466 464
3 462 467 465
3 467 463 465
3 466 463 468
3 467 462 469
3 463 467 468
3 467 466 468
3 466 467 469
3 464 463 462
3 465 462 463
3 464 466 463
3 465 467 462
3 465 463 467
3 468 463 466
3 469 462 467
3 468 467 463
3 468 466 467
3 469 467 466
3 470 471 472
3 471 470 473
3 472 471 470
3 473 470 471
3 474 475 476
3 475 474 477
3 475 478 476
3 474 479 477
3 479 475 477
3 478 475 480
3 479 474 481
3 475 479 480
3 479 478 480
3 478 479 481
3 476 475 474
3 477 474 475
3 476 478 475
3 477 479 474
3 477 475 479
3 480 475 478
3 481 474 479
3 480 479 475
3 480 478 479
3 481 479 478
3 482 483 484
3 483 482 485
3 484 483 482
3 485 482 483
3 486 487 488
3 487 486 489
3 487 490 488
3 486 491 489
3 491 487 489
3 490 487 492
3 491 486 493
3 487 491 492
3 491 490 492
3 490 491 493
3 488 487 486
3 489 486 487
3 488 490 487
3 489 491 486
3 489 487 491
3 492 487 490
3 493 486 491
3 492 491 487
3 492 490 491
3 493 491 490
3 494 495 496
3 495 494 497
3 496 495 494
3 497 494 495
3 498 499 500
3 499 498 501
3 499 502 500
3 498 503 501
3 503 499 501
3 502 499 504
3 503 498 505
3 499 503 504
3 503 502 504
3 502 503 505
3 500 499 498
3 501 498 499
3 500 502 499
3 501 503 498
3 501 499 503
3 504 499 502
3 505 498 503
3 504 503 499
3 504 502 503
3 505 503 502
3 506 507 508
3 507 506 509
3 508 507 506
3 509 506 507
3 510 511 512
3 511 510 513
3 511 514 512
3 510 515 513
3 515 511 513
3 514 511 516
3 515 510 517
3 511 515 516
3 515 514 516
3 514 515 517
3 512 511 510
3 513 510 511
3 512 514 511
3 513 515 510
3 513 511 515
3 516 511 514
3 517 510 515
3 516 515 511
3 516 514 515
3 517 515 514
3 518 519 520
3 519 518 521
3 520 519 518
3 521 518 519
3 522 523 524
3 523 522 525
3 523 526 524
3 522 527 525
3 527 523 525
3 526 523 528
3 527 522 529
3 523 527 528
3 527 526 528
3 526 527 529
3 524 523 522
3 525 522 523
3 524 526 523
3 525 527 522
3 525 523 527
3 528 523 526
3 529 522 527
3 528 527 523
3 528 526 527
3 529 527 526
3 530 531 532
3 531 530 533
3 532 531 530
3 533 530 531
3 534 535 536
3 535 534 537
3 535 538 536
3 534 539 537
3 539 535 537
3 538 535 540
3 539 534 541
3 535 539 540
3 539 538 540
3 538 539 541
3 536 535 534
3 537 534 535
3 536 538 535
3 537 539 534
3 537 535 539
3 540 535 538
3 541 534 539
3 540 539 535
3 540 538 539
3 541 539 538
3 542 543 544
3 543 542 545
3 544 543 542
3 545 542 543
3 546 547 548
3 547 546 549
3 547 550 548
3 546 551 549
3 551 547 549
3 550 547 552
3 551 546 553
3 547 551 552
3 551 550 552
3 550 551 553
3 548 547 546
3 549 546 547
3 548 550 547
3 549 551 546
3 549 547 551
3 552 547 550
3 553 546 551
3 552 551 547
3 552 550 551
3 553 551 550
3 554 555 556
3 555 554 557
3 555 558 556
3 558 554 556
3 554 559 557
3 558 555 560
3 554 558 561
3 559 554 561
3 560 561 558
3 561 560 559
3 556 555 554
3 557 554 555
3 556 558 555
3 556 554 558
3 557 559 554
3 560 555 558
3 561 558 554
3 561 554 559
3 558 561 560
3 559 560 561
