ply
format ascii 1.0
comment Generated by PyMesh
element vertex 606
property double x
property double y
property double z
element face 2398
property list uchar int vertex_indices
end_header
-0.285421 0.182529 -0.0818287
-0.221325 0.181081 -0.156918
-0.285629 0.181081 -0.0818734
-0.221148 0.182529 -0.156837
-0.221262 0.179627 -0.156889
-0.307707 0.182529 2.50254e-07
-0.284933 0.183942 -0.0817249
-0.121364 0.181081 -0.219891
-0.285555 0.179627 -0.0818572
-0.121315 0.179627 -0.219852
-0.307927 0.181081 2.50254e-07
-0.307191 0.183942 2.50254e-07
-0.220735 0.183942 -0.156647
-0.121229 0.182529 -0.219784
-0.172562 -0.204233 -0.134489
-0.0841353 -0.204233 -0.190197
-0.285421 0.182529 0.0818287
-0.284933 0.183942 0.0817249
-0.284176 0.185292 -0.0815631
-0.30639 0.185292 2.50254e-07
0.00629971 0.181081 -0.267244
-0.22815 -0.204233 -0.0696173
-0.307848 0.179627 2.50254e-07
0.00633168 0.179627 -0.2672
-0.285629 0.181081 0.0818735
-0.284176 0.185292 0.0815636
-0.220092 0.185292 -0.156351
-0.120913 0.183942 -0.219531
0.00638972 0.182529 -0.26712
-0.164587 -0.204233 -0.128813
-0.0784056 -0.204233 -0.183104
0.0311061 -0.204233 -0.232943
-0.221148 0.182529 0.156837
-0.220735 0.183942 0.156646
-0.220092 0.185292 0.156351
-0.283164 0.186554 -0.0813476
-0.305319 0.186554 2.50254e-07
-0.283164 0.186554 0.0813472
0.152964 0.181081 -0.296611
-0.218132 -0.204233 -0.0663243
-0.24711 -0.204233 2.50254e-07
0.0347625 -0.204233 -0.225081
-0.285555 0.179627 0.0818572
0.152981 0.179627 -0.296563
-0.221325 0.181081 0.156918
-0.219233 0.186554 0.155956
-0.219233 0.186554 -0.155956
-0.120423 0.185292 -0.21914
0.00660024 0.183942 -0.266829
0.153009 0.182529 -0.296478
-0.164587 -0.250003 -0.128813
-0.0784056 -0.250003 -0.183104
0.165308 -0.204233 -0.259813
0.167083 -0.204233 -0.251576
-0.121229 0.182529 0.219783
-0.120913 0.183942 0.219531
-0.119767 0.186554 0.218617
-0.281916 0.187701 -0.0810816
-0.303998 0.187701 2.50254e-07
-0.281916 0.187701 0.0810816
-0.218175 0.187701 0.155469
0.275867 0.182529 -0.304297
0.275867 0.181081 -0.304433
-0.236195 -0.204233 2.50254e-07
-0.218132 -0.250003 -0.0663243
-0.22815 -0.204233 0.0696163
0.0347625 -0.250003 -0.225081
-0.221262 0.179627 0.156889
0.275867 0.179627 -0.304384
-0.121364 0.181081 0.219891
-0.120423 0.185292 0.21914
-0.118959 0.187701 0.217973
-0.218175 0.187701 -0.155469
-0.119767 0.186554 -0.218617
0.00692683 0.185292 -0.266378
0.153113 0.183942 -0.296166
0.275867 0.183942 -0.303978
-0.218132 -0.204233 0.0663239
-0.0996298 -0.250003 -0.102952
-0.0280915 -0.250003 -0.148019
-0.172562 -0.204233 0.134489
0.0686098 -0.250003 -0.183888
0.275867 -0.204233 -0.26685
0.265189 -0.204233 -0.25782
0.167083 -0.250003 -0.251576
0.00629971 0.181081 0.267244
0.00638972 0.182529 0.26712
0.00660024 0.183942 0.266829
0.00692683 0.185292 0.266377
0.00736409 0.186554 0.265773
-0.216937 0.188714 -0.1549
-0.118959 0.187701 -0.217973
-0.280457 0.188714 -0.0807707
-0.280457 0.188714 0.0807702
-0.216937 0.188714 0.1549
-0.118014 0.188714 0.217219
0.275867 0.184024 -0.236169
0.275867 0.180802 -0.232503
-0.236195 -0.250003 2.50254e-07
-0.142798 -0.250003 -0.0525735
-0.164587 -0.204233 0.128812
0.184012 -0.250003 -0.206995
-0.121315 0.179627 0.219852
0.275867 -0.204233 -0.20449
0.265189 -0.250003 -0.25782
0.00790218 0.187701 0.265029
-0.118014 0.188714 -0.21722
-0.302456 0.188714 2.50254e-07
0.00736409 0.186554 -0.265773
0.153276 0.185292 -0.295681
0.275867 0.185292 -0.303483
0.00853176 0.188714 0.264158
0.275867 0.177085 -0.229249
-0.218132 -0.250003 0.0663239
-0.157116 -0.250003 2.50254e-07
-0.142798 -0.204233 -0.0525735
-0.0280915 -0.204233 -0.148019
-0.164587 -0.250003 0.128812
-0.0784056 -0.204233 0.183104
0.265189 -0.250003 -0.212161
0.0686098 -0.204233 -0.183888
-0.0841353 -0.204233 0.190196
0.275867 0.153514 -0.220789
0.265189 -0.204233 -0.212161
0.152964 0.181081 0.296611
0.00633168 0.179627 0.2672
0.153009 0.182529 0.296477
0.153113 0.183942 0.296165
0.153276 0.185292 0.295681
0.153494 0.186554 0.295033
-0.215545 0.18957 -0.15426
-0.116952 0.18957 -0.216372
0.00853176 0.188714 -0.264159
-0.278817 0.18957 -0.0804205
0.00790218 0.187701 -0.265029
-0.278817 0.18957 0.0804205
-0.215545 0.18957 0.15426
-0.116952 0.18957 0.216372
0.00924004 0.18957 0.263179
0.175384 0.184024 -0.229774
0.275867 0.172937 -0.226462
0.176588 0.180802 -0.226185
-0.142798 -0.250003 0.0525735
-0.0996298 -0.204233 -0.102952
0.184012 -0.204233 -0.206995
0.275867 0.158634 -0.221328
0.180435 0.153514 -0.214716
0.153761 0.187701 0.294234
0.154075 0.188714 0.2933
0.00924004 0.18957 -0.263179
-0.30072 0.18957 2.50254e-07
0.153494 0.186554 -0.295033
0.275867 0.186554 -0.302821
0.275867 0.186698 -0.240184
0.154427 0.18957 0.292249
0.174065 0.186698 -0.233706
0.275867 0.168427 -0.224189
0.177657 0.177085 -0.222999
-0.0996298 -0.250003 0.102951
-0.157116 -0.204233 2.50254e-07
-0.0916538 -0.204233 -0.097275
-0.0223628 -0.204233 -0.140926
0.0722657 -0.204233 -0.176027
-0.0784056 -0.250003 0.183104
0.0347625 -0.204233 0.225081
0.185788 -0.204233 -0.198758
0.0311061 -0.204233 0.232943
0.275867 0.163632 -0.222468
0.180258 0.158634 -0.215244
0.182192 0.0360601 -0.209477
0.275867 0.181081 0.304433
0.152981 0.179627 0.296563
0.275867 0.182529 0.304296
0.275867 0.183942 0.303977
0.275867 0.185292 0.303483
0.275867 0.186554 0.302821
-0.214027 0.190255 -0.153561
-0.115791 0.190255 -0.215446
0.0100127 0.190255 -0.26211
0.154075 0.188714 -0.293301
0.154427 0.18957 -0.29225
-0.277026 0.190255 -0.0800388
0.153761 0.187701 -0.294235
-0.277026 0.190255 0.0800383
-0.214027 0.190255 0.153561
-0.115791 0.190255 0.215446
0.0100127 0.190255 0.26211
0.154812 0.190255 0.291103
0.0513569 0.184024 -0.20494
0.0487062 0.186698 -0.208605
0.178572 0.172937 -0.22027
0.0537768 0.180802 -0.201594
-0.142798 -0.204233 0.0525735
-0.0280915 -0.250003 0.148019
-0.1462 -0.204233 2.50254e-07
-0.132779 -0.204233 -0.0492805
0.0347625 -0.250003 0.225081
0.179883 0.163632 -0.216359
0.0615078 0.153514 -0.190904
0.275867 0.179627 0.304384
0.275867 0.187701 0.302005
0.275867 0.188714 0.301051
0.275867 0.18957 0.299979
0.154812 0.190255 -0.291103
-0.298825 0.190255 2.50254e-07
0.275867 0.187701 -0.302005
0.172653 0.188779 -0.237914
0.275867 0.190255 0.298807
0.0458697 0.188779 -0.212528
0.179318 0.168427 -0.218044
0.0577638 0.172937 -0.19608
0.0559238 0.177085 -0.198625
-0.0996298 -0.204233 0.102951
-0.132779 -0.204233 0.0492805
-0.149523 0.0360601 -0.0528509
-0.0332083 0.0360601 -0.149577
0.0650398 0.0360601 -0.18602
0.0686098 -0.250003 0.183888
0.184012 -0.250003 0.206994
0.167083 -0.204233 0.251576
0.167083 -0.250003 0.251576
0.165308 -0.204233 0.259813
0.0611522 0.158634 -0.191395
0.275867 0.184024 0.236169
0.275867 0.180802 0.232502
0.275867 -0.204233 0.26685
0.275867 0.186698 0.240184
-0.212409 0.190753 -0.152817
-0.114557 0.190753 -0.214462
0.0108356 0.190753 -0.260973
0.155221 0.190753 -0.289883
0.275867 0.188714 -0.301052
0.275867 0.18957 -0.299979
0.275867 0.190255 -0.298807
-0.275119 0.190753 -0.079632
-0.275119 0.190753 0.0796321
-0.212409 0.190753 0.152817
-0.114557 0.190753 0.214462
0.0108356 0.190753 0.260972
0.155221 0.190753 0.289883
0.275867 0.188779 -0.244482
0.275867 0.190753 0.297561
-0.0537429 0.184024 -0.165956
-0.0577215 0.186698 -0.169129
-0.061979 0.188779 -0.172524
0.059264 0.168427 -0.194006
-0.0501115 0.180802 -0.16306
-0.0916538 -0.204233 0.0972745
-0.0280915 -0.204233 0.148019
-0.163917 0.0360601 2.50254e-07
-0.105859 0.0360601 -0.103809
0.0686098 -0.204233 0.183888
0.265189 -0.250003 0.212161
0.0604002 0.163632 -0.192435
-0.038509 0.153514 -0.153805
0.275867 0.177085 0.229248
0.275867 0.153514 0.220789
0.275867 0.188779 0.244482
0.275867 0.190229 0.24899
0.275867 0.190753 -0.297561
-0.296807 0.190753 2.50254e-07
0.171173 0.190229 -0.242327
0.0428939 0.190229 -0.216642
0.275867 0.191026 0.253631
-0.0664436 0.190229 -0.176086
-0.044128 0.172937 -0.158287
-0.0418763 0.168427 -0.156491
-0.0468883 0.177085 -0.160489
-0.0223628 -0.204233 0.140926
-0.149523 0.0360601 0.0528509
-0.112802 0.153514 -0.107002
0.184012 -0.204233 0.206994
0.265189 -0.204233 0.212161
0.265189 -0.204233 0.257819
0.265189 -0.250003 0.257819
-0.0390427 0.158634 -0.154231
0.175384 0.184024 0.229774
0.275867 0.172937 0.226462
0.177657 0.177085 0.222999
0.275867 -0.204233 0.20449
0.275867 0.158634 0.221328
0.174065 0.186698 0.233706
0.172653 0.188779 0.237914
-0.210725 0.191056 -0.152042
-0.113271 0.191056 -0.213437
0.0116919 0.191056 -0.259788
0.155647 0.191056 -0.288613
0.275867 0.191056 -0.296263
0.275867 0.190229 -0.24899
0.275867 0.191026 -0.253632
-0.273135 0.191056 -0.0792095
-0.273135 0.191056 0.0792086
-0.210725 0.191056 0.152042
-0.113271 0.191056 0.213436
0.0116919 0.191056 0.259788
0.155647 0.191056 0.288612
0.275867 0.191056 0.296263
-0.132755 0.184024 -0.116181
-0.137966 0.186698 -0.118577
-0.143542 0.188779 -0.121141
-0.149391 0.190229 -0.123831
-0.0401715 0.163632 -0.155131
-0.127999 0.180802 -0.113992
-0.105859 0.0360601 0.103809
0.0722657 -0.204233 0.176027
-0.172577 0.153514 2.50254e-07
-0.157708 0.153514 -0.054596
0.185788 -0.204233 0.198757
0.176588 0.180802 0.226185
0.275867 0.168427 0.224189
0.178572 0.172937 0.22027
0.180435 0.153514 0.214716
0.275867 0.163632 0.222468
0.171173 0.190229 0.242327
0.169649 0.191026 0.246872
-0.294708 0.191056 2.50254e-07
0.169649 0.191026 -0.246872
0.0398311 0.191026 -0.220878
-0.071041 0.191026 -0.179753
0.275867 0.191157 0.258327
-0.155412 0.191026 -0.126601
-0.123778 0.177085 -0.11205
-0.117213 0.168427 -0.10903
-0.11498 0.163632 -0.108004
-0.0332083 0.0360601 0.149577
0.0650398 0.0360601 0.186019
-0.157708 0.153514 0.054596
-0.113501 0.158634 -0.107324
0.0513569 0.184024 0.204939
0.0487062 0.186698 0.208605
0.179318 0.168427 0.218044
0.0537768 0.180802 0.201594
0.0577638 0.172937 0.19608
0.182192 0.0360601 0.209477
0.180258 0.158634 0.215244
0.0458697 0.188779 0.212528
0.0428939 0.190229 0.216642
0.168106 0.191157 0.251469
-0.209008 0.191157 -0.151253
-0.11196 0.191157 -0.21239
0.0125655 0.191157 -0.25858
0.156082 0.191157 -0.287317
0.275867 0.191157 -0.294939
0.275867 0.191157 -0.258327
-0.27111 0.191157 -0.0787772
-0.27111 0.191157 0.0787772
-0.209008 0.191157 0.151252
-0.11196 0.191157 0.21239
0.0125655 0.191157 0.25858
0.156082 0.191157 0.287316
0.275867 0.191157 0.294939
-0.181229 0.184024 -0.059612
-0.18737 0.186698 -0.0609213
-0.193943 0.188779 -0.0623226
-0.200837 0.190229 -0.0637927
-0.207934 0.191026 -0.0653062
-0.120161 0.172937 -0.110387
-0.175622 0.180802 -0.0584158
-0.112802 0.153514 0.107002
0.0615078 0.153514 0.190903
-0.158532 0.158634 -0.0547721
-0.173449 0.158634 2.50254e-07
0.179883 0.163632 0.216359
0.059264 0.168427 0.194006
0.0559238 0.177085 0.198624
0.0398311 0.191026 0.220878
0.0367315 0.191157 0.225164
0.168106 0.191157 -0.251469
-0.292565 0.191157 2.50254e-07
0.0367315 0.191157 -0.225164
-0.075693 0.191157 -0.183463
-0.161505 0.191157 -0.129404
-0.215117 0.191157 -0.0668378
-0.166383 0.172937 -0.0564464
-0.162906 0.168427 -0.0557051
-0.160275 0.163632 -0.0551434
-0.170645 0.177085 -0.0573553
-0.038509 0.153514 0.153805
-0.158532 0.158634 0.0547716
-0.0537429 0.184024 0.165956
-0.0577215 0.186698 0.169129
-0.061979 0.188779 0.172524
0.0604002 0.163632 0.192435
-0.0501115 0.180802 0.16306
-0.044128 0.172937 0.158287
-0.0418763 0.168427 0.15649
0.0611522 0.158634 0.191395
-0.0664436 0.190229 0.176086
-0.071041 0.191026 0.179752
-0.215117 0.191157 0.0668378
-0.161505 0.191157 0.129403
-0.075693 0.191157 0.183463
-0.197463 0.184024 2.50254e-07
-0.203961 0.186698 2.50254e-07
-0.21821 0.190229 2.50254e-07
-0.23332 0.191157 2.50254e-07
-0.186265 0.177085 2.50254e-07
-0.113501 0.158634 0.107324
-0.175293 0.163632 2.50254e-07
-0.0401715 0.163632 0.155131
-0.0468883 0.177085 0.160488
-0.191531 0.180802 2.50254e-07
-0.210917 0.188779 2.50254e-07
-0.225721 0.191026 2.50254e-07
-0.181755 0.172937 2.50254e-07
-0.178077 0.168427 2.50254e-07
-0.0390427 0.158634 0.154231
-0.160275 0.163632 0.0551434
-0.132755 0.184024 0.11618
-0.137966 0.186698 0.118576
-0.143542 0.188779 0.121141
-0.149391 0.190229 0.123831
-0.127999 0.180802 0.113992
-0.123778 0.177085 0.11205
-0.120161 0.172937 0.110387
-0.117213 0.168427 0.10903
-0.155412 0.191026 0.126601
-0.207934 0.191026 0.0653062
-0.175622 0.180802 0.0584158
-0.181229 0.184024 0.059611
-0.18737 0.186698 0.0609213
-0.193943 0.188779 0.0623226
-0.200837 0.190229 0.0637928
-0.170645 0.177085 0.0573543
-0.166383 0.172937 0.0564459
-0.11498 0.163632 0.108003
-0.162906 0.168427 0.0557041
-0.065847 0.16903 0.124022
-0.1499 -0.034949 0.136003
-0.00954402 -0.010751 0.136003
-0.0711089 0.186689 0.122848
-0.00954402 -0.010751 -0.136003
-0.065847 0.16903 -0.124022
-0.0711089 0.186689 -0.122848
-0.0737423 0.193191 0.122407
-0.1499 -0.034949 -0.136003
-0.0737423 0.193191 -0.122408
-0.0801689 0.204399 0.121629
-0.234551 0.193308 0.120647
-0.0801689 0.204399 -0.121629
-0.0881031 0.214747 0.120889
-0.234551 0.193308 -0.120648
-0.214783 0.234184 0.118278
-0.0881031 0.214747 -0.120888
-0.0973977 0.224048 0.120199
-0.23389 0.199932 0.120235
-0.214783 0.234184 -0.118278
-0.20943 0.238338 0.118074
-0.219599 0.229482 0.118523
-0.0973977 0.224048 -0.120199
-0.107884 0.232129 0.119573
-0.23389 0.199932 -0.120235
-0.232465 0.206419 0.119841
-0.20943 0.238338 -0.118074
-0.219599 0.229482 -0.118523
-0.203605 0.241897 0.117912
-0.223822 0.224291 0.118805
-0.107884 0.232129 -0.119574
-0.119369 0.238844 0.119023
-0.232465 0.206419 -0.119841
-0.230294 0.21269 0.119468
-0.203605 0.241897 -0.117912
-0.223822 0.224291 -0.118806
-0.197377 0.244817 0.117795
-0.227402 0.218671 0.119121
-0.131643 0.244071 0.118559
-0.230294 0.21269 -0.119469
-0.197377 0.244817 -0.117796
-0.227402 0.218671 -0.119121
-0.19082 0.247064 0.117725
-0.119369 0.238844 -0.119024
-0.144482 0.247711 0.118189
-0.19082 0.247064 -0.117725
-0.184012 0.248612 0.117701
-0.131643 0.244071 -0.11856
-0.15765 0.249701 0.11792
-0.184012 0.248612 -0.117702
-0.170908 0.250003 0.117756
-0.144482 0.247711 -0.118189
-0.170908 0.250003 -0.117756
-0.15765 0.249701 -0.11792
0.205162 0.0229171 -0.216474
0.197557 0.0234267 -0.216175
0.205162 0.0229171 -0.216156
0.119219 -0.211776 -0.207245
0.229262 0.0205124 -0.216065
0.148814 -0.0270114 -0.21426
0.253239 0.0173272 -0.215944
0.229262 0.0205124 0.216065
0.148814 0.0253887 -0.21426
0.180972 0.0245378 -0.215524
0.255944 0.016855 -0.215926
0.253239 0.0173272 0.215944
0.205162 0.0229171 0.216156
0.132463 0.0254202 -0.210385
0.156727 0.0253725 -0.214571
0.258613 0.0162534 -0.215903
0.255944 0.016855 0.215926
0.180972 0.0245378 0.215524
0.119219 -0.211776 0.207245
0.108214 0.0246809 -0.204636
0.156727 0.0253725 0.214571
0.261238 0.0155235 -0.215875
0.258613 0.0162534 0.215903
0.197557 0.0234267 0.216175
0.0454472 -0.211776 -0.189757
0.108214 0.0246809 0.204636
0.132463 0.0254202 0.210385
0.148814 0.0253887 0.21426
0.263811 0.0146682 -0.215843
0.261238 0.0155235 0.215875
0.148814 -0.0270114 0.21426
0.275867 -0.211776 -0.207245
0.0840152 0.0231547 -0.198899
0.0840152 0.0231547 0.198899
0.266323 0.0136904 -0.215806
0.263811 0.0146682 0.215842
-0.040717 -0.211776 -0.151919
0.27561 0.00861735 -0.215613
0.0599024 0.0208449 -0.193183
0.0454472 -0.211776 0.189757
0.268767 0.0125921 -0.215764
0.266323 0.0136904 0.215805
-0.103809 -0.211776 -0.104863
0.0454472 0.0189823 -0.189757
0.277704 0.00707931 -0.215555
0.273418 0.0100516 -0.215668
0.0599024 0.0208449 0.193183
0.271135 0.0113786 -0.215718
0.268767 0.0125921 0.215764
-0.141255 -0.211776 -0.0531243
-0.040717 0.00253159 -0.151919
0.0359091 0.0177541 -0.185568
0.279694 0.00544339 -0.215492
0.277704 0.00707931 0.215555
0.27561 0.00861735 0.215613
0.0454472 0.0189823 0.189757
0.275867 -0.211776 0.207245
0.271135 0.0113786 0.215717
-0.153476 -0.211776 2.50254e-07
-0.141255 -0.0206507 -0.0531243
-0.103809 -0.0120161 -0.104863
-0.035008 0.00384731 -0.154425
0.0120697 0.0138871 -0.1751
0.281571 0.00371255 -0.215427
0.279694 0.00544339 0.215492
0.273418 0.0100516 0.215667
0.0359091 0.0177541 0.185568
-0.040717 -0.211776 0.151919
-0.141255 -0.211776 0.0531244
-0.153476 -0.023468 2.50254e-07
-0.0115808 0.0092489 -0.164714
0.0120697 0.0138871 0.175099
0.283105 -0.197547 -0.207786
-0.103809 -0.211776 0.104862
-0.141255 -0.0206507 0.0531244
-0.035008 0.00384731 0.154425
-0.0115808 0.0092489 0.164714
0.283954 0.00128621 -0.215335
0.281571 0.00371255 0.215427
0.283105 -0.197547 0.207785
-0.103809 -0.0120161 0.104862
-0.040717 0.00253159 0.151919
0.286211 -0.00122719 -0.215239
0.283954 0.00128621 0.215334
0.289449 -0.18301 -0.208338
0.288338 -0.00382076 -0.21514
0.286211 -0.00122719 0.215239
0.289449 -0.18301 0.208337
0.288338 -0.00382076 0.215141
0.294882 -0.168206 -0.2089
0.290333 -0.00649056 -0.21504
0.290333 -0.00649056 0.215039
0.294882 -0.168206 0.208899
0.293909 -0.0120392 -0.214829
0.292191 -0.00923217 -0.214935
0.299388 -0.153176 -0.20947
0.293909 -0.0120392 0.214829
0.295482 -0.0149082 -0.214719
0.292191 -0.00923217 0.214935
0.299388 -0.153176 0.20947
0.295482 -0.0149082 0.214719
0.296909 -0.0178313 -0.214609
0.302954 -0.137962 -0.210047
0.299312 -0.0238241 0.214381
0.296909 -0.0178313 0.214608
0.298186 -0.0208056 -0.214496
0.302954 -0.137962 0.210047
0.301101 -0.0299724 -0.214148
0.300285 -0.026881 0.214265
0.298186 -0.0208056 0.214496
0.299312 -0.0238241 -0.214381
0.30557 -0.122608 -0.210631
0.301101 -0.0299724 0.214148
0.304244 -0.0452544 -0.213567
0.300285 -0.026881 -0.214265
0.30557 -0.122608 0.210631
0.304244 -0.0452544 0.213567
0.30723 -0.107157 -0.211217
0.306432 -0.0606569 -0.212983
0.306432 -0.0606569 0.212983
0.30723 -0.107157 0.211217
0.307927 -0.0916523 -0.211806
0.307661 -0.0761376 -0.212395
0.307661 -0.0761376 0.212395
0.307927 -0.0916523 0.211806
3 29 21 14
3 14 21 29
3 30 14 15
3 15 14 30
3 39 21 29
3 29 21 39
3 29 14 30
3 30 14 29
3 30 15 41
3 41 15 30
3 41 15 31
3 31 15 41
3 39 40 21
3 21 40 39
3 41 31 53
3 53 31 41
3 63 40 39
3 39 40 63
3 53 31 52
3 52 31 53
3 77 40 63
3 63 40 77
3 78 64 50
3 50 64 78
3 79 50 51
3 51 50 79
3 77 65 40
3 40 65 77
3 81 51 66
3 66 51 81
3 53 52 83
3 83 52 53
3 96 62 61
3 61 62 96
3 97 68 62
3 62 68 97
3 99 64 78
3 78 64 99
3 78 50 79
3 79 50 78
3 79 51 81
3 81 51 79
3 100 65 77
3 77 65 100
3 100 80 65
3 65 80 100
3 81 66 101
3 101 66 81
3 68 103 82
3 82 103 68
3 82 83 52
3 52 83 82
3 104 66 84
3 84 66 104
3 97 62 96
3 96 62 97
3 96 61 76
3 76 61 96
3 112 68 97
3 97 68 112
3 114 98 64
3 64 98 114
3 114 64 99
3 99 64 114
3 118 80 100
3 100 80 118
3 101 66 119
3 119 66 101
3 103 68 122
3 122 68 103
3 103 123 82
3 82 123 103
3 82 123 83
3 83 123 82
3 119 66 104
3 104 66 119
3 96 76 110
3 110 76 96
3 140 68 112
3 112 68 140
3 142 113 98
3 98 113 142
3 142 98 114
3 114 98 142
3 118 121 80
3 80 121 118
3 122 68 145
3 145 68 122
3 103 144 123
3 123 144 103
3 119 83 123
3 123 83 119
3 83 119 104
3 104 119 83
3 96 110 153
3 153 110 96
3 156 68 140
3 140 68 156
3 158 113 142
3 142 113 158
3 158 117 113
3 113 117 158
3 160 115 143
3 143 115 160
3 161 143 116
3 116 143 161
3 162 116 120
3 120 116 162
3 164 121 118
3 118 121 164
3 165 120 144
3 144 120 165
3 145 68 167
3 167 68 145
3 165 144 103
3 103 144 165
3 153 110 152
3 152 110 153
3 167 68 156
3 156 68 167
3 193 117 158
3 158 117 193
3 194 159 115
3 115 159 194
3 195 115 160
3 160 115 195
3 160 143 161
3 161 143 160
3 161 116 162
3 162 116 161
3 162 120 165
3 165 120 162
3 193 163 117
3 117 163 193
3 164 166 121
3 121 166 164
3 153 152 205
3 205 152 153
3 213 192 159
3 159 192 213
3 213 159 194
3 194 159 213
3 194 115 195
3 195 115 194
3 217 163 193
3 193 163 217
3 218 196 163
3 163 196 218
3 219 166 164
3 164 166 219
3 170 223 172
3 172 223 170
3 199 224 170
3 170 224 199
3 172 223 173
3 173 223 172
3 173 223 174
3 174 223 173
3 174 226 175
3 175 226 174
3 175 226 200
3 200 226 175
3 153 205 240
3 240 205 153
3 247 212 192
3 192 212 247
3 247 192 213
3 213 192 247
3 218 163 217
3 217 163 218
3 252 196 218
3 218 196 252
3 219 221 166
3 166 221 219
3 252 220 196
3 196 220 252
3 170 224 223
3 223 224 170
3 199 255 224
3 224 255 199
3 225 256 199
3 199 256 225
3 174 223 226
3 226 223 174
3 200 226 257
3 257 226 200
3 200 257 201
3 201 257 200
3 201 257 202
3 202 257 201
3 202 258 207
3 207 258 202
3 240 205 231
3 231 205 240
3 207 263 241
3 241 263 207
3 268 212 247
3 247 212 268
3 268 248 212
3 212 248 268
3 221 219 273
3 273 219 221
3 220 252 274
3 274 252 220
3 273 225 221
3 221 225 273
3 199 277 255
3 255 277 199
3 256 225 279
3 279 225 256
3 199 256 280
3 280 256 199
3 202 257 258
3 258 257 202
3 207 258 263
3 263 258 207
3 240 231 232
3 232 231 240
3 288 232 233
3 233 232 288
3 289 233 259
3 259 233 289
3 241 263 296
3 296 263 241
3 304 248 268
3 268 248 304
3 304 251 248
3 248 251 304
3 307 271 251
3 251 271 307
3 272 274 252
3 252 274 272
3 225 273 279
3 279 273 225
3 199 309 277
3 277 309 199
3 199 280 312
3 312 280 199
3 289 259 287
3 287 259 289
3 240 232 288
3 288 232 240
3 288 233 289
3 289 233 288
3 296 263 319
3 319 263 296
3 307 251 304
3 304 251 307
3 279 272 271
3 271 272 279
3 279 271 307
3 307 271 279
3 274 272 273
3 273 272 274
3 279 273 272
3 272 273 279
3 199 312 309
3 309 312 199
3 289 287 343
3 343 287 289
3 296 319 350
3 350 319 296
3 343 287 342
3 342 287 343
3 0 1 2
3 1 0 3
3 2 1 0
3 3 0 1
3 4 2 1
3 1 2 4
3 2 5 0
3 0 5 2
3 6 3 0
3 0 3 6
3 3 7 1
3 1 7 3
3 2 4 8
3 8 4 2
3 1 9 4
3 4 9 1
3 5 2 10
3 10 2 5
3 11 0 5
3 5 0 11
3 3 6 12
3 12 6 3
3 0 11 6
3 6 11 0
3 7 3 13
3 13 3 7
3 9 1 7
3 7 1 9
3 14 8 4
3 4 8 14
3 8 10 2
3 2 10 8
3 15 4 9
3 9 4 15
3 10 16 5
3 5 16 10
3 5 17 11
3 11 17 5
3 18 12 6
3 6 12 18
3 12 13 3
3 3 13 12
3 19 6 11
3 11 6 19
3 13 20 7
3 7 20 13
3 20 9 7
3 7 9 20
3 8 14 21
3 21 14 8
3 4 15 14
3 14 15 4
3 10 8 22
3 22 8 10
3 23 15 9
3 9 15 23
3 16 10 24
3 24 10 16
3 17 5 16
3 16 5 17
3 25 11 17
3 17 11 25
3 12 18 26
3 26 18 12
3 6 19 18
3 18 19 6
3 13 12 27
3 27 12 13
3 11 25 19
3 19 25 11
3 20 13 28
3 28 13 20
3 9 20 23
3 23 20 9
3 21 22 8
3 8 22 21
3 22 24 10
3 10 24 22
3 15 23 31
3 31 23 15
3 24 32 16
3 16 32 24
3 16 33 17
3 17 33 16
3 17 34 25
3 25 34 17
3 35 26 18
3 18 26 35
3 26 27 12
3 12 27 26
3 36 18 19
3 19 18 36
3 27 28 13
3 13 28 27
3 37 19 25
3 25 19 37
3 28 38 20
3 20 38 28
3 38 23 20
3 20 23 38
3 22 21 40
3 40 21 22
3 24 22 42
3 42 22 24
3 43 31 23
3 23 31 43
3 32 24 44
3 44 24 32
3 33 16 32
3 32 16 33
3 34 17 33
3 33 17 34
3 45 25 34
3 34 25 45
3 26 35 46
3 46 35 26
3 18 36 35
3 35 36 18
3 27 26 47
3 47 26 27
3 19 37 36
3 36 37 19
3 28 27 48
3 48 27 28
3 25 45 37
3 37 45 25
3 38 28 49
3 49 28 38
3 23 38 43
3 43 38 23
3 50 39 29
3 29 39 50
3 51 29 30
3 30 29 51
3 40 42 22
3 22 42 40
3 41 51 30
3 30 51 41
3 42 44 24
3 24 44 42
3 31 43 52
3 52 43 31
3 44 54 32
3 32 54 44
3 32 55 33
3 33 55 32
3 34 56 45
3 57 46 35
3 35 46 57
3 46 47 26
3 26 47 46
3 58 35 36
3 36 35 58
3 47 48 27
3 27 48 47
3 59 36 37
3 37 36 59
3 48 49 28
3 28 49 48
3 60 37 45
3 45 37 60
3 61 38 49
3 49 38 61
3 62 43 38
3 38 43 62
3 39 50 64
3 64 50 39
3 29 51 50
3 50 51 29
3 42 40 65
3 65 40 42
3 51 41 66
3 66 41 51
3 44 42 67
3 67 42 44
3 68 52 43
3 43 52 68
3 53 66 41
3 41 66 53
3 54 44 69
3 69 44 54
3 55 32 54
3 54 32 55
3 70 33 55
3 55 33 70
3 56 34 70
3 70 34 56
3 45 56 34
3 71 45 56
3 56 45 71
3 46 57 72
3 72 57 46
3 35 58 57
3 57 58 35
3 47 46 73
3 73 46 47
3 36 59 58
3 58 59 36
3 48 47 74
3 74 47 48
3 37 60 59
3 59 60 37
3 49 48 75
3 75 48 49
3 45 71 60
3 60 71 45
3 38 61 62
3 62 61 38
3 49 76 61
3 61 76 49
3 43 62 68
3 68 62 43
3 64 63 39
3 39 63 64
3 80 42 65
3 65 42 80
3 42 80 67
3 67 80 42
3 67 69 44
3 44 69 67
3 52 68 82
3 82 68 52
3 66 53 84
3 84 53 66
3 85 54 69
3 69 54 85
3 86 55 54
3 54 55 86
3 33 70 34
3 34 70 33
3 87 70 55
3 55 70 87
3 88 56 70
3 70 56 88
3 89 71 56
3 56 71 89
3 57 90 72
3 72 90 57
3 91 46 72
3 72 46 91
3 58 92 57
3 57 92 58
3 46 91 73
3 73 91 46
3 73 74 47
3 47 74 73
3 93 58 59
3 59 58 93
3 74 75 48
3 48 75 74
3 94 59 60
3 60 59 94
3 76 49 75
3 95 60 71
3 71 60 95
3 75 49 76
3 98 77 63
3 63 77 98
3 63 64 98
3 98 64 63
3 80 102 67
3 67 102 80
3 69 67 102
3 102 67 69
3 83 84 53
3 53 84 83
3 54 85 86
3 86 85 54
3 102 85 69
3 69 85 102
3 55 86 87
3 87 86 55
3 70 87 88
3 88 87 70
3 56 88 89
3 89 88 56
3 71 89 105
3 105 89 71
3 90 57 92
3 92 57 90
3 106 72 90
3 90 72 106
3 72 106 91
3 91 106 72
3 92 58 107
3 107 58 92
3 91 108 73
3 73 108 91
3 74 73 108
3 108 73 74
3 58 93 107
3 107 93 58
3 59 94 93
3 93 94 59
3 75 74 109
3 109 74 75
3 60 95 94
3 94 95 60
3 75 110 76
3 76 110 75
3 71 111 95
3 95 111 71
3 77 98 113
3 113 98 77
3 78 115 99
3 99 115 78
3 116 78 79
3 79 78 116
3 81 116 79
3 79 116 81
3 77 117 100
3 100 117 77
3 101 120 81
3 81 120 101
3 102 80 121
3 121 80 102
3 84 83 104
3 104 83 84
3 124 86 85
3 85 86 124
3 85 102 125
3 125 102 85
3 126 87 86
3 86 87 126
3 127 88 87
3 87 88 127
3 128 89 88
3 88 89 128
3 129 105 89
3 89 105 129
3 111 71 105
3 105 71 111
3 92 130 90
3 90 130 92
3 90 131 106
3 106 131 90
3 132 91 106
3 106 91 132
3 107 133 92
3 92 133 107
3 108 91 134
3 134 91 108
3 108 109 74
3 74 109 108
3 135 107 93
3 93 107 135
3 136 93 94
3 94 93 136
3 137 94 95
3 95 94 137
3 110 75 109
3 109 75 110
3 138 95 111
3 111 95 138
3 139 97 96
3 96 97 139
3 141 112 97
3 97 112 141
3 117 77 113
3 113 77 117
3 115 114 99
3 99 114 115
3 115 78 143
3 143 78 115
3 78 116 143
3 143 116 78
3 116 81 120
3 120 81 116
3 117 118 100
3 100 118 117
3 119 144 101
3 101 144 119
3 120 101 144
3 144 101 120
3 121 125 102
3 102 125 121
3 146 103 122
3 122 103 146
3 86 124 126
3 126 124 86
3 125 124 85
3 85 124 125
3 87 126 127
3 127 126 87
3 88 127 128
3 128 127 88
3 89 128 129
3 129 128 89
3 105 129 147
3 147 129 105
3 105 148 111
3 111 148 105
3 130 92 133
3 133 92 130
3 131 90 130
3 130 90 131
3 149 106 131
3 131 106 149
3 91 132 134
3 134 132 91
3 106 149 132
3 132 149 106
3 133 107 150
3 150 107 133
3 134 151 108
3 108 151 134
3 109 108 151
3 151 108 109
3 107 135 150
3 150 135 107
3 93 136 135
3 135 136 93
3 94 137 136
3 136 137 94
3 95 138 137
3 137 138 95
3 109 152 110
3 110 152 109
3 111 154 138
3 138 154 111
3 97 139 141
3 141 139 97
3 96 155 139
3 139 155 96
3 157 140 112
3 112 140 157
3 112 141 157
3 157 141 112
3 159 142 114
3 114 142 159
3 114 115 159
3 159 115 114
3 118 117 163
3 163 117 118
3 144 119 123
3 123 119 144
3 125 121 166
3 166 121 125
3 168 122 145
3 145 122 168
3 103 146 169
3 169 146 103
3 122 168 146
3 146 168 122
3 170 126 124
3 124 126 170
3 124 125 171
3 171 125 124
3 172 127 126
3 126 127 172
3 173 128 127
3 127 128 173
3 174 129 128
3 128 129 174
3 175 147 129
3 129 147 175
3 148 105 147
3 147 105 148
3 154 111 148
3 148 111 154
3 133 176 130
3 130 176 133
3 130 177 131
3 131 177 130
3 131 178 149
3 149 178 131
3 179 134 132
3 132 134 179
3 180 132 149
3 149 132 180
3 150 181 133
3 133 181 150
3 151 134 182
3 182 134 151
3 152 109 151
3 183 150 135
3 135 150 183
3 184 135 136
3 136 135 184
3 185 136 137
3 137 136 185
3 186 137 138
3 138 137 186
3 151 109 152
3 155 96 153
3 153 96 155
3 187 138 154
3 154 138 187
3 188 141 139
3 139 141 188
3 189 139 155
3 155 139 189
3 190 156 140
3 140 156 190
3 140 157 190
3 190 157 140
3 191 157 141
3 141 157 191
3 192 158 142
3 142 158 192
3 142 159 192
3 192 159 142
3 196 118 163
3 163 118 196
3 118 196 164
3 164 196 118
3 166 171 125
3 125 171 166
3 197 145 167
3 167 145 197
3 145 197 168
3 168 197 145
3 162 169 146
3 146 169 162
3 103 169 165
3 165 169 103
3 168 198 146
3 146 198 168
3 126 170 172
3 172 170 126
3 124 199 170
3 170 199 124
3 199 124 171
3 171 124 199
3 127 172 173
3 173 172 127
3 128 173 174
3 174 173 128
3 129 174 175
3 175 174 129
3 147 175 200
3 200 175 147
3 147 201 148
3 148 201 147
3 148 202 154
3 154 202 148
3 176 133 181
3 181 133 176
3 177 130 176
3 176 130 177
3 178 131 177
3 177 131 178
3 203 149 178
3 178 149 203
3 134 179 182
3 182 179 134
3 132 180 179
3 179 180 132
3 149 203 180
3 180 203 149
3 181 150 204
3 204 150 181
3 151 205 152
3 152 205 151
3 150 183 204
3 204 183 150
3 135 184 183
3 183 184 135
3 136 185 184
3 184 185 136
3 137 186 185
3 185 186 137
3 138 187 186
3 186 187 138
3 153 206 155
3 155 206 153
3 154 207 187
3 187 207 154
3 141 188 191
3 191 188 141
3 139 189 188
3 188 189 139
3 155 208 189
3 189 208 155
3 209 167 156
3 156 167 209
3 156 190 209
3 209 190 156
3 157 210 190
3 190 210 157
3 157 191 211
3 211 191 157
3 158 192 212
3 212 192 158
3 212 193 158
3 158 193 212
3 160 214 195
3 195 214 160
3 215 160 161
3 161 160 215
3 216 161 162
3 162 161 216
3 169 162 165
3 165 162 169
3 220 164 196
3 196 164 220
3 171 166 221
3 221 166 171
3 167 209 197
3 197 209 167
3 197 222 168
3 168 222 197
3 162 146 216
3 216 146 162
3 198 168 222
3 222 168 198
3 216 146 198
3 198 146 216
3 171 225 199
3 199 225 171
3 201 147 200
3 200 147 201
3 202 148 201
3 201 148 202
3 207 154 202
3 202 154 207
3 181 227 176
3 176 227 181
3 176 228 177
3 177 228 176
3 177 229 178
3 178 229 177
3 178 230 203
3 203 230 178
3 231 182 179
3 179 182 231
3 232 179 180
3 180 179 232
3 233 180 203
3 203 180 233
3 204 234 181
3 181 234 204
3 205 151 182
3 182 151 205
3 235 204 183
3 183 204 235
3 236 183 184
3 184 183 236
3 237 184 185
3 185 184 237
3 238 185 186
3 186 185 238
3 239 186 187
3 187 186 239
3 206 153 240
3 240 153 206
3 208 155 206
3 206 155 208
3 241 187 207
3 207 187 241
3 242 191 188
3 188 191 242
3 243 188 189
3 189 188 243
3 244 189 208
3 208 189 244
3 190 245 209
3 209 245 190
3 210 157 211
3 211 157 210
3 245 190 210
3 210 190 245
3 246 211 191
3 191 211 246
3 193 212 248
3 248 212 193
3 249 213 194
3 194 213 249
3 214 194 195
3 195 194 214
3 214 160 250
3 250 160 214
3 160 215 250
3 250 215 160
3 161 198 215
3 215 198 161
3 161 216 198
3 198 216 161
3 193 251 217
3 217 251 193
3 164 220 219
3 219 220 164
3 225 171 221
3 221 171 225
3 209 253 197
3 197 253 209
3 222 197 253
3 253 197 222
3 222 254 198
3 198 254 222
3 227 181 234
3 234 181 227
3 228 176 227
3 227 176 228
3 229 177 228
3 228 177 229
3 230 178 229
3 229 178 230
3 259 203 230
3 230 203 259
3 182 231 205
3 205 231 182
3 179 232 231
3 231 232 179
3 180 233 232
3 232 233 180
3 203 259 233
3 233 259 203
3 234 204 260
3 260 204 234
3 204 235 260
3 260 235 204
3 183 236 235
3 235 236 183
3 184 237 236
3 236 237 184
3 185 238 237
3 237 238 185
3 186 239 238
3 238 239 186
3 187 241 239
3 239 241 187
3 240 261 206
3 206 261 240
3 206 262 208
3 208 262 206
3 191 242 246
3 246 242 191
3 188 243 242
3 242 243 188
3 189 244 243
3 243 244 189
3 208 264 244
3 244 264 208
3 253 209 245
3 245 209 253
3 211 265 210
3 210 265 211
3 210 266 245
3 245 266 210
3 211 246 267
3 267 246 211
3 251 193 248
3 248 193 251
3 269 247 213
3 213 247 269
3 213 249 269
3 269 249 213
3 194 214 249
3 249 214 194
3 214 250 270
3 270 250 214
3 250 215 254
3 254 215 250
3 215 198 254
3 254 198 215
3 217 271 218
3 218 271 217
3 271 217 251
3 251 217 271
3 218 272 252
3 252 272 218
3 274 219 220
3 220 219 274
3 253 275 222
3 222 275 253
3 254 222 275
3 275 222 254
3 224 276 223
3 223 276 224
3 278 224 255
3 255 224 278
3 223 281 226
3 226 281 223
3 226 282 257
3 257 282 226
3 234 283 227
3 227 283 234
3 227 284 228
3 228 284 227
3 228 285 229
3 229 285 228
3 229 286 230
3 230 286 229
3 230 287 259
3 259 287 230
3 260 290 234
3 234 290 260
3 291 260 235
3 235 260 291
3 292 235 236
3 236 235 292
3 293 236 237
3 237 236 293
3 294 237 238
3 238 237 294
3 295 238 239
3 239 238 295
3 296 239 241
3 241 239 296
3 261 240 288
3 288 240 261
3 262 206 261
3 261 206 262
3 264 208 262
3 262 208 264
3 297 246 242
3 242 246 297
3 298 242 243
3 243 242 298
3 299 243 244
3 244 243 299
3 300 244 264
3 264 244 300
3 245 301 253
3 253 301 245
3 265 211 267
3 267 211 265
3 266 210 265
3 265 210 266
3 301 245 266
3 266 245 301
3 302 267 246
3 246 267 302
3 303 268 247
3 247 268 303
3 247 269 303
3 303 269 247
3 269 249 305
3 305 249 269
3 249 214 306
3 306 214 249
3 250 254 270
3 270 254 250
3 214 270 306
3 306 270 214
3 272 218 271
3 271 218 272
3 219 274 273
3 273 274 219
3 275 253 301
3 301 253 275
3 275 270 254
3 254 270 275
3 276 224 308
3 308 224 276
3 281 223 276
3 276 223 281
3 310 255 277
3 277 255 310
3 224 278 308
3 308 278 224
3 255 310 278
3 278 310 255
3 307 256 279
3 279 256 307
3 311 280 256
3 256 280 311
3 282 226 281
3 281 226 282
3 313 257 282
3 282 257 313
3 257 313 258
3 258 313 257
3 258 314 263
3 263 314 258
3 283 234 290
3 290 234 283
3 284 227 283
3 283 227 284
3 285 228 284
3 284 228 285
3 286 229 285
3 285 229 286
3 287 230 286
3 286 230 287
3 290 260 315
3 315 260 290
3 260 291 315
3 315 291 260
3 235 292 291
3 291 292 235
3 236 293 292
3 292 293 236
3 237 294 293
3 293 294 237
3 238 295 294
3 294 295 238
3 239 296 295
3 295 296 239
3 288 316 261
3 261 316 288
3 261 317 262
3 262 317 261
3 262 318 264
3 264 318 262
3 246 297 302
3 302 297 246
3 242 298 297
3 297 298 242
3 243 299 298
3 298 299 243
3 244 300 299
3 299 300 244
3 264 320 300
3 300 320 264
3 321 265 267
3 267 265 321
3 265 322 266
3 266 322 265
3 266 323 301
3 301 323 266
3 267 302 321
3 321 302 267
3 268 303 324
3 324 303 268
3 268 325 304
3 304 325 268
3 303 269 326
3 326 269 303
3 249 306 305
3 305 306 249
3 269 305 326
3 326 305 269
3 327 306 270
3 270 306 327
3 301 327 275
3 275 327 301
3 270 275 327
3 327 275 270
3 308 328 276
3 276 328 308
3 276 329 281
3 281 329 276
3 330 277 309
3 309 277 330
3 277 330 310
3 310 330 277
3 278 331 308
3 308 331 278
3 332 278 310
3 310 278 332
3 256 307 333
3 333 307 256
3 280 311 334
3 334 311 280
3 256 333 311
3 311 333 256
3 334 312 280
3 280 312 334
3 281 335 282
3 282 335 281
3 282 336 313
3 313 336 282
3 314 258 313
3 313 258 314
3 337 263 314
3 314 263 337
3 290 338 283
3 283 338 290
3 283 339 284
3 284 339 283
3 284 340 285
3 285 340 284
3 285 341 286
3 286 341 285
3 286 342 287
3 287 342 286
3 316 288 289
3 289 288 316
3 315 344 290
3 290 344 315
3 345 315 291
3 291 315 345
3 346 291 292
3 292 291 346
3 347 292 293
3 293 292 347
3 348 293 294
3 294 293 348
3 349 294 295
3 295 294 349
3 350 295 296
3 296 295 350
3 317 261 316
3 316 261 317
3 318 262 317
3 317 262 318
3 320 264 318
3 318 264 320
3 263 337 319
3 319 337 263
3 351 302 297
3 297 302 351
3 352 297 298
3 298 297 352
3 353 298 299
3 299 298 353
3 354 299 300
3 300 299 354
3 355 300 320
3 320 300 355
3 265 321 356
3 356 321 265
3 322 265 356
3 356 265 322
3 323 266 322
3 322 266 323
3 327 301 323
3 323 301 327
3 357 321 302
3 302 321 357
3 324 303 358
3 358 303 324
3 359 268 324
3 324 268 359
3 325 268 359
3 359 268 325
3 359 304 325
3 325 304 359
3 304 333 307
3 307 333 304
3 303 326 358
3 358 326 303
3 360 305 306
3 306 305 360
3 361 326 305
3 305 326 361
3 306 327 360
3 360 327 306
3 328 308 331
3 331 308 328
3 329 276 328
3 328 276 329
3 335 281 329
3 329 281 335
3 362 309 312
3 312 309 362
3 309 362 330
3 330 362 309
3 363 310 330
3 330 310 363
3 331 278 364
3 364 278 331
3 278 332 364
3 364 332 278
3 310 363 332
3 332 363 310
3 359 334 311
3 311 334 359
3 333 304 311
3 311 304 333
3 312 334 362
3 362 334 312
3 336 282 335
3 335 282 336
3 365 313 336
3 336 313 365
3 313 365 314
3 314 365 313
3 314 366 337
3 337 366 314
3 338 290 344
3 344 290 338
3 339 283 338
3 338 283 339
3 340 284 339
3 339 284 340
3 341 285 340
3 340 285 341
3 342 286 341
3 341 286 342
3 367 289 343
3 343 289 367
3 289 367 316
3 316 367 289
3 344 315 368
3 368 315 344
3 315 345 368
3 368 345 315
3 291 346 345
3 345 346 291
3 292 347 346
3 346 347 292
3 293 348 347
3 347 348 293
3 294 349 348
3 348 349 294
3 295 350 349
3 349 350 295
3 316 369 317
3 317 369 316
3 317 370 318
3 318 370 317
3 318 371 320
3 320 371 318
3 348 319 337
3 337 319 348
3 319 349 350
3 350 349 319
3 302 351 357
3 357 351 302
3 297 352 351
3 351 352 297
3 298 353 352
3 352 353 298
3 299 354 353
3 353 354 299
3 300 355 354
3 354 355 300
3 320 372 355
3 355 372 320
3 321 373 356
3 356 373 321
3 356 374 322
3 322 374 356
3 322 375 323
3 323 375 322
3 323 360 327
3 327 360 323
3 321 357 376
3 376 357 321
3 324 358 377
3 377 358 324
3 359 324 377
3 377 324 359
3 311 304 359
3 359 304 311
3 378 358 326
3 326 358 378
3 305 360 361
3 361 360 305
3 326 361 378
3 378 361 326
3 331 379 328
3 328 379 331
3 328 380 329
3 329 380 328
3 329 381 335
3 335 381 329
3 382 330 362
3 362 330 382
3 330 382 363
3 363 382 330
3 364 383 331
3 331 383 364
3 384 364 332
3 332 364 384
3 385 332 363
3 363 332 385
3 334 359 386
3 386 359 334
3 386 362 334
3 334 362 386
3 335 387 336
3 336 387 335
3 336 388 365
3 365 388 336
3 366 314 365
3 365 314 366
3 347 337 366
3 366 337 347
3 344 371 338
3 338 371 344
3 338 370 339
3 339 370 338
3 339 369 340
3 340 369 339
3 340 342 341
3 341 342 340
3 340 343 342
3 342 343 340
3 340 367 343
3 343 367 340
3 369 316 367
3 367 316 369
3 368 372 344
3 344 372 368
3 345 389 368
3 368 389 345
3 346 390 345
3 345 390 346
3 347 391 346
3 346 391 347
3 348 337 347
3 347 337 348
3 349 319 348
3 348 319 349
3 370 317 369
3 369 317 370
3 371 318 370
3 370 318 371
3 372 320 371
3 371 320 372
3 392 357 351
3 351 357 392
3 393 351 352
3 352 351 393
3 353 393 352
3 352 393 353
3 394 353 354
3 354 353 394
3 355 394 354
3 354 394 355
3 395 355 372
3 372 355 395
3 373 321 376
3 376 321 373
3 374 356 373
3 373 356 374
3 375 322 374
3 374 322 375
3 360 323 375
3 375 323 360
3 357 396 376
3 376 396 357
3 397 377 358
3 358 377 397
3 377 386 359
3 359 386 377
3 358 378 397
3 397 378 358
3 375 361 360
3 360 361 375
3 398 378 361
3 361 378 398
3 379 331 383
3 383 331 379
3 380 328 379
3 379 328 380
3 381 329 380
3 380 329 381
3 387 335 381
3 381 335 387
3 362 386 382
3 382 386 362
3 399 363 382
3 382 363 399
3 383 364 400
3 400 364 383
3 364 384 400
3 400 384 364
3 332 385 384
3 384 385 332
3 363 399 385
3 385 399 363
3 388 336 387
3 387 336 388
3 391 365 388
3 388 365 391
3 365 391 366
3 366 391 365
3 347 366 391
3 391 366 347
3 344 372 371
3 371 372 344
3 338 371 370
3 370 371 338
3 339 370 369
3 369 370 339
3 340 369 367
3 367 369 340
3 368 395 372
3 372 395 368
3 345 390 389
3 389 390 345
3 368 389 395
3 395 389 368
3 346 391 390
3 390 391 346
3 357 392 401
3 401 392 357
3 351 393 392
3 392 393 351
3 393 353 402
3 402 353 393
3 353 394 402
3 402 394 353
3 394 355 403
3 403 355 394
3 355 395 403
3 403 395 355
3 376 404 373
3 373 404 376
3 373 405 374
3 374 405 373
3 374 398 375
3 375 398 374
3 396 357 401
3 401 357 396
3 404 376 396
3 396 376 404
3 377 397 406
3 406 397 377
3 386 377 406
3 406 377 386
3 407 397 378
3 378 397 407
3 361 375 398
3 398 375 361
3 378 398 407
3 407 398 378
3 383 408 379
3 379 408 383
3 379 409 380
3 380 409 379
3 380 410 381
3 381 410 380
3 381 411 387
3 387 411 381
3 406 382 386
3 386 382 406
3 382 406 399
3 399 406 382
3 400 412 383
3 383 412 400
3 384 413 400
3 400 413 384
3 385 414 384
3 384 414 385
3 399 415 385
3 385 415 399
3 387 416 388
3 388 416 387
3 388 390 391
3 391 390 388
3 416 389 390
3 390 389 416
3 417 395 389
3 389 395 417
3 392 418 401
3 401 418 392
3 393 419 392
3 392 419 393
3 402 420 393
3 393 420 402
3 394 421 402
3 402 421 394
3 403 422 394
3 394 422 403
3 395 417 403
3 403 417 395
3 405 373 404
3 404 373 405
3 398 374 405
3 405 374 398
3 401 423 396
3 396 423 401
3 396 424 404
3 404 424 396
3 425 406 397
3 397 406 425
3 397 407 425
3 425 407 397
3 405 407 398
3 398 407 405
3 408 383 412
3 412 383 408
3 409 379 408
3 408 379 409
3 410 380 409
3 409 380 410
3 411 381 410
3 410 381 411
3 416 387 411
3 411 387 416
3 406 425 399
3 399 425 406
3 412 400 413
3 413 400 412
3 413 384 414
3 414 384 413
3 414 385 415
3 415 385 414
3 415 399 425
3 425 399 415
3 390 388 416
3 416 388 390
3 389 416 417
3 417 416 389
3 418 392 419
3 419 392 418
3 423 401 418
3 418 401 423
3 419 393 420
3 420 393 419
3 420 402 421
3 421 402 420
3 421 394 422
3 422 394 421
3 422 403 417
3 417 403 422
3 404 426 405
3 405 426 404
3 424 396 423
3 423 396 424
3 426 404 424
3 424 404 426
3 426 425 407
3 407 425 426
3 407 405 426
3 426 405 407
3 412 419 408
3 408 419 412
3 408 420 409
3 409 420 408
3 409 421 410
3 410 421 409
3 410 422 411
3 411 422 410
3 411 417 416
3 416 417 411
3 413 418 412
3 412 418 413
3 414 423 413
3 413 423 414
3 415 424 414
3 414 424 415
3 425 426 415
3 415 426 425
3 419 412 418
3 418 412 419
3 418 413 423
3 423 413 418
3 420 408 419
3 419 408 420
3 421 409 420
3 420 409 421
3 422 410 421
3 421 410 422
3 417 411 422
3 422 411 417
3 423 414 424
3 424 414 423
3 424 415 426
3 426 415 424
3 427 428 429
3 428 427 430
3 429 428 427
3 430 427 428
3 428 431 429
3 429 431 428
3 429 432 427
3 427 432 429
3 427 433 430
3 430 433 427
3 428 430 434
3 434 430 428
3 431 428 435
3 435 428 431
3 432 429 431
3 431 429 432
3 433 427 432
3 432 427 433
3 436 430 433
3 433 430 436
3 430 436 434
3 434 436 430
3 428 434 437
3 437 434 428
3 438 435 428
3 428 435 438
3 435 432 431
3 431 432 435
3 432 435 433
3 433 435 432
3 433 435 436
3 436 435 433
3 439 434 436
3 436 434 439
3 434 439 437
3 437 439 434
3 428 437 440
3 440 437 428
3 435 438 441
3 441 438 435
3 428 442 438
3 438 442 428
3 436 435 439
3 439 435 436
3 443 437 439
3 439 437 443
3 437 443 440
3 440 443 437
3 428 440 444
3 444 440 428
3 445 441 438
3 438 441 445
3 446 435 441
3 441 435 446
3 428 447 442
3 442 447 428
3 438 442 448
3 448 442 438
3 439 435 443
3 443 435 439
3 449 440 443
3 443 440 449
3 440 449 444
3 444 449 440
3 428 444 450
3 450 444 428
3 441 445 451
3 451 445 441
3 438 452 445
3 445 452 438
3 453 435 446
3 446 435 453
3 446 441 454
3 454 441 446
3 428 455 447
3 447 455 428
3 447 446 442
3 442 446 447
3 438 448 456
3 456 448 438
3 443 435 449
3 449 435 443
3 457 444 449
3 449 444 457
3 444 457 450
3 450 457 444
3 428 450 458
3 458 450 428
3 452 451 445
3 445 451 452
3 459 441 451
3 451 441 459
3 438 460 452
3 452 460 438
3 461 435 453
3 453 435 461
3 446 447 453
3 453 447 446
3 454 441 462
3 462 441 454
3 454 442 446
3 446 442 454
3 428 463 455
3 455 463 428
3 455 453 447
3 447 453 455
3 448 462 456
3 438 456 464
3 464 456 438
3 449 435 457
3 457 435 449
3 457 458 450
3 450 458 457
3 428 458 465
3 465 458 428
3 451 452 459
3 459 452 451
3 466 441 459
3 459 441 466
3 438 464 460
3 460 464 438
3 460 459 452
3 452 459 460
3 467 435 461
3 461 435 467
3 453 455 461
3 461 455 453
3 462 441 468
3 468 441 462
3 462 448 454
3 454 448 462
3 442 454 448
3 448 454 442
3 428 469 463
3 463 469 428
3 463 461 455
3 455 461 463
3 456 462 448
3 468 456 462
3 462 456 468
3 456 468 464
3 464 468 456
3 457 435 470
3 470 435 457
3 458 457 470
3 470 457 458
3 470 465 458
3 458 465 470
3 428 465 471
3 471 465 428
3 468 441 466
3 466 441 468
3 459 460 466
3 466 460 459
3 464 466 460
3 460 466 464
3 472 435 467
3 467 435 472
3 461 463 467
3 467 463 461
3 428 473 469
3 469 473 428
3 469 467 463
3 463 467 469
3 466 464 468
3 468 464 466
3 470 435 474
3 474 435 470
3 465 470 474
3 474 470 465
3 474 471 465
3 465 471 474
3 428 471 475
3 475 471 428
3 476 435 472
3 472 435 476
3 467 469 472
3 472 469 467
3 428 477 473
3 473 477 428
3 473 472 469
3 469 472 473
3 474 435 478
3 478 435 474
3 471 474 478
3 478 474 471
3 478 475 471
3 471 475 478
3 428 475 477
3 477 475 428
3 479 435 476
3 476 435 479
3 472 473 476
3 476 473 472
3 479 473 477
3 477 473 479
3 478 435 480
3 480 435 478
3 475 478 480
3 480 478 475
3 480 477 475
3 475 477 480
3 480 435 479
3 479 435 480
3 473 479 476
3 476 479 473
3 477 480 479
3 479 480 477
3 481 482 483
3 483 482 481
3 512 505 484
3 484 505 512
3 512 517 505
3 505 517 512
3 512 523 517
3 517 523 512
3 525 512 518
3 512 530 523
3 523 530 512
3 533 512 525
3 520 537 499
3 499 537 520
3 512 539 530
3 530 539 512
3 544 512 533
3 537 520 512
3 512 520 537
3 512 549 539
3 539 549 512
3 541 542 531
3 531 542 541
3 544 553 512
3 537 534 535
3 537 545 534
3 512 520 548
3 548 520 512
3 512 554 549
3 549 554 512
3 540 542 541
3 541 542 540
3 550 542 540
3 540 542 550
3 558 553 544
3 537 559 545
3 512 548 554
3 554 548 512
3 555 542 550
3 550 542 555
3 542 562 556
3 556 562 542
3 563 553 558
3 560 559 537
3 561 542 555
3 555 542 561
3 562 542 561
3 561 542 562
3 566 553 563
3 560 564 559
3 566 565 553
3 560 567 564
3 568 569 560
3 571 565 566
3 560 569 567
3 574 570 565
3 568 572 569
3 575 565 571
3 573 577 568
3 578 570 574
3 574 565 575
3 568 579 572
3 573 581 577
3 568 577 579
3 582 570 578
3 580 584 573
3 573 585 581
3 586 570 582
3 588 583 576
3 580 589 584
3 573 584 590
3 573 590 585
3 591 570 586
3 587 593 580
3 594 583 588
3 588 576 595
3 580 593 589
3 591 576 570
3 587 597 593
3 594 592 583
3 595 576 591
3 596 597 587
3 599 592 594
3 599 598 592
3 596 600 597
3 601 600 596
3 603 598 599
3 598 603 602
3 601 604 600
3 604 601 605
3 483 484 482
3 485 484 483
3 482 484 486
3 487 484 485
3 483 488 485
3 485 488 483
3 484 489 486
3 486 489 484
3 486 490 482
3 482 490 486
3 491 484 487
3 485 492 487
3 487 492 485
3 488 483 493
3 493 483 488
3 492 485 488
3 488 485 492
3 489 484 494
3 494 484 489
3 495 486 489
3 489 486 495
3 490 486 495
3 495 486 490
3 490 483 482
3 482 483 490
3 496 484 491
3 487 497 491
3 491 497 487
3 497 487 492
3 492 487 497
3 498 493 483
3 483 493 498
3 499 488 493
3 499 492 488
3 494 484 500
3 500 484 494
3 494 495 489
3 489 495 494
3 501 490 495
3 495 490 501
3 498 483 490
3 490 483 498
3 502 484 496
3 491 503 496
3 496 503 491
3 503 491 497
3 497 491 503
3 499 497 492
3 493 498 504
3 504 498 493
3 499 493 504
3 500 484 505
3 505 484 500
3 506 494 500
3 500 494 506
3 507 495 494
3 494 495 507
3 490 501 498
3 498 501 490
3 495 508 501
3 501 508 495
3 509 484 502
3 496 510 502
3 502 510 496
3 510 496 503
3 503 496 510
3 499 503 497
3 498 511 504
3 504 511 498
3 499 504 511
3 500 505 513
3 513 505 500
3 494 506 507
3 507 506 494
3 500 514 506
3 506 514 500
3 508 495 507
3 507 495 508
3 511 498 501
3 501 498 511
3 511 501 508
3 508 501 511
3 515 484 509
3 502 516 509
3 509 516 502
3 516 502 510
3 510 502 516
3 499 510 503
3 508 499 511
3 511 499 508
3 518 512 484
3 513 505 519
3 519 505 513
3 514 500 513
3 513 500 514
3 499 507 506
3 506 507 499
3 520 506 514
3 514 506 520
3 499 508 507
3 507 508 499
3 521 484 515
3 509 522 515
3 515 522 509
3 522 509 516
3 516 509 522
3 499 516 510
3 517 524 505
3 505 524 517
3 518 484 526
3 519 505 524
3 524 505 519
3 527 513 519
3 519 513 527
3 513 527 514
3 514 527 513
3 499 506 520
3 520 506 499
3 520 514 527
3 527 514 520
3 528 484 521
3 515 529 521
3 521 529 515
3 529 515 522
3 522 515 529
3 499 522 516
3 523 531 517
3 517 531 523
3 524 517 532
3 532 517 524
3 518 534 525
3 525 534 518
3 526 484 528
3 526 535 518
3 518 535 526
3 532 519 524
3 524 519 532
3 519 536 527
3 527 536 519
3 520 527 536
3 536 527 520
3 521 538 528
3 528 538 521
3 538 521 529
3 529 521 538
3 499 529 522
3 540 523 530
3 530 523 540
3 531 523 541
3 541 523 531
3 542 517 531
3 531 517 542
3 532 517 543
3 543 517 532
3 525 545 533
3 533 545 525
3 534 518 535
3 535 518 534
3 545 525 534
3 534 525 545
3 528 546 526
3 526 546 528
3 535 526 546
3 546 526 535
3 547 519 532
3 532 519 547
3 536 519 547
3 547 519 536
3 537 535 499
3 536 548 520
3 520 548 536
3 546 528 538
3 538 528 546
3 499 538 529
3 550 530 539
3 539 530 550
3 523 540 541
3 541 540 523
3 530 550 540
3 540 550 530
3 551 517 542
3 542 517 551
3 543 517 551
3 551 517 543
3 552 532 543
3 543 532 552
3 545 544 533
3 533 544 545
3 499 535 546
3 532 552 547
3 547 552 532
3 548 536 547
3 547 536 548
3 553 537 512
3 512 537 553
3 499 546 538
3 555 539 549
3 549 539 555
3 539 555 550
3 550 555 539
3 556 551 542
3 542 551 556
3 557 543 551
3 551 543 557
3 543 557 552
3 552 557 543
3 544 545 559
3 559 545 544
3 548 547 552
3 552 547 548
3 537 553 560
3 560 553 537
3 561 549 554
3 554 549 561
3 549 561 555
3 555 561 549
3 551 556 557
3 557 556 551
3 548 552 557
3 557 552 548
3 544 564 558
3 558 564 544
3 564 544 559
3 559 544 564
3 562 554 548
3 548 554 562
3 565 560 553
3 553 560 565
3 554 562 561
3 561 562 554
3 548 557 556
3 556 557 548
3 548 556 562
3 562 556 548
3 558 567 563
3 563 567 558
3 567 558 564
3 564 558 567
3 560 565 568
3 568 565 560
3 563 569 566
3 566 569 563
3 569 563 567
3 567 563 569
3 570 568 565
3 565 568 570
3 572 566 569
3 569 566 572
3 568 570 573
3 573 570 568
3 566 572 571
3 571 572 566
3 576 573 570
3 570 573 576
3 571 579 575
3 575 579 571
3 579 571 572
3 572 571 579
3 573 576 580
3 580 576 573
3 574 581 578
3 578 581 574
3 575 577 574
3 574 577 575
3 577 575 579
3 579 575 577
3 583 580 576
3 576 580 583
3 581 574 577
3 577 574 581
3 581 582 578
3 578 582 581
3 580 583 587
3 587 583 580
3 582 581 585
3 585 581 582
3 582 590 586
3 586 590 582
3 592 587 583
3 583 587 592
3 589 591 584
3 584 591 589
3 584 586 590
3 590 586 584
3 590 582 585
3 585 582 590
3 586 584 591
3 591 584 586
3 587 592 596
3 596 592 587
3 588 597 594
3 594 597 588
3 595 593 588
3 588 593 595
3 593 595 589
3 589 595 593
3 591 589 595
3 595 589 591
3 598 596 592
3 592 596 598
3 597 588 593
3 593 588 597
3 600 594 597
3 597 594 600
3 596 598 601
3 601 598 596
3 594 600 599
3 599 600 594
3 602 601 598
3 598 601 602
3 604 599 600
3 600 599 604
3 601 602 605
3 605 602 601
3 599 604 603
3 603 604 599
3 603 605 602
3 602 605 603
3 605 603 604
3 604 603 605
3 518 512 525
3 525 512 533
3 533 512 544
3 512 553 544
3 535 534 537
3 534 545 537
3 544 553 558
3 545 559 537
3 558 553 563
3 537 559 560
3 563 553 566
3 559 564 560
3 553 565 566
3 564 567 560
3 560 569 568
3 566 565 571
3 567 569 560
3 565 570 574
3 569 572 568
3 571 565 575
3 568 577 573
3 574 570 578
3 575 565 574
3 572 579 568
3 577 581 573
3 579 577 568
3 578 570 582
3 573 584 580
3 581 585 573
3 582 570 586
3 576 583 588
3 584 589 580
3 590 584 573
3 585 590 573
3 586 570 591
3 580 593 587
3 588 583 594
3 595 576 588
3 589 593 580
3 570 576 591
3 583 592 594
3 593 597 587
3 591 576 595
3 587 597 596
3 594 592 599
3 592 598 599
3 597 600 596
3 596 600 601
3 599 598 603
3 602 603 598
3 600 604 601
3 605 601 604
3 482 484 483
3 483 484 485
3 486 484 482
3 485 484 487
3 487 484 491
3 491 484 496
3 493 488 499
3 488 492 499
3 496 484 502
3 492 497 499
3 504 493 499
3 502 484 509
3 497 503 499
3 511 504 499
3 509 484 515
3 503 510 499
3 484 512 518
3 515 484 521
3 510 516 499
3 526 484 518
3 521 484 528
3 516 522 499
3 528 484 526
3 522 529 499
3 499 535 537
3 529 538 499
3 546 535 499
3 538 546 499
