ply
format ascii 1.0
comment Generated by PyMesh
element vertex 46
property double x
property double y
property double z
element face 176
property list uchar int vertex_indices
end_header
-0.110058 0.0218796 -0.16045
-0.0607289 0.0218796 -0.0742508
-0.110058 0.0218796 -0.0742508
0.266062 0.0218796 -0.16045
-0.110058 0.299549 -0.0742508
-0.0607289 0.0218796 0.0973581
0.155622 -0.101063 -0.16045
-0.0607289 0.299549 -0.0742508
-0.110058 0.391748 -0.16045
0.266062 0.0218796 0.16045
-0.0607289 0.299549 0.0973581
0.266062 -0.391748 -0.16045
-0.110058 -0.101063 -0.16045
-0.110058 0.391748 0.16045
-0.266062 0.391748 -0.16045
-0.110058 0.0218796 0.0973581
0.266062 -0.101063 -0.0500106
0.155622 -0.391748 -0.16045
-0.153539 -0.101063 -0.16045
-0.110058 0.299549 0.0973581
-0.110058 0.0218796 0.16045
0.266062 -0.101063 0.0666807
0.155622 -0.391748 -0.0500106
0.266062 -0.391748 -0.0500106
0.155622 -0.101063 -0.0500106
-0.266062 0.391748 0.16045
0.172293 -0.101063 0.16045
0.266062 -0.391748 0.0666807
0.172293 -0.101063 0.0666807
-0.153539 -0.391748 -0.16045
-0.153539 -0.101063 -0.0479267
-0.150413 -0.101063 0.16045
-0.266062 -0.101063 0.0448011
0.172293 -0.391748 0.16045
-0.110058 -0.101063 0.16045
0.266062 -0.391748 0.16045
-0.150413 -0.101063 0.0448011
-0.266062 -0.391748 -0.16045
-0.266062 -0.391748 0.16045
-0.266062 -0.101063 -0.0479267
0.172293 -0.391748 0.0666807
-0.266062 -0.391748 -0.0479267
-0.153539 -0.391748 -0.0479267
-0.150413 -0.391748 0.16045
-0.266062 -0.391748 0.0448011
-0.150413 -0.391748 0.0448011
3 0 1 2
3 3 1 0
3 1 4 2
3 4 0 2
3 3 5 1
3 6 3 0
3 4 1 7
3 0 4 8
3 9 5 3
3 10 1 5
3 3 6 11
3 6 0 12
3 1 10 7
3 10 4 7
3 8 4 13
3 14 0 8
3 9 15 5
3 3 16 9
3 15 10 5
3 17 11 6
3 11 16 3
3 0 14 12
3 18 6 12
3 12 6 18
3 4 10 19
3 19 13 4
3 13 14 8
3 15 9 20
3 21 9 16
3 10 15 19
3 22 11 17
3 17 11 22
3 6 22 17
3 16 11 23
3 12 14 18
3 18 24 6
3 6 24 18
3 15 13 19
3 14 13 25
3 9 26 20
3 13 15 20
3 27 9 21
3 16 28 21
3 21 28 16
3 11 22 23
3 23 22 11
3 22 6 24
3 22 16 23
3 18 14 29
3 30 24 18
3 18 24 30
3 13 31 25
3 25 32 14
3 9 33 26
3 20 26 34
3 20 31 13
3 9 27 35
3 28 27 21
3 28 16 36
3 36 16 28
3 16 22 24
3 29 14 37
3 29 30 18
3 30 16 24
3 24 16 30
3 25 31 38
3 38 32 25
3 39 14 32
3 33 9 35
3 33 28 26
3 28 34 26
3 26 34 28
3 31 20 34
3 27 33 35
3 35 33 27
3 27 28 40
3 36 16 32
3 32 16 36
3 31 28 36
3 36 28 31
3 14 41 37
3 41 29 37
3 37 29 41
3 30 29 42
3 32 16 30
3 30 16 32
3 38 31 43
3 32 38 44
3 41 14 39
3 39 32 30
3 30 32 39
3 28 33 40
3 34 28 31
3 31 28 34
3 33 27 40
3 40 27 33
3 32 45 36
3 45 31 36
3 29 41 42
3 42 41 29
3 41 30 42
3 31 45 43
3 45 38 43
3 43 38 45
3 38 45 44
3 44 45 38
3 45 32 44
3 30 41 39
3 2 1 0
3 0 1 3
3 2 0 4
3 1 5 3
3 0 3 6
3 8 4 0
3 3 5 9
3 11 6 3
3 12 0 6
3 13 4 8
3 8 0 14
3 5 15 9
3 9 16 3
3 6 11 17
3 3 16 11
3 12 14 0
3 4 13 19
3 8 14 13
3 20 9 15
3 16 9 21
3 17 22 6
3 23 11 16
3 18 14 12
3 19 13 15
3 25 13 14
3 20 26 9
3 20 15 13
3 21 9 27
3 24 6 22
3 23 16 22
3 29 14 18
3 25 31 13
3 14 32 25
3 26 33 9
3 34 26 20
3 13 31 20
3 35 27 9
3 21 27 28
3 24 22 16
3 37 14 29
3 18 30 29
3 38 31 25
3 25 32 38
3 32 14 39
3 35 9 33
3 26 28 33
3 34 20 31
3 40 28 27
3 37 41 14
3 42 29 30
3 43 31 38
3 44 38 32
3 39 14 41
3 40 33 28
3 36 45 32
3 36 31 45
3 42 30 41
3 43 45 31
3 44 32 45
3 39 41 30
3 2 4 1
3 7 1 4
3 5 1 10
3 7 10 1
3 7 4 10
3 5 10 15
3 19 10 4
3 19 15 10
