ply
format ascii 1.0
comment Generated by PyMesh
element vertex 58
property double x
property double y
property double z
element face 224
property list uchar int vertex_indices
end_header
0.0910742 -0.441726 -0.165647
0.165647 -0.441726 -0.0970453
0.0910742 -0.441726 -0.0970453
0.165647 -0.441726 -0.165647
0.0910742 -0.123086 -0.0970453
0.165647 -0.0448637 -0.165647
0.165647 -0.123086 -0.0970453
0.0910742 -0.123086 -0.165647
0.165647 -0.123086 0.0993231
-0.0906775 -0.123086 -0.0970453
-0.0906775 -0.0448637 -0.165647
-0.165647 -0.123086 -0.0970453
-0.0906775 -0.123086 -0.165647
-0.0906775 -0.0448637 0.165647
0.165647 -0.0448637 0.165647
0.0910742 -0.123086 0.0993231
-0.0906775 -0.441726 -0.0970453
-0.165647 -0.441726 -0.165647
-0.0906775 0.3767 -0.165647
0.165647 -0.441726 0.165647
-0.0906775 -0.123086 0.0993231
0.0910742 -0.441726 0.0993231
-0.165647 -0.441726 -0.0970453
-0.0906775 -0.441726 -0.165647
0.0910742 -0.123086 0.165647
-0.0906775 0.3767 0.165647
0.165647 -0.441726 0.0993231
-0.165647 -0.123086 0.0993231
-0.165647 0.3767 -0.165647
-0.0906775 -0.123086 0.165647
-0.0906775 0.395916 0.142165
-0.165647 0.3767 0.165647
0.0910742 -0.441726 0.165647
-0.165647 -0.441726 0.0993231
-0.165647 0.395916 -0.142164
-0.0906775 0.395916 -0.142164
-0.0906775 -0.441726 0.0993231
-0.0906775 -0.441726 0.165647
-0.165647 0.395916 0.142165
-0.0906775 0.412062 0.116475
-0.165647 -0.441726 0.165647
-0.165647 0.412062 -0.116475
-0.165647 0.412062 0.116475
-0.0906775 0.412062 -0.116475
-0.0906775 0.424887 -0.0889772
-0.165647 0.424887 -0.0889772
-0.165647 0.424887 0.0889772
-0.0906775 0.424887 0.0889772
-0.165647 0.434194 -0.0600964
-0.0906775 0.434194 -0.0600964
-0.165647 0.434194 0.060097
-0.0906775 0.434194 0.060097
-0.165647 0.439835 -0.0302831
-0.165647 0.439835 0.0302831
-0.0906775 0.439835 -0.0302831
-0.0906775 0.439835 0.0302831
-0.165647 0.441726 2.80004e-07
-0.0906775 0.441726 2.80004e-07
3 0 1 2
3 1 0 3
3 2 1 0
3 3 0 1
3 1 4 2
3 2 4 1
3 4 0 2
3 2 0 4
3 0 5 3
3 3 5 0
3 5 1 3
3 3 1 5
3 4 1 6
3 6 1 4
3 0 4 7
3 7 4 0
3 5 0 7
3 7 0 5
3 1 5 6
3 6 5 1
3 6 8 4
3 4 8 6
3 4 9 7
3 7 9 4
3 5 7 10
3 10 7 5
3 6 5 8
3 8 5 6
3 8 11 4
3 4 11 8
3 4 11 9
3 9 11 4
3 7 9 12
3 12 9 7
3 10 7 12
3 12 7 10
3 13 5 10
3 10 5 13
3 14 8 5
3 5 8 14
3 15 11 8
3 8 11 15
3 11 16 9
3 9 16 11
3 16 12 9
3 9 12 16
3 12 17 10
3 10 17 12
3 5 13 14
3 14 13 5
3 18 13 10
3 10 13 18
3 19 8 14
3 14 8 19
3 20 11 15
3 15 11 20
3 8 21 15
3 15 21 8
3 16 11 22
3 22 11 16
3 12 16 23
3 23 16 12
3 17 12 23
3 23 12 17
3 10 17 18
3 18 17 10
3 24 14 13
3 13 14 24
3 13 18 25
3 25 18 13
3 8 19 26
3 26 19 8
3 14 24 19
3 19 24 14
3 11 20 27
3 27 20 11
3 24 20 15
3 15 20 24
3 21 8 26
3 26 8 21
3 21 24 15
3 15 24 21
3 28 22 11
3 11 22 28
3 17 16 22
3 22 16 17
3 16 17 23
3 23 17 16
3 18 17 28
3 28 17 18
3 24 13 29
3 29 13 24
3 25 18 30
3 30 18 25
3 31 13 25
3 25 13 31
3 19 21 26
3 26 21 19
3 32 19 24
3 24 19 32
3 20 33 27
3 27 33 20
3 27 31 11
3 11 31 27
3 20 24 29
3 29 24 20
3 24 21 32
3 32 21 24
3 22 28 17
3 17 28 22
3 28 11 31
3 31 11 28
3 13 31 29
3 29 31 13
3 30 18 35
3 35 18 30
3 21 19 32
3 32 19 21
3 33 20 36
3 36 20 33
3 33 31 27
3 27 31 33
3 37 20 29
3 29 20 37
3 28 31 38
3 38 31 28
3 28 38 34
3 34 38 28
3 29 31 37
3 37 31 29
3 30 35 39
3 39 35 30
3 20 37 36
3 36 37 20
3 37 33 36
3 36 33 37
3 31 33 40
3 40 33 31
3 34 38 42
3 42 38 34
3 37 31 40
3 40 31 37
3 39 35 43
3 43 35 39
3 33 37 40
3 40 37 33
3 34 42 41
3 41 42 34
3 39 43 44
3 44 43 39
3 41 42 46
3 46 42 41
3 39 44 47
3 47 44 39
3 41 46 45
3 45 46 41
3 47 44 49
3 49 44 47
3 45 46 50
3 50 46 45
3 45 50 48
3 48 50 45
3 47 49 51
3 51 49 47
3 48 50 53
3 53 50 48
3 51 49 54
3 54 49 51
3 48 53 52
3 52 53 48
3 51 54 55
3 55 54 51
3 52 53 56
3 56 53 52
3 55 54 57
3 57 54 55
3 34 18 28
3 28 18 34
3 30 31 25
3 25 31 30
3 18 34 35
3 35 34 18
3 31 30 38
3 38 30 31
3 41 35 34
3 34 35 41
3 39 38 30
3 30 38 39
3 35 41 43
3 43 41 35
3 38 39 42
3 42 39 38
3 45 43 41
3 41 43 45
3 47 42 39
3 39 42 47
3 43 45 44
3 44 45 43
3 42 47 46
3 46 47 42
3 48 44 45
3 45 44 48
3 51 46 47
3 47 46 51
3 44 48 49
3 49 48 44
3 46 51 50
3 50 51 46
3 52 49 48
3 48 49 52
3 55 50 51
3 51 50 55
3 49 52 54
3 54 52 49
3 50 55 53
3 53 55 50
3 56 54 52
3 52 54 56
3 57 53 55
3 55 53 57
3 54 56 57
3 57 56 54
3 53 57 56
3 56 57 53
